<svg xmlns="http://www.w3.org/2000/svg" xml:space="preserve" id="Layer_1" width="101.545" height="101.545" x="0" y="0" version="1.1" viewBox="142.867 266.172 101.545 101.545"><path fill="#211F1D" d="M236.992 266.172h-86.704c-4.296 0-7.42 3.125-7.42 7.42v86.704c0 3.906 3.515 7.421 7.42 7.421h86.704c4.296 0 7.42-3.125 7.42-7.421v-86.704c0-4.295-3.515-7.42-7.42-7.42m-62.88 85.923H158.49v-46.867h15.623v46.867zm-7.811-53.116c-5.078 0-9.374-4.296-9.374-9.373s4.296-9.374 9.374-9.374c5.077 0 9.373 4.296 9.373 9.374s-4.296 9.373-9.373 9.373m62.489 53.116h-15.623v-23.434c0-6.249-1.562-12.498-7.811-12.498s-7.812 6.249-7.812 12.498v23.434h-15.622v-46.867h15.622v5.468h.782c1.953-3.905 7.03-7.03 12.888-7.03 14.451 0 17.575 9.374 17.575 21.09v27.339z"/></svg>