<svg xmlns="http://www.w3.org/2000/svg" xml:space="preserve" id="Layer_1" width="101.141" height="101.14" x="0" y="0" version="1.1" viewBox="247.07 370.375 101.141 101.14"><path d="m336.072 390.547-14.021-14.03c-3.064-3.054-9.092-5.554-13.412-5.554h-47.134c-4.32 0-7.855 3.535-7.855 7.855v84.842c0 4.318 3.535 7.854 7.855 7.854h72.271c4.32 0 7.857-3.536 7.857-7.854v-59.704c-.001-4.319-2.497-10.35-5.561-13.409m-19.579-10.497q.65.449 1.119.912l14.021 14.02c.314.314.609.688.904 1.12h-16.045zm18.852 83.611c0 .843-.725 1.569-1.57 1.569h-72.271a1.596 1.596 0 0 1-1.571-1.569v-84.842c0-.852.719-1.571 1.571-1.571h47.134c.471 0 1 .059 1.57.167v24.981h24.961c.117.569.176 1.099.176 1.57z"/><path d="M289.768 448.066c-2.663.889-4.685 1.184-7.397 1.184-9.913 0-15.979-6.953-15.979-18.049 0-11.047 6.066-18.001 15.979-18.001 2.811 0 4.882.247 7.348 1.036l2.269.74c.395.148.542.395.395.789l-1.775 5.573c-.148.395-.395.542-.789.395l-2.318-.74c-1.43-.444-2.86-.641-5.129-.641-4.932 0-7.94 3.995-7.94 10.85 0 6.953 3.008 10.947 7.94 10.947 1.825 0 3.304-.147 5.08-.739l2.318-.69c.395-.148.69 0 .789.395l1.973 5.375c.148.395.049.642-.395.789zM322.905 433.371c-1.825 5.029-3.354 9.863-4.637 14.795-.098.345-.345.542-.739.542H308.8c-.395 0-.641-.197-.739-.542-1.282-4.932-2.812-9.766-4.636-14.795l-6.953-18.889c-.148-.444.049-.74.542-.74h6.954c.345 0 .592.148.739.493l4.734 13.069c1.431 3.896 2.663 8.187 3.255 11.393.099.641.838.641.938 0 .592-3.206 1.824-7.496 3.254-11.393l4.734-13.069c.148-.345.395-.493.74-.493h6.953c.494 0 .691.296.543.74z"/></svg>