<svg xmlns="http://www.w3.org/2000/svg" xml:space="preserve" id="Layer_1" width="101.131" height="101.137" x="0" y="0" version="1.1" viewBox="206.414 206.408 101.131 101.137"><path fill="#211F1D" d="M300.179 206.408h-86.373c-4.279 0-7.392 3.113-7.392 7.393v86.372c0 3.89 3.502 7.392 7.392 7.392h86.373c4.278 0 7.392-3.113 7.392-7.392v-86.372c0-4.28-3.502-7.393-7.392-7.393m-15.591 2.372 11.296 7.725-18.735 27.37-8.444 12.335-7.805 11.4-.136.199.13.178 15.553 21.283 1.994 2.729 3.686 5.043-11.002 8.122-10.241-13.88-15.563-21.092-1.442-1.954 1.442-2.096 1.313-1.909 12.95-18.921zm-35.608 39.798-3.66 5.298-7.782 11.265-8.196 11.864-7.365-5.085-3.895-2.688 3.895-5.725 9.92-14.578-2.829-3.614-10.954-13.997 2.319-1.815 8.451-6.612 8.954 11.446 8.588 10.978z"/></svg>