<?xml version="1.0" standalone="no"?>
<!DOCTYPE svg PUBLIC "-//W3C//DTD SVG 1.1//EN" "http://www.w3.org/Graphics/SVG/1.1/DTD/svg11.dtd" >
<svg xmlns="http://www.w3.org/2000/svg" xmlns:xlink="http://www.w3.org/1999/xlink" version="1.1">
<metadata></metadata>
<defs>
<font id="nerisbold_italic" horiz-adv-x="761" >
<font-face units-per-em="2048" ascent="1546" descent="-502" />
<missing-glyph horiz-adv-x="417" />
<glyph unicode="f&#xed;" horiz-adv-x="1308" d="M289 999l22 131q32 178 142 274.5t282 96.5q62 0 119 -20l43 -15q23 -9 14 -32l-75 -183q-9 -22 -31 -16l-23 8q-30 12 -57 12q-52 0 -91 -40t-48 -103l-21 -113h678q26 0 23 -26l-164 -950q-3 -23 -27 -23h-227q-26 0 -23 27l127 729h-428l-127 -733q-3 -23 -26 -23 h-228q-25 0 -22 27l127 729h-103q-25 0 -22 26l33 195q3 22 26 22h107zM1438 1448l-199 -281q-8 -16 -29 -16h-168q-15 0 -19.5 8.5t1.5 20.5l131 280q9 19 29 19h237q15 0 20 -8.5t-3 -22.5z" />
<glyph unicode="t&#xed;" horiz-adv-x="1466" d="M1505 1448l-198 -281q-8 -16 -29 -16h-168q-15 0 -19.5 8.5t1.5 20.5l131 280q9 19 28 19h238q15 0 19.5 -8.5t-3.5 -22.5zM565 999h748q25 0 22 -26l-164 -950q-3 -23 -26 -23h-230q-25 0 -22 27l127 729h-496l-75 -437q-15 -94 49 -94q31 0 55 8q24 9 33 -14l51 -170 q6 -22 -12 -31q-80 -41 -168 -41q-163 0 -238.5 91t-46.5 254l74 434h-101q-25 0 -22 26l33 195q3 22 26 22h105l39 230q3 20 22 26l246 76q13 4 20 -2t4 -20z" />
<glyph unicode="&#x165;j" horiz-adv-x="1380" d="M1247 1499q72 0 111 -37.5t39 -103.5q0 -88 -45.5 -137.5t-124.5 -49.5q-71 0 -110.5 38.5t-39.5 105.5q0 88 45.5 136t124.5 48zM879 1198l-21 -31q-8 -16 -29 -16h-127q-13 0 -18.5 8.5t0.5 20.5l16 41q33 60 50 153l14 82q3 23 27 23h157q12 0 18 -7.5t3 -19.5 l-13 -68q-10 -88 -77 -186zM565 999h750q25 0 22 -26l-170 -989q-26 -144 -104.5 -248t-228.5 -170l-60 -29q-25 -11 -31 14l-73 189q-10 24 12 33l43 22q70 32 113.5 86.5t54.5 122.5l129 752h-498l-75 -437q-15 -94 49 -94q31 0 55 8q24 9 33 -14l51 -170q6 -22 -12 -31 q-80 -41 -168 -41q-163 0 -238.5 91t-46.5 254l74 434h-101q-25 0 -22 26l33 195q3 22 26 22h105l39 230q3 20 22 26l246 76q13 4 20 -2t4 -20z" />
<glyph unicode="&#x165;t" horiz-adv-x="1568" d="M791 1479h157q12 0 18 -7.5t3 -19.5l-13 -68q-10 -88 -77 -186l-21 -31q-8 -16 -29 -16h-127q-13 0 -18.5 8.5t0.5 20.5l16 41q33 60 50 153l14 82q3 23 27 23zM1280 756l-76 -437q-15 -94 49 -94q32 0 56 8q23 9 32 -14l52 -170q6 -21 -13 -31q-80 -41 -168 -41 q-163 0 -238 91t-46 254l73 434h-477l-75 -437q-15 -94 49 -94q31 0 55 8q24 9 33 -14l51 -170q6 -22 -12 -31q-80 -41 -168 -41q-163 0 -238.5 91t-46.5 254l74 434h-101q-25 0 -22 26l33 195q3 22 26 22h105l39 230q3 20 22 26l246 76q13 4 20 -2t4 -20l-53 -310h477 l39 230q3 19 23 26l246 76q13 4 20 -2t4 -20l-53 -310h229q26 0 23 -26l-35 -195q-3 -22 -27 -22h-231z" />
<glyph unicode="ffti" horiz-adv-x="2777" d="M1964 999h748q25 0 22 -26l-164 -950q-3 -23 -26 -23h-230q-25 0 -22 27l127 729h-496l-76 -437q-15 -94 49 -94q32 0 56 8q24 9 33 -14l51 -170q6 -21 -13 -31q-80 -41 -168 -41q-163 0 -238 91t-46 254l74 434h-418l-127 -733q-3 -23 -27 -23h-227q-26 0 -23 27 l127 729h-428l-127 -733q-3 -23 -26 -23h-228q-25 0 -22 27l127 729h-101q-25 0 -22 26l33 195q3 22 26 22h105l24 131q31 179 142.5 275t285.5 96q74 0 135 -20l25 -8q24 -9 12 -33l-86 -180q-10 -23 -32 -13h-2q-24 8 -60 8q-57 0 -97.5 -40.5t-49.5 -104.5l-21 -111h428 l25 131q31 179 142.5 275t285.5 96q74 0 135 -20l25 -8q24 -9 12 -33l-86 -180q-10 -23 -33 -13h-2q-24 8 -59 8q-57 0 -98 -41t-50 -104l-20 -111h418l38 230q3 19 23 26l246 76q13 4 20 -2t4 -20zM2644 1499q71 0 110 -37t39 -104q0 -88 -45.5 -136t-124.5 -48 q-71 0 -110 37t-39 104q0 88 45.5 136t124.5 48z" />
<glyph unicode="ftti" horiz-adv-x="2830" d="M2017 999h748q25 0 22 -26l-164 -950q-3 -23 -26 -23h-230q-25 0 -22 27l127 729h-496l-75 -437q-15 -94 49 -94q31 0 55 8q24 9 33 -14l51 -170q6 -22 -12 -31q-80 -41 -168 -41q-163 0 -238.5 91t-46.5 254l74 434h-477l-76 -437q-15 -94 49 -94q31 0 55 8q24 9 33 -14 l51 -170q6 -22 -12 -31q-80 -41 -168 -41q-163 0 -238.5 91t-46.5 254l74 434h-420l-127 -733q-3 -23 -26 -23h-228q-25 0 -22 27l127 729h-101q-25 0 -22 26l33 195q3 22 26 22h105l24 131q31 179 142.5 275t285.5 96q74 0 135 -20l25 -8q24 -9 12 -33l-86 -180 q-10 -23 -32 -13h-2q-24 8 -60 8q-57 0 -97.5 -40.5t-49.5 -104.5l-21 -111h420l39 230q3 20 22 26l246 76q13 4 20.5 -2t4.5 -20l-53 -310h477l39 230q3 20 22 26l246 76q13 4 20.5 -2t4.5 -20zM2697 1499q72 0 111 -37.5t39 -103.5q0 -88 -45.5 -136t-124.5 -48 q-72 0 -111 37.5t-39 103.5q0 88 45.5 136t124.5 48z" />
<glyph unicode="ffb" horiz-adv-x="2658" d="M2054 1452l-45 -268q-23 -133 -84 -234q-9 -20 -1.5 -28.5t28.5 2.5q125 98 254 98q184 0 282.5 -107t98.5 -297q0 -87 -18.5 -173t-62.5 -171.5t-108.5 -150.5t-165 -105.5t-223.5 -40.5q-150 0 -280 56l-162 71q-20 8 -17 31l191 1102h-305q-57 0 -98.5 -37.5 t-51.5 -103.5l-18 -97h229q26 0 23 -26l-35 -195q-3 -22 -27 -22h-231l-127 -733q-3 -23 -27 -23h-227q-26 0 -23 27l127 729h-428l-127 -733q-3 -23 -26 -23h-228q-25 0 -22 27l127 729h-101q-25 0 -22 26l33 195q3 22 26 22h105l24 131q31 179 142.5 275t285.5 96 q74 0 135 -20l25 -8q24 -9 12 -33l-86 -180q-10 -23 -32 -13h-2q-24 8 -60 8q-57 0 -97.5 -40.5t-49.5 -104.5l-21 -111h428l21 117q32 182 146.5 272.5t303.5 90.5h570q25 0 22 -27zM1847 268l39 -16q65 -27 133 -27q62 0 113 25t84 65t56 91t32.5 100.5t9.5 95.5 q0 172 -153 172q-108 0 -183 -86t-100 -235z" />
<glyph unicode="ffh" horiz-adv-x="2627" d="M2054 1452l-45 -268q-23 -133 -86 -242q-8 -14 1 -22.5t26 2.5q124 100 250 100q185 0 275 -107t58 -288l-104 -604q-3 -23 -27 -23h-229q-26 0 -23 27l103 587q26 160 -103 160q-102 0 -169.5 -73t-88.5 -195l-84 -483q-3 -23 -26 -23h-230q-25 0 -22 27l209 1210h-303 q-57 0 -98.5 -37.5t-51.5 -103.5l-18 -97h229q26 0 23 -26l-35 -195q-3 -22 -27 -22h-231l-127 -733q-3 -23 -27 -23h-227q-26 0 -23 27l127 729h-428l-127 -733q-3 -23 -26 -23h-228q-25 0 -22 27l127 729h-101q-25 0 -22 26l33 195q3 22 26 22h105l24 131 q31 179 142.5 275t285.5 96q74 0 135 -20l25 -8q24 -9 12 -33l-86 -180q-10 -23 -32 -13h-2q-24 8 -60 8q-57 0 -97.5 -40.5t-49.5 -104.5l-21 -111h428l21 117q32 182 146.5 272.5t303.5 90.5h570q25 0 22 -27z" />
<glyph unicode="ffi" horiz-adv-x="2023" d="M1272 999h680q25 0 22 -26l-164 -950q-3 -23 -26 -23h-230q-25 0 -22 27l127 729h-430l-125 -733q-3 -23 -27 -23h-229q-26 0 -23 27l127 729h-430l-127 -733q-3 -23 -26 -23h-228q-25 0 -22 27l127 729h-101q-25 0 -22 26l33 195q3 22 26 22h105l24 131 q31 179 142.5 275t285.5 96q74 0 135 -20l25 -8q24 -9 12 -33l-86 -180q-10 -23 -32 -13h-2q-24 8 -60 8q-57 0 -97.5 -40.5t-49.5 -104.5l-21 -111h430l23 131q32 178 143 274.5t283 96.5q48 0 125 -22l37 -13q23 -9 14 -32l-78 -183q-10 -24 -33 -14l-14 6q-34 12 -61 12 q-52 0 -91.5 -40t-50.5 -103zM1901 1501q81 0 119 -47t24 -131q-12 -70 -54.5 -107.5t-111.5 -37.5q-79 0 -117 48.5t-24 131.5q12 69 54.5 106t109.5 37z" />
<glyph unicode="ffj" horiz-adv-x="2023" d="M1272 999h680q25 0 22 -26l-172 -987q-24 -144 -103.5 -249t-230.5 -171l-57 -27q-25 -14 -31 12l-73 189q-10 24 12 33l43 22q139 64 168 207l129 754h-430l-125 -733q-3 -23 -27 -23h-229q-26 0 -23 27l127 729h-430l-127 -733q-3 -23 -26 -23h-228q-25 0 -22 27 l127 729h-101q-25 0 -22 26l33 195q3 22 26 22h105l24 131q31 179 142.5 275t285.5 96q74 0 135 -20l25 -8q24 -9 12 -33l-86 -180q-10 -23 -32 -13h-2q-24 8 -60 8q-57 0 -97.5 -40.5t-49.5 -104.5l-21 -111h430l23 131q32 178 142.5 274.5t281.5 96.5q57 0 121 -20l45 -15 q23 -9 14 -32l-78 -183q-10 -24 -33 -14l-20 6q-30 12 -59 12q-52 0 -90.5 -40t-49.5 -103zM1901 1501q81 0 119 -47t24 -131q-12 -70 -54.5 -107.5t-111.5 -37.5q-79 0 -117 48.5t-24 131.5q12 69 54.5 106t109.5 37z" />
<glyph unicode="ffk" horiz-adv-x="2637" d="M2609 969l-223 -303q-81 -105 -199 -146q-23 -9 -4 -20q107 -49 148 -148l125 -323q4 -13 -1.5 -21t-19.5 -8h-233q-20 0 -29 18l-88 222q-29 69 -73.5 107t-117.5 38h-24l-60 -362q-3 -23 -26 -23h-230q-25 0 -22 27l160 936l47 274h-303q-57 0 -98.5 -37.5 t-51.5 -103.5l-18 -97h229q26 0 23 -26l-35 -195q-3 -22 -27 -22h-231l-127 -733q-3 -23 -27 -23h-227q-26 0 -23 27l127 729h-428l-127 -733q-3 -23 -26 -23h-228q-25 0 -22 27l127 729h-101q-25 0 -22 26l33 195q3 22 26 22h105l24 131q31 179 142.5 275t285.5 96 q74 0 135 -20l25 -8q24 -9 12 -33l-86 -180q-10 -23 -32 -13h-2q-24 8 -60 8q-57 0 -97.5 -40.5t-49.5 -104.5l-21 -111h428l21 117q32 182 146.5 272.5t303.5 90.5h570q25 0 22 -27l-78 -453l-61 -370h22q95 0 211 153l154 203q8 14 29 14h264q15 0 19 -9t-5 -21z" />
<glyph unicode="ffl" horiz-adv-x="2107" d="M2054 1452l-203 -1182q-9 -45 25 -45h14q26 3 31 -18l41 -178q3 -23 -16 -31q-52 -21 -113 -21q-146 0 -215.5 77.5t-44.5 215.5l166 967h-303q-57 0 -98.5 -37.5t-51.5 -103.5l-18 -97h229q26 0 23 -26l-35 -195q-3 -22 -27 -22h-231l-127 -733q-3 -23 -27 -23h-227 q-26 0 -23 27l127 729h-428l-127 -733q-3 -23 -26 -23h-228q-25 0 -22 27l127 729h-101q-25 0 -22 26l33 195q3 22 26 22h105l24 131q31 179 142.5 275t285.5 96q74 0 135 -20l25 -8q24 -9 12 -33l-86 -180q-10 -23 -32 -13h-2q-24 8 -60 8q-57 0 -97.5 -40.5t-49.5 -104.5 l-21 -111h428l21 117q32 182 146.5 272.5t303.5 90.5h570q25 0 22 -27z" />
<glyph unicode="fft" horiz-adv-x="2211" d="M1925 756l-76 -437q-15 -94 49 -94q32 0 56 8q24 9 33 -14l51 -170q6 -21 -13 -31q-80 -41 -167 -41q-163 0 -238.5 91t-46.5 254l74 434h-420l-127 -733q-3 -23 -27 -23h-227q-26 0 -23 27l127 729h-428l-127 -733q-3 -23 -26 -23h-228q-25 0 -22 27l127 729h-101 q-25 0 -22 26l33 195q3 22 26 22h105l24 131q31 179 142.5 275t285.5 96q74 0 135 -20l25 -8q24 -9 12 -33l-86 -180q-10 -23 -32 -13h-2q-24 8 -60 8q-57 0 -97.5 -40.5t-49.5 -104.5l-21 -111h428l25 131q31 179 142.5 275t285.5 96q74 0 135 -20l25 -8q24 -9 12 -33 l-86 -180q-10 -23 -33 -13h-2q-24 8 -59 8q-57 0 -98 -41t-50 -104l-20 -111h420l38 230q3 19 23 26l246 76q13 4 20 -2t4 -20l-53 -310h229q26 0 23 -26l-35 -195q-3 -22 -26 -22h-232z" />
<glyph unicode="fti" horiz-adv-x="2074" d="M1262 999h747q26 0 23 -26l-164 -950q-3 -23 -27 -23h-229q-26 0 -23 27l127 729h-495l-76 -437q-15 -94 49 -94q31 0 55 8q24 9 33 -14l51 -170q6 -22 -12 -31q-80 -41 -168 -41q-163 0 -238.5 91t-46.5 254l74 434h-420l-127 -733q-3 -23 -26 -23h-228q-25 0 -22 27 l127 729h-101q-25 0 -22 26l33 195q3 22 26 22h105l24 131q31 179 142.5 275t285.5 96q74 0 135 -20l25 -8q24 -9 12 -33l-86 -180q-10 -23 -32 -13h-2q-24 8 -60 8q-57 0 -97.5 -40.5t-49.5 -104.5l-21 -111h420l39 230q3 20 22 26l246 76q13 4 20.5 -2t4.5 -20zM1942 1499 q71 0 110 -37t39 -104q0 -88 -45.5 -136t-124.5 -48q-71 0 -110 37t-39 104q0 88 45.5 136t124.5 48z" />
<glyph unicode="ftt" horiz-adv-x="2263" d="M1976 756l-75 -437q-15 -94 49 -94q31 0 55 8q24 9 33 -14l51 -170q6 -22 -12 -31q-80 -41 -168 -41q-163 0 -238.5 91t-46.5 254l74 434h-477l-76 -437q-15 -94 49 -94q31 0 55 8q24 9 33 -14l51 -170q6 -22 -12 -31q-80 -41 -168 -41q-163 0 -238.5 91t-46.5 254 l74 434h-420l-127 -733q-3 -23 -26 -23h-228q-25 0 -22 27l127 729h-101q-25 0 -22 26l33 195q3 22 26 22h105l24 131q31 179 142.5 275t285.5 96q74 0 135 -20l25 -8q24 -9 12 -33l-86 -180q-10 -23 -32 -13h-2q-24 8 -60 8q-57 0 -97.5 -40.5t-49.5 -104.5l-21 -111h420 l39 230q3 20 22 26l246 76q13 4 20.5 -2t4.5 -20l-53 -310h477l39 230q3 20 22 26l246 76q13 4 20.5 -2t4.5 -20l-54 -310h230q25 0 22 -26l-35 -195q-3 -22 -26 -22h-232z" />
<glyph unicode="tti" horiz-adv-x="2134" d="M2001 1499q71 0 110 -37t39 -104q0 -88 -45.5 -136t-124.5 -48q-71 0 -110 37t-39 104q0 88 45.5 136t124.5 48zM1321 999h747q26 0 23 -26l-164 -950q-3 -23 -26 -23h-230q-25 0 -22 27l127 729h-496l-76 -437q-15 -94 49 -94q32 0 56 8q23 9 32 -14l52 -170 q6 -21 -13 -31q-80 -41 -168 -41q-163 0 -238 91t-46 254l73 434h-477l-75 -437q-15 -94 49 -94q31 0 55 8q24 9 33 -14l51 -170q6 -22 -12 -31q-80 -41 -168 -41q-163 0 -238.5 91t-46.5 254l74 434h-101q-25 0 -22 26l33 195q3 22 26 22h105l39 230q3 20 22 26l246 76 q13 4 20 -2t4 -20l-53 -310h477l39 230q3 19 23 26l246 76q13 4 20 -2t4 -20z" />
<glyph unicode="ttj" horiz-adv-x="2136" d="M2003 1499q71 0 110 -37t39 -104q0 -88 -45.5 -137.5t-124.5 -49.5q-71 0 -110 38.5t-39 105.5q0 88 45.5 136t124.5 48zM1321 999h750q25 0 22 -26l-170 -989q-26 -144 -105 -248t-229 -170l-59 -29q-25 -11 -31 14l-74 189q-10 23 13 33l43 22q70 32 113.5 86.5 t54.5 122.5l129 752h-498l-76 -437q-15 -94 49 -94q32 0 56 8q23 9 32 -14l52 -170q6 -21 -13 -31q-80 -41 -168 -41q-163 0 -238 91t-46 254l73 434h-477l-75 -437q-15 -94 49 -94q31 0 55 8q24 9 33 -14l51 -170q6 -22 -12 -31q-80 -41 -168 -41q-163 0 -238.5 91 t-46.5 254l74 434h-101q-25 0 -22 26l33 195q3 22 26 22h105l39 230q3 20 22 26l246 76q13 4 20 -2t4 -20l-53 -310h477l39 230q3 19 23 26l246 76q13 4 20 -2t4 -20z" />
<glyph unicode="fb" horiz-adv-x="1955" d="M1350 1452l-45 -268q-23 -133 -84 -234q-9 -20 -2 -28.5t28 2.5q125 98 254 98q184 0 282.5 -107t98.5 -297q0 -87 -18.5 -173t-62 -171.5t-108 -150.5t-165 -105.5t-223.5 -40.5q-151 0 -281 56l-162 71q-19 8 -16 31l190 1102h-305q-57 0 -98 -37.5t-51 -103.5l-19 -97 h230q25 0 22 -26l-35 -195q-3 -22 -26 -22h-232l-127 -733q-3 -23 -26 -23h-228q-25 0 -22 27l127 729h-101q-25 0 -22 26l33 195q3 22 26 22h105l20 117q32 182 147 272.5t304 90.5h569q26 0 23 -27zM1143 268l39 -16q64 -27 133 -27q62 0 113 25t84 65t56 91t32.5 100.5 t9.5 95.5q0 84 -39 128t-115 44q-108 0 -182.5 -86t-99.5 -235z" />
<glyph unicode="ff" horiz-adv-x="1509" d="M1542 1235l-24 8q-44 12 -68 12q-61 0 -106 -43.5t-56 -111.5l-18 -101h229q26 0 23 -26l-35 -195q-3 -22 -27 -22h-231l-127 -733q-3 -23 -27 -23h-229q-26 0 -23 27l127 729h-428l-127 -733q-3 -23 -26 -23h-228q-25 0 -22 27l127 729h-101q-25 0 -22 26l33 195 q3 22 26 22h105l24 131q31 179 142.5 275t285.5 96q74 0 135 -20l25 -8q24 -9 12 -33l-86 -180q-10 -23 -32 -13h-2q-24 8 -60 8q-57 0 -97.5 -40.5t-49.5 -104.5l-21 -111h428l23 121q31 182 147 281.5t297 99.5q73 0 152 -26l41 -15q25 -6 12 -33l-88 -180q-9 -22 -33 -12 z" />
<glyph unicode="fh" horiz-adv-x="1923" d="M1350 1452l-45 -268q-23 -133 -86 -242q-8 -14 0.5 -22.5t25.5 2.5q124 100 250 100q185 0 275.5 -107t58.5 -288l-105 -604q-3 -23 -26 -23h-230q-25 0 -22 27l102 587q26 160 -102 160q-102 0 -169.5 -73t-88.5 -195l-84 -483q-3 -23 -27 -23h-229q-26 0 -23 27 l211 1210h-305q-57 0 -98 -37.5t-51 -103.5l-19 -97h230q25 0 22 -26l-35 -195q-3 -22 -26 -22h-232l-127 -733q-3 -23 -26 -23h-228q-25 0 -22 27l127 729h-101q-25 0 -22 26l33 195q3 22 26 22h105l20 117q32 182 147 272.5t304 90.5h569q26 0 23 -27z" />
<glyph unicode="fi" horiz-adv-x="1318" d="M289 999l22 131q32 178 143 274.5t283 96.5q48 0 125 -22l37 -13q23 -9 14 -32l-77 -183q-10 -24 -33 -14l-15 6q-35 12 -61 12q-52 0 -91 -40t-50 -103l-19 -113h680q26 0 23 -26l-164 -950q-3 -23 -27 -23h-229q-26 0 -23 27l127 729h-430l-125 -733q-3 -23 -26 -23 h-230q-25 0 -22 27l127 729h-103q-25 0 -22 26l33 195q3 22 26 22h107zM1196 1501q81 0 119 -47t24 -131q-12 -70 -54.5 -107.5t-110.5 -37.5q-79 0 -117.5 48.5t-24.5 131.5q12 69 54.5 106t109.5 37z" />
<glyph unicode="fj" horiz-adv-x="1318" d="M289 999l22 131q32 178 142.5 274.5t281.5 96.5q57 0 121 -20l45 -15q23 -9 14 -32l-77 -183q-10 -24 -33 -14l-21 6q-30 12 -59 12q-52 0 -90 -39.5t-49 -103.5l-19 -113h680q26 0 23 -26l-172 -987q-24 -144 -103.5 -249t-230.5 -171l-57 -27q-25 -14 -31 12l-74 189 q-10 24 12 33l43 22q139 64 168 207l129 754h-430l-125 -733q-3 -23 -26 -23h-230q-25 0 -22 27l127 729h-103q-25 0 -22 26l33 195q3 22 26 22h107zM1196 1501q81 0 119 -47t24 -131q-12 -70 -54.5 -107.5t-110.5 -37.5q-79 0 -117.5 48.5t-24.5 131.5q12 69 54.5 106 t109.5 37z" />
<glyph unicode="fk" horiz-adv-x="1933" d="M1905 969l-224 -303q-81 -105 -198 -146q-23 -9 -4 -20q106 -49 147 -148l125 -323q4 -13 -1 -21t-19 -8h-234q-20 0 -29 18l-88 222q-29 69 -73 107t-117 38h-25l-59 -362q-3 -23 -27 -23h-229q-26 0 -23 27l160 936l47 274h-303q-57 0 -98 -37.5t-51 -103.5l-19 -97 h230q25 0 22 -26l-35 -195q-3 -22 -26 -22h-232l-127 -733q-3 -23 -26 -23h-228q-25 0 -22 27l127 729h-101q-25 0 -22 26l33 195q3 22 26 22h105l20 117q32 182 147 272.5t304 90.5h569q26 0 23 -27l-78 -453l-62 -370h23q95 0 211 153l153 203q8 14 29 14h264 q15 0 19.5 -9t-4.5 -21z" />
<glyph unicode="fl" horiz-adv-x="1402" d="M1350 1452l-203 -1182q-9 -45 24 -45h15q26 3 31 -18l40 -178q3 -23 -16 -31q-53 -21 -113 -21q-146 0 -215.5 77.5t-44.5 215.5l168 967h-305q-57 0 -98 -37.5t-51 -103.5l-19 -97h230q25 0 22 -26l-35 -195q-3 -22 -26 -22h-232l-127 -733q-3 -23 -26 -23h-228 q-25 0 -22 27l127 729h-101q-25 0 -22 26l33 195q3 22 26 22h105l20 117q32 182 147 272.5t304 90.5h569q26 0 23 -27z" />
<glyph unicode="ft" horiz-adv-x="1509" d="M1221 756l-76 -437q-15 -94 49 -94q31 0 55 8q24 9 33 -14l51 -170q6 -22 -12 -31q-80 -41 -168 -41q-163 0 -238.5 91t-46.5 254l74 434h-420l-127 -733q-3 -23 -26 -23h-228q-25 0 -22 27l127 729h-101q-25 0 -22 26l33 195q3 22 26 22h105l24 131q31 179 142.5 275 t285.5 96q74 0 135 -20l25 -8q24 -9 12 -33l-86 -180q-10 -23 -32 -13h-2q-24 8 -60 8q-57 0 -97.5 -40.5t-49.5 -104.5l-21 -111h420l39 230q3 20 22 26l246 76q13 4 20.5 -2t4.5 -20l-53 -310h229q25 0 22 -26l-34 -195q-3 -22 -27 -22h-231z" />
<glyph unicode="ti" horiz-adv-x="1378" d="M1245 1499q72 0 111 -37.5t39 -103.5q0 -88 -45.5 -136t-124.5 -48q-72 0 -111 37.5t-39 103.5q0 88 45.5 136t124.5 48zM565 999h748q25 0 22 -26l-164 -950q-3 -23 -26 -23h-230q-25 0 -22 27l127 729h-496l-75 -437q-15 -94 49 -94q31 0 55 8q24 9 33 -14l51 -170 q6 -22 -12 -31q-80 -41 -168 -41q-163 0 -238.5 91t-46.5 254l74 434h-101q-25 0 -22 26l33 195q3 22 26 22h105l39 230q3 20 22 26l246 76q13 4 20 -2t4 -20z" />
<glyph unicode="tj" horiz-adv-x="1380" d="M1247 1499q72 0 111 -37.5t39 -103.5q0 -88 -45.5 -137.5t-124.5 -49.5q-71 0 -110.5 38.5t-39.5 105.5q0 88 45.5 136t124.5 48zM565 999h750q25 0 22 -26l-170 -989q-26 -144 -104.5 -248t-228.5 -170l-60 -29q-25 -11 -31 14l-73 189q-10 24 12 33l43 22 q70 32 113.5 86.5t54.5 122.5l129 752h-498l-75 -437q-15 -94 49 -94q31 0 55 8q24 9 33 -14l51 -170q6 -22 -12 -31q-80 -41 -168 -41q-163 0 -238.5 91t-46.5 254l74 434h-101q-25 0 -22 26l33 195q3 22 26 22h105l39 230q3 20 22 26l246 76q13 4 20 -2t4 -20z" />
<glyph unicode="tt" horiz-adv-x="1568" d="M1280 756l-76 -437q-15 -94 49 -94q32 0 56 8q23 9 32 -14l52 -170q6 -21 -13 -31q-80 -41 -168 -41q-163 0 -238 91t-46 254l73 434h-477l-75 -437q-15 -94 49 -94q31 0 55 8q24 9 33 -14l51 -170q6 -22 -12 -31q-80 -41 -168 -41q-163 0 -238.5 91t-46.5 254l74 434 h-101q-25 0 -22 26l33 195q3 22 26 22h105l39 230q3 20 22 26l246 76q13 4 20 -2t4 -20l-53 -310h477l39 230q3 19 23 26l246 76q13 4 20 -2t4 -20l-53 -310h229q26 0 23 -26l-35 -195q-3 -22 -27 -22h-231z" />
<glyph horiz-adv-x="0" />
<glyph unicode="&#xd;" horiz-adv-x="946" />
<glyph unicode=" "  horiz-adv-x="417" />
<glyph unicode="&#x09;" horiz-adv-x="417" />
<glyph unicode="&#xa0;" horiz-adv-x="417" />
<glyph unicode="!" horiz-adv-x="573" d="M600 1417l-76 -432q-14 -83 -70.5 -280.5t-70.5 -255.5q-3 -23 -27 -23h-151q-26 0 -23 27q9 71 22 262.5t25 269.5l76 436q3 23 27 23h246q25 0 22 -27zM248 315q85 0 124.5 -50t24.5 -136q-14 -72 -59 -112t-115 -40q-85 0 -124.5 50t-24.5 137q12 72 57 111.5 t117 39.5z" />
<glyph unicode="&#x22;" horiz-adv-x="825" d="M512 1452l-29 -162q-7 -41 -40.5 -145t-41.5 -137q-6 -21 -28 -21h-109q-22 0 -22 25q1 18 2.5 127t7.5 151l31 166q3 23 26 23h180q26 0 23 -27zM872 1452l-28 -162q-7 -41 -40.5 -145t-41.5 -137q-6 -21 -29 -21h-108q-23 0 -23 25q1 18 2.5 127t7.5 151l31 166 q3 23 27 23h180q25 0 22 -27z" />
<glyph unicode="#" horiz-adv-x="1544" d="M1200 905l-53 -368h205q25 0 22 -27l-26 -195q-3 -22 -25 -22h-209l-37 -270q-3 -23 -26 -23h-207q-26 0 -23 27l37 266h-291l-37 -270q-3 -23 -26 -23h-205q-26 0 -23 27l37 266h-200q-26 0 -23 26l27 195q3 23 24 23h205l53 368h-202q-25 0 -25 27l25 194q3 23 24 23 h211l37 270q3 23 27 23h204q26 0 23 -27l-37 -266h289l37 270q3 23 26 23h209q26 0 23 -27l-37 -266h199q12 0 18.5 -7.5t5.5 -19.5l-22 -194q-3 -23 -25 -23h-209zM942 905h-289l-53 -368h291z" />
<glyph unicode="$" horiz-adv-x="1253" d="M643 881l188 -74q165 -66 240.5 -143t75.5 -199q0 -63 -13.5 -121.5t-46.5 -118t-83 -106t-128.5 -82t-177.5 -49.5l-32 -193q-3 -22 -27 -22h-231q-26 0 -23 26l33 189q-112 17 -252 65l-117 41q-26 7 -12 31l94 186q10 23 33 13l106 -39q154 -54 303 -54 q129 0 209 48.5t80 136.5q0 53 -38 92.5t-119 71.5l-199 77q-163 65 -231 137.5t-68 192.5q0 78 23.5 150.5t72.5 139t138.5 114t209.5 63.5l33 195q3 22 27 22h229q26 0 23 -26l-33 -195q69 -13 174 -47l119 -41q25 -7 12 -33l-100 -184q-10 -23 -31 -12l-109 36 q-118 41 -237 41q-123 0 -194.5 -50t-71.5 -136q0 -43 34.5 -76.5t116.5 -66.5z" />
<glyph unicode="%" horiz-adv-x="1611" d="M571 1448q146 0 218.5 -84.5t48.5 -233.5q-26 -146 -128 -230.5t-247 -84.5t-217 84.5t-47 230.5q26 149 126 233.5t246 84.5zM1552 1393l-1171 -1379q-11 -14 -31 -14h-205q-15 0 -18.5 9.5t6.5 21.5l1172 1378q11 14 30 14h205q15 0 18.5 -9t-6.5 -21zM541 1257 q-113 0 -135 -127q-9 -56 14 -90t76 -34q51 0 87.5 34.5t45.5 89.5q10 61 -13 94t-75 33zM1223 608q147 0 217.5 -84t44.5 -231q-25 -148 -124.5 -232t-246.5 -84q-146 0 -218 84t-46 232q25 146 126 230.5t247 84.5zM1190 414q-53 0 -88 -31.5t-45 -89.5q-9 -56 15 -90.5 t75 -34.5q53 0 88.5 34t46.5 91q10 58 -14 89.5t-78 31.5z" />
<glyph unicode="&#x26;" horiz-adv-x="1492" d="M1432 926l-46 -269q-20 -117 -73.5 -185.5t-179.5 -147.5l-33 -21l198 -272q9 -12 5 -21.5t-19 -9.5h-278q-21 0 -29 14l-109 146l-88 -54q-109 -68 -200.5 -98.5t-186.5 -30.5q-160 0 -248 81t-88 223q0 135 66.5 230.5t222.5 188.5l86 54q-78 130 -78 250 q0 206 142.5 332t373.5 126q126 0 256 -43l107 -39q25 -6 12 -30l-98 -189q-9 -22 -33 -12l-102 37q-89 28 -183 28t-152.5 -47.5t-58.5 -128.5q0 -77 74 -178l269 -368l55 34q58 42 81.5 67.5t30.5 63.5l11 58h-127q-26 0 -23 26l33 189q3 22 27 22h360q26 0 23 -26z M727 348l-162 219l-127 -80q-63 -40 -87.5 -75.5t-24.5 -87.5q0 -46 28.5 -71.5t81.5 -25.5q102 0 236 86z" />
<glyph unicode="'" horiz-adv-x="464" d="M512 1452l-29 -162q-7 -41 -40.5 -145t-41.5 -137q-6 -21 -28 -21h-109q-22 0 -22 25q1 18 2.5 127t7.5 151l31 166q3 23 26 23h180q26 0 23 -27z" />
<glyph unicode="(" horiz-adv-x="763" d="M489 -205h-190q-19 0 -29 19q-96 270 -96 540q0 293 94.5 602.5t286.5 579.5q8 16 29 16h223q15 0 20 -8t-4 -22q-204 -306 -301.5 -580.5t-97.5 -581.5q0 -139 22.5 -264.5t63.5 -273.5q7 -27 -21 -27z" />
<glyph unicode=")" horiz-adv-x="763" d="M334 1552h190q20 0 29 -18q96 -270 96 -541q0 -293 -94.5 -602t-286.5 -579q-8 -17 -28 -17h-224q-15 0 -20 8.5t4 22.5q204 306 301.5 580t97.5 581q0 139 -22.5 265.5t-63.5 273.5q-7 26 21 26z" />
<glyph unicode="*" horiz-adv-x="856" d="M750 1063h-99q-38 0 -98 18q-6 2 -9 -3t3 -9q42 -31 65 -74l78 -141q7 -12 2.5 -20.5t-18.5 -8.5h-139q-18 0 -29 17l-37 63q-28 57 -35 99q-1 6 -3.5 8.5t-5.5 0.5t-5 -9q-3 -37 -35 -99l-35 -63q-14 -17 -31 -17h-137q-14 0 -18.5 8.5t2.5 20.5l76 139q28 47 65 76 q4 4 1.5 9t-7.5 3q-52 -18 -98 -18h-97q-24 0 -24 24v130q0 24 24 24h97q48 0 98 -16q5 -2 7.5 3t-1.5 9q-53 53 -65 74l-78 139q-7 12 -2.5 20.5t18.5 8.5h144q16 0 30 -17l35 -63q26 -57 31 -96q3 -9 8.5 -8t7.5 10q6 43 29 90l37 67q14 17 30 17h140q15 0 20.5 -8.5 t-2.5 -20.5l-80 -139q-26 -48 -63 -74q-5 -5 -2.5 -9t8.5 -3q46 16 100 16h97q24 0 24 -24v-130q0 -24 -24 -24z" />
<glyph unicode="+" horiz-adv-x="1290" d="M1167 629l-34 -197q-3 -22 -27 -22h-348l-66 -379q-3 -23 -26 -23h-209q-26 0 -23 27l66 375h-346q-26 0 -23 26l35 197q3 22 27 22h350l65 381q3 23 27 23h209q25 0 22 -27l-65 -377h344q25 0 22 -26z" />
<glyph unicode="," horiz-adv-x="534" d="M-14 -281l135 189q55 68 -4 86q-35 10 -56.5 45t-21.5 80q0 35 8.5 66.5t28 62.5t58.5 49t93 18q66 0 106 -39.5t40 -105.5q0 -141 -129 -324l-103 -143q-8 -14 -28 -14h-111q-15 0 -19.5 8.5t3.5 21.5z" />
<glyph unicode="-" horiz-adv-x="892" d="M195 655h555q25 0 22 -26l-35 -195q-3 -22 -26 -22h-555q-26 0 -23 26l35 195q3 22 27 22z" />
<glyph unicode="." horiz-adv-x="550" d="M227 315q85 0 125 -50t25 -136q-14 -72 -59 -112t-115 -40q-85 0 -125 50.5t-25 136.5q12 72 57 111.5t117 39.5z" />
<glyph unicode="/" horiz-adv-x="1140" d="M991 1556h223q15 0 20.5 -8t-1.5 -20l-973 -1716q-14 -17 -31 -17h-223q-14 0 -18.5 8.5t2.5 20.5l971 1716q13 16 30 16z" />
<glyph unicode="0" horiz-adv-x="1329" d="M815 1462q224 0 346.5 -143.5t122.5 -398.5q0 -83 -11.5 -171t-37.5 -181t-64 -177.5t-94.5 -160.5t-125.5 -132t-161.5 -88.5t-197.5 -32.5q-223 0 -346 144.5t-123 400.5q0 96 17 198.5t51 209.5t91 201.5t131 169t177.5 118t224.5 43.5zM807 1217q-84 0 -154.5 -50 t-115.5 -127t-76.5 -172.5t-44.5 -184t-13 -165.5q0 -142 50.5 -217.5t148.5 -75.5q83 0 152.5 50t114.5 127t76.5 172.5t45 183.5t13.5 164q0 141 -51 218t-146 77z" />
<glyph unicode="1" horiz-adv-x="774" d="M766 1448l8 -8q16 -13 10 -31l-239 -1386q-3 -23 -27 -23h-227q-26 0 -23 27l152 876q16 97 35 146q9 24 0.5 30t-33.5 -4l-152 -59q-23 -9 -30 14l-52 199q-6 21 17 31l528 196q19 6 33 -8z" />
<glyph unicode="2" horiz-adv-x="1206" d="M287 1368l131 43q154 51 336 51q206 0 320 -90t114 -252q0 -131 -66.5 -233t-240.5 -201l-353 -205q-71 -41 -116.5 -102.5t-59.5 -134.5h641q26 0 23 -27l-35 -194q-3 -23 -27 -23h-895q-25 0 -22 27l22 120q36 208 114.5 339.5t229.5 218.5l367 210q137 85 137 170 q0 62 -45 97t-121 35q-127 0 -270 -48l-135 -43q-12 -4 -19.5 1.5t-9.5 17.5l-39 194q-3 23 19 29z" />
<glyph unicode="3" horiz-adv-x="1218" d="M319 1384l113 35q137 43 295 43q212 0 328 -90.5t116 -251.5q0 -54 -9.5 -98t-32.5 -90t-68 -86.5t-111 -75.5q-13 -6 -17.5 -11t-0.5 -11t18 -13q152 -73 152 -284q0 -68 -19 -133t-63.5 -127.5t-111 -109.5t-170.5 -75.5t-232 -28.5q-155 0 -324 62l-129 49 q-26 6 -12 31l94 178q9 22 33 12l113 -43q109 -41 237 -41q140 0 222.5 65t82.5 175q0 78 -53 123t-143 45h-119q-26 0 -23 26l37 195q3 23 27 23h102q108 0 174 53.5t66 138.5q0 71 -46 109.5t-128 38.5q-111 0 -236 -39l-121 -37q-10 -4 -18 1t-10 17l-31 197q-3 22 18 28 z" />
<glyph unicode="4" horiz-adv-x="1304" d="M1233 565l-35 -194q-3 -23 -27 -23h-127l-55 -325q-3 -23 -26 -23h-230q-25 0 -22 27l55 321h-680q-26 0 -23 27l37 211q3 16 15 28q75 71 186 197l412 444q82 95 141 172q12 15 31 15h321q26 0 23 -27l-142 -823h123q26 0 23 -27zM809 592l45 268q22 127 51 223 q4 13 0 20t-12.5 4t-18.5 -15l-329 -357q-49 -52 -113 -108q-14 -13 -11 -24t17 -11h371z" />
<glyph unicode="5" horiz-adv-x="1247" d="M1208 1413l-90 -196q-10 -19 -28 -19h-500l-33 -186l-16 -78q-5 -12 -2.5 -24t20.5 -9l57 8q65 9 115 9q194 0 302 -100.5t108 -285.5q0 -83 -19.5 -160t-65.5 -150t-114.5 -126.5t-175 -86t-238.5 -32.5q-166 0 -333 64l-138 51q-26 6 -12 31l94 178q9 22 33 12l117 -43 q125 -45 252 -45q66 0 120 17t90.5 45.5t61.5 66t36 76.5t11 80q0 77 -48 119.5t-144 42.5q-39 0 -179 -17l-213 -26q-17 -3 -30 10l-13 12q-16 16 -10 33l125 735q3 23 27 23h815q15 0 19.5 -8.5t-1.5 -20.5z" />
<glyph unicode="6" horiz-adv-x="1286" d="M1053 1411l-316 -354q-72 -78 -139 -127q-18 -12 -13.5 -23t27.5 -2q90 37 199 37q167 0 272 -104.5t105 -286.5q0 -89 -22.5 -171t-71 -156t-119.5 -128.5t-175.5 -86.5t-230.5 -32q-228 0 -351.5 105t-123.5 295q0 94 16.5 173.5t60 176.5t125 209.5t206.5 251.5 l215 239q12 15 31 15h290q17 0 21.5 -9.5t-6.5 -21.5zM694 705q-80 0 -143 -25.5t-100 -67t-56.5 -91.5t-19.5 -103q0 -97 51.5 -145t159.5 -48q79 0 141.5 25t100 67.5t57.5 94.5t22 110q3 88 -51.5 135.5t-161.5 47.5z" />
<glyph unicode="7" horiz-adv-x="1236" d="M1319 1423l2 -8q8 -17 -4 -35q-105 -139 -209 -311l-612 -1053q-13 -16 -31 -16h-250q-15 0 -19.5 8.5t1.5 20.5l555 950q50 88 133 184q16 20 10.5 27.5t-31.5 7.5h-622q-26 0 -23 27l35 194q3 23 27 23h1009q20 0 29 -19z" />
<glyph unicode="8" horiz-adv-x="1296" d="M811 1462q204 0 318 -86t114 -239q0 -121 -66.5 -214.5t-191.5 -142.5q-17 -6 -19.5 -16t11.5 -16q91 -40 144 -113.5t53 -175.5q0 -210 -165.5 -346t-445.5 -136q-226 0 -350.5 95t-124.5 262q0 149 83.5 254t225.5 160q19 8 21.5 17t-12.5 15q-75 35 -114.5 98 t-39.5 148q0 191 151 313.5t408 122.5zM786 1217q-127 0 -193.5 -56.5t-66.5 -148.5q0 -64 49.5 -98.5t137.5 -34.5q121 0 185.5 52t64.5 134q0 74 -46 113t-131 39zM670 633q-142 0 -222.5 -66t-80.5 -166q0 -87 56.5 -131.5t158.5 -44.5q153 0 232 64.5t79 175.5 q0 79 -60 123.5t-163 44.5z" />
<glyph unicode="9" horiz-adv-x="1286" d="M305 31l316 354q72 78 139 127q18 12 13 23t-28 2q-90 -37 -198 -37q-167 0 -272 104.5t-105 286.5q0 89 22 171t71 155.5t119.5 128t175 86.5t230.5 32q228 0 352 -104.5t124 -294.5q0 -94 -16.5 -173.5t-60 -176.5t-125 -209.5t-206.5 -251.5l-215 -240 q-11 -14 -31 -14h-291q-17 0 -21 9.5t7 21.5zM664 737q80 0 143 25.5t100 67t56.5 91.5t19.5 103q0 97 -51.5 145t-159.5 48q-79 0 -141.5 -25t-100 -67.5t-57.5 -94.5t-22 -110q-3 -88 51.5 -135.5t161.5 -47.5z" />
<glyph unicode=":" horiz-adv-x="532" d="M350 1022q85 0 125 -50t25 -136q-14 -72 -59 -112t-115 -40q-85 0 -125 50t-25 136q12 72 57 112t117 40zM227 315q85 0 125 -50t25 -136q-14 -72 -59 -112t-115 -40q-85 0 -125 50.5t-25 136.5q12 72 57 111.5t117 39.5z" />
<glyph unicode=";" horiz-adv-x="538" d="M352 1022q85 0 125 -50t25 -136q-14 -72 -59 -112t-115 -40q-85 0 -125 50t-25 136q12 72 57 112t117 40zM-10 -274l135 188q55 68 -4 86q-35 10 -56.5 45t-21.5 80q0 35 8.5 67t28 62.5t58.5 49t93 18.5q66 0 106 -40t40 -106q0 -140 -129 -323l-103 -144 q-8 -14 -28 -14h-111q-15 0 -19.5 8.5t3.5 22.5z" />
<glyph unicode="&#x3c;" horiz-adv-x="1290" d="M139 459l23 141q3 19 20 27l1032 450q14 6 22 0.5t5 -20.5l-39 -232q-6 -18 -22 -26l-662 -281l563 -278q18 -9 15 -31l-39 -213q-3 -27 -31 -16l-872 448q-18 9 -15 31z" />
<glyph unicode="=" horiz-adv-x="1230" d="M233 889h895q26 0 23 -27l-35 -194q-3 -23 -26 -23h-895q-26 0 -23 27l35 194q3 23 26 23zM154 422h895q25 0 22 -27l-35 -194q-3 -23 -26 -23h-895q-26 0 -23 27l35 194q3 23 27 23z" />
<glyph unicode="&#x3e;" horiz-adv-x="1290" d="M274 1077l873 -448q17 -9 14 -31l-22 -141q-3 -18 -21 -27l-1032 -450q-14 -6 -22 -0.5t-5 20.5l39 231q6 19 23 27l661 281l-563 278q-17 9 -14 31l39 213q3 26 30 16z" />
<glyph unicode="?" horiz-adv-x="1179" d="M250 1362l141 45q178 55 350 55q210 0 320 -86t110 -239q0 -125 -60.5 -216.5t-205.5 -185.5l-135 -86q-72 -47 -84 -125l-14 -90q-3 -22 -27 -22h-227q-26 0 -23 26l15 86q21 113 73 190.5t160 143.5l145 90q51 33 74 63t23 72q0 51 -52.5 84t-138.5 33q-127 0 -264 -41 l-131 -41q-12 -4 -19.5 1.5t-9.5 17.5l-39 196q-3 23 19 29zM502 313q85 0 124.5 -50t24.5 -136q-14 -72 -59 -112t-115 -40q-85 0 -124.5 50t-24.5 137q12 72 57 111.5t117 39.5z" />
<glyph unicode="@" horiz-adv-x="1775" d="M1321 -115l-225 -57q-180 -47 -342 -47q-198 0 -343.5 77t-220.5 213t-75 314q0 79 15.5 162t50 169.5t84 166t123.5 150.5t163 123t207 82t252 30q155 0 283.5 -46t213.5 -125.5t132 -187t47 -229.5q0 -83 -20.5 -157t-61.5 -136t-112.5 -98.5t-164.5 -36.5 q-109 0 -170 63t-98 209q-16 66 -45 102t-92 36q-69 0 -118.5 -44t-49.5 -118q0 -51 35 -80t96 -29q48 0 90 12q20 6 26 -16q32 -98 93 -151q12 -9 11.5 -18t-15.5 -13l-101 -25q-75 -20 -147 -20q-158 0 -244 74.5t-86 211.5q0 61 14 121t47 119t82 103.5t124 72t167 27.5 q111 0 184 -38t117 -120q26 -43 43.5 -93t23.5 -80.5t18.5 -51.5t33.5 -21t36.5 18.5t23.5 46.5t12 54t4 47q0 165 -131 274t-340 109q-124 0 -228.5 -40.5t-173.5 -105.5t-117.5 -147.5t-70 -164t-21.5 -158.5q0 -184 116 -293t317 -109q135 0 282 39l213 56q26 6 29 -21 l22 -176q3 -23 -18 -29z" />
<glyph unicode="A" horiz-adv-x="1505" d="M1030 233h-622l-117 -217q-13 -16 -31 -16h-254q-14 0 -18.5 8.5t2.5 20.5l467 841q191 356 274 553q9 19 29 19h317q24 0 27 -25q14 -210 78 -547l172 -843q3 -12 -3 -19.5t-18 -7.5h-233q-24 0 -27 23zM981 481l-37 174q-55 295 -55 435q-1 12 -8 16.5t-15.5 0 t-13.5 -16.5q-70 -183 -211 -435l-96 -174h436z" />
<glyph unicode="B" horiz-adv-x="1347" d="M332 1442h557q201 0 309.5 -84.5t108.5 -235.5q0 -75 -22.5 -138t-59 -105t-73.5 -68t-75 -41q-50 -22 -8 -41q70 -24 123 -92t53 -178q0 -211 -154 -335t-415 -124h-590q-26 0 -23 27l242 1392q3 23 27 23zM549 1194l-57 -330h256q128 0 199 53.5t71 145.5q0 61 -42 96 t-116 35h-311zM449 616l-64 -368h334q111 0 175 56.5t64 154.5q0 75 -57.5 116t-163.5 41h-288z" />
<glyph unicode="C" horiz-adv-x="1284" d="M1075 51l-106 -33q-136 -41 -305 -41q-255 0 -398 152.5t-143 419.5q0 82 13 168t42 176t71.5 172t106.5 155t141.5 126.5t182 84.5t223.5 31q147 0 299 -55l82 -29q24 -7 12 -32l-96 -183q-9 -22 -33 -12l-86 29q-77 30 -198 30q-99 0 -181.5 -44t-135.5 -113t-90 -157 t-52.5 -172t-15.5 -161q0 -332 286 -332q102 0 232 39l98 29q26 10 29 -16l41 -203q3 -23 -19 -29z" />
<glyph unicode="D" horiz-adv-x="1406" d="M332 1442h489q256 0 397.5 -147t141.5 -406q0 -82 -13 -166.5t-42.5 -172t-72 -167t-106 -150t-140 -122t-178.5 -81.5t-218 -30h-504q-26 0 -23 27l242 1392q3 23 27 23zM549 1194l-164 -946h229q97 0 177.5 43t131.5 110t86.5 152t50.5 166.5t15 157.5q0 154 -72 235.5 t-208 81.5h-246z" />
<glyph unicode="E" horiz-adv-x="1251" d="M494 864h532q26 0 23 -26l-35 -199q-3 -23 -27 -23h-538l-64 -368h700q26 0 23 -27l-37 -198q-3 -23 -27 -23h-958q-26 0 -23 27l242 1392q3 23 27 23h964q13 0 18.5 -8.5t0.5 -20.5l-92 -201q-9 -18 -29 -18h-645z" />
<glyph unicode="F" horiz-adv-x="1234" d="M481 801h547q26 0 23 -27l-35 -199q-3 -22 -27 -22h-551l-92 -530q-3 -23 -27 -23h-233q-26 0 -23 27l242 1392q3 23 27 23h960q13 0 18.5 -8.5t0.5 -20.5l-92 -201q-9 -18 -29 -18h-641z" />
<glyph unicode="G" horiz-adv-x="1392" d="M874 788h418q26 0 23 -26l-111 -643q-3 -21 -22 -27l-86 -29l-123 -45q-136 -41 -303 -41q-259 0 -403 152t-144 418q0 116 25 236.5t84 244t145 218.5t220.5 155.5t297.5 60.5q89 0 155.5 -11.5t145.5 -39.5l88 -31q25 -6 12 -32l-96 -185q-9 -22 -33 -12l-77 27 q-83 32 -207 32q-84 0 -156.5 -31t-123 -84t-89 -119t-61.5 -140.5t-34 -144.5t-11 -134q0 -157 70.5 -241.5t203.5 -84.5q129 0 229 33l50 15l45 262h-234q-28 0 -18 28l92 201q9 18 28 18z" />
<glyph unicode="H" horiz-adv-x="1452" d="M1466 1415l-241 -1392q-3 -23 -27 -23h-233q-26 0 -23 27l102 589h-595l-103 -593q-3 -23 -27 -23h-233q-26 0 -23 27l242 1392q3 23 27 23h233q26 0 23 -27l-94 -551h593l95 555q3 23 26 23h236q25 0 22 -27z" />
<glyph unicode="I" horiz-adv-x="573" d="M588 1415l-242 -1392q-3 -23 -27 -23h-233q-26 0 -23 27l242 1392q3 23 27 23h233q26 0 23 -27z" />
<glyph unicode="J" horiz-adv-x="946" d="M967 1415l-166 -956q-39 -228 -173 -355t-343 -127q-112 0 -217 43l-52 21q-25 10 -12 33l96 184q9 22 33 12l53 -22q53 -17 111 -17q80 0 140.5 56t78.5 162l168 970q3 23 27 23h233q26 0 23 -27z" />
<glyph unicode="K" horiz-adv-x="1402" d="M1452 1411l-311 -426q-124 -162 -307 -231q-9 -3 -11.5 -11.5t6.5 -13.5q169 -78 242 -266l170 -434q5 -12 -1 -20.5t-19 -8.5h-240q-20 0 -29 18l-127 324q-104 268 -333 268h-43l-103 -587q-3 -23 -27 -23h-233q-26 0 -23 27l242 1392q3 23 27 23h233q26 0 23 -27 l-94 -547h41q188 0 374 254l230 305q9 15 28 15h271q15 0 19 -9.5t-5 -21.5z" />
<glyph unicode="L" horiz-adv-x="1171" d="M387 252h619q25 0 22 -27l-35 -202q-3 -23 -26 -23h-881q-26 0 -23 27l242 1392q3 23 27 23h233q26 0 23 -27z" />
<glyph unicode="M" horiz-adv-x="1710" d="M1722 1415l-241 -1392q-3 -23 -27 -23h-233q-26 0 -23 27l94 546q47 280 103 453q6 22 -6 25t-23 -17q-44 -80 -90 -162l-223 -387q-16 -28 -107 -206q-10 -19 -28 -19h-209q-24 0 -27 23q-10 75 -33 196l-90 391q-11 60 -37 164q-3 19 -14 17q-14 -1 -16 -25 q-9 -196 -52 -453l-94 -550q-3 -23 -27 -23h-233q-26 0 -23 27l242 1392q3 23 27 23h342q21 0 24 -23q9 -68 23 -143l82 -361q41 -249 47 -315q1 -11 7 -15.5t13.5 0t12.5 15.5q63 151 147 315l205 361q56 110 72 147q9 19 28 19h365q25 0 22 -27z" />
<glyph unicode="N" horiz-adv-x="1484" d="M1499 1415l-242 -1392q-3 -23 -26 -23h-289q-23 0 -29 20q-29 104 -69 211l-258 646q-20 54 -54 157q-8 20 -21 15.5t-15 -23.5q-2 -129 -33 -330l-117 -673q-3 -23 -27 -23h-233q-26 0 -23 27l242 1392q3 23 27 23h289q22 0 28 -21q18 -59 70 -211l254 -632l59 -170 q6 -21 19.5 -17t11.5 25q3 143 35 325l116 678q3 23 27 23h236q25 0 22 -27z" />
<glyph unicode="O" horiz-adv-x="1474" d="M887 1462q258 0 399 -149.5t141 -415.5q0 -81 -12.5 -166.5t-41 -176t-70 -173.5t-104 -157.5t-138.5 -128.5t-178 -86t-219 -32q-256 0 -398.5 152t-142.5 418q0 81 12.5 166t41 175.5t70 173t104 156t138.5 127.5t178.5 85.5t219.5 31.5zM877 1210q-99 0 -180.5 -44.5 t-133.5 -114.5t-88.5 -158.5t-51.5 -173.5t-15 -164q0 -155 69 -239.5t199 -84.5q98 0 179.5 45.5t133.5 116t88 160t51 174t15 162.5q0 155 -68.5 238t-197.5 83z" />
<glyph unicode="P" horiz-adv-x="1316" d="M332 1442h530q212 0 328 -113t110 -313q-7 -253 -185.5 -393t-491.5 -140h-199l-78 -460q-3 -23 -27 -23h-233q-26 0 -23 27l242 1392q3 23 27 23zM549 1194l-80 -463h182q167 0 263 69.5t102 196.5q5 93 -43 145t-139 52h-285z" />
<glyph unicode="Q" horiz-adv-x="1474" d="M1343 -223l-186 -119q-19 -16 -33 6l-73 123q-59 98 -145.5 144t-239.5 46q-254 0 -398.5 151.5t-144.5 418.5q0 126 27 251.5t88 246t147.5 212.5t216.5 148.5t285 56.5q255 0 397.5 -150t142.5 -419q0 -256 -99.5 -466t-250.5 -288q-14 -6 -18.5 -10.5t-1 -8.5t15.5 -9 q76 -32 123 -73.5t84 -107.5l72 -120q13 -20 -9 -33zM410 559q0 -166 70.5 -247t195.5 -81q80 0 149 29.5t119 80t89 115t62.5 138t35.5 145.5t12 140q0 166 -69 248.5t-197 82.5q-93 0 -172 -41.5t-132 -108.5t-91 -153.5t-55 -174.5t-17 -173z" />
<glyph unicode="R" horiz-adv-x="1388" d="M332 1442h565q202 0 311 -104.5t109 -276.5q0 -296 -318 -416q-46 -17 -12 -37q105 -69 148 -233l88 -348q3 -12 -3.5 -19.5t-19.5 -7.5h-233q-23 0 -29 20l-59 240q-23 95 -58.5 152t-105 90t-178.5 33h-103l-88 -512q-3 -23 -27 -23h-233q-26 0 -23 27l242 1392 q3 23 27 23zM479 784h213q155 0 247.5 67t92.5 173q0 79 -48.5 124.5t-131.5 45.5h-303z" />
<glyph unicode="S" horiz-adv-x="1253" d="M705 580l-199 77q-163 65 -231 137.5t-68 192.5q0 69 17.5 133.5t60 128t106 110t164 75t225.5 28.5q153 0 324 -59l119 -41q25 -7 12 -33l-100 -184q-10 -23 -31 -12l-109 36q-118 41 -237 41q-123 0 -194.5 -50t-71.5 -136q0 -43 34.5 -76.5t116.5 -66.5l188 -74 q165 -66 240.5 -143t75.5 -199q0 -72 -17 -137.5t-60.5 -131t-109 -113t-171 -77t-238.5 -29.5q-169 0 -385 76l-117 41q-26 7 -12 31l94 186q10 23 33 13l106 -39q154 -54 303 -54q129 0 209 48.5t80 136.5q0 53 -38 92.5t-119 71.5z" />
<glyph unicode="T" horiz-adv-x="1323" d="M1407 1415l-35 -198q-3 -23 -26 -23h-420l-203 -1171q-3 -23 -27 -23h-233q-26 0 -23 27l201 1167h-418q-25 0 -22 27l35 198q3 23 26 23h1122q26 0 23 -27z" />
<glyph unicode="U" horiz-adv-x="1384" d="M1417 1415l-147 -835q-49 -288 -223 -445.5t-437 -157.5q-273 0 -396.5 164t-72.5 455l144 823q3 23 26 23h232q25 0 22 -27l-145 -835q-28 -171 26.5 -260t184.5 -89q140 0 235.5 96.5t124.5 268.5l144 823q3 23 26 23h234q25 0 22 -27z" />
<glyph unicode="V" horiz-adv-x="1466" d="M1563 1413l-463 -840q-176 -331 -271 -555q-9 -18 -28 -18h-303q-22 0 -25 23q-22 252 -78 550l-174 842q-3 12 3 19.5t18 7.5h231q24 0 27 -23l135 -635q44 -218 47 -419q0 -11 7 -15.5t15.5 0t12.5 15.5q65 185 194 419l353 641q14 17 30 17h252q14 0 19 -8.5t-2 -20.5 z" />
<glyph unicode="W" horiz-adv-x="2064" d="M2144 1413l-440 -1001q-107 -246 -158 -392q-6 -20 -26 -20h-314q-24 0 -24 25q-3 189 -19 331l-41 371q-5 109 -2 191q0 13 -6.5 18t-14.5 0t-12 -18q-59 -162 -71 -191l-168 -375q-76 -187 -131 -332q-6 -20 -27 -20h-313q-25 0 -25 25q-3 207 -20 387l-96 1003 q-1 12 5.5 19.5t18.5 7.5h232q21 0 24 -23l64 -643q15 -187 0 -399q-3 -19 11.5 -19t20.5 19q62 199 150 399l299 647q9 19 29 19h192q22 0 25 -23l77 -643q17 -153 13 -399q-3 -19 11 -19t19 19q40 161 140 399l284 647q9 19 29 19h246q13 0 18.5 -8.5t-0.5 -20.5z" />
<glyph unicode="X" horiz-adv-x="1443" d="M1481 1411l-363 -498q-85 -117 -190 -174q-10 -4 -11.5 -13.5t5.5 -12.5q83 -56 131 -181l196 -503q5 -12 -1 -20.5t-19 -8.5h-240q-19 0 -28 18l-201 508q-10 31 -35 0l-377 -512q-8 -14 -29 -14h-270q-15 0 -19 9.5t5 21.5l368 501q92 125 195 181q10 3 10 14 q1 5 -1 8.5t-9 7.5t-8 5q-72 55 -115 163l-194 502q-5 12 1 20.5t19 8.5h242q19 0 28 -19l191 -497q8 -23 18 -22.5t25 22.5l366 501q9 15 29 15h266q15 0 19.5 -9.5t-4.5 -21.5z" />
<glyph unicode="Y" horiz-adv-x="1409" d="M1499 1411l-362 -493q-161 -225 -206 -302q-87 -148 -120 -315q-4 -21 -8 -43l-39 -235q-3 -23 -27 -23h-233q-26 0 -23 27l39 231q11 65 16 117.5t0.5 107.5t-10 93.5t-25.5 102.5t-35 106.5t-48 132.5l-195 495q-5 12 1.5 20.5t19.5 8.5h241q19 0 29 -19l127 -311 q70 -182 88 -299q2 -11 8.5 -15t14.5 0t14 15q96 179 182 299l236 315q9 15 28 15h273q15 0 19 -9.5t-5 -21.5z" />
<glyph unicode="Z" horiz-adv-x="1308" d="M1356 1423l2 -6q8 -17 -4 -35q-149 -179 -242 -309l-432 -592q-5 -7 -64.5 -86t-87.5 -114q-12 -15 -8.5 -25t21.5 -10q57 2 168 2h403q13 0 18 -8.5t0 -20.5l-92 -201q-9 -18 -28 -18h-944q-20 0 -29 18l-2 7q-8 16 4 34q27 31 52.5 62.5t41.5 52t41 54t34 45.5t37.5 52 t35.5 50l426 581q100 142 157 201q14 15 10.5 26t-22.5 11h-170h-401q-26 0 -23 27l35 198q3 23 26 23h1008q19 0 29 -19z" />
<glyph unicode="[" horiz-adv-x="772" d="M362 39h164q26 0 23 -27l-35 -194q-3 -23 -27 -23h-395q-25 0 -22 27l295 1708q3 22 26 22h397q26 0 23 -26l-35 -195q-3 -22 -26 -22h-168z" />
<glyph unicode="\" horiz-adv-x="1118" d="M518 1534l377 -1712q3 -12 -3.5 -19.5t-19.5 -7.5h-202q-24 0 -27 23l-381 1712q-6 26 23 26h207q23 0 26 -22z" />
<glyph unicode="]" horiz-adv-x="772" d="M469 1309h-164q-25 0 -22 26l34 195q3 22 27 22h395q26 0 23 -26l-295 -1708q-3 -23 -27 -23h-397q-26 0 -23 27l35 194q3 23 27 23h168z" />
<glyph unicode="^" horiz-adv-x="1064" d="M983 713h-238q-23 0 -26 22l-78 348l-201 -354q-13 -16 -30 -16h-248q-15 0 -20 8t3 20l426 668q8 16 29 16h182q23 0 29 -20l193 -664q6 -28 -21 -28z" />
<glyph unicode="_" horiz-adv-x="1071" d="M-127 -199h1079q26 0 23 -26l-35 -195q-3 -22 -27 -22h-1079q-25 0 -22 26l34 195q3 22 27 22z" />
<glyph unicode="`" horiz-adv-x="645" d="M571 1458l82 -278q6 -29 -20 -29h-174q-19 0 -31 18l-147 281q-6 12 -0.5 20.5t18.5 8.5h246q20 0 26 -21z" />
<glyph unicode="a" horiz-adv-x="1161" d="M786 25v96q-5 34 -15 35t-44 -33q-62 -72 -132 -109t-161 -37q-172 0 -267 100.5t-95 282.5q0 87 20 176t67 177.5t115 156t172.5 110t231.5 42.5q85 0 215 -31l205 -49q21 -6 18 -29l-151 -890q-3 -23 -27 -23h-127q-25 0 -25 25zM813 745l-45 15q-49 14 -102 14 q-81 0 -146 -41t-101.5 -103t-55.5 -126t-19 -119q0 -75 37.5 -117.5t103.5 -42.5q109 0 192.5 119t119.5 315z" />
<glyph unicode="b" horiz-adv-x="1173" d="M567 1452l-45 -268q-23 -133 -84 -234q-9 -20 -1.5 -28.5t28.5 2.5q125 98 254 98q184 0 282.5 -107t98.5 -297q0 -87 -18.5 -173t-62.5 -171.5t-108.5 -150.5t-165 -105.5t-223.5 -40.5q-150 0 -280 56l-162 71q-20 8 -17 31l228 1321q3 23 26 23h228q25 0 22 -27z M360 268l39 -16q64 -27 133 -27q62 0 113 25t84 65t56 91t32.5 100.5t9.5 95.5q0 172 -153 172q-108 0 -183 -86t-100 -235z" />
<glyph unicode="c" horiz-adv-x="976" d="M786 29l-98 -27q-89 -25 -182 -25q-211 0 -322.5 109t-111.5 303q0 71 13.5 141.5t40.5 143t74.5 134.5t110 110.5t151.5 76t195 27.5q69 0 172 -29l105 -30q26 -10 14 -33l-88 -180q-9 -22 -33 -15l-67 21q-58 18 -111 18q-69 0 -123.5 -26t-87.5 -66t-55 -91.5 t-30.5 -97.5t-8.5 -90q0 -178 174 -178q64 0 152 23l84 22q11 3 19 -2.5t9 -17.5l25 -193q3 -21 -21 -28z" />
<glyph unicode="d" horiz-adv-x="1171" d="M1210 1452l-245 -1429q-3 -23 -27 -23h-121q-23 0 -26 23l-13 55q-8 23 -17.5 23.5t-39.5 -21.5q-123 -103 -272 -103q-180 0 -278.5 107.5t-98.5 296.5q0 84 18 169t60 171t103.5 151.5t158 107t213.5 42.5q107 0 172 -33l51 -24l86 491q3 23 27 23h227q25 0 22 -27z M811 729l-45 21q-52 24 -131 24q-62 0 -113 -25.5t-83.5 -64.5t-54.5 -89.5t-31 -97.5t-9 -91q0 -87 41.5 -134t120.5 -47q102 0 171 67.5t89 184.5z" />
<glyph unicode="e" horiz-adv-x="1046" d="M813 31l-115 -29q-97 -25 -196 -25q-208 0 -319 109.5t-111 302.5q0 60 9.5 120.5t30 123t51.5 119t77 106.5t102 86t131.5 57t161.5 21q171 0 267.5 -77.5t96.5 -213.5q0 -63 -16 -113.5t-54 -97.5t-110.5 -79.5t-177.5 -47.5l-297 -41q5 -59 46 -93t120 -34 q84 0 172 21l106 28q26 6 29 -20l17 -195q3 -21 -21 -28zM362 561l256 35q58 9 86.5 35.5t28.5 64.5q0 37 -28.5 57.5t-83.5 20.5q-187 0 -259 -213z" />
<glyph unicode="f" horiz-adv-x="804" d="M287 999l22 121q31 182 147.5 281.5t297.5 99.5q72 0 151 -26l41 -15q25 -6 12 -33l-88 -180q-9 -22 -32 -12l-25 8q-43 12 -68 12q-61 0 -105.5 -43.5t-55.5 -111.5l-19 -101h230q25 0 22 -26l-35 -195q-3 -22 -26 -22h-232l-127 -733q-3 -23 -26 -23h-230q-25 0 -22 27 l127 729h-101q-25 0 -22 26l33 195q3 22 26 22h105z" />
<glyph unicode="g" horiz-adv-x="1161" d="M156 -176l69 -23q72 -20 152 -20q111 0 197.5 38t142.5 146q28 81 31 103q3 20 -5 20q-9 0 -38 -20q-128 -91 -248 -91q-191 0 -292 115t-93 314q3 74 18.5 145.5t45 141.5t77 129t108.5 104t144.5 70.5t181.5 25.5q125 0 248 -49l197 -78q19 -8 16 -31l-145 -848 q-41 -236 -193 -359.5t-391 -123.5q-118 0 -221 29l-109 32q-23 10 -12 33l86 183q9 21 33 14zM809 729l-43 21q-63 24 -131 24q-71 0 -127.5 -33.5t-90 -87t-52 -112t-21.5 -117.5q-6 -93 32.5 -146t119.5 -53q108 0 177.5 66t92.5 198z" />
<glyph unicode="h" horiz-adv-x="1140" d="M567 1452l-45 -268q-23 -133 -86 -242q-8 -14 1 -22.5t26 2.5q124 100 250 100q185 0 275.5 -107t58.5 -288l-105 -604q-3 -23 -27 -23h-229q-25 0 -22 27l102 587q26 160 -102 160q-102 0 -169.5 -73t-88.5 -195l-84 -483q-3 -23 -27 -23h-229q-26 0 -23 27l248 1429 q3 23 26 23h228q25 0 22 -27z" />
<glyph unicode="i" horiz-adv-x="604" d="M471 1499q72 0 111 -37.5t39 -103.5q0 -88 -45.5 -136t-124.5 -48q-72 0 -111 37.5t-39 103.5q0 88 45.5 136t124.5 48zM561 973l-164 -950q-3 -23 -26 -23h-230q-25 0 -22 27l127 729h-101q-25 0 -22 26l33 195q3 22 26 22h357q25 0 22 -26z" />
<glyph unicode="j" horiz-adv-x="604" d="M471 1499q72 0 111 -37.5t39 -103.5q0 -88 -45.5 -137.5t-124.5 -49.5q-71 0 -110.5 38.5t-39.5 105.5q0 88 45.5 136t124.5 48zM561 973l-170 -989q-26 -144 -105 -248t-229 -170l-59 -29q-25 -11 -31 14l-73 189q-10 24 12 33l43 22q70 32 113.5 86.5t54.5 122.5 l129 752h-101q-25 0 -22 26l33 195q3 22 26 22h357q25 0 22 -26z" />
<glyph unicode="k" horiz-adv-x="1150" d="M1122 969l-223 -303q-81 -105 -199 -146q-23 -9 -4 -20q107 -49 148 -148l125 -323q4 -13 -1.5 -21t-19.5 -8h-233q-20 0 -29 18l-88 222q-29 69 -73 107t-117 38h-25l-59 -362q-3 -23 -27 -23h-229q-26 0 -23 27l160 936l86 493q3 23 26 23h228q25 0 22 -27l-78 -453 l-61 -370h23q95 0 211 153l153 203q8 14 29 14h264q15 0 19 -9t-5 -21z" />
<glyph unicode="l" horiz-adv-x="620" d="M567 1452l-202 -1182q-9 -45 24 -45h14q26 3 31 -18l41 -178q3 -23 -16 -31q-52 -21 -113 -21q-146 0 -215.5 77.5t-44.5 215.5l205 1186q3 23 26 23h228q25 0 22 -27z" />
<glyph unicode="m" horiz-adv-x="1716" d="M383 977l10 -53q8 -19 16 -23.5t17.5 0.5t30.5 21q119 100 260 100q133 0 223 -107q31 -29 50 -30.5t57 26.5q126 111 268 111q173 0 256 -107t51 -288l-104 -604q-3 -23 -27 -23h-229q-26 0 -23 27l102 587q14 81 -8 120.5t-84 39.5q-98 0 -162 -71.5t-86 -196.5 l-81 -483q-3 -23 -27 -23h-229q-26 0 -23 27l102 591q28 156 -92 156q-99 0 -162.5 -71.5t-85.5 -196.5l-81 -483q-3 -23 -27 -23h-229q-26 0 -23 27l164 950q3 22 26 22h123q24 0 27 -22z" />
<glyph unicode="n" horiz-adv-x="1140" d="M383 979l14 -59q10 -21 21 -20.5t37 20.5q123 102 274 102q183 0 267 -106t51 -289l-105 -604q-3 -23 -27 -23h-229q-25 0 -22 27l102 587q13 79 -13.5 119.5t-88.5 40.5q-100 0 -169.5 -71.5t-91.5 -196.5l-81 -483q-3 -23 -27 -23h-229q-26 0 -23 27l164 950 q3 22 26 22h123q24 0 27 -20z" />
<glyph unicode="o" horiz-adv-x="1136" d="M641 1022q200 0 311 -110.5t111 -303.5q0 -82 -18.5 -165.5t-61.5 -168.5t-106 -150t-162 -106t-219 -41q-201 0 -312.5 110.5t-111.5 303.5q0 58 9.5 117.5t31 122t52.5 119t77.5 106.5t103.5 86.5t133 58t162 21.5zM631 774q-61 0 -111.5 -25.5t-82 -64.5t-53.5 -89 t-31 -97t-9 -90q0 -88 41 -135.5t119 -47.5q74 0 132.5 37.5t91 95.5t49 118.5t16.5 115.5q0 88 -42 135t-120 47z" />
<glyph unicode="p" horiz-adv-x="1171" d="M379 977l12 -53q11 -25 21 -26t41 22q119 102 268 102q180 0 279.5 -107.5t99.5 -296.5q0 -84 -18 -169t-60 -171t-104 -152t-158.5 -107.5t-214.5 -41.5q-105 0 -172 33l-51 25l-78 -457q-3 -22 -27 -22h-229q-26 0 -23 26l242 1395q3 22 26 22h119q24 0 27 -22z M360 268l43 -18q58 -25 132 -25q62 0 113.5 25.5t83.5 65t54.5 89.5t31.5 97t9 90q0 89 -41 135.5t-122 46.5q-102 0 -172 -69t-89 -185z" />
<glyph unicode="q" horiz-adv-x="1161" d="M610 -418l39 236q22 125 84 233q11 20 2 27.5t-33 -6.5q-124 -95 -249 -95q-183 0 -282 107.5t-99 296.5q0 87 18.5 173t62 171.5t107.5 150.5t164 105.5t223 40.5q155 0 281 -57l164 -70q19 -8 16 -31l-221 -1286q-3 -22 -27 -22h-227q-26 0 -23 26zM811 729l-41 19 q-73 26 -131 26q-62 0 -113.5 -25t-84.5 -65t-55.5 -90.5t-32 -99.5t-9.5 -95q0 -85 38.5 -129.5t113.5 -44.5q109 0 184 85.5t100 234.5z" />
<glyph unicode="r" horiz-adv-x="829" d="M819 995l-35 -198q-3 -23 -26 -23q-170 -6 -261 -128t-143 -417l-32 -206q-3 -23 -27 -23h-229q-26 0 -23 27l164 950q3 22 26 22h123q23 0 29 -20l27 -98q6 -18 15 -20.5t28 13.5q78 76 156 110.5t186 37.5q25 0 22 -27z" />
<glyph unicode="s" horiz-adv-x="1003" d="M547 375l-182 47q-117 31 -173.5 89.5t-56.5 150.5q0 72 24.5 134.5t74 114t134.5 81.5t197 30q127 0 266 -39l97 -25q26 -6 14 -30l-84 -187q-9 -21 -33 -14l-86 25q-81 22 -182 22q-70 0 -110.5 -22t-40.5 -58q0 -39 59 -53l182 -49q236 -62 236 -252q0 -52 -13 -100.5 t-45 -97t-80 -84.5t-126 -58.5t-175 -22.5q-159 0 -313 43l-94 27q-26 7 -14 31l86 184q9 21 32 14l70 -20q108 -31 244 -31q75 0 115 25.5t40 64.5q0 44 -63 60z" />
<glyph unicode="t" horiz-adv-x="821" d="M565 999h230q25 0 22 -26l-35 -195q-3 -22 -26 -22h-232l-75 -437q-15 -94 49 -94q31 0 55 8q24 9 33 -14l51 -170q6 -22 -12 -31q-80 -41 -168 -41q-163 0 -238.5 91t-46.5 254l74 434h-101q-25 0 -22 26l33 195q3 22 26 22h105l39 230q3 20 22 26l246 76q13 4 20 -2 t4 -20z" />
<glyph unicode="u" horiz-adv-x="1140" d="M758 20l-15 60q-10 21 -20.5 20.5t-36.5 -20.5q-124 -103 -274 -103q-183 0 -267 106.5t-51 289.5l105 604q3 22 26 22h230q25 0 22 -26l-102 -588q-13 -79 13.5 -119.5t88.5 -40.5q99 0 168.5 72t91.5 197l82 483q3 22 27 22h229q26 0 23 -26l-164 -950q-3 -23 -27 -23 h-123q-23 0 -26 20z" />
<glyph unicode="v" horiz-adv-x="1150" d="M1169 971l-243 -430q-186 -336 -269 -523q-9 -18 -28 -18h-277q-21 0 -24 23q-33 255 -86 518l-101 432q-3 12 3 19t20 7h233q24 0 27 -20l61 -256q39 -211 39 -383q0 -12 7 -16.5t15.5 0t12.5 16.5q60 182 172 383l148 260q13 16 30 16h244q14 0 18.5 -8t-2.5 -20z" />
<glyph unicode="w" horiz-adv-x="1673" d="M1681 971l-247 -537q-136 -297 -183 -416q-9 -18 -28 -18h-289q-24 0 -27 23l-16 192l-23 152q-12 86 -12 168q-2 21 -11.5 21t-17.5 -21q-56 -131 -69 -168l-74 -152q-9 -22 -40.5 -91.5t-45.5 -105.5q-9 -18 -29 -18h-284q-24 0 -27 25q-2 30 -39 409l-63 539 q0 26 24 26h228q21 0 24 -22l31 -277q14 -206 14 -368q0 -12 7 -16.5t15.5 0t12.5 16.5q22 53 51 119t69 154.5t64 142.5l113 233q9 18 29 18h149q24 0 27 -22l37 -229q33 -350 36 -416q1 -12 8 -16.5t15 0t12 16.5q56 163 144 368l125 281q9 18 28 18h242q30 0 20 -28z" />
<glyph unicode="x" horiz-adv-x="1116" d="M1108 969l-254 -330q-67 -88 -141 -123q-16 -9 -4 -18q33 -24 55 -52.5t43 -78.5l141 -338q6 -12 0.5 -20.5t-18.5 -8.5h-238q-19 0 -28 18l-111 271q-12 27 -33 0l-205 -275q-8 -14 -28 -14h-264q-17 0 -21.5 9.5t4.5 21.5l260 336q69 92 142 131q16 8 2 18 q-25 15 -51.5 49.5t-41.5 73.5l-141 332q-6 12 -0.5 20t19.5 8h233q20 0 29 -18l110 -268q5 -15 14 -15t19 15l203 272q8 14 28 14h263q15 0 19 -9t-5 -21z" />
<glyph unicode="y" horiz-adv-x="1153" d="M1174 971l-785 -1399q-13 -16 -31 -16h-237q-14 0 -19 8t2 20l129 232q62 120 67.5 264t-42.5 375l-117 518q-3 12 3 19t20 7h233q24 0 27 -22l70 -305q34 -169 30 -328q0 -26 14 -25.5t23 25.5q57 159 146 326l176 313q13 16 30 16h244q14 0 19 -8t-2 -20z" />
<glyph unicode="z" horiz-adv-x="1019" d="M1016 983q6 -17 -6 -31q-49 -58 -129 -168l-285 -393q-57 -76 -111 -127q-9 -9 -7 -15.5t14 -6.5q22 0 62 1t58 1h246q14 0 18.5 -8.5t-2.5 -20.5l-104 -197q-12 -18 -31 -18h-692q-20 0 -29 20q-3 12 9 27q69 84 137 178l278 381q45 67 111 129q23 23 -6 23 q-37 -2 -119 -2h-238q-25 0 -22 26l33 195q3 22 26 22h760q21 0 29 -16z" />
<glyph unicode="{" horiz-adv-x="811" d="M868 1542l-34 -194q-3 -22 -27 -25q-68 -6 -119 -53t-61 -115l-43 -252q-15 -76 -48 -126t-92 -87q-3 -2 -9.5 -6t-8.5 -5.5t-6.5 -4.5t-5 -4.5t-2.5 -4t-0.5 -4t2 -4t4 -5l7 -5t9.5 -6.5q42 -24 60.5 -83t7.5 -132l-43 -244q-24 -145 123 -157q25 0 22 -27l-35 -195 q-3 -22 -26 -22q-187 8 -277.5 119.5t-58.5 298.5l43 245q18 109 -82 109h-23q-25 0 -22 27l35 196q3 23 26 23h11q51 0 89.5 34.5t49.5 88.5l41 252q31 184 152.5 285.5t318.5 109.5q25 0 22 -27z" />
<glyph unicode="|" horiz-adv-x="628" d="M623 1534l-340 -1958q-3 -22 -27 -22h-205q-25 0 -22 26l338 1958q3 23 26 23h207q26 0 23 -27z" />
<glyph unicode="}" horiz-adv-x="811" d="M4 -190l35 194q3 22 27 25q68 6 119 53t61 115l43 252q15 76 47.5 126t91.5 87q3 2 9.5 6t8.5 5.5t6.5 4.5t5 4.5t2.5 4t0.5 4t-2 4t-4 5l-7 5t-9.5 6.5q-42 24 -60 83t-7 132l43 243q24 146 -123 158q-26 0 -23 27l35 194q3 23 27 23q187 -8 277.5 -119.5t58.5 -298.5 l-43 -246q-18 -108 82 -108h22q26 0 23 -27l-35 -197q-3 -22 -27 -22h-10q-51 0 -89.5 -34.5t-49.5 -88.5l-41 -252q-31 -184 -152.5 -285.5t-318.5 -109.5q-26 0 -23 27z" />
<glyph unicode="~" horiz-adv-x="1183" d="M113 559l147 197q112 147 264 147q73 0 121 -51l74 -72q21 -18 41 -18q23 0 49 33l65 90q8 14 29 14h227q15 0 19.5 -9.5t-4.5 -21.5l-148 -200q-108 -144 -258 -144q-68 0 -123 49l-81 74q-18 15 -35 15q-27 0 -51 -33l-66 -86q-12 -15 -31 -15h-225q-15 0 -19 9.5 t5 21.5z" />
<glyph unicode="&#xa2;" horiz-adv-x="976" d="M895 1178l-68 20q-61 19 -110 19q-69 0 -123.5 -26t-87.5 -66t-55 -91.5t-30.5 -97.5t-8.5 -90q0 -178 174 -178q67 0 151 22l84 23q11 3 19.5 -3t9.5 -18l24 -192q3 -22 -20 -29l-98 -27q-47 -13 -111 -20l-33 -186q-3 -23 -26 -23h-207q-26 0 -23 27l37 204 q-125 39 -189.5 138.5t-64.5 246.5q0 94 23.5 187t72 181t134.5 155t200 94l33 192q3 23 27 23h207q25 0 22 -27l-33 -182l36 -9l36 -9l104 -31q27 -10 15 -33l-88 -180q-9 -21 -33 -14z" />
<glyph unicode="&#xa3;" horiz-adv-x="1226" d="M537 567l-23 -131q-11 -57 -23.5 -91t-39.5 -79q-8 -12 -5.5 -17.5t15.5 -4.5q82 10 219 10h381q25 0 22 -27l-36 -204q-3 -23 -27 -23h-924q-19 0 -28 18l-5 7q-9 19 3 34l51 68q41 55 72.5 133t43.5 152l27 155h-154q-25 0 -22 27l37 199q3 22 26 22h156l33 182 q38 220 186 342.5t367 122.5q121 0 237 -45l62 -24q25 -10 12 -33l-104 -197q-9 -22 -33 -12l-49 20q-71 29 -137 29q-102 0 -177 -61t-92 -160l-28 -164h282q26 0 23 -27l-37 -198q-3 -23 -27 -23h-284z" />
<glyph unicode="&#xa5;" horiz-adv-x="1429" d="M1147 918l-88 -123h143q26 0 23 -27l-29 -147q-3 -23 -27 -23h-239q-42 -82 -51 -104h270q25 0 22 -27l-28 -150q-3 -22 -27 -22h-297l-6 -37l-39 -235q-3 -23 -26 -23h-234q-25 0 -22 27l38 231l7 37h-322q-25 0 -22 27l26 149q3 23 27 23h301q-1 25 -15 104h-264 q-25 0 -22 27l26 147q3 23 27 23h174l-45 123l-195 495q-5 12 1.5 20.5t19.5 8.5h242q18 0 28 -19l127 -311q70 -182 88 -299q2 -11 8.5 -15t14.5 0t14 15q96 179 182 299l236 315q9 15 29 15h272q15 0 19 -9.5t-5 -21.5z" />
<glyph unicode="&#xa7;" horiz-adv-x="1265" d="M606 952l295 -123q250 -105 250 -321q0 -231 -188 -330q-21 -11 -23.5 -20t14.5 -21q84 -67 84 -190q0 -60 -16.5 -115.5t-58 -111t-104 -96t-161.5 -66t-223 -25.5q-100 0 -186 16t-195 54l-117 39q-25 7 -12 32l96 183q9 22 33 12l111 -39q143 -49 278 -49 q128 0 203.5 47.5t75.5 118.5q0 56 -82 92l-311 131q-240 102 -240 309q0 219 197 338q19 11 21 18t-11 21q-45 41 -67.5 85t-22.5 116q0 56 16.5 110.5t56.5 108.5t100 94.5t154.5 66t212.5 25.5q168 0 316 -53l117 -43q26 -6 12 -31l-101 -182q-10 -22 -30 -12l-99 35 q-115 41 -221 41q-116 0 -187 -45.5t-71 -120.5q0 -61 84 -99zM748 623l-140 57q-28 8 -43 8q-74 0 -122 -60t-48 -116q0 -49 35.5 -78t122.5 -67l125 -52q20 -10 49 -10q71 0 115.5 57t44.5 115q0 49 -34.5 82.5t-104.5 63.5z" />
<glyph unicode="&#xa8;" horiz-adv-x="847" d="M371 1516q65 0 101 -34.5t36 -95.5q0 -72 -38.5 -122t-117.5 -50q-65 0 -101 35t-36 97q0 82 42 126t114 44zM758 1516q65 0 101 -34.5t36 -95.5q0 -72 -38.5 -122t-117.5 -50q-65 0 -101 35t-36 97q0 82 42 126t114 44z" />
<glyph unicode="&#xa9;" horiz-adv-x="1615" d="M807 1462q326 0 525.5 -204.5t199.5 -538.5q0 -333 -200 -537.5t-525 -204.5q-324 0 -523.5 204.5t-199.5 537.5q0 334 199.5 538.5t523.5 204.5zM807 1315q-259 0 -417.5 -164.5t-158.5 -431.5q0 -266 158.5 -430t417.5 -164q260 0 418.5 164t158.5 430 q0 268 -158.5 432t-418.5 164zM1022 358l-45 -14q-76 -22 -168 -22q-163 0 -258.5 107.5t-95.5 291.5t95.5 292.5t258.5 108.5q89 0 168 -24l45 -15q23 -10 14 -30l-32 -97q-10 -23 -31 -14l-43 12q-61 17 -121 17q-91 0 -142 -65.5t-51 -184.5q0 -118 51 -184t142 -66 q77 0 121 16l43 13q21 6 31 -17l32 -94q9 -21 -14 -31z" />
<glyph unicode="&#xaa;" horiz-adv-x="823" d="M299 1409l66 18q86 25 178 25q172 0 255.5 -83t57.5 -230l-82 -473q-3 -23 -26 -23h-101q-23 0 -26 23l-3 26q-5 21 -30 2q-93 -67 -228 -67q-132 0 -195.5 65t-41.5 182q19 117 108 184.5t228 67.5h188l2 9q11 63 -26.5 98t-120.5 35q-51 0 -125 -19l-55 -16 q-12 -3 -20.5 2.5t-8.5 17.5l-14 127q-3 22 20 29zM621 967h-191q-89 0 -102 -74q-8 -39 16 -62.5t76 -23.5q174 0 198 151zM35 307l22 137q3 23 27 23h623q25 0 22 -27l-22 -137q-3 -22 -27 -22h-623q-25 0 -22 26z" />
<glyph unicode="&#xab;" horiz-adv-x="1314" d="M408 498l194 -367q7 -12 2.5 -20.5t-18.5 -8.5h-232q-17 0 -30 19l-185 346q-8 13 -8 31v6q0 16 12 28l306 355q11 14 30 14h244q17 0 21 -9.5t-7 -21.5zM899 498l195 -367q7 -12 2 -20.5t-19 -8.5h-231q-18 0 -31 19l-184 346q-8 13 -8 31v6q0 16 12 28l305 355 q11 14 31 14h243q17 0 21.5 -9.5t-6.5 -21.5z" />
<glyph unicode="&#xad;" horiz-adv-x="892" d="M195 655h555q25 0 22 -26l-35 -195q-3 -22 -26 -22h-555q-26 0 -23 26l35 195q3 22 27 22z" />
<glyph unicode="&#xae;" horiz-adv-x="1615" d="M807 1462q326 0 525.5 -204.5t199.5 -538.5q0 -333 -200 -537.5t-525 -204.5q-324 0 -523.5 204.5t-199.5 537.5q0 334 199.5 538.5t523.5 204.5zM807 1315q-259 0 -417.5 -164.5t-158.5 -431.5q0 -266 158.5 -430t417.5 -164q260 0 418.5 164t158.5 430 q0 268 -158.5 432t-418.5 164zM557 1094h285q124 0 191 -59.5t67 -166.5q0 -71 -37.5 -119.5t-95.5 -68.5q-23 -6 -2 -18q60 -37 100 -123l70 -164q6 -12 0.5 -20.5t-19.5 -8.5h-115q-19 0 -28 19l-43 112q-34 76 -73.5 107.5t-121.5 31.5h-45v-245q0 -25 -24 -25h-109 q-25 0 -25 25v698q0 25 25 25zM690 948v-194h117q67 0 106 26.5t39 75.5q0 45 -31 68.5t-79 23.5h-152z" />
<glyph unicode="&#xb0;" horiz-adv-x="720" d="M522 1483q127 0 195.5 -61t68.5 -171q0 -63 -18.5 -124t-57.5 -116.5t-110 -89.5t-164 -34q-126 0 -196 62.5t-70 174.5q0 51 11.5 100t38.5 96.5t66.5 83t100 57.5t135.5 22zM506 1298q-61 0 -97 -46t-36 -101q0 -37 20.5 -57.5t55.5 -20.5q62 0 98.5 42.5t36.5 107.5 q0 75 -78 75z" />
<glyph unicode="&#xb4;" horiz-adv-x="657" d="M436 1479h252q17 0 21 -9.5t-7 -21.5l-245 -283q-11 -14 -31 -14h-182q-15 0 -20 8.5t3 20.5l181 282q8 17 28 17z" />
<glyph unicode="&#xb6;" horiz-adv-x="1406" d="M1335 1415l-241 -1392q-3 -23 -27 -23h-143q-26 0 -23 27l211 1228h-158l-211 -1232q-3 -23 -26 -23h-146q-25 0 -22 27l110 630q-65 0 -129.5 20.5t-120 59.5t-90 105t-34.5 147q0 61 15 121.5t50.5 121t87.5 106.5t134 75t182 29h559q25 0 22 -27z" />
<glyph unicode="&#xb7;" horiz-adv-x="530" d="M293 694q85 0 124.5 -50t24.5 -136q-14 -72 -59 -112t-115 -40q-85 0 -124.5 50t-24.5 137q12 72 57 111.5t117 39.5z" />
<glyph unicode="&#xb8;" horiz-adv-x="677" d="M266 -74h15q56 0 90.5 -38t34.5 -105q0 -43 -14.5 -85t-44 -80t-82.5 -61.5t-122 -23.5q-48 0 -104 18l-31 11q-24 7 -12 32l65 127q10 23 33 13l25 -8q27 -9 57 -9t46 16t16 42q0 41 -52 41h-71q-20 0 -29 18q-7 11 2 27l88 166q9 18 29 18h96q15 0 19.5 -8.5 t-1.5 -20.5z" />
<glyph unicode="&#xba;" horiz-adv-x="972" d="M610 1452q177 0 260.5 -111.5t49.5 -302.5q-32 -188 -154.5 -299.5t-296.5 -111.5q-173 0 -257 112t-50 299q32 190 153.5 302t294.5 112zM578 1268q-83 0 -140 -61t-76 -169q-19 -105 18 -166t120 -61q85 0 142.5 60.5t76.5 166.5q19 108 -18 169t-123 61zM127 467h623 q25 0 22 -27l-22 -137q-3 -22 -27 -22h-623q-25 0 -22 26l22 137q3 23 27 23z" />
<glyph unicode="&#xbb;" horiz-adv-x="1431" d="M532 504l-194 366q-7 12 -2.5 20.5t18.5 8.5h232q18 0 30 -18l185 -346q8 -13 8 -31v-6q0 -17 -12 -29l-305 -354q-12 -15 -31 -15h-244q-17 0 -21 9.5t7 21.5zM1024 504l-195 366q-7 12 -2 20.5t19 8.5h231q19 0 31 -18l184 -346q8 -13 8 -31v-6q0 -17 -12 -29 l-305 -354q-12 -15 -31 -15h-243q-17 0 -21.5 9.5t6.5 21.5z" />
<glyph unicode="&#xc1;" horiz-adv-x="1505" d="M1030 1872h299q17 0 19.5 -9.5t-9.5 -21.5l-264 -229q-13 -13 -28 -13h-213q-15 0 -20 9.5t5 21.5l180 228q11 14 31 14zM408 233l-117 -217q-13 -16 -31 -16h-254q-14 0 -18.5 8.5t2.5 20.5l467 841q191 356 274 553q9 19 29 19h317q24 0 27 -25q14 -210 78 -547 l172 -843q3 -12 -3 -19.5t-18 -7.5h-233q-24 0 -27 23l-43 210h-622zM981 481l-37 174q-55 295 -55 435q-1 12 -8 16.5t-15.5 0t-13.5 -16.5q-70 -183 -211 -435l-96 -174h436z" />
<glyph unicode="&#xc4;" horiz-adv-x="1505" d="M797 1882q66 0 101.5 -30t35.5 -85q0 -31 -9.5 -60.5t-29.5 -57t-57.5 -44t-87.5 -16.5q-138 0 -138 113q0 33 9 63t29 57.5t58 43.5t89 16zM1225 1882q66 0 101.5 -30t35.5 -85q0 -31 -9.5 -60.5t-29.5 -57t-57.5 -44t-87.5 -16.5q-138 0 -138 113q0 33 9 63t29 57.5 t58 43.5t89 16zM408 233l-117 -217q-13 -16 -31 -16h-254q-14 0 -18.5 8.5t2.5 20.5l467 841q191 356 274 553q9 19 29 19h317q24 0 27 -25q14 -210 78 -547l172 -843q3 -12 -3 -19.5t-18 -7.5h-233q-24 0 -27 23l-43 210h-622zM981 481l-37 174q-55 295 -55 435 q-1 12 -8 16.5t-15.5 0t-13.5 -16.5q-70 -183 -211 -435l-96 -174h436z" />
<glyph unicode="&#xc9;" horiz-adv-x="1251" d="M922 1872h299q17 0 19.5 -9.5t-9.5 -21.5l-264 -229q-13 -13 -29 -13h-213q-15 0 -19.5 9.5t5.5 21.5l180 228q11 14 31 14zM494 864h532q26 0 23 -26l-35 -199q-3 -23 -27 -23h-538l-64 -368h700q26 0 23 -27l-37 -198q-3 -23 -27 -23h-958q-26 0 -23 27l242 1392 q3 23 27 23h964q13 0 18.5 -8.5t0.5 -20.5l-92 -201q-9 -18 -29 -18h-645z" />
<glyph unicode="&#xcd;" horiz-adv-x="573" d="M549 1872h299q17 0 19.5 -9.5t-9.5 -21.5l-264 -229q-13 -13 -29 -13h-213q-15 0 -19.5 9.5t5.5 21.5l180 228q11 14 31 14zM319 0h-233q-26 0 -23 27l242 1392q3 23 27 23h233q26 0 23 -27l-242 -1392q-3 -23 -27 -23z" />
<glyph unicode="&#xd3;" horiz-adv-x="1474" d="M1008 1872h299q17 0 19.5 -9.5t-9.5 -21.5l-264 -229q-13 -13 -29 -13h-213q-15 0 -19.5 9.5t5.5 21.5l180 228q11 14 31 14zM887 1462q258 0 399 -149.5t141 -415.5q0 -81 -12.5 -166.5t-41 -176t-70 -173.5t-104 -157.5t-138.5 -128.5t-178 -86t-219 -32 q-256 0 -398.5 152t-142.5 418q0 81 12.5 166t41 175.5t70 173t104 156t138.5 127.5t178.5 85.5t219.5 31.5zM877 1210q-99 0 -180.5 -44.5t-133.5 -114.5t-88.5 -158.5t-51.5 -173.5t-15 -164q0 -155 69 -239.5t199 -84.5q98 0 179.5 45.5t133.5 116t88 160t51 174 t15 162.5q0 155 -68.5 238t-197.5 83z" />
<glyph unicode="&#xd6;" horiz-adv-x="1474" d="M774 1882q66 0 101.5 -30t35.5 -85q0 -31 -9.5 -60.5t-29.5 -57t-57.5 -44t-87.5 -16.5q-137 0 -137 113q0 33 9 63t29 57.5t57.5 43.5t88.5 16zM1202 1882q66 0 101.5 -30t35.5 -85q0 -31 -9.5 -60.5t-29.5 -57t-57.5 -44t-87.5 -16.5q-137 0 -137 113q0 33 9 63 t29 57.5t57.5 43.5t88.5 16zM887 1462q258 0 399 -149.5t141 -415.5q0 -81 -12.5 -166.5t-41 -176t-70 -173.5t-104 -157.5t-138.5 -128.5t-178 -86t-219 -32q-256 0 -398.5 152t-142.5 418q0 81 12.5 166t41 175.5t70 173t104 156t138.5 127.5t178.5 85.5t219.5 31.5z M877 1210q-99 0 -180.5 -44.5t-133.5 -114.5t-88.5 -158.5t-51.5 -173.5t-15 -164q0 -155 69 -239.5t199 -84.5q98 0 179.5 45.5t133.5 116t88 160t51 174t15 162.5q0 155 -68.5 238t-197.5 83z" />
<glyph unicode="&#xda;" horiz-adv-x="1384" d="M950 1872h299q17 0 20 -9.5t-9 -21.5l-265 -229q-13 -13 -28 -13h-213q-15 0 -20 9.5t5 21.5l181 228q11 14 30 14zM1417 1415l-147 -835q-49 -288 -223 -445.5t-437 -157.5q-273 0 -396.5 164t-72.5 455l144 823q3 23 26 23h232q25 0 22 -27l-145 -835 q-28 -171 26.5 -260t184.5 -89q140 0 235.5 96.5t124.5 268.5l144 823q3 23 26 23h234q25 0 22 -27z" />
<glyph unicode="&#xdc;" horiz-adv-x="1384" d="M717 1882q66 0 101.5 -30t35.5 -85q0 -31 -9.5 -60.5t-29.5 -57t-57.5 -44t-87.5 -16.5q-138 0 -138 113q0 33 9 63t29 57.5t58 43.5t89 16zM1145 1882q66 0 101.5 -30t35.5 -85q0 -31 -9.5 -60.5t-29.5 -57t-57.5 -44t-87.5 -16.5q-137 0 -137 113q0 33 9 63t29 57.5 t57.5 43.5t88.5 16zM1417 1415l-147 -835q-49 -288 -223 -445.5t-437 -157.5q-273 0 -396.5 164t-72.5 455l144 823q3 23 26 23h232q25 0 22 -27l-145 -835q-28 -171 26.5 -260t184.5 -89q140 0 235.5 96.5t124.5 268.5l144 823q3 23 26 23h234q25 0 22 -27z" />
<glyph unicode="&#xdd;" horiz-adv-x="1409" d="M950 1872h299q17 0 20 -9.5t-9 -21.5l-265 -229q-13 -13 -28 -13h-213q-15 0 -20 9.5t5 21.5l181 228q11 14 30 14zM1499 1411l-362 -493q-161 -225 -206 -302q-87 -148 -120 -315q-4 -21 -8 -43l-39 -235q-3 -23 -27 -23h-233q-26 0 -23 27l39 231q11 65 16 117.5 t0.5 107.5t-10 93.5t-25.5 102.5t-35 106.5t-48 132.5l-195 495q-5 12 1.5 20.5t19.5 8.5h241q19 0 29 -19l127 -311q70 -182 88 -299q2 -11 8.5 -15t14.5 0t14 15q96 179 182 299l236 315q9 15 28 15h273q15 0 19 -9.5t-5 -21.5z" />
<glyph unicode="&#xdf;" horiz-adv-x="1288" d="M43 27l166 966q42 243 193 375.5t380 132.5q194 0 298 -80.5t104 -226.5q0 -175 -133 -295l-101 -94q-59 -50 -59 -84q0 -18 11.5 -32t37.5 -32l88 -59q88 -55 129 -114t41 -134q0 -55 -13.5 -106.5t-46 -100.5t-80 -85.5t-120.5 -58.5t-164 -22q-107 0 -244 43l-79 27 q-24 9 -15 33l86 184q9 22 33 12l61 -20q95 -31 166 -31q69 0 106.5 26t37.5 68q0 43 -45 72l-113 74q-147 101 -147 233q0 78 25.5 140t98.5 129l86 77q40 36 60 64t20 63q0 40 -35 62t-102 22q-112 0 -190 -76.5t-101 -205.5l-161 -950q-3 -23 -27 -23h-229q-26 0 -23 27z " />
<glyph unicode="&#xe1;" horiz-adv-x="1161" d="M799 1479h252q17 0 21 -9.5t-7 -21.5l-246 -283q-11 -14 -31 -14h-182q-15 0 -19.5 8.5t3.5 20.5l180 282q8 17 29 17zM786 25v96q-5 34 -15 35t-44 -33q-62 -72 -132 -109t-161 -37q-172 0 -267 100.5t-95 282.5q0 87 20 176t67 177.5t115 156t172.5 110t231.5 42.5 q85 0 215 -31l205 -49q21 -6 18 -29l-151 -890q-3 -23 -27 -23h-127q-25 0 -25 25zM813 745l-45 15q-49 14 -102 14q-81 0 -146 -41t-101.5 -103t-55.5 -126t-19 -119q0 -75 37.5 -117.5t103.5 -42.5q109 0 192.5 119t119.5 315z" />
<glyph unicode="&#xe4;" horiz-adv-x="1161" d="M565 1516q65 0 101 -34.5t36 -95.5q0 -72 -38 -122t-117 -50q-65 0 -101 35t-36 97q0 82 41.5 126t113.5 44zM952 1516q65 0 101.5 -34.5t36.5 -95.5q0 -72 -38.5 -122t-117.5 -50q-65 0 -101 35t-36 97q0 82 41.5 126t113.5 44zM786 25v96q-5 34 -15 35t-44 -33 q-62 -72 -132 -109t-161 -37q-172 0 -267 100.5t-95 282.5q0 87 20 176t67 177.5t115 156t172.5 110t231.5 42.5q85 0 215 -31l205 -49q21 -6 18 -29l-151 -890q-3 -23 -27 -23h-127q-25 0 -25 25zM813 745l-45 15q-49 14 -102 14q-81 0 -146 -41t-101.5 -103t-55.5 -126 t-19 -119q0 -75 37.5 -117.5t103.5 -42.5q109 0 192.5 119t119.5 315z" />
<glyph unicode="&#xe9;" horiz-adv-x="1046" d="M731 1479h252q17 0 21 -9.5t-7 -21.5l-245 -283q-11 -14 -31 -14h-182q-15 0 -20 8.5t3 20.5l180 282q8 17 29 17zM813 31l-115 -29q-97 -25 -196 -25q-208 0 -319 109.5t-111 302.5q0 60 9.5 120.5t30 123t51.5 119t77 106.5t102 86t131.5 57t161.5 21 q171 0 267.5 -77.5t96.5 -213.5q0 -63 -16 -113.5t-54 -97.5t-110.5 -79.5t-177.5 -47.5l-297 -41q5 -59 46 -93t120 -34q84 0 172 21l106 28q26 6 29 -20l17 -195q3 -21 -21 -28zM362 561l256 35q58 9 86.5 35.5t28.5 64.5q0 37 -28.5 57.5t-83.5 20.5q-187 0 -259 -213z " />
<glyph unicode="&#xed;" horiz-adv-x="604" d="M731 1448l-199 -281q-8 -16 -28 -16h-168q-15 0 -20 8.5t1 20.5l132 280q9 19 28 19h238q15 0 19.5 -8.5t-3.5 -22.5zM371 0h-230q-25 0 -22 27l127 729h-101q-25 0 -22 26l33 195q3 22 26 22h357q25 0 22 -26l-164 -950q-3 -23 -26 -23z" />
<glyph unicode="&#xf3;" horiz-adv-x="1136" d="M766 1479h252q17 0 21 -9.5t-7 -21.5l-246 -283q-11 -14 -30 -14h-183q-15 0 -19.5 8.5t3.5 20.5l180 282q9 17 29 17zM641 1022q200 0 311 -110.5t111 -303.5q0 -82 -18.5 -165.5t-61.5 -168.5t-106 -150t-162 -106t-219 -41q-201 0 -312.5 110.5t-111.5 303.5 q0 58 9.5 117.5t31 122t52.5 119t77.5 106.5t103.5 86.5t133 58t162 21.5zM631 774q-61 0 -111.5 -25.5t-82 -64.5t-53.5 -89t-31 -97t-9 -90q0 -88 41 -135.5t119 -47.5q74 0 132.5 37.5t91 95.5t49 118.5t16.5 115.5q0 88 -42 135t-120 47z" />
<glyph unicode="&#xf6;" horiz-adv-x="1136" d="M532 1516q65 0 101.5 -34.5t36.5 -95.5q0 -72 -38.5 -122t-117.5 -50q-65 0 -101 35t-36 97q0 82 41.5 126t113.5 44zM920 1516q65 0 101 -34.5t36 -95.5q0 -72 -38.5 -122t-117.5 -50q-65 0 -101 35t-36 97q0 82 42 126t114 44zM641 1022q200 0 311 -110.5t111 -303.5 q0 -82 -18.5 -165.5t-61.5 -168.5t-106 -150t-162 -106t-219 -41q-201 0 -312.5 110.5t-111.5 303.5q0 58 9.5 117.5t31 122t52.5 119t77.5 106.5t103.5 86.5t133 58t162 21.5zM631 774q-61 0 -111.5 -25.5t-82 -64.5t-53.5 -89t-31 -97t-9 -90q0 -88 41 -135.5t119 -47.5 q74 0 132.5 37.5t91 95.5t49 118.5t16.5 115.5q0 88 -42 135t-120 47z" />
<glyph unicode="&#xfa;" horiz-adv-x="1140" d="M764 1479h252q17 0 21 -9.5t-7 -21.5l-246 -283q-11 -14 -30 -14h-183q-15 0 -19.5 8.5t3.5 20.5l180 282q9 17 29 17zM758 20l-15 60q-10 21 -20.5 20.5t-36.5 -20.5q-124 -103 -274 -103q-183 0 -267 106.5t-51 289.5l105 604q3 22 26 22h230q25 0 22 -26l-102 -588 q-13 -79 13.5 -119.5t88.5 -40.5q99 0 168.5 72t91.5 197l82 483q3 22 27 22h229q26 0 23 -26l-164 -950q-3 -23 -27 -23h-123q-23 0 -26 20z" />
<glyph unicode="&#xfc;" horiz-adv-x="1140" d="M532 1516q65 0 101.5 -34.5t36.5 -95.5q0 -72 -38.5 -122t-117.5 -50q-65 0 -101 35t-36 97q0 82 41.5 126t113.5 44zM920 1516q65 0 101 -34.5t36 -95.5q0 -72 -38.5 -122t-117.5 -50q-65 0 -101 35t-36 97q0 82 42 126t114 44zM758 20l-15 60q-10 21 -20.5 20.5 t-36.5 -20.5q-124 -103 -274 -103q-183 0 -267 106.5t-51 289.5l105 604q3 22 26 22h230q25 0 22 -26l-102 -588q-13 -79 13.5 -119.5t88.5 -40.5q99 0 168.5 72t91.5 197l82 483q3 22 27 22h229q26 0 23 -26l-164 -950q-3 -23 -27 -23h-123q-23 0 -26 20z" />
<glyph unicode="&#xfd;" horiz-adv-x="1153" d="M762 1479h252q17 0 21 -9.5t-7 -21.5l-246 -283q-11 -14 -30 -14h-183q-15 0 -19.5 8.5t3.5 20.5l180 282q9 17 29 17zM358 -444h-237q-14 0 -19 8t2 20l129 232q62 120 67.5 264t-42.5 375l-117 518q-3 12 3 19t20 7h233q24 0 27 -22l70 -305q34 -169 30 -328 q0 -26 14 -25.5t23 25.5q57 159 146 326l176 313q13 16 30 16h244q14 0 19 -8t-2 -20l-785 -1399q-13 -16 -31 -16z" />
<glyph unicode="&#x10c;" horiz-adv-x="1284" d="M1026 1593h-276q-20 0 -29 17l-160 225q-8 13 -3 22t20 9h198q18 0 31 -13l104 -104l148 106q14 11 31 11h192q17 0 20.5 -9.5t-8.5 -21.5l-237 -229q-13 -13 -31 -13zM1075 51l-106 -33q-136 -41 -305 -41q-255 0 -398 152.5t-143 419.5q0 82 13 168t42 176t71.5 172 t106.5 155t141.5 126.5t182 84.5t223.5 31q147 0 299 -55l82 -29q24 -7 12 -32l-96 -183q-9 -22 -33 -12l-86 29q-77 30 -198 30q-99 0 -181.5 -44t-135.5 -113t-90 -157t-52.5 -172t-15.5 -161q0 -332 286 -332q102 0 232 39l98 29q26 10 29 -16l41 -203q3 -23 -19 -29z " />
<glyph unicode="&#x10d;" horiz-adv-x="976" d="M745 1151h-202q-19 0 -31 18l-147 281q-6 12 -0.5 20.5t18.5 8.5h168q21 0 29 -17l92 -133l141 137q13 13 31 13h164q15 0 18.5 -9.5t-6.5 -21.5l-244 -283q-11 -14 -31 -14zM786 29l-98 -27q-89 -25 -182 -25q-211 0 -322.5 109t-111.5 303q0 71 13.5 141.5t40.5 143 t74.5 134.5t110 110.5t151.5 76t195 27.5q69 0 172 -29l105 -30q26 -10 14 -33l-88 -180q-9 -22 -33 -15l-67 21q-58 18 -111 18q-69 0 -123.5 -26t-87.5 -66t-55 -91.5t-30.5 -97.5t-8.5 -90q0 -178 174 -178q64 0 152 23l84 22q11 3 19 -2.5t9 -17.5l25 -193 q3 -21 -21 -28z" />
<glyph unicode="&#x10e;" horiz-adv-x="1406" d="M1008 1597h-277q-21 0 -29 17l-159 225q-8 13 -3.5 22t19.5 9h199q18 0 30 -12l105 -105l147 107q12 10 31 10h193q17 0 20.5 -9.5t-8.5 -21.5l-238 -229q-13 -13 -30 -13zM332 1442h489q256 0 397.5 -147t141.5 -406q0 -82 -13 -166.5t-42.5 -172t-72 -167t-106 -150 t-140 -122t-178.5 -81.5t-218 -30h-504q-26 0 -23 27l242 1392q3 23 27 23zM385 248h229q97 0 177.5 43t131.5 110t86.5 152t50.5 166.5t15 157.5q0 154 -72 235.5t-208 81.5h-246z" />
<glyph unicode="&#x10f;" horiz-adv-x="1183" d="M1210 1452l-245 -1429q-3 -23 -27 -23h-121q-23 0 -26 23l-13 55q-8 23 -17.5 23.5t-39.5 -21.5q-123 -103 -272 -103q-180 0 -278.5 107.5t-98.5 296.5q0 84 18 169t60 171t103.5 151.5t158 107t213.5 42.5q107 0 172 -33l51 -24l86 491q3 23 27 23h227q25 0 22 -27z M1358 1479h158q12 0 17.5 -7.5t2.5 -19.5l-12 -68q-10 -87 -78 -186l-21 -31q-8 -16 -28 -16h-127q-14 0 -19.5 8.5t0.5 20.5l17 41q32 57 49 153l14 82q3 23 27 23zM811 729l-45 21q-52 24 -131 24q-62 0 -113 -25.5t-83.5 -64.5t-54.5 -89.5t-31 -97.5t-9 -91 q0 -87 41.5 -134t120.5 -47q102 0 171 67.5t89 184.5z" />
<glyph unicode="&#x11a;" horiz-adv-x="1251" d="M991 1597h-276q-21 0 -29 17l-160 225q-8 13 -3 22t20 9h198q19 0 31 -12l105 -105l147 107q12 10 31 10h192q17 0 21 -9.5t-8 -21.5l-238 -229q-13 -13 -31 -13zM549 1194l-55 -330h532q26 0 23 -26l-35 -199q-3 -23 -27 -23h-538l-64 -368h700q26 0 23 -27l-37 -198 q-3 -23 -27 -23h-958q-26 0 -23 27l242 1392q3 23 27 23h964q13 0 18.5 -8.5t0.5 -20.5l-92 -201q-9 -18 -29 -18h-645z" />
<glyph unicode="&#x11b;" horiz-adv-x="1046" d="M745 1151h-202q-19 0 -31 18l-147 281q-6 12 -0.5 20.5t18.5 8.5h168q21 0 29 -17l92 -133l141 137q13 13 31 13h164q15 0 18.5 -9.5t-6.5 -21.5l-244 -283q-11 -14 -31 -14zM813 31l-115 -29q-97 -25 -196 -25q-208 0 -319 109.5t-111 302.5q0 60 9.5 120.5t30 123 t51.5 119t77 106.5t102 86t131.5 57t161.5 21q171 0 267.5 -77.5t96.5 -213.5q0 -63 -16 -113.5t-54 -97.5t-110.5 -79.5t-177.5 -47.5l-297 -41q5 -59 46 -93t120 -34q84 0 172 21l106 28q26 6 29 -20l17 -195q3 -21 -21 -28zM362 561l256 35q58 9 86.5 35.5t28.5 64.5 q0 37 -28.5 57.5t-83.5 20.5q-187 0 -259 -213z" />
<glyph unicode="&#x13f;" horiz-adv-x="1171" d="M387 252h619q25 0 22 -27l-35 -202q-3 -23 -26 -23h-881q-26 0 -23 27l242 1392q3 23 27 23h233q26 0 23 -27zM1012 977q85 0 124.5 -50t24.5 -136q-14 -72 -59 -112t-115 -40q-85 0 -124.5 50t-24.5 136q12 72 57 112t117 40z" />
<glyph unicode="&#x140;" horiz-adv-x="815" d="M567 1452l-202 -1182q-9 -45 24 -45h14q26 3 31 -18l41 -178q3 -23 -16 -31q-52 -21 -113 -21q-146 0 -215.5 77.5t-44.5 215.5l205 1186q3 23 26 23h228q25 0 22 -27zM803 977q85 0 124.5 -50t24.5 -136q-14 -72 -59 -112t-115 -40q-85 0 -124.5 50t-24.5 136 q12 72 57 112t117 40z" />
<glyph unicode="&#x147;" horiz-adv-x="1484" d="M1061 1597h-277q-20 0 -28 17l-160 225q-8 13 -3.5 22t19.5 9h199q19 0 31 -12l104 -105l148 107q12 10 30 10h193q17 0 20.5 -9.5t-8.5 -21.5l-237 -229q-13 -13 -31 -13zM1241 1442h236q25 0 22 -27l-242 -1392q-3 -23 -26 -23h-289q-23 0 -29 20q-29 104 -69 211 l-258 646q-20 54 -54 157q-8 20 -21 15.5t-15 -23.5q-2 -129 -33 -330l-117 -673q-3 -23 -27 -23h-233q-26 0 -23 27l242 1392q3 23 27 23h289q22 0 28 -21q18 -59 70 -211l254 -632l59 -170q6 -21 19.5 -17t11.5 25q3 143 35 325l116 678q3 23 27 23z" />
<glyph unicode="&#x148;" horiz-adv-x="1140" d="M801 1151h-203q-19 0 -31 18l-147 281q-6 12 -0.5 20.5t18.5 8.5h168q20 0 29 -17l92 -133l141 137q13 13 31 13h164q15 0 18.5 -9.5t-6.5 -21.5l-244 -283q-11 -14 -30 -14zM383 979l14 -59q10 -21 21 -20.5t37 20.5q123 102 274 102q183 0 267 -106t51 -289l-105 -604 q-3 -23 -27 -23h-229q-25 0 -22 27l102 587q13 79 -13.5 119.5t-88.5 40.5q-100 0 -169.5 -71.5t-91.5 -196.5l-81 -483q-3 -23 -27 -23h-229q-26 0 -23 27l164 950q3 22 26 22h123q24 0 27 -20z" />
<glyph unicode="&#x158;" horiz-adv-x="1388" d="M997 1597h-276q-21 0 -29 17l-160 225q-8 13 -3 22t20 9h199q18 0 30 -12l105 -105l147 107q12 10 31 10h192q17 0 21 -9.5t-8 -21.5l-238 -229q-13 -13 -31 -13zM332 1442h565q202 0 311 -104.5t109 -276.5q0 -296 -318 -416q-46 -17 -12 -37q105 -69 148 -233l88 -348 q3 -12 -3.5 -19.5t-19.5 -7.5h-233q-23 0 -29 20l-59 240q-23 95 -58.5 152t-105 90t-178.5 33h-103l-88 -512q-3 -23 -27 -23h-233q-26 0 -23 27l242 1392q3 23 27 23zM479 784h213q155 0 247.5 67t92.5 173q0 79 -48.5 124.5t-131.5 45.5h-303z" />
<glyph unicode="&#x159;" horiz-adv-x="829" d="M649 1151h-203q-18 0 -30 18l-148 281q-6 12 -0.5 20.5t19.5 8.5h168q19 0 28 -17l92 -133l142 137q13 13 31 13h163q15 0 19 -9.5t-6 -21.5l-244 -283q-11 -14 -31 -14zM385 979l27 -98q6 -18 15 -20.5t28 13.5q78 76 156 110.5t186 37.5q25 0 22 -27l-35 -198 q-3 -23 -26 -23q-170 -6 -261 -128t-143 -417l-32 -206q-3 -23 -27 -23h-229q-26 0 -23 27l164 950q3 22 26 22h123q23 0 29 -20z" />
<glyph unicode="&#x160;" horiz-adv-x="1253" d="M944 1593h-276q-20 0 -29 17l-160 225q-8 13 -3 22t20 9h198q18 0 31 -13l104 -104l148 106q14 11 31 11h192q17 0 20.5 -9.5t-8.5 -21.5l-237 -229q-13 -13 -31 -13zM643 881l188 -74q165 -66 240.5 -143t75.5 -199q0 -72 -17 -137.5t-60.5 -131t-109 -113t-171 -77 t-238.5 -29.5q-169 0 -385 76l-117 41q-26 7 -12 31l94 186q10 23 33 13l106 -39q154 -54 303 -54q129 0 209 48.5t80 136.5q0 53 -38 92.5t-119 71.5l-199 77q-163 65 -231 137.5t-68 192.5q0 69 17.5 133.5t60 128t106 110t164 75t225.5 28.5q153 0 324 -59l119 -41 q25 -7 12 -33l-100 -184q-10 -23 -31 -12l-109 36q-118 41 -237 41q-123 0 -194.5 -50t-71.5 -136q0 -43 34.5 -76.5t116.5 -66.5z" />
<glyph unicode="&#x161;" horiz-adv-x="1003" d="M700 1151h-202q-19 0 -31 18l-148 281q-6 12 -0.5 20.5t19.5 8.5h168q20 0 29 -17l92 -133l141 137q13 13 31 13h164q15 0 18.5 -9.5t-6.5 -21.5l-244 -283q-11 -14 -31 -14zM825 727l-86 25q-81 22 -182 22q-70 0 -110.5 -22t-40.5 -58q0 -39 59 -53l182 -49 q236 -62 236 -252q0 -52 -13 -100.5t-45 -97t-80 -84.5t-126 -58.5t-175 -22.5q-159 0 -313 43l-94 27q-26 7 -14 31l86 184q9 21 32 14l70 -20q108 -31 244 -31q75 0 115 25.5t40 64.5q0 44 -63 60l-182 47q-117 31 -173.5 89.5t-56.5 150.5q0 72 24.5 134.5t74 114 t134.5 81.5t197 30q127 0 266 -39l97 -25q26 -6 14 -30l-84 -187q-9 -21 -33 -14z" />
<glyph unicode="&#x164;" horiz-adv-x="1323" d="M995 1597h-276q-21 0 -29 17l-160 225q-8 13 -3 22t20 9h198q19 0 31 -12l105 -105l147 107q12 10 31 10h192q17 0 21 -9.5t-8 -21.5l-238 -229q-13 -13 -31 -13zM262 1442h1122q26 0 23 -27l-35 -198q-3 -23 -26 -23h-420l-203 -1171q-3 -23 -27 -23h-233q-26 0 -23 27 l201 1167h-418q-25 0 -22 27l35 198q3 23 26 23z" />
<glyph unicode="&#x165;" horiz-adv-x="821" d="M791 1479h157q12 0 18 -7.5t3 -19.5l-13 -68q-10 -88 -77 -186l-21 -31q-8 -16 -29 -16h-127q-13 0 -18.5 8.5t0.5 20.5l16 41q33 60 50 153l14 82q3 23 27 23zM565 999h230q25 0 22 -26l-35 -195q-3 -22 -26 -22h-232l-75 -437q-15 -94 49 -94q31 0 55 8q24 9 33 -14 l51 -170q6 -22 -12 -31q-80 -41 -168 -41q-163 0 -238.5 91t-46.5 254l74 434h-101q-25 0 -22 26l33 195q3 22 26 22h105l39 230q3 20 22 26l246 76q13 4 20 -2t4 -20z" />
<glyph unicode="&#x16e;" horiz-adv-x="1384" d="M932 1907q85 0 132.5 -39.5t47.5 -108.5q0 -94 -65.5 -148.5t-178.5 -54.5q-85 0 -132.5 38.5t-47.5 107.5q0 94 66 149.5t178 55.5zM911 1802q-41 0 -65.5 -23.5t-24.5 -62.5q0 -26 18 -41.5t50 -15.5q40 0 65 22.5t25 61.5q0 28 -18 43.5t-50 15.5zM1417 1415 l-147 -835q-49 -288 -223 -445.5t-437 -157.5q-273 0 -396.5 164t-72.5 455l144 823q3 23 26 23h232q25 0 22 -27l-145 -835q-28 -171 26.5 -260t184.5 -89q140 0 235.5 96.5t124.5 268.5l144 823q3 23 26 23h234q25 0 22 -27z" />
<glyph unicode="&#x16f;" horiz-adv-x="1140" d="M735 1497q83 0 128.5 -39t45.5 -108q0 -36 -12 -71.5t-37.5 -68.5t-72 -54t-107.5 -21q-85 0 -130.5 37.5t-45.5 105.5q0 41 12.5 78.5t38.5 70t72.5 51.5t107.5 19zM723 1386q-38 0 -62 -24.5t-26 -63.5q-2 -25 13 -40t44 -15q38 0 62 25.5t24 66.5q0 51 -55 51zM758 20 l-15 60q-10 21 -20.5 20.5t-36.5 -20.5q-124 -103 -274 -103q-183 0 -267 106.5t-51 289.5l105 604q3 22 26 22h230q25 0 22 -26l-102 -588q-13 -79 13.5 -119.5t88.5 -40.5q99 0 168.5 72t91.5 197l82 483q3 22 27 22h229q26 0 23 -26l-164 -950q-3 -23 -27 -23h-123 q-23 0 -26 20z" />
<glyph unicode="&#x17d;" horiz-adv-x="1308" d="M981 1597h-276q-21 0 -29 17l-160 225q-8 13 -3.5 22t19.5 9h199q19 0 31 -12l104 -105l148 107q12 10 30 10h193q17 0 20.5 -9.5t-8.5 -21.5l-237 -229q-13 -13 -31 -13zM1112 1073l-432 -592q-5 -7 -64.5 -86t-87.5 -114q-12 -15 -8.5 -25t21.5 -10q57 2 168 2h403 q13 0 18 -8.5t0 -20.5l-92 -201q-9 -18 -28 -18h-944q-20 0 -29 18l-2 7q-8 16 4 34q27 31 52.5 62.5t41.5 52t41 54t34 45.5t37.5 52t35.5 50l426 581q100 142 157 201q14 15 10.5 26t-22.5 11h-571q-26 0 -23 27l35 198q3 23 26 23h1008q19 0 29 -19l2 -6q8 -17 -4 -35 q-149 -179 -242 -309z" />
<glyph unicode="&#x17e;" horiz-adv-x="1019" d="M733 1151h-203q-18 0 -30 18l-148 281q-6 12 -0.5 20.5t19.5 8.5h168q19 0 28 -17l92 -133l142 137q13 13 30 13h164q15 0 19 -9.5t-6 -21.5l-244 -283q-11 -14 -31 -14zM881 784l-285 -393q-57 -76 -111 -127q-9 -9 -7 -15.5t14 -6.5q22 0 62 1t58 1h246q14 0 18.5 -8.5 t-2.5 -20.5l-104 -197q-12 -18 -31 -18h-692q-20 0 -29 20q-3 12 9 27q69 84 137 178l278 381q45 67 111 129q23 23 -6 23q-37 -2 -119 -2h-238q-25 0 -22 26l33 195q3 22 26 22h760q20 0 29 -18q6 -14 -6 -29q-49 -58 -129 -168z" />
<glyph unicode="&#x2c6;" horiz-adv-x="892" d="M870 1151h-168q-20 0 -28 16l-92 133l-142 -137q-12 -12 -30 -12h-164q-15 0 -19 9.5t6 21.5l244 282q12 15 31 15h203q17 0 30 -19l148 -280q6 -12 0.5 -20.5t-19.5 -8.5z" />
<glyph unicode="&#x2da;" horiz-adv-x="571" d="M455 1497q83 0 128.5 -39t45.5 -108q0 -36 -12.5 -71.5t-37.5 -68.5t-72 -54t-108 -21q-85 0 -130.5 37.5t-45.5 105.5q0 41 13 78.5t39 69.5t72.5 51.5t107.5 19.5zM442 1386q-38 0 -62 -24.5t-26 -63.5q-2 -25 13.5 -40t44.5 -15q38 0 62 25.5t24 66.5q0 51 -56 51z " />
<glyph unicode="&#x2dc;" horiz-adv-x="894" d="M221 1223l66 100q77 119 215 119q51 0 102 -35l60 -41q19 -16 38 -16q21 0 46 34l26 35q9 15 29 15h139q14 0 18.5 -9t-4.5 -22l-65 -100q-76 -117 -211 -117q-51 0 -102 33l-58 36q-4 2 -11 7t-11 7.5t-9.5 4.5t-11.5 2q-23 0 -47 -33l-27 -37q-8 -14 -28 -14h-139 q-14 0 -19 9t4 22z" />
<glyph unicode="&#x401;" horiz-adv-x="1251" d="M686 1882q66 0 101.5 -30t35.5 -85q0 -31 -9.5 -60.5t-29.5 -57t-57.5 -44t-87.5 -16.5q-137 0 -137 113q0 33 9 63t29 57.5t57.5 43.5t88.5 16zM1114 1882q66 0 101.5 -30t35.5 -85q0 -31 -9.5 -60.5t-29.5 -57t-57.5 -44t-87.5 -16.5q-137 0 -137 113q0 33 9 63 t29 57.5t57.5 43.5t88.5 16zM494 864h532q26 0 23 -26l-35 -199q-3 -23 -27 -23h-538l-64 -368h700q26 0 23 -27l-37 -198q-3 -23 -27 -23h-958q-26 0 -23 27l242 1392q3 23 27 23h964q13 0 18.5 -8.5t0.5 -20.5l-92 -201q-9 -18 -29 -18h-645z" />
<glyph unicode="&#x409;" horiz-adv-x="2127" d="M1331 883h207q237 0 364.5 -103t127.5 -301q0 -73 -17.5 -139.5t-60 -129.5t-106 -109t-162.5 -73.5t-222 -27.5h-540q-26 0 -23 27l199 1157h-424l-121 -701q-33 -194 -131 -307.5t-279 -175.5l-92 -33q-11 -3 -19 2t-9 17l-37 202q-3 22 18 31l80 27q74 25 123.5 92 t66.5 166l156 915q3 23 27 23h942q25 0 22 -27zM1286 635l-65 -387h270q117 0 184.5 58.5t67.5 152.5q0 176 -236 176h-221z" />
<glyph unicode="&#x40a;" horiz-adv-x="2084" d="M1290 881h207q235 0 363.5 -101t128.5 -291q0 -73 -17.5 -140.5t-60 -132t-105.5 -112t-161.5 -76t-221.5 -28.5h-540q-26 0 -23 27l105 606h-514l-105 -610q-3 -23 -27 -23h-233q-26 0 -23 27l242 1392q3 23 27 23h233q26 0 23 -27l-92 -534h512l92 538q3 23 26 23h236 q25 0 22 -27zM1247 633l-63 -385h268q115 0 182.5 62.5t67.5 156.5q0 80 -60.5 123t-175.5 43h-219z" />
<glyph unicode="&#x411;" horiz-adv-x="1353" d="M1321 1413l-92 -201q-9 -18 -29 -18h-651l-51 -307h282q227 0 351 -99.5t124 -285.5q0 -72 -17 -140t-58.5 -134.5t-104 -116.5t-162 -80.5t-223.5 -30.5h-604q-26 0 -23 27l242 1392q3 23 27 23h971q13 0 18 -8.5t0 -20.5zM453 639l-68 -391h330q118 0 187 65.5 t69 165.5q0 77 -55.5 118.5t-163.5 41.5h-299z" />
<glyph unicode="&#x412;" horiz-adv-x="1347" d="M332 1442h557q201 0 309.5 -84.5t108.5 -235.5q0 -75 -22.5 -138t-59 -105t-73.5 -68t-75 -41q-50 -22 -8 -41q70 -24 123 -92t53 -178q0 -211 -154 -335t-415 -124h-590q-26 0 -23 27l242 1392q3 23 27 23zM492 864h256q128 0 199 53.5t71 145.5q0 61 -42 96t-116 35 h-311zM385 248h334q111 0 175 56.5t64 154.5q0 75 -57.5 116t-163.5 41h-288z" />
<glyph unicode="&#x413;" horiz-adv-x="1198" d="M1266 1413l-92 -201q-9 -18 -29 -18h-596l-203 -1171q-3 -23 -27 -23h-233q-26 0 -23 27l242 1392q3 23 27 23h915q13 0 18.5 -8.5t0.5 -20.5z" />
<glyph unicode="&#x414;" horiz-adv-x="1622" d="M1327 248h143q26 0 23 -27l-102 -586q-3 -22 -27 -22h-215q-26 0 -23 27l64 360h-944l-64 -365q-3 -22 -26 -22h-215q-26 0 -23 27l102 585q3 23 27 23h113l141 201q65 98 100 288l117 682q3 23 27 23h960q26 0 23 -27zM762 1194l-80 -457q-40 -236 -156 -403l-59 -86 h580l161 946h-446z" />
<glyph unicode="&#x415;" horiz-adv-x="1251" d="M494 864h532q26 0 23 -26l-35 -199q-3 -23 -27 -23h-538l-64 -368h700q26 0 23 -27l-37 -198q-3 -23 -27 -23h-958q-26 0 -23 27l242 1392q3 23 27 23h964q13 0 18.5 -8.5t0.5 -20.5l-92 -201q-9 -18 -29 -18h-645z" />
<glyph unicode="&#x416;" horiz-adv-x="1984" d="M2034 1411l-297 -453q-103 -151 -240 -204q-7 -2 -12 -13q0 -5 3 -8.5t9 -7t8 -4.5q105 -61 156 -219l154 -473q6 -29 -21 -29h-235q-21 0 -27 20l-102 320q-16 46 -28.5 77.5t-34.5 72.5t-45.5 66t-57 42.5t-72.5 17.5h-37l-102 -593q-3 -23 -27 -23h-233q-26 0 -23 27 l102 589h-43q-21 0 -41 -4.5t-40 -16.5t-35 -22t-35.5 -32t-31.5 -33.5t-32 -41t-28.5 -40.5t-30 -44.5t-27.5 -41.5l-215 -324q-8 -16 -28 -16h-260q-14 0 -19 9t4 22l314 471q113 166 251 227q7 4 9 13t-4 12q-61 28 -100 75t-66 129l-146 455q-6 29 21 29h233 q21 0 27 -21l100 -299q18 -51 35 -88.5t45 -80.5t65.5 -66t82.5 -23h38l97 555q3 23 26 23h234q25 0 22 -27l-94 -551h37q35 0 71 17.5t63 40t60.5 63t52.5 67t48 70.5l199 303q9 17 28 17h258q14 0 19 -9t-2 -22z" />
<glyph unicode="&#x417;" horiz-adv-x="1302" d="M295 1372l123 39q168 51 356 51q221 0 344 -91.5t123 -252.5q0 -48 -11.5 -95t-37 -97t-74 -93.5t-114.5 -72.5q-22 -10 -24.5 -21.5t13.5 -17.5q96 -35 140.5 -100.5t44.5 -167.5q0 -65 -21.5 -129.5t-70 -127.5t-119.5 -111t-179 -78t-239 -30q-166 0 -346 58l-140 45 q-26 10 -14 33l98 184q9 21 33 14l121 -41q110 -39 250 -39q162 0 258 70.5t96 177.5q0 137 -246 137h-188q-25 0 -22 27l36 199q3 22 27 22h174q114 0 193 57t79 144q0 65 -51.5 105t-156.5 40q-131 0 -279 -43l-125 -37q-26 -10 -29 17l-41 196q-3 23 19 29z" />
<glyph unicode="&#x418;" horiz-adv-x="1488" d="M1235 0h-236q-25 0 -22 27l117 673q39 221 75 326q8 23 -5 25q-11 2 -23 -17q-41 -69 -92 -141l-467 -662q-14 -21 -43.5 -65t-53.5 -81t-43 -69q-11 -16 -28 -16h-328q-26 0 -23 27l242 1392q3 23 27 23h233q26 0 23 -27l-115 -672q-34 -189 -78 -327q-4 -12 0 -19.5 t13.5 -5t17.5 16.5q66 101 74 112l483 688q69 100 139 217q11 17 29 17h328q25 0 22 -27l-239 -1392q-3 -23 -27 -23z" />
<glyph unicode="&#x41b;" horiz-adv-x="1466" d="M1481 1415l-242 -1392q-3 -23 -27 -23h-231q-26 0 -23 27l203 1167h-448l-84 -481q-47 -277 -164.5 -450t-321.5 -267l-82 -37q-24 -12 -30 14l-54 193q-7 24 15 33l74 32q112 54 181 175.5t103 322.5l121 690q3 23 27 23h960q26 0 23 -27z" />
<glyph unicode="&#x41d;" horiz-adv-x="1452" d="M1198 0h-233q-26 0 -23 27l102 589h-595l-103 -593q-3 -23 -27 -23h-233q-26 0 -23 27l242 1392q3 23 27 23h233q26 0 23 -27l-94 -551h593l95 555q3 23 26 23h236q25 0 22 -27l-241 -1392q-3 -23 -27 -23z" />
<glyph unicode="&#x41f;" horiz-adv-x="1413" d="M1427 1415l-241 -1392q-3 -23 -27 -23h-233q-26 0 -23 27l201 1167h-557l-201 -1171q-3 -23 -27 -23h-233q-26 0 -23 27l242 1392q3 23 27 23h1073q25 0 22 -27z" />
<glyph unicode="&#x420;" horiz-adv-x="1316" d="M332 1442h530q212 0 328 -113t110 -313q-7 -253 -185.5 -393t-491.5 -140h-199l-78 -460q-3 -23 -27 -23h-233q-26 0 -23 27l242 1392q3 23 27 23zM469 731h182q167 0 263 69.5t102 196.5q5 93 -43 145t-139 52h-285z" />
<glyph unicode="&#x421;" horiz-adv-x="1284" d="M1075 51l-106 -33q-136 -41 -305 -41q-255 0 -398 152.5t-143 419.5q0 82 13 168t42 176t71.5 172t106.5 155t141.5 126.5t182 84.5t223.5 31q147 0 299 -55l82 -29q24 -7 12 -32l-96 -183q-9 -22 -33 -12l-86 29q-77 30 -198 30q-99 0 -181.5 -44t-135.5 -113t-90 -157 t-52.5 -172t-15.5 -161q0 -332 286 -332q102 0 232 39l98 29q26 10 29 -16l41 -203q3 -23 -19 -29z" />
<glyph unicode="&#x423;" horiz-adv-x="1425" d="M1526 1411l-680 -1042q-121 -184 -261.5 -276.5t-318.5 -92.5h-84q-25 0 -22 27l33 198q3 23 26 23h90q79 0 134 49.5t69 128.5q9 36 1 98t-40 152l-258 737q-4 13 1.5 21t19.5 8h237q21 0 27 -21l155 -438q60 -168 72 -285q2 -18 14 -18t23 18q81 163 162 287l286 440 q8 17 29 17h268q14 0 19 -9t-2 -22z" />
<glyph unicode="&#x424;" horiz-adv-x="1804" d="M1178 1278h112q225 0 349 -114.5t124 -319.5q0 -91 -20 -180t-68.5 -177.5t-120 -155t-183.5 -108t-251 -41.5h-131l-26 -159q-3 -23 -27 -23h-236q-25 0 -22 27l29 155h-115q-224 0 -347.5 114.5t-123.5 319.5q0 91 19.5 179.5t67.5 177t119.5 155.5t184 108.5 t252.5 41.5h131l25 141q3 23 26 23h234q25 0 22 -27zM852 1028h-113q-68 0 -125.5 -26t-95 -67t-63.5 -93.5t-37.5 -104t-11.5 -100.5q0 -100 54 -153.5t158 -53.5h132zM1135 1028l-103 -598h113q69 0 126.5 26t95 67.5t63.5 94.5t37.5 104t11.5 99q0 101 -54.5 154 t-158.5 53h-131z" />
<glyph unicode="&#x426;" horiz-adv-x="1511" d="M1225 248h137q25 0 22 -27l-104 -586q-3 -22 -27 -22h-217q-25 0 -22 27l63 360h-991q-26 0 -23 27l242 1392q3 23 27 23h233q26 0 23 -27l-201 -1167h557l201 1171q3 23 26 23h234q25 0 22 -27z" />
<glyph unicode="&#x427;" horiz-adv-x="1357" d="M1370 1415l-246 -1392q-3 -23 -26 -23h-234q-25 0 -22 27l94 530l-82 -27q-133 -43 -256 -43q-229 0 -337 131.5t-68 358.5l79 442q3 23 27 23h233q26 0 23 -27l-76 -422q-23 -129 15 -190.5t141 -61.5q101 0 196 31l150 49l106 598q3 23 27 23h234q25 0 22 -27z" />
<glyph unicode="&#x428;" horiz-adv-x="1937" d="M1952 1415l-242 -1392q-3 -23 -27 -23h-1597q-26 0 -23 27l242 1392q3 23 27 23h233q26 0 23 -27l-203 -1167h399l201 1171q3 23 27 23h235q26 0 23 -27l-203 -1167h399l201 1171q3 23 27 23h235q26 0 23 -27z" />
<glyph unicode="&#x429;" horiz-adv-x="2033" d="M1749 248h135q26 0 23 -27l-105 -586q-3 -22 -26 -22h-217q-26 0 -23 27l63 360h-1513q-26 0 -23 27l242 1392q3 23 27 23h233q26 0 23 -27l-203 -1167h399l201 1171q3 23 27 23h235q26 0 23 -27l-203 -1167h399l201 1171q3 23 27 23h235q26 0 23 -27z" />
<glyph unicode="&#x42b;" horiz-adv-x="1816" d="M63 27l242 1392q3 23 27 23h233q26 0 23 -27l-78 -454h182q254 0 390.5 -110t136.5 -319q0 -77 -17.5 -149.5t-61 -143t-108 -123t-167.5 -84.5t-232 -32h-547q-26 0 -23 27zM1563 0h-234q-25 0 -22 27l241 1392q3 23 27 23h233q26 0 23 -27l-242 -1392q-3 -23 -26 -23z M385 248h274q59 0 107 17.5t78.5 45.5t51.5 63.5t29.5 70t8.5 67.5q0 99 -69 150t-201 51h-199z" />
<glyph unicode="&#x42c;" horiz-adv-x="1310" d="M633 0h-547q-26 0 -23 27l242 1392q3 23 27 23h233q26 0 23 -27l-78 -454h182q254 0 390.5 -110t136.5 -319q0 -77 -17.5 -149.5t-61 -143t-108 -123t-167.5 -84.5t-232 -32zM385 248h274q59 0 107 17.5t78.5 45.5t51.5 63.5t29.5 70t8.5 67.5q0 99 -69 150t-201 51h-199 z" />
<glyph unicode="&#x42d;" horiz-adv-x="1284" d="M285 1391l106 32q136 41 305 41q255 0 398 -152t143 -419q0 -82 -13 -168t-42 -176t-71.5 -172t-106.5 -155t-141.5 -126.5t-182 -84.5t-223.5 -31q-147 0 -299 55l-82 28q-11 3 -15 12t2 21l97 183q9 22 33 12l86 -29q80 -31 198 -31q85 0 157.5 31.5t125 87.5t89.5 122 t62 144h-542q-26 0 -23 27l39 199q3 22 27 22h540v15q0 331 -286 331q-102 0 -232 -39l-98 -28q-26 -10 -29 16l-41 203q-3 23 19 29z" />
<glyph unicode="&#x42e;" horiz-adv-x="2043" d="M492 864h245q28 95 68.5 179t103.5 162t140 134t182 89.5t225 33.5q258 0 399.5 -149.5t141.5 -415.5q0 -81 -12.5 -166.5t-41 -176t-70 -173.5t-104.5 -157.5t-139 -128.5t-178 -86t-219 -32q-256 0 -398.5 152t-142.5 418q0 44 2 69h-245l-103 -593q-3 -23 -27 -23 h-233q-26 0 -23 27l242 1392q3 23 27 23h233q26 0 23 -27zM1245 231q98 0 179.5 45.5t133.5 116t88 160t51 174t15 162.5q0 155 -68.5 238t-197.5 83q-99 0 -180.5 -44.5t-133.5 -114.5t-88.5 -158.5t-51.5 -173.5t-15 -164q0 -155 69 -239.5t199 -84.5z" />
<glyph unicode="&#x42f;" horiz-adv-x="1388" d="M1401 1415l-240 -1392q-3 -23 -26 -23h-234q-25 0 -22 27l86 499h-95q-81 0 -144 -17.5t-113 -55t-87.5 -84t-79.5 -117.5l-139 -236q-11 -16 -28 -16h-259q-15 0 -19.5 8.5t1.5 20.5l209 356q87 151 213 225q53 29 4 49q-186 75 -186 295q0 66 17.5 130.5t59.5 130.5 t105 115.5t162.5 80.5t222.5 31h569q26 0 23 -27zM1077 1184h-297q-63 0 -114.5 -22.5t-81.5 -58t-46 -74.5t-16 -77q0 -76 61.5 -122t176.5 -46h252z" />
<glyph unicode="&#x431;" horiz-adv-x="1167" d="M1055 1475l24 -197q3 -22 -20 -29l-338 -98q-219 -65 -287 -252q-10 -25 7 -24q10 1 28 12q120 74 242 74q175 0 275.5 -103t100.5 -283q0 -81 -19.5 -162.5t-63.5 -160t-108 -138.5t-160 -97t-212 -37q-78 0 -142.5 15t-110.5 42t-80.5 64.5t-54 81t-29.5 93t-10 99.5 t9 102l56 322q43 242 167.5 388t348.5 210l348 98q11 3 19.5 -2.5t9.5 -17.5zM653 715q-54 0 -99.5 -18.5t-77.5 -49t-55 -70.5t-35 -82t-15 -85q-5 -83 36 -134t128 -51q73 0 129.5 31.5t88 82t47 104t15.5 106.5q0 80 -42 123t-120 43z" />
<glyph unicode="&#x432;" horiz-adv-x="1048" d="M49 133l88 524q31 176 156 270.5t321 94.5q172 0 263.5 -69t91.5 -193q0 -83 -46.5 -145.5t-115.5 -90.5q-17 -7 -17.5 -15.5t13.5 -14.5q129 -47 129 -183q0 -59 -24 -115t-74 -106.5t-143.5 -81.5t-217.5 -31q-135 0 -250 54l-157 73q-20 9 -17 29zM406 596h167 q68 0 104 30t36 74q0 40 -29 63t-82 23q-162 0 -188 -141zM373 416l-29 -164l47 -19q52 -18 109 -18q79 0 122.5 32t43.5 91q0 78 -117 78h-176z" />
<glyph unicode="&#x433;" horiz-adv-x="999" d="M229 963l95 22q152 37 256 37q167 0 259.5 -71t92.5 -197q0 -44 -6.5 -80t-26 -76.5t-52 -72t-89.5 -59.5t-133 -46l-201 -49q-52 -11 -78.5 -34.5t-26.5 -51.5q0 -60 99 -60q139 0 270 35l92 21q26 6 29 -21l22 -186q3 -22 -20 -29l-92 -22q-179 -46 -309 -46 q-170 0 -264.5 72t-94.5 201q0 58 13.5 106t46.5 95.5t98.5 84.5t159.5 60l198 47q99 27 99 78q0 53 -97 53q-103 0 -207 -22l-106 -27q-26 -6 -29 20l-18 189q-3 22 20 29z" />
<glyph unicode="&#x434;" horiz-adv-x="1134" d="M465 1495l96 -29q257 -77 378.5 -261.5t121.5 -499.5q0 -111 -17 -211t-58 -195.5t-104 -165t-162 -111.5t-224 -42q-199 0 -312.5 106.5t-113.5 292.5q0 77 17.5 155.5t57.5 156t97.5 137t145 96.5t192.5 37q107 0 182 -46q20 -13 30 -5.5t-1 34.5q-44 113 -121.5 183.5 t-196.5 105.5l-113 33q-23 10 -12 32l84 183q9 21 33 14zM621 715q-71 0 -127.5 -32.5t-88 -83.5t-47.5 -105t-16 -105q0 -79 41.5 -121.5t118.5 -42.5q72 0 128.5 33t88 84t47.5 105t16 104q0 79 -41.5 121.5t-119.5 42.5z" />
<glyph unicode="&#x435;" horiz-adv-x="1046" d="M813 31l-115 -29q-97 -25 -196 -25q-208 0 -319 109.5t-111 302.5q0 60 9.5 120.5t30 123t51.5 119t77 106.5t102 86t131.5 57t161.5 21q171 0 267.5 -77.5t96.5 -213.5q0 -63 -16 -113.5t-54 -97.5t-110.5 -79.5t-177.5 -47.5l-297 -41q5 -59 46 -93t120 -34 q84 0 172 21l106 28q26 6 29 -20l17 -195q3 -21 -21 -28zM362 561l256 35q58 9 86.5 35.5t28.5 64.5q0 37 -28.5 57.5t-83.5 20.5q-187 0 -259 -213z" />
<glyph unicode="&#x436;" horiz-adv-x="1597" d="M1575 969l-195 -297q-75 -110 -161 -158q-38 -18 -7 -37q70 -32 115 -155l96 -293q4 -13 -1 -21t-17 -8h-236q-20 0 -26 20l-88 271q-34 94 -109 94h-24l-62 -362q-3 -23 -26 -23h-230q-25 0 -22 27l61 358h-18q-32 0 -72 -32t-74 -81l-176 -256q-8 -16 -29 -16h-247 q-14 0 -19 9t4 22l205 307q44 66 79.5 101t86.5 63q17 8 18 15.5t-18 21.5q-52 32 -94 149l-92 283q-6 28 20 28h236q20 0 26 -20l60 -201q53 -149 129 -149h18l59 348q3 22 27 22h229q26 0 23 -26l-59 -344h10q37 0 89.5 52t96.5 116l125 186q8 16 29 16h246 q14 0 18.5 -8.5t-4.5 -21.5z" />
<glyph unicode="&#x437;" horiz-adv-x="995" d="M205 971l100 24q111 27 240 27q176 0 273 -68.5t97 -189.5q0 -172 -155 -229q-59 -24 -10 -39q60 -19 95.5 -66.5t35.5 -116.5q0 -48 -15.5 -94t-51.5 -90.5t-89.5 -77.5t-136.5 -53.5t-185 -20.5q-126 0 -260 35l-108 29q-27 7 -15 31l84 184q9 21 33 14l94 -24 q88 -21 181 -21t149.5 24.5t56.5 72.5q0 33 -37.5 53t-99.5 20h-157q-26 0 -23 27l31 178q3 23 26 23h144q64 0 106.5 24t42.5 64q0 30 -29.5 47.5t-84.5 17.5q-125 0 -199 -20l-105 -25q-25 -6 -28 21l-21 190q-3 22 21 29z" />
<glyph unicode="&#x438;" horiz-adv-x="1140" d="M758 20l-15 60q-10 21 -20.5 20.5t-36.5 -20.5q-124 -103 -274 -103q-183 0 -267 106.5t-51 289.5l105 604q3 22 26 22h230q25 0 22 -26l-102 -588q-13 -79 13.5 -119.5t88.5 -40.5q99 0 168.5 72t91.5 197l82 483q3 22 27 22h229q26 0 23 -26l-164 -950q-3 -23 -27 -23 h-123q-23 0 -26 20z" />
<glyph unicode="&#x43a;" horiz-adv-x="1148" d="M426 629h23q94 0 210 153l154 203q8 14 29 14h264q15 0 19 -9t-5 -21l-223 -303q-81 -105 -199 -146q-23 -9 -4 -20q107 -49 148 -148l125 -323q4 -13 -1.5 -21t-19.5 -8h-233q-20 0 -29 18l-88 222q-29 69 -73 107t-117 38h-25l-59 -362q-3 -23 -27 -23h-229 q-26 0 -23 27l164 950q3 22 26 22h228q25 0 22 -26z" />
<glyph unicode="&#x43b;" horiz-adv-x="1179" d="M1137 973l-164 -950q-3 -23 -27 -23h-227q-26 0 -23 27l125 729h-258l-47 -271q-31 -178 -121 -292.5t-256 -188.5l-67 -33q-23 -9 -33 15l-57 186q-7 24 14 33l63 28q148 69 181 269l82 475q3 22 26 22h766q26 0 23 -26z" />
<glyph unicode="&#x43d;" horiz-adv-x="1136" d="M1094 973l-164 -950q-3 -23 -27 -23h-229q-26 0 -23 27l62 358h-330l-61 -362q-3 -23 -27 -23h-229q-26 0 -23 27l164 950q3 22 26 22h230q25 0 22 -26l-59 -344h330l59 348q3 22 27 22h229q26 0 23 -26z" />
<glyph unicode="&#x43f;" horiz-adv-x="1140" d="M383 979l14 -59q10 -21 21 -20.5t37 20.5q123 102 274 102q183 0 267 -106t51 -289l-105 -604q-3 -23 -27 -23h-229q-25 0 -22 27l102 587q13 79 -13.5 119.5t-88.5 40.5q-100 0 -169.5 -71.5t-91.5 -196.5l-81 -483q-3 -23 -27 -23h-229q-26 0 -23 27l164 950 q3 22 26 22h123q24 0 27 -20z" />
<glyph unicode="&#x440;" horiz-adv-x="1171" d="M379 977l12 -53q11 -25 21 -26t41 22q119 102 268 102q180 0 279.5 -107.5t99.5 -296.5q0 -84 -18 -169t-60 -171t-104 -152t-158.5 -107.5t-214.5 -41.5q-105 0 -172 33l-51 25l-78 -457q-3 -22 -27 -22h-229q-26 0 -23 26l242 1395q3 22 26 22h119q24 0 27 -22z M360 268l43 -18q58 -25 132 -25q62 0 113.5 25.5t83.5 65t54.5 89.5t31.5 97t9 90q0 89 -41 135.5t-122 46.5q-102 0 -172 -69t-89 -185z" />
<glyph unicode="&#x441;" horiz-adv-x="976" d="M786 29l-98 -27q-89 -25 -182 -25q-211 0 -322.5 109t-111.5 303q0 71 13.5 141.5t40.5 143t74.5 134.5t110 110.5t151.5 76t195 27.5q69 0 172 -29l105 -30q26 -10 14 -33l-88 -180q-9 -22 -33 -15l-67 21q-58 18 -111 18q-69 0 -123.5 -26t-87.5 -66t-55 -91.5 t-30.5 -97.5t-8.5 -90q0 -178 174 -178q64 0 152 23l84 22q11 3 19 -2.5t9 -17.5l25 -193q3 -21 -21 -28z" />
<glyph unicode="&#x442;" horiz-adv-x="1716" d="M383 977l10 -53q8 -19 16 -23.5t17.5 0.5t30.5 21q119 100 260 100q133 0 223 -107q31 -29 50 -30.5t57 26.5q126 111 268 111q173 0 256 -107t51 -288l-104 -604q-3 -23 -27 -23h-229q-26 0 -23 27l102 587q14 81 -8 120.5t-84 39.5q-98 0 -162 -71.5t-86 -196.5 l-81 -483q-3 -23 -27 -23h-229q-26 0 -23 27l102 591q28 156 -92 156q-99 0 -162.5 -71.5t-85.5 -196.5l-81 -483q-3 -23 -27 -23h-229q-26 0 -23 27l164 950q3 22 26 22h123q24 0 27 -22z" />
<glyph unicode="&#x443;" horiz-adv-x="1169" d="M1190 971l-586 -1049q-105 -191 -233.5 -278.5t-298.5 -87.5h-95q-25 0 -22 26l37 195q3 22 26 22h70q66 0 111.5 29t81.5 92l26 45q36 69 34 157.5t-38 233.5l-162 617q-3 12 3 19t20 7h231q23 0 29 -20l88 -356q32 -134 35 -269q2 -35 17 -33.5t26 35.5q42 135 121 283 l186 344q13 16 31 16h246q14 0 18.5 -8t-2.5 -20z" />
<glyph unicode="&#x444;" horiz-adv-x="1677" d="M1059 967l45 20q77 35 153 35q173 0 261 -104t88 -293q0 -82 -17.5 -168t-58 -173t-98.5 -154.5t-147.5 -110t-197.5 -42.5q-73 0 -141 33l-49 25l-78 -457q-3 -22 -26 -22h-230q-25 0 -22 26l80 449l-46 -21q-79 -33 -145 -33q-174 0 -266 105t-92 293q0 83 16.5 168.5 t56.5 172.5t97.5 154t148 109.5t199.5 42.5q75 0 135 -31l55 -24l86 489q3 23 27 23h227q26 0 23 -27zM741 727l-39 23q-43 24 -100 24q-65 0 -117.5 -39.5t-82 -99.5t-45 -123t-15.5 -119q0 -82 34 -125t97 -43q76 0 135 25l56 29zM936 270l41 -22q51 -23 100 -23 q66 0 118 41t80.5 103t43 124t14.5 115q0 80 -33 123t-96 43q-82 0 -139 -29l-51 -26z" />
<glyph unicode="&#x446;" horiz-adv-x="1226" d="M979 244h106q26 0 23 -27l-90 -518q-3 -23 -27 -23h-205q-25 0 -22 27l53 297h-24q-24 0 -27 20l-14 60q-10 21 -21 20.5t-37 -20.5q-124 -103 -274 -103q-183 0 -267 106.5t-51 289.5l105 604q3 22 26 22h230q25 0 22 -26l-102 -588q-13 -79 13.5 -119.5t88.5 -40.5 q99 0 168.5 72t91.5 197l82 483q3 22 27 22h229q26 0 23 -26z" />
<glyph unicode="&#x447;" horiz-adv-x="1085" d="M1042 973l-163 -950q-3 -23 -27 -23h-229q-26 0 -23 27l57 325l-47 -12q-98 -25 -159 -25q-182 0 -270.5 97t-59.5 260l51 305q3 22 27 22h229q26 0 23 -26l-52 -289q-21 -123 99 -123q60 0 110 12l92 25l64 379q3 22 27 22h229q25 0 22 -26z" />
<glyph unicode="&#x448;" horiz-adv-x="1716" d="M1333 23l-10 53q-8 19 -16 23.5t-17 -0.5t-30 -21q-120 -101 -261 -101q-133 0 -223 107q-31 29 -49.5 30.5t-56.5 -26.5q-126 -111 -269 -111q-173 0 -256 107t-51 289l105 604q3 22 26 22h230q25 0 22 -26l-102 -588q-14 -81 8 -120.5t84 -39.5q97 0 161.5 72t86.5 197 l82 483q3 22 26 22h230q25 0 22 -26l-102 -592q-28 -156 92 -156q99 0 162.5 72t85.5 197l82 483q3 22 26 22h230q25 0 22 -26l-164 -950q-3 -23 -26 -23h-123q-24 0 -27 23z" />
<glyph unicode="&#x449;" horiz-adv-x="1802" d="M1554 244h107q25 0 22 -27l-90 -518q-3 -23 -26 -23h-205q-26 0 -23 27l54 297h-25q-24 0 -27 23l-10 53q-8 19 -16 23.5t-17 -0.5t-30 -21q-120 -101 -260 -101q-134 0 -224 107q-31 29 -49.5 30.5t-56.5 -26.5q-126 -111 -268 -111q-173 0 -256.5 107.5t-51.5 288.5 l105 604q3 22 26 22h230q25 0 22 -26l-102 -588q-14 -81 8 -120.5t84 -39.5q97 0 161.5 72t86.5 197l82 483q3 22 26 22h230q25 0 22 -26l-102 -592q-28 -156 92 -156q99 0 162.5 72t85.5 197l82 483q3 22 27 22h229q25 0 22 -26z" />
<glyph unicode="&#x44b;" horiz-adv-x="1523" d="M436 702h127q180 0 278.5 -79t98.5 -222q0 -59 -13 -115.5t-45 -113.5t-80.5 -99.5t-126.5 -69t-175 -26.5q-148 0 -262 54l-160 75q-20 9 -17 29l146 842q3 22 26 22h228q25 0 22 -26zM1466 971l-149 -948q-3 -23 -27 -23h-229q-26 0 -23 27l152 948q3 22 27 22h227 q25 0 22 -26zM360 266l50 -20q54 -21 106 -21q71 0 111.5 39t40.5 90q0 52 -33.5 79.5t-95.5 27.5h-148z" />
<glyph unicode="&#x44c;" horiz-adv-x="1036" d="M436 702h127q180 0 278.5 -79t98.5 -222q0 -59 -13 -115.5t-45 -113.5t-80.5 -99.5t-126.5 -69t-175 -26.5q-148 0 -262 54l-160 75q-20 9 -17 29l146 842q3 22 26 22h228q25 0 22 -26zM360 266l50 -20q54 -21 106 -21q71 0 111.5 39t40.5 90q0 52 -33.5 79.5t-95.5 27.5 h-148z" />
<glyph unicode="&#x44d;" horiz-adv-x="989" d="M201 971l96 24q89 27 184 27q211 0 322.5 -109t111.5 -303q0 -71 -13.5 -141.5t-40.5 -143t-74.5 -134.5t-110 -110.5t-151.5 -76t-195 -27.5q-80 0 -172 29l-105 29q-26 10 -14 33l88 182q9 21 33 14l67 -20q61 -19 111 -19q176 0 260 168h-322q-25 0 -22 27l35 178 q3 23 26 23h328q-12 153 -174 153q-68 0 -152 -22l-84 -23q-11 -3 -19 3t-9 18l-25 192q-3 22 21 29z" />
<glyph unicode="&#x44e;" horiz-adv-x="1634" d="M426 629h182q28 81 71.5 148.5t107 124t154 88.5t198.5 32q200 0 311 -110.5t111 -303.5q0 -82 -18.5 -165.5t-62 -168.5t-106.5 -150t-162 -106t-219 -41q-200 0 -311 109t-113 299h-186l-61 -362q-3 -23 -27 -23h-229q-26 0 -23 27l164 950q3 22 26 22h230q25 0 22 -26 zM1001 225q74 0 132.5 37.5t91 95.5t49 118.5t16.5 115.5q0 88 -42 135t-120 47q-75 0 -133.5 -37.5t-90 -95.5t-47 -118t-15.5 -115q0 -88 40.5 -135.5t118.5 -47.5z" />
<glyph unicode="&#x44f;" horiz-adv-x="1097" d="M1055 973l-164 -950q-3 -23 -27 -23h-229q-26 0 -23 27l56 313h-56q-78 0 -138 -51t-124 -154l-74 -119q-8 -16 -28 -16h-244q-15 0 -19.5 8.5t3.5 20.5l145 229q64 101 152 143q24 10 31 17t2 12.5t-23 15.5q-57 26 -95 81.5t-38 123.5q0 46 13 91.5t45 92.5t80 83 t125.5 58.5t174.5 22.5h432q26 0 23 -26zM739 756h-176q-65 0 -102 -32t-37 -79q0 -74 113 -74h172z" />
<glyph unicode="&#x451;" horiz-adv-x="1046" d="M498 1516q65 0 101 -34.5t36 -95.5q0 -72 -38.5 -122t-117.5 -50q-65 0 -101 35t-36 97q0 82 42 126t114 44zM885 1516q65 0 101 -34.5t36 -95.5q0 -72 -38.5 -122t-117.5 -50q-65 0 -101 35t-36 97q0 82 42 126t114 44zM813 31l-115 -29q-97 -25 -196 -25 q-208 0 -319 109.5t-111 302.5q0 60 9.5 120.5t30 123t51.5 119t77 106.5t102 86t131.5 57t161.5 21q171 0 267.5 -77.5t96.5 -213.5q0 -63 -16 -113.5t-54 -97.5t-110.5 -79.5t-177.5 -47.5l-297 -41q5 -59 46 -93t120 -34q84 0 172 21l106 28q26 6 29 -20l17 -195 q3 -21 -21 -28zM362 561l256 35q58 9 86.5 35.5t28.5 64.5q0 37 -28.5 57.5t-83.5 20.5q-187 0 -259 -213z" />
<glyph unicode="&#x459;" horiz-adv-x="1667" d="M1075 702h115q184 0 282.5 -79t98.5 -228q0 -56 -12.5 -110.5t-44.5 -111.5t-81 -99.5t-128.5 -69.5t-180.5 -27q-134 0 -252 56l-155 73q-20 9 -17 29l107 621h-244l-47 -271q-31 -178 -121 -292.5t-256 -188.5l-67 -33q-23 -9 -33 15l-57 186q-7 24 14 33l63 28 q150 70 183 271l80 473q3 22 26 22h752q25 0 22 -26zM1030 461l-31 -193l68 -28q41 -15 82 -15q69 0 109 38t40 95q0 47 -33.5 75t-99.5 28h-135z" />
<glyph unicode="&#x45a;" horiz-adv-x="1611" d="M1010 664h129q180 0 276 -77t96 -225q0 -57 -13.5 -110t-46.5 -104t-82 -88t-125.5 -60t-172.5 -23q-136 0 -276 64l-138 65q-19 8 -16 29l49 287h-301l-67 -399q-3 -23 -27 -23h-229q-26 0 -23 27l164 950q3 22 26 22h230q25 0 22 -26l-55 -309h301l53 313q3 22 27 22 h229q26 0 23 -26zM965 422l-27 -154l55 -22q49 -21 105 -21q59 0 100 32.5t41 82.5q0 45 -30.5 63.5t-96.5 18.5h-147z" />
<glyph unicode="&#x1e9e;" horiz-adv-x="1529" d="M1454 1423l8 -16q8 -17 -4 -35q-67 -90 -143 -205l-209 -313q-12 -21 -10.5 -27.5t16.5 -13.5l115 -49q205 -86 205 -295q0 -80 -19.5 -151t-64 -134.5t-111.5 -108.5t-167.5 -71.5t-225.5 -26.5q-110 0 -271 52l-90 28q-23 10 -12 33l92 186q9 22 33 15l78 -27 q101 -33 178 -33q141 0 218 52t77 151q0 41 -25.5 68.5t-79.5 50.5l-286 123q-17 6 -25 22l-2 7q-7 15 2 34l209 310q48 74 84 110q35 35 -12 35h-303q-74 0 -132.5 -63t-78.5 -170l-160 -938q-3 -23 -27 -23h-235q-26 0 -23 27l166 954q40 224 173.5 342.5t344.5 118.5h688 q19 0 29 -19z" />
<glyph unicode="&#x2000;" horiz-adv-x="953" />
<glyph unicode="&#x2001;" horiz-adv-x="1907" />
<glyph unicode="&#x2002;" horiz-adv-x="953" />
<glyph unicode="&#x2003;" horiz-adv-x="1907" />
<glyph unicode="&#x2004;" horiz-adv-x="635" />
<glyph unicode="&#x2005;" horiz-adv-x="476" />
<glyph unicode="&#x2006;" horiz-adv-x="317" />
<glyph unicode="&#x2007;" horiz-adv-x="317" />
<glyph unicode="&#x2008;" horiz-adv-x="238" />
<glyph unicode="&#x2009;" horiz-adv-x="157" />
<glyph unicode="&#x200a;" horiz-adv-x="105" />
<glyph unicode="&#x2010;" horiz-adv-x="892" d="M195 655h555q25 0 22 -26l-35 -195q-3 -22 -26 -22h-555q-26 0 -23 26l35 195q3 22 27 22z" />
<glyph unicode="&#x2011;" horiz-adv-x="892" d="M195 655h555q25 0 22 -26l-35 -195q-3 -22 -26 -22h-555q-26 0 -23 26l35 195q3 22 27 22z" />
<glyph unicode="&#x2012;" horiz-adv-x="892" d="M195 655h555q25 0 22 -26l-35 -195q-3 -22 -26 -22h-555q-26 0 -23 26l35 195q3 22 27 22z" />
<glyph unicode="&#x2013;" horiz-adv-x="1417" d="M195 655h1079q25 0 22 -26l-34 -195q-3 -22 -27 -22h-1079q-26 0 -23 26l35 195q3 22 27 22z" />
<glyph unicode="&#x2014;" horiz-adv-x="1701" d="M195 655h1364q25 0 22 -26l-35 -195q-3 -22 -26 -22h-1364q-26 0 -23 26l35 195q3 22 27 22z" />
<glyph unicode="&#x2018;" horiz-adv-x="507" d="M432 1481l-82 -82q-126 -129 -145 -236q-15 -84 20 -131t111 -47q77 0 127.5 41.5t60.5 114.5q19 101 -57 143q-27 11 -26.5 28t30.5 46l119 123h-158z" />
<glyph unicode="&#x2019;" horiz-adv-x="507" d="M330 997l82 82q126 129 145 236q15 84 -20 131t-111 47q-77 0 -127.5 -41.5t-60.5 -114.5q-19 -101 57 -143q27 -11 26.5 -28t-30.5 -46l-119 -123h158z" />
<glyph unicode="&#x201a;" horiz-adv-x="507" d="M127 -180l82 82q127 130 145 235q15 84 -20 131t-111 47q-77 0 -127.5 -41t-60.5 -114q-19 -102 57 -144q27 -11 26.5 -27.5t-30.5 -45.5l-119 -123h158z" />
<glyph unicode="&#x201c;" horiz-adv-x="935" d="M432 1481l-82 -82q-126 -129 -145 -236q-15 -84 20 -131t111 -47q77 0 127.5 41.5t60.5 114.5q19 101 -57 143q-27 11 -26.5 28t30.5 46l119 123h-158zM858 1481l-82 -82q-126 -129 -145 -236q-15 -84 20 -131t111 -47q77 0 127.5 41.5t60.5 114.5q19 101 -57 143 q-27 11 -26.5 28t30.5 46l119 123h-158z" />
<glyph unicode="&#x201d;" horiz-adv-x="935" d="M330 997l82 82q126 129 145 236q15 84 -20 131t-111 47q-77 0 -127.5 -41.5t-60.5 -114.5q-19 -101 57 -143q27 -11 26.5 -28t-30.5 -46l-119 -123h158zM758 997l82 82q126 129 145 236q15 84 -20 131t-111 47q-77 0 -127.5 -41.5t-60.5 -114.5q-19 -101 57 -143 q27 -11 26.5 -28t-30.5 -46l-119 -123h158z" />
<glyph unicode="&#x201e;" horiz-adv-x="935" d="M127 -180l82 82q127 130 145 235q15 84 -20 131t-111 47q-77 0 -127.5 -41t-60.5 -114q-19 -102 57 -144q27 -11 26.5 -27.5t-30.5 -45.5l-119 -123h158zM555 -180l82 82q127 130 145 235q15 84 -20 131t-111 47q-77 0 -127.5 -41t-60.5 -114q-19 -102 57 -144 q27 -11 26.5 -27.5t-30.5 -45.5l-119 -123h158z" />
<glyph unicode="&#x2020;" horiz-adv-x="927" d="M938 1155l-25 -133q-3 -23 -26 -23h-238l-114 -661q-3 -23 -27 -23h-150q-25 0 -22 27l115 657h-234q-25 0 -22 27l24 133q3 23 27 23h235l47 274q3 23 27 23h150q25 0 22 -27l-47 -270h235q26 0 23 -27z" />
<glyph unicode="&#x2021;" horiz-adv-x="927" d="M649 999l-33 -188h224q25 0 22 -27l-24 -131q-3 -22 -27 -22h-225l-51 -293q-3 -23 -27 -23h-150q-25 0 -22 27l51 289h-231q-26 0 -23 26l23 131q3 23 26 23h236l33 188h-234q-25 0 -22 27l24 133q3 23 27 23h235l47 274q3 23 27 23h150q25 0 22 -27l-47 -270h235 q26 0 23 -27l-25 -133q-3 -23 -26 -23h-238z" />
<glyph unicode="&#x2022;" horiz-adv-x="860" d="M498 999q114 0 175.5 -59t61.5 -166q0 -61 -16 -117t-50 -105t-94 -78.5t-139 -29.5q-112 0 -173.5 57.5t-61.5 162.5q0 45 9.5 90t32 89.5t55.5 78.5t84.5 55.5t115.5 21.5z" />
<glyph unicode="&#x2026;" horiz-adv-x="1402" d="M227 315q85 0 125 -50t25 -136q-14 -72 -59 -112t-115 -40q-85 0 -125 50.5t-25 136.5q12 72 57 111.5t117 39.5zM664 315q85 0 124.5 -50t24.5 -136q-14 -72 -59 -112t-115 -40q-85 0 -125 50.5t-25 136.5q12 72 57.5 111.5t117.5 39.5zM1100 315q85 0 124.5 -50 t24.5 -136q-14 -72 -59 -112t-115 -40q-85 0 -124.5 50t-24.5 137q12 72 57 111.5t117 39.5z" />
<glyph unicode="&#x202f;" horiz-adv-x="381" />
<glyph unicode="&#x2039;" horiz-adv-x="823" d="M408 498l194 -367q7 -12 2.5 -20.5t-18.5 -8.5h-232q-17 0 -30 19l-185 346q-8 13 -8 31v6q0 16 12 28l306 355q11 14 30 14h244q17 0 21 -9.5t-7 -21.5z" />
<glyph unicode="&#x203a;" horiz-adv-x="823" d="M416 504l-195 366q-7 12 -2 20.5t19 8.5h231q19 0 31 -18l184 -346q8 -13 8 -31v-6q0 -17 -12 -29l-305 -354q-12 -15 -31 -15h-244q-17 0 -21 9.5t7 21.5z" />
<glyph unicode="&#x2044;" horiz-adv-x="587" d="M868 1442h160q15 0 19 -9.5t-5 -21.5l-1148 -1397q-11 -14 -31 -14h-160q-15 0 -19 9.5t5 21.5l1149 1396q12 15 30 15z" />
<glyph unicode="&#x205f;" horiz-adv-x="476" />
<glyph unicode="&#x20ac;" horiz-adv-x="1419" d="M1303 1151l-86 29q-77 30 -199 30q-235 0 -369 -235h422q14 0 18.5 -8.5t-2.5 -20.5l-77 -139q-13 -16 -31 -16h-406q-17 -69 -22 -119h356q14 0 19 -8.5t-2 -20.5l-76 -139q-14 -17 -31 -17h-270q30 -256 282 -256q102 0 232 39l98 29q26 10 29 -16l41 -203 q3 -23 -19 -29l-106 -33q-136 -41 -305 -41q-240 0 -381 135t-158 375h-174q-26 0 -23 27l23 135q3 23 27 23h151q8 54 21 119h-146q-25 0 -22 26l22 135q3 23 27 23h176q43 102 103.5 186.5t145 154t199 108t248.5 38.5q147 0 299 -55l82 -29q25 -7 13 -32l-97 -183 q-9 -22 -32 -12z" />
<glyph unicode="&#x2116;" horiz-adv-x="2445" d="M2083 1452q177 0 260 -111.5t49 -302.5q-32 -188 -154 -299.5t-296 -111.5q-173 0 -257.5 112t-50.5 299q32 190 153.5 302t295.5 112zM1231 0h-289q-23 0 -29 20q-29 104 -69 211l-258 646q-20 54 -54 157q-8 20 -21 15.5t-15 -23.5q-2 -129 -33 -330l-117 -673 q-3 -23 -27 -23h-233q-26 0 -23 27l242 1392q3 23 27 23h289q22 0 28 -21q18 -59 70 -211l254 -632l59 -170q6 -21 19.5 -17t11.5 25q3 143 35 325l116 678q3 23 27 23h236q25 0 22 -27l-242 -1392q-3 -23 -26 -23zM2050 1268q-83 0 -139.5 -61t-75.5 -169 q-19 -105 17.5 -166t119.5 -61q85 0 142.5 60.5t76.5 166.5q19 108 -18 169t-123 61zM2245 440l-23 -137q-3 -22 -27 -22h-622q-26 0 -23 26l23 137q3 23 26 23h623q26 0 23 -27z" />
<glyph unicode="&#x2122;" horiz-adv-x="1923" d="M780 1417v-135q0 -25 -24 -25h-244v-600q0 -24 -25 -24h-147q-25 0 -25 24v600h-241q-25 0 -25 25v135q0 25 25 25h682q24 0 24 -25zM1810 1417v-760q0 -24 -24 -24h-150q-24 0 -24 24v209q0 189 20 299q2 8 -2 12.5t-9.5 4t-8.5 -7.5q-5 -16 -19.5 -49t-19.5 -46 l-80 -180q-26 -59 -37 -88q-9 -18 -29 -18h-137q-20 0 -26 20q-3 6 -16 38t-19 48l-80 180q-5 11 -19.5 44.5t-21.5 50.5q-6 11 -15 7t-6 -16q23 -127 23 -299v-209q0 -24 -25 -24h-149q-25 0 -25 24v760q0 25 25 25h233q21 0 27 -21q4 -14 14 -36.5t13 -30.5l59 -127 q6 -16 35 -91t37 -106q6 -22 16 0q5 24 17.5 58.5t31 80t23.5 58.5l57 127l25 67q6 21 26 21h236q24 0 24 -25z" />
<glyph unicode="&#x2190;" horiz-adv-x="1380" d="M1317 831v-225q0 -24 -25 -24h-762l234 -289q10 -12 5.5 -21.5t-19.5 -9.5h-261q-19 0 -30 14l-330 429q-16 16 0 32l330 426q12 15 30 15h261q15 0 19.5 -9.5t-5.5 -21.5l-236 -291h764q25 0 25 -25z" />
<glyph unicode="&#x2191;" horiz-adv-x="1380" d="M1200 958v-260q0 -15 -9.5 -19.5t-21.5 5.5l-290 236v-764q0 -25 -25 -25h-225q-25 0 -25 25v762l-289 -234q-12 -10 -21 -5.5t-9 19.5v260q0 20 14 31l428 330q17 17 33 0l426 -330q14 -11 14 -31z" />
<glyph unicode="&#x2192;" horiz-adv-x="1380" d="M139 606v225q0 25 25 25h764l-236 291q-10 12 -5 21.5t20 9.5h260q18 0 30 -15l330 -426q16 -16 0 -32l-330 -429q-11 -14 -30 -14h-260q-15 0 -20 9.5t5 21.5l234 289h-762q-25 0 -25 24z" />
<glyph unicode="&#x2193;" horiz-adv-x="1380" d="M850 547l291 235q12 10 21 5.5t9 -19.5v-260q0 -20 -14 -31l-426 -330q-17 -17 -33 0l-428 330q-14 11 -14 31v260q0 15 9.5 19.5t21.5 -5.5l288 -233v762q0 24 25 24h225q25 0 25 -24v-764z" />
<glyph unicode="&#x2194;" horiz-adv-x="2039" d="M1655 1163l330 -426q16 -16 0 -32l-330 -429q-11 -14 -31 -14h-260q-15 0 -19.5 9.5t5.5 21.5l235 289h-1055l234 -289q10 -12 5.5 -21.5t-19.5 -9.5h-261q-19 0 -30 14l-330 429q-16 16 0 32l330 426q12 15 30 15h261q15 0 19.5 -9.5t-5.5 -21.5l-236 -289h1057 l-235 289q-10 12 -5.5 21.5t19.5 9.5h260q19 0 31 -15z" />
<glyph unicode="&#x2195;" horiz-adv-x="1380" d="M860 174l291 236q12 10 21.5 5t9.5 -20v-260q0 -19 -15 -31l-426 -329q-16 -16 -32 0l-428 329q-15 12 -15 31v260q0 15 9.5 20t21.5 -5l289 -234v1055l-289 -236q-12 -10 -21.5 -5t-9.5 20v262q0 19 15 31l428 329q16 16 32 0l426 -329q15 -12 15 -31v-262 q0 -15 -9.5 -20t-21.5 5l-291 238v-1059z" />
<glyph unicode="&#x2196;" horiz-adv-x="1468" d="M696 932l537 -537q19 -19 0 -35l-162 -161q-17 -17 -33 0l-538 538l-39 -370q-2 -15 -11 -19t-20 6l-186 187q-14 14 -11 30l68 535q3 21 25 24l534 68q18 3 31 -10l186 -187q10 -11 6.5 -19.5t-18.5 -10.5z" />
<glyph unicode="&#x2197;" horiz-adv-x="1380" d="M731 932l-369 39q-15 2 -18.5 10.5t6.5 19.5l187 187q13 13 30 10l535 -68q12 -2 17 -7t7 -17l68 -535q3 -17 -10 -30l-187 -187q-11 -10 -19.5 -6t-10.5 19l-39 370l-539 -538q-16 -16 -35 0l-161 161q-17 16 0 33z" />
<glyph unicode="&#x2198;" horiz-adv-x="1468" d="M848 492l-537 536q-19 19 0 35l162 162q17 17 33 0l538 -539l39 371q2 15 11 18.5t20 -6.5l186 -186q14 -14 11 -31l-68 -535q-1 -12 -6.5 -17.5t-17.5 -6.5l-535 -68q-17 -3 -31 11l-186 186q-10 11 -6.5 20t18.5 11z" />
<glyph unicode="&#x2199;" horiz-adv-x="1380" d="M723 492l369 -39q15 -2 18.5 -11t-6.5 -20l-186 -186q-14 -14 -31 -11l-535 68q-12 1 -17 6.5t-7 17.5l-68 535q-3 18 10 31l187 186q11 10 19.5 6.5t10.5 -18.5l39 -371l539 539q16 16 35 0l162 -162q16 -17 0 -33z" />
<glyph unicode="&#x25fc;" horiz-adv-x="1003" d="M0 1004h1004v-1004h-1004v1004z" />
<glyph horiz-adv-x="1433" d="M549 1872h299q17 0 19.5 -9.5t-9.5 -21.5l-264 -229q-13 -13 -29 -13h-213q-15 0 -19.5 9.5t5.5 21.5l180 228q11 14 31 14zM1415 1872h299q17 0 19.5 -9.5t-9.5 -21.5l-264 -229q-13 -13 -28 -13h-213q-15 0 -20 9.5t5 21.5l180 228q11 14 31 14zM63 27l242 1392 q3 23 27 23h233q26 0 23 -27l-242 -1392q-3 -23 -27 -23h-233q-26 0 -23 27zM1454 1415l-168 -964q-37 -226 -161.5 -350t-323.5 -124q-90 0 -189 41l-24 11q-23 10 -10 32l96 185q8 19 33 12l26 -12q38 -15 80 -15q69 0 119.5 53t68.5 156l168 979q3 23 27 23h236 q25 0 22 -27z" />
<glyph horiz-adv-x="1474" d="M995 1872h297q17 0 21.5 -9.5t-6.5 -21.5l-205 -227q-12 -15 -31 -15h-215q-14 0 -18.5 8.5t2.5 20.5l125 227q14 17 30 17zM887 1462q258 0 399 -149.5t141 -415.5q0 -81 -12.5 -166.5t-41 -176t-70 -173.5t-104 -157.5t-138.5 -128.5t-178 -86t-219 -32 q-256 0 -398.5 152t-142.5 418q0 81 12.5 166t41 175.5t70 173t104 156t138.5 127.5t178.5 85.5t219.5 31.5zM877 1210q-99 0 -180.5 -44.5t-133.5 -114.5t-88.5 -158.5t-51.5 -173.5t-15 -164q0 -155 69 -239.5t199 -84.5q98 0 179.5 45.5t133.5 116t88 160t51 174 t15 162.5q0 155 -68.5 238t-197.5 83z" />
<glyph horiz-adv-x="604" d="M471 1503q70 0 108.5 -37.5t38.5 -103.5q0 -78 -40.5 -132t-126.5 -54q-72 0 -111 37.5t-39 103.5q0 89 45.5 137.5t124.5 48.5zM371 0h-230q-25 0 -22 27l127 729h-101q-25 0 -22 26l33 195q3 22 26 22h357q25 0 22 -26l-164 -950q-3 -23 -26 -23z" />
<glyph horiz-adv-x="1212" d="M731 1448l-199 -281q-8 -16 -28 -16h-168q-15 0 -20 8.5t1 20.5l132 280q9 19 28 19h238q15 0 19.5 -8.5t-3.5 -22.5zM1337 1448l-198 -281q-8 -16 -29 -16h-168q-15 0 -19.5 8.5t1.5 20.5l131 280q9 19 28 19h238q15 0 19.5 -8.5t-3.5 -22.5zM182 999h357q25 0 22 -26 l-164 -950q-3 -23 -26 -23h-230q-25 0 -22 27l127 729h-101q-25 0 -22 26l33 195q3 22 26 22zM788 999h357q25 0 22 -26l-118 -694l-50 -295q-26 -143 -105 -246t-232 -172l-56 -27q-23 -13 -33 12l-73 189q-10 24 12 33l43 22q142 68 170 205h-4l131 756h-100q-26 0 -23 26 l33 195q3 22 26 22z" />
<glyph horiz-adv-x="1136" d="M711 1479h247q14 0 19 -8.5t-4 -22.5l-187 -281q-8 -16 -28 -16h-180q-14 0 -19.5 8.5t0.5 20.5l123 280q10 19 29 19zM641 1022q200 0 311 -110.5t111 -303.5q0 -82 -18.5 -165.5t-61.5 -168.5t-106 -150t-162 -106t-219 -41q-201 0 -312.5 110.5t-111.5 303.5 q0 58 9.5 117.5t31 122t52.5 119t77.5 106.5t103.5 86.5t133 58t162 21.5zM631 774q-61 0 -111.5 -25.5t-82 -64.5t-53.5 -89t-31 -97t-9 -90q0 -88 41 -135.5t119 -47.5q74 0 132.5 37.5t91 95.5t49 118.5t16.5 115.5q0 88 -42 135t-120 47z" />
<glyph horiz-adv-x="800" d="M287 999l24 131q31 179 142.5 275t285.5 96q74 0 135 -20l25 -8q24 -9 12 -33l-86 -180q-10 -23 -32 -13h-2q-24 8 -60 8q-57 0 -97.5 -40.5t-49.5 -104.5l-21 -111h230q25 0 22 -26l-35 -195q-3 -22 -26 -22h-232l-127 -733q-3 -23 -26 -23h-228q-25 0 -22 27l127 729 h-101q-25 0 -22 26l33 195q3 22 26 22h105z" />
<glyph horiz-adv-x="1529" d="M1454 1423l8 -16q8 -17 -4 -35q-67 -90 -143 -205l-209 -313q-12 -21 -10.5 -27.5t16.5 -13.5l115 -49q205 -86 205 -295q0 -80 -19.5 -151t-64 -134.5t-111.5 -108.5t-167.5 -71.5t-225.5 -26.5q-110 0 -271 52l-90 28q-23 10 -12 33l92 186q9 22 33 15l78 -27 q101 -33 178 -33q141 0 218 52t77 151q0 41 -25.5 68.5t-79.5 50.5l-286 123q-17 6 -25 22l-2 7q-7 15 2 34l209 310q48 74 84 110q35 35 -12 35h-303q-74 0 -132.5 -63t-78.5 -170l-160 -938q-3 -23 -27 -23h-235q-26 0 -23 27l166 954q40 224 173.5 342.5t344.5 118.5h688 q19 0 29 -19z" />
<glyph horiz-adv-x="821" d="M565 999h230q25 0 22 -26l-35 -195q-3 -22 -26 -22h-232l-75 -437q-15 -94 49 -94q31 0 55 8q24 9 33 -14l51 -170q6 -22 -12 -31q-80 -41 -168 -41q-163 0 -238.5 91t-46.5 254l74 434h-101q-25 0 -22 26l33 195q3 22 26 22h105l39 230q3 20 22 26l246 76q13 4 20 -2 t4 -20z" />
<glyph horiz-adv-x="821" d="M791 1479h157q12 0 18 -7.5t3 -19.5l-13 -68q-10 -88 -77 -186l-21 -31q-8 -16 -29 -16h-127q-13 0 -18.5 8.5t0.5 20.5l16 41q33 60 50 153l14 82q3 23 27 23zM565 999h230q25 0 22 -26l-35 -195q-3 -22 -26 -22h-232l-75 -437q-15 -94 49 -94q31 0 55 8q24 9 33 -14 l51 -170q6 -22 -12 -31q-80 -41 -168 -41q-163 0 -238.5 91t-46.5 254l74 434h-101q-25 0 -22 26l33 195q3 22 26 22h105l39 230q3 20 22 26l246 76q13 4 20 -2t4 -20z" />
<glyph horiz-adv-x="1069" d="M258 967l80 22q108 33 219 33q77 0 141 -12.5t108.5 -34t79 -52t53 -65.5t30 -74.5t10.5 -80t-6 -80.5l-103 -600q-3 -23 -26 -23h-123q-24 0 -27 23l-10 53q-4 14 -11 17.5t-16 -1t-26 -18.5q-118 -97 -264 -97q-161 0 -247.5 71.5t-86.5 197.5q0 72 23.5 135.5 t72 117.5t134.5 85.5t200 31.5h237l2 15q13 68 -25.5 104.5t-139.5 36.5q-93 0 -164 -18l-84 -23q-11 -3 -19.5 3t-9.5 18l-22 186q-3 22 20 29zM666 406h-224q-62 0 -97.5 -35t-35.5 -84q0 -70 97 -70q109 0 176 49.5t84 139.5z" />
<glyph horiz-adv-x="1069" d="M729 1479h252q17 0 21 -9.5t-7 -21.5l-245 -283q-11 -14 -31 -14h-182q-15 0 -20 8.5t3 20.5l180 282q8 17 29 17zM258 967l80 22q108 33 219 33q77 0 141 -12.5t108.5 -34t79 -52t53 -65.5t30 -74.5t10.5 -80t-6 -80.5l-103 -600q-3 -23 -26 -23h-123q-24 0 -27 23 l-10 53q-4 14 -11 17.5t-16 -1t-26 -18.5q-118 -97 -264 -97q-161 0 -247.5 71.5t-86.5 197.5q0 72 23.5 135.5t72 117.5t134.5 85.5t200 31.5h237l2 15q13 68 -25.5 104.5t-139.5 36.5q-93 0 -164 -18l-84 -23q-11 -3 -19.5 3t-9.5 18l-22 186q-3 22 20 29zM666 406h-224 q-62 0 -97.5 -35t-35.5 -84q0 -70 97 -70q109 0 176 49.5t84 139.5z" />
<glyph horiz-adv-x="1069" d="M496 1516q65 0 101 -34.5t36 -95.5q0 -72 -38.5 -122t-117.5 -50q-65 0 -101 35t-36 97q0 82 42 126t114 44zM883 1516q65 0 101 -34.5t36 -95.5q0 -72 -38.5 -122t-117.5 -50q-65 0 -101 35t-36 97q0 82 42 126t114 44zM258 967l80 22q108 33 219 33q77 0 141 -12.5 t108.5 -34t79 -52t53 -65.5t30 -74.5t10.5 -80t-6 -80.5l-103 -600q-3 -23 -26 -23h-123q-24 0 -27 23l-10 53q-4 14 -11 17.5t-16 -1t-26 -18.5q-118 -97 -264 -97q-161 0 -247.5 71.5t-86.5 197.5q0 72 23.5 135.5t72 117.5t134.5 85.5t200 31.5h237l2 15 q13 68 -25.5 104.5t-139.5 36.5q-93 0 -164 -18l-84 -23q-11 -3 -19.5 3t-9.5 18l-22 186q-3 22 20 29zM666 406h-224q-62 0 -97.5 -35t-35.5 -84q0 -70 97 -70q109 0 176 49.5t84 139.5z" />
<glyph horiz-adv-x="804" d="M287 999l22 121q31 182 147.5 281.5t297.5 99.5q72 0 151 -26l41 -15q25 -6 12 -33l-88 -180q-9 -22 -32 -12l-25 8q-43 12 -68 12q-61 0 -105.5 -43.5t-55.5 -111.5l-19 -101h230q25 0 22 -26l-35 -195q-3 -22 -26 -22h-232l-172 -1000q-3 -22 -26 -22h-230 q-25 0 -22 26l172 996h-101q-25 0 -22 26l33 195q3 22 26 22h105z" />
<glyph horiz-adv-x="1630" d="M1679 1235l-24 8q-43 12 -68 12q-61 0 -106 -43.5t-56 -111.5l-18 -101h229q26 0 23 -26l-35 -195q-3 -22 -27 -22h-231l-127 -733q-3 -23 -27 -23h-229q-25 0 -22 27l126 729h-450q-80 0 -140 -34.5t-91.5 -89.5t-46.5 -112t-15 -114q0 -181 172 -181q58 0 152 23l86 22 q11 3 19 -2.5t9 -17.5l25 -191q3 -21 -21 -28l-104 -29q-85 -25 -176 -25q-211 0 -322.5 108.5t-111.5 301.5q0 83 17 164t60 163.5t108 144.5t168.5 101t233.5 39h469l23 121q31 182 147 281.5t297 99.5q73 0 152 -26l41 -15q25 -6 12 -33l-88 -180q-9 -22 -33 -12z" />
<glyph horiz-adv-x="1650" d="M1364 756l-76 -437q-15 -94 49 -94q32 0 56 8q23 9 32 -14l52 -170q6 -21 -13 -31q-80 -41 -168 -41q-163 0 -238 91t-46 254l73 434h-444q-81 0 -142 -34.5t-93 -89.5t-47 -112t-15 -114q0 -181 178 -181q73 0 150 23l82 20q25 6 28 -20l25 -189q3 -21 -21 -28l-98 -27 q-94 -27 -178 -27q-214 0 -326 108t-112 302q0 83 17.5 164t61 163.5t108.5 144.5t170 101t237 39h460l39 230q3 19 23 26l246 76q13 4 20 -2t4 -20l-53 -310h229q26 0 23 -26l-35 -195q-3 -22 -27 -22h-231z" />
<glyph horiz-adv-x="1650" d="M1708 1479h158q12 0 17.5 -7.5t2.5 -19.5l-12 -68q-10 -87 -78 -186l-20 -31q-8 -16 -29 -16h-127q-13 0 -18.5 8.5t0.5 20.5l16 41q32 57 49 153l14 82q3 23 27 23zM1364 756l-76 -437q-15 -94 49 -94q32 0 56 8q23 9 32 -14l52 -170q6 -21 -13 -31q-80 -41 -168 -41 q-163 0 -238 91t-46 254l73 434h-444q-81 0 -142 -34.5t-93 -89.5t-47 -112t-15 -114q0 -181 178 -181q73 0 150 23l82 20q25 6 28 -20l25 -189q3 -21 -21 -28l-98 -27q-94 -27 -178 -27q-214 0 -326 108t-112 302q0 83 17.5 164t61 163.5t108.5 144.5t170 101t237 39h460 l39 230q3 19 23 26l246 76q13 4 20 -2t4 -20l-53 -310h229q26 0 23 -26l-35 -195q-3 -22 -27 -22h-231z" />
<glyph horiz-adv-x="1630" d="M1679 1235l-24 8q-43 12 -68 12q-61 0 -106 -43.5t-56 -111.5l-18 -101h229q26 0 23 -26l-35 -195q-3 -22 -27 -22h-231l-127 -733q-3 -23 -27 -23h-229q-25 0 -22 27l126 729h-450q-80 0 -140 -34.5t-91.5 -89.5t-46.5 -112t-15 -114q0 -181 172 -181q58 0 152 23l86 22 q11 3 19 -2.5t9 -17.5l25 -191q3 -21 -21 -28l-104 -29q-85 -25 -176 -25q-211 0 -322.5 108.5t-111.5 301.5q0 83 17 164t60 163.5t108 144.5t168.5 101t233.5 39h469l23 121q31 182 147 281.5t297 99.5q73 0 152 -26l41 -15q25 -6 12 -33l-88 -180q-9 -22 -33 -12z M745 1151h-202q-19 0 -31 18l-147 281q-6 12 -0.5 20.5t18.5 8.5h168q21 0 29 -17l92 -133l141 137q13 13 31 13h164q15 0 18.5 -9.5t-6.5 -21.5l-244 -283q-11 -14 -31 -14z" />
<glyph horiz-adv-x="1650" d="M745 1151h-202q-19 0 -31 18l-147 281q-6 12 -0.5 20.5t18.5 8.5h168q21 0 29 -17l92 -133l141 137q13 13 31 13h164q15 0 18.5 -9.5t-6.5 -21.5l-244 -283q-11 -14 -31 -14zM1708 1479h158q12 0 17.5 -7.5t2.5 -19.5l-12 -68q-10 -87 -78 -186l-20 -31q-8 -16 -29 -16 h-127q-13 0 -18.5 8.5t0.5 20.5l16 41q32 57 49 153l14 82q3 23 27 23zM1405 999h229q26 0 23 -26l-35 -195q-3 -22 -27 -22h-231l-76 -437q-15 -94 49 -94q32 0 56 8q23 9 32 -14l52 -170q6 -21 -13 -31q-80 -41 -168 -41q-163 0 -238 91t-46 254l73 434h-444 q-81 0 -142 -34.5t-93 -89.5t-47 -112t-15 -114q0 -181 178 -181q73 0 150 23l82 20q25 6 28 -20l25 -189q3 -21 -21 -28l-98 -27q-94 -27 -178 -27q-214 0 -326 108t-112 302q0 83 17.5 164t61 163.5t108.5 144.5t170 101t237 39h460l39 230q3 19 23 26l246 76q13 4 20 -2 t4 -20z" />
<glyph horiz-adv-x="1908" d="M1667 999h244q14 0 18.5 -8t-2.5 -20l-780 -1399q-13 -16 -31 -16h-239q-14 0 -19 8t2 20l127 232q63 119 72 240.5t-25 281.5l-67 289q-26 129 -127 129h-316l-127 -733q-3 -23 -26 -23h-230q-25 0 -22 27l127 729h-101q-25 0 -22 26l33 195q3 22 26 22h105l22 121 q31 182 147.5 281.5t297.5 99.5q72 0 151 -26l41 -15q25 -6 12 -33l-88 -180q-9 -22 -32 -12l-25 8q-43 12 -68 12q-61 0 -105.5 -43.5t-55.5 -111.5l-19 -101h316q303 0 336 -221l47 -235q14 -76 14 -207q0 -11 7 -15.5t15.5 0t12.5 15.5q58 165 149 336l174 311 q13 16 31 16z" />
<glyph horiz-adv-x="1908" d="M1927 971l-780 -1399q-13 -16 -31 -16h-239q-14 0 -19 8t2 20l127 232q63 119 72 240.5t-25 281.5l-67 289q-26 129 -127 129h-316l-127 -733q-3 -23 -26 -23h-230q-25 0 -22 27l127 729h-101q-25 0 -22 26l33 195q3 22 26 22h105l22 121q31 182 147.5 281.5t297.5 99.5 q72 0 151 -26l41 -15q25 -6 12 -33l-88 -180q-9 -22 -32 -12l-25 8q-43 12 -68 12q-61 0 -105.5 -43.5t-55.5 -111.5l-19 -101h316q303 0 336 -221l47 -235q14 -76 14 -207q0 -11 7 -15.5t15.5 0t12.5 15.5q58 165 149 336l174 311q13 16 31 16h244q14 0 18.5 -8t-2.5 -20z M1513 1479h252q17 0 21.5 -9.5t-6.5 -21.5l-246 -283q-11 -14 -31 -14h-182q-15 0 -19.5 8.5t3.5 20.5l180 282q9 17 28 17z" />
<glyph horiz-adv-x="1839" d="M1343 1022q200 0 311 -110.5t111 -303.5q0 -82 -18.5 -165.5t-61.5 -168.5t-106 -150t-162 -106t-219 -41q-222 0 -336 136q-146 -136 -366 -136q-201 0 -312.5 110.5t-111.5 303.5q0 58 9.5 117.5t31 122t52.5 119t77.5 106.5t103.5 86.5t133 58t162 21.5 q221 0 334 -135q145 135 368 135zM504 225q60 0 110 24.5t82.5 66t53.5 88t32 98.5l6 30q5 50 5 60q0 88 -42 135t-120 47q-61 0 -111.5 -25.5t-82 -64.5t-53.5 -89t-31 -97t-9 -90q0 -88 41 -135.5t119 -47.5zM1206 225q74 0 132.5 37.5t91 95.5t49 118.5t16.5 115.5 q0 88 -42 135t-120 47q-75 0 -133.5 -37.5t-90 -95.5t-47 -118t-15.5 -115q0 -88 40.5 -135.5t118.5 -47.5z" />
<glyph horiz-adv-x="1576" d="M1288 756l-76 -437q-15 -94 50 -94q31 0 55 8q24 9 33 -14l51 -170q6 -22 -12 -31q-80 -41 -168 -41q-163 0 -238.5 91t-46.5 254l74 434h-230q-125 0 -203.5 -47t-132.5 -161t-90 -319l-32 -206q-3 -23 -27 -23h-229q-26 0 -23 27l164 950q3 22 26 22h146q24 0 27 -24 l4 -96q0 -19 13 -21.5t32 14.5q77 77 156 102t210 25h230l39 230q3 20 22 26l246 76q13 4 20 -2t4 -20l-53 -310h230q25 0 22 -26l-35 -195q-3 -22 -26 -22h-232z" />
<glyph horiz-adv-x="1576" d="M1550 1479h158q12 0 18 -7.5t3 -19.5l-13 -68q-10 -87 -78 -186l-20 -31q-8 -16 -29 -16h-127q-13 0 -18.5 8.5t0.5 20.5l16 41q32 57 49 153l15 82q3 23 26 23zM1288 756l-76 -437q-15 -94 50 -94q31 0 55 8q24 9 33 -14l51 -170q6 -22 -12 -31q-80 -41 -168 -41 q-163 0 -238.5 91t-46.5 254l74 434h-230q-125 0 -203.5 -47t-132.5 -161t-90 -319l-32 -206q-3 -23 -27 -23h-229q-26 0 -23 27l164 950q3 22 26 22h146q24 0 27 -24l4 -96q0 -19 13 -21.5t32 14.5q77 77 156 102t210 25h230l39 230q3 20 22 26l246 76q13 4 20 -2t4 -20 l-53 -310h230q25 0 22 -26l-35 -195q-3 -22 -26 -22h-232z" />
<glyph horiz-adv-x="1576" d="M645 1151h-203q-18 0 -30 18l-148 281q-6 12 -0.5 20.5t19.5 8.5h168q19 0 28 -17l92 -133l142 137q13 13 30 13h164q15 0 19 -9.5t-6 -21.5l-244 -283q-11 -14 -31 -14zM1288 756l-76 -437q-15 -94 50 -94q31 0 55 8q24 9 33 -14l51 -170q6 -22 -12 -31 q-80 -41 -168 -41q-163 0 -238.5 91t-46.5 254l74 434h-230q-125 0 -203.5 -47t-132.5 -161t-90 -319l-32 -206q-3 -23 -27 -23h-229q-26 0 -23 27l164 950q3 22 26 22h146q24 0 27 -24l4 -96q0 -19 13 -21.5t32 14.5q77 77 156 102t210 25h230l39 230q3 20 22 26l246 76 q13 4 20 -2t4 -20l-53 -310h230q25 0 22 -26l-35 -195q-3 -22 -26 -22h-232z" />
<glyph horiz-adv-x="1792" d="M1825 1235l-25 8q-43 12 -67 12q-61 0 -106 -43.5t-56 -111.5l-19 -101h230q25 0 22 -26l-35 -195q-3 -22 -26 -22h-232l-127 -733q-3 -23 -26 -23h-230q-25 0 -22 27l127 729h-701q-129 0 -129 -66q0 -34 68 -51l184 -49q228 -58 228 -246q0 -172 -120.5 -269.5 t-342.5 -97.5q-130 0 -295 46l-88 24q-26 7 -14 31l86 184q9 21 32 14l78 -22q129 -29 252 -29q67 0 103 25.5t36 64.5q0 23 -13.5 36.5t-49.5 23.5l-185 47q-117 31 -173 88.5t-56 146.5q0 51 12.5 97.5t43.5 92t78.5 78.5t123 53.5t170.5 20.5h713l22 121 q31 182 147.5 281.5t297.5 99.5q72 0 151 -26l41 -15q26 -7 13 -33l-88 -180q-9 -22 -33 -12z" />
<glyph horiz-adv-x="1798" d="M1769 1479h158q12 0 18 -7.5t3 -19.5l-13 -68q-10 -88 -77 -186l-21 -31q-8 -16 -29 -16h-127q-13 0 -18.5 8.5t0.5 20.5l16 41q33 60 50 153l14 82q3 23 26 23zM1507 756l-75 -437q-15 -94 49 -94q31 0 55 8q24 9 33 -14l51 -170q6 -22 -12 -31q-80 -41 -168 -41 q-163 0 -238.5 91t-46.5 254l74 434h-697q-129 0 -129 -66q0 -34 68 -51l184 -49q228 -58 228 -246q0 -172 -120.5 -269.5t-342.5 -97.5q-130 0 -295 46l-88 24q-26 7 -14 31l86 184q9 21 32 14l78 -22q129 -29 252 -29q67 0 103 25.5t36 64.5q0 23 -13.5 36.5t-49.5 23.5 l-185 47q-117 31 -173 88.5t-56 146.5q0 51 12.5 97.5t43.5 92t78.5 78.5t123 53.5t170.5 20.5h709l39 230q3 20 22 26l246 76q13 4 20.5 -2t4.5 -20l-54 -310h230q25 0 22 -26l-35 -195q-3 -22 -26 -22h-232z" />
<glyph horiz-adv-x="1798" d="M700 1151h-202q-19 0 -31 18l-148 281q-6 12 -0.5 20.5t19.5 8.5h168q20 0 29 -17l92 -133l141 137q13 13 31 13h164q15 0 18.5 -9.5t-6.5 -21.5l-244 -283q-11 -14 -31 -14zM1507 756l-75 -437q-15 -94 49 -94q31 0 55 8q24 9 33 -14l51 -170q6 -22 -12 -31 q-80 -41 -168 -41q-163 0 -238.5 91t-46.5 254l74 434h-697q-129 0 -129 -66q0 -34 68 -51l184 -49q228 -58 228 -246q0 -172 -120.5 -269.5t-342.5 -97.5q-130 0 -295 46l-88 24q-26 7 -14 31l86 184q9 21 32 14l78 -22q129 -29 252 -29q67 0 103 25.5t36 64.5 q0 23 -13.5 36.5t-49.5 23.5l-185 47q-117 31 -173 88.5t-56 146.5q0 51 12.5 97.5t43.5 92t78.5 78.5t123 53.5t170.5 20.5h709l39 230q3 20 22 26l246 76q13 4 20.5 -2t4.5 -20l-54 -310h230q25 0 22 -26l-35 -195q-3 -22 -26 -22h-232z" />
<glyph horiz-adv-x="1798" d="M467 1169l-148 281q-6 12 -0.5 20.5t19.5 8.5h168q20 0 29 -17l92 -133l141 137q13 13 31 13h164q15 0 18.5 -9.5t-6.5 -21.5l-244 -283q-11 -14 -31 -14h-202q-19 0 -31 18zM1769 1479h158q12 0 18 -7.5t3 -19.5l-13 -68q-10 -88 -77 -186l-21 -31q-8 -16 -29 -16h-127 q-13 0 -18.5 8.5t0.5 20.5l16 41q33 60 50 153l14 82q3 23 26 23zM1507 756l-75 -437q-15 -94 49 -94q31 0 55 8q24 9 33 -14l51 -170q6 -22 -12 -31q-80 -41 -168 -41q-163 0 -238.5 91t-46.5 254l74 434h-697q-129 0 -129 -66q0 -34 68 -51l184 -49q228 -58 228 -246 q0 -172 -120.5 -269.5t-342.5 -97.5q-130 0 -295 46l-88 24q-26 7 -14 31l86 184q9 21 32 14l78 -22q129 -29 252 -29q67 0 103 25.5t36 64.5q0 23 -13.5 36.5t-49.5 23.5l-185 47q-117 31 -173 88.5t-56 146.5q0 51 12.5 97.5t43.5 92t78.5 78.5t123 53.5t170.5 20.5h709 l39 230q3 20 22 26l246 76q13 4 20.5 -2t4.5 -20l-54 -310h230q25 0 22 -26l-35 -195q-3 -22 -26 -22h-232z" />
<glyph horiz-adv-x="1918" d="M1677 999h244q14 0 18.5 -8t-2.5 -20l-780 -1399q-13 -16 -31 -16h-239q-14 0 -19 8t2 20l127 234q63 118 72 239t-25 283l-67 287q-27 131 -127 131l-72 -2h-254l-75 -437q-15 -94 49 -94q31 0 55 8q24 9 33 -14l51 -170q6 -22 -12 -31q-80 -41 -168 -41 q-163 0 -238.5 91t-46.5 254l74 434h-101q-25 0 -22 26l33 195q3 22 26 22h105l39 230q3 20 22 26l246 76q13 4 20 -2t4 -20l-53 -310h326q303 0 336 -221l47 -235q14 -76 14 -205q0 -12 7 -16.5t15.5 0t12.5 16.5q58 161 150 334l174 311q13 16 30 16z" />
<glyph horiz-adv-x="1918" d="M1524 1479h252q17 0 21 -9.5t-7 -21.5l-246 -283q-11 -14 -31 -14h-182q-15 0 -19.5 8.5t3.5 20.5l180 282q9 17 29 17zM1937 971l-780 -1399q-13 -16 -31 -16h-239q-14 0 -19 8t2 20l127 234q63 118 72 239t-25 283l-67 287q-27 132 -127 129h-326l-75 -437 q-15 -94 49 -94q31 0 55 8q24 9 33 -14l51 -170q6 -22 -12 -31q-80 -41 -168 -41q-163 0 -238.5 91t-46.5 254l74 434h-101q-25 0 -22 26l33 195q3 22 26 22h105l39 230q3 20 22 26l246 76q13 4 20 -2t4 -20l-53 -310h326q303 0 336 -221l47 -235q14 -76 14 -205 q0 -12 7 -16.5t15.5 0t12.5 16.5q58 161 150 334l174 311q13 16 30 16h244q14 0 18.5 -8t-2.5 -20z" />
<glyph horiz-adv-x="1277" d="M813 133h-446l-70 -117q-11 -16 -29 -16h-250q-15 0 -19.5 8.5t3.5 20.5l293 491q150 256 278 541q9 18 29 18h270q22 0 25 -22q37 -310 94 -537l125 -493q3 -12 -3 -19.5t-19 -7.5h-224q-22 0 -28 20zM512 377h238q-42 196 -39 354q0 12 -7.5 16.5t-16.5 0t-13 -16.5 q-64 -179 -162 -354z" />
<glyph horiz-adv-x="1277" d="M856 1559h252q17 0 21 -9.5t-7 -21.5l-245 -283q-11 -14 -31 -14h-182q-15 0 -20 8.5t3 20.5l180 282q9 17 29 17zM367 133l-70 -117q-11 -16 -29 -16h-250q-15 0 -19.5 8.5t3.5 20.5l293 491q150 256 278 541q9 18 29 18h270q22 0 25 -22q37 -310 94 -537l125 -493 q3 -12 -3 -19.5t-19 -7.5h-224q-22 0 -28 20l-29 113h-446zM512 377h238q-42 196 -39 354q0 12 -7.5 16.5t-16.5 0t-13 -16.5q-64 -179 -162 -354z" />
<glyph horiz-adv-x="1277" d="M623 1595q65 0 101 -34t36 -95q0 -72 -38.5 -122t-117.5 -50q-66 0 -101.5 34.5t-35.5 96.5q0 82 42 126t114 44zM1010 1595q65 0 101 -34t36 -95q0 -72 -38.5 -122t-117.5 -50q-66 0 -101.5 34.5t-35.5 96.5q0 82 42 126t114 44zM367 133l-70 -117q-11 -16 -29 -16h-250 q-15 0 -19.5 8.5t3.5 20.5l293 491q150 256 278 541q9 18 29 18h270q22 0 25 -22q37 -310 94 -537l125 -493q3 -12 -3 -19.5t-19 -7.5h-224q-22 0 -28 20l-29 113h-446zM512 377h238q-42 196 -39 354q0 12 -7.5 16.5t-16.5 0t-13 -16.5q-64 -179 -162 -354z" />
<glyph horiz-adv-x="1157" d="M248 1081h508q157 0 244 -65t87 -182q0 -92 -49 -159.5t-127 -105.5q-26 -14 -26 -21.5t22 -17.5q58 -21 96.5 -70.5t38.5 -129.5q0 -149 -123.5 -239.5t-345.5 -90.5h-507q-26 0 -23 27l178 1032q3 22 27 22zM459 838l-29 -170h207q178 0 178 106q0 31 -25 47.5 t-69 16.5h-262zM389 424l-33 -180h262q79 0 120.5 29t41.5 73q0 78 -149 78h-242z" />
<glyph horiz-adv-x="1067" d="M879 37l-91 -27q-122 -33 -223 -33q-236 0 -360.5 118.5t-124.5 328.5q0 90 19 179.5t66.5 181t119 160.5t186.5 113t258 44q91 0 201 -29l110 -33q26 -10 15 -32l-94 -181q-9 -20 -31 -14l-70 21q-73 20 -139 20q-85 0 -151.5 -28t-107 -71t-66.5 -100t-36 -109.5 t-10 -105.5q0 -215 228 -215q86 0 178 25l92 24q12 3 20.5 -2.5t8.5 -17.5l22 -188q3 -22 -20 -29z" />
<glyph horiz-adv-x="1067" d="M823 1231h-202q-19 0 -31 18l-148 281q-6 12 -0.5 20.5t19.5 8.5h168q19 0 28 -17l93 -133l141 137q13 13 31 13h163q15 0 19 -9.5t-6 -21.5l-244 -283q-11 -14 -31 -14zM879 37l-91 -27q-122 -33 -223 -33q-236 0 -360.5 118.5t-124.5 328.5q0 90 19 179.5t66.5 181 t119 160.5t186.5 113t258 44q91 0 201 -29l110 -33q26 -10 15 -32l-94 -181q-9 -20 -31 -14l-70 21q-73 20 -139 20q-85 0 -151.5 -28t-107 -71t-66.5 -100t-36 -109.5t-10 -105.5q0 -215 228 -215q86 0 178 25l92 24q12 3 20.5 -2.5t8.5 -17.5l22 -188q3 -22 -20 -29z" />
<glyph horiz-adv-x="1218" d="M248 1079h428q229 0 353 -114.5t124 -315.5q0 -71 -15 -143t-45.5 -146t-83 -138t-121 -114t-166.5 -79t-214 -29h-442q-26 0 -23 27l178 1030q3 22 27 22zM459 836l-101 -592h174q72 0 132 26t99 67t66.5 92.5t39.5 101.5t12 96q0 99 -59.5 154t-172.5 55h-190z" />
<glyph horiz-adv-x="1218" d="M788 1231h-202q-19 0 -31 18l-147 281q-6 12 -0.5 20.5t18.5 8.5h168q20 0 29 -17l92 -133l141 137q13 13 31 13h164q15 0 18.5 -9.5t-6.5 -21.5l-244 -283q-11 -14 -31 -14zM248 1079h428q229 0 353 -114.5t124 -315.5q0 -71 -15 -143t-45.5 -146t-83 -138t-121 -114 t-166.5 -79t-214 -29h-442q-26 0 -23 27l178 1030q3 22 27 22zM358 244h174q72 0 132 26t99 67t66.5 92.5t39.5 101.5t12 96q0 99 -59.5 154t-172.5 55h-190z" />
<glyph horiz-adv-x="1089" d="M432 670h436q26 0 23 -27l-35 -192q-3 -23 -27 -23h-440l-31 -184h576q25 0 22 -27l-32 -194q-3 -23 -27 -23h-831q-26 0 -23 27l178 1030q3 22 27 22h837q15 0 20 -8t-1 -20l-90 -197q-9 -18 -29 -18h-526z" />
<glyph horiz-adv-x="1089" d="M776 1559h252q17 0 21 -9.5t-7 -21.5l-245 -283q-11 -14 -31 -14h-182q-15 0 -20 8.5t3 20.5l181 282q8 17 28 17zM432 670h436q26 0 23 -27l-35 -192q-3 -23 -27 -23h-440l-31 -184h576q25 0 22 -27l-32 -194q-3 -23 -27 -23h-831q-26 0 -23 27l178 1030q3 22 27 22h837 q15 0 20 -8t-1 -20l-90 -197q-9 -18 -29 -18h-526z" />
<glyph horiz-adv-x="1089" d="M791 1231h-203q-19 0 -31 18l-147 281q-6 12 -0.5 20.5t18.5 8.5h168q20 0 29 -17l92 -133l141 137q13 13 31 13h164q15 0 18.5 -9.5t-6.5 -21.5l-244 -283q-11 -14 -30 -14zM459 836l-27 -166h436q26 0 23 -27l-35 -192q-3 -23 -27 -23h-440l-31 -184h576q25 0 22 -27 l-32 -194q-3 -23 -27 -23h-831q-26 0 -23 27l178 1030q3 22 27 22h837q15 0 20 -8t-1 -20l-90 -197q-9 -18 -29 -18h-526z" />
<glyph horiz-adv-x="1052" d="M422 612h448q26 0 23 -26l-35 -195q-3 -22 -27 -22h-452l-57 -346q-3 -23 -27 -23h-229q-26 0 -23 27l178 1030q3 22 27 22h833q15 0 20 -8t-1 -20l-90 -197q-9 -18 -29 -18h-522z" />
<glyph horiz-adv-x="1153" d="M1065 612l-94 -536q-3 -22 -25 -25l-131 -35l-31 -8q-118 -31 -227 -31q-225 0 -352 120.5t-127 328.5q0 62 10.5 126t33.5 131t57.5 127.5t85.5 114t114 92.5t146.5 62t179.5 23q119 0 225 -29l108 -33q26 -10 15 -32l-95 -181q-9 -20 -30 -14l-70 21q-67 20 -162 20 q-75 0 -136.5 -29t-99.5 -73.5t-64.5 -101t-37 -109t-10.5 -99.5q0 -104 56.5 -160.5t162.5 -56.5t187 19l26 151h-159q-15 0 -20 8.5t1 20.5l90 197q9 18 29 18h321q26 0 23 -27z" />
<glyph horiz-adv-x="1228" d="M1200 1053l-178 -1030q-3 -23 -27 -23h-229q-26 0 -23 27l70 401h-424l-67 -405q-3 -23 -27 -23h-229q-26 0 -23 27l178 1030q3 22 27 22h227q26 0 23 -26l-66 -383h424l66 387q3 22 26 22h230q25 0 22 -26z" />
<glyph horiz-adv-x="528" d="M696 1526l-198 -281q-8 -16 -29 -16h-168q-15 0 -19.5 8t1.5 20l131 281q9 18 28 18h238q15 0 19.5 -8t-3.5 -22zM295 0h-229q-26 0 -23 27l178 1030q3 22 27 22h227q26 0 23 -26l-176 -1030q-3 -23 -27 -23z" />
<glyph horiz-adv-x="866" d="M848 1053l-117 -680q-32 -188 -157 -289.5t-320 -101.5q-116 0 -201 26l-57 19q-23 10 -12 32l96 185q9 21 33 14l41 -14q61 -17 108 -17q76 0 129.5 45t65.5 117l114 668q3 22 27 22h227q26 0 23 -26z" />
<glyph horiz-adv-x="1241" d="M432 668h31q72 0 134.5 46t127.5 124l184 227q11 14 31 14h256q15 0 19.5 -9t-5.5 -21l-258 -324q-106 -124 -227 -166q-8 -2 -9.5 -8.5t7.5 -9.5q126 -53 182 -168l156 -344q5 -12 -0.5 -20.5t-18.5 -8.5h-243q-20 0 -29 18l-113 244q-76 162 -235 162h-33l-67 -401 q-3 -23 -27 -23h-229q-26 0 -23 27l178 1030q3 22 27 22h227q26 0 23 -26z" />
<glyph horiz-adv-x="993" d="M358 244h504q26 0 23 -27l-33 -194q-3 -23 -27 -23h-759q-26 0 -23 27l178 1030q3 22 27 22h227q26 0 23 -26z" />
<glyph horiz-adv-x="1433" d="M1405 1053l-178 -1030q-3 -23 -27 -23h-229q-26 0 -23 27l43 258q56 293 90 409q4 17 -4 18.5t-16 -12.5q-4 -6 -24 -40.5t-31 -53.5l-164 -262q-7 -13 -31 -55t-35 -64q-9 -18 -28 -18h-162q-21 0 -27 22q-6 34 -24 115l-72 258q-2 9 -12 44t-13 54q-4 15 -15 13 t-11 -19q-2 -138 -47 -409l-43 -262q-3 -23 -27 -23h-229q-26 0 -23 27l178 1030q3 22 27 22h313q21 0 27 -22q2 -21 9.5 -59.5t8.5 -43.5l64 -235q21 -118 28 -193q2 -9 7 -12t10 0t8 12q23 58 96 193l144 235q43 87 51 107q9 18 28 18h340q26 0 23 -26z" />
<glyph horiz-adv-x="1273" d="M1245 1053l-178 -1030q-3 -23 -27 -23h-258q-19 0 -28 20q-28 80 -68 158l-203 414q-41 97 -43 102q-7 16 -17.5 12t-8.5 -18q-2 -135 -31 -305l-61 -360q-3 -23 -27 -23h-229q-26 0 -23 27l178 1030q3 22 27 22h258q20 0 26 -20q27 -79 66 -162l197 -397q9 -22 27 -62 t24 -53q8 -19 17 -14t9 20q2 101 35 305l60 361q3 22 26 22h230q25 0 22 -26z" />
<glyph horiz-adv-x="1273" d="M862 1229h-203q-18 0 -30 18l-148 281q-6 12 -0.5 20t19.5 8h168q20 0 28 -16l92 -133l142 137q12 12 31 12h163q15 0 19 -9t-6 -21l-244 -283q-11 -14 -31 -14zM993 1079h230q25 0 22 -26l-178 -1030q-3 -23 -27 -23h-258q-19 0 -28 20q-28 80 -68 158l-203 414 q-41 97 -43 102q-7 16 -17.5 12t-8.5 -18q-2 -135 -31 -305l-61 -360q-3 -23 -27 -23h-229q-26 0 -23 27l178 1030q3 22 27 22h258q20 0 26 -20q27 -79 66 -162l197 -397q9 -22 27 -62t24 -53q8 -19 17 -14t9 20q2 101 35 305l60 361q3 22 26 22z" />
<glyph horiz-adv-x="1226" d="M698 1102q219 0 341 -120t122 -327q0 -88 -20.5 -178.5t-68.5 -181.5t-117.5 -160.5t-176.5 -113.5t-237 -44q-219 0 -341 120t-122 327q0 89 20.5 179.5t68.5 181t117.5 160.5t176.5 113.5t237 43.5zM690 854q-73 0 -133 -28t-97.5 -72t-63.5 -100t-37 -110t-11 -104 q0 -104 52 -159.5t149 -55.5q72 0 131.5 28t97.5 72t63.5 100t36.5 110t11 104q0 103 -52 159t-147 56z" />
<glyph horiz-adv-x="1226" d="M823 1559h252q17 0 21.5 -9.5t-6.5 -21.5l-246 -283q-11 -14 -31 -14h-182q-15 0 -20 8.5t3 20.5l181 282q9 17 28 17zM698 1102q219 0 341 -120t122 -327q0 -88 -20.5 -178.5t-68.5 -181.5t-117.5 -160.5t-176.5 -113.5t-237 -44q-219 0 -341 120t-122 327 q0 89 20.5 179.5t68.5 181t117.5 160.5t176.5 113.5t237 43.5zM690 854q-73 0 -133 -28t-97.5 -72t-63.5 -100t-37 -110t-11 -104q0 -104 52 -159.5t149 -55.5q72 0 131.5 28t97.5 72t63.5 100t36.5 110t11 104q0 103 -52 159t-147 56z" />
<glyph horiz-adv-x="1226" d="M590 1595q65 0 101 -34t36 -95q0 -72 -38.5 -122t-117.5 -50q-66 0 -101.5 34.5t-35.5 96.5q0 82 42 126t114 44zM977 1595q65 0 101 -34t36 -95q0 -72 -38.5 -122t-117.5 -50q-66 0 -101.5 34.5t-35.5 96.5q0 82 42 126t114 44zM698 1102q219 0 341 -120t122 -327 q0 -88 -20.5 -178.5t-68.5 -181.5t-117.5 -160.5t-176.5 -113.5t-237 -44q-219 0 -341 120t-122 327q0 89 20.5 179.5t68.5 181t117.5 160.5t176.5 113.5t237 43.5zM690 854q-73 0 -133 -28t-97.5 -72t-63.5 -100t-37 -110t-11 -104q0 -104 52 -159.5t149 -55.5 q72 0 131.5 28t97.5 72t63.5 100t36.5 110t11 104q0 103 -52 159t-147 56z" />
<glyph horiz-adv-x="1126" d="M248 1079h467q186 0 287 -85.5t96 -235.5q-3 -84 -35.5 -158.5t-96 -136.5t-172.5 -98.5t-251 -36.5h-170l-51 -305q-3 -23 -27 -23h-229q-26 0 -23 27l178 1030q3 22 27 22zM459 836l-43 -265h151q108 0 181 41t77 111q5 50 -29.5 81.5t-107.5 31.5h-229z" />
<glyph horiz-adv-x="1222" d="M897 -264l-59 92q-56 77 -133 113t-187 36q-209 6 -324.5 125t-115.5 322q0 89 20.5 179.5t68.5 181t117.5 160.5t176.5 113.5t237 43.5q219 0 341 -120t122 -327q0 -145 -66 -293.5t-186 -228.5q-10 -8 -9.5 -16t11.5 -11q105 -32 162 -118l64 -99q14 -17 -7 -34 l-198 -127q-20 -13 -35 8zM690 854q-73 0 -133 -28t-97.5 -72t-63.5 -100t-37 -110t-11 -104q0 -104 52 -159.5t149 -55.5q72 0 132 28t98 72t64 100t37 110t11 104q0 103 -52 159t-149 56z" />
<glyph horiz-adv-x="1185" d="M248 1079h469q180 0 280.5 -75.5t100.5 -210.5q0 -108 -65 -202.5t-177 -137.5q-15 -5 -20.5 -11t-3 -11t9.5 -9q88 -56 121 -164l73 -229q6 -29 -20 -29h-234q-20 0 -26 20l-49 152q-60 193 -240 193h-88l-57 -342q-3 -23 -27 -23h-229q-26 0 -23 27l178 1030 q3 22 27 22zM459 836l-37 -228h192q215 0 215 140q0 41 -34 64.5t-95 23.5h-241z" />
<glyph horiz-adv-x="1185" d="M784 1229h-202q-19 0 -31 18l-148 281q-6 12 -0.5 20t19.5 8h168q20 0 28 -16l93 -133l141 137q12 12 31 12h164q15 0 18.5 -9t-6.5 -21l-244 -283q-11 -14 -31 -14zM248 1079h469q180 0 280.5 -75.5t100.5 -210.5q0 -108 -65 -202.5t-177 -137.5q-15 -5 -20.5 -11 t-3 -11t9.5 -9q88 -56 121 -164l73 -229q6 -29 -20 -29h-234q-20 0 -26 20l-49 152q-60 193 -240 193h-88l-57 -342q-3 -23 -27 -23h-229q-26 0 -23 27l178 1030q3 22 27 22zM422 608h192q215 0 215 140q0 41 -34 64.5t-95 23.5h-241z" />
<glyph horiz-adv-x="1093" d="M618 408l-217 53q-128 32 -187.5 94.5t-59.5 165.5q0 74 26.5 140t80.5 121t148 87.5t218 32.5q152 0 291 -37l108 -31q25 -6 16 -30l-86 -189q-9 -21 -32 -14l-97 26q-108 27 -206 27q-91 0 -143 -26.5t-52 -71.5q0 -50 78 -70l215 -53q132 -32 195 -97t63 -169 q0 -59 -15.5 -113.5t-52.5 -105.5t-91.5 -88.5t-138 -60t-187.5 -22.5q-200 0 -351 46l-104 28q-26 7 -14 31l90 186q9 22 32 15l74 -23q120 -35 283 -35q96 0 149.5 29.5t53.5 83.5q0 49 -87 70z" />
<glyph horiz-adv-x="1093" d="M766 1231h-203q-19 0 -31 18l-147 281q-6 12 -0.5 20.5t18.5 8.5h168q21 0 29 -17l92 -133l142 137q13 13 30 13h164q15 0 18.5 -9.5t-6.5 -21.5l-243 -283q-11 -14 -31 -14zM924 801l-97 26q-108 27 -206 27q-91 0 -143 -26.5t-52 -71.5q0 -50 78 -70l215 -53 q132 -32 195 -97t63 -169q0 -59 -15.5 -113.5t-52.5 -105.5t-91.5 -88.5t-138 -60t-187.5 -22.5q-200 0 -351 46l-104 28q-26 7 -14 31l90 186q9 22 32 15l74 -23q120 -35 283 -35q96 0 149.5 29.5t53.5 83.5q0 49 -87 70l-217 53q-128 32 -187.5 94.5t-59.5 165.5 q0 74 26.5 140t80.5 121t148 87.5t218 32.5q152 0 291 -37l108 -31q25 -6 16 -30l-86 -189q-9 -21 -32 -14z" />
<glyph horiz-adv-x="2166" d="M618 408l-217 53q-128 32 -187.5 94.5t-59.5 165.5q0 74 26.5 140t80.5 121t148 87.5t218 32.5q152 0 291 -37l108 -31q25 -6 16 -30l-86 -189q-9 -21 -32 -14l-97 26q-108 27 -206 27q-91 0 -143 -26.5t-52 -71.5q0 -50 78 -70l215 -53q132 -32 195 -97t63 -169 q0 -59 -15.5 -113.5t-52.5 -105.5t-91.5 -88.5t-138 -60t-187.5 -22.5q-200 0 -351 46l-104 28q-26 7 -14 31l90 186q9 22 32 15l74 -23q120 -35 283 -35q96 0 149.5 29.5t53.5 83.5q0 49 -87 70zM1692 408l-217 53q-128 32 -188 95t-60 165q0 74 26.5 140t80.5 121 t148 87.5t218 32.5q152 0 291 -37l108 -31q26 -6 17 -30l-86 -189q-9 -21 -33 -14l-96 26q-108 27 -207 27q-91 0 -143 -26.5t-52 -71.5q0 -50 78 -70l215 -53q132 -32 195 -97t63 -169q0 -59 -15.5 -113.5t-52.5 -105.5t-91.5 -88.5t-138 -60t-187.5 -22.5q-200 0 -351 46 l-104 28q-26 7 -14 31l90 186q9 22 33 15l73 -23q120 -35 283 -35q96 0 149.5 29.5t53.5 83.5q0 50 -86 70z" />
<glyph horiz-adv-x="1124" d="M1153 1053l-35 -195q-3 -22 -26 -22h-334l-140 -813q-3 -23 -26 -23h-227q-26 0 -23 27l137 809h-327q-26 0 -23 26l35 195q3 22 26 22h940q26 0 23 -26z" />
<glyph horiz-adv-x="1124" d="M788 1229h-202q-19 0 -31 18l-147 281q-6 12 -1 20t19 8h168q21 0 29 -16l92 -133l141 137q12 12 31 12h164q15 0 18.5 -9t-6.5 -21l-244 -283q-11 -14 -31 -14zM190 1079h940q26 0 23 -26l-35 -195q-3 -22 -26 -22h-334l-140 -813q-3 -23 -26 -23h-227q-26 0 -23 27 l137 809h-327q-26 0 -23 26l35 195q3 22 26 22z" />
<glyph horiz-adv-x="1210" d="M1190 1055l-107 -619q-38 -220 -182.5 -338t-370.5 -118q-235 0 -347 126t-74 347l104 606q3 22 27 22h227q25 0 22 -26l-106 -619q-34 -211 156 -211q107 0 178 61t92 167l102 606q3 22 27 22h229q26 0 23 -26z" />
<glyph horiz-adv-x="1210" d="M817 1563h252q17 0 21 -9.5t-7 -21.5l-245 -283q-11 -14 -31 -14h-182q-15 0 -20 8.5t3 20.5l180 282q8 17 29 17zM1190 1055l-107 -619q-38 -220 -182.5 -338t-370.5 -118q-235 0 -347 126t-74 347l104 606q3 22 27 22h227q25 0 22 -26l-106 -619q-34 -211 156 -211 q107 0 178 61t92 167l102 606q3 22 27 22h229q26 0 23 -26z" />
<glyph horiz-adv-x="1210" d="M584 1599q65 0 101 -34t36 -95q0 -72 -38.5 -122t-117.5 -50q-65 0 -101 35t-36 97q0 82 42 125.5t114 43.5zM971 1599q65 0 101 -34t36 -95q0 -72 -38.5 -122t-117.5 -50q-65 0 -101 35t-36 97q0 82 42 125.5t114 43.5zM1190 1055l-107 -619q-38 -220 -182.5 -338 t-370.5 -118q-235 0 -347 126t-74 347l104 606q3 22 27 22h227q25 0 22 -26l-106 -619q-34 -211 156 -211q107 0 178 61t92 167l102 606q3 22 27 22h229q26 0 23 -26z" />
<glyph horiz-adv-x="1210" d="M788 1581q83 0 129 -39t46 -108q0 -36 -12.5 -71.5t-37.5 -68.5t-72 -54t-108 -21q-85 0 -130.5 37.5t-45.5 105.5q0 41 12.5 78.5t38.5 70t72.5 51.5t107.5 19zM776 1470q-38 0 -62 -24.5t-26 -63.5q-2 -25 13 -40t44 -15q38 0 62 25.5t24 66.5q0 51 -55 51zM1190 1055 l-107 -619q-38 -220 -182.5 -338t-370.5 -118q-235 0 -347 126t-74 347l104 606q3 22 27 22h227q25 0 22 -26l-106 -619q-34 -211 156 -211q107 0 178 61t92 167l102 606q3 22 27 22h229q26 0 23 -26z" />
<glyph horiz-adv-x="1236" d="M1270 1051l-293 -494q-154 -264 -281 -539q-9 -18 -28 -18h-269q-21 0 -24 23q-35 283 -94 534l-125 496q-6 26 22 26h223q23 0 29 -20l84 -320q43 -179 47 -391q-1 -12 6 -17t16.5 -1t14.5 16q58 180 184 393l193 324q11 16 29 16h249q15 0 20 -8t-3 -20z" />
<glyph horiz-adv-x="1755" d="M1776 1051l-275 -596q-86 -184 -192 -437q-9 -18 -29 -18h-279q-23 0 -26 23q-3 42 -12 121t-11 98l-26 196q-2 19 -15 174q0 14 -5 19.5t-12 0t-13 -19.5q-18 -49 -72 -172l-96 -198q-63 -140 -97 -224q-9 -18 -28 -18h-279q-23 0 -26 23q-5 62 -11 124t-14.5 150.5 t-15.5 157.5l-72 598q0 26 25 26h223q21 0 24 -22l39 -338q15 -163 15 -379q0 -12 7.5 -16.5t17 0t14.5 16.5q57 146 186 424l145 297q9 18 29 18h149q24 0 27 -22l43 -293q35 -295 41 -424q1 -12 8.5 -16.5t16 0t12.5 16.5q62 181 149 379l152 342q9 18 29 18h233 q31 0 21 -28z" />
<glyph horiz-adv-x="1208" d="M1206 1049l-297 -369q-82 -99 -141 -123q-16 -8 -4 -20q32 -22 54 -51t44 -78l176 -379q6 -12 1.5 -20.5t-19.5 -8.5h-244q-19 0 -28 18l-146 312q-13 29 -35 0l-256 -316q-11 -14 -30 -14h-258q-15 0 -19.5 9.5t4.5 21.5l311 379q65 88 138 129q17 7 2 18q-25 15 -51 49 t-43 74l-177 371q-6 12 -1 20t20 8h242q19 0 28 -18l146 -307q12 -31 34 0l250 311q11 14 31 14h254q15 0 19.5 -9t-5.5 -21z" />
<glyph horiz-adv-x="1206" d="M1251 1049l-274 -340q-154 -194 -210.5 -297.5t-84.5 -261.5l-20 -127q-3 -23 -27 -23h-225q-26 0 -23 27l21 123q13 84 15 144t-11.5 126t-36.5 127.5t-68 161.5l-164 342q-6 12 -1 20t20 8h248q19 0 28 -18l86 -170q54 -119 82 -242q1 -9 7 -12.5t13.5 -0.5t12.5 13 q97 156 164 242l147 174q11 14 31 14h256q15 0 19.5 -9t-5.5 -21z" />
<glyph horiz-adv-x="1206" d="M801 1559h252q17 0 21 -9.5t-7 -21.5l-246 -283q-11 -14 -30 -14h-183q-15 0 -19.5 8.5t3.5 20.5l180 282q8 17 29 17zM1251 1049l-274 -340q-154 -194 -210.5 -297.5t-84.5 -261.5l-20 -127q-3 -23 -27 -23h-225q-26 0 -23 27l21 123q13 84 15 144t-11.5 126 t-36.5 127.5t-68 161.5l-164 342q-6 12 -1 20t20 8h248q19 0 28 -18l86 -170q54 -119 82 -242q1 -9 7 -12.5t13.5 -0.5t12.5 13q97 156 164 242l147 174q11 14 31 14h256q15 0 19.5 -9t-5.5 -21z" />
<glyph horiz-adv-x="1116" d="M1124 1063q9 -18 -6 -33q-33 -40 -139 -176l-363 -457q-77 -96 -114 -131q-11 -9 -9 -16.5t17 -7.5q24 0 67.5 1t63.5 1h311q14 0 19 -8.5t-2 -20.5l-105 -197q-12 -18 -30 -18h-785q-20 0 -29 18q-5 16 7 31q47 53 149 187l352 444q69 90 117 133q12 11 10.5 18t-16.5 7 q-45 -2 -131 -2h-303q-26 0 -23 26l35 195q3 22 27 22h852q20 0 28 -16z" />
<glyph horiz-adv-x="1116" d="M764 1231h-203q-19 0 -31 18l-147 281q-6 12 -0.5 20.5t18.5 8.5h168q21 0 29 -17l92 -133l141 137q13 13 31 13h164q15 0 18.5 -9.5t-6.5 -21.5l-243 -283q-11 -14 -31 -14zM979 854l-363 -457q-77 -96 -114 -131q-11 -9 -9 -16.5t17 -7.5q24 0 67.5 1t63.5 1h311 q14 0 19 -8.5t-2 -20.5l-105 -197q-12 -18 -30 -18h-785q-20 0 -29 18q-5 16 7 31q47 53 149 187l352 444q69 90 117 133q12 11 10.5 18t-16.5 7q-45 -2 -131 -2h-303q-26 0 -23 26l35 195q3 22 27 22h852q19 0 28 -18q9 -15 -6 -33q-38 -45 -139 -174z" />
<glyph horiz-adv-x="528" d="M498 1053l-176 -1030q-3 -23 -27 -23h-229q-26 0 -23 27l178 1030q3 22 27 22h227q26 0 23 -26z" />
<glyph d="M360 465q133 0 207 -83t74 -230q0 -65 -12.5 -133t-42.5 -136.5t-73.5 -122t-111 -87t-149.5 -33.5q-135 0 -210 84.5t-75 232.5q0 66 13 134t43 136t74 120t112 85t151 33zM360 281q-52 0 -92 -36t-61.5 -91t-32 -108t-10.5 -99q0 -123 84 -123q51 0 91 36t61.5 91 t32.5 108t11 97q0 125 -84 125z" />
<glyph horiz-adv-x="765" d="M395 -170h127q26 0 23 -27l-23 -133q-3 -22 -26 -22h-459q-26 0 -23 26l23 133q3 23 26 23h134l45 258q9 58 24 102q5 9 1.5 13t-13.5 0l-82 -31q-25 -6 -31 18l-26 127q-3 22 18 31l326 111q19 6 33 -8q12 -12 6 -29z" />
<glyph d="M98 406l78 24q95 33 201 33q132 0 195 -63t46 -177q-21 -143 -180 -217l-190 -92q-56 -30 -62 -84h326q26 0 23 -27l-25 -131q-3 -22 -27 -22h-508q-25 0 -22 26l16 84q20 119 72.5 195.5t144.5 120.5l183 90q44 21 49 55q3 26 -17 42t-57 16q-55 0 -141 -27l-74 -23 q-10 -4 -18.5 1.5t-10.5 17.5l-20 129q-3 23 18 29z" />
<glyph d="M113 414l65 20q77 29 176 29q134 0 199.5 -59t50.5 -164q-15 -117 -117 -168q-10 -6 -12 -11q-2 -4 1.5 -7t10 -6t9.5 -5q92 -54 75 -164q-17 -116 -111 -178.5t-247 -62.5q-82 0 -184 30l-66 25q-26 6 -12 31l69 131q9 22 33 12l64 -21q65 -24 127 -24q57 0 92.5 21 t38.5 55q3 30 -21 47.5t-69 17.5h-62q-25 0 -22 27l22 131q3 22 27 22h63q76 0 86 72q2 29 -17.5 46.5t-59.5 17.5q-52 0 -117 -21l-64 -18q-10 -4 -18 1t-10 17l-19 127q-3 23 19 29z" />
<glyph d="M506 -168l-29 -160q-3 -22 -26 -22h-150q-25 0 -22 26l28 156h-346q-25 0 -22 27l24 129q3 17 14 28q71 72 86 88l218 250q22 24 67 84q9 15 29 15h209q25 0 22 -27l-76 -434h62q25 0 22 -27l-18 -110q-3 -23 -27 -23h-65zM334 -8l14 82q9 60 37 143q3 12 -4 15t-16 -9 l-138 -155q-30 -34 -57 -56q-10 -9 -7 -14.5t15 -5.5h156z" />
<glyph d="M274 268l-8 -41q-1 -4 -5.5 -27t-8.5 -34q-2 -10 6 -10q6 -1 16 0.5t13 1.5h30q5 0 19 1t22 1q123 0 183 -63t43 -173q-20 -135 -116 -210.5t-245 -75.5q-101 0 -194 34l-66 25q-26 7 -12 31l72 131q9 22 32 12l62 -25q77 -24 137 -24q56 0 90 29t39 71q3 37 -20.5 57.5 t-67.5 20.5q-16 0 -82 -4l-131 -14q-19 -3 -31 12q-9 12 -6 29l70 407q3 23 26 23h467q14 0 19.5 -8.5t-0.5 -20.5l-72 -137q-13 -19 -31 -19h-250z" />
<glyph d="M520 422l-143 -156q-46 -49 -82 -73q-12 -9 -10 -17.5t16 -5.5q37 12 96 12q103 0 161 -67.5t40 -182.5q-21 -136 -116.5 -215t-250.5 -79q-149 0 -219.5 73t-48.5 205q15 107 64 196.5t151 200.5l115 125q12 15 31 15h182q17 0 21 -9.5t-7 -21.5zM260 -178q58 0 94.5 28 t42.5 78q5 45 -20.5 68.5t-79.5 23.5q-61 0 -94.5 -30t-40.5 -76q-5 -43 20.5 -67.5t77.5 -24.5z" />
<glyph d="M694 440q5 -13 -6 -30q-72 -99 -131 -201l-315 -543q-13 -16 -31 -16h-152q-15 0 -19.5 8t1.5 20l256 441q55 88 84 125q9 10 8 17t-12 7h-305q-26 0 -23 27l25 135q3 23 26 23h568q20 0 26 -13z" />
<glyph d="M375 463q132 0 198.5 -55.5t51.5 -153.5q-15 -120 -133 -170q-20 -7 -5 -18q117 -61 99 -191q-15 -108 -108 -172.5t-247 -64.5q-146 0 -217.5 60t-54.5 167q18 137 162 201q11 4 12.5 9.5t-6.5 8.5q-93 52 -76 158q14 103 100 162t224 59zM346 297q-49 0 -78 -20 t-32 -56q-5 -31 18.5 -49t67.5 -18q46 0 76 21t34 56q3 31 -20 48.5t-66 17.5zM293 -16q-61 0 -96.5 -27t-40.5 -68q-6 -36 22 -56.5t82 -20.5q60 0 97.5 24t41.5 66q4 39 -24 60.5t-82 21.5z" />
<glyph d="M84 -322l143 156q48 51 82 74q12 9 10 17t-16 5q-37 -12 -96 -12q-103 0 -161 67.5t-40 182.5q21 136 116.5 215.5t250.5 79.5q149 0 219.5 -73.5t48.5 -205.5q-15 -107 -64 -196.5t-151 -200.5l-115 -125q-11 -14 -30 -14h-183q-17 0 -21 9t7 21zM344 279 q-58 0 -94.5 -28.5t-42.5 -78.5q-5 -45 20.5 -68.5t79.5 -23.5q61 0 94.5 30t40.5 76q5 43 -20.5 68t-77.5 25z" />
<glyph d="M575 1712q133 0 207 -83t74 -230q0 -65 -12.5 -133t-42.5 -136.5t-73.5 -122t-111 -87t-149.5 -33.5q-135 0 -210 84.5t-75 232.5q0 66 13 134t43 136t74 120t112 85t151 33zM575 1528q-52 0 -92 -36t-61.5 -91t-32 -108t-10.5 -99q0 -123 84 -123q51 0 91 36t61.5 91 t32.5 108t11 97q0 125 -84 125z" />
<glyph d="M610 1075h125q26 0 23 -26l-25 -131q-3 -23 -26 -23h-459q-26 0 -23 27l25 131q3 22 26 22h136l45 260q9 60 24 103q5 9 1.5 12.5t-13.5 -0.5l-82 -31q-25 -6 -31 19l-26 127q-3 21 18 30l326 111q19 6 33 -8q12 -12 6 -29z" />
<glyph d="M315 1655l78 24q95 33 201 33q132 0 195.5 -62.5t46.5 -176.5q-21 -143 -181 -218l-190 -92q-56 -30 -62 -84h326q26 0 23 -26l-25 -131q-3 -23 -27 -23h-507q-26 0 -23 27l16 84q20 119 72.5 195t144.5 120l183 90q44 21 49 55q3 26 -17 42t-57 16q-55 0 -141 -27 l-74 -22q-11 -5 -19.5 0.5t-9.5 17.5l-20 129q-3 23 18 29z" />
<glyph d="M330 1663l65 20q77 29 176 29q134 0 199.5 -59t50.5 -164q-15 -118 -116 -168q-12 -8 -13 -10q-2 -4 1.5 -7.5t10.5 -6.5t9 -5q92 -54 75 -164q-17 -116 -111 -178.5t-247 -62.5q-79 0 -184 31l-66 24q-26 6 -12 31l70 131q9 22 32 12l64 -20q68 -25 127 -25 q57 0 92.5 21t38.5 55q3 30 -21 47.5t-69 17.5h-62q-25 0 -22 27l22 131q3 23 27 23h63q77 0 86 71q2 29 -17.5 46.5t-59.5 17.5q-52 0 -117 -21l-64 -18q-10 -4 -18 1t-10 17l-19 127q-3 23 19 29z" />
<glyph d="M721 1081l-29 -159q-3 -23 -26 -23h-150q-25 0 -22 27l28 155h-346q-25 0 -22 27l24 129q3 17 15 29q71 72 86 88l217 250q22 24 67 84q8 14 29 14h209q25 0 22 -27l-75 -434h61q25 0 22 -27l-18 -110q-3 -23 -27 -23h-65zM549 1241l14 82q9 60 37 143q3 12 -4 15.5 t-16 -8.5l-138 -156q-27 -31 -57 -55q-10 -9 -7 -15t15 -6h156z" />
<glyph d="M489 1518l-8 -41q-1 -4 -6 -28t-8 -34t6 -10q6 -1 16 0.5t13 1.5h30q6 0 19 1t22 1q123 0 183 -62.5t43 -172.5q-20 -135 -116 -211t-245 -76q-98 0 -194 35l-66 24q-26 6 -12 31l72 131q9 22 32 12l62 -24q80 -25 137 -25q56 0 90 29t39 71q3 37 -20.5 57.5t-67.5 20.5 q-16 0 -82 -4l-131 -14q-19 -3 -31 12q-9 12 -6 29l70 407q3 23 26 23h467q14 0 19.5 -8.5t-0.5 -20.5l-72 -137q-12 -18 -31 -18h-250z" />
<glyph d="M735 1671l-143 -155q-48 -51 -82 -74q-12 -9 -10 -17.5t16 -5.5q40 13 96 13q103 0 161 -67.5t40 -182.5q-21 -136 -116.5 -215.5t-250.5 -79.5q-149 0 -219.5 73t-48.5 205q15 107 64 197t151 201l115 125q11 14 31 14h182q17 0 21 -9.5t-7 -21.5zM475 1071 q58 0 94.5 28.5t42.5 78.5q5 45 -20.5 68.5t-79.5 23.5q-61 0 -94.5 -30t-40.5 -77q-5 -43 20.5 -67.5t77.5 -24.5z" />
<glyph d="M909 1690q5 -14 -6 -31q-72 -99 -131 -201l-315 -543q-13 -16 -31 -16h-152q-15 0 -19.5 8.5t1.5 20.5l256 440q55 88 84 125q9 11 8 18t-12 7h-305q-26 0 -23 26l25 135q3 23 26 23h568q20 0 26 -12z" />
<glyph d="M590 1712q132 0 198.5 -55.5t51.5 -153.5q-15 -120 -133 -170q-20 -7 -5 -18q117 -61 99 -191q-15 -108 -108 -172.5t-247 -64.5q-146 0 -217.5 60t-54.5 167q18 137 162 201q11 4 12.5 9.5t-6.5 8.5q-93 52 -76 158q14 103 100 162t224 59zM561 1546q-49 0 -78 -20 t-32 -56q-5 -31 18.5 -49t67.5 -18q46 0 75.5 21.5t34.5 56.5q3 31 -20 48t-66 17zM508 1233q-61 0 -96.5 -26.5t-40.5 -67.5q-6 -37 22 -57.5t82 -20.5q60 0 97.5 24t41.5 66q4 39 -24 60.5t-82 21.5z" />
<glyph d="M299 926l143 155q48 51 82 74q12 9 10 17.5t-16 5.5q-40 -13 -96 -13q-103 0 -161 67.5t-40 182.5q21 136 116.5 215.5t250.5 79.5q149 0 219.5 -73t48.5 -205q-15 -107 -64 -197t-151 -201l-115 -125q-11 -14 -30 -14h-183q-17 0 -21 9.5t7 21.5zM559 1526 q-58 0 -94.5 -28.5t-42.5 -78.5q-5 -45 20.5 -68.5t79.5 -23.5q61 0 94.5 30t40.5 77q5 43 -20.5 67.5t-77.5 24.5z" />
<glyph horiz-adv-x="1169" d="M670 1102q202 0 314 -117.5t112 -320.5q0 -90 -19.5 -182t-64.5 -183.5t-110.5 -162.5t-166.5 -115t-223 -44q-201 0 -312.5 117.5t-111.5 321.5q0 72 14 148t42.5 154t76 146t109.5 122t150 85t190 31zM662 854q-63 0 -116 -29t-87 -75t-57.5 -104t-33.5 -114t-10 -108 q0 -95 41 -147t121 -52q78 0 139.5 43t96 109.5t52 137.5t17.5 138q0 97 -41 149t-122 52z" />
<glyph horiz-adv-x="739" d="M506 0h-230q-25 0 -22 27l90 522q18 95 39 160q9 22 -12 22q-3 0 -8.5 -1.5t-12.5 -3.5t-10 -3l-143 -55q-25 -9 -31 16l-43 184q-6 22 16 31l518 197q18 6 33 -9l8 -8q17 -13 11 -30l-177 -1026q-3 -23 -26 -23z" />
<glyph horiz-adv-x="1069" d="M244 1024l106 33q161 45 279 45q181 0 281 -73.5t100 -203.5q0 -101 -60 -182t-209 -147l-266 -125q-99 -46 -115 -127h506q26 0 23 -27l-33 -194q-3 -23 -27 -23h-759q-26 0 -23 27l19 106q31 174 107.5 281t215.5 170l270 127q42 21 61 39.5t19 42.5q0 28 -31.5 44.5 t-86.5 16.5q-127 0 -215 -27l-127 -36q-12 -4 -20.5 1t-10.5 17l-25 186q-3 22 21 29z" />
<glyph horiz-adv-x="1050" d="M229 1042l84 23q133 37 238 37q191 0 297 -84t106 -232q0 -104 -50 -204t-165 -172q-43 -24 -4 -43q70 -34 106 -103.5t36 -157.5q0 -70 -17 -133.5t-58 -123.5t-102.5 -104t-157 -70.5t-214.5 -26.5q-138 0 -252 30l-115 33q-23 10 -12 33l86 186q9 22 33 15l94 -29 q86 -22 166 -22q77 0 135.5 23t89.5 60.5t46 77t15 80.5q0 68 -45.5 107t-126.5 39h-147q-26 0 -23 26l35 195q3 22 27 22h133q102 0 156.5 57.5t54.5 141.5q0 131 -141 131q-81 0 -189 -27l-90 -24q-26 -6 -29 20l-20 191q-3 21 20 28z" />
<glyph horiz-adv-x="1218" d="M952 244h117q26 0 23 -27l-33 -194q-3 -23 -27 -23h-121l-53 -307q-3 -23 -27 -23h-229q-25 0 -22 27l53 301h-588q-25 0 -22 27l36 211q3 16 15 28q41 43 129 146l444 528q11 14 43.5 55.5t52.5 69.5q8 16 29 16h299q26 0 23 -26zM674 244l47 274q16 91 49 187 q4 20 -6.5 22t-24.5 -14l-288 -351q-10 -11 -24.5 -28t-31 -36t-22.5 -26q-25 -28 4 -28h297z" />
<glyph horiz-adv-x="1056" d="M981 1051l-90 -197q-9 -18 -29 -18h-387l-24 -156q-14 -74 -21 -96q-6 -17 0 -20.5t25 1.5l34 6q47 7 84 7q166 0 258.5 -99t92.5 -262q0 -78 -18.5 -155t-62 -153t-107.5 -133t-162.5 -92.5t-219.5 -35.5q-146 0 -286 49l-103 37q-25 6 -12 30l92 187q9 22 33 12 l102 -35q85 -32 199 -32q70 0 125 29t85.5 74t46 91.5t15.5 89.5q0 73 -43 112.5t-125 39.5q-16 0 -35.5 -2.5t-47.5 -6.5t-46 -6l-194 -28q-18 -3 -31 10l-4 4q-16 16 -10 33l125 721q3 22 26 22h697q15 0 19.5 -8t-1.5 -20z" />
<glyph horiz-adv-x="1146" d="M985 1411l-299 -358q-58 -68 -135 -129q-17 -12 -11 -23t25 -2q94 43 180 43q152 0 239 -95t87 -265q0 -82 -17.5 -162.5t-59.5 -161.5t-104 -142.5t-161 -100t-221 -38.5q-203 0 -315.5 105t-112.5 293q0 173 71 339t228 355l297 358q12 15 31 15h264q15 0 19 -9.5 t-5 -21.5zM631 700q-74 0 -131 -30t-87.5 -77.5t-45.5 -99t-15 -102.5q0 -166 164 -166q74 0 131.5 32t89 82t47 102t15.5 100q0 77 -42.5 118t-125.5 41z" />
<glyph horiz-adv-x="1087" d="M1106 1063q8 -17 -4 -35q-101 -136 -211 -354l-508 -985q-9 -19 -29 -19h-231q-14 0 -19.5 8.5t0.5 20.5l482 936q46 92 102 170q14 22 10.5 26.5t-28.5 4.5h-492q-25 0 -22 26l34 195q3 22 27 22h860q21 0 29 -16z" />
<glyph horiz-adv-x="1191" d="M752 1462q185 0 289 -83t104 -230q0 -114 -55.5 -214.5t-169.5 -158.5q-43 -25 -7 -41q70 -32 114 -99.5t44 -164.5q0 -65 -17.5 -130.5t-59.5 -132t-104 -117t-160 -82.5t-218 -32q-201 0 -313.5 92.5t-112.5 254.5q0 137 69.5 250.5t206.5 177.5q46 24 7 41 q-57 28 -89 86t-32 137q0 62 16.5 122.5t55.5 119.5t95.5 104t143.5 72.5t193 27.5zM727 1217q-57 0 -101 -22.5t-67 -57.5t-34 -70.5t-11 -69.5q0 -56 36 -87t103 -31q100 0 155.5 64t55.5 155q0 119 -137 119zM627 635q-69 0 -122.5 -26.5t-82.5 -67.5t-43 -84t-14 -84 q0 -72 45 -110t129 -38q70 0 123 24t82 63.5t43 83t14 89.5q0 71 -45 110.5t-129 39.5z" />
<glyph horiz-adv-x="1173" d="M227 -299l267 322q49 60 133 131q14 14 8 22.5t-27 1.5q-82 -43 -174 -43q-153 0 -239 96t-86 267q0 84 17.5 165.5t60 162t105.5 141t161 98t219 37.5q204 0 317 -106.5t113 -295.5q0 -170 -73.5 -336.5t-229.5 -357.5l-264 -321q-12 -15 -31 -15h-262q-15 0 -19.5 9.5 t4.5 21.5zM664 854q-59 0 -108.5 -21t-81.5 -54.5t-54 -76.5t-31.5 -85t-9.5 -82q0 -77 43.5 -118.5t124.5 -41.5q131 0 206.5 90t75.5 225q0 78 -43 121t-122 43z" />
<glyph horiz-adv-x="1286" d="M793 1462q219 0 338.5 -142.5t119.5 -397.5q0 -96 -16.5 -199t-49.5 -210.5t-89 -202.5t-128.5 -170t-175 -119t-221.5 -44q-218 0 -337 143t-119 398q0 83 11.5 171t37.5 181t63.5 178t93.5 161t123.5 132t157 88.5t191.5 32.5zM780 1204q-81 0 -149 -49t-111.5 -124.5 t-74 -168.5t-43.5 -178t-13 -156q0 -143 50 -217.5t145 -74.5q82 0 150 49.5t111 124.5t73 169t42.5 179t12.5 157q0 140 -49 214.5t-144 74.5z" />
<glyph horiz-adv-x="1286" d="M799 244h293q25 0 22 -27l-35 -194q-3 -23 -26 -23h-875q-25 0 -22 27l34 194q3 23 27 23h303l117 674q16 95 39 155q6 22 0 28.5t-33 -1.5l-248 -84q-25 -6 -28 18l-37 195q-3 22 18 31l594 196q18 6 33 -6l12 -10q15 -10 12 -31z" />
<glyph horiz-adv-x="1286" d="M326 1368l131 43q154 51 336 51q206 0 320 -90t114 -252q0 -131 -66.5 -233t-240.5 -201l-353 -205q-71 -41 -116.5 -102.5t-59.5 -134.5h641q26 0 23 -27l-35 -194q-3 -23 -27 -23h-895q-25 0 -22 27l22 120q36 208 114.5 339.5t229.5 218.5l367 210q137 85 137 170 q0 62 -45 97t-121 35q-127 0 -270 -48l-135 -43q-12 -4 -19.5 1.5t-9.5 17.5l-39 194q-3 23 19 29z" />
<glyph horiz-adv-x="1286" d="M338 1384l113 35q137 43 294 43q212 0 328.5 -90.5t116.5 -251.5q0 -54 -9.5 -98t-32.5 -90t-68 -86.5t-111 -75.5q-13 -6 -17.5 -11t-0.5 -11t18 -13q151 -72 151 -284q0 -68 -19 -133t-63.5 -127.5t-111 -109.5t-170.5 -75.5t-232 -28.5q-154 0 -323 62l-129 49 q-27 7 -13 31l95 178q9 22 32 12l113 -43q109 -41 238 -41q140 0 222.5 65t82.5 175q0 78 -53.5 123t-143.5 45h-119q-25 0 -22 26l37 195q3 23 26 23h103q108 0 173.5 53.5t65.5 138.5q0 71 -46 109.5t-128 38.5q-110 0 -235 -39l-121 -37q-11 -5 -19.5 0.5t-9.5 17.5 l-31 197q-3 22 19 28z" />
<glyph horiz-adv-x="1286" d="M1237 565l-35 -194q-3 -23 -26 -23h-127l-56 -325q-3 -23 -26 -23h-230q-25 0 -22 27l55 321h-680q-25 0 -22 27l36 211q3 16 15 28q75 71 186 197l412 444q82 95 141 172q12 15 31 15h321q26 0 23 -27l-141 -823h122q26 0 23 -27zM813 592l45 268q22 127 51 223 q3 13 0 20t-11.5 4t-18.5 -15l-330 -357q-49 -52 -113 -108q-14 -13 -11 -24t17 -11h371z" />
<glyph horiz-adv-x="1286" d="M1247 1413l-90 -196q-9 -19 -29 -19h-499l-33 -186l-16 -78q-5 -12 -2.5 -24t20.5 -9l57 8q65 9 115 9q194 0 302 -100.5t108 -285.5q0 -83 -19.5 -160t-65.5 -150t-114.5 -126.5t-175 -86t-238.5 -32.5q-167 0 -334 64l-137 51q-26 6 -12 31l94 178q9 22 33 12l117 -43 q125 -45 252 -45q66 0 120 17t90.5 45.5t61.5 66t36 76.5t11 80q0 77 -48 119.5t-144 42.5q-39 0 -179 -17l-213 -26q-17 -3 -30 10l-13 12q-16 16 -10 33l125 735q3 23 27 23h815q15 0 19.5 -8.5t-1.5 -20.5z" />
<glyph horiz-adv-x="1286" d="M1073 1411l-315 -354q-70 -76 -140 -127q-18 -12 -13 -23t28 -2q90 37 198 37q167 0 272 -104.5t105 -286.5q0 -89 -22 -171t-71 -156t-119.5 -128.5t-175 -86.5t-230.5 -32q-228 0 -351.5 105t-123.5 295q0 94 16 173.5t59.5 176.5t125 209.5t206.5 251.5l215 239 q12 15 31 15h291q17 0 21 -9.5t-7 -21.5zM715 705q-80 0 -143 -25.5t-100.5 -67t-57 -91.5t-19.5 -103q0 -97 51.5 -145t159.5 -48q154 0 236.5 87t85.5 210q3 88 -51.5 135.5t-161.5 47.5z" />
<glyph horiz-adv-x="1286" d="M1378 1423l2 -8q8 -17 -4 -35q-105 -139 -209 -311l-612 -1053q-13 -16 -31 -16h-250q-15 0 -19.5 8.5t1.5 20.5l555 950q50 88 133 184q16 20 11 27.5t-31 7.5h-623q-25 0 -22 27l34 194q3 23 27 23h1010q18 0 28 -19z" />
<glyph horiz-adv-x="1286" d="M813 1462q204 0 318 -86t114 -239q0 -121 -66.5 -214.5t-191.5 -142.5q-17 -6 -19.5 -16t11.5 -16q91 -40 144 -113.5t53 -175.5q0 -210 -165.5 -346t-445.5 -136q-226 0 -350.5 95t-124.5 262q0 149 83.5 254t225.5 160q19 8 21.5 17t-12.5 15q-75 35 -114.5 98 t-39.5 148q0 191 151 313.5t408 122.5zM788 1217q-127 0 -193.5 -56.5t-66.5 -148.5q0 -64 49.5 -98.5t137.5 -34.5q121 0 185.5 52t64.5 134q0 74 -46 113t-131 39zM672 633q-142 0 -222.5 -66t-80.5 -166q0 -87 56.5 -131.5t158.5 -44.5q153 0 232 64.5t79 175.5 q0 79 -60 123.5t-163 44.5z" />
<glyph horiz-adv-x="1286" d="M309 31l316 354q72 78 139 127q18 12 13.5 23t-27.5 2q-90 -37 -199 -37q-167 0 -272 104.5t-105 286.5q0 112 36.5 212t109 182t194.5 130.5t279 48.5q228 0 351.5 -104.5t123.5 -294.5q0 -94 -16.5 -173.5t-60 -176.5t-125 -209.5t-206.5 -251.5l-215 -240 q-11 -14 -31 -14h-290q-17 0 -21.5 9.5t6.5 21.5zM668 737q80 0 143 25.5t100 67t56.5 91.5t19.5 103q0 97 -51.5 145t-159.5 48q-79 0 -141.5 -25t-100 -67.5t-57.5 -94.5t-22 -110q-3 -88 51.5 -135.5t161.5 -47.5z" />
<glyph horiz-adv-x="798" d="M549 811q133 0 206.5 -83t73.5 -230q0 -65 -12.5 -133t-42.5 -136.5t-73.5 -122t-111 -87t-149.5 -33.5q-135 0 -209.5 84.5t-74.5 232.5q0 66 13 134t43 136t74 120t112 85t151 33zM549 627q-52 0 -92.5 -36t-62 -91t-32 -108.5t-10.5 -98.5q0 -123 84 -123 q41 0 75.5 24.5t56.5 61.5t37 83t21.5 87.5t6.5 75.5q0 125 -84 125z" />
<glyph horiz-adv-x="499" d="M557 805q14 -14 8 -31l-129 -751q-3 -23 -26 -23h-150q-25 0 -22 27l71 413q8 55 25 103q5 9 1.5 12.5t-13.5 -0.5l-82 -31q-25 -6 -31 19l-27 127q-3 21 19 30l325 111q19 6 31 -6z" />
<glyph horiz-adv-x="722" d="M248 760l78 24q95 33 200 33q132 0 195.5 -62.5t46.5 -176.5q-21 -144 -180 -218l-191 -92q-55 -30 -61 -84h326q25 0 22 -26l-25 -131q-3 -23 -26 -23h-508q-26 0 -23 27l17 84q20 119 72.5 195t144.5 120l182 90q44 21 49 55q3 26 -16.5 42t-56.5 16q-56 0 -142 -27 l-73 -22q-11 -5 -19.5 0.5t-9.5 17.5l-21 129q-3 23 19 29z" />
<glyph horiz-adv-x="759" d="M260 768l66 20q77 29 176 29q134 0 199.5 -59t50.5 -164q-15 -117 -117 -168q-11 -7 -12 -10q-2 -4 1 -7.5t10 -6.5t9 -5q93 -55 76 -164q-17 -116 -111.5 -178.5t-247.5 -62.5q-79 0 -184 31l-65 24q-27 7 -13 31l70 131q9 22 33 12l63 -20q68 -25 127 -25q57 0 92.5 21 t38.5 55q3 30 -21 47.5t-69 17.5h-61q-26 0 -23 27l23 131q3 23 26 23h64q77 0 86 71q2 29 -18 46.5t-60 17.5q-53 0 -117 -21l-63 -18q-11 -5 -19.5 0.5t-9.5 17.5l-18 127q-3 23 18 29z" />
<glyph horiz-adv-x="774" d="M788 319l-18 -110q-3 -23 -27 -23h-67l-27 -159q-3 -23 -26 -23h-150q-25 0 -22 27l26 155h-344q-25 0 -22 27l24 129q3 17 15 29q72 71 86 88l217 250q22 24 67 84q8 14 29 14h209q25 0 22 -27l-75 -434h61q25 0 22 -27zM506 346l14 82q9 60 37 143q3 12 -4 15.5 t-16 -8.5l-138 -156q-27 -31 -57 -55q-10 -9 -7 -15t15 -6h156z" />
<glyph horiz-adv-x="720" d="M774 778l-72 -137q-9 -18 -28 -18h-250l-8 -41q0 -1 -5.5 -26t-9.5 -36q-3 -10 7 -10q6 -1 15 0.5t13 1.5h31q5 0 19 1t22 1q123 0 182.5 -62.5t42.5 -172.5q-20 -135 -115.5 -211t-244.5 -76q-99 0 -195 35l-65 24q-27 7 -13 31l72 131q9 22 33 12l61 -24 q80 -25 137 -25q56 0 90 29t39 71q3 37 -20.5 57.5t-67.5 20.5q-16 0 -82 -4l-131 -14q-18 -3 -30 12q-9 12 -6 29l69 407q3 23 27 23h467q14 0 18.5 -8.5t-2.5 -20.5z" />
<glyph horiz-adv-x="745" d="M690 776l-143 -155q-48 -51 -82 -74q-12 -9 -10 -17.5t16 -5.5q40 13 96 13q103 0 161 -67.5t40 -182.5q-21 -136 -116.5 -215.5t-250.5 -79.5q-149 0 -219.5 73t-48.5 205q15 107 64 197t151 201l115 125q11 14 31 14h182q17 0 21 -9.5t-7 -21.5zM430 176 q58 0 94.5 28.5t42.5 78.5q5 45 -20.5 68.5t-79.5 23.5q-61 0 -94.5 -30t-40.5 -77q-5 -43 20.5 -67.5t77.5 -24.5z" />
<glyph horiz-adv-x="712" d="M840 795q6 -14 -6 -31q-77 -106 -132 -201l-315 -543q-13 -16 -31 -16h-151q-15 0 -20 8.5t1 20.5l256 440q55 88 84 125q9 10 8 17.5t-12 7.5h-305q-25 0 -22 26l24 135q3 23 27 23h567q21 0 27 -12z" />
<glyph horiz-adv-x="751" d="M541 817q132 0 198.5 -55.5t51.5 -153.5q-15 -120 -134 -170q-19 -6 -4 -18q117 -61 99 -191q-15 -108 -108 -172.5t-247 -64.5q-146 0 -217.5 60t-54.5 167q18 137 162 201q11 4 12.5 9.5t-6.5 8.5q-93 52 -76 158q14 103 100 162t224 59zM512 651q-49 0 -78.5 -20.5 t-32.5 -55.5q-5 -31 18.5 -49t67.5 -18q46 0 76 21.5t35 56.5q3 31 -20 48t-66 17zM459 338q-61 0 -96.5 -26.5t-40.5 -67.5q-6 -37 22 -57.5t82 -20.5q60 0 97.5 24t41.5 66q4 39 -24 60.5t-82 21.5z" />
<glyph horiz-adv-x="745" d="M78 31l143 155q48 51 82 74q12 9 10 17.5t-16 5.5q-40 -13 -96 -13q-103 0 -161 67.5t-40 182.5q21 136 116.5 215.5t250.5 79.5q149 0 219.5 -73t48.5 -205q-15 -107 -64 -197t-151 -201l-115 -125q-11 -14 -31 -14h-182q-17 0 -21 9.5t7 21.5zM338 631 q-58 0 -94.5 -28.5t-42.5 -78.5q-5 -45 20.5 -68.5t79.5 -23.5q61 0 94.5 30t40.5 77q5 43 -20.5 67.5t-77.5 24.5z" />
<glyph horiz-adv-x="798" d="M549 1452q133 0 206.5 -83t73.5 -230q0 -65 -12.5 -133t-42.5 -136.5t-73.5 -122t-111 -87t-149.5 -33.5q-135 0 -209.5 84.5t-74.5 232.5q0 66 13 134t43 136t74 120t112 85t151 33zM549 1268q-52 0 -92.5 -36t-62 -91t-32 -108.5t-10.5 -98.5q0 -123 84 -123 q41 0 75.5 24.5t56.5 61.5t37 83t21.5 87.5t6.5 75.5q0 125 -84 125z" />
<glyph horiz-adv-x="499" d="M557 1440q14 -14 8 -31l-129 -752q-3 -22 -26 -22h-150q-25 0 -22 27l71 413q8 55 25 103q5 9 1.5 12.5t-13.5 -0.5l-82 -31q-25 -6 -31 19l-27 127q-3 21 19 30l325 111q19 6 31 -6z" />
<glyph horiz-adv-x="722" d="M248 1395l78 24q95 33 200 33q132 0 195.5 -63t46.5 -177q-21 -143 -180 -217l-191 -92q-55 -30 -61 -84h326q25 0 22 -26l-25 -131q-3 -23 -26 -23h-508q-26 0 -23 27l17 84q20 119 72.5 195t144.5 120l182 90q44 21 49 55q3 26 -16.5 42t-56.5 16q-56 0 -142 -27 l-73 -22q-11 -5 -19.5 0.5t-9.5 17.5l-21 129q-3 23 19 29z" />
<glyph horiz-adv-x="759" d="M260 1403l66 20q77 29 176 29q134 0 199.5 -59t50.5 -164q-15 -117 -117 -168q-11 -7 -12 -10q-2 -4 1 -7.5t10 -6.5t9 -5q93 -55 76 -164q-17 -116 -111.5 -178.5t-247.5 -62.5q-82 0 -184 30l-65 25q-27 7 -13 31l70 131q9 22 33 12l63 -20q68 -25 127 -25 q57 0 92.5 21t38.5 55q3 30 -21 47.5t-69 17.5h-61q-26 0 -23 27l23 131q3 23 26 23h64q77 0 86 71q2 29 -18 46.5t-60 17.5q-53 0 -117 -21l-63 -18q-11 -5 -19.5 0.5t-9.5 17.5l-18 127q-3 23 18 29z" />
<glyph horiz-adv-x="774" d="M788 954l-18 -110q-3 -23 -27 -23h-67l-27 -159q-3 -23 -26 -23h-150q-25 0 -22 27l26 155h-344q-25 0 -22 27l24 129q3 17 15 29q72 72 86 88l217 249q22 24 67 84q9 15 29 15h209q25 0 22 -27l-75 -434h61q25 0 22 -27zM506 981l14 82q9 60 37 143q3 12 -4 15t-16 -9 l-138 -155q-30 -34 -57 -56q-10 -9 -7 -14.5t15 -5.5h156z" />
<glyph horiz-adv-x="720" d="M774 1413l-72 -137q-10 -19 -28 -19h-250l-8 -40q0 -1 -5.5 -26t-9.5 -36q-3 -10 7 -10q6 -1 15 0.5t13 1.5h31q5 0 19 1t22 1q123 0 182.5 -63t42.5 -173q-20 -135 -115.5 -210.5t-244.5 -75.5q-99 0 -195 35l-65 24q-27 7 -13 31l72 131q9 22 33 12l61 -24 q80 -25 137 -25q56 0 90 29t39 71q3 37 -20.5 57.5t-67.5 20.5q-16 0 -82 -4l-131 -14q-18 -3 -30 12q-9 12 -6 29l69 407q3 23 27 23h467q14 0 18.5 -8.5t-2.5 -20.5z" />
<glyph horiz-adv-x="745" d="M690 1411l-143 -156q-46 -49 -82 -73q-12 -9 -10 -17.5t16 -5.5q37 12 96 12q103 0 161 -67t40 -182q-21 -136 -116.5 -215.5t-250.5 -79.5q-149 0 -219.5 73t-48.5 205q15 107 64 197t151 201l115 124q12 15 31 15h182q17 0 21 -9.5t-7 -21.5zM430 811q58 0 94.5 28.5 t42.5 78.5q5 45 -20.5 68.5t-79.5 23.5q-61 0 -94.5 -30t-40.5 -77q-5 -43 20.5 -67.5t77.5 -24.5z" />
<glyph horiz-adv-x="712" d="M840 1430q6 -14 -6 -31q-77 -106 -132 -201l-315 -543q-13 -16 -31 -16h-151q-15 0 -20 8.5t1 20.5l256 440q55 88 84 125q9 11 8 17.5t-12 6.5h-305q-25 0 -22 27l24 135q3 23 27 23h567q21 0 27 -12z" />
<glyph horiz-adv-x="751" d="M541 1452q132 0 198.5 -55.5t51.5 -153.5q-15 -120 -134 -170q-19 -6 -4 -18q117 -61 99 -191q-15 -108 -108 -172.5t-247 -64.5q-146 0 -217.5 60t-54.5 167q18 137 162 201q11 4 12.5 9.5t-6.5 8.5q-93 52 -76 158q14 103 100 162t224 59zM512 1286q-49 0 -78.5 -20.5 t-32.5 -55.5q-5 -31 18.5 -49t67.5 -18q46 0 76 21.5t35 56.5q3 31 -20 48t-66 17zM459 973q-61 0 -96.5 -26.5t-40.5 -67.5q-6 -37 22 -57.5t82 -20.5q60 0 97.5 24t41.5 66q4 39 -24 60.5t-82 21.5z" />
<glyph horiz-adv-x="745" d="M246 668l143 155q48 51 82 74q12 9 10 17.5t-16 5.5q-40 -13 -96 -13q-103 0 -161 67.5t-40 182.5q21 136 116.5 215.5t250.5 79.5q149 0 219.5 -73t48.5 -205q-15 -107 -64 -197t-151 -201l-115 -125q-11 -14 -31 -14h-182q-17 0 -21 9.5t7 21.5zM506 1268 q-58 0 -94.5 -28.5t-42.5 -78.5q-5 -45 20.5 -68.5t79.5 -23.5q61 0 94.5 30t40.5 77q5 43 -20.5 67.5t-77.5 24.5z" />
<glyph horiz-adv-x="1169" d="M670 1102q202 0 314 -117.5t112 -320.5q0 -90 -19.5 -182t-64.5 -183.5t-110.5 -162.5t-166.5 -115t-223 -44q-201 0 -312.5 117.5t-111.5 321.5q0 72 14 148t42.5 154t76 146t109.5 122t150 85t190 31zM662 854q-63 0 -116 -29t-87 -75t-57.5 -104t-33.5 -114t-10 -108 q0 -95 41 -147t121 -52q78 0 139.5 43t96 109.5t52 137.5t17.5 138q0 97 -41 149t-122 52z" />
<glyph horiz-adv-x="739" d="M506 0h-230q-25 0 -22 27l90 522q18 95 39 160q9 22 -12 22q-3 0 -8.5 -1.5t-12.5 -3.5t-10 -3l-143 -55q-25 -9 -31 16l-43 184q-6 22 16 31l518 197q18 6 33 -9l8 -8q17 -13 11 -30l-177 -1026q-3 -23 -26 -23z" />
<glyph horiz-adv-x="1069" d="M244 1024l106 33q161 45 279 45q181 0 281 -73.5t100 -203.5q0 -101 -60 -182t-209 -147l-266 -125q-99 -46 -115 -127h506q26 0 23 -27l-33 -194q-3 -23 -27 -23h-759q-26 0 -23 27l19 106q31 174 107.5 281t215.5 170l270 127q42 21 61 39.5t19 42.5q0 28 -31.5 44.5 t-86.5 16.5q-127 0 -215 -27l-127 -36q-12 -4 -20.5 1t-10.5 17l-25 186q-3 22 21 29z" />
<glyph horiz-adv-x="1044" d="M242 1028l104 33q130 41 258 41q181 0 278 -70.5t97 -206.5q0 -160 -182 -241q-28 -15 -2 -27q68 -32 103.5 -91.5t35.5 -127.5q0 -55 -17.5 -106t-57.5 -98t-99 -81.5t-147.5 -55t-196.5 -20.5q-146 0 -275 46l-104 38q-26 7 -12 31l100 182q10 23 31 13l102 -37 q79 -25 199 -25q96 0 152.5 34t56.5 93q0 41 -41 64.5t-113 23.5h-98q-26 0 -23 27l35 192q3 23 27 23h100q69 0 106 28.5t37 65.5q0 78 -133 78q-95 0 -186 -27l-101 -28q-10 -4 -18 1t-10 17l-25 182q-3 23 19 29z" />
<glyph horiz-adv-x="1138" d="M1038 446l-34 -192q-3 -23 -27 -23h-109l-34 -208q-3 -23 -27 -23h-229q-26 0 -23 27l35 202h-524q-26 0 -23 27l37 209q3 16 14 27q28 25 119 116l352 355q37 37 92 102q11 14 31 14h299q26 0 23 -26l-101 -580h107q25 0 22 -27zM631 473l16 94q19 106 49 201 q7 20 -6 20q-9 0 -22 -12l-222 -211q-39 -44 -69 -65q-12 -10 -9 -18.5t17 -8.5h246z" />
<glyph horiz-adv-x="1087" d="M1012 1051l-90 -197q-9 -18 -29 -18h-387l-14 -78q-4 -26 -13 -60q-6 -11 -3.5 -17t16.5 -5l38 6q40 6 74 6q170 0 264.5 -75t94.5 -207q0 -62 -16 -120.5t-54.5 -115.5t-95.5 -99t-145 -68t-197 -26q-168 0 -289 37l-117 35q-26 10 -14 33l96 186q9 21 33 15l94 -29 q106 -29 205 -29q100 0 163.5 40.5t63.5 96.5q0 95 -141 95q-45 0 -135 -11l-199 -24q-19 -3 -31 12l-4 4q-16 16 -10 33l96 586q3 22 27 22h700q13 0 18.5 -8t0.5 -20z" />
<glyph horiz-adv-x="1130" d="M891 1049l-225 -211q-57 -52 -131 -109q-14 -12 -11 -21.5t21 -5.5q70 27 141 27q159 0 247.5 -79.5t88.5 -221.5q0 -66 -17.5 -128t-58 -121.5t-101 -103.5t-154 -71t-208.5 -27q-195 0 -302 90t-107 242q0 144 65.5 275t206.5 260l240 223q12 12 30 12h263 q17 0 20.5 -9t-8.5 -21zM518 225q101 0 167.5 48.5t66.5 111.5q0 55 -42 81t-132 26q-108 0 -170 -49t-62 -115q0 -53 42.5 -78t129.5 -25z" />
<glyph horiz-adv-x="1081" d="M1106 1063q9 -18 -2 -35q-77 -100 -193 -280l-467 -732q-8 -16 -28 -16h-244q-15 0 -19.5 8.5t3.5 20.5l389 606q56 91 127 170q16 19 11 25t-30 6h-475q-25 0 -22 26l37 195q3 22 26 22h858q21 0 29 -16z" />
<glyph horiz-adv-x="1114" d="M659 1102q180 0 285 -73.5t105 -192.5q0 -171 -211 -252q-14 -6 -16.5 -14t7.5 -13q77 -32 124.5 -92t47.5 -139q0 -53 -17 -101.5t-57.5 -94.5t-100.5 -79.5t-152 -53.5t-207 -20q-199 0 -311.5 75.5t-112.5 203.5q0 106 63.5 178.5t194.5 122.5q18 6 18.5 13.5 t-12.5 13.5q-63 29 -97 82t-34 116q0 61 27.5 116t83 102t151.5 74.5t221 27.5zM625 858q-88 0 -135.5 -30t-47.5 -78q0 -32 37 -51t101 -19q87 0 136.5 29.5t49.5 81.5q0 32 -37.5 49.5t-103.5 17.5zM559 453q-105 0 -170 -38.5t-65 -103.5q0 -40 45.5 -63t128.5 -23 q110 0 172.5 36.5t62.5 100.5q0 41 -47.5 66t-126.5 25z" />
<glyph horiz-adv-x="1130" d="M262 31l225 211q50 45 131 108q14 12 11 21.5t-21 5.5q-70 -27 -141 -27q-159 0 -247.5 79.5t-88.5 221.5q0 66 17.5 128t58 121.5t101 103.5t154 71t208.5 27q195 0 302 -90t107 -242q0 -144 -65.5 -274.5t-206.5 -259.5l-240 -224q-12 -12 -30 -12h-263 q-17 0 -20.5 9.5t8.5 21.5zM635 854q-101 0 -167.5 -48.5t-66.5 -111.5q0 -55 42 -80.5t132 -25.5q108 0 170 49t62 115q0 53 -42.5 77.5t-129.5 24.5z" />
<glyph horiz-adv-x="532" d="M387 1235q85 0 125 -50t25 -136q-14 -72 -59.5 -112t-115.5 -40q-85 0 -124.5 50t-24.5 136q12 72 57 112t117 40zM264 528q85 0 125 -50t25 -136q-14 -72 -59 -112t-115 -40q-85 0 -125 50.5t-25 136.5q12 72 57 111.5t117 39.5z" />
<glyph horiz-adv-x="538" d="M389 1235q85 0 125 -50t25 -136q-14 -72 -59 -112t-115 -40q-85 0 -125 50t-25 136q12 72 57 112t117 40zM27 -61l135 188q55 68 -4 86q-35 10 -56.5 45t-21.5 80q0 35 8.5 67t28 62.5t58.5 49t93 18.5q66 0 106 -40t40 -106q0 -140 -129 -323l-103 -144q-8 -14 -28 -14 h-111q-15 0 -19.5 9t3.5 22z" />
<glyph horiz-adv-x="811" d="M877 1587l-35 -194q-3 -22 -27 -25q-68 -6 -119 -53t-61 -115l-43 -252q-15 -76 -47.5 -126t-91.5 -87q-4 -2 -11 -6.5t-9 -6t-6.5 -5t-5 -5t-1.5 -4t0.5 -4.5t4 -5t7 -6l10.5 -7q42 -24 60.5 -83t7.5 -132l-43 -244q-24 -145 123 -157q25 0 22 -27l-34 -195 q-3 -22 -27 -22q-187 8 -277.5 119.5t-58.5 298.5l43 245q18 109 -82 109h-22q-26 0 -23 27l35 196q3 23 27 23h10q51 0 89.5 34.5t49.5 88.5l41 252q31 184 152.5 285.5t318.5 109.5q26 0 23 -27z" />
<glyph horiz-adv-x="811" d="M4 -145l35 194q3 22 27 25q68 6 119 53t61 115l43 252q15 76 47.5 126t91.5 87q3 2 9.5 6t8.5 5.5t6.5 4.5t5 4.5t2.5 4t0.5 4t-2 4t-4 5l-7 5t-9.5 6.5q-42 24 -60 83t-7 132l43 243q24 146 -123 158q-26 0 -23 27l35 194q3 23 27 23q187 -8 277.5 -119.5t58.5 -298.5 l-43 -246q-18 -108 82 -108h22q26 0 23 -27l-35 -196q-3 -23 -27 -23h-10q-51 0 -89.5 -34.5t-49.5 -88.5l-41 -252q-31 -184 -152.5 -285.5t-318.5 -109.5q-26 0 -23 27z" />
<glyph horiz-adv-x="772" d="M371 86h164q25 0 22 -27l-35 -194q-3 -23 -26 -23h-396q-25 0 -22 27l295 1708q3 22 26 22h398q25 0 22 -26l-35 -195q-3 -22 -26 -22h-168z" />
<glyph horiz-adv-x="772" d="M291 1382l35 195q3 22 26 22h396q25 0 22 -26l-295 -1708q-3 -23 -26 -23h-398q-25 0 -22 27l34 194q3 23 27 23h168l219 1270h-164q-25 0 -22 26z" />
<glyph horiz-adv-x="749" d="M496 -158h-191q-19 0 -29 19q-96 270 -96 540q0 293 94.5 602.5t286.5 579.5q8 16 29 16h223q15 0 20 -8.5t-4 -21.5q-204 -306 -301.5 -580t-97.5 -581q0 -139 22.5 -265.5t63.5 -273.5q7 -27 -20 -27z" />
<glyph d="M340 1599h190q20 0 29 -18q96 -270 96 -541q0 -293 -94.5 -602t-286.5 -579q-8 -17 -28 -17h-223q-15 0 -20.5 9t3.5 22q204 306 302 580.5t98 580.5q0 139 -22.5 264t-64.5 275q-7 26 21 26z" />
<glyph horiz-adv-x="460" d="M217 -446h-149q-20 0 -29 18q-78 208 -31 481q45 270 203 486q8 14 29 14h145q15 0 19.5 -8.5t-3.5 -20.5q-77 -119 -125 -228t-71 -243q-13 -72 -16 -137.5t4.5 -125.5t17.5 -106t27 -104q6 -26 -21 -26z" />
<glyph horiz-adv-x="460" d="M92 553h150q19 0 28 -18q79 -208 31 -482q-44 -269 -203 -485q-8 -14 -28 -14h-146q-15 0 -19.5 8t3.5 20q77 119 125 228t71 243q13 72 16 137.5t-4 125.5t-17 106.5t-27 103.5q-7 27 20 27z" />
<glyph horiz-adv-x="460" d="M432 803h-149q-20 0 -29 18q-79 208 -31 482q44 269 203 485q8 14 29 14h145q15 0 19.5 -8t-3.5 -20q-77 -119 -125 -228t-71 -243q-13 -72 -16 -137.5t4.5 -126t17.5 -106.5t27 -104q7 -26 -21 -26z" />
<glyph horiz-adv-x="460" d="M307 1802h150q19 0 28 -18q78 -208 31 -481q-45 -270 -203 -486q-8 -14 -28 -14h-146q-15 0 -19.5 8t3.5 20q76 119 124.5 228.5t71.5 243.5q13 72 16 137.5t-4 125.5t-17 106.5t-27 103.5q-7 26 20 26z" />
<glyph horiz-adv-x="1288" d="M1122 1587l-35 -194q-3 -22 -26 -25q-68 -6 -119 -53t-61 -115l-43 -252q-15 -76 -48 -126t-92 -87q-3 -2 -9.5 -6t-8.5 -5.5t-6.5 -4.5t-5 -4.5t-2.5 -4t-0.5 -4t2 -4t4 -5l7 -5t9.5 -6.5q42 -24 60.5 -83t7.5 -132l-43 -244q-24 -145 123 -157q25 0 22 -27l-35 -195 q-3 -22 -26 -22q-187 8 -277.5 119.5t-58.5 298.5l43 245q18 109 -82 109h-23q-25 0 -22 27l35 196q3 23 26 23h11q51 0 89.5 34.5t49.5 88.5l41 252q31 184 152.5 285.5t318.5 109.5q25 0 22 -27z" />
<glyph horiz-adv-x="1288" d="M233 -145l35 194q3 22 27 25q68 6 119 53t61 115l43 252q15 76 47.5 126t91.5 87q4 2 11 6.5t9 6t6.5 5t5 5t1.5 4t-0.5 4.5t-4 5t-7 6l-10.5 7q-42 24 -60.5 83t-7.5 132l43 243q24 146 -123 158q-25 0 -22 27l34 194q3 23 27 23q187 -8 277.5 -119.5t58.5 -298.5 l-43 -246q-18 -108 82 -108h22q26 0 23 -27l-35 -196q-3 -23 -26 -23h-11q-51 0 -89.5 -34.5t-49.5 -88.5l-41 -252q-31 -184 -152.5 -285.5t-318.5 -109.5q-26 0 -23 27z" />
<glyph horiz-adv-x="1288" d="M598 86h164q25 0 22 -27l-34 -194q-3 -23 -27 -23h-395q-26 0 -23 27l295 1708q3 22 27 22h397q26 0 23 -26l-35 -195q-3 -22 -27 -22h-168z" />
<glyph horiz-adv-x="1288" d="M582 1382l34 195q3 22 27 22h395q26 0 23 -26l-295 -1708q-3 -23 -27 -23h-397q-26 0 -23 27l35 194q3 23 27 23h168l219 1270h-164q-25 0 -22 26z" />
<glyph horiz-adv-x="1288" d="M725 -158h-190q-19 0 -29 19q-96 270 -96 540q0 293 94.5 602.5t286.5 579.5q8 16 28 16h223q15 0 20.5 -8.5t-3.5 -21.5q-204 -306 -302 -580.5t-98 -580.5q0 -139 22.5 -265.5t63.5 -273.5q7 -27 -20 -27z" />
<glyph horiz-adv-x="1288" d="M618 1599h191q20 0 29 -18q96 -270 96 -541q0 -293 -94.5 -602t-286.5 -579q-9 -17 -29 -17h-223q-15 0 -20 9t4 22q204 306 301.5 580t97.5 581q0 139 -22.5 265.5t-63.5 273.5q-6 26 20 26z" />
<glyph horiz-adv-x="1701" d="M1616 836l-35 -195q-3 -23 -27 -23h-1364q-25 0 -22 27l35 195q3 22 26 22h1364q26 0 23 -26z" />
<glyph horiz-adv-x="1417" d="M1331 836l-35 -195q-3 -23 -26 -23h-1080q-25 0 -22 27l35 195q3 22 26 22h1080q25 0 22 -26z" />
<glyph horiz-adv-x="892" d="M807 836l-35 -195q-3 -23 -27 -23h-555q-25 0 -22 27l35 195q3 22 26 22h555q26 0 23 -26z" />
<glyph horiz-adv-x="653" d="M508 117l-25 -133q-3 -23 -26 -23h-441q-25 0 -22 27l22 133q3 22 27 22h442q26 0 23 -26z" />
<glyph horiz-adv-x="653" d="M723 1366l-25 -133q-3 -23 -26 -23h-441q-25 0 -22 27l22 133q3 23 27 23h442q26 0 23 -27z" />
<glyph horiz-adv-x="1288" d="M1186 825l-35 -194q-3 -23 -27 -23h-895q-25 0 -22 27l35 194q3 23 26 23h895q26 0 23 -27z" />
<glyph horiz-adv-x="1308" d="M449 737l194 -366q7 -12 2.5 -20.5t-18.5 -8.5h-232q-18 0 -30 18l-185 347q-8 13 -8 30v6q0 17 12 29l305 354q12 15 31 15h244q17 0 21 -9.5t-7 -21.5zM940 737l195 -366q7 -12 2 -20.5t-19 -8.5h-231q-19 0 -31 18l-184 347q-8 13 -8 30v6q0 17 12 29l305 354 q12 15 31 15h243q17 0 21.5 -9.5t-6.5 -21.5z" />
<glyph horiz-adv-x="1308" d="M274 1139h232q18 0 31 -19l184 -346q8 -13 8 -31v-6q0 -16 -12 -28l-305 -355q-11 -14 -31 -14h-244q-17 0 -21 9.5t7 21.5l330 372l-195 367q-7 12 -2.5 20.5t18.5 8.5zM766 1139h231q18 0 31 -19l184 -346q9 -15 9 -31v-6q0 -15 -13 -28l-305 -355q-11 -14 -31 -14 h-243q-17 0 -21.5 9.5t6.5 21.5l330 372l-194 367q-7 12 -2.5 20.5t18.5 8.5z" />
<glyph horiz-adv-x="817" d="M449 737l194 -366q7 -12 2.5 -20.5t-18.5 -8.5h-232q-18 0 -30 18l-185 347q-8 13 -8 30v6q0 17 12 29l305 354q12 15 31 15h244q17 0 21 -9.5t-7 -21.5z" />
<glyph horiz-adv-x="817" d="M274 1139h232q18 0 31 -19l184 -346q8 -13 8 -31v-6q0 -16 -12 -28l-305 -355q-11 -14 -31 -14h-244q-17 0 -21 9.5t7 21.5l330 372l-195 367q-7 12 -2.5 20.5t18.5 8.5z" />
<glyph horiz-adv-x="1107" d="M479 1264l422 -1440q6 -29 -20 -29h-209q-21 0 -27 21l-424 1439q-6 29 21 29h209q22 0 28 -20z" />
<glyph horiz-adv-x="823" d="M829 1276l-34 -195q-3 -22 -27 -22q-72 -6 -119.5 -46t-56.5 -100l-29 -161q-22 -150 -137 -201q-47 -19 -10 -35q46 -21 64.5 -77t6.5 -128l-26 -153q-18 -121 127 -133q25 0 22 -27l-35 -195q-3 -22 -26 -22q-191 6 -283 110.5t-61 282.5l26 156q15 90 -84 90h-24 q-26 0 -23 26l35 195q3 23 27 23h10q51 0 89 30t46 76l27 162q31 169 156 266t317 105q25 0 22 -27z" />
<glyph horiz-adv-x="823" d="M10 -190l35 194q3 23 27 23q72 6 119.5 46t56.5 99l28 162q22 149 138 201q46 18 10 34q-46 21 -65 77t-7 128l27 154q18 121 -127 133q-26 0 -23 26l35 195q3 23 27 23q191 -6 283 -111t61 -283l-27 -155q-15 -90 84 -90h25q25 0 22 -27l-34 -195q-3 -22 -27 -22h-10 q-51 0 -89.5 -30.5t-46.5 -76.5l-26 -161q-31 -169 -156 -266t-317 -105q-26 0 -23 27z" />
<glyph horiz-adv-x="706" d="M305 37h166q26 0 23 -27l-35 -196q-3 -23 -27 -23h-401q-26 0 -23 27l248 1446q3 22 27 22h401q26 0 23 -26l-35 -195q-3 -23 -27 -23h-168z" />
<glyph horiz-adv-x="706" d="M416 1042h-166q-26 0 -23 27l35 197q3 22 27 22h401q26 0 23 -26l-248 -1446q-3 -23 -27 -23h-401q-26 0 -23 27l35 194q3 23 27 23h168z" />
<glyph horiz-adv-x="530" d="M362 1102q85 0 125 -50.5t25 -136.5q-14 -72 -59 -111.5t-115 -39.5q-85 0 -125 50t-25 136q12 72 57 112t117 40zM227 315q85 0 125 -50t25 -136q-14 -72 -59 -112t-115 -40q-85 0 -125 50.5t-25 136.5q12 72 57 111.5t117 39.5z" />
<glyph horiz-adv-x="571" d="M528 1053l-24 -148q-14 -83 -61.5 -253.5t-59.5 -223.5q-3 -22 -27 -22h-168q-25 0 -22 26q6 52 18 221t27 252l25 152q3 22 26 22h244q25 0 22 -26zM254 315q67 0 103 -33.5t36 -93.5q0 -85 -50 -148t-146 -63q-68 0 -105 34t-37 95q0 80 52 144.5t147 64.5z" />
<glyph horiz-adv-x="1345" d="M1036 621l-24 -168h194q26 0 23 -27l-25 -182q-3 -23 -26 -23h-199l-31 -217q-3 -22 -26 -22h-193q-25 0 -22 26l30 213h-211l-30 -217q-3 -22 -27 -22h-190q-26 0 -23 26l31 213h-195q-25 0 -22 27l24 182q3 23 27 23h198l25 168h-194q-26 0 -23 26l25 180q3 23 26 23 h199l29 207q3 22 26 22h191q25 0 22 -26l-29 -203h213l29 207q3 22 27 22h192q26 0 23 -26l-29 -203h195q25 0 22 -27l-24 -180q-3 -22 -27 -22h-201zM795 621h-211l-25 -168h211z" />
<glyph horiz-adv-x="731" d="M479 -209h-219q-20 0 -29 19q-155 346 -86 749q35 200 115 372t215 341q11 14 31 14h231q15 0 19.5 -9t-4.5 -22q-142 -197 -227 -375t-115 -356q-27 -176 -5 -339.5t95 -364.5q4 -13 -1.5 -21t-19.5 -8z" />
<glyph horiz-adv-x="731" d="M264 1288h219q20 0 29 -18q155 -346 86 -750q-35 -200 -115 -372t-215 -341q-11 -14 -30 -14h-232q-15 0 -19 8.5t5 22.5q142 197 227 375t115 356q27 176 5 340t-95 365q-9 28 20 28z" />
<glyph horiz-adv-x="1021" d="M190 1024l123 37q133 41 295 41q173 0 271 -61t98 -167q0 -72 -35 -136t-98 -107l-139 -99q-40 -28 -58 -48t-24 -48l-2 -8q0 -22 -25 -22h-227q-26 0 -23 26l6 29q15 102 99 162l163 112q60 39 60 72q0 22 -31 34.5t-86 12.5q-111 0 -205 -27l-127 -36q-10 -4 -18 1 t-10 17l-25 186q-3 23 18 29zM465 315q66 0 101.5 -33.5t35.5 -93.5q0 -54 -19 -100t-64.5 -78.5t-110.5 -32.5q-68 0 -105 34.5t-37 97.5q0 80 51.5 143t147.5 63z" />
<glyph horiz-adv-x="811" d="M432 1051l-29 -162q-7 -41 -40 -146t-41 -137q-6 -20 -29 -20h-109q-22 0 -22 24q1 18 2.5 127.5t7.5 151.5l31 166q3 22 26 22h181q25 0 22 -26zM793 1051l-29 -162q-7 -41 -40.5 -146t-41.5 -137q-6 -20 -29 -20h-108q-23 0 -23 24q1 18 2.5 127.5t7.5 151.5l31 166 q3 22 27 22h180q26 0 23 -26z" />
<glyph horiz-adv-x="976" d="M377 1077l-82 -82q-127 -130 -145 -235q-15 -84 20 -131t111 -47q77 0 127.5 41t60.5 114q19 102 -57 144q-27 11 -26.5 27.5t30.5 45.5l119 123h-158zM805 1077l-82 -82q-127 -130 -145 -235q-15 -84 20 -131t111 -47q77 0 127.5 41t60.5 114q19 102 -57 144 q-27 11 -26.5 27.5t30.5 45.5l119 123h-158z" />
<glyph horiz-adv-x="976" d="M283 608l82 82q126 129 145 236q15 84 -20 131t-111 47q-77 0 -128 -41.5t-61 -114.5q-19 -101 58 -143q27 -11 26.5 -28t-30.5 -46l-119 -123h158zM711 608l82 82q126 129 145 236q15 84 -20 131t-111 47q-77 0 -128 -41.5t-61 -114.5q-19 -101 58 -143q27 -11 26.5 -28 t-30.5 -46l-119 -123h158z" />
<glyph horiz-adv-x="548" d="M444 1077l-82 -82q-127 -130 -145 -235q-15 -84 20 -131t111 -47q77 0 128 41t61 114q19 102 -58 144q-27 11 -26.5 27.5t30.5 45.5l119 123h-158z" />
<glyph horiz-adv-x="548" d="M283 608l82 82q126 129 145 236q15 84 -20 131t-111 47q-77 0 -128 -41.5t-61 -114.5q-19 -101 58 -143q27 -11 26.5 -28t-30.5 -46l-119 -123h158z" />
<glyph horiz-adv-x="450" d="M432 1051l-29 -162q-7 -41 -40 -146t-41 -137q-6 -20 -29 -20h-109q-22 0 -22 24q1 18 2.5 127.5t7.5 151.5l31 166q3 22 26 22h181q25 0 22 -26z" />
<glyph horiz-adv-x="540" d="M367 1102q85 0 124.5 -50t24.5 -137q-14 -72 -59 -111.5t-115 -39.5q-85 0 -124.5 50t-24.5 136q12 72 57 112t117 40zM-10 -281l135 189q55 68 -4 86q-35 10 -56.5 45t-21.5 80q0 35 8.5 66.5t28 62.5t58.5 49t93 18q66 0 106 -39.5t40 -105.5q0 -141 -129 -324 l-103 -143q-8 -14 -28 -14h-111q-15 0 -19.5 8.5t3.5 21.5z" />
<glyph horiz-adv-x="1120" d="M924 1284h219q15 0 19.5 -8.5t-3.5 -20.5l-921 -1443q-8 -17 -29 -17h-217q-15 0 -20 8.5t3 20.5l920 1444q8 16 29 16z" />
<glyph horiz-adv-x="1230" d="M268 1087h895q26 0 23 -26l-35 -195q-3 -22 -27 -22h-895q-25 0 -22 26l35 195q3 22 26 22zM188 621h895q26 0 23 -27l-35 -195q-3 -22 -27 -22h-894q-26 0 -23 26l35 195q3 23 26 23z" />
<glyph horiz-adv-x="1292" d="M311 1290l873 -448q17 -9 14 -31l-22 -141q-3 -18 -21 -27l-1032 -450q-14 -6 -22 -0.5t-5 20.5l39 231q6 19 23 27l661 281l-563 278q-17 9 -14 31l39 213q3 26 30 16z" />
<glyph horiz-adv-x="1290" d="M174 668l23 141q3 19 20 27l1032 450q14 6 22 0.5t5 -20.5l-39 -232q-6 -17 -23 -26l-661 -281l563 -278q17 -9 14 -31l-38 -213q-3 -27 -31 -17l-873 449q-17 9 -14 31z" />
<glyph horiz-adv-x="1290" d="M1202 827l-35 -196q-3 -23 -26 -23h-348l-66 -379q-3 -22 -27 -22h-208q-26 0 -23 26l66 375h-347q-25 0 -22 27l35 196q3 23 26 23h351l65 381q3 22 27 22h209q25 0 22 -26l-65 -377h344q25 0 22 -27z" />
<glyph horiz-adv-x="675" d="M82 297h442q26 0 23 -27l-25 -133q-3 -22 -26 -22h-441q-25 0 -22 26l22 133q3 23 27 23zM27 -10h442q26 0 23 -27l-25 -133q-3 -23 -27 -23h-440q-26 0 -23 27l23 133q3 23 27 23z" />
<glyph horiz-adv-x="653" d="M508 117l-25 -133q-3 -23 -26 -23h-131l-25 -141q-3 -23 -27 -23h-133q-25 0 -22 27l24 137h-127q-25 0 -22 27l22 133q3 22 27 22h133l25 142q3 22 26 22h133q26 0 23 -26l-25 -138h127q26 0 23 -26z" />
<glyph horiz-adv-x="675" d="M297 1546h442q26 0 23 -26l-25 -134q-3 -22 -26 -22h-441q-25 0 -22 27l22 133q3 22 27 22zM242 1239h442q26 0 23 -27l-25 -133q-3 -22 -27 -22h-440q-25 0 -22 26l22 134q3 22 27 22z" />
<glyph horiz-adv-x="653" d="M723 1366l-25 -133q-3 -23 -26 -23h-131l-25 -141q-3 -22 -27 -22h-133q-25 0 -22 26l24 137h-127q-25 0 -22 27l22 133q3 23 27 23h133l25 141q3 22 26 22h133q26 0 23 -26l-25 -137h127q26 0 23 -27z" />
<glyph horiz-adv-x="1288" d="M164 559l147 197q112 147 264 147q73 0 121 -51l74 -72q21 -18 41 -18q23 0 49 33l66 90q8 14 28 14h228q15 0 19 -9.5t-5 -21.5l-147 -200q-108 -144 -258 -144q-68 0 -123 49l-82 74q-18 15 -35 15q-27 0 -51 -33l-66 -86q-12 -15 -31 -15h-225q-15 0 -19 9.5t5 21.5z " />
<glyph horiz-adv-x="1288" d="M1212 1061l-34 -195q-3 -22 -27 -22h-895q-26 0 -23 26l35 195q3 22 27 22h895q25 0 22 -26zM1133 594l-35 -195q-3 -22 -27 -22h-895q-25 0 -22 26l34 195q3 23 27 23h895q26 0 23 -27z" />
<glyph horiz-adv-x="1288" d="M307 1270l873 -449q17 -9 14 -30l-23 -142q-3 -17 -20 -26l-1032 -451q-14 -6 -22 0t-5 21l39 231q6 19 23 27l661 280l-563 279q-17 9 -14 30l38 213q3 27 31 17z" />
<glyph horiz-adv-x="1288" d="M174 668l23 141q3 19 20 27l1032 450q14 6 22 0.5t5 -20.5l-39 -232q-6 -17 -23 -26l-661 -281l563 -278q17 -9 14 -31l-38 -213q-3 -27 -31 -17l-873 449q-17 9 -14 31z" />
<glyph horiz-adv-x="1288" d="M1202 821l-35 -196q-3 -23 -26 -23h-348l-66 -379q-3 -22 -27 -22h-208q-26 0 -23 26l66 375h-347q-25 0 -22 27l35 196q3 23 26 23h351l65 381q3 22 27 22h209q25 0 22 -26l-65 -377h344q25 0 22 -27z" />
<glyph horiz-adv-x="1785" d="M1356 82l-226 -57q-184 -48 -342 -48q-297 0 -467.5 166.5t-170.5 438.5q0 79 15.5 162t49.5 169.5t84 166t123.5 150t162.5 122.5t207 82t252 30q155 0 283 -46t213.5 -125.5t132.5 -186.5t47 -229q0 -83 -20.5 -157t-61.5 -136t-112 -98.5t-164 -36.5q-109 0 -170 63 t-98 209q-16 66 -45.5 101.5t-92.5 35.5q-69 0 -118.5 -44t-49.5 -118q0 -51 35 -79.5t97 -28.5q48 0 90 12q20 6 26 -16q33 -100 92 -152q12 -9 11.5 -18t-15.5 -13l-100 -24q-79 -21 -147 -21q-158 0 -244 75t-86 212q0 61 14 121t47 118.5t82 103t124 72t167 27.5 q111 0 184 -38t117 -119q26 -43 43.5 -93t23.5 -80.5t18.5 -51.5t33.5 -21t36.5 18.5t23.5 46.5t12 54t4 47q0 165 -131 274t-340 109q-124 0 -228.5 -40.5t-173.5 -105.5t-117.5 -147.5t-70 -164.5t-21.5 -159q0 -184 115.5 -292.5t316.5 -108.5q136 0 283 39l213 55 q26 6 29 -20l22 -176q3 -23 -18 -29z" />
<glyph horiz-adv-x="1212" d="M831 733h308q25 0 22 -26l-35 -213q-15 -92 -66 -158t-145 -113l-34 -18l129 -174q9 -12 4.5 -21.5t-19.5 -9.5h-237q-21 0 -29 14l-59 80l-64 -33q-149 -79 -299 -79q-140 0 -217.5 65t-77.5 182q0 107 49.5 185.5t155.5 140.5l80 49q-47 80 -47 150q0 158 111 253 t315 95q94 0 194 -27l52 -16q23 -9 14 -33l-76 -172q-9 -21 -33 -14l-47 14q-49 16 -129 16q-69 0 -106 -33t-37 -85q0 -36 24 -70l216 -293l75 41q53 29 62 72l4 33h-88q-26 0 -23 26l27 150q3 22 26 22zM535 276l-107 146l-82 -49q-72 -44 -72 -99q0 -29 17 -45t47 -16 q81 0 176 53z" />
<glyph horiz-adv-x="1069" d="M930 813l-70 21q-73 20 -139 20q-85 0 -151.5 -28t-107 -71t-66.5 -100t-36 -109.5t-10 -105.5q0 -215 228 -215q86 0 178 25l92 24q12 3 20.5 -2.5t8.5 -17.5l22 -188q3 -22 -20 -29l-91 -27q-60 -17 -126 -26l-27 -160q-3 -23 -27 -23h-227q-26 0 -23 27l29 170 q-151 39 -229 149.5t-78 276.5q0 79 14.5 157t50 160t89 149t138.5 120t191 75l31 172q3 23 27 23h227q25 0 22 -27l-28 -159q33 -7 88 -21l110 -33q26 -10 15 -32l-94 -181q-9 -20 -31 -14z" />
<glyph horiz-adv-x="1079" d="M506 686l215 -53q132 -32 195 -97t63 -169q0 -65 -20 -124t-61 -112t-113 -91t-167 -54l-26 -162q-3 -23 -27 -23h-227q-26 0 -23 27l27 156q-107 12 -199 39l-104 28q-26 7 -14 31l90 186q9 22 32 15l74 -23q120 -35 283 -35q96 0 149.5 29.5t53.5 83.5q0 50 -86 70 l-218 53q-128 32 -187.5 94.5t-59.5 165.5q0 66 20.5 125.5t63 111.5t114.5 88.5t168 49.5l29 161q3 23 27 23h227q25 0 22 -27l-28 -163q46 -7 121 -25l108 -31q25 -6 16 -30l-86 -189q-9 -21 -32 -14l-97 26q-108 27 -206 27q-91 0 -143 -26.5t-52 -71.5q0 -50 78 -70z " />
<glyph horiz-adv-x="1157" d="M1018 813l-70 21q-73 20 -139 20q-186 0 -285 -129h328q14 0 18.5 -8.5t-2.5 -20.5l-49 -92q-13 -16 -31 -16h-329q-10 -33 -17 -78h299q14 0 19 -8.5t-2 -20.5l-47 -90q-12 -18 -31 -18h-236q35 -148 222 -148q86 0 178 25l92 24q12 3 20.5 -2.5t8.5 -17.5l22 -188 q3 -22 -20 -29l-90 -27q-122 -33 -224 -33q-221 0 -344.5 104t-138.5 292h-119q-25 0 -22 26l16 88q3 23 27 23h100q1 4 4.5 33t7.5 45h-96q-26 0 -20 26l16 88q3 23 27 23h114q32 79 81 144t120 119t171 84t220 30q91 0 201 -29l110 -33q26 -10 15 -32l-94 -181 q-9 -20 -31 -14z" />
<glyph horiz-adv-x="1380" d="M457 1102q112 0 172.5 -51t60.5 -142q0 -57 -18 -107.5t-54.5 -93t-99 -67.5t-143.5 -25q-110 0 -171 51t-61 142q0 53 18 103t54 93.5t98.5 70t143.5 26.5zM1280 1049l-938 -1035q-11 -14 -31 -14h-180q-17 0 -21 9.5t7 21.5l936 1034q11 14 30 14h183q17 0 21 -9 t-7 -21zM430 940q-48 0 -76 -26.5t-28 -71.5q0 -30 20.5 -47t56.5 -17q47 0 75 25.5t28 70.5q0 31 -20 48.5t-56 17.5zM1018 463q111 0 171 -50.5t60 -140.5q0 -57 -18 -108t-54.5 -93.5t-99 -68t-143.5 -25.5q-109 0 -169 50.5t-60 140.5q0 42 10.5 82.5t34.5 79.5t59.5 68 t89 47t119.5 18zM989 301q-47 0 -75.5 -26t-28.5 -70q0 -31 20.5 -48.5t57.5 -17.5q48 0 76 26t28 71q0 31 -20.5 48t-57.5 17z" />
<glyph horiz-adv-x="1116" d="M504 432l-15 -88q-10 -54 -32 -94q-6 -12 -3 -16.5t17 -2.5q101 13 211 13h260q26 0 23 -27l-33 -192q-3 -23 -27 -23h-786q-20 0 -29 18q-9 15 4 31l29 39q58 81 78 195l24 147h-125q-25 0 -22 27l24 129q3 22 27 22h129l21 123q31 173 159 271t328 98q90 0 217 -47 l43 -15q28 -7 12 -32l-100 -177q-9 -21 -31 -12l-47 17q-50 18 -112 18q-79 0 -133.5 -42t-65.5 -110l-14 -92h221q25 0 22 -26l-24 -129q-3 -23 -27 -23h-223z" />
<glyph horiz-adv-x="1277" d="M1012 709l-78 -101h129q24 0 24 -24v-129q0 -25 -24 -25h-252q-33 -65 -49 -104h295q24 0 24 -25v-129q0 -25 -24 -25h-340l-21 -124q-3 -23 -26 -23h-226q-25 0 -22 27l20 120h-229q-25 0 -25 25v129q0 25 25 25h244q0 47 -13 104h-225q-24 0 -24 25v129q0 24 24 24h166 l-43 101l-164 342q-6 12 -1 20t20 8h247q20 0 29 -18l86 -170q54 -119 82 -242q1 -9 7 -12.5t13.5 -0.5t12.5 13q97 156 164 242l147 174q11 14 31 14h256q15 0 19.5 -9t-5.5 -21z" />
<glyph horiz-adv-x="561" d="M463 1479h248q14 0 18.5 -8.5t-4.5 -22.5l-186 -281q-8 -16 -29 -16h-180q-14 0 -19.5 8.5t0.5 20.5l123 280q10 19 29 19z" />
</font>
</defs>
</svg>
