<?xml version="1.0" standalone="no"?>
<!DOCTYPE svg PUBLIC "-//W3C//DTD SVG 1.1//EN" "http://www.w3.org/Graphics/SVG/1.1/DTD/svg11.dtd" >
<svg xmlns="http://www.w3.org/2000/svg">
<metadata></metadata>
<defs>
<font id="nerislight_italic" horiz-adv-x="1245" >
<font-face units-per-em="2048" ascent="1546" descent="-502" />
<missing-glyph horiz-adv-x="440" />
<glyph unicode="f&#xed;" horiz-adv-x="1126" d="M301 981l31 186q23 142 106.5 221.5t210.5 79.5q43 0 96 -18l37 -14q18 -11 9 -25l-37 -80q-10 -16 -25 -10l-24 10q-30 12 -62 12q-69 0 -117.5 -50t-62.5 -134l-29 -178h592q19 0 16 -20l-153 -945q-3 -16 -19 -16h-96q-19 0 -16 20l135 840h-479l-138 -844 q-3 -16 -18 -16h-96q-20 0 -17 20l136 840h-93q-20 0 -16 21l14 84q3 16 19 16h96zM1196 1425l-149 -231q-9 -12 -23 -12h-74q-11 0 -14.5 6t2.5 16l121 232q6 12 20 12h105q11 0 14.5 -7t-2.5 -16z" />
<glyph unicode="t&#xed;" horiz-adv-x="1216" d="M1260 1425l-150 -231q-9 -12 -23 -12h-73q-11 0 -15 6t2 16l121 232q6 12 21 12h104q11 0 15 -7t-2 -16zM434 981h656q19 0 16 -20l-154 -945q-3 -16 -18 -16h-96q-20 0 -17 20l135 840h-542l-101 -622q-10 -66 11.5 -101t72.5 -35q17 0 58 9q18 6 24 -13l23 -73 q3 -17 -10 -25q-52 -20 -109 -20q-116 0 -169.5 68.5t-33.5 191.5l101 620h-93q-20 0 -16 21l14 84q3 16 19 16h96l39 248q3 15 16 18l105 33q9 3 14 -2.5t4 -15.5z" />
<glyph unicode="&#x165;j" horiz-adv-x="1189" d="M1094 1460q39 0 60.5 -20.5t21.5 -57.5q0 -51 -25.5 -78.5t-69.5 -27.5q-39 0 -61.5 21t-22.5 57q0 50 26.5 78t70.5 28zM694 1217l-12 -23q-9 -12 -23 -12h-55q-23 0 -14 22l14 33q30 67 41 133l10 62q3 16 19 16h78q18 0 18 -21l-10 -59q-14 -66 -66 -151zM434 981h658 q19 0 16 -20l-176 -1084q-28 -198 -193 -285l-71 -43q-15 -9 -25 7l-39 79q-10 17 6 27l68 41q104 58 125 184l155 973h-544l-101 -622q-10 -66 11.5 -101t72.5 -35q17 0 58 9q18 6 24 -13l23 -73q3 -17 -10 -25q-52 -20 -109 -20q-116 0 -169.5 68.5t-33.5 191.5l101 620 h-93q-20 0 -16 21l14 84q3 16 19 16h96l39 248q3 15 16 18l105 33q9 3 14 -2.5t4 -15.5z" />
<glyph unicode="&#x165;t" horiz-adv-x="1359" d="M694 1217l-12 -23q-9 -12 -23 -12h-55q-23 0 -14 22l14 33q30 67 41 133l10 62q3 16 19 16h78q18 0 18 -21l-10 -59q-14 -66 -66 -151zM1077 860l-100 -622q-10 -66 11.5 -101t72.5 -35q17 0 57 9q19 6 25 -13l22 -73q3 -17 -10 -25q-52 -20 -108 -20q-116 0 -169.5 68.5 t-33.5 191.5l100 620h-530l-101 -622q-10 -66 11.5 -101t72.5 -35q17 0 58 9q18 6 24 -13l23 -73q3 -17 -10 -25q-52 -20 -109 -20q-116 0 -169.5 68.5t-33.5 191.5l101 620h-93q-20 0 -16 21l14 84q3 16 19 16h96l39 248q3 15 16 18l105 33q9 3 14 -2.5t4 -15.5l-45 -281 h531l39 248q3 15 16 18l104 33q9 3 14.5 -2.5t4.5 -15.5l-45 -281h227q19 0 16 -20l-14 -84q-3 -17 -18 -17h-232z" />
<glyph unicode="ffti" horiz-adv-x="2410" d="M1653 981h655q19 0 16 -20l-153 -945q-3 -16 -19 -16h-96q-19 0 -16 20l135 840h-543l-100 -622q-10 -66 11.5 -101t72.5 -35q16 0 57 9q19 6 25 -13l22 -73q3 -17 -10 -25q-52 -20 -108 -20q-116 0 -169.5 68.5t-33.5 191.5l100 620h-475l-137 -844q-3 -16 -19 -16h-96 q-19 0 -16 20l135 840h-477l-138 -844q-3 -16 -18 -16h-96q-20 0 -17 20l136 840h-93q-20 0 -16 21l14 84q3 16 19 16h96l31 186q23 142 107 221.5t212 79.5q47 0 97 -18l18 -8q17 -6 10 -23l-41 -78q-9 -16 -24 -10l-9 4q-24 8 -57 8q-70 0 -120 -50.5t-62 -133.5l-29 -178 h477l31 186q23 142 107.5 221.5t212.5 79.5q46 0 96 -18l18 -8q17 -6 10 -23l-40 -78q-10 -16 -25 -10l-8 4q-24 8 -58 8q-70 0 -120 -50.5t-62 -133.5l-29 -178h476l39 248q3 15 16 18l104 33q9 3 14.5 -2.5t4.5 -15.5zM2310 1458q39 0 60.5 -20t21.5 -56q0 -104 -94 -104 q-40 0 -62 20.5t-22 57.5q0 49 26 75.5t70 26.5z" />
<glyph unicode="ftti" horiz-adv-x="2463" d="M1708 981h655q20 0 17 -20l-154 -945q-3 -16 -18 -16h-97q-19 0 -16 20l135 840h-542l-101 -622q-10 -66 11.5 -101t72.5 -35q17 0 58 9q18 6 24 -13l23 -73q3 -16 -11 -25q-52 -20 -108 -20q-116 0 -169.5 68.5t-33.5 191.5l100 620h-530l-100 -622q-10 -66 11.5 -101 t72.5 -35q16 0 57 9q19 6 25 -13l22 -73q3 -17 -10 -25q-52 -20 -109 -20q-116 0 -169 68.5t-33 191.5l100 620h-477l-138 -844q-3 -16 -18 -16h-96q-20 0 -17 20l136 840h-93q-20 0 -16 21l14 84q3 16 19 16h96l31 186q23 142 107 221.5t212 79.5q47 0 97 -18l18 -8 q17 -6 10 -23l-41 -78q-9 -16 -24 -10l-9 4q-24 8 -57 8q-70 0 -120 -50.5t-62 -133.5l-29 -178h477l39 248q3 15 17 18l104 33q9 3 14.5 -2.5t4.5 -15.5l-46 -281h531l39 248q3 15 16 18l105 33q9 3 14 -2.5t4 -15.5zM2365 1458q39 0 60.5 -20t21.5 -56q0 -104 -94 -104 q-40 0 -62 20.5t-22 57.5q0 49 26 75.5t70 26.5z" />
<glyph unicode="ffb" horiz-adv-x="2422" d="M1047 981h227q19 0 16 -20l-16 -84q-3 -17 -19 -17h-229l-137 -844q-3 -16 -19 -16h-96q-19 0 -16 20l135 840h-479l-138 -844q-3 -16 -18 -16h-96q-20 0 -17 20l136 840h-93q-20 0 -16 21l14 84q3 16 19 16h96l31 186q23 142 107 221.5t212 79.5q47 0 97 -18l18 -8 q17 -6 10 -23l-41 -78q-9 -16 -24 -10l-9 4q-24 8 -57 8q-70 0 -120 -50.5t-62 -133.5l-29 -178h479l27 168q23 144 108 221.5t218 77.5h315q18 0 18 -21l-14 -86q-3 -16 -18 -16h-312q-71 0 -120 -49t-64 -135zM1733 1427l-60 -380q-20 -122 -49 -195q-5 -17 3 -20.5 t18 4.5q64 78 148 121.5t181 43.5q172 0 264.5 -102t92.5 -285q0 -84 -17 -168t-57 -169t-99.5 -150t-153 -106t-208.5 -41q-145 0 -266 57l-131 59q-16 7 -13 23l216 1313q3 16 18 16h96q20 0 17 -21zM1530 178l74 -35q84 -41 196 -41q85 0 155 34t114 87t74 122 t42.5 134.5t12.5 128.5q0 128 -61.5 199.5t-176.5 71.5q-152 0 -253.5 -120t-133.5 -313z" />
<glyph unicode="ffh" horiz-adv-x="2426" d="M1731 1427l-60 -380q-19 -116 -53 -205q-3 -13 5.5 -17t18.5 9q141 167 347 167q172 0 254 -108t51 -293l-96 -584q-3 -16 -19 -16h-96q-20 0 -17 20l95 578q20 135 -29.5 208t-159.5 73q-88 0 -159 -34t-118 -93.5t-76.5 -131.5t-43.5 -157l-74 -447q-3 -16 -18 -16h-97 q-19 0 -16 20l211 1305h-326q-71 0 -120 -49t-64 -135l-24 -160h227q19 0 16 -20l-16 -84q-3 -17 -19 -17h-229l-137 -844q-3 -16 -19 -16h-96q-19 0 -16 20l135 840h-479l-138 -844q-3 -16 -18 -16h-96q-20 0 -17 20l136 840h-93q-20 0 -16 21l14 84q3 16 19 16h96l31 186 q23 142 107 221.5t212 79.5q47 0 97 -18l18 -8q17 -6 10 -23l-41 -78q-9 -16 -24 -10l-9 4q-24 8 -57 8q-70 0 -120 -50.5t-62 -133.5l-29 -178h479l27 168q23 144 108 221.5t218 77.5h448q20 0 17 -21z" />
<glyph unicode="ffi" horiz-adv-x="1740" d="M1047 981h593q20 0 17 -20l-156 -945q-3 -16 -18 -16h-97q-19 0 -16 20l135 840h-479l-137 -844q-3 -16 -19 -16h-96q-19 0 -16 20l135 840h-479l-138 -844q-3 -16 -18 -16h-96q-20 0 -17 20l136 840h-93q-20 0 -16 21l14 84q3 16 19 16h96l31 186q23 142 107 221.5 t212 79.5q47 0 97 -18l18 -8q17 -6 10 -23l-41 -78q-9 -16 -24 -10l-9 4q-24 8 -57 8q-70 0 -120 -50.5t-62 -133.5l-29 -178h479l31 186q23 141 107.5 221t210.5 80q48 0 98 -20l33 -12q17 -8 10 -25l-41 -78q-10 -16 -25 -10l-18 8q-30 12 -64 12q-69 0 -117.5 -50.5 t-60.5 -133.5zM1651 1456q43 0 63 -24.5t12 -67.5q-12 -78 -88 -78q-43 0 -63 24.5t-12 67.5q12 78 88 78z" />
<glyph unicode="ffj" horiz-adv-x="1740" d="M1047 981h593q20 0 17 -20l-176 -1084q-30 -191 -193 -285l-74 -43q-15 -9 -24 9l-35 75q-10 17 6 27l66 43q102 62 123 182l155 975h-479l-137 -844q-3 -16 -19 -16h-96q-19 0 -16 20l135 840h-479l-138 -844q-3 -16 -18 -16h-96q-20 0 -17 20l136 840h-93q-20 0 -16 21 l14 84q3 16 19 16h96l31 186q23 142 107 221.5t212 79.5q47 0 97 -18l18 -8q17 -6 10 -23l-41 -78q-9 -16 -24 -10l-9 4q-24 8 -57 8q-70 0 -120 -50.5t-62 -133.5l-29 -178h479l31 186q23 141 107.5 221t210.5 80q46 0 96 -20l35 -14q17 -6 10 -23l-39 -78q-10 -16 -25 -10 l-22 8q-30 12 -62 12q-69 0 -117.5 -50.5t-60.5 -133.5zM1651 1456q43 0 63 -24.5t12 -67.5q-12 -78 -88 -78q-43 0 -63 24.5t-12 67.5q12 78 88 78z" />
<glyph unicode="ffk" horiz-adv-x="2336" d="M2286 958l-244 -262q-138 -148 -236 -186q-8 -3 -11 -6.5t-1 -6.5t8 -5q53 -21 95.5 -68.5t89.5 -124.5l157 -276q5 -9 1.5 -16t-13.5 -7h-104q-14 0 -23 12l-137 234q-27 44 -47.5 71t-51.5 57.5t-70 45t-87 14.5h-43l-68 -418q-3 -16 -18 -16h-97q-19 0 -16 20l156 961 l55 344h-326q-71 0 -120 -49t-64 -135l-24 -160h227q19 0 16 -20l-16 -84q-3 -17 -19 -17h-229l-137 -844q-3 -16 -19 -16h-96q-19 0 -16 20l135 840h-479l-138 -844q-3 -16 -18 -16h-96q-20 0 -17 20l136 840h-93q-20 0 -16 21l14 84q3 16 19 16h96l31 186 q23 142 107 221.5t212 79.5q47 0 97 -18l18 -8q17 -6 10 -23l-41 -78q-9 -16 -24 -10l-9 4q-24 8 -57 8q-70 0 -120 -50.5t-62 -133.5l-29 -178h479l27 168q23 144 108 221.5t218 77.5h448q20 0 17 -21l-80 -485l-62 -385h41q39 0 78.5 16t81 50t68.5 59.5t71 71.5l205 217 q8 10 23 10h118q12 0 15.5 -7t-4.5 -16z" />
<glyph unicode="ffl" horiz-adv-x="1808" d="M1731 1427l-203 -1253q-10 -72 39 -72q4 0 10.5 1t9.5 1q20 7 23 -12l22 -80q3 -16 -12 -22q-38 -10 -68 -10q-89 0 -130.5 52t-26.5 146l186 1147h-326q-71 0 -120 -49t-64 -135l-24 -160h227q19 0 16 -20l-16 -84q-3 -17 -19 -17h-229l-137 -844q-3 -16 -19 -16h-96 q-19 0 -16 20l135 840h-479l-138 -844q-3 -16 -18 -16h-96q-20 0 -17 20l136 840h-93q-20 0 -16 21l14 84q3 16 19 16h96l31 186q23 142 107 221.5t212 79.5q47 0 97 -18l18 -8q17 -6 10 -23l-41 -78q-9 -16 -24 -10l-9 4q-24 8 -57 8q-70 0 -120 -50.5t-62 -133.5l-29 -178 h479l27 168q23 144 108 221.5t218 77.5h448q20 0 17 -21z" />
<glyph unicode="fft" horiz-adv-x="1918" d="M1636 860l-100 -622q-10 -66 11.5 -101t72.5 -35q16 0 57 9q19 6 25 -13l22 -73q3 -17 -10 -25q-52 -20 -108 -20q-116 0 -169.5 68.5t-33.5 191.5l100 620h-477l-137 -844q-3 -16 -19 -16h-96q-19 0 -16 20l135 840h-479l-138 -844q-3 -16 -18 -16h-96q-20 0 -17 20 l136 840h-93q-20 0 -16 21l14 84q3 16 19 16h96l31 186q23 142 107 221.5t212 79.5q47 0 97 -18l18 -8q17 -6 10 -23l-41 -78q-9 -16 -24 -10l-9 4q-24 8 -57 8q-70 0 -120 -50.5t-62 -133.5l-29 -178h479l31 186q23 142 107.5 221.5t212.5 79.5q46 0 96 -18l18 -8 q18 -6 11 -23l-41 -78q-10 -16 -25 -10l-8 4q-24 8 -58 8q-70 0 -120 -50.5t-62 -133.5l-28 -178h477l39 248q3 15 16 18l104 33q9 3 14.5 -2.5t4.5 -15.5l-45 -281h227q20 0 17 -20l-15 -84q-3 -17 -18 -17h-232z" />
<glyph unicode="fti" horiz-adv-x="1798" d="M1042 981h656q19 0 16 -20l-153 -945q-3 -16 -19 -16h-96q-19 0 -16 20l135 840h-543l-100 -622q-10 -66 11.5 -101t72.5 -35q16 0 57 9q18 6 24 -13l23 -73q3 -17 -10 -25q-52 -20 -109 -20q-116 0 -169.5 68.5t-33.5 191.5l101 620h-475l-138 -844q-3 -16 -18 -16h-96 q-20 0 -17 20l136 840h-93q-20 0 -16 21l14 84q3 16 19 16h96l31 186q23 142 107 221.5t212 79.5q47 0 97 -18l18 -8q17 -6 10 -23l-41 -78q-9 -16 -24 -10l-9 4q-24 8 -57 8q-70 0 -120 -50.5t-62 -133.5l-29 -178h475l39 248q3 15 17 18l104 33q9 3 14 -2.5t4 -15.5z M1700 1458q39 0 60.5 -20t21.5 -56q0 -104 -94 -104q-40 0 -62 20.5t-22 57.5q0 49 26 75.5t70 26.5z" />
<glyph unicode="ftt" horiz-adv-x="1970" d="M1688 860l-101 -622q-10 -66 11.5 -101t72.5 -35q17 0 58 9q18 6 24 -13l23 -73q3 -16 -11 -25q-52 -20 -108 -20q-116 0 -169.5 68.5t-33.5 191.5l100 620h-530l-100 -622q-10 -66 11.5 -101t72.5 -35q16 0 57 9q19 6 25 -13l22 -73q3 -17 -10 -25q-52 -20 -109 -20 q-116 0 -169 68.5t-33 191.5l100 620h-477l-138 -844q-3 -16 -18 -16h-96q-20 0 -17 20l136 840h-93q-20 0 -16 21l14 84q3 16 19 16h96l31 186q23 142 107 221.5t212 79.5q47 0 97 -18l18 -8q17 -6 10 -23l-41 -78q-9 -16 -24 -10l-9 4q-24 8 -57 8q-70 0 -120 -50.5 t-62 -133.5l-29 -178h477l39 248q3 15 17 18l104 33q9 3 14.5 -2.5t4.5 -15.5l-46 -281h531l39 248q3 15 16 18l105 33q9 3 14 -2.5t4 -15.5l-45 -281h227q20 0 17 -20l-15 -84q-3 -17 -18 -17h-231z" />
<glyph unicode="tti" horiz-adv-x="1853" d="M1755 1458q39 0 60.5 -20t21.5 -56q0 -104 -94 -104q-40 0 -62 20.5t-22 57.5q0 49 26 75.5t70 26.5zM1098 981h655q19 0 16 -20l-153 -945q-3 -16 -19 -16h-96q-19 0 -16 20l135 840h-543l-100 -622q-10 -66 11.5 -101t72.5 -35q17 0 57 9q19 6 25 -13l22 -73 q3 -17 -10 -25q-52 -20 -108 -20q-116 0 -169.5 68.5t-33.5 191.5l100 620h-530l-101 -622q-10 -66 11.5 -101t72.5 -35q17 0 58 9q18 6 24 -13l23 -73q3 -17 -10 -25q-52 -20 -109 -20q-116 0 -169.5 68.5t-33.5 191.5l101 620h-93q-20 0 -16 21l14 84q3 16 19 16h96 l39 248q3 15 16 18l105 33q9 3 14 -2.5t4 -15.5l-45 -281h531l39 248q3 15 16 18l104 33q9 3 14.5 -2.5t4.5 -15.5z" />
<glyph unicode="ttj" horiz-adv-x="1855" d="M1757 1460q39 0 60.5 -20.5t21.5 -57.5q0 -51 -25 -78.5t-69 -27.5q-39 0 -61.5 21t-22.5 57q0 50 26 78t70 28zM1098 981h657q20 0 17 -20l-177 -1084q-29 -198 -192 -285l-72 -43q-15 -9 -24 7l-39 79q-10 17 6 27l67 41q104 58 125 184l156 973h-545l-100 -622 q-10 -66 11.5 -101t72.5 -35q17 0 57 9q19 6 25 -13l22 -73q3 -17 -10 -25q-52 -20 -108 -20q-116 0 -169.5 68.5t-33.5 191.5l100 620h-530l-101 -622q-10 -66 11.5 -101t72.5 -35q17 0 58 9q18 6 24 -13l23 -73q3 -17 -10 -25q-52 -20 -109 -20q-116 0 -169.5 68.5 t-33.5 191.5l101 620h-93q-20 0 -16 21l14 84q3 16 19 16h96l39 248q3 15 16 18l105 33q9 3 14 -2.5t4 -15.5l-45 -281h531l39 248q3 15 16 18l104 33q9 3 14.5 -2.5t4.5 -15.5z" />
<glyph unicode="fb" horiz-adv-x="1810" d="M1118 1427l-59 -380q-20 -122 -49 -195q-5 -17 2.5 -20.5t17.5 4.5q63 77 148 121t182 44q172 0 264 -102t92 -285q0 -84 -16.5 -168t-57 -169t-99.5 -150t-152.5 -106t-208.5 -41q-146 0 -267 57l-131 59q-15 6 -12 23l197 1206h-326q-71 0 -120 -49t-64 -135l-25 -160 h228q19 0 16 -20l-16 -84q-3 -17 -19 -17h-229l-138 -844q-3 -16 -18 -16h-96q-20 0 -17 20l136 840h-93q-20 0 -16 21l14 84q3 16 19 16h96l27 168q23 144 107.5 221.5t217.5 77.5h449q20 0 16 -21zM915 178l74 -35q84 -41 197 -41q85 0 155 34t113.5 87t73.5 122 t42.5 134.5t12.5 128.5q0 129 -61 200t-176 71q-152 0 -254 -120t-134 -313z" />
<glyph unicode="ff" horiz-adv-x="1300" d="M1376 1446l31 -12q18 -9 8 -25l-43 -78q-10 -16 -24 -8l-21 8q-35 12 -65 12q-72 0 -123 -51t-64 -137l-28 -174h227q19 0 16 -20l-14 -84q-3 -17 -19 -17h-231l-137 -844q-3 -16 -19 -16h-96q-19 0 -16 20l135 840h-479l-138 -844q-3 -16 -18 -16h-96q-20 0 -17 20 l136 840h-93q-20 0 -16 21l14 84q3 16 19 16h96l31 186q23 142 107 221.5t212 79.5q47 0 97 -18l18 -8q17 -6 10 -23l-41 -78q-9 -16 -24 -10l-9 4q-24 8 -57 8q-70 0 -120 -50.5t-62 -133.5l-29 -178h479l29 184q25 143 111 223t215 80q50 0 108 -22z" />
<glyph unicode="fh" horiz-adv-x="1814" d="M1118 1427l-59 -380q-19 -116 -53 -205q-3 -13 5.5 -17t18.5 9q141 167 346 167q172 0 254 -108t51 -293l-96 -584q-3 -16 -18 -16h-97q-19 0 -16 20l94 578q20 135 -29 208t-159 73q-88 0 -159 -34t-118 -93.5t-76.5 -131.5t-43.5 -157l-74 -447q-3 -16 -19 -16h-96 q-19 0 -16 20l211 1305h-326q-71 0 -120 -49t-64 -135l-25 -160h228q19 0 16 -20l-16 -84q-3 -17 -19 -17h-229l-138 -844q-3 -16 -18 -16h-96q-20 0 -17 20l136 840h-93q-20 0 -16 21l14 84q3 16 19 16h96l27 168q23 144 107.5 221.5t217.5 77.5h449q20 0 16 -21z" />
<glyph unicode="fi" horiz-adv-x="1128" d="M301 981l31 186q23 141 107 221t210 80q49 0 99 -20l32 -12q18 -9 11 -25l-41 -78q-10 -16 -25 -10l-18 8q-30 12 -64 12q-69 0 -117.5 -50.5t-60.5 -133.5l-31 -178h594q19 0 16 -20l-155 -945q-3 -16 -19 -16h-96q-19 0 -16 20l135 840h-479l-138 -844q-3 -16 -18 -16 h-96q-20 0 -17 20l136 840h-93q-20 0 -16 21l14 84q3 16 19 16h96zM1038 1456q43 0 63 -24.5t13 -67.5q-12 -78 -88 -78q-43 0 -63 24.5t-13 67.5q12 78 88 78z" />
<glyph unicode="fj" horiz-adv-x="1128" d="M301 981l31 186q23 141 107 221t210 80q46 0 96 -20l35 -14q18 -6 11 -23l-39 -78q-10 -16 -25 -10l-22 8q-30 12 -62 12q-69 0 -117.5 -50.5t-60.5 -133.5l-31 -178h594q19 0 16 -20l-176 -1084q-15 -96 -60.5 -165.5t-131.5 -119.5l-74 -43q-15 -9 -24 9l-35 75 q-10 17 6 27l65 43q102 62 123 182l156 975h-479l-138 -844q-3 -16 -18 -16h-96q-20 0 -17 20l136 840h-93q-20 0 -16 21l14 84q3 16 19 16h96zM1038 1456q43 0 63 -24.5t13 -67.5q-12 -78 -88 -78q-43 0 -63 24.5t-13 67.5q12 78 88 78z" />
<glyph unicode="fk" horiz-adv-x="1724" d="M1673 958l-243 -262q-138 -148 -236 -186q-8 -3 -11 -6.5t-1 -6.5t8 -5q53 -21 95 -68t89 -125l158 -276q5 -9 1.5 -16t-13.5 -7h-105q-13 0 -22 12l-138 234q-27 44 -47.5 71t-51.5 57.5t-70 45t-87 14.5h-43l-67 -418q-3 -16 -19 -16h-96q-19 0 -16 20l155 961l56 344 h-326q-71 0 -120 -49t-64 -135l-25 -160h228q19 0 16 -20l-16 -84q-3 -17 -19 -17h-229l-138 -844q-3 -16 -18 -16h-96q-20 0 -17 20l136 840h-93q-20 0 -16 21l14 84q3 16 19 16h96l27 168q23 144 107.5 221.5t217.5 77.5h449q20 0 16 -21l-80 -485l-61 -385h41 q39 0 78.5 16t81 50t68.5 59.5t71 71.5l205 217q8 10 22 10h119q12 0 15 -7t-5 -16z" />
<glyph unicode="fl" horiz-adv-x="1196" d="M1118 1427l-203 -1253q-10 -72 39 -72q4 0 11 1t10 1q19 6 22 -12l23 -80q3 -16 -12 -22q-38 -10 -68 -10q-89 0 -131 52t-27 146l187 1147h-326q-71 0 -120 -49t-64 -135l-25 -160h228q19 0 16 -20l-16 -84q-3 -17 -19 -17h-229l-138 -844q-3 -16 -18 -16h-96 q-20 0 -17 20l136 840h-93q-20 0 -16 21l14 84q3 16 19 16h96l27 168q23 144 107.5 221.5t217.5 77.5h449q20 0 16 -21z" />
<glyph unicode="ft" horiz-adv-x="1306" d="M1024 860l-100 -622q-10 -66 11.5 -101t72.5 -35q16 0 57 9q19 6 25 -13l22 -73q3 -17 -10 -25q-52 -20 -109 -20q-116 0 -169 68.5t-33 191.5l100 620h-477l-138 -844q-3 -16 -18 -16h-96q-20 0 -17 20l136 840h-93q-20 0 -16 21l14 84q3 16 19 16h96l31 186 q23 142 107 221.5t212 79.5q47 0 97 -18l18 -8q17 -6 10 -23l-41 -78q-9 -16 -24 -10l-9 4q-24 8 -57 8q-70 0 -120 -50.5t-62 -133.5l-29 -178h477l39 248q3 15 17 18l104 33q9 3 14.5 -2.5t4.5 -15.5l-46 -281h228q19 0 16 -20l-14 -84q-3 -17 -19 -17h-231z" />
<glyph unicode="ti" horiz-adv-x="1189" d="M1092 1458q39 0 60.5 -20t21.5 -56q0 -52 -25 -78t-70 -26q-40 0 -62 20.5t-22 57.5q0 48 26.5 75t70.5 27zM434 981h656q19 0 16 -20l-154 -945q-3 -16 -18 -16h-96q-20 0 -17 20l135 840h-542l-101 -622q-10 -66 11.5 -101t72.5 -35q17 0 58 9q18 6 24 -13l23 -73 q3 -17 -10 -25q-52 -20 -109 -20q-116 0 -169.5 68.5t-33.5 191.5l101 620h-93q-20 0 -16 21l14 84q3 16 19 16h96l39 248q3 15 16 18l105 33q9 3 14 -2.5t4 -15.5z" />
<glyph unicode="tj" horiz-adv-x="1189" d="M1094 1460q39 0 60.5 -20.5t21.5 -57.5q0 -51 -25.5 -78.5t-69.5 -27.5q-39 0 -61.5 21t-22.5 57q0 50 26.5 78t70.5 28zM434 981h658q19 0 16 -20l-176 -1084q-28 -198 -193 -285l-71 -43q-15 -9 -25 7l-39 79q-10 17 6 27l68 41q104 58 125 184l155 973h-544l-101 -622 q-10 -66 11.5 -101t72.5 -35q17 0 58 9q18 6 24 -13l23 -73q3 -17 -10 -25q-52 -20 -109 -20q-116 0 -169.5 68.5t-33.5 191.5l101 620h-93q-20 0 -16 21l14 84q3 16 19 16h96l39 248q3 15 16 18l105 33q9 3 14 -2.5t4 -15.5z" />
<glyph unicode="tt" horiz-adv-x="1359" d="M1077 860l-100 -622q-10 -66 11.5 -101t72.5 -35q17 0 57 9q19 6 25 -13l22 -73q3 -17 -10 -25q-52 -20 -108 -20q-116 0 -169.5 68.5t-33.5 191.5l100 620h-530l-101 -622q-10 -66 11.5 -101t72.5 -35q17 0 58 9q18 6 24 -13l23 -73q3 -17 -10 -25q-52 -20 -109 -20 q-116 0 -169.5 68.5t-33.5 191.5l101 620h-93q-20 0 -16 21l14 84q3 16 19 16h96l39 248q3 15 16 18l105 33q9 3 14 -2.5t4 -15.5l-45 -281h531l39 248q3 15 16 18l104 33q9 3 14.5 -2.5t4.5 -15.5l-45 -281h227q19 0 16 -20l-14 -84q-3 -17 -18 -17h-232z" />
<glyph horiz-adv-x="0" />
<glyph unicode="&#xd;" horiz-adv-x="806" />
<glyph unicode=" "  horiz-adv-x="440" />
<glyph unicode="&#x09;" horiz-adv-x="440" />
<glyph unicode="&#xa0;" horiz-adv-x="440" />
<glyph unicode="!" horiz-adv-x="485" d="M463 1391l-98 -605q-13 -78 -47.5 -235.5t-45.5 -212.5q-6 -16 -20 -16h-62q-21 0 -18 20q8 58 25 212.5t30 231.5l99 609q3 16 18 16h102q20 0 17 -20zM195 184q51 0 74.5 -29.5t15.5 -80.5q-7 -44 -35.5 -69t-71.5 -25q-51 0 -74 29.5t-14 80.5q6 44 33.5 69t71.5 25z " />
<glyph unicode="&#x22;" horiz-adv-x="636" d="M410 1427l-15 -88q-6 -30 -28.5 -106t-28.5 -103q-3 -16 -21 -16h-57q-19 0 -16 19q5 170 12 206l14 93q3 16 19 16h102q19 0 19 -21zM674 1427l-15 -88q-6 -30 -28.5 -106t-28.5 -103q-3 -16 -20 -16h-58q-19 0 -16 19q5 170 12 206l15 93q3 16 18 16h102q19 0 19 -21z " />
<glyph unicode="#" horiz-adv-x="1488" d="M1133 983l-80 -555h217q18 0 18 -20l-14 -84q-3 -17 -19 -17h-219l-41 -291q-3 -16 -18 -16h-90q-9 0 -14.5 5.5t-4.5 14.5l41 287h-444l-41 -291q-3 -16 -18 -16h-91q-21 0 -18 20l41 287h-211q-18 0 -18 21l14 84q3 16 18 16h213l80 555h-213q-19 0 -16 18l8 84 q3 19 20 19h218l41 289q3 16 18 16h88q21 0 18 -20l-41 -285h447l41 289q3 16 18 16h90q9 0 14.5 -5.5t4.5 -14.5l-41 -285h213q19 0 16 -19l-8 -84q-3 -18 -20 -18h-217zM1006 983h-447l-78 -555h445z" />
<glyph unicode="$" horiz-adv-x="1216" d="M1085 1229l-92 33q-88 28 -182 36l-90 -540l96 -39q129 -51 196.5 -120.5t67.5 -176.5q0 -57 -16.5 -114t-54.5 -112.5t-93 -100t-138.5 -75t-184.5 -38.5l-29 -177q-3 -16 -18 -16h-98q-9 0 -14 6t-3 15l27 172q-152 10 -307 69l-78 31q-17 6 -11 22l46 84q10 17 24 11 l72 -31q126 -51 274 -59l94 571l-84 33q-134 52 -193.5 122.5t-59.5 172.5q0 57 14.5 112t49 109.5t85.5 97t130.5 70.5t178.5 33l29 169q3 17 18 17h101q20 0 16 -21l-27 -170q95 -9 213 -47l99 -30q17 -6 10 -25l-43 -84q-10 -16 -25 -10zM594 809l80 491 q-136 -14 -217.5 -88t-81.5 -188q0 -62 38 -111.5t138 -87.5zM700 629l-84 -518q150 19 238 102.5t88 185.5q0 133 -182 205z" />
<glyph unicode="%" horiz-adv-x="1550" d="M567 1411q138 0 204 -79.5t44 -221.5q-25 -141 -116.5 -222t-227.5 -81q-138 0 -204.5 81t-41.5 222q22 142 113.5 221.5t228.5 79.5zM1458 1370l-1163 -1360q-7 -10 -23 -10h-98q-12 0 -15.5 7t3.5 16l1163 1359q8 11 23 11h98q12 0 15.5 -7t-3.5 -16zM551 1305 q-86 0 -143 -51.5t-70 -143.5q-14 -92 25 -143.5t124 -51.5t142.5 52t70.5 143q14 92 -25 143.5t-124 51.5zM1153 582q138 0 202.5 -79.5t41.5 -221.5q-23 -141 -113.5 -221t-228.5 -80q-137 0 -204 80.5t-42 220.5q22 141 114 221t230 80zM1135 475q-86 0 -142 -51 t-71 -143q-14 -90 25.5 -141.5t125.5 -51.5t141.5 51.5t69.5 141.5q15 92 -24 143t-125 51z" />
<glyph unicode="&#x26;" horiz-adv-x="1404" d="M1270 846l-25 -162q-12 -69 -43.5 -123.5t-76 -98.5t-132.5 -116l-22 -16l239 -307q8 -9 5 -16t-15 -7h-125q-12 0 -22 10l-187 236l-157 -123q-98 -81 -181 -112t-184 -31q-130 0 -202 66.5t-72 182.5q0 77 24 137t70.5 112t130.5 116l178 147q-100 134 -100 275 q0 185 133.5 300.5t335.5 115.5q78 0 127.5 -10t134.5 -38l74 -26q18 -6 8 -25l-43 -84q-9 -15 -25 -8l-76 25q-62 22 -106 30.5t-115 8.5q-138 0 -226.5 -75t-88.5 -204q0 -106 88 -215l307 -391l31 24q99 84 135 128t47 112l10 61h-129q-19 0 -16 21l14 84q3 16 19 16h241 q20 0 17 -20zM795 336l-252 315l-193 -155q-81 -68 -113 -120.5t-32 -125.5q0 -68 41.5 -106t120.5 -38q78 0 140.5 24.5t139.5 90.5z" />
<glyph unicode="'" horiz-adv-x="372" d="M410 1427l-15 -88q-6 -30 -28.5 -106t-28.5 -103q-3 -16 -21 -16h-57q-19 0 -16 19q5 170 12 206l14 93q3 16 19 16h102q19 0 19 -21z" />
<glyph unicode="(" horiz-adv-x="692" d="M399 -203h-88q-17 0 -20 17q-76 255 -76 510q0 291 86.5 595.5t259.5 589.5q10 13 23 13h96q12 0 15.5 -7t-1.5 -16q-352 -595 -352 -1171q0 -240 72 -510q3 -9 -1.5 -15t-13.5 -6z" />
<glyph unicode=")" horiz-adv-x="692" d="M348 1522h88q18 0 21 -17q75 -252 75 -510q0 -291 -86.5 -595.5t-259.5 -589.5q-10 -13 -22 -13h-96q-12 0 -16 7t1 16q353 597 353 1171q0 240 -72 510q-3 9 1 15t13 6z" />
<glyph unicode="*" horiz-adv-x="802" d="M690 1104h-127q-11 0 -84 10q-6 2 -8 -2t2 -10q43 -48 51 -64l86 -153q5 -9 1.5 -16t-13.5 -7h-76q-13 0 -22 12l-62 111q-14 22 -26 66q-1 2 -3.5 9.5t-5.5 10.5q-7 3 -10 -10q-17 -58 -28 -76l-62 -111q-9 -12 -22 -12h-76q-10 0 -13.5 7t1.5 16l83 147q5 12 13 23.5 t22 28t17 20.5q4 6 1.5 10t-7.5 2q-62 -12 -97 -12h-112q-19 0 -19 18v66q0 18 19 18h112q5 0 86 -6q16 -4 19 0q0 4 -2 8q-36 40 -49 62l-86 155q-6 9 -2.5 16t14.5 7h76q13 0 22 -12l62 -111q20 -38 28 -78q3 -9 9 -8t8 10q10 46 26 72l64 115q9 12 22 12h76q10 0 13.5 -7 t-1.5 -16l-88 -155q-16 -31 -47 -62q-4 -6 -2 -9t8 -1q58 8 82 8h127q19 0 19 -18v-66q0 -18 -19 -18z" />
<glyph unicode="+" horiz-adv-x="1298" d="M1147 578l-17 -86q-3 -17 -18 -17h-401l-74 -440q-3 -17 -19 -17h-90q-20 0 -16 21l72 436h-400q-20 0 -16 21l14 86q3 16 19 16h401l74 440q3 17 18 17h90q20 0 17 -21l-72 -436h401q20 0 17 -20z" />
<glyph unicode="," horiz-adv-x="452" d="M8 -217l103 156q10 15 13.5 23.5t-1 15.5t-19.5 12q-20 6 -32.5 28.5t-12.5 51.5q0 50 30 82t89 32q39 0 62.5 -23.5t23.5 -62.5q0 -80 -76 -192l-86 -133q-10 -13 -22 -13h-60q-11 0 -14.5 7t2.5 16z" />
<glyph unicode="-" horiz-adv-x="901" d="M201 598h532q20 0 17 -20l-17 -84q-3 -17 -18 -17h-531q-20 0 -16 21l14 84q3 16 19 16z" />
<glyph unicode="." horiz-adv-x="464" d="M174 184q51 0 74.5 -29.5t15.5 -80.5q-8 -44 -35.5 -69t-70.5 -25q-51 0 -74 29.5t-14 80.5q6 45 33 69.5t71 24.5z" />
<glyph unicode="/" horiz-adv-x="974" d="M965 1522h102q10 0 13.5 -7t-1.5 -16l-970 -1689q-10 -13 -23 -13h-102q-10 0 -14 7t1 16l971 1689q10 13 23 13z" />
<glyph unicode="0" horiz-adv-x="1292" d="M793 1432q204 0 315 -139t111 -388q0 -79 -10.5 -164t-34.5 -176t-59.5 -174.5t-88.5 -159t-117.5 -131t-151.5 -88t-186 -32.5q-206 0 -317 137.5t-111 386.5q0 80 11 165.5t35 176.5t60 175t89 159.5t118 131t151.5 88t185.5 32.5zM786 1307q-78 0 -146 -29.5 t-118.5 -79t-92 -116.5t-69 -140.5t-46.5 -152.5t-27 -150.5t-8 -136.5q0 -193 76 -296.5t220 -103.5q90 0 167.5 38.5t131.5 104t95.5 147.5t65.5 174t36 177.5t12 163.5q0 192 -76.5 296t-220.5 104z" />
<glyph unicode="1" horiz-adv-x="655" d="M608 1421l4 -4q11 -15 9 -24l-224 -1377q-3 -16 -18 -16h-98q-20 0 -17 20l176 1082q10 67 23 108q6 16 -1 21.5t-28 -4.5l-168 -80q-19 -6 -24 10l-25 86q-3 17 12 23l353 159q13 5 26 -4z" />
<glyph unicode="2" horiz-adv-x="1167" d="M307 1348l109 32q165 52 317 52q186 0 290.5 -80.5t104.5 -223.5q0 -111 -61.5 -205.5t-218.5 -191.5l-385 -248q-204 -129 -244 -362h715q20 0 16 -21l-16 -84q-3 -16 -19 -16h-831q-19 0 -16 20l12 74q27 167 103 290t218 210l390 248q101 65 151.5 130t50.5 138 q0 91 -71.5 144t-194.5 53q-154 0 -285 -43l-110 -35q-20 -7 -23 12l-14 84q-3 17 12 23z" />
<glyph unicode="3" horiz-adv-x="1150" d="M311 1360l95 29q148 43 294 43q180 0 281.5 -83.5t101.5 -230.5q0 -54 -10.5 -100.5t-36.5 -94.5t-75.5 -91t-120.5 -78q-33 -13 -2 -27q87 -35 131.5 -114t44.5 -179q0 -61 -17 -121.5t-58 -121.5t-101 -107t-153.5 -75t-207.5 -29q-159 0 -307 51l-104 37q-17 6 -11 24 l41 78q9 15 25 8l96 -31q126 -45 264 -45q174 0 286 92t112 242q0 119 -81.5 181.5t-213.5 62.5h-78q-20 0 -17 20l15 86q3 17 18 17h74q152 0 252 86t100 209q0 98 -67.5 153.5t-184.5 55.5q-128 0 -264 -39l-98 -27q-20 -7 -23 12l-14 86q-3 17 14 21z" />
<glyph unicode="4" horiz-adv-x="1239" d="M1120 502l-14 -86q-3 -17 -19 -17h-129l-63 -383q-3 -16 -18 -16h-97q-19 0 -16 20l59 379h-727q-20 0 -16 21l14 94q4 15 12 21q75 70 160 161l559 572q60 60 115 129q9 12 23 12h139q19 0 16 -20l-139 -867h125q19 0 16 -20zM844 522l86 531q11 76 35 153q5 15 -4 18 t-21 -10l-547 -552q-74 -83 -114 -115q-11 -11 -9 -18t13 -7h561z" />
<glyph unicode="5" horiz-adv-x="1210" d="M1130 1386l-38 -83q-6 -15 -21 -15h-604l-51 -317l-17 -86q-1 -4 -3 -10.5t-3 -10.5q-2 -8 3 -11.5t18 -0.5l59 8q141 19 197 19q197 0 302 -93.5t105 -265.5q0 -76 -18 -148.5t-61.5 -144.5t-108.5 -126t-167.5 -87.5t-229.5 -33.5q-158 0 -308 53l-100 35q-16 5 -10 24 l41 78q9 14 24 8l94 -31q127 -45 267 -45q96 0 173.5 26t126.5 67t82 96t46.5 108.5t13.5 108.5q0 119 -74.5 183.5t-218.5 64.5q-47 0 -215 -21l-141 -18q-14 -3 -25 8l-12 14q-11 11 -8 25l104 629q3 16 19 16h745q11 0 14.5 -6.5t-0.5 -16.5z" />
<glyph unicode="6" horiz-adv-x="1236" d="M930 1386l-395 -442q-55 -61 -119 -125q-13 -13 -3 -17q6 -3 19 5q133 70 277 70q192 0 300.5 -96t108.5 -267q0 -77 -18 -149.5t-61 -143.5t-107 -123.5t-163 -85t-222 -32.5q-213 0 -324.5 94t-111.5 270q0 170 69.5 322t245.5 348l344 385q8 10 23 10h127q12 0 15 -7 t-5 -16zM672 754q-93 0 -167.5 -25.5t-121.5 -65.5t-78.5 -93t-44 -105t-12.5 -105q0 -124 78 -191t227 -67q93 0 168.5 25t122.5 65t79 93.5t45 106t13 106.5q2 123 -77.5 189.5t-231.5 66.5z" />
<glyph unicode="7" horiz-adv-x="1175" d="M1219 1395l4 -13q6 -16 -4 -26q-68 -88 -138 -203l-690 -1141q-9 -12 -22 -12h-109q-12 0 -15 7t3 16l680 1124q33 52 86 115q21 26 -15 26h-749q-20 0 -17 21l15 84q3 16 18 16h930q17 0 23 -14z" />
<glyph unicode="8" horiz-adv-x="1255" d="M776 1432q192 0 299 -83t107 -229q0 -117 -66.5 -215.5t-210.5 -144.5q-11 -4 -16.5 -9.5t-4 -11t10.5 -8.5q102 -37 159.5 -116.5t57.5 -184.5q0 -85 -33.5 -163t-99.5 -143.5t-177 -104.5t-253 -39q-213 0 -330 87.5t-117 243.5q0 83 34.5 163.5t110 151.5t181.5 105 q19 4 22 13.5t-12 15.5q-180 62 -180 246q0 63 18.5 122.5t59 115t100 97t147 66.5t193.5 25zM766 1307q-99 0 -174 -27.5t-116.5 -73t-62 -96.5t-20.5 -106q0 -95 74.5 -147t208.5 -52q78 0 142 17.5t105.5 46.5t70 67.5t41 78.5t12.5 81q0 101 -74 156t-207 55zM662 680 q-103 0 -187 -32t-134 -83.5t-76.5 -110.5t-26.5 -118q0 -111 83.5 -172.5t233.5 -61.5q110 0 194.5 30t132.5 79.5t71.5 105.5t23.5 115q0 115 -88 181.5t-227 66.5z" />
<glyph unicode="9" horiz-adv-x="1236" d="M377 23l395 442q55 61 119 125q13 13 2 17q-7 2 -19 -5q-133 -70 -276 -70q-192 0 -301 96t-109 267q0 77 18.5 150t61.5 143.5t107 123.5t163.5 85.5t221.5 32.5q213 0 324.5 -94.5t111.5 -270.5q0 -170 -69.5 -322t-245.5 -348l-344 -385q-7 -10 -23 -10h-127 q-12 0 -15 7t5 16zM635 655q93 0 167.5 25.5t121.5 65.5t78.5 93t44 105t12.5 105q0 124 -78 191t-227 67q-93 0 -168.5 -25t-122.5 -65t-79 -93.5t-45 -106t-13 -106.5q-2 -123 77.5 -189.5t231.5 -66.5z" />
<glyph unicode=":" horiz-adv-x="444" d="M307 1001q51 0 74.5 -29.5t15.5 -80.5q-8 -44 -35.5 -69t-70.5 -25q-51 0 -74 29.5t-14 80.5q6 45 33 69.5t71 24.5zM174 184q51 0 74.5 -29.5t15.5 -80.5q-8 -44 -35.5 -69t-70.5 -25q-51 0 -74 29.5t-14 80.5q6 45 33 69.5t71 24.5z" />
<glyph unicode=";" horiz-adv-x="464" d="M319 1001q51 0 75 -29.5t16 -80.5q-7 -44 -35.5 -69t-71.5 -25q-51 0 -74 29.5t-14 80.5q6 45 33 69.5t71 24.5zM23 -209l102 156q8 12 11 18.5t4 13t-4.5 11t-16.5 8.5q-20 6 -32.5 28.5t-12.5 51.5q0 50 30 82.5t89 32.5q39 0 62.5 -23.5t23.5 -63.5q0 -80 -76 -192 l-86 -133q-9 -12 -23 -12h-59q-11 0 -14.5 6.5t2.5 15.5z" />
<glyph unicode="&#x3c;" horiz-adv-x="1298" d="M166 485l12 72q3 15 15 21l1001 432q10 4 16 -1t4 -16l-18 -102q-3 -16 -14 -21l-838 -354l719 -356q15 -6 12 -23l-16 -94q-1 -9 -8.5 -12t-14.5 2l-858 430q-15 6 -12 22z" />
<glyph unicode="=" horiz-adv-x="1239" d="M238 819h872q19 0 16 -20l-16 -84q-3 -17 -18 -17h-871q-19 0 -16 21l14 84q3 16 19 16zM164 377h872q20 0 17 -21l-17 -84q-3 -16 -18 -16h-871q-19 0 -16 20l14 84q3 17 19 17z" />
<glyph unicode="&#x3e;" horiz-adv-x="1298" d="M272 1008l858 -430q16 -6 13 -23l-13 -72q-3 -14 -14 -20l-1001 -432q-10 -4 -16.5 0.5t-4.5 15.5l19 103q3 14 14 20l838 354l-719 357q-16 6 -13 22l17 94q2 9 8 12t14 -1z" />
<glyph unicode="?" horiz-adv-x="1130" d="M258 1346l115 34q191 52 325 52q188 0 293 -78t105 -215q0 -116 -64 -206.5t-211 -182.5l-100 -64q-143 -92 -160 -211l-24 -141q-3 -17 -19 -17h-94q-20 0 -16 21l20 137q17 98 72.5 173.5t158.5 139.5l105 64q102 61 147 123t45 139q0 85 -75.5 135.5t-204.5 50.5 q-123 0 -283 -40l-110 -33q-20 -7 -23 12l-14 86q-4 18 12 21zM444 184q51 0 75 -29.5t16 -80.5q-7 -44 -35.5 -69t-71.5 -25q-51 0 -74 29.5t-14 80.5q6 45 33 69.5t71 24.5z" />
<glyph unicode="@" horiz-adv-x="1773" d="M1300 -115l-143 -41q-227 -59 -401 -59q-287 0 -453 159.5t-166 426.5q0 77 15 158.5t48 166.5t80.5 163t118.5 147t156.5 119.5t198.5 80t241 29.5q301 0 477.5 -157t176.5 -412q0 -75 -15 -141t-47 -122t-89 -89t-134 -33q-101 0 -152.5 55.5t-89.5 204.5 q-28 99 -73.5 140.5t-126.5 41.5q-114 0 -183 -69.5t-69 -188.5q0 -78 51.5 -122t146.5 -44q86 0 162 20l29 9q16 3 24 -11q19 -43 47 -65q20 -17 -2 -23l-79 -22q-95 -29 -195 -29q-149 0 -229 69.5t-80 196.5q0 55 12.5 109t42 107t73 93t111 64.5t150.5 24.5 q113 0 182.5 -52t108.5 -172q49 -135 63 -160q28 -51 73 -56q8 -1 17 -1q41 0 71.5 24.5t45.5 64.5t22 80t7 81q0 211 -147 338t-396 127q-148 0 -271.5 -48.5t-204.5 -125t-137.5 -174.5t-81 -194t-24.5 -187q0 -221 135.5 -351t370.5 -130q167 0 373 57l139 37 q20 3 23 -14l12 -80q3 -17 -15 -21z" />
<glyph unicode="A" horiz-adv-x="1425" d="M1040 358h-678l-200 -346q-9 -12 -23 -12h-110q-12 0 -16 7t1 16l600 1017q107 186 183 355q6 14 20 14h121q17 0 20 -16q14 -134 58 -353l241 -1020q3 -20 -16 -20h-100q-18 0 -21 16zM434 481h578l-109 455q-32 148 -39 272q0 9 -5 12t-11 0t-10 -12 q-41 -110 -136 -272z" />
<glyph unicode="B" horiz-adv-x="1327" d="M346 1409h547q176 0 272.5 -76.5t96.5 -212.5q0 -135 -74 -235t-199 -142q-12 -4 -17.5 -9.5t-2 -11t15.5 -9.5q99 -25 155 -99.5t56 -187.5q0 -197 -135.5 -311.5t-368.5 -114.5h-571q-20 0 -17 20l224 1373q3 16 18 16zM444 1286l-79 -502h337q196 0 308 84.5 t112 223.5q0 91 -65 142.5t-180 51.5h-433zM344 662l-88 -539h457q157 0 250.5 80t93.5 217q0 117 -93.5 179.5t-271.5 62.5h-348z" />
<glyph unicode="C" horiz-adv-x="1234" d="M1022 57l-94 -30q-80 -28 -142.5 -37.5t-154.5 -9.5q-236 0 -366 145t-130 403q0 113 23 231t78 240.5t135.5 217t207 155t281.5 60.5q80 0 140.5 -13.5t146.5 -44.5l78 -28q18 -6 8 -25l-43 -82q-10 -14 -25 -8l-78 29q-63 24 -114.5 33.5t-124.5 9.5q-89 0 -167 -27.5 t-135 -74.5t-104 -110.5t-77.5 -133.5t-51.5 -146.5t-30 -146.5t-9 -136q0 -205 94.5 -313.5t276.5 -108.5q141 3 260 44l90 30q20 7 23 -12l16 -88q3 -17 -12 -23z" />
<glyph unicode="D" horiz-adv-x="1361" d="M346 1409h453q237 0 366 -141t129 -394q0 -78 -12 -159.5t-38.5 -167.5t-65.5 -164.5t-97.5 -149t-130 -122t-167.5 -81.5t-205 -30h-457q-20 0 -17 20l224 1373q3 16 18 16zM444 1286l-188 -1163h332q89 0 166.5 27t134 72t103 107t76 129.5t50 142t29 142t8.5 131.5 q0 198 -95 305t-274 107h-342z" />
<glyph unicode="E" horiz-adv-x="1230" d="M367 784h632q20 0 17 -20l-17 -86q-3 -16 -18 -16h-637l-86 -539h784q20 0 17 -21l-17 -86q-3 -16 -18 -16h-903q-20 0 -17 20l224 1373q3 16 18 16h897q11 0 14.5 -6.5t-0.5 -16.5l-38 -86q-6 -14 -21 -14h-754z" />
<glyph unicode="F" horiz-adv-x="1204" d="M356 739h639q20 0 17 -20l-15 -86q-3 -17 -18 -17h-643l-98 -600q-3 -16 -19 -16h-98q-20 0 -17 20l224 1373q3 16 18 16h881q11 0 14.5 -6.5t-0.5 -16.5l-39 -86q-6 -14 -20 -14h-738z" />
<glyph unicode="G" horiz-adv-x="1335" d="M772 596l39 86q6 14 20 14h365q19 0 16 -20l-92 -567q-3 -16 -16 -19l-37 -14l-135 -49q-82 -28 -144.5 -37.5t-154.5 -9.5q-238 0 -368 144.5t-130 401.5q0 79 11.5 162.5t38 173t65.5 171t98 155t131.5 127.5t170 85.5t208.5 31.5q85 0 145.5 -12.5t143.5 -43.5l78 -30 q18 -6 8 -23l-43 -82q-10 -16 -25 -10l-75 29q-109 43 -242 43q-90 0 -168 -27.5t-135 -74.5t-104 -110.5t-77.5 -134t-51 -147t-29.5 -147t-9 -136.5q0 -201 94.5 -310.5t274.5 -109.5q135 3 258 44l100 34l62 389h-277q-11 0 -14.5 6.5t0.5 16.5z" />
<glyph unicode="H" horiz-adv-x="1413" d="M1378 1389l-223 -1373q-3 -16 -18 -16h-99q-19 0 -16 20l102 642h-780l-106 -646q-3 -16 -19 -16h-98q-20 0 -17 20l224 1373q3 16 18 16h98q20 0 17 -20l-94 -605h780l98 609q3 16 19 16h98q19 0 16 -20z" />
<glyph unicode="I" horiz-adv-x="495" d="M461 1389l-223 -1373q-3 -16 -19 -16h-98q-20 0 -17 20l224 1373q3 16 18 16h98q20 0 17 -20z" />
<glyph unicode="J" horiz-adv-x="870" d="M829 1389l-161 -1010q-31 -186 -141 -292.5t-273 -106.5q-97 0 -166 26l-51 19q-16 5 -10 24l39 80q9 16 24 10l53 -16q52 -17 121 -17q102 0 173 70.5t93 198.5l166 1018q3 16 19 16h98q19 0 16 -20z" />
<glyph unicode="K" horiz-adv-x="1298" d="M1325 1386l-330 -378q-80 -92 -180.5 -166t-177.5 -105q-14 -5 -15 -11.5t11 -12.5q158 -66 287 -295l208 -395q6 -11 2.5 -17t-14.5 -6h-108q-15 0 -21 12l-182 338q-70 135 -173.5 222t-238.5 87h-49l-106 -643q-3 -16 -19 -16h-98q-20 0 -17 20l224 1373q3 16 18 16 h100q20 0 17 -20l-96 -603h47q217 0 475 295l285 318q8 10 22 10h119q12 0 15.5 -7t-5.5 -16z" />
<glyph unicode="L" horiz-adv-x="1150" d="M258 125h698q20 0 17 -21l-17 -88q-3 -16 -18 -16h-817q-20 0 -17 20l224 1373q3 16 18 16h98q20 0 17 -20z" />
<glyph unicode="M" horiz-adv-x="1644" d="M1610 1389l-224 -1373q-3 -16 -18 -16h-100q-20 0 -17 20l144 891q26 172 57 273q2 7 1 12.5t-4 8t-6.5 2.5t-8 -4.5t-7.5 -12.5q-43 -81 -96 -166l-370 -602q-42 -66 -115 -205q-6 -14 -21 -14h-98q-15 0 -18 16q-21 101 -47 205l-179 604q-14 49 -43 162q-3 18 -12 17 q-12 -2 -14 -23q-5 -102 -31 -273l-145 -895q-3 -16 -19 -16h-98q-20 0 -17 20l224 1373q3 16 18 16h160q15 0 18 -16q10 -65 35 -162l195 -660q16 -65 34 -180q2 -10 7 -14t11 -0.5t11 14.5q53 117 92 180l406 660q59 100 88 164q6 14 20 14h170q20 0 17 -20z" />
<glyph unicode="N" horiz-adv-x="1439" d="M1405 1389l-223 -1373q-3 -16 -19 -16h-123q-17 0 -20 16q-35 106 -82 199l-451 852q-26 56 -47 125q-4 14 -16 10.5t-12 -18.5q3 -65 -15 -195l-159 -973q-3 -16 -19 -16h-98q-20 0 -17 20l224 1373q3 16 18 16h123q17 0 20 -16q34 -109 82 -197l447 -848 q31 -60 51 -131q5 -13 16 -9.5t11 17.5q-2 62 16 195l160 973q3 16 18 16h99q19 0 16 -20z" />
<glyph unicode="O" horiz-adv-x="1417" d="M854 1432q236 0 366 -145.5t130 -403.5q0 -79 -11.5 -162.5t-38 -172.5t-65.5 -170t-97.5 -154.5t-130 -127t-168 -85t-206.5 -31.5q-238 0 -368 144.5t-130 401.5q0 93 17 191t51 201.5t92.5 194.5t135 163t186 114t237.5 42zM848 1303q-90 0 -168 -27.5t-135 -74.5 t-104 -110.5t-77.5 -134t-51 -147t-29.5 -147t-9 -136.5q0 -201 94 -310.5t271 -109.5q104 0 192.5 37t149.5 100t107 141t72.5 167t39 171t12.5 159q0 204 -93 313t-271 109z" />
<glyph unicode="P" horiz-adv-x="1271" d="M346 1409h494q213 0 318.5 -109.5t82.5 -304.5q-25 -219 -203 -335.5t-479 -116.5h-235l-86 -527q-3 -16 -19 -16h-98q-20 0 -17 20l224 1373q3 16 18 16zM444 1286l-100 -620h227q232 0 372.5 85.5t160.5 243.5q20 138 -54 214.5t-225 76.5h-381z" />
<glyph unicode="Q" horiz-adv-x="1419" d="M1225 -293l-78 -49q-17 -10 -27 6l-67 111q-62 106 -162 155.5t-258 49.5q-232 0 -364 144.5t-132 401.5q0 131 27.5 259t86.5 245.5t142 206.5t202.5 142t260.5 53q235 0 365.5 -146t130.5 -405q0 -149 -34.5 -287t-92.5 -241t-131 -177t-152 -108q-14 -5 -19.5 -10 t-2 -10t15.5 -9q139 -44 227 -193l68 -112q7 -17 -6 -27zM276 526q0 -208 94.5 -314t268.5 -106q133 0 243 64t181 171.5t110 246.5t39 291q0 204 -93 314t-269 110q-114 0 -210 -46.5t-162 -124t-112.5 -178.5t-68 -209.5t-21.5 -218.5z" />
<glyph unicode="R" horiz-adv-x="1345" d="M346 1409h541q181 0 277 -85t96 -239q0 -312 -359 -428q-25 -7 -27 -17t13 -17q121 -65 172 -250l92 -353q3 -9 -1 -14.5t-13 -5.5h-103q-17 0 -20 16l-80 308q-36 139 -123 207.5t-242 68.5h-235l-96 -584q-3 -16 -19 -16h-98q-20 0 -17 20l224 1373q3 16 18 16z M354 723h271q126 0 223.5 28t155.5 76.5t87 109.5t29 132q0 104 -65 160.5t-187 56.5h-424z" />
<glyph unicode="S" horiz-adv-x="1216" d="M760 604l-271 109q-134 52 -193.5 122.5t-59.5 172.5q0 59 15.5 116.5t53.5 114t94 98.5t143.5 68.5t196.5 26.5q133 0 305 -54l99 -30q17 -6 10 -25l-43 -84q-10 -16 -25 -10l-92 33q-125 41 -262 41q-159 0 -257.5 -76t-98.5 -203q0 -62 38 -111.5t138 -87.5l266 -106 q129 -51 196.5 -120.5t67.5 -176.5q0 -61 -19 -121.5t-62 -119t-105.5 -103t-158 -71.5t-210.5 -27q-185 0 -374 71l-78 31q-17 6 -11 22l46 84q10 17 24 11l72 -31q156 -62 332 -62q184 0 294.5 88.5t110.5 204.5q0 133 -182 205z" />
<glyph unicode="T" horiz-adv-x="1280" d="M1339 1389l-14 -86q-3 -17 -18 -17h-469l-205 -1270q-3 -16 -19 -16h-100q-19 0 -16 20l204 1266h-464q-20 0 -17 21l15 86q3 16 18 16h1069q19 0 16 -20z" />
<glyph unicode="U" horiz-adv-x="1363" d="M1352 1389l-138 -838q-44 -271 -205.5 -421t-406.5 -150q-250 0 -363 152t-69 423l137 838q3 16 19 16h100q19 0 16 -20l-137 -838q-34 -213 47 -329t264 -116q185 0 307 119t156 330l138 838q3 16 18 16h100q20 0 17 -20z" />
<glyph unicode="V" horiz-adv-x="1390" d="M1454 1386l-582 -1009q-96 -167 -176 -363q-6 -14 -22 -14h-115q-17 0 -20 18q-13 188 -54 359l-256 1012q-3 9 1.5 14.5t13.5 5.5h100q18 0 21 -16l237 -922q33 -155 33 -256q0 -9 4.5 -12t10.5 0t9 12q51 139 119 258l533 924q9 12 22 12h109q10 0 13.5 -7t-1.5 -16z " />
<glyph unicode="W" horiz-adv-x="1990" d="M2036 1386l-484 -1058q-90 -196 -129 -314q-6 -14 -22 -14h-121q-18 0 -18 18q-8 192 -29 310l-113 690q-8 66 -8 125q0 15 -8 15t-14 -15q-23 -62 -54 -125l-340 -707q-70 -144 -123 -297q-6 -14 -22 -14h-119q-18 0 -18 18q-6 140 -27 310l-143 1061q-3 20 18 20h98 q16 0 19 -16l129 -920q14 -125 6 -242q0 -9 5 -12t11 0t9 12q25 97 94 242l446 922q6 14 21 14h78q15 0 18 -16l152 -920q15 -119 12 -244q0 -8 5 -11t11 0.5t8 12.5q33 117 91 242l421 922q6 14 21 14h104q11 0 15 -6.5t0 -16.5z" />
<glyph unicode="X" horiz-adv-x="1353" d="M1362 1386l-465 -575q-51 -64 -90 -86q-18 -11 -4 -25q16 -11 27.5 -28.5t31.5 -57.5l285 -591q4 -11 0.5 -17t-14.5 -6h-105q-14 0 -20 14l-287 594q-5 11 -15.5 11.5t-19.5 -11.5l-481 -598q-10 -10 -23 -10h-119q-12 0 -15 7t5 16l477 591q48 63 95 86q7 4 8 12.5 t-4 12.5q-31 25 -60 86l-280 575q-4 10 -0.5 16.5t14.5 6.5h107q14 0 20 -14l277 -574q15 -27 36 0l467 578q10 10 23 10h119q12 0 15 -7t-5 -16z" />
<glyph unicode="Y" horiz-adv-x="1339" d="M1399 1386l-436 -542q-65 -83 -96 -125t-66.5 -101.5t-54 -114.5t-29.5 -124l-60 -363q-3 -16 -18 -16h-98q-20 0 -17 20l56 359q22 130 2.5 221t-86.5 244l-263 542q-4 10 0 16.5t15 6.5h106q15 0 21 -14l225 -463q62 -135 86 -234q3 -12 12 -12t15 12q81 141 155 234 l379 467q10 10 23 10h119q12 0 15 -7t-5 -16z" />
<glyph unicode="Z" horiz-adv-x="1247" d="M1268 1395l4 -13q6 -14 -4 -24q-74 -80 -170 -203l-709 -887q-8 -10 -100 -118q-14 -14 -11.5 -23t19.5 -8q98 4 137 4h604q11 0 15 -6.5t0 -16.5l-39 -86q-6 -14 -21 -14h-915q-17 0 -23 14l-6 15q-3 15 6 24q55 60 176 217l699 873q61 74 104 119q14 14 11.5 22 t-19.5 8q-80 -6 -137 -6h-582q-19 0 -16 21l14 86q3 16 19 16h921q17 0 23 -14z" />
<glyph unicode="[" horiz-adv-x="679" d="M256 -80h160q19 0 16 -20l-14 -86q-3 -17 -19 -17h-270q-19 0 -16 21l276 1687q3 17 19 17h270q20 0 16 -21l-14 -86q-3 -16 -18 -16h-166z" />
<glyph unicode="\" horiz-adv-x="960" d="M352 1505l422 -1687q4 -21 -16 -21h-92q-18 0 -21 17l-422 1687q-3 21 17 21h92q17 0 20 -17z" />
<glyph unicode="]" horiz-adv-x="679" d="M479 1399h-160q-19 0 -16 20l14 86q3 17 19 17h270q20 0 17 -21l-277 -1687q-3 -17 -18 -17h-271q-19 0 -16 21l14 86q3 16 19 16h166z" />
<glyph unicode="^" horiz-adv-x="991" d="M881 707h-101q-17 0 -20 16l-139 512l-308 -516q-9 -12 -22 -12h-105q-12 0 -15 6.5t3 15.5l401 653q10 13 23 13h86q18 0 21 -17l192 -651q7 -20 -16 -20z" />
<glyph unicode="_" horiz-adv-x="997" d="M887 -332l-15 -84q-3 -16 -18 -16h-1008q-19 0 -16 20l14 84q3 17 19 17h1007q20 0 17 -21z" />
<glyph unicode="`" horiz-adv-x="524" d="M410 1436l118 -232q9 -22 -14 -22h-82q-13 0 -22 12l-144 231q-6 9 -2.5 16t15.5 7h110q15 0 21 -12z" />
<glyph unicode="a" horiz-adv-x="1126" d="M799 20l28 189q0 15 -3 20t-10.5 0.5t-18.5 -18.5q-48 -70 -93.5 -116.5t-117 -80.5t-154.5 -34q-158 0 -247 97.5t-89 270.5q0 83 18.5 169.5t62 174t106 155.5t158.5 111t212 43q119 0 223 -36l154 -50q17 -7 14 -22l-143 -877q-3 -16 -18 -16h-64q-18 0 -18 20z M899 821l-76 27q-91 31 -178 31q-86 0 -158.5 -35.5t-119 -91.5t-79.5 -126.5t-47 -138t-14 -129.5q0 -120 59 -188t163 -68q100 0 189.5 81t151 215t89.5 298z" />
<glyph unicode="b" horiz-adv-x="1136" d="M444 1427l-59 -380q-20 -122 -49 -195q-5 -17 2.5 -20.5t17.5 4.5q63 77 148 121t182 44q172 0 264 -102t92 -285q0 -84 -16.5 -168t-57 -169t-99.5 -150t-152.5 -106t-208.5 -41q-145 0 -266 57l-131 59q-16 7 -13 23l215 1313q3 16 19 16h96q20 0 16 -21zM242 178 l73 -35q84 -41 197 -41q85 0 155 34t113.5 87t73.5 122t42.5 134.5t12.5 128.5q0 129 -61 200t-176 71q-152 0 -253.5 -120t-133.5 -313z" />
<glyph unicode="c" horiz-adv-x="960" d="M764 31l-68 -21q-110 -30 -204 -30q-194 0 -296 103.5t-102 289.5q0 84 17 167.5t58 168t102 148.5t157.5 104t216.5 40q84 0 189 -30l59 -19q16 -5 10 -24l-37 -78q-9 -16 -24 -10l-49 14q-82 25 -152 25q-93 0 -167 -34t-119 -87t-75 -121.5t-41.5 -132t-11.5 -125.5 q0 -133 68 -205t201 -72q63 0 184 31l63 17q21 7 21 -13l14 -86q3 -17 -14 -20z" />
<glyph unicode="d" horiz-adv-x="1134" d="M1128 1427l-229 -1411q-3 -16 -18 -16h-62q-21 0 -18 18l12 119q0 35 -31 4q-151 -161 -333 -161q-169 0 -262 102.5t-93 286.5q0 83 16.5 166.5t57 168.5t99 149.5t151 105.5t205.5 42q131 0 233 -51l57 -28l84 510q3 16 19 16h96q20 0 16 -21zM895 801l-64 33 q-95 45 -208 45q-86 -1 -155.5 -35t-113.5 -87t-73.5 -121t-41.5 -132t-12 -125q0 -130 62 -203.5t178 -73.5q151 0 250.5 114.5t130.5 297.5z" />
<glyph unicode="e" horiz-adv-x="1024" d="M625 438l-398 -63q-3 -129 63.5 -201t192.5 -72q83 0 201 27l70 18q17 6 20 -14l10 -84q3 -17 -14 -20l-70 -19q-117 -30 -221 -30q-184 0 -284.5 105t-100.5 292q0 81 17.5 163.5t58.5 166.5t100.5 148.5t151.5 105t203 40.5q158 0 245.5 -68t87.5 -188t-82 -200 t-251 -107zM233 487l377 60q115 19 165 68.5t50 113.5q0 71 -54.5 110.5t-152.5 39.5q-148 0 -248.5 -100t-136.5 -292z" />
<glyph unicode="f" horiz-adv-x="688" d="M301 981l29 184q25 143 110.5 223t214.5 80q51 0 109 -22l31 -12q18 -9 8 -25l-43 -78q-10 -17 -25 -8l-20 8q-34 12 -66 12q-72 0 -122 -51t-64 -137l-29 -174h228q19 0 16 -20l-14 -84q-3 -17 -19 -17h-231l-138 -844q-3 -16 -18 -16h-96q-20 0 -17 20l136 840h-93 q-20 0 -16 21l14 84q3 16 19 16h96z" />
<glyph unicode="g" horiz-adv-x="1128" d="M115 -281l73 -22q90 -25 193 -25q313 0 387 281q38 188 39 192q3 15 -6 14q-8 -1 -23 -16q-145 -163 -329 -163q-189 0 -282 130.5t-65 354.5q15 117 56 213.5t106.5 169t160.5 113t210 40.5q133 0 250 -55l143 -63q15 -6 12 -23l-147 -895q-33 -201 -163 -309.5 t-347 -108.5q-129 0 -236 31l-88 27q-16 5 -10 24l41 82q9 15 25 8zM893 797l-72 41q-80 41 -194 41q-162 -1 -263.5 -114t-127.5 -298q-25 -165 34.5 -265t194.5 -100q152 0 252.5 114t130.5 302z" />
<glyph unicode="h" horiz-adv-x="1138" d="M444 1427l-59 -380q-19 -116 -53 -205q-3 -13 5.5 -17t18.5 9q141 167 346 167q172 0 254.5 -108t51.5 -293l-97 -584q-3 -16 -18 -16h-96q-20 0 -17 20l94 578q20 135 -29 208t-159 73q-88 0 -159 -34t-118 -93.5t-76.5 -131.5t-43.5 -157l-74 -447q-3 -16 -18 -16h-97 q-19 0 -16 20l229 1412q3 16 19 16h96q20 0 16 -21z" />
<glyph unicode="i" horiz-adv-x="514" d="M416 1458q39 0 60.5 -20t21.5 -56q0 -52 -25 -78t-70 -26q-40 0 -62 20.5t-22 57.5q0 48 26.5 75t70.5 27zM430 961l-154 -945q-3 -16 -18 -16h-96q-20 0 -17 20l136 840h-93q-20 0 -16 21l14 84q3 16 19 16h209q19 0 16 -20z" />
<glyph unicode="j" horiz-adv-x="514" d="M416 1460q39 0 60.5 -20.5t21.5 -57.5q0 -51 -25.5 -78.5t-69.5 -27.5q-39 0 -61.5 21t-22.5 57q0 50 26.5 78t70.5 28zM430 961l-176 -1084q-28 -198 -193 -285l-71 -43q-15 -9 -25 7l-39 79q-10 17 6 27l68 41q104 58 125 184l156 973h-93q-20 0 -16 21l14 84 q3 16 19 16h209q19 0 16 -20z" />
<glyph unicode="k" horiz-adv-x="1048" d="M999 958l-243 -262q-138 -148 -236 -186q-8 -3 -11 -6.5t-1 -6.5t8 -5q53 -21 95 -68t89 -125l158 -276q5 -9 1.5 -16t-13.5 -7h-105q-13 0 -22 12l-137 234q-27 44 -47.5 71t-51.5 57.5t-70 45t-87 14.5h-43l-68 -418q-3 -16 -18 -16h-97q-19 0 -16 20l154 961l75 451 q3 16 19 16h96q20 0 16 -21l-79 -485l-62 -385h41q39 0 78.5 16t81 50t68.5 59.5t71 71.5l205 217q8 10 22 10h119q12 0 15 -7t-5 -16z" />
<glyph unicode="l" horiz-adv-x="522" d="M444 1427l-202 -1253q-10 -72 39 -72q4 0 10.5 1t9.5 1q20 7 23 -12l22 -80q3 -16 -12 -22q-38 -10 -68 -10q-89 0 -130.5 52t-26.5 146l204 1254q3 16 19 16h96q20 0 16 -21z" />
<glyph unicode="m" horiz-adv-x="1753" d="M336 963l-12 -121q3 -29 32 0q71 80 151 119.5t183 39.5q101 0 163 -51t87 -133q20 -33 51 2q77 95 164 138.5t193 43.5q156 0 229.5 -108t44.5 -293l-96 -584q-3 -16 -19 -16h-96q-19 0 -16 20l92 578q22 134 -19.5 207.5t-142.5 73.5q-158 0 -254 -113t-127 -303 l-74 -447q-3 -16 -18 -16h-96q-20 0 -17 20l92 580q22 132 -20.5 205.5t-142.5 73.5q-156 0 -252 -113t-127 -303l-74 -447q-3 -16 -18 -16h-97q-19 0 -16 20l152 945q3 16 18 16h65q20 0 17 -18z" />
<glyph unicode="n" horiz-adv-x="1136" d="M336 963l-10 -117q3 -30 30 -6q139 161 351 161q170 0 250 -108t49 -293l-97 -584q-3 -16 -18 -16h-96q-20 0 -17 20l94 578q22 133 -28 207t-160 74q-155 0 -259 -110t-136 -306l-74 -447q-3 -16 -18 -16h-97q-19 0 -16 20l152 945q3 16 18 16h65q20 0 17 -18z" />
<glyph unicode="o" horiz-adv-x="1101" d="M627 1001q181 0 281 -105t100 -290q0 -80 -17.5 -163t-58 -167t-100 -149t-151.5 -106t-204 -41q-182 0 -282.5 105t-100.5 292q0 66 13 135t38.5 140t69.5 133t100.5 111t137 77t174.5 28zM623 879q-86 0 -155.5 -34t-113.5 -86.5t-73.5 -120.5t-41.5 -132t-12 -125 q0 -133 66 -206t188 -73q85 0 154.5 34t113.5 86.5t74 120.5t42 132t12 125q0 132 -66.5 205.5t-187.5 73.5z" />
<glyph unicode="p" horiz-adv-x="1134" d="M336 963l-12 -117q3 -33 30 -6q145 161 332 161q169 0 261.5 -102.5t92.5 -286.5q0 -83 -16.5 -166.5t-56 -168.5t-98.5 -149.5t-151 -105.5t-206 -42q-131 0 -233 51l-58 28l-78 -475q-3 -16 -18 -16h-96q-20 0 -17 20l224 1377q3 16 18 16h63q11 0 15.5 -4.5t3.5 -13.5 zM240 180l65 -33q92 -45 207 -45q86 1 156 35t113.5 86.5t73 120.5t41 132t11.5 124q0 132 -61.5 205.5t-177.5 73.5q-151 0 -251.5 -115t-129.5 -299z" />
<glyph unicode="q" horiz-adv-x="1128" d="M698 -412l56 346q15 104 47 195q5 18 -3 20.5t-18 -6.5q-137 -163 -331 -163q-170 0 -262.5 102t-92.5 285q0 84 17 168t57 169t99.5 150t153 106t208.5 41q145 0 266 -57l131 -59q15 -6 12 -23l-209 -1278q-3 -16 -18 -16h-96q-20 0 -17 20zM895 799l-74 37 q-92 43 -196 43q-85 0 -154.5 -34t-113.5 -87t-74.5 -122t-43 -134.5t-12.5 -128.5q0 -128 61.5 -199.5t176.5 -71.5q152 0 254.5 119.5t132.5 310.5z" />
<glyph unicode="r" horiz-adv-x="763" d="M735 981l-14 -86q-3 -16 -19 -16q-169 -6 -281.5 -144t-154.5 -397l-51 -322q-3 -16 -18 -16h-97q-19 0 -16 20l152 945q3 16 18 16h65q20 0 17 -18l-10 -156q2 -12 9.5 -14t16.5 10q145 189 367 198q19 0 16 -20z" />
<glyph unicode="s" horiz-adv-x="966" d="M582 414l-230 67q-96 28 -143 79t-47 132q0 139 102.5 224t288.5 85q133 0 242 -32l77 -23q17 -6 11 -24l-39 -82q-9 -14 -25 -11l-71 23q-89 27 -197 27q-117 0 -186.5 -48.5t-69.5 -125.5q0 -41 27 -68.5t84 -44.5l227 -68q194 -57 194 -215q0 -60 -21 -115t-66.5 -105 t-129 -79.5t-196.5 -29.5q-182 0 -308 49l-53 18q-16 5 -10 25l41 80q10 14 25 8l45 -17q108 -41 264 -41q140 0 208 58t68 137q0 43 -26.5 70.5t-85.5 46.5z" />
<glyph unicode="t" horiz-adv-x="700" d="M434 981h228q19 0 16 -20l-14 -84q-3 -17 -19 -17h-231l-101 -622q-10 -66 11.5 -101t72.5 -35q17 0 58 9q18 6 24 -13l23 -73q3 -17 -10 -25q-52 -20 -109 -20q-116 0 -169.5 68.5t-33.5 191.5l101 620h-93q-20 0 -16 21l14 84q3 16 19 16h96l39 248q3 15 16 18l105 33 q9 3 14 -2.5t4 -15.5z" />
<glyph unicode="u" horiz-adv-x="1136" d="M801 18l10 117q-3 31 -31 6q-139 -161 -350 -161q-170 0 -250 108t-49 293l96 584q3 16 19 16h96q19 0 16 -20l-94 -578q-22 -133 28 -207t161 -74q155 0 259 110t136 306l74 447q3 16 18 16h96q20 0 17 -20l-152 -945q-3 -16 -18 -16h-66q-19 0 -16 18z" />
<glyph unicode="v" horiz-adv-x="1097" d="M1090 958l-361 -591q-98 -164 -182 -353q-6 -14 -21 -14h-112q-18 0 -21 16q-16 169 -63 351l-172 594q-7 20 16 20h98q18 0 21 -16l151 -512q33 -151 39 -246q2 -9 7.5 -12t11.5 0t10 12q42 113 121 246l317 516q9 12 23 12h104q12 0 15.5 -7t-2.5 -16z" />
<glyph unicode="w" horiz-adv-x="1566" d="M1552 958l-299 -622q-90 -188 -145 -322q-6 -14 -23 -14h-112q-18 0 -21 16q-14 139 -34 254l-70 346q-12 62 -12 113q0 18 -10.5 18t-16.5 -18q-24 -64 -49 -113l-178 -346q-87 -178 -121 -256q-6 -14 -21 -14h-116q-18 0 -21 18q-6 71 -39 318l-96 625q0 20 18 20h97 q15 0 18 -16l82 -519q18 -177 20 -241q1 -9 6 -12t10.5 0t8.5 12q38 86 121 256l258 506q6 14 20 14h62q17 0 20 -16l99 -504q18 -129 30 -256q1 -9 6.5 -12t11.5 0t9 12q46 122 102 241l246 521q6 14 21 14h104q11 0 14.5 -6.5t-0.5 -16.5z" />
<glyph unicode="x" horiz-adv-x="1060" d="M1024 958l-336 -393q-38 -43 -70 -59q-11 -8 0 -17q23 -18 44 -61l212 -405q6 -11 2.5 -17t-14.5 -6h-104q-15 0 -21 12l-202 381q-10 20 -27 0l-328 -383q-8 -10 -22 -10h-115q-12 0 -15.5 7t3.5 16l346 405q38 46 67 61q11 8 2 17q-22 16 -40 59l-209 393 q-6 10 -2.5 16.5t14.5 6.5h104q15 0 21 -12l196 -371q4 -10 13 -10t16 10l318 373q7 10 22 10h113q12 0 15.5 -7t-3.5 -16z" />
<glyph unicode="y" horiz-adv-x="1110" d="M1102 958l-832 -1378q-9 -12 -22 -12h-103q-12 0 -15 6.5t3 15.5l193 320q82 141 26 375l-194 676q-7 20 16 20h98q18 0 21 -16l156 -537q36 -118 36 -223q2 -22 12 -22.5t21 22.5q59 125 115 223l330 541q9 12 22 12h105q12 0 15 -7t-3 -16z" />
<glyph unicode="z" horiz-adv-x="968" d="M940 967l2 -4q6 -15 -4 -25q-72 -75 -107 -123l-493 -598q-22 -28 -72 -78q-9 -9 -7.5 -15t13.5 -5q37 2 99 2h407q11 0 15 -6.5t-2 -16.5l-46 -86q-6 -12 -20 -12h-670q-16 0 -22 14l-2 4q-3 16 6 25q90 99 117 135l483 584q34 47 72 80q9 9 8 15.5t-12 4.5 q-39 -2 -101 -2h-399q-9 0 -14 6t-3 15l17 84q3 16 18 16h697q14 0 20 -14z" />
<glyph unicode="{" horiz-adv-x="706" d="M729 1518l-14 -86q-3 -17 -19 -17q-74 -5 -124 -46.5t-60 -108.5l-68 -424q-11 -61 -31.5 -97.5t-60.5 -62.5q-29 -17 -29 -22t15 -15q66 -36 47 -164l-68 -420q-12 -67 22.5 -105.5t109.5 -43.5q19 0 16 -21l-14 -84q-3 -16 -21 -16q-131 5 -195 79t-42 199l67 420 q9 56 -13.5 85.5t-70.5 29.5h-10q-19 0 -16 20l14 89q3 16 18 16h8q47 0 83.5 33.5t45.5 87.5l68 424q20 124 105 194t221 76q19 0 16 -20z" />
<glyph unicode="|" horiz-adv-x="567" d="M512 1503l-313 -1921q-3 -16 -19 -16h-90q-19 0 -16 20l311 1921q3 17 18 17h93q20 0 16 -21z" />
<glyph unicode="}" horiz-adv-x="706" d="M35 -197l14 86q3 17 19 17q74 5 124 46.5t60 108.5l67 424q11 61 31.5 97.5t61.5 62.5q29 17 29 22t-15 15q-66 36 -47 164l67 420q12 67 -22 105.5t-109 43.5q-19 0 -16 21l14 84q3 16 21 16q131 -5 195 -79t42 -200l-67 -419q-9 -56 13.5 -85.5t70.5 -29.5h10 q20 0 16 -21l-14 -88q-3 -16 -18 -16h-9q-47 0 -83.5 -33.5t-45.5 -87.5l-67 -424q-20 -124 -105 -194t-221 -76q-19 0 -16 20z" />
<glyph unicode="~" horiz-adv-x="1067" d="M137 592l90 119q88 116 215 116q70 0 127 -51l68 -61q40 -29 74 -29q54 0 96 57l53 70q10 10 23 10h104q12 0 15 -6.5t-3 -15.5l-92 -121q-87 -115 -211 -115q-69 0 -127 49l-71 64q-34 27 -72 27q-32 0 -54 -13t-44 -43l-54 -69q-11 -11 -22 -11h-102q-12 0 -15.5 7 t2.5 16z" />
<glyph unicode="&#xa2;" horiz-adv-x="960" d="M897 1401l59 -19q17 -6 11 -24l-37 -78q-10 -16 -25 -10l-49 14q-68 21 -137 25l-125 -774q60 5 149 28l64 17q20 7 20 -13l15 -86q3 -16 -15 -20l-67 -21q-101 -27 -187 -30l-28 -170q-3 -17 -19 -17h-96q-20 0 -16 21l28 176q-139 29 -211.5 128t-72.5 255q0 77 14 153 t47.5 154.5t83.5 141t128 109t175 62.5l29 176q3 17 18 17h97q20 0 16 -21l-27 -163q74 -6 158 -31zM463 545l121 747q-80 -23 -140 -79t-91.5 -127t-46.5 -140.5t-15 -136.5q0 -105 43.5 -173t128.5 -91z" />
<glyph unicode="&#xa3;" horiz-adv-x="1167" d="M1024 1260l-53 16q-73 24 -152 24q-132 0 -222 -76t-112 -208l-45 -281h355q19 0 16 -20l-16 -86q-3 -17 -19 -17h-356l-27 -168q-11 -79 -40.5 -150t-90.5 -151q-10 -13 -8 -20.5t16 -5.5q60 8 144 8h577q9 0 14 -6t3 -15l-17 -88q-3 -16 -18 -16h-883q-16 0 -22 14 l-7 15q-3 15 5 26l53 72q113 156 139 311l29 174h-178q-9 0 -14 6t-3 15l17 86q3 16 18 16h178l47 289q32 191 158 299.5t315 108.5q82 0 197 -35l55 -19q19 -6 10 -24l-38 -84q-10 -16 -25 -10z" />
<glyph unicode="&#xa5;" horiz-adv-x="1359" d="M1409 1386l-436 -542q-105 -137 -121 -160h246q19 0 16 -20l-12 -72q-3 -17 -19 -17h-295q-33 -65 -51 -143h320q19 0 16 -20l-12 -72q-3 -16 -21 -16h-321l-51 -308q-3 -16 -19 -16h-98q-19 0 -16 20l47 304h-326q-19 0 -16 20l12 72q3 16 20 16h324q9 77 0 143h-297 q-19 0 -16 21l12 72q3 16 18 16h256q-22 67 -63 160l-262 542q-4 10 -0.5 16.5t14.5 6.5h107q14 0 20 -14l225 -463q62 -135 86 -234q3 -12 12 -12t15 12q78 136 156 234l378 467q10 10 23 10h119q12 0 15 -7t-5 -16z" />
<glyph unicode="&#xa7;" horiz-adv-x="1218" d="M555 903l297 -121q240 -97 240 -301q0 -117 -49 -196t-162 -135q-35 -14 -13 -31q57 -41 88 -85.5t31 -113.5q0 -54 -16.5 -104.5t-56 -100.5t-99.5 -87t-154 -60t-212 -23q-111 0 -196.5 18.5t-178.5 53.5l-76 29q-17 9 -8 24l43 80q9 16 24 10l72 -28q149 -62 322 -62 q201 0 300 71t99 171q0 55 -39 97t-123 75l-305 125q-236 97 -236 289q0 111 51 194t164 146q2 1 6 4t5.5 4t4.5 3.5t3.5 4t0.5 4t-2 5t-5 5.5q-29 22 -43.5 35.5t-35.5 39.5t-30.5 58t-9.5 72q0 65 26.5 126t81 114.5t152.5 86t227 32.5q150 0 304 -52l98 -32q17 -6 10 -25 l-43 -82q-10 -16 -25 -10l-88 33q-128 43 -256 43q-160 0 -256 -62.5t-96 -167.5q0 -112 164 -174zM784 674l-202 80q-30 12 -62 12q-73 0 -130 -43.5t-83 -99t-26 -107.5q0 -63 41.5 -113.5t140.5 -91.5l192 -75q35 -15 68 -15q106 0 172 79t66 163q0 71 -49 125.5 t-128 85.5z" />
<glyph unicode="&#xa8;" horiz-adv-x="657" d="M322 1466q38 0 58.5 -20.5t20.5 -56.5q0 -44 -24.5 -72.5t-69.5 -28.5q-37 0 -57.5 20.5t-20.5 55.5q0 47 25 74.5t68 27.5zM633 1466q38 0 59 -20.5t21 -56.5q0 -43 -25 -72t-70 -29q-36 0 -56.5 20t-20.5 56q0 47 24.5 74.5t67.5 27.5z" />
<glyph unicode="&#xa9;" horiz-adv-x="1615" d="M807 1432q210 0 371 -91t249.5 -256t88.5 -380q0 -325 -195.5 -525t-513.5 -200q-210 0 -370.5 90.5t-248.5 255t-88 379.5t88 380t248.5 256t370.5 91zM807 1335q-275 0 -443.5 -173t-168.5 -457q0 -283 168.5 -456t443.5 -173q276 0 444 173t168 456q0 284 -167.5 457 t-444.5 173zM1022 346l-43 -12q-79 -27 -170 -27q-161 0 -253.5 107.5t-92.5 292.5q0 184 92.5 291.5t253.5 107.5q84 0 172 -29l43 -14q16 -6 10 -25l-18 -55q-7 -17 -23 -10l-43 12q-71 25 -141 25q-115 0 -181.5 -80.5t-66.5 -222.5q0 -144 66.5 -225t181.5 -81 q68 0 139 23l43 14q19 6 25 -12l18 -55q6 -19 -12 -25z" />
<glyph unicode="&#xaa;" horiz-adv-x="811" d="M301 1374l59 19q80 22 177 22q149 0 220 -82t48 -227l-76 -455q-3 -16 -18 -16h-52q-21 0 -18 20l8 58q0 32 -26 6q-101 -101 -269 -101q-120 0 -177 64.5t-38 171.5q15 106 98.5 168.5t217.5 62.5h235l2 19q15 98 -30.5 152.5t-145.5 54.5q-71 0 -143 -21l-56 -14 q-17 -6 -20 14l-10 64q-3 17 14 20zM674 987h-236q-167 0 -186 -125q-11 -64 23 -101.5t108 -37.5q248 0 287 246zM66 342l10 68q3 16 18 16h580q19 0 16 -20l-10 -68q-3 -16 -18 -16h-580q-19 0 -16 20z" />
<glyph unicode="&#xab;" horiz-adv-x="1103" d="M303 489l215 -344q6 -9 2.5 -15.5t-14.5 -6.5h-107q-13 0 -22 12l-207 326q-6 12 -6 22v15q0 11 8 22l313 328q10 10 25 10h113q12 0 14.5 -6.5t-6.5 -15.5zM653 489l215 -344q6 -9 2.5 -15.5t-14.5 -6.5h-106q-14 0 -23 12l-207 326q-6 12 -6 22v15q0 11 8 22l314 328 q10 10 24 10h113q12 0 14.5 -6.5t-6.5 -15.5z" />
<glyph unicode="&#xad;" horiz-adv-x="901" d="M201 598h532q20 0 17 -20l-17 -84q-3 -17 -18 -17h-531q-20 0 -16 21l14 84q3 16 19 16z" />
<glyph unicode="&#xae;" horiz-adv-x="1615" d="M807 1432q210 0 371 -91t249.5 -256t88.5 -380q0 -325 -195.5 -525t-513.5 -200q-210 0 -370.5 90.5t-248.5 255t-88 379.5t88 380t248.5 256t370.5 91zM807 1335q-275 0 -443.5 -173t-168.5 -457q0 -283 168.5 -456t443.5 -173q276 0 444 173t168 456q0 284 -167.5 457 t-444.5 173zM571 1075h285q112 0 176 -56.5t64 -154.5q0 -70 -40.5 -118.5t-109.5 -71.5q-3 -1 -10 -3t-10 -5q-7 -4 8 -13q78 -41 108 -123l76 -170q9 -22 -14 -22h-60q-14 0 -20 14l-63 146q-32 69 -79 100t-130 31h-103v-273q0 -18 -18 -18h-60q-18 0 -18 18v701 q0 18 18 18zM649 981v-262h146q206 0 206 139q0 123 -145 123h-207z" />
<glyph unicode="&#xb0;" horiz-adv-x="548" d="M424 1438q93 0 143.5 -47t50.5 -131q0 -45 -13.5 -89.5t-41.5 -86t-81 -67.5t-122 -26q-94 0 -144 45.5t-50 130.5q0 118 67.5 194.5t190.5 76.5zM416 1331q-62 0 -99.5 -42t-37.5 -105q0 -41 23.5 -64.5t64.5 -23.5q68 0 103.5 46.5t35.5 100.5q0 41 -23.5 64.5 t-66.5 23.5z" />
<glyph unicode="&#xb4;" horiz-adv-x="530" d="M444 1448h115q12 0 15 -7t-5 -16l-221 -233q-10 -10 -24 -10h-84q-11 0 -14.5 6.5t3.5 15.5l193 234q10 10 22 10z" />
<glyph unicode="&#xb6;" horiz-adv-x="1351" d="M1237 1389l-225 -1373q-3 -16 -19 -16h-69q-20 0 -17 20l209 1285h-182l-209 -1289q-3 -16 -18 -16h-72q-20 0 -17 20l101 615q-201 0 -322 84.5t-121 241.5q0 57 14 116t48 119.5t84.5 107t130.5 76t178 29.5h490q19 0 16 -20z" />
<glyph unicode="&#xb7;" horiz-adv-x="442" d="M244 612q51 0 74.5 -29.5t15.5 -80.5q-7 -44 -35.5 -69t-71.5 -25q-51 0 -74 29.5t-14 80.5q6 44 33.5 69t71.5 25z" />
<glyph unicode="&#xb8;" horiz-adv-x="567" d="M166 -106h12q72 0 113 -36t41 -102q0 -37 -12.5 -73t-38 -67.5t-71.5 -51t-106 -19.5q-45 0 -92 17l-30 10q-17 6 -11 25l33 63q10 16 25 10l26 -10q33 -8 60 -8q54 0 86 26.5t32 73.5q0 29 -23.5 45.5t-66.5 16.5h-65q-14 0 -23 12l-2 2q-9 12 -2 25l84 163q7 13 21 13 h57q11 0 14.5 -6.5t-2.5 -16.5z" />
<glyph unicode="&#xba;" horiz-adv-x="909" d="M573 1417q162 0 239 -107.5t48 -291.5q-31 -185 -142.5 -292.5t-275.5 -107.5q-160 0 -236.5 108t-47.5 292q31 183 142.5 291t272.5 108zM555 1313q-110 0 -186 -78.5t-99 -216.5q-22 -138 28.5 -216.5t160.5 -78.5q114 0 190.5 78.5t98.5 216.5q23 138 -28 216.5 t-165 78.5zM121 426h579q20 0 17 -20l-10 -68q-3 -16 -19 -16h-579q-20 0 -17 20l10 68q3 16 19 16z" />
<glyph unicode="&#xbb;" horiz-adv-x="1138" d="M485 492l-215 344q-6 9 -2 15.5t15 6.5h106q14 0 23 -12l206 -326q7 -14 7 -22v-15q0 -10 -9 -22l-313 -328q-10 -10 -24 -10h-113q-12 0 -14.5 6.5t6.5 15.5zM836 492l-215 344q-6 9 -2.5 15.5t14.5 6.5h106q14 0 23 -12l207 -326q6 -12 6 -22v-15q0 -11 -8 -22 l-314 -328q-10 -10 -24 -10h-113q-12 0 -14.5 6.5t6.5 15.5z" />
<glyph unicode="&#xc1;" horiz-adv-x="1425" d="M1049 1792h139q13 0 16 -8t-8 -15l-231 -188q-11 -8 -23 -8h-98q-12 0 -15 6.5t5 15.5l192 187q10 10 23 10zM362 358l-200 -346q-9 -12 -23 -12h-110q-12 0 -16 7t1 16l600 1017q107 186 183 355q6 14 20 14h121q17 0 20 -16q14 -134 58 -353l241 -1020q3 -20 -16 -20 h-100q-18 0 -21 16l-80 342h-678zM1012 481l-109 455q-32 148 -39 272q0 9 -5 12t-11 0t-10 -12q-41 -110 -136 -272l-268 -455h578z" />
<glyph unicode="&#xc4;" horiz-adv-x="1425" d="M795 1765q37 0 57 -17.5t20 -49.5q0 -41 -26 -70t-76 -29q-74 0 -74 66q0 43 23.5 71.5t75.5 28.5zM1102 1765q37 0 57.5 -17.5t20.5 -49.5q0 -41 -26.5 -70t-76.5 -29q-73 0 -73 66q0 43 23.5 71.5t74.5 28.5zM362 358l-200 -346q-9 -12 -23 -12h-110q-12 0 -16 7t1 16 l600 1017q107 186 183 355q6 14 20 14h121q17 0 20 -16q14 -134 58 -353l241 -1020q3 -20 -16 -20h-100q-18 0 -21 16l-80 342h-678zM1012 481l-109 455q-32 148 -39 272q0 9 -5 12t-11 0t-10 -12q-41 -110 -136 -272l-268 -455h578z" />
<glyph unicode="&#xc9;" horiz-adv-x="1230" d="M965 1792h139q13 0 16 -8t-8 -15l-231 -188q-11 -8 -23 -8h-98q-12 0 -15 6.5t5 15.5l192 187q10 10 23 10zM367 784h632q20 0 17 -20l-17 -86q-3 -16 -18 -16h-637l-86 -539h784q20 0 17 -21l-17 -86q-3 -16 -18 -16h-903q-20 0 -17 20l224 1373q3 16 18 16h897 q11 0 14.5 -6.5t-0.5 -16.5l-38 -86q-6 -14 -21 -14h-754z" />
<glyph unicode="&#xcd;" horiz-adv-x="495" d="M559 1792h139q13 0 16.5 -8t-7.5 -15l-232 -188q-11 -8 -22 -8h-99q-12 0 -15 6.5t5 15.5l193 187q10 10 22 10zM219 0h-98q-20 0 -17 20l224 1373q3 16 18 16h98q20 0 17 -20l-223 -1373q-3 -16 -19 -16z" />
<glyph unicode="&#xd3;" horiz-adv-x="1417" d="M1057 1792h139q13 0 16 -8t-8 -15l-231 -188q-11 -8 -23 -8h-98q-12 0 -15 6.5t5 15.5l192 187q10 10 23 10zM854 1432q236 0 366 -145.5t130 -403.5q0 -79 -11.5 -162.5t-38 -172.5t-65.5 -170t-97.5 -154.5t-130 -127t-168 -85t-206.5 -31.5q-238 0 -368 144.5 t-130 401.5q0 93 17 191t51 201.5t92.5 194.5t135 163t186 114t237.5 42zM848 1303q-90 0 -168 -27.5t-135 -74.5t-104 -110.5t-77.5 -134t-51 -147t-29.5 -147t-9 -136.5q0 -201 94 -310.5t271 -109.5q104 0 192.5 37t149.5 100t107 141t72.5 167t39 171t12.5 159 q0 204 -93 313t-271 109z" />
<glyph unicode="&#xd6;" horiz-adv-x="1417" d="M801 1765q37 0 57.5 -17.5t20.5 -49.5q0 -41 -26.5 -70t-76.5 -29q-74 0 -74 66q0 43 23.5 71.5t75.5 28.5zM1108 1765q37 0 57.5 -17.5t20.5 -49.5q0 -41 -26.5 -70t-76.5 -29q-73 0 -73 66q0 43 23.5 71.5t74.5 28.5zM854 1432q236 0 366 -145.5t130 -403.5 q0 -79 -11.5 -162.5t-38 -172.5t-65.5 -170t-97.5 -154.5t-130 -127t-168 -85t-206.5 -31.5q-238 0 -368 144.5t-130 401.5q0 93 17 191t51 201.5t92.5 194.5t135 163t186 114t237.5 42zM848 1303q-90 0 -168 -27.5t-135 -74.5t-104 -110.5t-77.5 -134t-51 -147t-29.5 -147 t-9 -136.5q0 -201 94 -310.5t271 -109.5q104 0 192.5 37t149.5 100t107 141t72.5 167t39 171t12.5 159q0 204 -93 313t-271 109z" />
<glyph unicode="&#xda;" horiz-adv-x="1363" d="M987 1792h139q13 0 16.5 -8t-7.5 -15l-232 -188q-11 -8 -22 -8h-99q-12 0 -15 6.5t5 15.5l193 187q10 10 22 10zM1352 1389l-138 -838q-44 -271 -205.5 -421t-406.5 -150q-250 0 -363 152t-69 423l137 838q3 16 19 16h100q19 0 16 -20l-137 -838q-34 -213 47 -329 t264 -116q185 0 307 119t156 330l138 838q3 16 18 16h100q20 0 17 -20z" />
<glyph unicode="&#xdc;" horiz-adv-x="1363" d="M733 1765q37 0 57.5 -17.5t20.5 -49.5q0 -41 -26 -70t-76 -29q-74 0 -74 66q0 43 23.5 71.5t74.5 28.5zM1040 1765q37 0 57.5 -17.5t20.5 -49.5q0 -41 -26 -70t-76 -29q-74 0 -74 66q0 43 23.5 71.5t74.5 28.5zM1352 1389l-138 -838q-44 -271 -205.5 -421t-406.5 -150 q-250 0 -363 152t-69 423l137 838q3 16 19 16h100q19 0 16 -20l-137 -838q-34 -213 47 -329t264 -116q185 0 307 119t156 330l138 838q3 16 18 16h100q20 0 17 -20z" />
<glyph unicode="&#xdd;" horiz-adv-x="1339" d="M975 1792h139q13 0 16 -8t-8 -15l-231 -188q-11 -8 -23 -8h-98q-12 0 -15 6.5t5 15.5l192 187q10 10 23 10zM1399 1386l-436 -542q-65 -83 -96 -125t-66.5 -101.5t-54 -114.5t-29.5 -124l-60 -363q-3 -16 -18 -16h-98q-20 0 -17 20l56 359q22 130 2.5 221t-86.5 244 l-263 542q-4 10 0 16.5t15 6.5h106q15 0 21 -14l225 -463q62 -135 86 -234q3 -12 12 -12t15 12q81 141 155 234l379 467q10 10 23 10h119q12 0 15 -7t-5 -16z" />
<glyph unicode="&#xdf;" horiz-adv-x="1175" d="M84 20l162 1000q35 213 161.5 330.5t319.5 117.5q150 0 231.5 -59.5t81.5 -167.5q0 -136 -129 -250l-151 -133q-40 -37 -59 -68.5t-19 -70.5q0 -61 76 -111l145 -94q79 -49 117.5 -100.5t38.5 -116.5q0 -138 -105 -227.5t-292 -89.5q-123 0 -242 49l-49 20q-17 9 -11 25 l43 80q10 16 25 10l43 -19q97 -43 195 -43q128 0 194 54t66 127q0 67 -95 129l-153 98q-129 86 -129 199q0 68 27.5 123t93.5 114l145 127q92 85 92 156q0 55 -48 84.5t-136 29.5q-136 0 -228.5 -88.5t-117.5 -242.5l-162 -996q-3 -16 -18 -16h-97q-19 0 -16 20z" />
<glyph unicode="&#xe1;" horiz-adv-x="1126" d="M831 1448h115q12 0 15 -7t-5 -16l-221 -233q-10 -10 -24 -10h-84q-11 0 -14.5 6.5t3.5 15.5l193 234q10 10 22 10zM799 20l28 189q0 15 -3 20t-10.5 0.5t-18.5 -18.5q-48 -70 -93.5 -116.5t-117 -80.5t-154.5 -34q-158 0 -247 97.5t-89 270.5q0 83 18.5 169.5t62 174 t106 155.5t158.5 111t212 43q119 0 223 -36l154 -50q17 -7 14 -22l-143 -877q-3 -16 -18 -16h-64q-18 0 -18 20zM899 821l-76 27q-91 31 -178 31q-86 0 -158.5 -35.5t-119 -91.5t-79.5 -126.5t-47 -138t-14 -129.5q0 -120 59 -188t163 -68q100 0 189.5 81t151 215t89.5 298z " />
<glyph unicode="&#xe4;" horiz-adv-x="1126" d="M575 1466q38 0 59 -20.5t21 -56.5q0 -44 -24.5 -72.5t-69.5 -28.5q-37 0 -57.5 20.5t-20.5 55.5q0 47 24.5 74.5t67.5 27.5zM887 1466q38 0 59 -20.5t21 -56.5q0 -43 -25 -72t-70 -29q-36 0 -56.5 20t-20.5 56q0 47 24.5 74.5t67.5 27.5zM799 20l28 189q0 15 -3 20 t-10.5 0.5t-18.5 -18.5q-48 -70 -93.5 -116.5t-117 -80.5t-154.5 -34q-158 0 -247 97.5t-89 270.5q0 83 18.5 169.5t62 174t106 155.5t158.5 111t212 43q119 0 223 -36l154 -50q17 -7 14 -22l-143 -877q-3 -16 -18 -16h-64q-18 0 -18 20zM899 821l-76 27q-91 31 -178 31 q-86 0 -158.5 -35.5t-119 -91.5t-79.5 -126.5t-47 -138t-14 -129.5q0 -120 59 -188t163 -68q100 0 189.5 81t151 215t89.5 298z" />
<glyph unicode="&#xe9;" horiz-adv-x="1024" d="M780 1448h115q12 0 15 -7t-5 -16l-221 -233q-10 -10 -25 -10h-84q-11 0 -14 6.5t4 15.5l193 234q10 10 22 10zM625 438l-398 -63q-3 -129 63.5 -201t192.5 -72q83 0 201 27l70 18q17 6 20 -14l10 -84q3 -17 -14 -20l-70 -19q-117 -30 -221 -30q-184 0 -284.5 105 t-100.5 292q0 81 17.5 163.5t58.5 166.5t100.5 148.5t151.5 105t203 40.5q158 0 245.5 -68t87.5 -188t-82 -200t-251 -107zM233 487l377 60q115 19 165 68.5t50 113.5q0 71 -54.5 110.5t-152.5 39.5q-148 0 -248.5 -100t-136.5 -292z" />
<glyph unicode="&#xed;" horiz-adv-x="514" d="M584 1425l-150 -231q-9 -12 -22 -12h-74q-11 0 -14.5 6t2.5 16l120 232q6 12 21 12h104q11 0 15 -7t-2 -16zM258 0h-96q-20 0 -17 20l136 840h-93q-20 0 -16 21l14 84q3 16 19 16h209q19 0 16 -20l-154 -945q-3 -16 -18 -16z" />
<glyph unicode="&#xf3;" horiz-adv-x="1101" d="M811 1448h115q12 0 15 -7t-5 -16l-221 -233q-10 -10 -25 -10h-84q-11 0 -14 6.5t4 15.5l192 234q10 10 23 10zM627 1001q181 0 281 -105t100 -290q0 -80 -17.5 -163t-58 -167t-100 -149t-151.5 -106t-204 -41q-182 0 -282.5 105t-100.5 292q0 66 13 135t38.5 140 t69.5 133t100.5 111t137 77t174.5 28zM623 879q-86 0 -155.5 -34t-113.5 -86.5t-73.5 -120.5t-41.5 -132t-12 -125q0 -133 66 -206t188 -73q85 0 154.5 34t113.5 86.5t74 120.5t42 132t12 125q0 132 -66.5 205.5t-187.5 73.5z" />
<glyph unicode="&#xf6;" horiz-adv-x="1101" d="M555 1466q38 0 59 -20.5t21 -56.5q0 -44 -24.5 -72.5t-69.5 -28.5q-37 0 -57.5 20.5t-20.5 55.5q0 47 24.5 74.5t67.5 27.5zM866 1466q38 0 59 -20.5t21 -56.5q0 -44 -24.5 -72.5t-69.5 -28.5q-37 0 -57.5 20.5t-20.5 55.5q0 47 24.5 74.5t67.5 27.5zM627 1001 q181 0 281 -105t100 -290q0 -80 -17.5 -163t-58 -167t-100 -149t-151.5 -106t-204 -41q-182 0 -282.5 105t-100.5 292q0 66 13 135t38.5 140t69.5 133t100.5 111t137 77t174.5 28zM623 879q-86 0 -155.5 -34t-113.5 -86.5t-73.5 -120.5t-41.5 -132t-12 -125q0 -133 66 -206 t188 -73q85 0 154.5 34t113.5 86.5t74 120.5t42 132t12 125q0 132 -66.5 205.5t-187.5 73.5z" />
<glyph unicode="&#xfa;" horiz-adv-x="1136" d="M819 1448h115q12 0 15 -7t-5 -16l-221 -233q-10 -10 -25 -10h-84q-11 0 -14 6.5t4 15.5l193 234q10 10 22 10zM801 18l10 117q-3 31 -31 6q-139 -161 -350 -161q-170 0 -250 108t-49 293l96 584q3 16 19 16h96q19 0 16 -20l-94 -578q-22 -133 28 -207t161 -74 q155 0 259 110t136 306l74 447q3 16 18 16h96q20 0 17 -20l-152 -945q-3 -16 -18 -16h-66q-19 0 -16 18z" />
<glyph unicode="&#xfc;" horiz-adv-x="1136" d="M563 1466q38 0 59 -20.5t21 -56.5q0 -44 -24.5 -72.5t-69.5 -28.5q-37 0 -57.5 20.5t-20.5 55.5q0 47 24.5 74.5t67.5 27.5zM874 1466q38 0 59 -20.5t21 -56.5q0 -44 -24.5 -72.5t-69.5 -28.5q-37 0 -57.5 20.5t-20.5 55.5q0 47 24.5 74.5t67.5 27.5zM801 18l10 117 q-3 31 -31 6q-139 -161 -350 -161q-170 0 -250 108t-49 293l96 584q3 16 19 16h96q19 0 16 -20l-94 -578q-22 -133 28 -207t161 -74q155 0 259 110t136 306l74 447q3 16 18 16h96q20 0 17 -20l-152 -945q-3 -16 -18 -16h-66q-19 0 -16 18z" />
<glyph unicode="&#xfd;" horiz-adv-x="1110" d="M803 1448h115q12 0 15 -7t-5 -16l-221 -233q-10 -10 -25 -10h-84q-11 0 -14 6.5t4 15.5l192 234q10 10 23 10zM248 -432h-103q-12 0 -15 6.5t3 15.5l193 320q82 141 26 375l-194 676q-7 20 16 20h98q18 0 21 -16l156 -537q36 -118 36 -223q2 -22 12 -22.5t21 22.5 q59 125 115 223l330 541q9 12 22 12h105q12 0 15 -7t-3 -16l-832 -1378q-9 -12 -22 -12z" />
<glyph unicode="&#x10c;" horiz-adv-x="1234" d="M920 1571h-119q-13 0 -23 10l-151 186q-7 9 -4 16t14 7h92q12 0 23 -8l120 -119l166 119q11 8 23 8h84q13 0 16 -8t-8 -15l-211 -188q-11 -8 -22 -8zM1147 1374l78 -28q18 -6 8 -25l-43 -82q-10 -14 -25 -8l-78 29q-63 24 -114.5 33.5t-124.5 9.5q-89 0 -167 -27.5 t-135 -74.5t-104 -110.5t-77.5 -133.5t-51.5 -146.5t-30 -146.5t-9 -136q0 -205 94.5 -313.5t276.5 -108.5q141 3 260 44l90 30q20 7 23 -12l16 -88q3 -17 -12 -23l-94 -30q-80 -28 -142.5 -37.5t-154.5 -9.5q-236 0 -366 145t-130 403q0 113 23 231t78 240.5t135.5 217 t207 155t281.5 60.5q80 0 140.5 -13.5t146.5 -44.5z" />
<glyph unicode="&#x10d;" horiz-adv-x="960" d="M678 1182h-90q-14 0 -23 12l-145 231q-6 9 -2.5 16t14.5 7h80q13 0 23 -10l114 -152l166 154q11 8 23 8h75q12 0 15.5 -7t-4.5 -16l-222 -233q-10 -10 -24 -10zM764 31l-68 -21q-110 -30 -204 -30q-194 0 -296 103.5t-102 289.5q0 84 17 167.5t58 168t102 148.5 t157.5 104t216.5 40q84 0 189 -30l59 -19q16 -5 10 -24l-37 -78q-9 -16 -24 -10l-49 14q-82 25 -152 25q-93 0 -167 -34t-119 -87t-75 -121.5t-41.5 -132t-11.5 -125.5q0 -133 68 -205t201 -72q63 0 184 31l63 17q21 7 21 -13l14 -86q3 -17 -14 -20z" />
<glyph unicode="&#x10e;" horiz-adv-x="1361" d="M889 1571h-119q-12 0 -22 10l-152 186q-7 9 -4 16t14 7h92q12 0 23 -8l121 -119l166 119q11 8 22 8h84q13 0 16 -8t-8 -15l-211 -188q-11 -8 -22 -8zM346 1409h453q237 0 366 -141t129 -394q0 -78 -12 -159.5t-38.5 -167.5t-65.5 -164.5t-97.5 -149t-130 -122 t-167.5 -81.5t-205 -30h-457q-20 0 -17 20l224 1373q3 16 18 16zM256 123h332q89 0 166.5 27t134 72t103 107t76 129.5t50 142t29 142t8.5 131.5q0 198 -95 305t-274 107h-342z" />
<glyph unicode="&#x10f;" horiz-adv-x="1150" d="M1128 1427l-229 -1411q-3 -16 -18 -16h-62q-21 0 -18 18l12 119q0 35 -31 4q-151 -161 -333 -161q-169 0 -262 102.5t-93 286.5q0 83 16.5 166.5t57 168.5t99 149.5t151 105.5t205.5 42q131 0 233 -51l57 -28l84 510q3 16 19 16h96q20 0 16 -21zM1296 1448h78 q19 0 19 -21l-11 -59q-15 -68 -65 -151l-12 -23q-9 -12 -23 -12h-55q-24 0 -15 22l15 33q30 67 41 133l10 62q3 16 18 16zM895 801l-64 33q-95 45 -208 45q-86 -1 -155.5 -35t-113.5 -87t-73.5 -121t-41.5 -132t-12 -125q0 -130 62 -203.5t178 -73.5q151 0 250.5 114.5 t130.5 297.5z" />
<glyph unicode="&#x11a;" horiz-adv-x="1230" d="M891 1571h-119q-12 0 -22 10l-152 186q-7 9 -4 16t14 7h92q12 0 23 -8l121 -119l166 119q11 8 22 8h84q13 0 16 -8t-8 -15l-211 -188q-11 -8 -22 -8zM444 1286l-77 -502h632q20 0 17 -20l-17 -86q-3 -16 -18 -16h-637l-86 -539h784q20 0 17 -21l-17 -86q-3 -16 -18 -16 h-903q-20 0 -17 20l224 1373q3 16 18 16h897q11 0 14.5 -6.5t-0.5 -16.5l-38 -86q-6 -14 -21 -14h-754z" />
<glyph unicode="&#x11b;" horiz-adv-x="1024" d="M684 1182h-90q-14 0 -23 12l-145 231q-6 9 -2.5 16t14.5 7h80q13 0 23 -10l114 -152l166 154q11 8 23 8h76q12 0 15 -7t-5 -16l-221 -233q-10 -10 -25 -10zM625 438l-398 -63q-3 -129 63.5 -201t192.5 -72q83 0 201 27l70 18q17 6 20 -14l10 -84q3 -17 -14 -20l-70 -19 q-117 -30 -221 -30q-184 0 -284.5 105t-100.5 292q0 81 17.5 163.5t58.5 166.5t100.5 148.5t151.5 105t203 40.5q158 0 245.5 -68t87.5 -188t-82 -200t-251 -107zM233 487l377 60q115 19 165 68.5t50 113.5q0 71 -54.5 110.5t-152.5 39.5q-148 0 -248.5 -100t-136.5 -292z " />
<glyph unicode="&#x13f;" horiz-adv-x="1150" d="M258 125h698q20 0 17 -21l-17 -88q-3 -16 -18 -16h-817q-20 0 -17 20l224 1373q3 16 18 16h98q20 0 17 -20zM971 866q51 0 74.5 -29.5t15.5 -80.5q-7 -44 -35.5 -69t-71.5 -25q-51 0 -74 29.5t-14 80.5q6 44 33.5 69t71.5 25z" />
<glyph unicode="&#x140;" horiz-adv-x="579" d="M444 1427l-202 -1253q-10 -72 39 -72q4 0 10.5 1t9.5 1q20 7 23 -12l22 -80q3 -16 -12 -22q-38 -10 -68 -10q-89 0 -130.5 52t-26.5 146l204 1254q3 16 19 16h96q20 0 16 -21zM641 866q51 0 74.5 -29.5t15.5 -80.5q-8 -44 -35.5 -69t-70.5 -25q-51 0 -74 29.5t-14 80.5 q6 45 33 69.5t71 24.5z" />
<glyph unicode="&#x147;" horiz-adv-x="1439" d="M954 1571h-118q-13 0 -23 10l-151 186q-7 9 -4 16t14 7h92q11 0 22 -8l121 -119l166 119q11 8 23 8h84q13 0 16 -8t-8 -15l-211 -188q-11 -8 -23 -8zM1290 1409h99q19 0 16 -20l-223 -1373q-3 -16 -19 -16h-123q-17 0 -20 16q-35 106 -82 199l-451 852q-26 56 -47 125 q-4 14 -16 10.5t-12 -18.5q3 -65 -15 -195l-159 -973q-3 -16 -19 -16h-98q-20 0 -17 20l224 1373q3 16 18 16h123q17 0 20 -16q34 -109 82 -197l447 -848q31 -60 51 -131q5 -13 16 -9.5t11 17.5q-2 62 16 195l160 973q3 16 18 16z" />
<glyph unicode="&#x148;" horiz-adv-x="1136" d="M748 1182h-91q-13 0 -22 12l-146 231q-6 9 -2 16t15 7h80q12 0 22 -10l115 -152l166 154q11 8 22 8h76q12 0 15 -7t-5 -16l-221 -233q-10 -10 -24 -10zM336 963l-10 -117q3 -30 30 -6q139 161 351 161q170 0 250 -108t49 -293l-97 -584q-3 -16 -18 -16h-96q-20 0 -17 20 l94 578q22 133 -28 207t-160 74q-155 0 -259 -110t-136 -306l-74 -447q-3 -16 -18 -16h-97q-19 0 -16 20l152 945q3 16 18 16h65q20 0 17 -18z" />
<glyph unicode="&#x158;" horiz-adv-x="1345" d="M883 1571h-119q-13 0 -23 10l-151 186q-7 9 -4 16t14 7h92q12 0 23 -8l121 -119l165 119q11 8 23 8h84q13 0 16 -8t-8 -15l-211 -188q-11 -8 -22 -8zM346 1409h541q181 0 277 -85t96 -239q0 -312 -359 -428q-25 -7 -27 -17t13 -17q121 -65 172 -250l92 -353 q3 -9 -1 -14.5t-13 -5.5h-103q-17 0 -20 16l-80 308q-36 139 -123 207.5t-242 68.5h-235l-96 -584q-3 -16 -19 -16h-98q-20 0 -17 20l224 1373q3 16 18 16zM354 723h271q126 0 223.5 28t155.5 76.5t87 109.5t29 132q0 104 -65 160.5t-187 56.5h-424z" />
<glyph unicode="&#x159;" horiz-adv-x="763" d="M571 1182h-90q-13 0 -22 12l-146 231q-6 9 -2 16t15 7h80q12 0 22 -10l115 -152l166 154q11 8 22 8h76q12 0 15 -7t-5 -16l-221 -233q-10 -10 -25 -10zM336 963l-10 -156q2 -12 9.5 -14t16.5 10q145 189 367 198q19 0 16 -20l-14 -86q-3 -16 -19 -16q-169 -6 -281.5 -144 t-154.5 -397l-51 -322q-3 -16 -18 -16h-97q-19 0 -16 20l152 945q3 16 18 16h65q20 0 17 -18z" />
<glyph unicode="&#x160;" horiz-adv-x="1216" d="M829 1571h-118q-13 0 -23 10l-151 186q-7 9 -4 16t14 7h92q12 0 23 -8l120 -119l166 119q11 8 23 8h84q13 0 16 -8t-8 -15l-211 -188q-11 -8 -23 -8zM1085 1229l-92 33q-125 41 -262 41q-159 0 -257.5 -76t-98.5 -203q0 -62 38 -111.5t138 -87.5l266 -106 q129 -51 196.5 -120.5t67.5 -176.5q0 -61 -19 -121.5t-62 -119t-105.5 -103t-158 -71.5t-210.5 -27q-185 0 -374 71l-78 31q-17 6 -11 22l46 84q10 17 24 11l72 -31q156 -62 332 -62q184 0 294.5 88.5t110.5 204.5q0 133 -182 205l-271 109q-134 52 -193.5 122.5 t-59.5 172.5q0 59 15.5 116.5t53.5 114t94 98.5t143.5 68.5t196.5 26.5q133 0 305 -54l99 -30q17 -6 10 -25l-43 -84q-10 -16 -25 -10z" />
<glyph unicode="&#x161;" horiz-adv-x="966" d="M637 1182h-90q-14 0 -23 12l-145 231q-6 9 -2.5 16t14.5 7h80q13 0 23 -10l114 -152l166 154q11 8 23 8h75q12 0 15.5 -7t-4.5 -16l-221 -233q-10 -10 -25 -10zM582 414l-230 67q-96 28 -143 79t-47 132q0 139 102.5 224t288.5 85q133 0 242 -32l77 -23q17 -6 11 -24 l-39 -82q-9 -14 -25 -11l-71 23q-89 27 -197 27q-117 0 -186.5 -48.5t-69.5 -125.5q0 -41 27 -68.5t84 -44.5l227 -68q194 -57 194 -215q0 -60 -21 -115t-66.5 -105t-129 -79.5t-196.5 -29.5q-182 0 -308 49l-53 18q-16 5 -10 25l41 80q10 14 25 8l45 -17q108 -41 264 -41 q140 0 208 58t68 137q0 43 -26.5 70.5t-85.5 46.5z" />
<glyph unicode="&#x164;" horiz-adv-x="1280" d="M881 1571h-119q-13 0 -23 10l-151 186q-7 9 -4 16t14 7h92q12 0 23 -8l121 -119l165 119q11 8 23 8h84q13 0 16 -8t-8 -15l-211 -188q-11 -8 -22 -8zM254 1409h1069q19 0 16 -20l-14 -86q-3 -17 -18 -17h-469l-205 -1270q-3 -16 -19 -16h-100q-19 0 -16 20l204 1266h-464 q-20 0 -17 21l15 86q3 16 18 16z" />
<glyph unicode="&#x165;" horiz-adv-x="700" d="M674 1448h78q18 0 18 -21l-10 -59q-14 -66 -66 -151l-12 -23q-9 -12 -23 -12h-55q-23 0 -14 22l14 33q30 67 41 133l10 62q3 16 19 16zM434 981h228q19 0 16 -20l-14 -84q-3 -17 -19 -17h-231l-101 -622q-10 -66 11.5 -101t72.5 -35q17 0 58 9q18 6 24 -13l23 -73 q3 -17 -10 -25q-52 -20 -109 -20q-116 0 -169.5 68.5t-33.5 191.5l101 620h-93q-20 0 -16 21l14 84q3 16 19 16h96l39 248q3 15 16 18l105 33q9 3 14 -2.5t4 -15.5z" />
<glyph unicode="&#x16e;" horiz-adv-x="1363" d="M891 1819q67 0 105 -30.5t38 -84.5q0 -75 -51 -118.5t-139 -43.5q-67 0 -104.5 31.5t-37.5 85.5q0 74 50.5 117t138.5 43zM877 1741q-38 0 -60 -19t-22 -51q0 -53 63 -53q39 0 61.5 19.5t22.5 52.5q0 51 -65 51zM1352 1389l-138 -838q-44 -271 -205.5 -421t-406.5 -150 q-250 0 -363 152t-69 423l137 838q3 16 19 16h100q19 0 16 -20l-137 -838q-34 -213 47 -329t264 -116q185 0 307 119t156 330l138 838q3 16 18 16h100q20 0 17 -20z" />
<glyph unicode="&#x16f;" horiz-adv-x="1136" d="M723 1464q66 0 102.5 -30.5t36.5 -87.5q0 -29 -9.5 -58.5t-29.5 -58t-58 -46.5t-89 -18q-68 0 -104.5 31t-36.5 88q0 73 45.5 126.5t142.5 53.5zM711 1384q-75 0 -84 -73q-9 -66 59 -66q40 0 63 23.5t23 64.5q0 51 -61 51zM801 18l10 117q-3 31 -31 6 q-139 -161 -350 -161q-170 0 -250 108t-49 293l96 584q3 16 19 16h96q19 0 16 -20l-94 -578q-22 -133 28 -207t161 -74q155 0 259 110t136 306l74 447q3 16 18 16h96q20 0 17 -20l-152 -945q-3 -16 -18 -16h-66q-19 0 -16 18z" />
<glyph unicode="&#x17d;" horiz-adv-x="1247" d="M868 1571h-118q-13 0 -23 10l-152 186q-7 9 -3.5 16t14.5 7h92q11 0 22 -8l121 -119l166 119q11 8 23 8h84q13 0 16 -8t-8 -15l-211 -188q-11 -8 -23 -8zM1098 1155l-709 -887q-8 -10 -100 -118q-14 -14 -11.5 -23t19.5 -8q98 4 137 4h604q11 0 15 -6.5t0 -16.5l-39 -86 q-6 -14 -21 -14h-915q-17 0 -23 14l-6 15q-3 15 6 24q55 60 176 217l699 873q61 74 104 119q14 14 11.5 22t-19.5 8q-80 -6 -137 -6h-582q-19 0 -16 21l14 86q3 16 19 16h921q17 0 23 -14l4 -13q6 -14 -4 -24q-74 -80 -170 -203z" />
<glyph unicode="&#x17e;" horiz-adv-x="968" d="M647 1182h-90q-13 0 -22 12l-146 231q-6 9 -2.5 16t14.5 7h80q13 0 23 -10l114 -152l166 154q11 8 23 8h76q12 0 15 -7t-5 -16l-221 -233q-10 -10 -25 -10zM831 815l-493 -598q-22 -28 -72 -78q-9 -9 -7.5 -15t13.5 -5q37 2 99 2h407q11 0 15 -6.5t-2 -16.5l-46 -86 q-6 -12 -20 -12h-670q-16 0 -22 14l-2 4q-3 16 6 25q90 99 117 135l483 584q34 47 72 80q9 9 8 15.5t-12 4.5q-39 -2 -101 -2h-399q-9 0 -14 6t-3 15l17 84q3 16 18 16h697q14 0 20 -14l2 -4q6 -15 -4 -25q-72 -75 -107 -123z" />
<glyph unicode="&#x2c6;" horiz-adv-x="735" d="M723 1182h-80q-12 0 -22 10l-115 151l-166 -153q-11 -8 -23 -8h-75q-12 0 -15 6.5t4 15.5l222 234q10 10 24 10h90q14 0 23 -12l145 -232q6 -9 2.5 -15.5t-14.5 -6.5z" />
<glyph unicode="&#x2da;" horiz-adv-x="499" d="M410 1464q66 0 102.5 -30.5t36.5 -87.5q0 -29 -9.5 -58.5t-30 -58t-58.5 -46.5t-89 -18q-68 0 -104.5 31t-36.5 88q0 73 46 126.5t143 53.5zM397 1384q-75 0 -84 -73q-9 -66 60 -66q40 0 63 23.5t23 64.5q0 51 -62 51z" />
<glyph unicode="&#x2dc;" horiz-adv-x="806" d="M225 1241l49 78q55 86 152 86q40 0 90 -29l92 -53q32 -18 51 -18q32 0 60 41l31 40q10 13 22 13h68q11 0 14.5 -7t-2.5 -16l-49 -76q-61 -88 -150 -88q-38 0 -92 31l-88 49q-38 21 -55 21q-34 0 -60 -39l-30 -43q-9 -12 -23 -12h-67q-11 0 -15 6.5t2 15.5z" />
<glyph unicode="&#x401;" horiz-adv-x="1230" d="M709 1765q37 0 57 -17.5t20 -49.5q0 -41 -26 -70t-76 -29q-74 0 -74 66q0 43 23.5 71.5t75.5 28.5zM1016 1765q37 0 57.5 -17.5t20.5 -49.5q0 -41 -26.5 -70t-76.5 -29q-73 0 -73 66q0 43 23.5 71.5t74.5 28.5zM367 784h632q20 0 17 -20l-17 -86q-3 -16 -18 -16h-637 l-86 -539h784q20 0 17 -21l-17 -86q-3 -16 -18 -16h-903q-20 0 -17 20l224 1373q3 16 18 16h897q11 0 14.5 -6.5t-0.5 -16.5l-38 -86q-6 -14 -21 -14h-754z" />
<glyph unicode="&#x409;" horiz-adv-x="2142" d="M1268 803h274q233 0 359.5 -95.5t126.5 -277.5q0 -61 -15.5 -119t-54 -115.5t-95.5 -100t-147.5 -69t-202.5 -26.5h-493q-19 0 -16 20l204 1264h-633l-145 -901q-26 -155 -99.5 -243.5t-209.5 -131.5l-84 -28q-20 -7 -23 14l-16 86q0 16 14 22l80 25q169 53 203 264 l162 1002q3 16 18 16h871q19 0 16 -20zM1245 680l-88 -557h371q95 0 167 26.5t112.5 71t60.5 95.5t20 106q0 127 -93 192.5t-267 65.5h-283z" />
<glyph unicode="&#x40a;" horiz-adv-x="2064" d="M1192 801h274q231 0 358.5 -93.5t127.5 -267.5q0 -61 -15.5 -120t-54 -118t-95 -103t-147 -71.5t-202.5 -27.5h-494q-19 0 -16 20l106 658h-688l-108 -662q-3 -16 -19 -16h-98q-20 0 -17 20l224 1373q3 16 18 16h98q20 0 17 -20l-92 -588h686l96 592q3 16 18 16h101 q19 0 16 -20zM1169 678l-88 -555h371q76 0 138 19t102 49.5t67.5 71.5t39 82.5t11.5 84.5q0 120 -93 184t-265 64h-283z" />
<glyph unicode="&#x411;" horiz-adv-x="1320" d="M1253 1386l-39 -86q-6 -14 -20 -14h-750l-73 -469h377q216 0 333 -92.5t117 -265.5q0 -65 -16 -127t-53.5 -123t-94 -106.5t-145 -74t-197.5 -28.5h-571q-20 0 -17 20l224 1373q3 16 18 16h893q11 0 14.5 -6.5t-0.5 -16.5zM348 694l-90 -571h447q75 0 136.5 20t101 52.5 t66.5 76t38.5 88t11.5 89.5q0 121 -82.5 183t-239.5 62h-389z" />
<glyph unicode="&#x412;" horiz-adv-x="1327" d="M346 1409h547q176 0 272.5 -76.5t96.5 -212.5q0 -135 -74 -235t-199 -142q-12 -4 -17.5 -9.5t-2 -11t15.5 -9.5q99 -25 155 -99.5t56 -187.5q0 -197 -135.5 -311.5t-368.5 -114.5h-571q-20 0 -17 20l224 1373q3 16 18 16zM365 784h337q196 0 308 84.5t112 223.5 q0 91 -65 142.5t-180 51.5h-433zM256 123h457q157 0 250.5 80t93.5 217q0 117 -93.5 179.5t-271.5 62.5h-348z" />
<glyph unicode="&#x413;" horiz-adv-x="1163" d="M1206 1386l-39 -86q-6 -14 -20 -14h-703l-206 -1270q-3 -16 -19 -16h-98q-20 0 -17 20l224 1373q3 16 18 16h846q11 0 14.5 -6.5t-0.5 -16.5z" />
<glyph unicode="&#x414;" horiz-adv-x="1513" d="M1214 123h111q19 0 16 -21l-77 -467q-3 -16 -19 -16h-94q-19 0 -16 21l57 360h-1057l-59 -365q-3 -16 -19 -16h-94q-19 0 -16 21l78 466q3 17 18 17h92l121 188q90 148 127 371l117 711q3 16 18 16h883q19 0 16 -20zM616 1286l-98 -604q-38 -244 -151 -422l-84 -137h794 l189 1163h-650z" />
<glyph unicode="&#x415;" horiz-adv-x="1230" d="M367 784h632q20 0 17 -20l-17 -86q-3 -16 -18 -16h-637l-86 -539h784q20 0 17 -21l-17 -86q-3 -16 -18 -16h-903q-20 0 -17 20l224 1373q3 16 18 16h897q11 0 14.5 -6.5t-0.5 -16.5l-38 -86q-6 -14 -21 -14h-754z" />
<glyph unicode="&#x416;" horiz-adv-x="1896" d="M1907 1386l-303 -387q-74 -91 -160.5 -162.5t-155.5 -99.5q-12 -6 -12.5 -13t8.5 -11q132 -60 238 -285l182 -405q4 -11 0.5 -17t-14.5 -6h-103q-14 0 -20 14l-156 336q-25 51 -46 89t-52.5 82.5t-63.5 73t-74 48t-88 19.5h-43l-106 -646q-3 -16 -18 -16h-99 q-19 0 -16 20l104 642h-47q-44 0 -91.5 -20.5t-84 -46.5t-84 -75t-75 -81.5t-72.5 -88.5l-269 -340q-10 -10 -22 -10h-113q-12 0 -15 7t5 16l313 405q187 228 332 287q8 4 11.5 8.5t1.5 8.5t-9 7q-60 30 -122 100t-105 160l-180 387q-4 10 -0.5 16.5t14.5 6.5h104 q15 0 21 -14l153 -314q26 -55 56.5 -102.5t70 -94t87.5 -73.5t98 -27h43l98 609q3 16 19 16h98q19 0 16 -20l-94 -605h43q159 0 395 297l254 318q10 10 23 10h114q12 0 15.5 -7t-4.5 -16z" />
<glyph unicode="&#x417;" horiz-adv-x="1247" d="M299 1356l102 28q181 48 349 48q194 0 306.5 -87.5t112.5 -234.5q0 -50 -14 -99.5t-44 -100.5t-85.5 -95.5t-130.5 -73.5q-33 -12 -21 -23q3 -3 9 -5q108 -36 164.5 -112.5t56.5 -180.5q0 -61 -20 -121t-66 -118t-111.5 -102.5t-164.5 -71.5t-218 -27q-172 0 -336 47 l-112 34q-16 5 -10 25l43 84q8 13 24 10l107 -35q139 -41 288 -41q89 0 164 20t125.5 53t86 76t51.5 88.5t16 90.5q0 113 -96 171.5t-252 58.5h-189q-19 0 -16 20l16 86q3 16 19 16h184q166 0 280.5 89t114.5 214q0 98 -77.5 158t-213.5 60q-153 0 -313 -41l-104 -29 q-20 -3 -23 14l-14 86q-4 18 12 21z" />
<glyph unicode="&#x418;" horiz-adv-x="1441" d="M1165 0h-100q-19 0 -16 20l157 971q16 117 43 193q3 9 0.5 14t-9 4t-11.5 -10q-24 -44 -86 -121l-713 -856q-77 -97 -145 -203q-9 -12 -23 -12h-141q-20 0 -17 20l224 1373q3 16 18 16h100q20 0 17 -20l-156 -969q-20 -123 -45 -195q-4 -9 0 -14.5t11 -4t12 10.5 q35 56 80 113l716 864q91 118 148 203q9 12 22 12h140q19 0 16 -20l-223 -1373q-3 -16 -19 -16z" />
<glyph unicode="&#x41b;" horiz-adv-x="1435" d="M1401 1389l-223 -1373q-3 -16 -19 -16h-100q-20 0 -17 20l207 1266h-649l-96 -586q-41 -260 -135.5 -424.5t-255.5 -255.5l-84 -45q-19 -9 -25 9l-29 79q-6 16 9 25l79 45q122 67 196.5 207.5t111.5 368.5l110 684q3 16 19 16h884q20 0 17 -20z" />
<glyph unicode="&#x41d;" horiz-adv-x="1413" d="M1137 0h-99q-19 0 -16 20l102 642h-780l-106 -646q-3 -16 -19 -16h-98q-20 0 -17 20l224 1373q3 16 18 16h98q20 0 17 -20l-94 -605h780l98 609q3 16 19 16h98q19 0 16 -20l-223 -1373q-3 -16 -18 -16z" />
<glyph unicode="&#x41f;" horiz-adv-x="1390" d="M1356 1389l-223 -1373q-3 -16 -19 -16h-100q-20 0 -17 20l205 1266h-758l-206 -1270q-3 -16 -19 -16h-98q-20 0 -17 20l224 1373q3 16 18 16h993q20 0 17 -20z" />
<glyph unicode="&#x420;" horiz-adv-x="1271" d="M346 1409h494q213 0 318.5 -109.5t82.5 -304.5q-25 -219 -203 -335.5t-479 -116.5h-235l-86 -527q-3 -16 -19 -16h-98q-20 0 -17 20l224 1373q3 16 18 16zM344 666h227q232 0 372.5 85.5t160.5 243.5q20 138 -54 214.5t-225 76.5h-381z" />
<glyph unicode="&#x421;" horiz-adv-x="1234" d="M1022 57l-94 -30q-80 -28 -142.5 -37.5t-154.5 -9.5q-236 0 -366 145t-130 403q0 113 23 231t78 240.5t135.5 217t207 155t281.5 60.5q80 0 140.5 -13.5t146.5 -44.5l78 -28q18 -6 8 -25l-43 -82q-10 -14 -25 -8l-78 29q-63 24 -114.5 33.5t-124.5 9.5q-89 0 -167 -27.5 t-135 -74.5t-104 -110.5t-77.5 -133.5t-51.5 -146.5t-30 -146.5t-9 -136q0 -205 94.5 -313.5t276.5 -108.5q141 3 260 44l90 30q20 7 23 -12l16 -88q3 -17 -12 -23z" />
<glyph unicode="&#x423;" horiz-adv-x="1345" d="M1425 1386l-673 -1032q-30 -47 -49 -74.5t-51 -70t-57.5 -68t-62.5 -55.5t-72.5 -46.5t-81.5 -28t-95 -11.5h-76q-20 0 -17 20l17 86q3 17 18 17h76q96 0 168.5 66.5t85.5 148.5q9 38 1 96t-42 154l-287 801q-4 9 0 14.5t15 5.5h102q17 0 23 -14l243 -686 q43 -125 58 -230q2 -14 9.5 -14.5t16.5 14.5q107 189 133 230l449 688q9 12 22 12h115q11 0 14.5 -7t-2.5 -16z" />
<glyph unicode="&#x424;" horiz-adv-x="1718" d="M1049 1229h159q215 0 332 -107t117 -301q0 -70 -14 -139.5t-42.5 -141t-77.5 -132.5t-114 -108.5t-157.5 -75t-202.5 -27.5h-168l-31 -181q-3 -16 -19 -16h-100q-19 0 -16 20l28 177h-159q-215 0 -332 107.5t-117 301.5q0 85 19 168t64.5 166.5t112.5 146.5t173.5 102.5 t238.5 39.5h168l27 164q3 16 18 16h101q19 0 16 -20zM891 1106h-160q-97 0 -177 -31.5t-131 -82t-86 -116.5t-50 -131t-15 -129q0 -142 84 -219.5t240 -77.5h168zM1026 1106l-127 -787h162q97 0 177 32t131 83t86 117t50 130.5t15 127.5q0 143 -84 220t-240 77h-170z" />
<glyph unicode="&#x426;" horiz-adv-x="1447" d="M1149 123h111q20 0 16 -21l-78 -467q-3 -16 -18 -16h-93q-19 0 -16 21l57 360h-1009q-20 0 -17 20l224 1373q3 16 18 16h100q20 0 17 -20l-205 -1266h758l207 1270q3 16 18 16h98q20 0 17 -20z" />
<glyph unicode="&#x427;" horiz-adv-x="1323" d="M1288 1389l-241 -1373q-3 -16 -19 -16h-100q-20 0 -17 20l103 576l-144 -45q-145 -45 -292 -45q-211 0 -308 122t-59 337l78 428q3 16 18 16h99q19 0 16 -20l-74 -422q-28 -161 35.5 -247.5t208.5 -86.5q141 0 256 37l188 57l119 666q3 16 19 16h98q19 0 16 -20z" />
<glyph unicode="&#x428;" horiz-adv-x="1937" d="M1903 1389l-224 -1373q-3 -16 -18 -16h-1540q-20 0 -17 20l224 1373q3 16 18 16h98q20 0 17 -20l-203 -1266h584l207 1270q3 16 18 16h98q20 0 17 -20l-203 -1266h584l204 1270q3 16 19 16h100q20 0 17 -20z" />
<glyph unicode="&#x429;" horiz-adv-x="1996" d="M1698 123h108q20 0 17 -21l-78 -467q-3 -16 -19 -16h-92q-20 0 -16 21l57 360h-1554q-20 0 -17 20l224 1373q3 16 18 16h98q20 0 17 -20l-203 -1266h584l207 1270q3 16 18 16h98q20 0 17 -20l-203 -1266h584l204 1270q3 16 19 16h100q20 0 17 -20z" />
<glyph unicode="&#x42b;" horiz-adv-x="1695" d="M104 20l224 1373q3 16 18 16h98q20 0 17 -20l-84 -523h229q265 0 408 -97.5t143 -291.5q0 -66 -16 -130t-55.5 -128t-99 -111.5t-154.5 -77.5t-214 -30h-497q-20 0 -17 20zM1417 0h-98q-19 0 -16 20l223 1373q3 16 18 16h98q20 0 17 -20l-223 -1373q-3 -16 -19 -16z M258 123h375q84 0 152 22t110.5 57t71 81t40 91t11.5 91q0 139 -108.5 208.5t-315.5 69.5h-238z" />
<glyph unicode="&#x42c;" horiz-adv-x="1269" d="M618 0h-497q-20 0 -17 20l224 1373q3 16 18 16h98q20 0 17 -20l-84 -523h229q265 0 408 -97.5t143 -291.5q0 -66 -16 -130t-55.5 -128t-99 -111.5t-154.5 -77.5t-214 -30zM258 123h375q84 0 152 22t110.5 57t71 81t40 91t11.5 91q0 139 -108.5 208.5t-315.5 69.5h-238z " />
<glyph unicode="&#x42d;" horiz-adv-x="1236" d="M283 1352l94 30q81 28 143.5 38t153.5 10q236 0 365.5 -145.5t129.5 -403.5q0 -113 -23 -231t-78 -240.5t-135.5 -217t-207 -155t-281.5 -60.5q-80 0 -139.5 13.5t-146.5 44.5l-78 28q-18 6 -8 25l43 82q10 14 24 8l78 -28q64 -24 115.5 -34t124.5 -10q97 0 180 32.5 t142 86t106 127.5t76 150t47 160h-652q-19 0 -16 20l16 86q3 16 19 16h651q4 66 4 97q0 205 -94.5 313.5t-276.5 108.5q-144 -3 -260 -43l-90 -31q-19 -6 -22 12l-17 88q-3 16 13 23z" />
<glyph unicode="&#x42e;" horiz-adv-x="1898" d="M362 784h283q23 99 59.5 188.5t95.5 175t133.5 147.5t178 99.5t223.5 37.5q236 0 366 -145.5t130 -403.5q0 -79 -11.5 -162.5t-38 -172.5t-65.5 -170t-97.5 -154.5t-130 -127t-168 -85t-206.5 -31.5q-238 0 -368 144.5t-130 401.5q0 66 9 136h-281l-106 -646 q-3 -16 -19 -16h-98q-20 0 -17 20l224 1373q3 16 18 16h98q20 0 17 -20zM1120 106q90 0 168 28t135.5 75t104.5 111t77 134t50.5 146.5t29.5 146t9 134.5q0 203 -93.5 312.5t-271.5 109.5q-90 0 -167.5 -27.5t-135 -74.5t-104 -110.5t-77 -134t-51 -147t-29.5 -147 t-9 -136.5q0 -201 93.5 -310.5t270.5 -109.5z" />
<glyph unicode="&#x42f;" horiz-adv-x="1347" d="M1313 1389l-223 -1373q-3 -16 -19 -16h-100q-20 0 -17 20l90 562h-229q-153 0 -261 -65t-187 -200l-181 -305q-9 -12 -22 -12h-109q-12 0 -15.5 7t1.5 16l209 354q46 82 103.5 138.5t135.5 96.5q52 22 5 35q-117 34 -180.5 114t-63.5 197q0 61 15.5 121t53.5 120.5 t94 106.5t144 74.5t197 28.5h542q20 0 17 -20zM1159 1284h-420q-75 0 -136.5 -21.5t-101 -56t-66.5 -78.5t-38.5 -87.5t-11.5 -84.5q0 -119 99.5 -183t283.5 -64h299z" />
<glyph unicode="&#x431;" horiz-adv-x="1130" d="M1022 1448l12 -84q3 -16 -14 -23l-389 -122q-130 -43 -207 -133.5t-107 -241.5q-4 -16 4 -22.5t31 9.5q145 125 312 125q173 0 270.5 -101t97.5 -280q0 -79 -18 -159t-58.5 -159t-100 -140t-150 -99t-199.5 -38q-82 0 -148 20.5t-108.5 55.5t-72.5 82.5t-41 102.5 t-14 113.5t9 116.5l55 348q35 209 136.5 335t281.5 183l397 125q18 6 21 -14zM645 831q-158 0 -259 -105t-126 -280q-6 -51 -5 -100t18 -93t45.5 -77t77.5 -52.5t114 -19.5q85 0 153.5 31t111.5 79.5t72 111.5t40.5 123t11.5 118q0 126 -65.5 195t-188.5 69z" />
<glyph unicode="&#x432;" horiz-adv-x="1015" d="M74 119l84 508q28 178 147 276t305 98q148 0 229 -63t81 -174q0 -89 -49.5 -155t-129.5 -97q-21 -7 -20 -17q0 -6 10 -8q65 -18 106.5 -68t41.5 -124q0 -44 -12.5 -86.5t-43.5 -84.5t-78 -73.5t-121 -51t-167 -19.5q-122 0 -238 55l-133 61q-15 6 -12 23zM279 555h235 q141 0 209 52.5t68 131.5q0 66 -49 103t-138 37q-129 0 -212 -68.5t-103 -194.5zM258 436l-41 -256l80 -35q94 -43 170 -43q131 0 206 52t75 145q0 137 -246 137h-244z" />
<glyph unicode="&#x433;" horiz-adv-x="966" d="M240 944l82 25q112 32 239 32q151 0 235.5 -60.5t84.5 -166.5q0 -227 -265 -295l-249 -67q-170 -45 -170 -176q0 -63 54 -98.5t155 -35.5q165 0 286 41l56 19q19 6 22 -12l14 -80q3 -17 -12 -23l-55 -18q-134 -49 -316 -49q-161 0 -248 63.5t-87 179.5q0 231 272 303 l248 68q164 43 164 164q0 56 -51 88.5t-144 32.5q-117 0 -213 -27l-86 -23q-17 -6 -20 15l-11 80q-3 16 15 20z" />
<glyph unicode="&#x434;" horiz-adv-x="1101" d="M434 1462l107 -32q238 -74 351.5 -263t113.5 -514q0 -95 -14 -183t-51 -179.5t-94.5 -158.5t-153 -109.5t-218.5 -42.5q-181 0 -282 102t-101 283q0 78 17 157t56.5 158t97 139.5t145.5 98.5t194 38q130 0 225 -69q14 -12 24.5 -7t4.5 29q-43 165 -130.5 263.5 t-231.5 142.5l-109 33q-19 6 -10 24l37 80q6 16 22 10zM612 831q-83 0 -151.5 -31t-111 -80t-71.5 -112t-41 -122.5t-12 -116.5q0 -128 65.5 -196.5t188.5 -68.5q85 0 153.5 31.5t111.5 80t72 112t40.5 123t11.5 116.5q0 128 -66 196t-190 68z" />
<glyph unicode="&#x435;" horiz-adv-x="1024" d="M625 438l-398 -63q-3 -129 63.5 -201t192.5 -72q83 0 201 27l70 18q17 6 20 -14l10 -84q3 -17 -14 -20l-70 -19q-117 -30 -221 -30q-184 0 -284.5 105t-100.5 292q0 81 17.5 163.5t58.5 166.5t100.5 148.5t151.5 105t203 40.5q158 0 245.5 -68t87.5 -188t-82 -200 t-251 -107zM233 487l377 60q115 19 165 68.5t50 113.5q0 71 -54.5 110.5t-152.5 39.5q-148 0 -248.5 -100t-136.5 -292z" />
<glyph unicode="&#x436;" horiz-adv-x="1507" d="M1452 958l-217 -270q-130 -145 -211 -182q-31 -15 -2 -27q87 -41 160 -184l133 -272q4 -10 0 -16.5t-15 -6.5h-104q-14 0 -20 14l-117 244q-88 176 -213 176h-33l-70 -418q-3 -16 -18 -16h-96q-20 0 -17 20l68 414h-29q-120 0 -270 -182l-197 -242q-10 -10 -22 -10h-111 q-12 0 -15 7t5 16l223 278q63 76 113.5 120.5t107.5 67.5q31 12 2 29q-66 31 -147 178l-129 262q-4 10 -0.5 16.5t14.5 6.5h107q14 0 20 -14l105 -215q102 -195 213 -195h28l68 408q3 16 18 16h97q19 0 16 -20l-66 -404h27q62 0 136 60.5t141 142.5l174 211q10 10 22 10h111 q12 0 15 -7t-5 -16z" />
<glyph unicode="&#x437;" horiz-adv-x="964" d="M209 954l80 21q113 26 250 26q152 0 239.5 -64t87.5 -171q0 -81 -46 -147.5t-142 -98.5q-32 -10 -19 -20q3 -2 9 -4q72 -23 114.5 -78t42.5 -125q0 -56 -25.5 -109t-75.5 -100t-137.5 -75.5t-199.5 -28.5q-118 0 -250 32l-86 23q-18 3 -12 22l39 82q6 16 22 13l82 -23 q114 -27 209 -27q133 0 219 55t86 142q0 67 -67.5 106t-171.5 39h-84q-9 0 -14 6t-3 15l15 80q3 16 18 16h80q113 0 189.5 50t76.5 130q0 61 -53.5 99.5t-144.5 38.5q-126 0 -232 -25l-82 -18q-17 -3 -20 16l-8 82q-3 17 14 20z" />
<glyph unicode="&#x438;" horiz-adv-x="1136" d="M801 18l10 117q-3 31 -31 6q-139 -161 -350 -161q-170 0 -250 108t-49 293l96 584q3 16 19 16h96q19 0 16 -20l-94 -578q-22 -133 28 -207t161 -74q155 0 259 110t136 306l74 447q3 16 18 16h96q20 0 17 -20l-152 -945q-3 -16 -18 -16h-66q-19 0 -16 18z" />
<glyph unicode="&#x43a;" horiz-adv-x="1048" d="M303 557h41q39 0 78.5 16t81 50t68.5 59.5t71 71.5l205 217q8 10 22 10h119q12 0 15 -7t-5 -16l-243 -262q-138 -148 -236 -186q-8 -3 -11 -6.5t-1 -6.5t8 -5q53 -21 95 -68t89 -125l158 -276q5 -9 1.5 -16t-13.5 -7h-105q-13 0 -22 12l-137 234q-27 44 -47.5 71 t-51.5 57.5t-70 45t-87 14.5h-43l-68 -418q-3 -16 -18 -16h-97q-19 0 -16 20l152 945q3 16 18 16h96q20 0 17 -20z" />
<glyph unicode="&#x43b;" horiz-adv-x="1159" d="M1075 961l-153 -945q-3 -16 -19 -16h-98q-20 0 -17 20l138 840h-457l-59 -373q-29 -181 -105 -295.5t-209 -179.5l-59 -30q-19 -6 -25 10l-26 80q-6 15 10 24l59 29q179 90 221 367l80 473q3 16 19 16h684q19 0 16 -20z" />
<glyph unicode="&#x43d;" horiz-adv-x="1118" d="M1034 961l-153 -945q-3 -16 -19 -16h-96q-19 0 -16 20l67 414h-532l-70 -418q-3 -16 -18 -16h-97q-19 0 -16 20l154 945q3 16 18 16h96q20 0 17 -20l-66 -404h533l67 408q3 16 19 16h96q19 0 16 -20z" />
<glyph unicode="&#x43f;" horiz-adv-x="1136" d="M336 963l-10 -117q3 -30 30 -6q139 161 351 161q170 0 250 -108t49 -293l-97 -584q-3 -16 -18 -16h-96q-20 0 -17 20l94 578q22 133 -28 207t-160 74q-155 0 -259 -110t-136 -306l-74 -447q-3 -16 -18 -16h-97q-19 0 -16 20l152 945q3 16 18 16h65q20 0 17 -18z" />
<glyph unicode="&#x440;" horiz-adv-x="1134" d="M336 963l-12 -117q3 -33 30 -6q145 161 332 161q169 0 261.5 -102.5t92.5 -286.5q0 -83 -16.5 -166.5t-56 -168.5t-98.5 -149.5t-151 -105.5t-206 -42q-131 0 -233 51l-58 28l-78 -475q-3 -16 -18 -16h-96q-20 0 -17 20l224 1377q3 16 18 16h63q11 0 15.5 -4.5t3.5 -13.5 zM240 180l65 -33q92 -45 207 -45q86 1 156 35t113.5 86.5t73 120.5t41 132t11.5 124q0 132 -61.5 205.5t-177.5 73.5q-151 0 -251.5 -115t-129.5 -299z" />
<glyph unicode="&#x441;" horiz-adv-x="960" d="M764 31l-68 -21q-110 -30 -204 -30q-194 0 -296 103.5t-102 289.5q0 84 17 167.5t58 168t102 148.5t157.5 104t216.5 40q84 0 189 -30l59 -19q16 -5 10 -24l-37 -78q-9 -16 -24 -10l-49 14q-82 25 -152 25q-93 0 -167 -34t-119 -87t-75 -121.5t-41.5 -132t-11.5 -125.5 q0 -133 68 -205t201 -72q63 0 184 31l63 17q21 7 21 -13l14 -86q3 -17 -14 -20z" />
<glyph unicode="&#x442;" horiz-adv-x="1753" d="M336 963l-12 -121q3 -29 32 0q71 80 151 119.5t183 39.5q101 0 163 -51t87 -133q20 -33 51 2q77 95 164 138.5t193 43.5q156 0 229.5 -108t44.5 -293l-96 -584q-3 -16 -19 -16h-96q-19 0 -16 20l92 578q22 134 -19.5 207.5t-142.5 73.5q-158 0 -254 -113t-127 -303 l-74 -447q-3 -16 -18 -16h-96q-20 0 -17 20l92 580q22 132 -20.5 205.5t-142.5 73.5q-156 0 -252 -113t-127 -303l-74 -447q-3 -16 -18 -16h-97q-19 0 -16 20l152 945q3 16 18 16h65q20 0 17 -18z" />
<glyph unicode="&#x443;" horiz-adv-x="1116" d="M1112 958l-692 -1148q-75 -125 -163.5 -183.5t-201.5 -58.5h-57q-19 0 -16 20l14 84q3 17 18 17h52q127 0 213 143l75 125q78 125 15 330l-207 674q-7 20 16 20h96q18 0 21 -14l174 -555q35 -113 35 -195q0 -20 11 -20q10 0 20 22q39 90 104 201l332 549q9 12 22 12h107 q12 0 15 -7t-3 -16z" />
<glyph unicode="&#x444;" horiz-adv-x="1611" d="M944 924l51 26q105 51 207 51q153 0 233.5 -98.5t80.5 -275.5q0 -81 -15 -166t-51.5 -172t-89 -155t-134.5 -111t-182 -43q-108 0 -190 49l-51 30l-78 -475q-3 -16 -18 -16h-97q-19 0 -16 20l76 467l-52 -26q-98 -49 -202 -49q-154 0 -236 98.5t-82 275.5q0 81 15 166 t51 172t88.5 155t134.5 111t182 43q111 0 193 -49l49 -28l84 508q3 16 18 16h97q20 0 16 -21zM791 797l-62 41q-65 41 -158 41q-72 0 -131.5 -36t-97.5 -92t-63.5 -127t-36.5 -137.5t-11 -126.5q0 -124 51.5 -191t147.5 -67q102 0 180 43l80 43zM823 182l66 -41 q62 -39 153 -39q73 0 132.5 36.5t97 93.5t63.5 128t36.5 136.5t10.5 124.5q0 124 -51 191t-147 67q-94 0 -185 -48l-77 -40z" />
<glyph unicode="&#x446;" horiz-adv-x="1189" d="M928 121h90q20 0 16 -21l-65 -395q-3 -16 -19 -16h-90q-19 0 -16 20l47 291h-64q-19 0 -16 18l10 117q-3 30 -30 6q-139 -161 -351 -161q-170 0 -250 108t-49 293l97 584q3 16 18 16h96q20 0 17 -20l-95 -578q-22 -133 28 -207t161 -74q155 0 259 110t136 306l74 447 q3 16 18 16h97q19 0 16 -20z" />
<glyph unicode="&#x447;" horiz-adv-x="1050" d="M969 961l-156 -945q-3 -16 -18 -16h-97q-19 0 -16 20l59 375l-100 -28q-113 -29 -205 -29q-163 0 -242 87.5t-53 238.5l49 301q3 16 19 16h98q20 0 17 -20l-50 -291q-17 -99 30.5 -153t148.5 -54q108 0 178 22l133 37l72 443q3 16 18 16h98q20 0 17 -20z" />
<glyph unicode="&#x448;" horiz-adv-x="1753" d="M1417 18l13 121q-3 30 -33 0q-71 -80 -151 -119.5t-183 -39.5q-101 0 -163 51t-87 133q-20 33 -51 -2q-77 -95 -163.5 -138.5t-192.5 -43.5q-157 0 -230.5 108t-44.5 293l96 584q3 16 19 16h96q19 0 16 -20l-92 -578q-22 -134 19.5 -207.5t142.5 -73.5q158 0 254 113 t127 303l74 447q3 16 18 16h96q20 0 17 -20l-92 -580q-22 -132 20.5 -205.5t142.5 -73.5q156 0 252 113t127 303l74 447q3 16 18 16h97q19 0 16 -20l-151 -945q-3 -16 -19 -16h-65q-20 0 -17 18z" />
<glyph unicode="&#x449;" horiz-adv-x="1804" d="M1544 121h88q20 0 17 -21l-66 -395q-3 -16 -18 -16h-88q-20 0 -17 20l45 291h-61q-20 0 -17 18l13 121q-3 30 -33 0q-71 -80 -151 -119.5t-183 -39.5q-101 0 -163 51t-87 133q-20 33 -51 -2q-77 -95 -163.5 -138.5t-192.5 -43.5q-157 0 -230.5 108t-44.5 293l97 584 q3 16 18 16h96q20 0 17 -20l-93 -578q-22 -134 19.5 -207.5t142.5 -73.5q158 0 254 113t127 303l74 447q3 16 18 16h97q19 0 16 -20l-92 -580q-22 -132 21 -205.5t143 -73.5q156 0 252 113t127 303l73 447q3 16 19 16h96q19 0 16 -20z" />
<glyph unicode="&#x44b;" horiz-adv-x="1396" d="M315 631h160q193 0 297.5 -74.5t104.5 -216.5q0 -50 -11.5 -97.5t-40 -96t-72.5 -85t-114.5 -59t-159.5 -22.5q-118 0 -229 51l-141 65q-16 7 -13 23l140 846q3 16 18 16h96q20 0 17 -20zM1311 961l-152 -945q-3 -16 -18 -16h-97q-19 0 -16 20l152 945q3 16 18 16h96 q20 0 17 -20zM240 178l86 -41q79 -35 163 -35q69 0 120.5 21t79.5 55.5t41 70.5t13 73q0 93 -72.5 140.5t-207.5 47.5h-170z" />
<glyph unicode="&#x44c;" horiz-adv-x="1005" d="M315 631h160q193 0 297.5 -74.5t104.5 -216.5q0 -50 -11.5 -97.5t-40 -96t-72.5 -85t-114.5 -59t-159.5 -22.5q-118 0 -229 51l-141 65q-16 7 -13 23l140 846q3 16 18 16h96q20 0 17 -20zM240 178l86 -41q79 -35 163 -35q69 0 120.5 21t79.5 55.5t41 70.5t13 73 q0 93 -72.5 140.5t-207.5 47.5h-170z" />
<glyph unicode="&#x44d;" horiz-adv-x="970" d="M205 950l65 19q109 32 207 32q194 0 295.5 -104t101.5 -291q0 -69 -12 -138.5t-37 -141t-69 -133t-102.5 -110t-143 -76t-184.5 -27.5q-84 0 -189 30l-59 19q-19 6 -10 24l34 78q9 15 25 12l51 -16q79 -25 150 -25q87 0 157 28.5t116 78t74.5 106t45.5 123.5h-442 q-9 0 -14 6t-3 15l14 80q3 16 21 16h442l2 47q0 133 -67 205t-199 72q-74 0 -184 -29l-64 -16q-19 -6 -22 12l-15 84q-3 16 15 20z" />
<glyph unicode="&#x44e;" horiz-adv-x="1521" d="M303 557h234q21 87 60.5 162.5t100 140.5t150.5 103t199 38q181 0 280.5 -104.5t99.5 -290.5q0 -80 -17 -163t-58 -167t-100 -149t-151 -106t-204 -41q-182 0 -282.5 105t-100.5 292q0 37 2 57h-231l-70 -418q-3 -16 -18 -16h-97q-19 0 -16 20l154 945q3 16 18 16h96 q20 0 17 -20zM901 102q85 0 154.5 34t113 86.5t73.5 120.5t42 132t12 125q0 132 -66.5 205.5t-187.5 73.5q-86 0 -155.5 -34t-113 -86.5t-73 -120.5t-41.5 -132t-12 -125q0 -133 66 -206t188 -73z" />
<glyph unicode="&#x44f;" horiz-adv-x="1069" d="M985 961l-154 -945q-3 -16 -18 -16h-96q-20 0 -17 20l60 369h-158q-198 0 -315 -188l-117 -189q-9 -12 -23 -12h-106q-11 0 -14.5 7t2.5 16l149 237q65 108 174 158q14 6 19 10.5t2 8t-13 7.5q-85 27 -131.5 82t-46.5 133q0 54 20 107t62.5 103t121.5 81t183 31h400 q19 0 16 -20zM836 860h-283q-63 0 -112 -19.5t-75.5 -50.5t-39.5 -64.5t-13 -66.5q0 -74 64 -112.5t188 -38.5h215z" />
<glyph unicode="&#x451;" horiz-adv-x="1024" d="M524 1466q38 0 59 -20.5t21 -56.5q0 -44 -24.5 -72.5t-69.5 -28.5q-37 0 -57.5 20.5t-20.5 55.5q0 47 24.5 74.5t67.5 27.5zM836 1466q38 0 58.5 -20.5t20.5 -56.5q0 -44 -24.5 -72.5t-69.5 -28.5q-37 0 -57.5 20.5t-20.5 55.5q0 47 25 74.5t68 27.5zM625 438l-398 -63 q-3 -129 63.5 -201t192.5 -72q83 0 201 27l70 18q17 6 20 -14l10 -84q3 -17 -14 -20l-70 -19q-117 -30 -221 -30q-184 0 -284.5 105t-100.5 292q0 81 17.5 163.5t58.5 166.5t100.5 148.5t151.5 105t203 40.5q158 0 245.5 -68t87.5 -188t-82 -200t-251 -107zM233 487l377 60 q115 19 165 68.5t50 113.5q0 71 -54.5 110.5t-152.5 39.5q-148 0 -248.5 -100t-136.5 -292z" />
<glyph unicode="&#x459;" horiz-adv-x="1687" d="M997 631h168q190 0 292 -77t102 -216q0 -49 -11.5 -96.5t-41 -96t-74 -84.5t-115.5 -58.5t-160 -22.5q-115 0 -219 49l-145 67q-16 7 -13 23l121 741h-432l-59 -373q-29 -181 -105 -295.5t-209 -179.5l-59 -30q-19 -6 -25 10l-26 80q-6 15 10 24l59 29q182 92 224 371 l77 469q3 16 19 16h659q20 0 17 -20zM975 510l-51 -332l94 -43q79 -33 151 -33q67 0 118.5 21t80.5 54.5t43 70t14 74.5q0 88 -69.5 138t-202.5 50h-178z" />
<glyph unicode="&#x45a;" horiz-adv-x="1624" d="M924 582h231q162 0 249 -68t87 -195q0 -62 -21 -119.5t-64 -108t-120.5 -81t-179.5 -30.5q-136 0 -250 57l-131 59q-15 6 -12 23l57 342h-483l-72 -445q-3 -16 -18 -16h-97q-19 0 -16 20l154 945q3 16 18 16h96q20 0 17 -20l-60 -379h482l61 383q3 16 18 16h97 q19 0 16 -20zM901 461l-45 -283l88 -41q77 -35 174 -35q106 0 173 57t67 148q0 76 -55 115t-160 39h-242z" />
<glyph unicode="&#x1e9e;" horiz-adv-x="1449" d="M1348 1395l8 -21q5 -13 -4 -26q-93 -102 -164 -201l-256 -342q-14 -20 -14 -28.5t14 -14.5l158 -66q129 -54 189 -126.5t60 -172.5q0 -192 -139.5 -304.5t-404.5 -112.5q-134 0 -287 49l-90 26q-16 5 -10 25l41 84q9 16 24 10l84 -27q139 -41 244 -41q189 0 295 73.5 t106 205.5q0 66 -46.5 115.5t-143.5 89.5l-246 100q-13 6 -16 19l-9 20q-3 17 4 27l293 391q67 83 99 113q26 26 -11 26h-462q-101 0 -173 -74t-92 -202l-161 -994q-3 -16 -19 -16h-100q-20 0 -17 20l162 998q29 185 138.5 288t273.5 103h649q17 0 23 -14z" />
<glyph unicode="&#x2000;" horiz-adv-x="909" />
<glyph unicode="&#x2001;" horiz-adv-x="1819" />
<glyph unicode="&#x2002;" horiz-adv-x="909" />
<glyph unicode="&#x2003;" horiz-adv-x="1819" />
<glyph unicode="&#x2004;" horiz-adv-x="606" />
<glyph unicode="&#x2005;" horiz-adv-x="454" />
<glyph unicode="&#x2006;" horiz-adv-x="303" />
<glyph unicode="&#x2007;" horiz-adv-x="303" />
<glyph unicode="&#x2008;" horiz-adv-x="227" />
<glyph unicode="&#x2009;" horiz-adv-x="161" />
<glyph unicode="&#x200a;" horiz-adv-x="101" />
<glyph unicode="&#x2010;" horiz-adv-x="901" d="M201 598h532q20 0 17 -20l-17 -84q-3 -17 -18 -17h-531q-20 0 -16 21l14 84q3 16 19 16z" />
<glyph unicode="&#x2011;" horiz-adv-x="901" d="M201 598h532q20 0 17 -20l-17 -84q-3 -17 -18 -17h-531q-20 0 -16 21l14 84q3 16 19 16z" />
<glyph unicode="&#x2012;" horiz-adv-x="901" d="M201 598h532q20 0 17 -20l-17 -84q-3 -17 -18 -17h-531q-20 0 -16 21l14 84q3 16 19 16z" />
<glyph unicode="&#x2013;" horiz-adv-x="1376" d="M201 598h1007q20 0 17 -20l-15 -84q-3 -17 -18 -17h-1008q-20 0 -16 21l14 84q3 16 19 16z" />
<glyph unicode="&#x2014;" horiz-adv-x="1615" d="M201 598h1247q19 0 16 -20l-16 -84q-3 -17 -18 -17h-1246q-20 0 -16 21l14 84q3 16 19 16z" />
<glyph unicode="&#x2018;" horiz-adv-x="401" d="M367 1444l-72 -90q-65 -75 -74 -133q-9 -51 12.5 -80t67.5 -29q47 0 77 25.5t38 70.5q11 62 -39 86q-15 8 -15 17t15 26l86 107h-96z" />
<glyph unicode="&#x2019;" horiz-adv-x="401" d="M293 1126l72 91q63 74 73 133q9 51 -12.5 79.5t-67.5 28.5q-47 0 -76.5 -25.5t-37.5 -70.5q-11 -62 39 -86q15 -8 15 -17t-15 -26l-86 -107h96z" />
<glyph unicode="&#x201a;" horiz-adv-x="401" d="M86 -147l72 90q63 74 73 133q9 51 -12 79.5t-67 28.5q-47 0 -77 -25.5t-38 -70.5q-11 -62 39 -86q15 -8 15 -17t-15 -26l-86 -106h96z" />
<glyph unicode="&#x201c;" horiz-adv-x="700" d="M367 1444l-72 -90q-65 -75 -74 -133q-9 -51 12.5 -80t67.5 -29q47 0 77 25.5t38 70.5q11 62 -39 86q-15 8 -15 17t15 26l86 107h-96zM666 1444l-72 -90q-65 -75 -74 -133q-9 -51 12.5 -80t67.5 -29q47 0 77 25.5t38 70.5q11 62 -39 86q-15 8 -15 17t15 26l86 107h-96z " />
<glyph unicode="&#x201d;" horiz-adv-x="702" d="M293 1126l72 91q63 74 73 133q9 51 -12.5 79.5t-67.5 28.5q-47 0 -76.5 -25.5t-37.5 -70.5q-11 -62 39 -86q15 -8 15 -17t-15 -26l-86 -107h96zM594 1126l72 91q63 74 73 133q9 51 -12.5 79.5t-67.5 28.5q-47 0 -76.5 -25.5t-37.5 -70.5q-11 -62 39 -86q15 -8 15 -17 t-15 -26l-86 -107h96z" />
<glyph unicode="&#x201e;" horiz-adv-x="702" d="M86 -147l72 90q63 74 73 133q9 51 -12 79.5t-67 28.5q-47 0 -77 -25.5t-38 -70.5q-11 -62 39 -86q15 -8 15 -17t-15 -26l-86 -106h96zM387 -147l72 90q63 74 73 133q9 51 -12 79.5t-67 28.5q-47 0 -77 -25.5t-38 -70.5q-11 -62 39 -86q15 -8 15 -17t-15 -26l-86 -106h96z " />
<glyph unicode="&#x2020;" horiz-adv-x="915" d="M883 1063l-11 -66q-3 -16 -18 -16h-264l-115 -707q-3 -16 -18 -16h-72q-19 0 -16 21l112 702h-256q-19 0 -16 20l10 66q3 16 19 16h260l57 349q3 16 18 16h72q9 0 14 -6t3 -15l-56 -344h260q20 0 17 -20z" />
<glyph unicode="&#x2021;" horiz-adv-x="919" d="M592 981l-41 -250h258q19 0 16 -20l-10 -68q-3 -16 -18 -16h-262l-58 -353q-3 -16 -18 -16h-72q-19 0 -16 21l55 348h-254q-19 0 -16 20l10 68q3 16 18 16h258l41 250h-256q-19 0 -16 20l10 66q3 16 19 16h260l57 349q3 16 18 16h72q9 0 14 -6t3 -15l-56 -344h260 q20 0 17 -20l-11 -66q-3 -16 -18 -16h-264z" />
<glyph unicode="&#x2022;" horiz-adv-x="718" d="M416 872q141 0 141 -127q0 -39 -8.5 -73.5t-28 -66t-57 -50t-88.5 -18.5q-70 0 -106 33.5t-36 95.5q0 40 9 74.5t28.5 65.5t57 48.5t88.5 17.5z" />
<glyph unicode="&#x2026;" horiz-adv-x="1085" d="M174 184q51 0 74.5 -29.5t15.5 -80.5q-8 -44 -35.5 -69t-70.5 -25q-51 0 -74 29.5t-14 80.5q6 45 33 69.5t71 24.5zM496 184q51 0 74.5 -29.5t15.5 -80.5q-7 -44 -35.5 -69t-71.5 -25q-51 0 -74 29.5t-14 80.5q6 44 33.5 69t71.5 25zM817 184q51 0 74.5 -29.5t15.5 -80.5 q-8 -44 -35.5 -69t-70.5 -25q-51 0 -74 29.5t-14 80.5q6 45 33 69.5t71 24.5z" />
<glyph unicode="&#x202f;" horiz-adv-x="363" />
<glyph unicode="&#x2039;" horiz-adv-x="753" d="M303 489l215 -344q6 -9 2.5 -15.5t-14.5 -6.5h-107q-13 0 -22 12l-207 326q-6 12 -6 22v15q0 11 8 22l313 328q10 10 25 10h113q12 0 14.5 -6.5t-6.5 -15.5z" />
<glyph unicode="&#x203a;" horiz-adv-x="753" d="M451 492l-215 344q-6 9 -2.5 15.5t14.5 6.5h106q14 0 23 -12l207 -326q6 -12 6 -22v-15q0 -11 -8 -22l-314 -328q-10 -10 -24 -10h-113q-12 0 -14.5 6.5t6.5 15.5z" />
<glyph unicode="&#x2044;" horiz-adv-x="538" d="M885 1409h82q11 0 14 -7t-4 -16l-1141 -1376q-10 -10 -22 -10h-82q-11 0 -14.5 7t3.5 16l1141 1376q10 10 23 10z" />
<glyph unicode="&#x205f;" horiz-adv-x="454" />
<glyph unicode="&#x20ac;" horiz-adv-x="1310" d="M1223 1374l77 -28q18 -6 9 -25l-43 -82q-10 -14 -25 -8l-78 29q-63 24 -114.5 33.5t-124.5 9.5q-99 0 -183.5 -33t-146 -92t-105.5 -130t-75 -157h520q11 0 14.5 -6.5t-2.5 -16.5l-37 -67q-7 -13 -20 -13h-506q-18 -78 -27 -149h449q11 0 14.5 -6.5t-2.5 -16.5l-37 -67 q-6 -12 -20 -12h-410v-9q0 -205 94.5 -313.5t276.5 -108.5q141 3 260 44l90 30q20 7 23 -12l16 -88q3 -17 -12 -23l-94 -30q-80 -28 -142.5 -37.5t-154.5 -9.5q-236 0 -366 145t-130 403v9h-152q-19 0 -16 20l12 66q3 16 19 16h143q5 65 25 149h-142q-20 0 -16 21l12 65 q3 17 19 17h153q37 111 92 203.5t135 170.5t193 122.5t248 44.5q80 0 140.5 -13.5t146.5 -44.5z" />
<glyph unicode="&#x2116;" horiz-adv-x="2332" d="M1997 1417q162 0 239 -107.5t48 -291.5q-31 -185 -142.5 -292.5t-275.5 -107.5q-160 0 -237 108t-48 292q31 183 143 291t273 108zM1163 0h-123q-17 0 -20 16q-35 106 -82 199l-451 852q-26 56 -47 125q-4 14 -16 10.5t-12 -18.5q3 -65 -15 -195l-159 -973 q-3 -16 -19 -16h-98q-20 0 -17 20l224 1373q3 16 18 16h123q17 0 20 -16q34 -109 82 -197l447 -848q31 -60 51 -131q5 -13 16 -9.5t11 17.5q-2 62 16 195l160 973q3 16 18 16h99q19 0 16 -20l-223 -1373q-3 -16 -19 -16zM1978 1313q-110 0 -185.5 -78.5t-98.5 -216.5 q-22 -138 28 -216.5t160 -78.5q114 0 190.5 78.5t98.5 216.5q23 138 -28 216.5t-165 78.5zM2140 406l-10 -68q-3 -16 -19 -16h-579q-19 0 -16 20l10 68q3 16 18 16h580q19 0 16 -20z" />
<glyph unicode="&#x2122;" horiz-adv-x="1830" d="M735 1391v-66q0 -18 -18 -18h-271v-664q0 -18 -18 -18h-74q-18 0 -18 18v664h-268q-19 0 -19 18v66q0 18 19 18h649q18 0 18 -18zM1702 1391v-748q0 -18 -19 -18h-73q-19 0 -19 18v408q0 114 11 192q2 12 -5.5 14t-11.5 -10q-5 -15 -20 -45.5t-21 -46.5l-153 -301 q-29 -61 -43 -96q-3 -15 -21 -15h-61q-17 0 -23 15q-6 16 -20.5 48.5t-20.5 47.5l-151 301q-8 20 -25.5 53.5t-19.5 38.5q-6 12 -11.5 10t-3.5 -14q10 -71 10 -192v-408q0 -18 -18 -18h-72q-18 0 -18 18v748q0 18 18 18h119q17 0 23 -14q14 -38 37 -82l149 -299 q49 -121 49 -123q2 -7 5 -9.5t6 0t6 9.5q9 31 51 123l149 299l35 82q6 14 21 14h122q19 0 19 -18z" />
<glyph unicode="&#x2190;" horiz-adv-x="1345" d="M1280 772v-98q0 -19 -18 -19h-928l282 -358q8 -9 5 -16t-15 -7h-112q-12 0 -23 11l-334 426q-9 12 0 24l334 428q11 11 23 11h112q12 0 15 -7t-5 -16l-282 -360h928q18 0 18 -19z" />
<glyph unicode="&#x2191;" horiz-adv-x="1345" d="M1180 922v-113q0 -12 -7 -15t-16 5l-360 284v-929q0 -19 -19 -19h-96q-18 0 -18 19v927l-361 -282q-9 -8 -15.5 -5t-6.5 15v113q0 12 10 22l428 334q12 9 24 0l426 -334q11 -11 11 -22z" />
<glyph unicode="&#x2192;" horiz-adv-x="1345" d="M141 674v98q0 19 19 19h927l-282 360q-8 9 -5 16t15 7h113q11 0 22 -11l334 -428q9 -12 0 -24l-334 -426q-11 -11 -22 -11h-113q-12 0 -15 7t5 16l282 358h-927q-19 0 -19 19z" />
<glyph unicode="&#x2193;" horiz-adv-x="1345" d="M750 340l360 285q9 8 16 4.5t7 -15.5v-112q0 -12 -11 -23l-426 -334q-12 -9 -24 0l-428 334q-11 11 -11 23v112q0 12 7 15.5t16 -4.5l360 -283v928q0 18 19 18h96q19 0 19 -18v-930z" />
<glyph unicode="&#x2194;" horiz-adv-x="1906" d="M1511 1163l332 -426q9 -12 0 -24l-332 -428q-11 -11 -22 -11h-115q-12 0 -15 7t5 16l283 360h-1311l285 -360q8 -9 4.5 -16t-15.5 -7h-116q-12 0 -23 11l-332 428q-9 12 0 24l332 426q11 11 23 11h116q12 0 15.5 -7t-4.5 -16l-287 -360h1315l-285 360q-8 9 -5 16t15 7 h115q11 0 22 -11z" />
<glyph unicode="&#x2195;" horiz-adv-x="1345" d="M772 45l361 287q9 8 15.5 5t6.5 -15v-115q0 -13 -10 -23l-424 -331q-13 -9 -25 0l-430 331q-10 10 -10 23v115q0 12 7 15t16 -5l360 -283v1309l-360 -283q-9 -8 -16 -5t-7 15v117q0 13 10 23l430 331q12 9 25 0l424 -331q10 -10 10 -23v-117q0 -12 -6.5 -15t-15.5 5 l-361 287v-1317z" />
<glyph unicode="&#x2196;" horiz-adv-x="1433" d="M512 965l655 -656q12 -12 0 -24l-69 -72q-12 -13 -25 0l-657 657l-54 -454q-2 -12 -8.5 -14.5t-15.5 6.5l-82 79q-11 11 -8 25l67 537q3 15 19 18l534 66q13 3 25 -9l80 -82q9 -9 6.5 -15.5t-14.5 -8.5z" />
<glyph unicode="&#x2197;" horiz-adv-x="1345" d="M860 965l-452 53q-12 2 -15 8.5t6 15.5l80 82q12 12 25 9l534 -66q16 -3 19 -18l67 -537q3 -14 -8 -25l-82 -79q-9 -9 -15.5 -6.5t-8.5 14.5l-54 454l-657 -657q-13 -13 -25 0l-69 72q-12 12 0 24z" />
<glyph unicode="&#x2198;" horiz-adv-x="1431" d="M987 416l-655 655q-12 13 0 25l69 71q13 13 25 0l657 -657l54 455q2 12 8.5 14.5t15.5 -6.5l82 -80q11 -11 8 -25l-67 -536q-3 -16 -19 -19l-534 -65q-14 -3 -25 8l-80 82q-9 9 -6 15.5t15 8.5z" />
<glyph unicode="&#x2199;" horiz-adv-x="1345" d="M551 416l453 -54q12 -2 14.5 -8.5t-6.5 -15.5l-80 -82q-11 -11 -25 -8l-534 65q-16 3 -19 19l-67 536q-3 14 8 25l82 80q9 9 15.5 6.5t8.5 -14.5l54 -455l657 657q12 13 25 0l69 -71q12 -12 0 -25z" />
<glyph unicode="&#x25fc;" horiz-adv-x="983" d="M0 983h983v-983h-983v983z" />
<glyph horiz-adv-x="1286" d="M559 1792h139q13 0 16.5 -8t-7.5 -15l-232 -188q-11 -8 -22 -8h-99q-12 0 -15 6.5t5 15.5l193 187q10 10 22 10zM1343 1792h140q13 0 16 -8t-8 -15l-231 -188q-11 -8 -23 -8h-98q-12 0 -15.5 6.5t4.5 15.5l193 187q10 10 22 10zM104 20l224 1373q3 16 18 16h98 q20 0 17 -20l-223 -1373q-3 -16 -19 -16h-98q-20 0 -17 20zM1245 1389l-168 -1041q-28 -174 -129.5 -271t-257.5 -97q-59 0 -123 22l-24 10q-18 6 -11 23l43 82q10 16 25 10l23 -8q37 -13 79 -13q93 0 156.5 62.5t83.5 177.5l170 1047q3 16 18 16h99q19 0 16 -20z" />
<glyph horiz-adv-x="1417" d="M1047 1792h122q12 0 15.5 -7t-4.5 -16l-176 -186q-7 -10 -23 -10h-86q-12 0 -15 6.5t3 15.5l141 187q10 10 23 10zM854 1432q236 0 366 -145.5t130 -403.5q0 -79 -11.5 -162.5t-38 -172.5t-65.5 -170t-97.5 -154.5t-130 -127t-168 -85t-206.5 -31.5q-238 0 -368 144.5 t-130 401.5q0 93 17 191t51 201.5t92.5 194.5t135 163t186 114t237.5 42zM848 1303q-90 0 -168 -27.5t-135 -74.5t-104 -110.5t-77.5 -134t-51 -147t-29.5 -147t-9 -136.5q0 -201 94 -310.5t271 -109.5q104 0 192.5 37t149.5 100t107 141t72.5 167t39 171t12.5 159 q0 204 -93 313t-271 109z" />
<glyph horiz-adv-x="514" d="M416 1462q38 0 60 -21.5t22 -58.5q0 -44 -25.5 -73t-71.5 -29q-38 0 -58.5 20.5t-20.5 57.5q0 49 25 76.5t69 27.5zM258 0h-96q-20 0 -17 20l136 840h-93q-20 0 -16 21l14 84q3 16 19 16h209q19 0 16 -20l-154 -945q-3 -16 -18 -16z" />
<glyph horiz-adv-x="1032" d="M584 1425l-150 -231q-9 -12 -22 -12h-74q-11 0 -14.5 6t2.5 16l120 232q6 12 21 12h104q11 0 15 -7t-2 -16zM1102 1425l-150 -231q-9 -12 -22 -12h-74q-11 0 -14.5 6t2.5 16l121 232q6 12 20 12h105q11 0 14.5 -7t-2.5 -16zM172 881l14 84q3 16 19 16h209q19 0 16 -20 l-154 -945q-3 -16 -18 -16h-96q-20 0 -17 20l136 840h-93q-20 0 -16 21zM723 981h209q19 0 16 -20l-129 -803l-45 -281q-16 -98 -61 -167.5t-133 -117.5l-72 -43q-15 -9 -25 7l-39 79q-10 17 7 27l67 41q104 60 125 184l16 113l31 193l2 10l107 657h-92q-9 0 -14 6t-3 15 l15 84q3 16 18 16z" />
<glyph horiz-adv-x="1101" d="M735 1448h107q12 0 15 -7t-3 -16l-143 -231q-9 -12 -23 -12h-76q-23 0 -14 22l117 230q6 14 20 14zM627 1001q181 0 281 -105t100 -290q0 -80 -17.5 -163t-58 -167t-100 -149t-151.5 -106t-204 -41q-182 0 -282.5 105t-100.5 292q0 66 13 135t38.5 140t69.5 133 t100.5 111t137 77t174.5 28zM623 879q-86 0 -155.5 -34t-113.5 -86.5t-73.5 -120.5t-41.5 -132t-12 -125q0 -133 66 -206t188 -73q85 0 154.5 34t113.5 86.5t74 120.5t42 132t12 125q0 132 -66.5 205.5t-187.5 73.5z" />
<glyph horiz-adv-x="688" d="M301 981l31 186q23 142 107 221.5t212 79.5q47 0 97 -18l18 -8q17 -6 10 -23l-41 -78q-9 -16 -24 -10l-9 4q-24 8 -57 8q-70 0 -120 -50.5t-62 -133.5l-29 -178h228q19 0 16 -20l-16 -84q-3 -17 -19 -17h-229l-138 -844q-3 -16 -18 -16h-96q-20 0 -17 20l136 840h-93 q-20 0 -16 21l14 84q3 16 19 16h96z" />
<glyph horiz-adv-x="1449" d="M1348 1395l8 -21q5 -13 -4 -26q-93 -102 -164 -201l-256 -342q-14 -20 -14 -28.5t14 -14.5l158 -66q129 -54 189 -126.5t60 -172.5q0 -192 -139.5 -304.5t-404.5 -112.5q-134 0 -287 49l-90 26q-16 5 -10 25l41 84q9 16 24 10l84 -27q139 -41 244 -41q189 0 295 73.5 t106 205.5q0 66 -46.5 115.5t-143.5 89.5l-246 100q-13 6 -16 19l-9 20q-3 17 4 27l293 391q67 83 99 113q26 26 -11 26h-462q-101 0 -173 -74t-92 -202l-161 -994q-3 -16 -19 -16h-100q-20 0 -17 20l162 998q29 185 138.5 288t273.5 103h649q17 0 23 -14z" />
<glyph horiz-adv-x="700" d="M434 981h228q19 0 16 -20l-14 -84q-3 -17 -19 -17h-231l-101 -622q-10 -66 11.5 -101t72.5 -35q17 0 58 9q18 6 24 -13l23 -73q3 -17 -10 -25q-52 -20 -109 -20q-116 0 -169.5 68.5t-33.5 191.5l101 620h-93q-20 0 -16 21l14 84q3 16 19 16h96l39 248q3 15 16 18l105 33 q9 3 14 -2.5t4 -15.5z" />
<glyph horiz-adv-x="700" d="M674 1448h78q18 0 18 -21l-10 -59q-14 -66 -66 -151l-12 -23q-9 -12 -23 -12h-55q-23 0 -14 22l14 33q30 67 41 133l10 62q3 16 19 16zM434 981h228q19 0 16 -20l-14 -84q-3 -17 -19 -17h-231l-101 -622q-10 -66 11.5 -101t72.5 -35q17 0 58 9q18 6 24 -13l23 -73 q3 -17 -10 -25q-52 -20 -109 -20q-116 0 -169.5 68.5t-33.5 191.5l101 620h-93q-20 0 -16 21l14 84q3 16 19 16h96l39 248q3 15 16 18l105 33q9 3 14 -2.5t4 -15.5z" />
<glyph horiz-adv-x="1044" d="M266 948l80 25q106 28 219 28q77 0 138 -17.5t99 -47.5t65.5 -69.5t37 -84t13.5 -90.5t-5 -90l-96 -586q-3 -16 -18 -16h-66q-19 0 -16 18l8 97q0 33 -33 1q-3 -2 -6 -5q-131 -131 -340 -131q-140 0 -215.5 66t-75.5 183q0 153 104 249t302 97h315l4 31q4 42 3.5 81 t-15.5 73.5t-40 60.5t-69 41t-102 15q-113 0 -192 -25l-80 -21q-18 -6 -21 15l-12 82q-3 17 14 20zM758 461h-307q-73 0 -127 -20t-82 -53t-41 -68.5t-13 -73.5q0 -67 44.5 -106.5t127.5 -39.5q160 0 264 89t130 249z" />
<glyph horiz-adv-x="1044" d="M772 1450h115q12 0 15 -7t-5 -16l-221 -233q-10 -10 -25 -10h-84q-11 0 -14 6.5t4 15.5l193 234q10 10 22 10zM266 948l80 25q106 28 219 28q77 0 138 -17.5t99 -47.5t65.5 -69.5t37 -84t13.5 -90.5t-5 -90l-96 -586q-3 -16 -18 -16h-66q-19 0 -16 18l8 97q0 33 -33 1 q-3 -2 -6 -5q-131 -131 -340 -131q-140 0 -215.5 66t-75.5 183q0 153 104 249t302 97h315l4 31q4 42 3.5 81t-15.5 73.5t-40 60.5t-69 41t-102 15q-113 0 -192 -25l-80 -21q-18 -6 -21 15l-12 82q-3 17 14 20zM758 461h-307q-73 0 -127 -20t-82 -53t-41 -68.5t-13 -73.5 q0 -67 44.5 -106.5t127.5 -39.5q160 0 264 89t130 249z" />
<glyph horiz-adv-x="1044" d="M516 1468q38 0 59 -20.5t21 -56.5q0 -44 -24.5 -72.5t-69.5 -28.5q-37 0 -57.5 20.5t-20.5 55.5q0 47 24.5 74.5t67.5 27.5zM827 1468q38 0 59 -20.5t21 -56.5q0 -44 -24.5 -72.5t-69.5 -28.5q-37 0 -57.5 20.5t-20.5 55.5q0 47 24.5 74.5t67.5 27.5zM266 948l80 25 q106 28 219 28q77 0 138 -17.5t99 -47.5t65.5 -69.5t37 -84t13.5 -90.5t-5 -90l-96 -586q-3 -16 -18 -16h-66q-19 0 -16 18l8 97q0 33 -33 1q-3 -2 -6 -5q-131 -131 -340 -131q-140 0 -215.5 66t-75.5 183q0 153 104 249t302 97h315l4 31q4 42 3.5 81t-15.5 73.5t-40 60.5 t-69 41t-102 15q-113 0 -192 -25l-80 -21q-18 -6 -21 15l-12 82q-3 17 14 20zM758 461h-307q-73 0 -127 -20t-82 -53t-41 -68.5t-13 -73.5q0 -67 44.5 -106.5t127.5 -39.5q160 0 264 89t130 249z" />
<glyph horiz-adv-x="688" d="M301 981l29 184q25 143 110.5 223t214.5 80q51 0 109 -22l31 -12q18 -9 8 -25l-43 -78q-10 -17 -25 -8l-20 8q-34 12 -66 12q-72 0 -122 -51t-64 -137l-29 -174h228q19 0 16 -20l-14 -84q-3 -17 -19 -17h-231l-181 -1102q-3 -16 -18 -16h-96q-20 0 -17 20l179 1098h-93 q-20 0 -16 21l14 84q3 16 19 16h96z" />
<glyph horiz-adv-x="1527" d="M1608 1446l30 -12q18 -9 9 -25l-43 -78q-10 -17 -25 -8l-20 8q-35 12 -66 12q-72 0 -122 -51t-64 -137l-29 -174h227q20 0 17 -20l-15 -84q-3 -17 -18 -17h-232l-137 -844q-3 -16 -18 -16h-96q-20 0 -17 20l135 840h-491q-90 0 -162 -32t-116.5 -81.5t-74.5 -115 t-41.5 -128t-11.5 -124.5q0 -132 68.5 -204.5t200.5 -72.5q70 0 184 31l63 17q21 7 21 -13l14 -86q3 -17 -14 -20l-70 -21q-102 -30 -202 -30q-194 0 -296 103.5t-102 289.5q0 82 16.5 162.5t57.5 162.5t102 143.5t158 100.5t217 39h500l29 184q25 143 110.5 223t214.5 80 q51 0 109 -22z" />
<glyph horiz-adv-x="1540" d="M1257 860l-100 -622q-10 -66 11.5 -101t72.5 -35q17 0 57 9q19 6 25 -13l23 -73q3 -16 -11 -25q-52 -20 -108 -20q-116 0 -169.5 68.5t-33.5 191.5l100 620h-489q-90 0 -162.5 -32t-117.5 -81.5t-75 -115t-41.5 -128t-11.5 -124.5q0 -132 69 -204.5t202 -72.5 q68 0 182 29l63 16q18 6 21 -14l10 -82q3 -17 -14 -20l-64 -19q-121 -32 -202 -32q-195 0 -297.5 103.5t-102.5 289.5q0 82 16.5 162.5t57.5 162.5t102 143.5t158.5 100.5t218.5 39h498l39 248q3 15 16 18l105 33q9 3 14 -2.5t4 -15.5l-45 -281h227q20 0 17 -20l-15 -84 q-3 -17 -18 -17h-232z" />
<glyph horiz-adv-x="1540" d="M1593 1448h78q19 0 19 -21l-11 -59q-15 -68 -65 -151l-12 -23q-9 -12 -23 -12h-55q-24 0 -15 22l15 33q30 67 41 133l10 62q3 16 18 16zM1257 860l-100 -622q-10 -66 11.5 -101t72.5 -35q17 0 57 9q19 6 25 -13l23 -73q3 -16 -11 -25q-52 -20 -108 -20 q-116 0 -169.5 68.5t-33.5 191.5l100 620h-489q-90 0 -162.5 -32t-117.5 -81.5t-75 -115t-41.5 -128t-11.5 -124.5q0 -132 69 -204.5t202 -72.5q68 0 182 29l63 16q18 6 21 -14l10 -82q3 -17 -14 -20l-64 -19q-121 -32 -202 -32q-195 0 -297.5 103.5t-102.5 289.5 q0 82 16.5 162.5t57.5 162.5t102 143.5t158.5 100.5t218.5 39h498l39 248q3 15 16 18l105 33q9 3 14 -2.5t4 -15.5l-45 -281h227q20 0 17 -20l-15 -84q-3 -17 -18 -17h-232z" />
<glyph horiz-adv-x="1527" d="M1608 1446l30 -12q18 -9 9 -25l-43 -78q-10 -17 -25 -8l-20 8q-35 12 -66 12q-72 0 -122 -51t-64 -137l-29 -174h227q20 0 17 -20l-15 -84q-3 -17 -18 -17h-232l-137 -844q-3 -16 -18 -16h-96q-20 0 -17 20l135 840h-491q-90 0 -162 -32t-116.5 -81.5t-74.5 -115 t-41.5 -128t-11.5 -124.5q0 -132 68.5 -204.5t200.5 -72.5q70 0 184 31l63 17q21 7 21 -13l14 -86q3 -17 -14 -20l-70 -21q-102 -30 -202 -30q-194 0 -296 103.5t-102 289.5q0 82 16.5 162.5t57.5 162.5t102 143.5t158 100.5t217 39h500l29 184q25 143 110.5 223t214.5 80 q51 0 109 -22zM680 1182h-90q-14 0 -23 12l-145 231q-6 9 -2.5 16t14.5 7h80q13 0 23 -10l114 -152l166 154q11 8 23 8h75q12 0 15.5 -7t-4.5 -16l-221 -233q-10 -10 -25 -10z" />
<glyph horiz-adv-x="1540" d="M680 1182h-90q-14 0 -23 12l-145 231q-6 9 -2.5 16t14.5 7h80q13 0 23 -10l114 -152l166 154q11 8 23 8h75q12 0 15.5 -7t-4.5 -16l-221 -233q-10 -10 -25 -10zM1593 1448h78q19 0 19 -21l-11 -59q-15 -68 -65 -151l-12 -23q-9 -12 -23 -12h-55q-24 0 -15 22l15 33 q30 67 41 133l10 62q3 16 18 16zM1278 981h227q20 0 17 -20l-15 -84q-3 -17 -18 -17h-232l-100 -622q-10 -66 11.5 -101t72.5 -35q17 0 57 9q19 6 25 -13l23 -73q3 -16 -11 -25q-52 -20 -108 -20q-116 0 -169.5 68.5t-33.5 191.5l100 620h-489q-90 0 -162.5 -32 t-117.5 -81.5t-75 -115t-41.5 -128t-11.5 -124.5q0 -132 69 -204.5t202 -72.5q68 0 182 29l63 16q18 6 21 -14l10 -82q3 -17 -14 -20l-64 -19q-121 -32 -202 -32q-195 0 -297.5 103.5t-102.5 289.5q0 82 16.5 162.5t57.5 162.5t102 143.5t158.5 100.5t218.5 39h498l39 248 q3 15 16 18l105 33q9 3 14 -2.5t4 -15.5z" />
<glyph horiz-adv-x="1763" d="M1640 981h103q12 0 15 -7t-3 -16l-829 -1378q-9 -12 -23 -12h-102q-12 0 -16 6.5t1 15.5l193 320q46 80 53 164t-18 176l-152 512q-27 98 -112 98h-336l-138 -844q-3 -16 -18 -16h-96q-20 0 -17 20l136 840h-93q-20 0 -16 21l14 84q3 16 19 16h96l29 184 q25 143 110.5 223t214.5 80q51 0 109 -22l31 -12q18 -9 8 -25l-43 -78q-10 -17 -25 -8l-20 8q-34 12 -66 12q-72 0 -122 -51t-64 -137l-29 -174h336q176 0 213 -154l125 -438q30 -124 33 -186q0 -15 11.5 -15t18.5 15q44 97 117 225l330 541q9 12 22 12z" />
<glyph horiz-adv-x="1763" d="M1755 958l-829 -1378q-9 -12 -23 -12h-102q-12 0 -16 6.5t1 15.5l193 320q46 80 53 164t-18 176l-152 512q-27 98 -112 98h-336l-138 -844q-3 -16 -18 -16h-96q-20 0 -17 20l136 840h-93q-20 0 -16 21l14 84q3 16 19 16h96l29 184q25 143 110.5 223t214.5 80 q51 0 109 -22l31 -12q18 -9 8 -25l-43 -78q-10 -17 -25 -8l-20 8q-34 12 -66 12q-72 0 -122 -51t-64 -137l-29 -174h336q176 0 213 -154l125 -438q30 -124 33 -186q0 -15 11.5 -15t18.5 15q44 97 117 225l330 541q9 12 22 12h103q12 0 15 -7t-3 -16zM1466 1448h115 q12 0 15 -7t-5 -16l-221 -233q-10 -10 -24 -10h-84q-11 0 -14.5 6.5t3.5 15.5l193 234q10 10 22 10z" />
<glyph horiz-adv-x="1865" d="M1389 1001q181 0 280.5 -104.5t99.5 -290.5q0 -80 -17 -163t-58 -167t-100 -149t-151 -106t-204 -41q-131 0 -221.5 56t-130.5 161q-146 -217 -410 -217q-182 0 -282.5 105t-100.5 292q0 66 13 135t38.5 140t69.5 133t100.5 111t137 77t174.5 28q131 0 220.5 -55.5 t129.5 -159.5q147 215 412 215zM481 102q83 0 150.5 31t112.5 84.5t73 114t43 129.5q2 12 6 37t6 37q5 57 5 65q0 132 -66.5 205.5t-187.5 73.5q-86 0 -155.5 -34t-113.5 -86.5t-73.5 -120.5t-41.5 -132t-12 -125q0 -133 66 -206t188 -73zM1243 102q85 0 154.5 34t113 86.5 t73.5 120.5t42 132t12 125q0 132 -66.5 205.5t-187.5 73.5q-86 0 -155.5 -34t-113 -86.5t-73 -120.5t-41.5 -132t-12 -125q0 -133 66 -206t188 -73z" />
<glyph horiz-adv-x="1417" d="M1135 860l-101 -622q-10 -66 11.5 -101t72.5 -35q18 0 58 9q18 6 24 -13l23 -73q3 -16 -11 -25q-52 -20 -108 -20q-116 0 -169.5 68.5t-33.5 191.5l100 620h-286q-176 0 -290.5 -129.5t-158.5 -392.5l-51 -322q-3 -16 -18 -16h-97q-19 0 -16 20l154 945q3 16 18 16h68 q21 0 18 -20l-20 -160q0 -12 9 -14t17 10q72 96 167 140t222 44h285l39 248q3 15 16 18l105 33q9 3 14.5 -2.5t3.5 -15.5l-45 -281h227q20 0 17 -20l-15 -84q-3 -17 -18 -17h-231z" />
<glyph horiz-adv-x="1417" d="M1393 1448h77q19 0 19 -21l-10 -59q-14 -66 -66 -151l-12 -23q-9 -12 -23 -12h-55q-23 0 -14 22l14 33q30 67 41 133l10 62q3 16 19 16zM1135 860l-101 -622q-10 -66 11.5 -101t72.5 -35q18 0 58 9q18 6 24 -13l23 -73q3 -16 -11 -25q-52 -20 -108 -20 q-116 0 -169.5 68.5t-33.5 191.5l100 620h-286q-176 0 -290.5 -129.5t-158.5 -392.5l-51 -322q-3 -16 -18 -16h-97q-19 0 -16 20l154 945q3 16 18 16h68q21 0 18 -20l-20 -160q0 -12 9 -14t17 10q72 96 167 140t222 44h285l39 248q3 15 16 18l105 33q9 3 14.5 -2.5 t3.5 -15.5l-45 -281h227q20 0 17 -20l-15 -84q-3 -17 -18 -17h-231z" />
<glyph horiz-adv-x="1417" d="M559 1182h-90q-14 0 -23 12l-145 231q-6 9 -2.5 16t14.5 7h80q13 0 23 -10l114 -152l166 154q11 8 23 8h76q12 0 15 -7t-5 -16l-221 -233q-10 -10 -25 -10zM1135 860l-101 -622q-10 -66 11.5 -101t72.5 -35q18 0 58 9q18 6 24 -13l23 -73q3 -16 -11 -25q-52 -20 -108 -20 q-116 0 -169.5 68.5t-33.5 191.5l100 620h-286q-176 0 -290.5 -129.5t-158.5 -392.5l-51 -322q-3 -16 -18 -16h-97q-19 0 -16 20l154 945q3 16 18 16h68q21 0 18 -20l-20 -160q0 -12 9 -14t17 10q72 96 167 140t222 44h285l39 248q3 15 16 18l105 33q9 3 14.5 -2.5 t3.5 -15.5l-45 -281h227q20 0 17 -20l-15 -84q-3 -17 -18 -17h-231z" />
<glyph horiz-adv-x="1640" d="M1714 1446l31 -12q18 -9 8 -25l-43 -78q-10 -16 -24 -8l-21 8q-35 12 -66 12q-72 0 -122 -51t-64 -137l-29 -174h228q19 0 16 -20l-14 -84q-3 -17 -19 -17h-231l-137 -844q-3 -16 -19 -16h-96q-19 0 -16 20l135 840h-711q-107 0 -169 -43.5t-62 -118.5q0 -39 26.5 -64 t87.5 -42l232 -68q192 -57 192 -217q0 -66 -24.5 -123t-73.5 -103.5t-132 -73.5t-191 -27q-158 0 -302 51l-51 16q-16 5 -10 25l41 80q9 15 25 8l49 -17q112 -39 266 -39q139 0 204.5 57t65.5 136q0 43 -26 70.5t-86 46.5l-236 67q-190 55 -190 203q0 55 20.5 105.5t63 94.5 t118.5 70.5t177 26.5h716l29 184q25 143 111 223t215 80q50 0 108 -22z" />
<glyph horiz-adv-x="1646" d="M1622 1448h78q18 0 18 -21l-10 -59q-14 -66 -66 -151l-12 -23q-9 -12 -22 -12h-56q-23 0 -14 22l14 33q30 67 41 133l11 62q3 16 18 16zM1364 860l-100 -622q-10 -66 11.5 -101t72.5 -35q16 0 57 9q19 6 25 -13l22 -73q3 -17 -10 -25q-52 -20 -109 -20 q-116 0 -169.5 68.5t-33.5 191.5l101 620h-711q-107 0 -169 -43.5t-62 -118.5q0 -39 26.5 -64t87.5 -42l232 -68q192 -57 192 -217q0 -66 -24.5 -123t-73.5 -103.5t-132 -73.5t-191 -27q-158 0 -302 51l-51 16q-16 5 -10 25l41 80q9 15 25 8l49 -17q112 -39 266 -39 q139 0 204.5 57t65.5 136q0 43 -26 70.5t-86 46.5l-236 67q-190 55 -190 203q0 55 20.5 105.5t63 94.5t118.5 70.5t177 26.5h716l39 248q3 15 17 18l104 33q9 3 14.5 -2.5t4.5 -15.5l-46 -281h228q19 0 16 -20l-14 -84q-3 -17 -19 -17h-231z" />
<glyph horiz-adv-x="1646" d="M637 1182h-90q-14 0 -23 12l-145 231q-6 9 -2.5 16t14.5 7h80q13 0 23 -10l114 -152l166 154q11 8 23 8h75q12 0 15.5 -7t-4.5 -16l-221 -233q-10 -10 -25 -10zM1364 860l-100 -622q-10 -66 11.5 -101t72.5 -35q16 0 57 9q19 6 25 -13l22 -73q3 -17 -10 -25 q-52 -20 -109 -20q-116 0 -169.5 68.5t-33.5 191.5l101 620h-711q-107 0 -169 -43.5t-62 -118.5q0 -39 26.5 -64t87.5 -42l232 -68q192 -57 192 -217q0 -66 -24.5 -123t-73.5 -103.5t-132 -73.5t-191 -27q-158 0 -302 51l-51 16q-16 5 -10 25l41 80q9 15 25 8l49 -17 q112 -39 266 -39q139 0 204.5 57t65.5 136q0 43 -26 70.5t-86 46.5l-236 67q-190 55 -190 203q0 55 20.5 105.5t63 94.5t118.5 70.5t177 26.5h716l39 248q3 15 17 18l104 33q9 3 14.5 -2.5t4.5 -15.5l-46 -281h228q19 0 16 -20l-14 -84q-3 -17 -19 -17h-231z" />
<glyph horiz-adv-x="1646" d="M524 1194l-145 231q-6 9 -2.5 16t14.5 7h80q13 0 23 -10l114 -152l166 154q11 8 23 8h75q12 0 15.5 -7t-4.5 -16l-221 -233q-10 -10 -25 -10h-90q-14 0 -23 12zM1622 1448h78q18 0 18 -21l-10 -59q-14 -66 -66 -151l-12 -23q-9 -12 -22 -12h-56q-23 0 -14 22l14 33 q30 67 41 133l11 62q3 16 18 16zM1364 860l-100 -622q-10 -66 11.5 -101t72.5 -35q16 0 57 9q19 6 25 -13l22 -73q3 -17 -10 -25q-52 -20 -109 -20q-116 0 -169.5 68.5t-33.5 191.5l101 620h-711q-107 0 -169 -43.5t-62 -118.5q0 -39 26.5 -64t87.5 -42l232 -68 q192 -57 192 -217q0 -66 -24.5 -123t-73.5 -103.5t-132 -73.5t-191 -27q-158 0 -302 51l-51 16q-16 5 -10 25l41 80q9 15 25 8l49 -17q112 -39 266 -39q139 0 204.5 57t65.5 136q0 43 -26 70.5t-86 46.5l-236 67q-190 55 -190 203q0 55 20.5 105.5t63 94.5t118.5 70.5 t177 26.5h716l39 248q3 15 17 18l104 33q9 3 14.5 -2.5t4.5 -15.5l-46 -281h228q19 0 16 -20l-14 -84q-3 -17 -19 -17h-231z" />
<glyph horiz-adv-x="1773" d="M1651 983h102q12 0 15 -6.5t-3 -15.5l-829 -1381q-9 -12 -23 -12h-102q-12 0 -15.5 6.5t1.5 15.5l192 320q46 80 53 165t-18 177l-152 512q-27 99 -112 96h-98h-248l-101 -622q-10 -66 11.5 -101t72.5 -35q17 0 58 9q18 6 24 -13l23 -73q3 -17 -10 -25q-52 -20 -109 -20 q-116 0 -169.5 68.5t-33.5 191.5l101 620h-93q-20 0 -16 21l14 84q3 16 19 16h96l39 248q3 15 16 18l105 33q9 3 14 -2.5t4 -15.5l-45 -281h201v2h145q176 0 213 -154l125 -438q30 -124 33 -186q0 -15 11.5 -15t19.5 15q48 106 116 225l330 541q9 12 23 12z" />
<glyph horiz-adv-x="1773" d="M1477 1448h114q12 0 15.5 -7t-4.5 -16l-222 -233q-10 -10 -24 -10h-84q-11 0 -14 6.5t4 15.5l192 234q10 10 23 10zM1765 961l-829 -1381q-9 -12 -23 -12h-102q-12 0 -15.5 6.5t1.5 15.5l192 320q46 80 53 165t-18 177l-152 512q-27 99 -112 96h-346l-101 -622 q-10 -66 11.5 -101t72.5 -35q17 0 58 9q18 6 24 -13l23 -73q3 -17 -10 -25q-52 -20 -109 -20q-116 0 -169.5 68.5t-33.5 191.5l101 620h-93q-20 0 -16 21l14 84q3 16 19 16h96l39 248q3 15 16 18l105 33q9 3 14 -2.5t4 -15.5l-45 -281h201v2h145q176 0 213 -154l125 -438 q30 -124 33 -186q0 -15 11.5 -15t19.5 15q48 106 116 225l330 541q9 12 23 12h102q12 0 15 -6.5t-3 -15.5z" />
<glyph horiz-adv-x="1228" d="M854 219h-557l-129 -207q-9 -12 -23 -12h-106q-12 0 -15 7t3 16l407 655q127 206 197 369q6 14 20 14h109q17 0 20 -17q19 -175 74 -366l195 -658q3 -9 -1.5 -14.5t-15.5 -5.5h-94q-17 0 -20 14zM817 340l-76 250q-44 166 -47 258q-2 9 -7.5 12t-12 0t-10.5 -12 q-45 -104 -136 -258l-155 -250h444z" />
<glyph horiz-adv-x="1228" d="M885 1528h114q12 0 15.5 -7t-4.5 -16l-222 -233q-10 -10 -24 -10h-84q-11 0 -14 6.5t4 15.5l192 234q10 10 23 10zM297 219l-129 -207q-9 -12 -23 -12h-106q-12 0 -15 7t3 16l407 655q127 206 197 369q6 14 20 14h109q17 0 20 -17q19 -175 74 -366l195 -658 q3 -9 -1.5 -14.5t-15.5 -5.5h-94q-17 0 -20 14l-64 205h-557zM817 340l-76 250q-44 166 -47 258q-2 9 -7.5 12t-12 0t-10.5 -12q-45 -104 -136 -258l-155 -250h444z" />
<glyph horiz-adv-x="1228" d="M629 1546q38 0 59 -21t21 -57q0 -43 -25 -71.5t-70 -28.5q-36 0 -56.5 20t-20.5 56q0 47 24.5 74.5t67.5 27.5zM940 1546q38 0 59 -21t21 -57q0 -44 -24.5 -72t-69.5 -28q-37 0 -57.5 20.5t-20.5 55.5q0 47 24.5 74.5t67.5 27.5zM297 219l-129 -207q-9 -12 -23 -12h-106 q-12 0 -15 7t3 16l407 655q127 206 197 369q6 14 20 14h109q17 0 20 -17q19 -175 74 -366l195 -658q3 -9 -1.5 -14.5t-15.5 -5.5h-94q-17 0 -20 14l-64 205h-557zM817 340l-76 250q-44 166 -47 258q-2 9 -7.5 12t-12 0t-10.5 -12q-45 -104 -136 -258l-155 -250h444z" />
<glyph horiz-adv-x="1134" d="M268 1061h467q146 0 226.5 -61t80.5 -171q0 -97 -53.5 -168.5t-146.5 -107.5q-41 -15 -8 -25q74 -21 119.5 -76.5t45.5 -136.5q0 -58 -23.5 -111.5t-71 -100.5t-131.5 -75t-193 -28h-480q-19 0 -16 20l166 1024q3 17 18 17zM365 940l-56 -342h273q90 0 156.5 18t102 49.5 t52 67t16.5 76.5q0 131 -192 131h-352zM291 475l-58 -354h365q73 0 128 18.5t84.5 48.5t43.5 63t14 68q0 76 -74.5 116t-218.5 40h-284z" />
<glyph horiz-adv-x="1048" d="M852 35l-66 -17q-152 -38 -237 -38q-218 0 -333.5 113.5t-115.5 314.5q0 73 13 147t41 151t76.5 143.5t114 119t161 82.5t209.5 30q109 0 215 -34l69 -21q20 -7 11 -25l-41 -79q-9 -14 -25 -11l-57 19q-103 28 -174 28q-109 0 -195.5 -36.5t-138.5 -93t-86 -131.5 t-47 -144.5t-13 -138.5q0 -150 81 -231t239 -81q86 0 211 33l74 19q17 6 20 -15l8 -84q3 -17 -14 -20z" />
<glyph horiz-adv-x="1048" d="M756 1262h-90q-14 0 -23 12l-145 231q-6 9 -2.5 16t14.5 7h80q12 0 22 -10l115 -152l166 154q11 8 22 8h76q12 0 15 -7t-5 -16l-221 -233q-10 -10 -24 -10zM852 35l-66 -17q-152 -38 -237 -38q-218 0 -333.5 113.5t-115.5 314.5q0 73 13 147t41 151t76.5 143.5t114 119 t161 82.5t209.5 30q109 0 215 -34l69 -21q20 -7 11 -25l-41 -79q-9 -14 -25 -11l-57 19q-103 28 -174 28q-109 0 -195.5 -36.5t-138.5 -93t-86 -131.5t-47 -144.5t-13 -138.5q0 -150 81 -231t239 -81q86 0 211 33l74 19q17 6 20 -15l8 -84q3 -17 -14 -20z" />
<glyph horiz-adv-x="1175" d="M268 1061h387q204 0 318 -111.5t114 -306.5q0 -82 -18.5 -167t-64 -171.5t-112 -153.5t-171 -109t-232.5 -42h-389q-19 0 -16 20l166 1024q3 17 18 17zM365 940l-132 -819h269q96 0 175.5 34.5t129.5 88.5t84 123.5t48.5 136.5t14.5 131q0 146 -80.5 225.5t-232.5 79.5 h-276z" />
<glyph horiz-adv-x="1175" d="M725 1262h-90q-14 0 -23 12l-145 231q-6 9 -2.5 16t14.5 7h80q13 0 23 -10l114 -152l166 154q11 8 23 8h76q12 0 15 -7t-5 -16l-221 -233q-10 -10 -25 -10zM268 1061h387q204 0 318 -111.5t114 -306.5q0 -82 -18.5 -167t-64 -171.5t-112 -153.5t-171 -109t-232.5 -42 h-389q-19 0 -16 20l166 1024q3 17 18 17zM233 121h269q96 0 175.5 34.5t129.5 88.5t84 123.5t48.5 136.5t14.5 131q0 146 -80.5 225.5t-232.5 79.5h-276z" />
<glyph horiz-adv-x="1069" d="M311 598h531q19 0 16 -20l-14 -84q-3 -17 -19 -17h-534l-58 -356h658q19 0 16 -21l-14 -84q-3 -16 -19 -16h-774q-19 0 -16 20l166 1024q3 17 18 17h770q11 0 15 -6.5t0 -16.5l-39 -84q-6 -14 -21 -14h-628z" />
<glyph horiz-adv-x="1069" d="M831 1528h115q12 0 15 -7t-5 -16l-221 -233q-10 -10 -24 -10h-84q-11 0 -14.5 6.5t3.5 15.5l193 234q10 10 22 10zM311 598h531q19 0 16 -20l-14 -84q-3 -17 -19 -17h-534l-58 -356h658q19 0 16 -21l-14 -84q-3 -16 -19 -16h-774q-19 0 -16 20l166 1024q3 17 18 17h770 q11 0 15 -6.5t0 -16.5l-39 -84q-6 -14 -21 -14h-628z" />
<glyph horiz-adv-x="1069" d="M735 1262h-90q-13 0 -22 12l-146 231q-6 9 -2.5 16t14.5 7h80q13 0 23 -10l115 -152l165 154q11 8 23 8h76q12 0 15 -7t-5 -16l-221 -233q-10 -10 -25 -10zM365 940l-54 -342h531q19 0 16 -20l-14 -84q-3 -17 -19 -17h-534l-58 -356h658q19 0 16 -21l-14 -84 q-3 -16 -19 -16h-774q-19 0 -16 20l166 1024q3 17 18 17h770q11 0 15 -6.5t0 -16.5l-39 -84q-6 -14 -21 -14h-628z" />
<glyph horiz-adv-x="1042" d="M305 565h539q19 0 16 -20l-16 -86q-3 -17 -19 -17h-540l-70 -426q-3 -16 -18 -16h-97q-19 0 -16 20l166 1024q3 17 18 17h760q11 0 14.5 -6.5t-0.5 -16.5l-38 -84q-6 -14 -21 -14h-618z" />
<glyph horiz-adv-x="1122" d="M633 446l39 84q6 15 20 15h291q19 0 16 -21l-75 -456q-3 -16 -17 -19l-39 -12l-84 -23q-118 -34 -252 -34q-203 0 -317.5 115t-114.5 315q0 87 19 175.5t64.5 179t111.5 159.5t169 113t228 44q136 0 236 -32l67 -21q20 -7 11 -24l-41 -78q-9 -14 -25 -11l-55 17 q-82 26 -197 26q-98 0 -178 -37t-130.5 -94.5t-84.5 -131.5t-48 -143.5t-14 -135.5q0 -151 79 -232.5t225 -81.5q136 0 229 29l47 12l47 281h-213q-23 0 -14 22z" />
<glyph horiz-adv-x="1210" d="M1139 1040l-166 -1024q-3 -16 -19 -16h-96q-19 0 -16 20l73 457h-624l-76 -461q-3 -16 -18 -16h-97q-19 0 -16 20l166 1024q3 17 18 17h97q19 0 16 -21l-70 -442h625l72 446q3 17 18 17h96q20 0 17 -21z" />
<glyph horiz-adv-x="452" d="M555 1505l-149 -231q-9 -12 -23 -12h-74q-11 0 -14.5 6t2.5 16l121 232q6 12 20 12h105q11 0 14.5 -7t-2.5 -16zM381 1040l-166 -1024q-3 -16 -18 -16h-97q-19 0 -16 20l166 1024q3 17 18 17h97q19 0 16 -21z" />
<glyph horiz-adv-x="778" d="M727 1040l-117 -727q-26 -159 -126.5 -246t-256.5 -87q-85 0 -159 24l-52 16q-18 6 -8 25l41 82q10 14 25 8l43 -14q52 -17 114 -17q98 0 163.5 58t82.5 160l117 722q3 17 18 17h99q19 0 16 -21z" />
<glyph horiz-adv-x="1126" d="M309 598h49q46 0 92 17.5t95 54.5t79 64t81 77l239 240q10 10 25 10h116q13 0 16.5 -7t-5.5 -16l-277 -282q-177 -173 -272 -205q-12 -4 -12.5 -10t8.5 -9q61 -23 113 -75t108 -135l186 -299q6 -9 2.5 -16t-14.5 -7h-109q-13 0 -22 12l-164 256q-31 47 -56.5 78t-62 64 t-82.5 49t-100 16h-51l-76 -459q-3 -16 -18 -16h-97q-19 0 -16 20l166 1024q3 17 18 17h97q19 0 16 -21z" />
<glyph horiz-adv-x="972" d="M233 121h578q19 0 16 -21l-14 -84q-3 -16 -18 -16h-695q-19 0 -16 20l166 1027q3 16 18 16h97q19 0 16 -21z" />
<glyph horiz-adv-x="1392" d="M1323 1040l-168 -1024q-3 -16 -18 -16h-97q-19 0 -16 20l94 594q20 133 51 246q4 15 -4 17.5t-16 -11.5q-42 -78 -72 -121l-297 -434q-46 -73 -78 -139q-6 -14 -20 -14h-76q-15 0 -18 16q-14 73 -37 137l-154 432q-32 110 -35 123q-5 15 -13.5 12t-10.5 -18 q-2 -86 -27 -246l-96 -598q-3 -16 -18 -16h-97q-19 0 -16 20l166 1024q3 17 18 17h148q17 0 20 -17q15 -72 31 -122l160 -449q13 -44 28 -127q2 -9 6 -12t8.5 0t8.5 12q29 59 72 125l305 451q48 74 71 125q6 14 21 14h160q19 0 16 -21z" />
<glyph horiz-adv-x="1230" d="M1161 1040l-168 -1024q-3 -16 -18 -16h-113q-16 0 -22 14q-23 66 -74 152l-363 602q-26 51 -43 96q-1 7 -7.5 8t-10.5 -4q-2 -3 -2 -20q-4 -101 -18 -170l-107 -662q-3 -16 -18 -16h-97q-19 0 -16 20l168 1024q3 17 18 17h113q17 0 23 -14q29 -86 69 -152l361 -596 q34 -62 47 -100q5 -11 13.5 -9.5t8.5 13.5q0 53 19 182l106 659q3 17 19 17h96q19 0 16 -21z" />
<glyph horiz-adv-x="1230" d="M784 1262h-90q-13 0 -22 12l-146 231q-6 9 -2 16t15 7h79q13 0 23 -10l115 -152l166 154q11 8 22 8h76q12 0 15 -7t-5 -16l-221 -233q-10 -10 -25 -10zM1049 1061h96q19 0 16 -21l-168 -1024q-3 -16 -18 -16h-113q-16 0 -22 14q-23 66 -74 152l-363 602q-26 51 -43 96 q-1 7 -7.5 8t-10.5 -4q-2 -3 -2 -20q-4 -101 -18 -170l-107 -662q-3 -16 -18 -16h-97q-19 0 -16 20l168 1024q3 17 18 17h113q17 0 23 -14q29 -86 69 -152l361 -596q34 -62 47 -100q5 -11 13.5 -9.5t8.5 13.5q0 53 19 182l106 659q3 17 19 17z" />
<glyph horiz-adv-x="1189" d="M682 1081q200 0 311 -114t111 -316q0 -69 -14 -141.5t-41.5 -149.5t-75.5 -144t-110 -120.5t-150.5 -84.5t-192.5 -31q-199 0 -310.5 115t-111.5 315q0 86 19 175t64.5 179t110.5 160t166.5 113.5t223.5 43.5zM678 958q-96 0 -174.5 -36.5t-128 -94t-83 -131 t-47.5 -143.5t-14 -137q0 -149 77 -230.5t218 -81.5q96 0 174 36.5t127.5 93.5t83 131t47 144.5t13.5 137.5q0 148 -76 229.5t-217 81.5z" />
<glyph horiz-adv-x="1189" d="M862 1528h115q12 0 15 -7t-5 -16l-221 -233q-10 -10 -25 -10h-84q-11 0 -14 6.5t4 15.5l193 234q10 10 22 10zM682 1081q200 0 311 -114t111 -316q0 -69 -14 -141.5t-41.5 -149.5t-75.5 -144t-110 -120.5t-150.5 -84.5t-192.5 -31q-199 0 -310.5 115t-111.5 315 q0 86 19 175t64.5 179t110.5 160t166.5 113.5t223.5 43.5zM678 958q-96 0 -174.5 -36.5t-128 -94t-83 -131t-47.5 -143.5t-14 -137q0 -149 77 -230.5t218 -81.5q96 0 174 36.5t127.5 93.5t83 131t47 144.5t13.5 137.5q0 148 -76 229.5t-217 81.5z" />
<glyph horiz-adv-x="1189" d="M606 1546q38 0 59 -21t21 -57q0 -44 -24.5 -72t-69.5 -28q-37 0 -57.5 20.5t-20.5 55.5q0 47 24.5 74.5t67.5 27.5zM918 1546q38 0 58.5 -21t20.5 -57q0 -44 -24.5 -72t-69.5 -28q-37 0 -57.5 20.5t-20.5 55.5q0 47 25 74.5t68 27.5zM682 1081q200 0 311 -114t111 -316 q0 -69 -14 -141.5t-41.5 -149.5t-75.5 -144t-110 -120.5t-150.5 -84.5t-192.5 -31q-199 0 -310.5 115t-111.5 315q0 86 19 175t64.5 179t110.5 160t166.5 113.5t223.5 43.5zM678 958q-96 0 -174.5 -36.5t-128 -94t-83 -131t-47.5 -143.5t-14 -137q0 -149 77 -230.5 t218 -81.5q96 0 174 36.5t127.5 93.5t83 131t47 144.5t13.5 137.5q0 148 -76 229.5t-217 81.5z" />
<glyph horiz-adv-x="1083" d="M268 1061h420q184 0 276 -84.5t72 -233.5q-19 -165 -164.5 -262.5t-400.5 -97.5h-197l-59 -367q-3 -16 -18 -16h-97q-19 0 -16 20l166 1024q3 17 18 17zM365 940l-70 -436h188q180 0 293.5 62.5t128.5 172.5q14 95 -46 148t-183 53h-311z" />
<glyph horiz-adv-x="1191" d="M913 -260l-55 84q-57 78 -139.5 117t-204.5 39q-196 1 -306 115.5t-110 314.5q0 86 19 175t64.5 179t110.5 160t166.5 113.5t223.5 43.5q201 0 312.5 -114.5t111.5 -315.5q0 -81 -20 -167t-58 -166.5t-101 -148t-141 -103.5q-38 -15 -8 -25q115 -26 191 -141l59 -86 q10 -17 -6 -27l-82 -53q-17 -10 -27 6zM678 958q-95 0 -173.5 -36.5t-128 -94t-83.5 -131t-48 -144t-14 -136.5q0 -150 77.5 -232t217.5 -82q81 0 149.5 25.5t116 69t83.5 98.5t57 117.5t31 121t10 113.5q0 149 -76.5 230t-218.5 81z" />
<glyph horiz-adv-x="1159" d="M268 1061h445q161 0 248.5 -67t87.5 -189q0 -123 -69 -208t-206 -124q-38 -11 -16 -24q97 -49 137 -177l82 -252q7 -20 -16 -20h-99q-17 0 -20 14l-70 217q-66 195 -297 195h-194l-66 -410q-3 -16 -18 -16h-97q-19 0 -16 20l166 1024q3 17 18 17zM365 940l-62 -393h242 q177 0 275 62.5t98 176.5q0 72 -56.5 113t-156.5 41h-340z" />
<glyph horiz-adv-x="1159" d="M721 1262h-90q-14 0 -23 12l-145 231q-6 9 -2.5 16t14.5 7h80q13 0 23 -10l114 -152l166 154q11 8 23 8h75q12 0 15.5 -7t-4.5 -16l-222 -233q-10 -10 -24 -10zM268 1061h445q161 0 248.5 -67t87.5 -189q0 -123 -69 -208t-206 -124q-38 -11 -16 -24q97 -49 137 -177 l82 -252q7 -20 -16 -20h-99q-17 0 -20 14l-70 217q-66 195 -297 195h-194l-66 -410q-3 -16 -18 -16h-97q-19 0 -16 20l166 1024q3 17 18 17zM303 547h242q177 0 275 62.5t98 176.5q0 72 -56.5 113t-156.5 41h-340z" />
<glyph horiz-adv-x="1056" d="M653 449l-264 73q-109 29 -161 84.5t-52 143.5q0 151 112.5 241t323.5 90q163 0 269 -34l88 -27q17 -5 10 -25l-39 -82q-8 -13 -25 -10l-81 25q-102 30 -222 30q-142 0 -222.5 -51t-80.5 -141q0 -95 131 -131l262 -72q113 -31 166.5 -87t53.5 -146q0 -158 -120 -254 t-343 -96q-206 0 -344 53l-62 22q-18 6 -8 25l43 80q9 15 25 8l51 -18q128 -46 301 -46q154 0 238.5 56t84.5 157q0 96 -135 132z" />
<glyph horiz-adv-x="1056" d="M692 1262h-90q-13 0 -22 12l-146 231q-6 9 -2.5 16t14.5 7h80q13 0 23 -10l115 -152l165 154q11 8 23 8h76q12 0 15 -7t-5 -16l-221 -233q-10 -10 -25 -10zM915 903l-81 25q-102 30 -222 30q-142 0 -222.5 -51t-80.5 -141q0 -95 131 -131l262 -72q113 -31 166.5 -87 t53.5 -146q0 -158 -120 -254t-343 -96q-206 0 -344 53l-62 22q-18 6 -8 25l43 80q9 15 25 8l51 -18q128 -46 301 -46q154 0 238.5 56t84.5 157q0 96 -135 132l-264 73q-109 29 -161 84.5t-52 143.5q0 151 112.5 241t323.5 90q163 0 269 -34l88 -27q17 -5 10 -25l-39 -82 q-8 -13 -25 -10z" />
<glyph horiz-adv-x="2093" d="M653 449l-264 73q-109 29 -161 84.5t-52 143.5q0 151 112.5 241t323.5 90q163 0 269 -34l88 -27q17 -5 10 -25l-39 -82q-8 -13 -25 -10l-81 25q-102 30 -222 30q-142 0 -222.5 -51t-80.5 -141q0 -95 131 -131l262 -72q113 -31 166.5 -87t53.5 -146q0 -158 -120 -254 t-343 -96q-206 0 -344 53l-62 22q-18 6 -8 25l43 80q9 15 25 8l51 -18q128 -46 301 -46q154 0 238.5 56t84.5 157q0 96 -135 132zM1690 449l-265 73q-109 29 -161 84.5t-52 143.5q0 151 113 241t324 90q162 0 268 -34l88 -27q17 -5 10 -25l-39 -82q-8 -13 -24 -10l-82 25 q-102 30 -221 30q-142 0 -222.5 -51t-80.5 -141q0 -95 131 -131l262 -72q113 -31 166 -87t53 -146q0 -158 -120 -254t-343 -96q-206 0 -344 53l-61 22q-18 6 -9 25l43 80q9 15 25 8l51 -18q128 -46 301 -46q154 0 239 56t85 157q0 96 -135 132z" />
<glyph horiz-adv-x="1101" d="M1106 1040l-14 -84q-3 -16 -21 -16h-383l-149 -924q-3 -16 -19 -16h-96q-19 0 -16 20l147 920h-379q-20 0 -16 21l16 83q3 17 19 17h895q20 0 16 -21z" />
<glyph horiz-adv-x="1101" d="M721 1262h-90q-14 0 -23 12l-145 231q-6 9 -2.5 16t14.5 7h80q13 0 23 -10l114 -152l166 154q11 8 23 8h75q12 0 15.5 -7t-4.5 -16l-222 -233q-10 -10 -24 -10zM195 1061h895q20 0 16 -21l-16 -84q-3 -16 -19 -16h-383l-149 -924q-3 -16 -19 -16h-96q-19 0 -16 20 l147 920h-379q-20 0 -16 21l16 83q3 17 19 17z" />
<glyph horiz-adv-x="1185" d="M1124 1042l-100 -626q-34 -206 -165.5 -319t-340.5 -113q-213 0 -313 117t-66 323l103 623q3 16 18 16h96q20 0 17 -21l-103 -626q-23 -147 43 -227t209 -80q153 0 249.5 83t121.5 232l100 623q3 16 19 16h96q20 0 16 -21z" />
<glyph horiz-adv-x="1185" d="M860 1528h115q12 0 15 -7t-5 -16l-221 -233q-10 -10 -25 -10h-84q-11 0 -14 6.5t4 15.5l193 234q10 10 22 10zM1124 1042l-100 -626q-34 -206 -165.5 -319t-340.5 -113q-213 0 -313 117t-66 323l103 623q3 16 18 16h96q20 0 17 -21l-103 -626q-23 -147 43 -227t209 -80 q153 0 249.5 83t121.5 232l100 623q3 16 19 16h96q20 0 16 -21z" />
<glyph horiz-adv-x="1185" d="M604 1546q38 0 59 -21t21 -57q0 -44 -24.5 -72t-69.5 -28q-37 0 -57.5 20.5t-20.5 55.5q0 47 24.5 74.5t67.5 27.5zM915 1546q38 0 59 -21t21 -57q0 -44 -24.5 -72t-69.5 -28q-37 0 -57.5 20.5t-20.5 55.5q0 47 24.5 74.5t67.5 27.5zM1124 1042l-100 -626 q-34 -206 -165.5 -319t-340.5 -113q-213 0 -313 117t-66 323l103 623q3 16 18 16h96q20 0 17 -21l-103 -626q-23 -147 43 -227t209 -80q153 0 249.5 83t121.5 232l100 623q3 16 19 16h96q20 0 16 -21z" />
<glyph horiz-adv-x="1185" d="M764 1544q66 0 102.5 -31t36.5 -88q0 -29 -9.5 -58t-29.5 -57.5t-58 -46.5t-89 -18q-68 0 -105 31t-37 88q0 73 46 126.5t143 53.5zM752 1464q-75 0 -84 -73q-9 -66 59 -66q40 0 63 23.5t23 64.5q0 51 -61 51zM1124 1042l-100 -626q-34 -206 -165.5 -319t-340.5 -113 q-213 0 -313 117t-66 323l103 623q3 16 18 16h96q20 0 17 -21l-103 -626q-23 -147 43 -227t209 -80q153 0 249.5 83t121.5 232l100 623q3 16 19 16h96q20 0 16 -21z" />
<glyph horiz-adv-x="1187" d="M1194 1038l-408 -655q-112 -182 -196 -369q-6 -14 -21 -14h-110q-16 0 -19 16q-24 184 -73 367l-195 657q-3 9 1.5 15t14.5 6h95q17 0 20 -17l174 -575q41 -133 49 -254q2 -14 12.5 -14.5t18.5 12.5q59 133 135 256l359 580q9 12 22 12h109q12 0 15 -7t-3 -16z" />
<glyph horiz-adv-x="1656" d="M1655 1038l-328 -684q-88 -186 -153 -340q-6 -14 -21 -14h-111q-15 0 -18 16q-2 17 -43 281l-74 383q-12 73 -12 125q0 13 -5.5 18t-13 0t-12.5 -18q-16 -54 -47 -117l-203 -391q-57 -112 -133 -283q-6 -14 -20 -14h-113q-17 0 -20 18q-9 95 -41 336l-107 686q0 21 19 21 h96q15 0 18 -17l88 -581q20 -141 23 -250q0 -9 5.5 -12t12.5 0t11 12q27 65 122 264l291 570q6 14 21 14h59q18 0 21 -17l106 -567q32 -207 37 -264q0 -9 5 -12t11.5 0t10.5 12q35 96 106 250l275 584q6 14 20 14h102q11 0 15 -6.5t0 -16.5z" />
<glyph horiz-adv-x="1153" d="M1122 1038l-381 -432q-43 -49 -67 -61q-11 -6 0 -17q23 -18 43 -61l250 -444q5 -9 1 -16t-14 -7h-106q-14 0 -23 12l-237 422q-10 19 -29 0l-379 -424q-8 -10 -22 -10h-115q-12 0 -15 7t5 16l407 458q20 25 45 43q1 1 4.5 3t5.5 3t3.5 3.5t1.5 5.5q2 2 -4 8 q-21 15 -45 59l-246 432q-5 9 -1.5 16t13.5 7h109q13 0 22 -12l232 -410q4 -11 12 -11t16 11l369 412q8 10 22 10h113q12 0 15 -7t-5 -16z" />
<glyph horiz-adv-x="1132" d="M1149 1040l-346 -393q-102 -121 -146 -198.5t-63 -188.5l-39 -244q-3 -16 -18 -16h-95q-19 0 -16 20l37 240q18 110 0 188t-82 199l-219 393q-5 9 -1.5 16t13.5 7h109q13 0 22 -12l182 -318q39 -70 72 -182q2 -7 6 -9.5t9 0t10 9.5q72 115 133 182l287 320q8 10 22 10 h113q12 0 15 -7t-5 -16z" />
<glyph horiz-adv-x="1132" d="M823 1528h115q12 0 15 -7t-5 -16l-221 -233q-10 -10 -25 -10h-84q-11 0 -14 6.5t4 15.5l193 234q10 10 22 10zM1149 1040l-346 -393q-102 -121 -146 -198.5t-63 -188.5l-39 -244q-3 -16 -18 -16h-95q-19 0 -16 20l37 240q18 110 0 188t-82 199l-219 393q-5 9 -1.5 16 t13.5 7h109q13 0 22 -12l182 -318q39 -70 72 -182q2 -7 6 -9.5t9 0t10 9.5q72 115 133 182l287 320q8 10 22 10h113q12 0 15 -7t-5 -16z" />
<glyph horiz-adv-x="1058" d="M1042 1047l2 -7q6 -14 -4 -24q-87 -91 -118 -129l-572 -664q-22 -29 -78 -82q-9 -9 -6.5 -16t15.5 -6q39 2 108 2h479q11 0 15 -6.5t-2 -16.5l-47 -86q-6 -12 -21 -12h-756q-16 0 -22 14l-2 6q-6 15 4 25q98 102 129 143l559 650q36 45 78 84q8 6 10 11t-1.5 7.5 t-12.5 1.5q-43 -2 -111 -2h-469q-19 0 -16 21l16 83q3 17 19 17h782q16 0 22 -14z" />
<glyph horiz-adv-x="1058" d="M684 1262h-90q-14 0 -23 12l-145 231q-6 9 -2.5 16t14.5 7h80q13 0 23 -10l114 -152l166 154q11 8 23 8h76q12 0 15 -7t-5 -16l-221 -233q-10 -10 -25 -10zM922 887l-572 -664q-22 -29 -78 -82q-9 -9 -6.5 -16t15.5 -6q39 2 108 2h479q11 0 15 -6.5t-2 -16.5l-47 -86 q-6 -12 -21 -12h-756q-16 0 -22 14l-2 6q-6 15 4 25q98 102 129 143l559 650q36 45 78 84q8 6 10 11t-1.5 7.5t-12.5 1.5q-43 -2 -111 -2h-469q-19 0 -16 21l16 83q3 17 19 17h782q16 0 22 -14l2 -7q6 -14 -4 -24q-87 -91 -118 -129z" />
<glyph horiz-adv-x="452" d="M381 1040l-166 -1024q-3 -16 -18 -16h-97q-19 0 -16 20l166 1024q3 17 18 17h97q19 0 16 -21z" />
<glyph horiz-adv-x="716" d="M342 442q119 0 184.5 -78t65.5 -217q0 -62 -12 -128t-40 -134t-69 -121t-104.5 -86.5t-139.5 -33.5q-120 0 -185 78t-65 217q0 52 8.5 107t26 112.5t47 107.5t68.5 90t94.5 63t120.5 23zM340 338q-54 0 -98 -28t-72 -70.5t-47 -97.5t-27 -106t-8 -97q0 -92 35.5 -141.5 t105.5 -49.5q53 0 96.5 27.5t72 71t47.5 97.5t27.5 105.5t8.5 97.5q0 91 -36 141t-105 50z" />
<glyph horiz-adv-x="716" d="M311 -248h142q19 0 16 -20l-12 -66q-3 -16 -19 -16h-399q-19 0 -16 20l12 66q3 16 18 16h148l73 455q15 70 17 74q4 9 -2 9q-3 0 -10 -3l-86 -37q-19 -10 -23 12l-16 62q-3 16 12 22l223 90q15 6 25 -4q9 -6 6 -20z" />
<glyph horiz-adv-x="716" d="M104 393l62 19q85 28 184 28q110 0 169 -49t54 -137q-3 -65 -40.5 -117.5t-118.5 -101.5l-205 -123q-96 -63 -111 -160h367q19 0 16 -20l-12 -66q-3 -16 -18 -16h-465q-20 0 -17 20l8 47q18 100 63 169t128 118l201 121q94 59 94 121q1 41 -32.5 65.5t-92.5 24.5 q-68 0 -152 -25l-61 -16q-20 -7 -23 12l-12 64q0 16 14 22z" />
<glyph horiz-adv-x="716" d="M111 399l53 17q73 24 166 24q109 0 167 -48.5t54 -137.5q-4 -136 -127 -191q-20 -6 -11 -12q1 -1 3 -2q106 -46 100 -164q-4 -116 -88.5 -179.5t-222.5 -63.5q-85 0 -174 28l-54 19q-16 5 -10 24l33 66q9 15 25 8l53 -16q73 -25 137 -25q83 0 136.5 38.5t54.5 104.5 q1 53 -37.5 83t-104.5 30h-43q-19 0 -16 21l12 67q3 16 19 16h40q71 0 116.5 36.5t45.5 99.5q1 44 -31.5 69t-89.5 25q-65 0 -133 -19l-55 -16q-20 -7 -23 14l-10 62q-3 15 15 22z" />
<glyph horiz-adv-x="716" d="M561 -66l-10 -61q-3 -16 -19 -16h-67l-33 -191q-3 -16 -18 -16h-72q-19 0 -16 20l28 187h-372q-20 0 -17 20l10 72q3 13 13 20q15 15 41 42t43 44l276 295q31 31 66 72q8 10 22 10h103q19 0 16 -20l-74 -457h64q19 0 16 -21zM371 -45l37 223q4 35 24 105q3 9 -2.5 9.5 t-11.5 -7.5l-244 -256q-43 -43 -57 -54q-1 -1 -6 -3.5t-7.5 -4.5t-3.5 -6q0 -6 11 -6h260z" />
<glyph horiz-adv-x="716" d="M565 410l-35 -66q-6 -14 -20 -14h-303l-23 -133q-6 -38 -12 -58q-1 -8 1.5 -9t10.5 0q3 1 4 1l33 2q44 8 88 8q112 0 172.5 -55.5t55.5 -153.5q-6 -136 -95.5 -213t-236.5 -77q-93 0 -178 30l-56 19q-17 6 -8 24l33 66q10 14 24 8l54 -18q85 -25 141 -25q104 0 155.5 54 t53.5 126q2 56 -35 86.5t-106 30.5q-68 0 -107 -6l-88 -10q-14 -3 -25 8t-8 24l60 357q3 16 18 16h418q23 0 14 -22z" />
<glyph horiz-adv-x="716" d="M449 410l-189 -207q-44 -47 -63 -64q-9 -9 -6.5 -13.5t14.5 -0.5q61 27 127 27q105 0 165 -57.5t54 -157.5q-3 -57 -24 -108.5t-59 -94t-101.5 -67.5t-143.5 -25q-127 0 -191.5 59t-58.5 168q4 98 47 184.5t138 190.5l164 178q8 10 22 10h94q12 0 15 -6.5t-4 -15.5z M233 -254q93 0 149 50t58 134q0 123 -149 123q-55 0 -97 -17.5t-64 -45.5t-32.5 -58t-11.5 -61q-2 -59 36 -92t111 -33z" />
<glyph horiz-adv-x="716" d="M633 420q6 -12 -4 -25q-42 -52 -94 -135l-355 -598q-9 -12 -22 -12h-76q-12 0 -15.5 6.5t1.5 15.5l331 559q9 16 27.5 42t24.5 34q1 2 4.5 5.5t5.5 6.5t2 7t-10 4h-375q-20 0 -17 20l11 66q3 16 18 16h520q14 0 23 -12z" />
<glyph horiz-adv-x="716" d="M346 440q115 0 176 -47.5t58 -132.5q-8 -140 -140 -190q-14 -4 -14 -10q0 -3 4 -5q57 -22 87.5 -66t27.5 -106q-7 -99 -88.5 -170t-233.5 -71q-127 0 -194 52.5t-62 145.5q3 76 48 132t118 83q16 4 15 10q0 3 -5 5q-95 42 -92 143q4 105 84.5 166t210.5 61zM336 340 q-80 0 -128 -36.5t-48 -100.5q-1 -44 33.5 -68t99.5 -24q78 0 126.5 36t49.5 101q1 43 -34.5 67.5t-98.5 24.5zM283 10q-100 0 -151.5 -48t-53.5 -109q-2 -53 38.5 -81t116.5 -28q90 0 146 41.5t57 112.5q1 54 -41 83t-112 29z" />
<glyph horiz-adv-x="716" d="M121 -328l188 207q40 43 64 64q9 9 6.5 13.5t-14.5 0.5q-61 -27 -127 -27q-106 0 -166 57.5t-54 157.5q3 57 24 108.5t59 94t101.5 67.5t143.5 25q127 0 191.5 -59t58.5 -168q-5 -98 -47 -184.5t-137 -190.5l-164 -178q-7 -10 -23 -10h-94q-12 0 -15 6.5t5 15.5zM336 336 q-93 0 -149 -50t-58 -134q0 -60 38.5 -91.5t111.5 -31.5q55 0 96.5 17.5t63.5 45.5t32.5 58t11.5 61q2 59 -36 92t-111 33z" />
<glyph horiz-adv-x="716" d="M547 1694q119 0 184.5 -78t65.5 -217q0 -62 -12 -128t-40 -134t-69 -121.5t-104.5 -87t-139.5 -33.5q-120 0 -185 78t-65 217q0 64 11.5 130t39.5 134t68.5 120.5t104 86t141.5 33.5zM545 1589q-54 0 -98 -28t-72 -70.5t-47 -97.5t-27 -106t-8 -97q0 -92 35.5 -141.5 t105.5 -49.5q53 0 96.5 28t71.5 71t47.5 97.5t28 106t8.5 97.5q0 91 -36 140.5t-105 49.5z" />
<glyph horiz-adv-x="716" d="M516 1004h139q9 0 14 -6t3 -15l-13 -65q-3 -17 -18 -17h-399q-20 0 -17 21l13 65q3 17 18 17h150l73 454q15 70 17 74t1.5 6.5t-4 2.5t-10.5 -3l-86 -37q-18 -9 -22 12l-17 62q-3 16 13 22l223 91q14 5 24 -5q10 -6 7 -20z" />
<glyph horiz-adv-x="716" d="M307 1647l62 18q88 29 184 29q110 0 169 -49.5t54 -137.5q-3 -65 -41 -117.5t-119 -101.5l-204 -123q-96 -63 -111 -159h367q20 0 16 -21l-12 -65q-3 -17 -19 -17h-465q-20 0 -16 21l8 47q18 100 63 168.5t128 117.5l200 121q95 60 95 121q1 41 -32.5 65.5t-92.5 24.5 q-71 0 -152 -24l-61 -17q-20 -7 -23 13l-12 63q0 17 14 23z" />
<glyph horiz-adv-x="716" d="M313 1653l54 16q76 25 165 25q109 0 167.5 -49t54.5 -138q-4 -135 -127 -190q-14 -4 -14 -9q0 -3 5 -5q107 -46 101 -164q-4 -116 -88.5 -180t-222.5 -64q-83 0 -175 29l-53 18q-16 6 -10 25l33 65q9 14 24 8l54 -16q73 -25 137 -25q83 0 136 39t54 105q1 53 -37 82.5 t-104 29.5h-43q-20 0 -16 21l12 67q3 17 18 17h41q71 0 116.5 36t45.5 99q1 44 -31.5 69t-89.5 25q-68 0 -133 -18l-55 -17q-20 -7 -23 15l-10 61q-3 16 14 23z" />
<glyph horiz-adv-x="716" d="M668 1110l-33 -190q-3 -17 -19 -17h-71q-9 0 -14 6t-3 15l31 186h-375q-19 0 -16 20l10 72q4 15 12 21q15 15 41 42t43 44l277 295q31 30 65 71q8 11 23 11h102q9 0 14 -6t3 -15l-74 -457h64q19 0 16 -20l-10 -62q-3 -16 -19 -16h-67zM575 1208l35 224q3 27 25 104 q3 9 -2.5 9.5t-11.5 -7.5l-244 -256q-35 -36 -58 -53q-15 -10 -16 -15q0 -6 10 -6h262z" />
<glyph horiz-adv-x="716" d="M412 1583l-23 -133q-5 -37 -12 -57q-1 -8 2 -9.5t14 0.5l33 2q50 9 88 9q112 0 172 -55t55 -154q-6 -137 -95.5 -214t-235.5 -77q-91 0 -179 31l-55 18q-18 6 -8 25l33 65q10 14 24 8l54 -18q85 -25 141 -25q104 0 155.5 54.5t53.5 126.5q1 55 -36 85.5t-106 30.5 q-67 0 -106 -6l-88 -10q-14 -3 -25 8t-8 25l59 356q3 17 19 17h418q11 0 14.5 -6t-0.5 -17l-35 -68q-6 -12 -20 -12h-303z" />
<glyph horiz-adv-x="716" d="M651 1663l-188 -207q-35 -38 -64 -63q-9 -9 -6 -14t15 -1q62 27 127 27q105 0 165 -57.5t54 -157.5q-3 -57 -24 -108.5t-59 -94t-101.5 -67.5t-143.5 -25q-127 0 -191.5 59t-58.5 168q5 98 47 184.5t137 190.5l164 178q8 11 23 11h94q12 0 15 -7t-5 -16zM436 999 q93 0 149 50.5t58 134.5q0 123 -149 123q-55 0 -97 -17.5t-64 -46t-32.5 -58.5t-11.5 -61q-2 -59 36 -92t111 -33z" />
<glyph horiz-adv-x="716" d="M836 1673q5 -10 -5 -24q-40 -49 -94 -136l-354 -598q-9 -12 -23 -12h-75q-12 0 -16 7t1 16l332 559q7 12 15.5 24.5t19 27t16.5 24.5l7 7t6 11q0 4 -11 4h-374q-9 0 -14 6t-3 15l10 65q3 17 19 17h520q13 0 23 -13z" />
<glyph horiz-adv-x="716" d="M549 1694q115 0 175.5 -48t57.5 -133q-8 -141 -139 -190q-20 -7 -10 -14q57 -22 87.5 -66t27.5 -106q-7 -99 -88.5 -170.5t-233.5 -71.5q-126 0 -193.5 53t-62.5 146q3 76 48 132t118 83q16 4 15 9q0 3 -5 5q-95 42 -92 143q4 105 84.5 166.5t210.5 61.5zM539 1593 q-80 0 -128.5 -36.5t-48.5 -100.5q-1 -44 34 -68t100 -24q78 0 126.5 36t49.5 101q1 43 -34.5 67.5t-98.5 24.5zM485 1264q-100 0 -151 -48.5t-53 -109.5q-2 -53 38.5 -81t116.5 -28q90 0 146 41.5t57 112.5q1 54 -41.5 83.5t-112.5 29.5z" />
<glyph horiz-adv-x="716" d="M324 924l188 206q44 47 63 64q9 9 6.5 13.5t-14.5 0.5q-59 -26 -127 -26q-105 0 -165 57.5t-54 157.5q3 57 24 108.5t59 94t101.5 67.5t143.5 25q127 0 191.5 -59.5t58.5 -168.5q-4 -98 -47 -183.5t-138 -190.5l-163 -179q-7 -10 -23 -10h-94q-12 0 -15 7t5 16zM539 1587 q-93 0 -149 -50t-58 -134q0 -123 149 -123q55 0 97 17.5t64 45.5t32.5 58t11.5 61q2 59 -36 92t-111 33z" />
<glyph horiz-adv-x="1142" d="M659 1081q185 0 287.5 -112t102.5 -310q0 -86 -18 -176t-61 -181t-104.5 -162t-157 -115.5t-210.5 -44.5q-185 0 -287 111t-102 308q0 86 17.5 175t59.5 181.5t103.5 163.5t157 116.5t212.5 45.5zM655 958q-89 0 -161 -38t-117.5 -97t-76.5 -134.5t-43.5 -147 t-12.5 -138.5q0 -144 66 -222.5t192 -78.5q86 0 157.5 37t117.5 95t77.5 133t45 148t13.5 142q0 142 -66.5 221.5t-191.5 79.5z" />
<glyph horiz-adv-x="612" d="M358 0h-96q-19 0 -16 20l119 738q13 67 24 112q3 21 -8 21q-2 0 -5.5 -1t-8 -2.5l-7.5 -2.5l-165 -80q-19 -6 -25 10l-25 80q-6 16 11 23l348 157q15 6 26 -2l7 -4q10 -14 8 -25l-168 -1028q-3 -16 -19 -16z" />
<glyph horiz-adv-x="1040" d="M256 1014l92 28q139 39 266 39q161 0 254 -64.5t93 -176.5q0 -86 -56 -158t-184 -141l-311 -172q-164 -93 -189 -248h590q19 0 16 -21l-14 -84q-3 -16 -18 -16h-709q-19 0 -16 20l10 64q22 132 88 227.5t188 161.5l316 176q81 47 118 87.5t37 90.5q0 59 -59 95t-158 36 q-125 0 -237 -32l-99 -27q-17 -6 -20 14l-12 80q-2 7 2 13t12 8z" />
<glyph horiz-adv-x="1005" d="M231 1026l64 18q121 37 248 37q167 0 259.5 -77.5t92.5 -217.5q0 -110 -54 -211.5t-173 -162.5q-39 -17 -11 -31q79 -33 121.5 -112t42.5 -177q0 -64 -16 -125.5t-54.5 -120.5t-95.5 -103.5t-145.5 -71.5t-198.5 -27q-123 0 -241 32l-86 23q-17 7 -11 25l39 83 q10 16 25 13l80 -25q95 -28 198 -28q82 0 147.5 21.5t107 55.5t69.5 79t39.5 90t11.5 91q0 105 -71 169.5t-197 64.5h-119q-19 0 -16 20l14 84q3 17 18 17h115q71 0 128.5 19t94 49.5t61 71t34.5 81.5t10 84q0 94 -58 144t-167 50q-105 0 -220 -32l-71 -19q-18 -6 -21 15 l-8 84q-3 17 14 20z" />
<glyph horiz-adv-x="1110" d="M817 123h125q20 0 16 -21l-14 -84q-3 -16 -18 -16h-127l-54 -321q-3 -17 -18 -17h-96q-9 0 -14 6t-3 15l52 315h-625q-19 0 -16 20l14 97q3 13 10 20q18 19 125 144l528 655q35 41 84 113q9 12 23 12h141q20 0 17 -21zM684 123l96 594q11 72 33 145q3 13 -6 13 q-8 0 -16 -11l-496 -618l-88 -101q-10 -11 -9 -16.5t11 -5.5h475z" />
<glyph horiz-adv-x="1019" d="M911 1038l-41 -84q-6 -14 -20 -14h-488l-49 -315q-14 -81 -20 -101q-6 -14 -2.5 -18.5t18.5 -1.5l45 8q76 16 158 16q167 0 258.5 -91t91.5 -251q0 -74 -16.5 -147t-56.5 -145.5t-99 -127t-151 -88.5t-205 -34q-144 0 -262 45l-82 32q-20 7 -10 23l40 84q10 16 25 10 l80 -31q103 -38 217 -38q85 0 153.5 27t111.5 69t72 97t40.5 107t11.5 103q0 111 -65.5 172.5t-184.5 61.5q-83 0 -172 -17l-131 -22q-11 -2 -24 8l-2 2q-10 10 -7 24l105 643q3 17 18 17h629q11 0 14.5 -6.5t-0.5 -16.5z" />
<glyph horiz-adv-x="1099" d="M864 1386l-364 -438q-35 -45 -107 -117q-10 -13 -4 -19.5t21 1.5q103 64 237 64q169 0 261.5 -90.5t92.5 -254.5q0 -75 -15.5 -148.5t-54 -147.5t-96 -130t-148.5 -91t-204 -35q-188 0 -286.5 94.5t-98.5 269.5q0 165 64 315.5t211 329.5l340 410q10 10 22 10h119 q11 0 14 -7t-4 -16zM608 754q-84 0 -150.5 -26.5t-108 -68.5t-69 -97t-38.5 -108t-11 -106q0 -117 65 -181.5t191 -64.5q83 0 150.5 28t109.5 71.5t70 99.5t39.5 109t11.5 104q0 117 -66.5 178.5t-193.5 61.5z" />
<glyph horiz-adv-x="1028" d="M1022 1047l2 -5q6 -15 -2 -26q-49 -60 -123 -197l-606 -1143q-6 -12 -21 -12h-102q-11 0 -14.5 6t2.5 17l598 1128q45 79 65 103q11 14 8.5 18t-18.5 4h-618q-9 0 -14 6t-3 15l14 83q3 17 19 17h792q15 0 21 -14z" />
<glyph horiz-adv-x="1150" d="M723 1432q171 0 265.5 -81t94.5 -223q0 -73 -22 -140.5t-80 -132t-145 -97.5q-17 -8 -19.5 -17.5t12.5 -15.5q84 -31 133.5 -108.5t49.5 -178.5q0 -59 -15.5 -119t-54 -122t-95 -109.5t-147 -77.5t-202.5 -30q-188 0 -292 85t-104 238q0 60 17 121.5t50.5 120.5t92 108.5 t133.5 77.5q44 17 4 35q-72 27 -109.5 87.5t-37.5 145.5q0 56 15 113t50.5 115.5t88 103t134.5 73t183 28.5zM713 1307q-86 0 -152.5 -30t-103 -77.5t-54.5 -99.5t-18 -105q0 -91 61.5 -140.5t174.5 -49.5q85 0 150 27.5t102.5 73t56 97.5t18.5 107q0 94 -61.5 145.5 t-173.5 51.5zM612 680q-75 0 -139 -23t-106.5 -60.5t-72 -85t-43 -95t-13.5 -92.5q0 -105 70 -163.5t200 -58.5q98 0 173 32t117 84.5t62.5 109.5t20.5 116q0 109 -74 172.5t-195 63.5z" />
<glyph horiz-adv-x="1103" d="M287 -313l340 413q37 45 112 129q12 18 7.5 22.5t-25.5 -7.5q-113 -72 -244 -72q-169 0 -261.5 91.5t-92.5 260.5q0 73 16.5 147t55.5 148.5t97 132t149 93.5t202 36q186 0 286.5 -96t100.5 -270q0 -170 -65.5 -324.5t-212.5 -333.5l-316 -383q-10 -10 -22 -10h-117 q-11 0 -14 7t4 16zM639 958q-82 0 -149.5 -28.5t-110 -73t-71 -101.5t-40.5 -111t-12 -105q0 -119 66 -181.5t192 -62.5q81 0 147 25.5t109 67t72.5 96.5t42 112t12.5 115q0 117 -66.5 182t-191.5 65z" />
<glyph d="M766 1432q201 0 310.5 -137.5t109.5 -385.5q0 -113 -20.5 -234t-70 -246.5t-120.5 -224t-182 -161.5t-246 -63q-200 0 -309 136t-109 382q0 94 15.5 194.5t46 207t83 201t120.5 169t164 118.5t208 44zM760 1303q-105 0 -191.5 -55.5t-142 -141t-94 -194.5t-54.5 -211 t-16 -195q0 -192 75.5 -294.5t215.5 -102.5q89 0 165.5 39t129 104.5t93 147.5t64 173t35 175t11.5 159q0 189 -75.5 292.5t-215.5 103.5z" />
<glyph d="M674 121h330q20 0 16 -21l-16 -84q-3 -16 -19 -16h-797q-19 0 -16 20l14 84q3 17 19 17h336l161 993q12 76 25 115q5 14 0.5 18.5t-29.5 -2.5l-252 -92q-19 -6 -22 12l-21 86q-3 16 13 23l420 153q14 3 24 -4l12 -8q13 -10 11 -22z" />
<glyph d="M334 1348l108 32q165 52 318 52q186 0 290.5 -80.5t104.5 -223.5q0 -111 -62 -205.5t-219 -191.5l-385 -248q-203 -128 -243 -362h715q19 0 16 -21l-16 -84q-3 -16 -19 -16h-831q-20 0 -17 20l12 74q27 167 103 289.5t219 210.5l389 248q203 130 203 268q0 91 -71.5 144 t-194.5 53q-154 0 -285 -43l-111 -35q-19 -6 -22 12l-14 84q-3 17 12 23z" />
<glyph d="M336 1360l94 29q148 43 295 43q180 0 281.5 -83.5t101.5 -230.5q0 -54 -11 -100.5t-37 -94.5t-75.5 -91t-120.5 -78q-33 -13 -2 -27q87 -35 131.5 -114t44.5 -179q0 -61 -17 -121.5t-58 -121.5t-100.5 -107t-153 -75t-207.5 -29q-159 0 -307 51l-105 37q-16 5 -10 24 l41 78q9 14 24 8l97 -31q126 -45 264 -45q174 0 285.5 92t111.5 242q0 119 -81.5 181.5t-213.5 62.5h-78q-19 0 -16 20l14 86q3 17 19 17h74q152 0 252 86t100 209q0 98 -67.5 153.5t-184.5 55.5q-128 0 -264 -39l-99 -27q-19 -6 -22 12l-14 86q-4 17 14 21z" />
<glyph d="M1128 502l-14 -86q-3 -17 -18 -17h-129l-64 -383q-3 -16 -18 -16h-97q-19 0 -16 20l59 379h-727q-20 0 -16 21l14 94q3 14 13 21q67 63 159 161l560 572q56 55 114 129q9 12 23 12h139q19 0 16 -20l-139 -867h125q19 0 16 -20zM852 522l86 531q11 76 35 153q5 15 -4 18 t-21 -10l-547 -552q-74 -83 -114 -115q-11 -11 -9 -18t13 -7h561z" />
<glyph d="M1155 1386l-39 -83q-6 -15 -20 -15h-604l-52 -317l-16 -86q-1 -4 -3 -10.5t-3 -10.5q-2 -8 2.5 -11.5t17.5 -0.5l60 8q141 19 196 19q197 0 302.5 -93.5t105.5 -265.5q0 -76 -18 -148.5t-62 -144.5t-109 -126t-167.5 -87.5t-229.5 -33.5q-157 0 -307 53l-100 35 q-17 6 -11 24l41 78q9 15 25 8l94 -31q127 -45 266 -45q96 0 174 26t127 67t82 96t46.5 108.5t13.5 108.5q0 119 -74.5 183.5t-218.5 64.5q-47 0 -215 -21l-142 -18q-13 -3 -24 8l-12 14q-12 12 -9 25l105 629q3 16 18 16h746q11 0 14.5 -6.5t-0.5 -16.5z" />
<glyph d="M946 1386l-395 -442q-55 -61 -119 -125q-13 -13 -2 -17q7 -2 19 5q133 70 276 70q192 0 301 -96t109 -267q0 -77 -18.5 -149.5t-61.5 -143.5t-107 -123.5t-163 -85t-222 -32.5q-213 0 -324.5 94t-111.5 270q0 170 69.5 322t245.5 348l344 385q8 10 23 10h127q12 0 15 -7 t-5 -16zM688 754q-93 0 -167.5 -25.5t-121.5 -65.5t-78.5 -93t-44 -105t-12.5 -105q0 -124 78 -191t227 -67q93 0 168.5 25t122.5 65t79 93.5t45 106t13 106.5q2 123 -77.5 189.5t-231.5 66.5z" />
<glyph d="M1272 1395l4 -13q6 -16 -4 -26q-64 -82 -137 -203l-691 -1141q-9 -12 -22 -12h-109q-12 0 -15 7t3 16l680 1124q33 52 86 115q11 15 7.5 20.5t-21.5 5.5h-750q-19 0 -16 21l14 84q3 16 18 16h930q17 0 23 -14z" />
<glyph d="M770 1432q192 0 299 -83t107 -229q0 -117 -66.5 -215.5t-210.5 -144.5q-11 -4 -16.5 -9.5t-4 -11t10.5 -8.5q102 -37 159.5 -116.5t57.5 -184.5q0 -85 -33.5 -163t-99.5 -143.5t-177 -104.5t-253 -39q-213 0 -330 87.5t-117 243.5q0 83 34.5 163.5t110 151.5t181.5 105 q19 4 22 13.5t-12 15.5q-180 62 -180 246q0 63 18.5 122.5t59 115t100 97t147 66.5t193.5 25zM760 1307q-99 0 -174 -27.5t-116.5 -73t-62 -96.5t-20.5 -106q0 -95 74.5 -147t208.5 -52q97 0 171 26.5t116 70t62.5 92.5t20.5 102q0 101 -73.5 156t-206.5 55zM655 680 q-103 0 -187 -32t-134 -83.5t-76.5 -110.5t-26.5 -118q0 -110 83.5 -172t234.5 -62q110 0 194.5 30t132.5 79.5t71.5 105.5t23.5 115q0 115 -88 181.5t-228 66.5z" />
<glyph d="M387 23l395 442q56 61 119 125q13 13 3 17q-6 3 -19 -5q-133 -70 -277 -70q-192 0 -300.5 96t-108.5 267q0 77 18 150t61 143.5t107 123.5t163.5 85.5t221.5 32.5q213 0 324.5 -94.5t111.5 -270.5q0 -170 -69.5 -322t-245.5 -348l-344 -385q-7 -10 -23 -10h-127 q-12 0 -15 7t5 16zM645 655q93 0 167.5 25.5t121.5 65.5t78.5 93t44 105t12.5 105q0 124 -78 191t-227 67q-93 0 -168.5 -25t-122.5 -65t-79 -93.5t-45 -106t-13 -106.5q-2 -123 77.5 -189.5t231.5 -66.5z" />
<glyph horiz-adv-x="749" d="M518 772q119 0 184.5 -78t65.5 -217q0 -62 -12 -128t-40 -134t-69 -121.5t-104.5 -87t-139.5 -33.5q-120 0 -184.5 78t-64.5 217q0 64 11.5 130t39 134t68 120.5t104 86t141.5 33.5zM516 668q-54 0 -98 -28t-72 -71t-47 -98t-27 -106t-8 -97q0 -92 36 -141t106 -49 q65 0 116 41t79 104.5t42 129t14 124.5q0 91 -36 141t-105 50z" />
<glyph horiz-adv-x="411" d="M451 784q9 -9 6 -22l-123 -746q-3 -16 -19 -16h-73q-20 0 -17 20l86 537q15 70 17 74t1.5 6.5t-4 2.5t-10.5 -3l-86 -37q-18 -9 -22 12l-17 62q-3 16 13 22l223 90q16 7 25 -2z" />
<glyph horiz-adv-x="667" d="M238 745l61 19q88 29 184 29q110 0 169.5 -49.5t54.5 -137.5q-3 -65 -41 -117.5t-119 -101.5l-205 -123q-96 -63 -111 -160h367q19 0 16 -20l-12 -66q-3 -16 -18 -16h-465q-9 0 -14 6t-3 15l9 47q18 100 62.5 168.5t127.5 117.5l201 121q94 59 94 121q1 41 -32.5 65.5 t-92.5 24.5q-71 0 -152 -24l-61 -17q-19 -6 -22 12l-13 64q0 16 15 22z" />
<glyph horiz-adv-x="677" d="M246 752l53 16q76 25 166 25q109 0 167 -49t54 -138q-4 -135 -127 -190q-15 -4 -13 -10q0 -3 5 -5q106 -46 100 -163q-4 -116 -88.5 -180t-222.5 -64q-82 0 -174 29l-53 18q-17 6 -11 25l33 65q9 15 25 8l53 -16q73 -25 137 -25q83 0 136.5 39t54.5 105q1 53 -37.5 82.5 t-104.5 29.5h-43q-20 0 -16 21l12 67q3 17 19 17h41q71 0 116 36t45 99q1 44 -31 69t-89 25q-69 0 -134 -18l-55 -17q-19 -6 -22 15l-11 61q-3 16 15 23z" />
<glyph horiz-adv-x="724" d="M713 287l-11 -62q-3 -16 -18 -16h-68l-32 -191q-3 -16 -19 -16h-71q-20 0 -17 21l29 186h-373q-19 0 -16 20l10 72q4 15 12 21q15 15 41 42t43 44l277 294q25 25 65 72q7 10 23 10h102q20 0 17 -20l-74 -457h63q20 0 17 -20zM522 307l37 223q3 29 25 105q3 9 -4 9 q-5 0 -11 -7l-243 -256q-35 -35 -58 -53q-15 -10 -16 -15q0 -6 10 -6h260z" />
<glyph horiz-adv-x="681" d="M713 762l-35 -66q-6 -14 -21 -14h-303l-22 -133q-4 -31 -13 -57q-1 -8 2.5 -9.5t14.5 0.5l33 2q49 9 88 9q112 0 172 -55t55 -154q-6 -137 -96 -214t-236 -77q-90 0 -178 31l-55 18q-18 6 -8 25l32 65q10 14 25 8l53 -18q85 -25 141 -25q104 0 155.5 54.5t53.5 126.5 q2 56 -35 86t-106 30q-67 0 -106 -6l-88 -10q-14 -3 -25 8t-8 25l59 356q3 16 19 16h417q24 0 15 -22z" />
<glyph horiz-adv-x="696" d="M602 762l-188 -207q-35 -38 -64 -63q-9 -9 -6.5 -14t14.5 -1q61 27 127 27q106 0 166 -57.5t54 -157.5q-3 -57 -24 -108.5t-59 -94t-101.5 -67.5t-143.5 -25q-127 0 -191.5 59t-58.5 168q5 98 47 184.5t137 190.5l164 178q8 10 23 10h94q12 0 15 -6.5t-5 -15.5zM387 98 q93 0 149 50.5t58 134.5q0 60 -38.5 91.5t-111.5 31.5q-55 0 -96.5 -17.5t-63.5 -46t-32.5 -58.5t-11.5 -61q-2 -59 36 -92t111 -33z" />
<glyph horiz-adv-x="667" d="M768 772q6 -11 -4 -24q-40 -49 -94 -136l-355 -598q-9 -12 -22 -12h-76q-12 0 -15.5 7t1.5 16l332 559q9 16 27.5 42t23.5 33q1 2 4.5 5.5t5.5 6.5t2 7t-10 4h-375q-19 0 -16 20l10 66q3 16 18 16h520q14 0 23 -12z" />
<glyph horiz-adv-x="718" d="M508 793q115 0 175.5 -48t57.5 -133q-8 -141 -139 -190q-20 -7 -10 -14q57 -22 87.5 -66t27.5 -106q-7 -99 -88.5 -170.5t-233.5 -71.5q-126 0 -193.5 53t-62.5 146q3 76 48 132t118 83q16 4 15 9q0 3 -5 5q-95 42 -92 143q4 105 84.5 166.5t210.5 61.5zM498 692 q-80 0 -128 -36.5t-48 -100.5q-1 -44 33.5 -68t99.5 -24q78 0 126.5 36t49.5 101q1 43 -34.5 67.5t-98.5 24.5zM444 362q-100 0 -151 -48t-53 -109q-2 -53 38.5 -81t116.5 -28q90 0 146 41.5t57 112.5q1 54 -41.5 83t-112.5 29z" />
<glyph horiz-adv-x="696" d="M92 23l189 206q44 47 63 64q9 9 6.5 13.5t-14.5 0.5q-59 -26 -127 -26q-105 0 -165 57.5t-54 157.5q3 57 23.5 108.5t58.5 94t101.5 67.5t143.5 25q127 0 191.5 -59.5t58.5 -168.5q-5 -98 -47 -184.5t-137 -190.5l-164 -178q-7 -10 -22 -10h-95q-12 0 -15 7t5 16z M307 686q-93 0 -149 -50t-58 -134q0 -60 38.5 -91.5t111.5 -31.5q55 0 97 17.5t64 45.5t32.5 58t11.5 61q2 59 -36.5 92t-111.5 33z" />
<glyph horiz-adv-x="749" d="M518 1417q119 0 184.5 -78t65.5 -217q0 -62 -12 -128t-40 -134t-69 -121.5t-104.5 -87t-139.5 -33.5q-120 0 -184.5 78t-64.5 217q0 64 11.5 130t39 134t68 120.5t104 86t141.5 33.5zM516 1313q-54 0 -98 -28t-72 -71t-47 -98t-27 -106t-8 -97q0 -92 36 -141t106 -49 q65 0 116 41t79 104.5t42 129t14 124.5q0 91 -36 141t-105 50z" />
<glyph horiz-adv-x="411" d="M451 1409q9 -9 6 -23l-123 -745q-3 -16 -19 -16h-73q-20 0 -17 20l86 537q15 67 17 73q2 4 1.5 6.5t-4 3t-10.5 -2.5l-86 -37q-18 -9 -22 12l-17 61q-3 16 13 23l223 90q16 7 25 -2z" />
<glyph horiz-adv-x="667" d="M238 1370l61 19q85 28 184 28q110 0 169.5 -49t54.5 -137q-3 -65 -41 -117.5t-119 -101.5l-205 -123q-96 -63 -111 -160h367q19 0 16 -20l-12 -66q-3 -16 -18 -16h-465q-20 0 -17 20l9 47q18 101 62.5 169.5t127.5 117.5l201 121q94 59 94 121q1 41 -32.5 65.5 t-92.5 24.5q-68 0 -152 -25l-61 -16q-19 -6 -22 12l-13 64q0 16 15 22z" />
<glyph horiz-adv-x="677" d="M246 1376l53 17q73 24 166 24q109 0 167 -48.5t54 -137.5q-4 -136 -127 -191q-20 -6 -11 -12q1 -1 3 -2q106 -46 100 -164q-4 -116 -88.5 -180t-222.5 -64q-82 0 -174 29l-53 19q-17 6 -11 24l33 66q9 15 25 8l53 -16q73 -25 137 -25q83 0 136.5 38.5t54.5 104.5 q1 53 -37.5 83t-104.5 30h-43q-19 0 -16 20l12 68q3 16 19 16h41q71 0 116 36.5t45 99.5q1 44 -31 69t-89 25q-66 0 -134 -19l-55 -16q-19 -6 -22 14l-11 62q-3 15 15 22z" />
<glyph horiz-adv-x="724" d="M713 911l-11 -61q-3 -16 -18 -16h-68l-32 -191q-3 -16 -19 -16h-71q-20 0 -17 20l29 187h-373q-19 0 -16 20l10 72q3 14 12 20q15 15 41 42t43 44l277 295q25 25 65 72q7 10 23 10h102q20 0 17 -20l-74 -457h63q20 0 17 -21zM522 932l37 223q3 29 25 105q3 9 -4 9 q-5 0 -11 -7l-243 -256q-40 -40 -58 -54q-1 -1 -6 -3.5t-7 -4.5t-3 -6q0 -6 10 -6h260z" />
<glyph horiz-adv-x="681" d="M713 1386l-35 -65q-6 -14 -21 -14h-303l-22 -133q-5 -33 -13 -58q-1 -8 2 -9t11 0q3 1 4 1l33 2q44 8 88 8q112 0 172 -55t55 -154q-6 -137 -96 -214t-236 -77q-90 0 -178 31l-55 19q-17 6 -8 24l32 66q10 14 25 8l53 -18q85 -25 141 -25q104 0 155.5 54t53.5 126 q2 56 -35 86.5t-106 30.5q-67 0 -106 -6l-88 -10q-14 -3 -25 8t-8 24l59 357q3 16 19 16h417q11 0 15 -6.5t0 -16.5z" />
<glyph horiz-adv-x="696" d="M602 1386l-188 -206q-40 -43 -64 -64q-9 -9 -6.5 -13.5t14.5 -0.5q59 26 127 26q106 0 166 -57.5t54 -157.5q-3 -57 -24 -108.5t-59 -94t-101.5 -67.5t-143.5 -25q-127 0 -191.5 59.5t-58.5 168.5q5 98 47 184.5t137 190.5l164 178q8 10 23 10h94q12 0 15 -7t-5 -16z M387 723q93 0 149 50t58 134q0 60 -38.5 91.5t-111.5 31.5q-55 0 -96.5 -17.5t-63.5 -45.5t-32.5 -58t-11.5 -61q-2 -59 36 -92t111 -33z" />
<glyph horiz-adv-x="667" d="M768 1397q6 -12 -4 -25q-42 -52 -94 -135l-355 -598q-9 -12 -22 -12h-76q-12 0 -15.5 6.5t1.5 15.5l332 559q7 12 15.5 24.5t19 27t16.5 24.5q1 2 4.5 5.5t5.5 6.5t2 7t-10 4h-375q-19 0 -16 20l10 66q3 16 18 16h520q14 0 23 -12z" />
<glyph horiz-adv-x="718" d="M508 1417q115 0 175.5 -47.5t57.5 -132.5q-8 -141 -139 -190q-14 -4 -14 -10q0 -3 4 -5q57 -22 87.5 -66t27.5 -106q-7 -99 -88.5 -170.5t-233.5 -71.5q-126 0 -193.5 53t-62.5 146q3 76 48 132t118 83q16 4 15 10q0 3 -5 5q-95 42 -92 143q4 105 84.5 166t210.5 61z M498 1317q-80 0 -128 -36.5t-48 -100.5q-1 -44 33.5 -68.5t99.5 -24.5q78 0 126.5 36.5t49.5 101.5q1 43 -34.5 67.5t-98.5 24.5zM444 987q-100 0 -151 -48.5t-53 -109.5q-1 -52 38.5 -80t116.5 -28q90 0 146 41t57 112q1 54 -41.5 83.5t-112.5 29.5z" />
<glyph horiz-adv-x="696" d="M268 649l189 207q44 47 63 64q9 9 6.5 13.5t-14.5 0.5q-61 -27 -127 -27q-105 0 -165 57.5t-54 157.5q3 57 24 108.5t59 94t101.5 67.5t143.5 25q127 0 191 -59t58 -168q-5 -98 -47 -184.5t-137 -190.5l-164 -178q-7 -10 -22 -10h-94q-12 0 -15.5 6.5t4.5 15.5zM483 1313 q-93 0 -149 -50.5t-58 -134.5q0 -122 150 -122q55 0 97 17.5t64 45.5t32.5 58t11.5 61q2 59 -36.5 92t-111.5 33z" />
<glyph horiz-adv-x="1142" d="M659 1081q185 0 287.5 -112t102.5 -310q0 -86 -18 -176t-61 -181t-104.5 -162t-157 -115.5t-210.5 -44.5q-185 0 -287 111t-102 308q0 86 17.5 175t59.5 181.5t103.5 163.5t157 116.5t212.5 45.5zM655 958q-89 0 -161 -38t-117.5 -97t-76.5 -134.5t-43.5 -147 t-12.5 -138.5q0 -144 66 -222.5t192 -78.5q86 0 157.5 37t117.5 95t77.5 133t45 148t13.5 142q0 142 -66.5 221.5t-191.5 79.5z" />
<glyph horiz-adv-x="612" d="M358 0h-96q-19 0 -16 20l119 738q13 67 24 112q3 21 -8 21q-2 0 -5.5 -1t-8 -2.5l-7.5 -2.5l-165 -80q-19 -6 -25 10l-25 80q-6 16 11 23l348 157q15 6 26 -2l7 -4q10 -14 8 -25l-168 -1028q-3 -16 -19 -16z" />
<glyph horiz-adv-x="1040" d="M256 1014l92 28q139 39 266 39q161 0 254 -64.5t93 -176.5q0 -86 -56 -158t-184 -141l-311 -172q-164 -93 -189 -248h590q19 0 16 -21l-14 -84q-3 -16 -18 -16h-709q-19 0 -16 20l10 64q22 132 88 227.5t188 161.5l316 176q81 47 118 87.5t37 90.5q0 59 -59 95t-158 36 q-125 0 -237 -32l-99 -27q-17 -6 -20 14l-12 80q-2 7 2 13t12 8z" />
<glyph horiz-adv-x="1003" d="M244 1022l82 25q112 34 256 34q160 0 249 -63.5t89 -181.5q0 -90 -51 -159t-154 -106q-35 -11 -2 -22q77 -26 118 -83.5t41 -135.5q0 -154 -124.5 -252t-339.5 -98q-134 0 -271 38l-86 27q-18 6 -8 25l41 82q9 15 25 8l84 -27q102 -31 227 -31q141 0 230 64.5t89 167.5 q0 78 -65.5 120t-186.5 42h-67q-20 0 -17 20l15 84q3 16 18 16h68q141 0 209.5 60.5t68.5 140.5q0 66 -57 103.5t-158 37.5q-118 0 -221 -28l-84 -23q-17 -6 -20 15l-13 79q-3 17 15 21z" />
<glyph horiz-adv-x="1091" d="M954 387l-14 -84q-3 -16 -20 -16h-109l-45 -271q-3 -16 -18 -16h-97q-19 0 -16 20l43 265h-594q-19 0 -16 20l16 94q4 15 12 21q43 37 121 115l457 421q52 52 88 95q10 10 22 10h134q20 0 16 -21l-103 -632h107q20 0 16 -21zM696 408l56 340q14 77 30 133q5 15 -5 14 q-7 -1 -15 -8l-420 -381q-76 -71 -88 -80q-10 -8 -8 -13t12 -5h438z" />
<glyph horiz-adv-x="1054" d="M938 1038l-39 -84q-6 -14 -20 -14h-490l-33 -209q0 -1 -4 -25t-8 -36q-5 -18 -4 -21q0 -7 16 -4l47 6q101 11 152 11q165 0 256.5 -72t91.5 -201q0 -56 -14.5 -111t-50.5 -109.5t-89 -96t-138 -67t-191 -25.5q-137 0 -262 38l-86 25q-19 6 -13 25l41 84q8 13 25 10 l82 -25q119 -35 217 -35q88 0 157 24.5t109 65t60 86t20 93.5q0 84 -60.5 128t-174.5 44q-71 0 -173 -13l-126 -14q-14 -3 -25 8l-8 6q-10 14 -8 25l81 489q3 17 19 17h629q11 0 14.5 -6.5t-0.5 -16.5z" />
<glyph horiz-adv-x="1093" d="M791 1038l-316 -305q-18 -18 -52.5 -49.5t-49.5 -46.5q-8 -9 -5.5 -14.5t15.5 -1.5q107 49 223 49q173 0 267 -73.5t94 -207.5q0 -57 -14.5 -112t-51 -109.5t-91 -95.5t-141 -66.5t-194.5 -25.5q-184 0 -282.5 77.5t-98.5 218.5q0 253 244 486l299 291q11 8 22 8h121 q12 0 15.5 -7t-4.5 -16zM487 102q89 0 159 24.5t110 64.5t60 85.5t20 92.5q0 88 -67.5 134t-199.5 46q-90 0 -159 -24t-107.5 -64t-57 -85t-18.5 -93q0 -87 66 -134t194 -47z" />
<glyph horiz-adv-x="1024" d="M1020 1047l2 -5q6 -15 -2 -26q-21 -27 -123 -176l-549 -828q-9 -12 -22 -12h-107q-11 0 -14.5 7t2.5 16l526 792q42 61 80 103q19 22 -12 22h-608q-9 0 -14 6t-3 15l14 83q3 17 19 17h790q15 0 21 -14z" />
<glyph horiz-adv-x="1071" d="M627 1081q168 0 262 -65.5t94 -177.5q0 -197 -225 -267q-20 -6 -19 -14q1 -5 9 -8q87 -28 137.5 -91t50.5 -143q0 -62 -26.5 -119t-81 -106.5t-151 -79.5t-222.5 -30q-184 0 -286.5 70.5t-102.5 191.5q0 104 72 186.5t198 120.5q35 12 8 22q-78 27 -117 78t-39 119 q0 57 25 110.5t75 100t137.5 74.5t201.5 28zM616 958q-147 0 -222 -59.5t-75 -140.5q0 -66 61.5 -101.5t170.5 -35.5q134 0 215.5 52.5t81.5 143.5q0 67 -61.5 104t-170.5 37zM543 502q-143 0 -241.5 -66t-98.5 -172q0 -74 69.5 -118t194.5 -44q153 0 245.5 62.5t92.5 165.5 q0 80 -72.5 126t-189.5 46z" />
<glyph horiz-adv-x="1089" d="M319 23l316 305q18 18 52.5 49.5t49.5 46.5q8 9 5.5 14.5t-15.5 1.5q-107 -49 -223 -49q-173 0 -267 73.5t-94 207.5q0 57 14.5 112t51 109.5t91 95.5t141 66.5t194.5 25.5q184 0 282.5 -78t98.5 -219q0 -124 -57 -242.5t-187 -242.5l-299 -291q-11 -8 -22 -8h-121 q-12 0 -15.5 7t4.5 16zM623 958q-89 0 -159 -24.5t-110 -64.5t-60 -85t-20 -92q0 -88 67.5 -134t199.5 -46q90 0 159 24t107.5 64t57 85t18.5 93q0 87 -66 133.5t-194 46.5z" />
<glyph horiz-adv-x="444" d="M340 1208q51 0 74.5 -29.5t15.5 -80.5q-8 -44 -35.5 -69t-70.5 -25q-51 0 -74 29.5t-14 80.5q6 45 33 69.5t71 24.5zM207 391q51 0 74.5 -29.5t15.5 -80.5q-8 -44 -36 -69.5t-71 -25.5q-51 0 -74 30t-14 81q6 44 33.5 69t71.5 25z" />
<glyph horiz-adv-x="464" d="M354 1210q51 0 74.5 -29.5t15.5 -80.5q-8 -44 -35.5 -69t-70.5 -25q-51 0 -74 29.5t-14 80.5q6 45 33 69.5t71 24.5zM57 0l103 156q8 12 11 18.5t4 13t-4.5 11t-16.5 8.5q-20 6 -32.5 28.5t-12.5 51.5q0 50 29.5 82t88.5 32q39 0 62.5 -23.5t23.5 -62.5q0 -81 -75 -192 l-86 -133q-10 -13 -23 -13h-59q-11 0 -15 7t2 16z" />
<glyph horiz-adv-x="706" d="M735 1563l-14 -86q-3 -17 -19 -17q-74 -5 -124 -46.5t-60 -108.5l-67 -424q-11 -61 -31.5 -97.5t-61.5 -62.5q-29 -17 -29 -22t15 -15q66 -36 47 -164l-67 -420q-12 -67 22 -105.5t109 -43.5q19 0 16 -21l-14 -84q-3 -16 -21 -16q-131 5 -195 79t-42 200l67 419 q9 56 -13.5 85.5t-70.5 29.5h-10q-20 0 -16 21l14 88q3 16 18 16h9q47 0 83.5 33.5t45.5 87.5l67 424q20 124 105 194t221 76q19 0 16 -20z" />
<glyph horiz-adv-x="706" d="M35 -152l14 86q3 17 19 17q74 5 124 46.5t60 108.5l67 424q11 61 31.5 97.5t61.5 62.5q29 17 29 22t-15 15q-66 36 -47 164l67 420q12 67 -22 105.5t-109 43.5q-19 0 -16 21l14 84q3 16 21 16q131 -5 195 -79t42 -199l-67 -420q-9 -56 13.5 -85.5t70.5 -29.5h10 q19 0 16 -20l-14 -89q-3 -16 -18 -16h-9q-47 0 -83.5 -33.5t-45.5 -87.5l-67 -424q-20 -124 -105 -194t-221 -76q-19 0 -16 20z" />
<glyph horiz-adv-x="679" d="M262 -35h160q19 0 16 -20l-14 -86q-3 -17 -18 -17h-271q-19 0 -16 21l276 1687q3 17 19 17h270q20 0 16 -21l-14 -86q-3 -16 -18 -16h-166z" />
<glyph horiz-adv-x="679" d="M311 1464l15 86q3 17 18 17h270q20 0 17 -21l-277 -1687q-3 -17 -18 -17h-270q-20 0 -17 21l14 86q3 16 19 16h166l239 1479h-159q-20 0 -17 20z" />
<glyph horiz-adv-x="645" d="M401 -158h-88q-17 0 -20 17q-76 255 -76 510q0 291 86.5 595.5t259.5 589.5q10 13 23 13h96q12 0 15.5 -7t-1.5 -16q-352 -595 -352 -1171q0 -240 72 -510q3 -9 -1.5 -15t-13.5 -6z" />
<glyph horiz-adv-x="688" d="M350 1567h88q18 0 21 -17q76 -255 76 -510q0 -290 -87 -595t-260 -590q-10 -13 -22 -13h-96q-12 0 -16 7t1 16q353 597 353 1171q0 240 -72 510q-3 9 1 15t13 6z" />
<glyph horiz-adv-x="382" d="M139 -438h-71q-18 0 -21 14q-69 208 -31 467q46 256 183 471q9 12 22 12h68q12 0 15.5 -6.5t-1.5 -15.5q-69 -116 -114 -223.5t-66 -237.5q-36 -215 31 -461q3 -9 -1.5 -14.5t-13.5 -5.5z" />
<glyph horiz-adv-x="382" d="M100 524h72q18 0 21 -14q69 -206 30 -467q-46 -258 -182 -471q-9 -12 -23 -12h-67q-12 0 -15.5 6.5t1.5 15.5q69 116 114 223.5t66 237.5q36 215 -31 461q-3 9 1 14.5t13 5.5z" />
<glyph horiz-adv-x="382" d="M342 813h-72q-17 0 -20 14q-69 208 -31 467q46 258 182 471q10 13 23 13h68q12 0 15.5 -7t-1.5 -16q-69 -116 -114 -223.5t-66 -237.5q-36 -216 30 -460q3 -9 -1 -15t-13 -6z" />
<glyph horiz-adv-x="382" d="M303 1778h72q17 0 20 -15q69 -208 31 -467q-46 -258 -182 -471q-9 -12 -23 -12h-67q-12 0 -16 7t1 16q69 116 114 223t66 237q36 217 -30 461q-3 9 1 15t13 6z" />
<glyph d="M1016 1563l-15 -86q-3 -17 -18 -17q-74 -5 -124 -46.5t-60 -108.5l-68 -424q-11 -61 -31.5 -97.5t-60.5 -62.5q-29 -17 -29 -22t15 -15q66 -36 47 -164l-68 -420q-12 -67 22 -105.5t109 -43.5q20 0 17 -21l-15 -84q-3 -16 -20 -16q-131 5 -195.5 79.5t-42.5 199.5l68 419 q9 56 -13.5 85.5t-70.5 29.5h-10q-9 0 -14 6t-3 15l15 88q3 16 18 16h8q47 0 83.5 33.5t45.5 87.5l68 424q20 124 105 194t220 76q20 0 17 -20z" />
<glyph d="M295 -152l14 86q3 17 19 17q74 5 124 46.5t60 108.5l68 424q11 61 31.5 97.5t60.5 62.5q29 17 29 22t-15 15q-66 36 -47 164l68 420q12 67 -22.5 105.5t-109.5 43.5q-19 0 -16 21l14 84q3 16 21 16q131 -5 195 -79t42 -199l-67 -420q-9 -56 13.5 -85.5t70.5 -29.5h10 q19 0 16 -20l-14 -89q-3 -16 -18 -16h-8q-47 0 -83.5 -33.5t-45.5 -87.5l-68 -424q-20 -124 -105 -194t-221 -76q-19 0 -16 20z" />
<glyph d="M506 -35h160q19 0 16 -20l-14 -86q-3 -17 -19 -17h-270q-9 0 -14 6t-3 15l277 1687q3 17 18 17h271q20 0 16 -21l-14 -86q-3 -16 -19 -16h-166z" />
<glyph d="M635 1464l14 86q3 17 19 17h270q20 0 16 -21l-276 -1687q-3 -17 -19 -17h-270q-19 0 -16 21l14 86q3 16 19 16h165l240 1479h-160q-19 0 -16 20z" />
<glyph d="M649 -158h-88q-17 0 -20 17q-76 255 -76 510q0 291 86.5 595.5t259.5 589.5q10 13 23 13h96q12 0 15.5 -7t-1.5 -16q-352 -595 -352 -1171q0 -240 72 -510q3 -9 -1.5 -15t-13.5 -6z" />
<glyph d="M614 1567h88q18 0 21 -17q76 -255 76 -510q0 -291 -86.5 -595.5t-259.5 -589.5q-10 -13 -23 -13h-96q-12 0 -16 7t1 16q353 597 353 1171q0 240 -72 510q-3 9 1 15t13 6z" />
<glyph horiz-adv-x="1615" d="M1495 764l-14 -84q-3 -16 -21 -16h-1245q-19 0 -16 20l14 84q3 16 18 16h1248q19 0 16 -20z" />
<glyph horiz-adv-x="1376" d="M1255 764l-14 -84q-3 -16 -18 -16h-1008q-19 0 -16 20l14 84q3 16 18 16h1008q19 0 16 -20z" />
<glyph horiz-adv-x="901" d="M780 764l-14 -84q-3 -16 -21 -16h-530q-19 0 -16 20l14 84q3 16 18 16h533q19 0 16 -20z" />
<glyph horiz-adv-x="632" d="M47 96h410q19 0 16 -20l-10 -68q-3 -16 -19 -16h-409q-20 0 -17 20l11 68q3 16 18 16z" />
<glyph horiz-adv-x="632" d="M250 1348h409q9 0 14 -6t3 -15l-10 -67q-3 -17 -19 -17h-409q-20 0 -17 21l10 67q3 17 19 17z" />
<glyph d="M236 774h872q19 0 16 -20l-16 -84q-3 -17 -18 -17h-871q-19 0 -16 21l14 84q3 16 19 16z" />
<glyph horiz-adv-x="1101" d="M342 723l215 -344q6 -9 2.5 -16t-14.5 -7h-107q-12 0 -22 13l-207 325q-6 12 -6 23v14q0 12 8 23l313 327q11 11 25 11h113q12 0 14.5 -7t-6.5 -16zM692 723l215 -344q6 -9 2.5 -16t-14.5 -7h-107q-12 0 -22 13l-207 325q-6 12 -6 23v14q0 12 8 23l313 327q11 11 25 11 h113q12 0 14.5 -7t-6.5 -16z" />
<glyph horiz-adv-x="1101" d="M283 1094h106q13 0 23 -13l206 -325q7 -14 7 -23v-14q0 -11 -9 -23l-313 -327q-11 -11 -24 -11h-113q-12 0 -14.5 7t6.5 16l327 346l-215 344q-6 9 -2 16t15 7zM633 1094h106q13 0 23 -13l207 -325q6 -12 6 -23v-14q0 -12 -8 -23l-314 -327q-11 -11 -24 -11h-113 q-12 0 -14.5 7t6.5 16l328 346l-215 344q-6 9 -2.5 16t14.5 7z" />
<glyph horiz-adv-x="751" d="M342 723l215 -344q6 -9 2.5 -16t-14.5 -7h-107q-12 0 -22 13l-207 325q-6 12 -6 23v14q0 12 8 23l313 327q11 11 25 11h113q12 0 14.5 -7t-6.5 -16z" />
<glyph horiz-adv-x="751" d="M285 1094h106q13 0 23 -13l207 -325q6 -12 6 -23v-14q0 -11 -9 -23l-313 -327q-11 -11 -24 -11h-113q-12 0 -14.5 7t6.5 16l327 346l-215 344q-6 9 -2 16t15 7z" />
<glyph horiz-adv-x="976" d="M330 1249l463 -1431q3 -9 -2 -15t-15 -6h-92q-17 0 -20 15l-465 1431q-3 9 1.5 15t14.5 6h94q18 0 21 -15z" />
<glyph horiz-adv-x="712" d="M694 1255l-12 -81q-3 -17 -18 -17q-76 -4 -125 -41t-58 -94l-55 -336q-8 -55 -28 -90.5t-60 -54.5q-23 -8 -25.5 -14t13.5 -15q69 -28 49 -150l-53 -329q-9 -58 25.5 -91t107.5 -38q21 0 18 -19l-12 -84q-3 -16 -21 -16q-134 5 -199.5 72.5t-45.5 183.5l53 330 q7 48 -16 73t-70 25h-12q-20 0 -17 20l17 84q3 17 18 17h8q47 0 82.5 29t42.5 77l53 334q19 113 103.5 177t218.5 69q9 0 14 -6t4 -15z" />
<glyph horiz-adv-x="712" d="M33 -195l12 82q3 17 18 17q76 4 125 41t58 94l55 336q8 55 28 90.5t60 54.5q23 8 25.5 14t-13.5 15q-69 28 -49 149l54 330q9 58 -26 91t-108 38q-21 0 -18 19l12 84q3 16 21 16q134 -5 199.5 -72.5t45.5 -183.5l-53 -330q-7 -48 16 -73t70 -25h13q20 0 16 -21l-16 -84 q-3 -16 -19 -16h-8q-47 0 -82.5 -29t-42.5 -77l-53 -334q-19 -113 -103.5 -177t-218.5 -69q-21 0 -18 20z" />
<glyph horiz-adv-x="622" d="M195 -84h159q19 0 19 -20l-15 -84q-3 -17 -18 -17h-272q-20 0 -17 21l234 1433q3 17 18 17h270q9 0 14 -6t3 -15l-15 -84q-3 -16 -18 -16h-164z" />
<glyph horiz-adv-x="620" d="M440 1145h-159q-19 0 -19 20l14 84q3 17 19 17h272q9 0 14 -6t3 -15l-234 -1433q-3 -17 -18 -17h-271q-19 0 -16 21l14 84q3 16 19 16h164z" />
<glyph horiz-adv-x="442" d="M319 1081q51 0 75 -29.5t16 -80.5q-7 -44 -35.5 -69t-71.5 -25q-51 0 -74 29.5t-14 80.5q6 45 33 69.5t71 24.5zM174 184q51 0 74.5 -29.5t15.5 -80.5q-8 -44 -35.5 -69t-70.5 -25q-51 0 -74 29.5t-14 80.5q6 45 33 69.5t71 24.5z" />
<glyph horiz-adv-x="489" d="M401 1040l-43 -276q-14 -76 -46.5 -232t-43.5 -215q-6 -16 -20 -16h-68q-21 0 -18 21q8 55 26 210t31 232l45 280q3 17 19 17h102q19 0 16 -21zM193 184q83 0 83 -80q0 -53 -30.5 -88.5t-85.5 -35.5q-84 0 -84 77q0 54 30.5 90.5t86.5 36.5z" />
<glyph horiz-adv-x="1267" d="M920 657l-37 -254h211q19 0 16 -20l-12 -80q-3 -16 -19 -16h-213l-41 -277q-3 -16 -18 -16h-86q-19 0 -19 20l41 273h-286l-39 -277q-3 -16 -19 -16h-86q-18 0 -18 20l41 273h-209q-21 0 -18 20l12 80q3 16 18 16h213l37 254h-209q-21 0 -18 19l8 80q3 18 20 18h216 l38 270q3 17 19 17h84q9 0 14 -6t4 -15l-39 -266h287l39 270q3 17 18 17h86q19 0 19 -21l-39 -266h209q21 0 18 -20l-10 -80q-3 -17 -18 -17h-215zM797 657h-287l-37 -254h287z" />
<glyph horiz-adv-x="643" d="M356 -205h-92q-16 0 -22 15q-125 341 -64 731q63 377 297 712q10 13 23 13h96q11 0 14.5 -7t-2.5 -16q-239 -362 -299 -719q-23 -126 -18 -254t25.5 -232.5t58.5 -221.5q3 -9 -2 -15t-15 -6z" />
<glyph horiz-adv-x="643" d="M299 1266h92q17 0 23 -15q124 -339 63 -731q-64 -378 -297 -713q-9 -12 -22 -12h-97q-11 0 -14.5 7t2.5 16q239 362 299 719q23 126 18.5 254t-25 233t-58.5 221q-3 9 1.5 15t14.5 6z" />
<glyph horiz-adv-x="985" d="M197 1016l96 28q133 37 272 37q164 0 255 -57.5t91 -159.5q0 -153 -153 -254l-158 -104q-89 -59 -100 -133l-11 -56q-3 -16 -18 -16h-96q-9 0 -14 6t-3 15l11 61q14 115 129 192l166 109q104 66 104 156q0 56 -57.5 87t-161.5 31q-121 0 -236 -32l-98 -27q-17 -3 -20 14 l-13 82q-3 17 15 21zM399 184q41 0 63.5 -21t22.5 -59q0 -55 -29.5 -89.5t-84.5 -34.5q-86 0 -86 81q0 53 30 88t84 35z" />
<glyph horiz-adv-x="641" d="M344 1040l-14 -88q-6 -30 -28.5 -106t-29.5 -103q-3 -16 -20 -16h-57q-20 0 -17 18q5 171 12 207l15 92q3 17 18 17h103q18 0 18 -21zM608 1040l-14 -88q-6 -30 -28.5 -106t-28.5 -103q-3 -16 -21 -16h-57q-20 0 -17 18q5 165 13 207l14 92q3 17 18 17h103q18 0 18 -21z " />
<glyph horiz-adv-x="743" d="M313 1057l-71 -90q-65 -75 -74 -133q-9 -51 12.5 -80t67.5 -29q47 0 76.5 25.5t37.5 70.5q11 62 -38 86q-15 7 -15 16.5t15 26.5l86 107h-97zM614 1057l-71 -90q-65 -75 -74 -133q-9 -51 12.5 -80t67.5 -29q47 0 77 25.5t38 70.5q11 62 -39 86q-15 7 -15 16.5t15 26.5 l86 107h-97z" />
<glyph horiz-adv-x="743" d="M252 752l72 90q63 74 73 133q9 51 -12.5 79.5t-67.5 28.5q-47 0 -76.5 -25.5t-37.5 -70.5q-11 -62 39 -86q15 -7 15 -16.5t-15 -26.5l-86 -106h96zM553 752l72 90q63 74 73 133q9 51 -12.5 79.5t-67.5 28.5q-47 0 -76.5 -25.5t-37.5 -70.5q-11 -62 39 -86q15 -7 15 -16.5 t-15 -26.5l-86 -106h96z" />
<glyph horiz-adv-x="442" d="M377 1057l-72 -90q-65 -75 -74 -133q-9 -51 12.5 -80t67.5 -29q47 0 77 25.5t38 70.5q11 62 -39 86q-15 7 -15 16.5t15 26.5l86 107h-96z" />
<glyph horiz-adv-x="442" d="M252 752l72 90q63 74 73 133q9 51 -12.5 79.5t-67.5 28.5q-47 0 -76.5 -25.5t-37.5 -70.5q-11 -62 39 -86q15 -7 15 -16.5t-15 -26.5l-86 -106h96z" />
<glyph horiz-adv-x="376" d="M344 1040l-14 -88q-6 -30 -28.5 -106t-29.5 -103q-3 -16 -20 -16h-57q-20 0 -17 18q5 171 12 207l15 92q3 17 18 17h103q18 0 18 -21z" />
<glyph horiz-adv-x="464" d="M334 1081q51 0 74.5 -29.5t15.5 -80.5q-7 -44 -35.5 -69t-71.5 -25q-51 0 -74 29.5t-14 80.5q6 44 33.5 69t71.5 25zM20 -217l103 156q8 12 11 18.5t4 13t-4.5 11t-16.5 8.5q-20 6 -32.5 28.5t-12.5 51.5q0 50 29.5 82t88.5 32q39 0 62.5 -23.5t23.5 -62.5 q0 -81 -75 -192l-86 -133q-10 -13 -23 -13h-59q-11 0 -15 7t2 16z" />
<glyph horiz-adv-x="978" d="M918 1264h94q11 0 14.5 -7t-2.5 -16l-926 -1431q-10 -13 -22 -13h-96q-11 0 -15 7t2 16l928 1431q10 13 23 13z" />
<glyph horiz-adv-x="1239" d="M268 1004h873q19 0 16 -21l-16 -84q-3 -16 -19 -16h-870q-19 0 -16 20l14 84q3 17 18 17zM195 561h872q19 0 16 -20l-16 -84q-3 -17 -18 -17h-871q-20 0 -16 21l14 84q3 16 19 16z" />
<glyph horiz-adv-x="1300" d="M307 1212l858 -430q16 -6 13 -22l-13 -72q-3 -14 -14 -20l-1001 -432q-10 -4 -16.5 0.5t-4.5 15.5l18 102q3 15 15 21l837 354l-718 356q-16 7 -13 23l17 94q4 21 22 10z" />
<glyph horiz-adv-x="1298" d="M193 688l12 72q3 14 14 20l1002 432q10 4 16 -0.5t4 -15.5l-18 -102q-3 -15 -15 -21l-837 -354l719 -357q15 -6 12 -22l-17 -94q-4 -21 -22 -10l-858 430q-15 6 -12 22z" />
<glyph horiz-adv-x="1298" d="M1178 762l-17 -86q-3 -17 -18 -17h-402l-73 -440q-3 -16 -19 -16h-90q-19 0 -16 20l71 436h-399q-19 0 -16 21l14 86q3 16 18 16h402l74 441q3 16 18 16h90q19 0 16 -20l-71 -437h401q20 0 17 -20z" />
<glyph horiz-adv-x="655" d="M78 219h409q20 0 17 -20l-10 -68q-3 -16 -19 -16h-409q-20 0 -17 20l10 68q3 16 19 16zM39 -27h410q19 0 16 -20l-10 -68q-3 -16 -19 -16h-409q-20 0 -17 20l10 68q3 16 19 16z" />
<glyph horiz-adv-x="632" d="M473 76l-10 -68q-3 -16 -19 -16h-157l-27 -164q-3 -16 -18 -16h-68q-19 0 -16 20l26 160h-149q-20 0 -17 20l11 68q3 16 18 16h154l28 164q3 16 19 16h65q20 0 17 -20l-25 -160h152q19 0 16 -20z" />
<glyph horiz-adv-x="655" d="M281 1470h409q20 0 17 -20l-11 -68q-3 -16 -18 -16h-410q-19 0 -16 20l10 68q3 16 19 16zM242 1225h409q9 0 14 -6t3 -15l-11 -67q-3 -17 -18 -17h-410q-19 0 -16 21l10 67q3 17 19 17z" />
<glyph horiz-adv-x="632" d="M676 1327l-10 -67q-3 -17 -19 -17h-158l-26 -164q-3 -16 -19 -16h-67q-20 0 -17 20l27 160h-149q-20 0 -17 21l10 67q3 17 19 17h153l29 163q3 17 19 17h65q20 0 16 -21l-24 -159h151q9 0 14 -6t3 -15z" />
<glyph d="M225 592l90 119q88 116 215 116q70 0 127 -51l68 -61q40 -29 74 -29q54 0 96 57l53 70q10 10 23 10h104q12 0 15 -6.5t-3 -15.5l-92 -121q-87 -115 -211 -115q-69 0 -127 49l-71 64q-34 27 -72 27q-32 0 -54 -13t-44 -43l-54 -69q-11 -11 -22 -11h-102q-12 0 -15.5 7 t2.5 16z" />
<glyph d="M1157 983l-14 -84q-3 -16 -21 -16h-870q-19 0 -16 20l14 84q3 17 18 17h873q19 0 16 -21zM1083 541l-14 -84q-3 -17 -20 -17h-871q-20 0 -16 21l14 84q3 16 19 16h872q19 0 16 -20z" />
<glyph d="M276 1192l859 -430q15 -6 12 -23l-12 -71q-3 -15 -15 -21l-1001 -432q-10 -4 -16.5 0.5t-4.5 15.5l19 103q3 14 14 20l838 355l-719 356q-15 6 -12 22l16 95q4 21 22 10z" />
<glyph d="M172 688l12 72q3 14 15 20l1001 432q10 4 16.5 -0.5t4.5 -15.5l-19 -102q-3 -16 -14 -21l-838 -354l719 -357q15 -6 12 -22l-16 -94q-1 -9 -8.5 -12t-14.5 2l-858 430q-15 6 -12 22z" />
<glyph d="M1151 762l-16 -86q-3 -17 -19 -17h-401l-74 -440q-3 -16 -18 -16h-91q-19 0 -16 20l72 436h-400q-20 0 -16 21l14 86q3 16 19 16h401l74 441q3 16 18 16h90q20 0 17 -20l-72 -437h402q19 0 16 -20z" />
<glyph horiz-adv-x="1775" d="M1331 80l-143 -41q-227 -59 -402 -59q-287 0 -452.5 159t-165.5 426q0 77 15 158.5t48 166.5t80.5 163t118.5 147t156.5 120t198.5 80.5t241 29.5q301 0 477 -157.5t176 -412.5q0 -75 -15 -141t-46.5 -122t-88.5 -89t-134 -33q-101 0 -152.5 55.5t-89.5 204.5 q-28 99 -74 141t-127 42q-114 0 -183 -70t-69 -189q0 -78 52 -121.5t147 -43.5q86 0 162 20l29 8q16 3 24 -10q19 -44 47 -66q19 -16 -2 -22l-80 -23q-92 -28 -194 -28q-149 0 -229.5 69.5t-80.5 196.5q0 55 12.5 109t42.5 106.5t73.5 92.5t111 64.5t150.5 24.5 q113 0 182 -51.5t108 -171.5q49 -134 64 -161q29 -51 76 -55q7 -1 14 -1q41 0 71.5 24.5t45.5 64.5t21.5 80t6.5 81q0 211 -146.5 338t-395.5 127q-148 0 -271.5 -48.5t-204.5 -125t-137.5 -174.5t-81 -194t-24.5 -187q0 -221 135.5 -351.5t370.5 -130.5q163 0 372 58 l140 37q19 3 22 -15l13 -80q3 -16 -15 -20z" />
<glyph horiz-adv-x="1181" d="M1055 672l-27 -162q-21 -137 -139 -217l-78 -55l184 -215q9 -9 5.5 -16t-15.5 -7h-123q-14 0 -22 10l-135 156l-121 -84q-134 -98 -297 -98q-117 0 -180.5 53t-63.5 149q0 83 36 149t120 124l157 114q-73 85 -73 183q0 43 11 85.5t39.5 87t71 77.5t111.5 54t156 21 q104 0 215 -32l53 -15q19 -6 10 -24l-37 -82q-6 -16 -22 -13l-53 17q-91 26 -176 26q-123 0 -184.5 -60.5t-61.5 -139.5q0 -64 51 -121l262 -305l94 65q71 53 82 121l8 51h-129q-20 0 -16 21l14 86q3 16 19 16h237q20 0 17 -20zM625 260l-191 221l-166 -121 q-90 -69 -90 -155q0 -46 33 -72.5t92 -26.5q105 0 217 80z" />
<glyph horiz-adv-x="1048" d="M930 1047l69 -21q20 -7 11 -25l-41 -79q-9 -14 -25 -11l-57 19q-96 25 -166 28l-139 -856q82 6 182 33l74 19q17 6 20 -15l8 -84q3 -17 -14 -20l-66 -17q-153 -36 -225 -38l-26 -166q-3 -17 -19 -17h-96q-20 0 -17 21l27 172q-161 29 -245.5 138t-84.5 280q0 67 11 134.5 t34 139t63.5 135t94 116.5t131.5 90t172 50l29 168q3 16 18 16h97q19 0 16 -20l-25 -156q91 -3 189 -34zM451 113l135 831q-98 -23 -170.5 -83t-110.5 -138.5t-55 -155t-17 -153.5q0 -122 55 -199t163 -102z" />
<glyph horiz-adv-x="1058" d="M918 903l-82 25q-69 22 -164 28l-60 -368l93 -25q113 -31 166 -87t53 -146q0 -147 -106 -241.5t-304 -106.5l-27 -168q-3 -17 -18 -17h-98q-9 0 -14 6t-3 15l27 164q-151 9 -264 51l-62 22q-18 6 -8 25l43 80q9 15 25 8l51 -18q107 -38 235 -44l64 396l-74 20 q-109 29 -161 84.5t-52 143.5q0 140 98 228.5t283 100.5l27 162q3 16 18 16h96q20 0 17 -20l-25 -158q109 -6 191 -32l88 -27q17 -5 10 -25l-39 -82q-8 -13 -24 -10zM485 623l54 331q-108 -14 -168 -63t-60 -125q0 -95 131 -131zM594 465l-59 -356q123 10 189.5 64.5 t66.5 143.5q0 96 -136 132z" />
<glyph horiz-adv-x="1138" d="M1020 1047l70 -21q19 -6 10 -25l-41 -79q-9 -14 -25 -11l-57 19q-103 28 -174 28q-162 0 -266 -73.5t-156 -192.5h455q23 0 14 -22l-31 -66q-6 -14 -20 -14h-453q-15 -56 -18 -107h407q24 0 15 -22l-31 -64q-6 -14 -21 -14h-374q9 -135 89.5 -208t229.5 -73q86 0 211 33 l74 19q17 6 20 -15l8 -84q3 -17 -14 -20l-65 -17q-152 -38 -238 -38q-211 0 -326 106.5t-123 296.5h-129q-19 0 -16 20l10 64q3 16 19 16h121q3 45 16 107h-117q-19 0 -16 20l12 66q3 16 19 16h131q29 81 75 148t113 123t163.5 87t213.5 31q109 0 215 -34z" />
<glyph horiz-adv-x="1310" d="M442 1081q103 0 161.5 -49.5t58.5 -138.5q0 -124 -77 -199.5t-218 -75.5q-101 0 -158 49.5t-57 137.5q0 124 75.5 200t214.5 76zM1200 1038l-950 -1028q-8 -10 -23 -10h-92q-12 0 -15 7t5 16l948 1028q7 10 23 10h94q12 0 15 -7t-5 -16zM426 983q-78 0 -123 -43t-45 -119 q0 -49 33.5 -76.5t93.5 -27.5q78 0 124 42.5t46 117.5q0 49 -34.5 77.5t-94.5 28.5zM954 442q103 0 159 -48t56 -134q0 -128 -74.5 -204t-215.5 -76q-103 0 -160 48t-57 134q0 126 75.5 203t216.5 77zM938 344q-80 0 -125 -42.5t-45 -117.5q0 -50 33.5 -78t93.5 -28 q78 0 123 43t45 119q0 50 -32.5 77t-92.5 27z" />
<glyph horiz-adv-x="1075" d="M397 459l-18 -119q-19 -109 -84 -203q-6 -12 -2.5 -17.5t16.5 -4.5q45 6 135 6h449q19 0 16 -21l-16 -84q-3 -16 -19 -16h-745q-14 0 -20 14l-3 6q-9 12 0 25l37 49q79 110 99 228l22 137h-151q-20 0 -17 20l10 66q3 16 19 16h156l30 201q26 150 134.5 234.5t279.5 84.5 q78 0 174 -28l41 -13q19 -6 10 -24l-35 -78q-9 -16 -24 -10l-43 12q-74 18 -135 18q-111 0 -182.5 -54.5t-86.5 -151.5l-30 -191h293q19 0 16 -20l-10 -66q-3 -16 -19 -16h-297z" />
<glyph horiz-adv-x="1173" d="M1169 1040l-346 -393q-76 -93 -94 -119h205q19 0 16 -20l-12 -74q-3 -16 -18 -16h-258q-30 -69 -39 -121h272q18 0 18 -21l-12 -71q-3 -17 -18 -17h-281l-27 -172q-3 -16 -18 -16h-94q-20 0 -17 20l25 168h-270q-9 0 -14 6t-3 15l13 72q3 16 18 16h272q9 66 0 121h-249 q-20 0 -17 20l12 74q3 16 19 16h207q-8 21 -58 119l-219 393q-5 9 -1 16t14 7h108q14 0 23 -12l182 -318q39 -70 72 -182q2 -7 5.5 -9.5t8.5 0t10 9.5q72 115 133 182l287 320q8 10 23 10h112q12 0 15 -7t-5 -16z" />
<glyph horiz-adv-x="487" d="M371 1448h106q12 0 15 -7t-3 -16l-143 -231q-9 -12 -22 -12h-76q-24 0 -15 22l117 230q6 14 21 14z" />
</font>
</defs>
</svg>
