<?xml version="1.0" standalone="no"?>
<!DOCTYPE svg PUBLIC "-//W3C//DTD SVG 1.1//EN" "http://www.w3.org/Graphics/SVG/1.1/DTD/svg11.dtd" >
<svg xmlns="http://www.w3.org/2000/svg" xmlns:xlink="http://www.w3.org/1999/xlink" version="1.1">
<metadata></metadata>
<defs>
<font id="nerissemibold_italic" horiz-adv-x="745" >
<font-face units-per-em="2048" ascent="1546" descent="-502" />
<missing-glyph horiz-adv-x="425" />
<glyph unicode="f&#xed;" horiz-adv-x="1247" d="M293 993l26 150q28 166 129.5 257t258.5 91q50 0 112 -21l39 -14q21 -9 14 -29l-63 -149q-9 -20 -29 -14l-22 8q-30 12 -60 12q-58 0 -100 -43.5t-53 -112.5l-23 -135h649q24 0 21 -24l-160 -949q-3 -20 -24 -20h-185q-23 0 -20 25l129 766h-445l-129 -771 q-3 -20 -24 -20h-184q-24 0 -21 25l129 766h-98q-24 0 -21 24l27 158q3 20 24 20h103zM1356 1442l-180 -266q-12 -15 -29 -15h-137q-12 0 -16.5 7.5t-0.5 19.5l129 264q10 16 27 16h192q14 0 18 -8t-3 -18z" />
<glyph unicode="t&#xed;" horiz-adv-x="1382" d="M1423 1442l-180 -266q-12 -15 -29 -15h-137q-26 0 -16 27l129 264q10 16 27 16h192q13 0 17.5 -8t-3.5 -18zM522 993h717q24 0 21 -24l-160 -949q-3 -20 -25 -20h-184q-24 0 -21 25l129 766h-512l-84 -498q-9 -52 7.5 -80.5t54.5 -28.5q28 0 55 9q23 7 29 -15l41 -137 q7 -20 -12 -29q-72 -35 -146 -35q-146 0 -214.5 83.5t-43.5 232.5l84 498h-98q-24 0 -21 24l27 158q3 20 24 20h103l39 236q3 18 20 24l197 62q12 3 19 -3t5 -18z" />
<glyph unicode="&#x165;j" horiz-adv-x="1316" d="M1196 1487q61 0 94 -32t33 -89q0 -76 -38.5 -118t-106.5 -42q-60 0 -93.5 32t-33.5 89q0 76 39 118t106 42zM817 1204l-16 -28q-12 -15 -29 -15h-102q-12 0 -17.5 7.5t0.5 19.5l17 39q28 56 45 145l12 76q3 20 25 20h131q23 0 20 -24l-12 -64q-10 -78 -74 -176zM522 993 h719q24 0 21 -24l-172 -1020q-23 -129 -90.5 -221.5t-196.5 -153.5l-64 -33q-21 -11 -28 13l-64 151q-9 21 10 31l52 28q131 61 153 201l139 826h-514l-84 -498q-9 -52 7.5 -80.5t54.5 -28.5q28 0 55 9q23 7 29 -15l41 -137q7 -20 -12 -29q-72 -35 -146 -35 q-146 0 -214.5 83.5t-43.5 232.5l84 498h-98q-24 0 -21 24l27 158q3 20 24 20h103l39 236q3 18 20 24l197 62q12 3 19 -3t5 -18z" />
<glyph unicode="&#x165;t" horiz-adv-x="1499" d="M752 1468h131q23 0 20 -24l-12 -64q-10 -78 -74 -176l-16 -28q-12 -15 -29 -15h-102q-12 0 -17.5 7.5t0.5 19.5l17 39q28 56 45 145l12 76q3 20 25 20zM1212 791l-84 -498q-9 -52 7.5 -80.5t54.5 -28.5q28 0 55 9q23 7 29 -15l41 -137q7 -20 -12 -29q-72 -35 -146 -35 q-146 0 -214.5 83.5t-43.5 232.5l84 498h-496l-84 -498q-9 -52 7.5 -80.5t54.5 -28.5q28 0 55 9q23 7 29 -15l41 -137q7 -20 -12 -29q-72 -35 -146 -35q-146 0 -214.5 83.5t-43.5 232.5l84 498h-98q-24 0 -21 24l27 158q3 20 24 20h103l39 236q3 18 20 24l197 62q12 3 19 -3 t5 -18l-51 -301h496l39 236q3 18 20 24l197 62q12 3 19 -3t5 -18l-51 -301h228q23 0 20 -24l-27 -158q-3 -20 -24 -20h-232z" />
<glyph unicode="ffti" horiz-adv-x="2654" d="M1862 993h716q24 0 21 -24l-160 -949q-3 -20 -24 -20h-185q-23 0 -20 25l129 766h-512l-84 -498q-9 -52 7 -80.5t54 -28.5q29 0 56 9q22 6 28 -15l41 -137q7 -20 -12 -29q-72 -35 -145 -35q-146 0 -215 83.5t-44 232.5l84 498h-438l-129 -771q-3 -20 -24 -20h-183 q-23 0 -20 25l129 766h-447l-129 -771q-3 -20 -24 -20h-182q-24 0 -21 25l129 766h-98q-24 0 -21 24l27 158q3 20 24 20h103l24 150q28 166 131.5 257t262.5 91q56 0 123 -21l20 -8q21 -9 12 -28l-69 -148q-9 -21 -31 -12l-4 2q-24 8 -60 8q-61 0 -104.5 -43.5t-54.5 -114.5 l-23 -133h447l24 150q28 167 131 257.5t262 90.5q56 0 123 -21l21 -8q21 -9 12 -28l-70 -148q-9 -21 -30 -12l-4 2q-24 8 -60 8q-61 0 -104.5 -43.5t-54.5 -114.5l-23 -133h438l39 236q3 18 21 24l196 62q12 3 19 -3t6 -18zM2533 1485q61 0 94 -31t33 -88q0 -76 -38.5 -117 t-106.5 -41q-61 0 -94 32t-33 89q0 74 38.5 115t106.5 41z" />
<glyph unicode="ftti" horiz-adv-x="2707" d="M1915 993h717q23 0 20 -24l-160 -949q-3 -20 -24 -20h-184q-24 0 -21 25l129 766h-512l-84 -498q-9 -52 7.5 -80.5t54.5 -28.5q28 0 55 9q23 7 29 -15l40 -137q7 -20 -12 -29q-72 -35 -145 -35q-146 0 -214.5 83.5t-43.5 232.5l84 498h-496l-84 -498q-9 -52 7.5 -80.5 t54.5 -28.5q28 0 55 9q23 7 29 -15l40 -137q7 -20 -12 -29q-72 -35 -145 -35q-146 0 -214.5 83.5t-43.5 232.5l84 498h-441l-129 -771q-3 -20 -24 -20h-182q-24 0 -21 25l129 766h-98q-24 0 -21 24l27 158q3 20 24 20h103l24 150q28 166 131.5 257t262.5 91q56 0 123 -21 l20 -8q21 -9 12 -28l-69 -148q-9 -21 -31 -12l-4 2q-24 8 -60 8q-61 0 -104.5 -43.5t-54.5 -114.5l-23 -133h441l38 236q3 18 21 24l197 62q12 3 19 -3t5 -18l-51 -301h496l38 236q3 18 21 24l197 62q12 3 19 -3t5 -18zM2587 1485q61 0 94 -31t33 -88q0 -76 -39 -117 t-107 -41q-61 0 -94 32t-33 89q0 74 39 115t107 41z" />
<glyph unicode="ffb" horiz-adv-x="2580" d="M1946 1444l-52 -305q-22 -136 -71 -221q-8 -19 -0.5 -26t24.5 3q126 119 281 119q180 0 276.5 -105t96.5 -293q0 -71 -13 -142t-40 -144t-72.5 -135.5t-106 -112t-146 -77.5t-186.5 -28q-147 0 -276 58l-152 67q-17 8 -14 29l191 1135h-310q-61 0 -105.5 -42t-56.5 -114 l-20 -117h227q24 0 21 -24l-27 -158q-3 -20 -24 -20h-232l-129 -771q-3 -20 -24 -20h-183q-23 0 -20 25l129 766h-447l-129 -771q-3 -20 -24 -20h-182q-24 0 -21 25l129 766h-98q-24 0 -21 24l27 158q3 20 24 20h103l24 150q28 166 131.5 257t262.5 91q56 0 123 -21l20 -8 q21 -9 12 -28l-69 -148q-9 -21 -31 -12l-4 2q-24 8 -60 8q-61 0 -104.5 -43.5t-54.5 -114.5l-23 -133h447l22 133q27 168 133 255t275 87h528q24 0 21 -24zM1741 238l49 -21q74 -33 154 -33q87 0 154 42t104 107.5t55 135t18 135.5q0 99 -46.5 152t-135.5 53 q-123 0 -206.5 -97.5t-110.5 -260.5z" />
<glyph unicode="ffh" horiz-adv-x="2560" d="M967 993l22 133q27 168 133 255t275 87h301q23 0 20 -24l-26 -158q-3 -20 -25 -20h-291q-61 0 -105.5 -42t-56.5 -114l-20 -117h227q24 0 21 -24l-27 -158q-3 -20 -24 -20h-232l-129 -771q-3 -20 -24 -20h-183q-23 0 -20 25l129 766h-447l-129 -771q-3 -20 -24 -20h-182 q-24 0 -21 25l129 766h-98q-24 0 -21 24l27 158q3 20 24 20h103l24 150q28 166 131.5 257t262.5 91q56 0 123 -21l20 -8q21 -9 12 -28l-69 -148q-9 -21 -31 -12l-4 2q-24 8 -60 8q-61 0 -104.5 -43.5t-54.5 -114.5l-23 -133h447zM1948 1444l-52 -305q-22 -133 -73 -230 q-6 -14 2.5 -21.5t23.5 5.5q127 121 283 121q180 0 267.5 -107t56.5 -289l-103 -598q-3 -20 -24 -20h-185q-23 0 -20 25l98 585q17 97 -17 148t-112 51q-125 0 -202.5 -87.5t-102.5 -229.5l-80 -472q-3 -20 -25 -20h-184q-23 0 -20 25l239 1423q3 20 25 20h184q24 0 21 -24z " />
<glyph unicode="ffi" horiz-adv-x="1929" d="M1196 993h651q24 0 21 -24l-160 -949q-3 -20 -25 -20h-184q-23 0 -20 25l129 766h-447l-129 -771q-3 -20 -24 -20h-185q-23 0 -20 25l129 766h-447l-129 -771q-3 -20 -24 -20h-182q-24 0 -21 25l129 766h-98q-24 0 -21 24l27 158q3 20 24 20h103l24 150q28 166 131.5 257 t262.5 91q56 0 123 -21l20 -8q21 -9 12 -28l-69 -148q-9 -21 -31 -12l-4 2q-24 8 -60 8q-61 0 -104.5 -43.5t-54.5 -114.5l-23 -133h447l26 150q28 166 130 257t259 91q44 0 115 -23l37 -12q21 -9 12 -31l-65 -147q-9 -21 -29 -12l-18 6q-30 12 -60 12q-58 0 -100.5 -43 t-54.5 -113zM1817 1487q69 0 100.5 -40.5t19.5 -109.5q-9 -60 -45 -92.5t-94 -32.5q-67 0 -99 41.5t-20 110.5q9 60 45 91.5t93 31.5z" />
<glyph unicode="ffj" horiz-adv-x="1929" d="M1196 993h651q24 0 21 -24l-172 -1018q-23 -130 -90.5 -223t-196.5 -154l-63 -33q-9 -5 -17.5 -1t-11.5 14l-62 151q-9 21 11 31l51 28q129 64 153 199l138 828h-447l-129 -771q-3 -20 -24 -20h-185q-23 0 -20 25l129 766h-447l-129 -771q-3 -20 -24 -20h-182 q-24 0 -21 25l129 766h-98q-24 0 -21 24l27 158q3 20 24 20h103l24 150q28 166 131.5 257t262.5 91q56 0 123 -21l20 -8q21 -9 12 -28l-69 -148q-9 -21 -31 -12l-4 2q-24 8 -60 8q-61 0 -104.5 -43.5t-54.5 -114.5l-23 -133h447l26 150q28 165 129.5 256.5t257.5 91.5 q46 0 113 -21l41 -14q22 -9 12 -29l-65 -149q-9 -21 -29 -12l-20 6q-30 12 -60 12q-58 0 -99.5 -43t-53.5 -113zM1817 1487q69 0 100.5 -40.5t19.5 -109.5q-9 -60 -45 -92.5t-94 -32.5q-67 0 -99 41.5t-20 110.5q9 60 45 91.5t93 31.5z" />
<glyph unicode="ffk" horiz-adv-x="2537" d="M2503 967l-230 -291q-95 -118 -211 -158q-25 -9 -4 -20q99 -42 160 -164l135 -307q6 -12 1 -19.5t-17 -7.5h-191q-16 0 -26 16l-107 226q-36 75 -84 117t-127 42h-30l-62 -381q-3 -20 -24 -20h-185q-23 0 -20 25l153 931l54 310h-312q-61 0 -105.5 -42t-56.5 -114 l-20 -117h227q24 0 21 -24l-27 -158q-3 -20 -24 -20h-232l-129 -771q-3 -20 -24 -20h-183q-23 0 -20 25l129 766h-447l-129 -771q-3 -20 -24 -20h-182q-24 0 -21 25l129 766h-98q-24 0 -21 24l27 158q3 20 24 20h103l24 150q28 166 131.5 257t262.5 91q56 0 123 -21l20 -8 q21 -9 12 -28l-69 -148q-9 -21 -31 -12l-4 2q-24 8 -60 8q-61 0 -104.5 -43.5t-54.5 -114.5l-23 -133h447l22 133q27 168 133 255t275 87h530q24 0 21 -24l-76 -451l-64 -389h29q61 0 118.5 45.5t121.5 122.5l170 209q9 12 26 12h217q14 0 18 -7.5t-5 -18.5z" />
<glyph unicode="ffl" horiz-adv-x="2007" d="M967 993l22 133q27 168 133 255t275 87h301q23 0 20 -24l-26 -158q-3 -20 -25 -20h-291q-61 0 -105.5 -42t-56.5 -114l-20 -117h227q24 0 21 -24l-27 -158q-3 -20 -24 -20h-232l-129 -771q-3 -20 -24 -20h-183q-23 0 -20 25l129 766h-447l-129 -771q-3 -20 -24 -20h-182 q-24 0 -21 25l129 766h-98q-24 0 -21 24l27 158q3 20 24 20h103l24 150q28 166 131.5 257t262.5 91q56 0 123 -21l20 -8q21 -9 12 -28l-69 -148q-9 -21 -31 -12l-4 2q-24 8 -60 8q-61 0 -104.5 -43.5t-54.5 -114.5l-23 -133h447zM1948 1444l-203 -1206q-10 -54 29 -54 q14 0 18 2q24 0 27 -18l34 -143q3 -23 -14 -29q-49 -19 -98 -19q-127 0 -187 70t-38 193l202 1208q3 20 25 20h184q24 0 21 -24z" />
<glyph unicode="fft" horiz-adv-x="2115" d="M1829 791l-84 -498q-9 -52 7 -80.5t54 -28.5q29 0 56 9q22 6 28 -15l41 -137q7 -20 -12 -29q-72 -35 -145 -35q-146 0 -214.5 83.5t-43.5 232.5l83 498h-440l-129 -771q-3 -20 -24 -20h-183q-23 0 -20 25l129 766h-447l-129 -771q-3 -20 -24 -20h-182q-24 0 -21 25 l129 766h-98q-24 0 -21 24l27 158q3 20 24 20h103l24 150q28 166 131.5 257t262.5 91q56 0 123 -21l20 -8q21 -9 12 -28l-69 -148q-9 -21 -31 -12l-4 2q-24 8 -60 8q-61 0 -104.5 -43.5t-54.5 -114.5l-23 -133h447l24 150q28 167 131 257.5t262 90.5q56 0 123 -21l21 -8 q21 -9 12 -28l-70 -148q-9 -21 -30 -12l-4 2q-24 8 -60 8q-61 0 -104.5 -43.5t-54.5 -114.5l-23 -133h440l39 236q3 18 21 24l196 62q12 3 19 -3t6 -18l-51 -301h227q23 0 20 -24l-26 -158q-3 -20 -25 -20h-231z" />
<glyph unicode="fti" horiz-adv-x="1982" d="M1190 993h717q23 0 20 -24l-160 -949q-3 -20 -24 -20h-184q-24 0 -21 25l129 766h-512l-84 -498q-9 -52 7.5 -80.5t54.5 -28.5q28 0 55 9q23 7 29 -15l40 -137q7 -20 -12 -29q-72 -35 -145 -35q-146 0 -214.5 83.5t-43.5 232.5l84 498h-441l-129 -771q-3 -20 -24 -20 h-182q-24 0 -21 25l129 766h-98q-24 0 -21 24l27 158q3 20 24 20h103l24 150q28 166 131.5 257t262.5 91q56 0 123 -21l20 -8q21 -9 12 -28l-69 -148q-9 -21 -31 -12l-4 2q-24 8 -60 8q-61 0 -104.5 -43.5t-54.5 -114.5l-23 -133h441l38 236q3 18 21 24l197 62q12 3 19 -3 t5 -18zM1862 1485q61 0 94 -31t33 -88q0 -76 -39 -117t-107 -41q-61 0 -94 32t-33 89q0 74 39 115t107 41z" />
<glyph unicode="ftt" horiz-adv-x="2166" d="M1880 791l-84 -498q-9 -52 7.5 -80.5t54.5 -28.5q28 0 55 9q23 7 29 -15l40 -137q7 -20 -12 -29q-72 -35 -145 -35q-146 0 -214.5 83.5t-43.5 232.5l84 498h-496l-84 -498q-9 -52 7.5 -80.5t54.5 -28.5q28 0 55 9q23 7 29 -15l40 -137q7 -20 -12 -29q-72 -35 -145 -35 q-146 0 -214.5 83.5t-43.5 232.5l84 498h-441l-129 -771q-3 -20 -24 -20h-182q-24 0 -21 25l129 766h-98q-24 0 -21 24l27 158q3 20 24 20h103l24 150q28 166 131.5 257t262.5 91q56 0 123 -21l20 -8q21 -9 12 -28l-69 -148q-9 -21 -31 -12l-4 2q-24 8 -60 8 q-61 0 -104.5 -43.5t-54.5 -114.5l-23 -133h441l38 236q3 18 21 24l197 62q12 3 19 -3t5 -18l-51 -301h496l38 236q3 18 21 24l197 62q12 3 19 -3t5 -18l-51 -301h227q24 0 21 -24l-27 -158q-3 -20 -25 -20h-231z" />
<glyph unicode="tti" horiz-adv-x="2039" d="M1919 1485q61 0 94 -31t33 -88q0 -76 -38.5 -117t-106.5 -41q-61 0 -94 32t-33 89q0 74 38.5 115t106.5 41zM1247 993h717q24 0 21 -24l-160 -949q-3 -20 -25 -20h-184q-24 0 -21 25l129 766h-512l-84 -498q-9 -52 7.5 -80.5t54.5 -28.5q28 0 55 9q23 7 29 -15l41 -137 q7 -20 -12 -29q-72 -35 -146 -35q-146 0 -214.5 83.5t-43.5 232.5l84 498h-496l-84 -498q-9 -52 7.5 -80.5t54.5 -28.5q28 0 55 9q23 7 29 -15l41 -137q7 -20 -12 -29q-72 -35 -146 -35q-146 0 -214.5 83.5t-43.5 232.5l84 498h-98q-24 0 -21 24l27 158q3 20 24 20h103 l39 236q3 18 20 24l197 62q12 3 19 -3t5 -18l-51 -301h496l39 236q3 18 20 24l197 62q12 3 19 -3t5 -18z" />
<glyph unicode="ttj" horiz-adv-x="2041" d="M1921 1487q61 0 94 -32t33 -89q0 -76 -38.5 -118t-106.5 -42q-60 0 -93.5 32t-33.5 89q0 76 39 118t106 42zM1247 993h719q24 0 21 -24l-172 -1020q-23 -129 -90.5 -221.5t-196.5 -153.5l-64 -33q-21 -11 -28 13l-64 151q-9 21 10 31l52 28q131 61 153 201l139 826h-514 l-84 -498q-9 -52 7.5 -80.5t54.5 -28.5q28 0 55 9q23 7 29 -15l41 -137q7 -20 -12 -29q-72 -35 -146 -35q-146 0 -214.5 83.5t-43.5 232.5l84 498h-496l-84 -498q-9 -52 7.5 -80.5t54.5 -28.5q28 0 55 9q23 7 29 -15l41 -137q7 -20 -12 -29q-72 -35 -146 -35 q-146 0 -214.5 83.5t-43.5 232.5l84 498h-98q-24 0 -21 24l27 158q3 20 24 20h103l39 236q3 18 20 24l197 62q12 3 19 -3t5 -18l-51 -301h496l39 236q3 18 20 24l197 62q12 3 19 -3t5 -18z" />
<glyph unicode="fb" horiz-adv-x="1906" d="M1044 1444l-26 -158q-3 -20 -25 -20h-291q-61 0 -105 -42t-56 -114l-21 -117h228q23 0 20 -24l-27 -158q-3 -20 -24 -20h-232l-129 -771q-3 -20 -24 -20h-182q-24 0 -21 25l129 766h-98q-24 0 -21 24l27 158q3 20 24 20h103l22 133q27 168 133 255t275 87h301 q23 0 20 -24zM1274 1444l-51 -305q-22 -134 -72 -221q-8 -19 0 -26t25 3q126 119 280 119q180 0 276.5 -105t96.5 -293q0 -60 -9 -121t-29.5 -124.5t-51 -120.5t-76.5 -107t-102.5 -87t-132 -58t-162.5 -21q-148 0 -277 58l-151 67q-18 9 -15 29l221 1317q3 20 25 20h184 q24 0 21 -24zM1069 238l49 -21q74 -33 154 -33q87 0 154 42t104 107.5t55.5 135t18.5 135.5q0 99 -47 152t-136 53q-123 0 -206.5 -97.5t-110.5 -260.5z" />
<glyph unicode="ff" horiz-adv-x="1439" d="M1532 1464l37 -12q21 -9 12 -31l-72 -147q-9 -19 -30 -10l-25 8q-40 12 -68 12q-64 0 -110.5 -46t-58.5 -120l-21 -125h227q24 0 21 -24l-27 -158q-3 -20 -24 -20h-232l-129 -771q-3 -20 -24 -20h-185q-23 0 -20 25l129 766h-447l-129 -771q-3 -20 -24 -20h-182 q-24 0 -21 25l129 766h-98q-24 0 -21 24l27 158q3 20 24 20h103l24 150q28 166 131.5 257t262.5 91q56 0 123 -21l20 -8q21 -9 12 -28l-69 -148q-9 -21 -31 -12l-4 2q-24 8 -60 8q-61 0 -104.5 -43.5t-54.5 -114.5l-23 -133h447l22 142q29 170 136 263t270 93q57 0 137 -27z " />
<glyph unicode="fh" horiz-adv-x="1886" d="M1044 1444l-26 -158q-3 -20 -25 -20h-291q-61 0 -105 -42t-56 -114l-21 -117h228q23 0 20 -24l-27 -158q-3 -20 -24 -20h-232l-129 -771q-3 -20 -24 -20h-182q-24 0 -21 25l129 766h-98q-24 0 -21 24l27 158q3 20 24 20h103l22 133q27 168 133 255t275 87h301 q23 0 20 -24zM1274 1444l-51 -305q-21 -130 -74 -230q-6 -14 3 -21.5t24 5.5q127 121 282 121q180 0 267.5 -107t56.5 -289l-103 -598q-3 -20 -24 -20h-185q-23 0 -20 25l98 585q17 97 -17 148t-112 51q-125 0 -202.5 -87.5t-102.5 -229.5l-80 -472q-3 -20 -24 -20h-185 q-23 0 -20 25l239 1423q3 20 25 20h184q24 0 21 -24z" />
<glyph unicode="fi" horiz-adv-x="1255" d="M293 993l26 150q28 165 130.5 256.5t259.5 91.5q43 0 114 -23l37 -12q21 -9 12 -31l-65 -147q-9 -21 -29 -12l-18 6q-30 12 -60 12q-58 0 -100.5 -43t-54.5 -113l-23 -135h652q23 0 20 -24l-160 -949q-3 -20 -24 -20h-185q-23 0 -20 25l129 766h-447l-129 -771 q-3 -20 -24 -20h-184q-24 0 -21 25l129 766h-98q-24 0 -21 24l27 158q3 20 24 20h103zM1143 1487q69 0 101 -40.5t20 -109.5q-9 -60 -45.5 -92.5t-94.5 -32.5q-67 0 -98.5 41.5t-19.5 110.5q9 60 44.5 91.5t92.5 31.5z" />
<glyph unicode="fj" horiz-adv-x="1255" d="M293 993l26 150q28 165 130 256.5t258 91.5q45 0 112 -21l41 -14q22 -9 12 -29l-65 -149q-9 -21 -29 -12l-20 6q-30 12 -60 12q-58 0 -99.5 -43t-53.5 -113l-23 -135h652q23 0 20 -24l-172 -1018q-23 -130 -90.5 -223t-196.5 -154l-63 -33q-9 -5 -17.5 -1t-11.5 14 l-61 151q-9 21 10 31l51 28q130 65 154 199l137 828h-447l-129 -771q-3 -20 -24 -20h-184q-24 0 -21 25l129 766h-98q-24 0 -21 24l27 158q3 20 24 20h103zM1143 1487q69 0 101 -40.5t20 -109.5q-9 -60 -45.5 -92.5t-94.5 -32.5q-67 0 -98.5 41.5t-19.5 110.5 q9 60 44.5 91.5t92.5 31.5z" />
<glyph unicode="fk" horiz-adv-x="1863" d="M1829 967l-230 -291q-96 -118 -210 -158q-26 -10 -5 -20q99 -42 160 -164l135 -307q6 -12 1 -19.5t-17 -7.5h-190q-17 0 -27 16l-107 226q-36 75 -84 117t-127 42h-30l-62 -381q-3 -20 -24 -20h-185q-23 0 -20 25l154 931l53 310h-312q-61 0 -105 -42t-56 -114l-21 -117 h228q23 0 20 -24l-27 -158q-3 -20 -24 -20h-232l-129 -771q-3 -20 -24 -20h-182q-24 0 -21 25l129 766h-98q-24 0 -21 24l27 158q3 20 24 20h103l22 133q27 168 133 255t275 87h530q24 0 21 -24l-76 -451l-63 -389h28q61 0 118.5 45.5t121.5 122.5l170 209q9 12 26 12h218 q14 0 17.5 -7.5t-5.5 -18.5z" />
<glyph unicode="fl" horiz-adv-x="1333" d="M1044 1444l-26 -158q-3 -20 -25 -20h-291q-61 0 -105 -42t-56 -114l-21 -117h228q23 0 20 -24l-27 -158q-3 -20 -24 -20h-232l-129 -771q-3 -20 -24 -20h-182q-24 0 -21 25l129 766h-98q-24 0 -21 24l27 158q3 20 24 20h103l22 133q27 168 133 255t275 87h301 q23 0 20 -24zM1274 1444l-203 -1206q-10 -54 29 -54q14 0 18 2q24 0 27 -18l35 -143q3 -23 -15 -29q-49 -19 -98 -19q-127 0 -187 70t-38 193l202 1208q3 20 25 20h184q24 0 21 -24z" />
<glyph unicode="ft" horiz-adv-x="1441" d="M1155 791l-84 -498q-9 -52 7.5 -80.5t54.5 -28.5q28 0 55 9q23 7 29 -15l40 -137q7 -20 -12 -29q-72 -35 -145 -35q-146 0 -214.5 83.5t-43.5 232.5l84 498h-441l-129 -771q-3 -20 -24 -20h-182q-24 0 -21 25l129 766h-98q-24 0 -21 24l27 158q3 20 24 20h103l24 150 q28 166 131.5 257t262.5 91q56 0 123 -21l20 -8q21 -9 12 -28l-69 -148q-9 -21 -31 -12l-4 2q-24 8 -60 8q-61 0 -104.5 -43.5t-54.5 -114.5l-23 -133h441l38 236q3 18 21 24l197 62q12 3 19 -3t5 -18l-51 -301h227q24 0 21 -24l-27 -158q-3 -20 -25 -20h-231z" />
<glyph unicode="ti" horiz-adv-x="1314" d="M1194 1485q61 0 94 -31t33 -88q0 -76 -38.5 -117t-106.5 -41q-61 0 -94 32t-33 89q0 74 38.5 115t106.5 41zM522 993h717q24 0 21 -24l-160 -949q-3 -20 -25 -20h-184q-24 0 -21 25l129 766h-512l-84 -498q-9 -52 7.5 -80.5t54.5 -28.5q28 0 55 9q23 7 29 -15l41 -137 q7 -20 -12 -29q-72 -35 -146 -35q-146 0 -214.5 83.5t-43.5 232.5l84 498h-98q-24 0 -21 24l27 158q3 20 24 20h103l39 236q3 18 20 24l197 62q12 3 19 -3t5 -18z" />
<glyph unicode="tj" horiz-adv-x="1316" d="M1196 1487q61 0 94 -32t33 -89q0 -76 -38.5 -118t-106.5 -42q-60 0 -93.5 32t-33.5 89q0 76 39 118t106 42zM522 993h719q24 0 21 -24l-172 -1020q-23 -129 -90.5 -221.5t-196.5 -153.5l-64 -33q-21 -11 -28 13l-64 151q-9 21 10 31l52 28q131 61 153 201l139 826h-514 l-84 -498q-9 -52 7.5 -80.5t54.5 -28.5q28 0 55 9q23 7 29 -15l41 -137q7 -20 -12 -29q-72 -35 -146 -35q-146 0 -214.5 83.5t-43.5 232.5l84 498h-98q-24 0 -21 24l27 158q3 20 24 20h103l39 236q3 18 20 24l197 62q12 3 19 -3t5 -18z" />
<glyph unicode="tt" horiz-adv-x="1499" d="M1212 791l-84 -498q-9 -52 7.5 -80.5t54.5 -28.5q28 0 55 9q23 7 29 -15l41 -137q7 -20 -12 -29q-72 -35 -146 -35q-146 0 -214.5 83.5t-43.5 232.5l84 498h-496l-84 -498q-9 -52 7.5 -80.5t54.5 -28.5q28 0 55 9q23 7 29 -15l41 -137q7 -20 -12 -29q-72 -35 -146 -35 q-146 0 -214.5 83.5t-43.5 232.5l84 498h-98q-24 0 -21 24l27 158q3 20 24 20h103l39 236q3 18 20 24l197 62q12 3 19 -3t5 -18l-51 -301h496l39 236q3 18 20 24l197 62q12 3 19 -3t5 -18l-51 -301h228q23 0 20 -24l-27 -158q-3 -20 -24 -20h-232z" />
<glyph horiz-adv-x="0" />
<glyph unicode="&#xd;" horiz-adv-x="901" />
<glyph unicode=" "  horiz-adv-x="425" />
<glyph unicode="&#x09;" horiz-adv-x="425" />
<glyph unicode="&#xa0;" horiz-adv-x="425" />
<glyph unicode="!" horiz-adv-x="544" d="M553 1409l-82 -489q-13 -82 -63 -266.5t-62 -241.5q-3 -21 -24 -21h-121q-24 0 -21 25q7 57 21.5 240.5t27.5 263.5l82 493q3 21 25 21h196q24 0 21 -25zM229 272q73 0 108 -43.5t23 -117.5q-12 -64 -51.5 -99t-101.5 -35q-72 0 -106.5 44t-22.5 118q12 64 51 98.5 t100 34.5z" />
<glyph unicode="&#x22;" horiz-adv-x="761" d="M477 1444l-22 -137q-7 -37 -38 -133.5t-38 -124.5q-3 -19 -25 -19h-90q-25 0 -22 23q1 26 2.5 80.5t3.5 99.5t6 74l22 141q3 20 25 20h156q23 0 20 -24zM805 1444l-23 -137q-7 -38 -37.5 -135t-37.5 -123q-3 -19 -25 -19h-90q-26 0 -23 23q1 25 2.5 80.5t4 100t6.5 73.5 l22 141q3 20 25 20h155q24 0 21 -24z" />
<glyph unicode="#" horiz-adv-x="1525" d="M1176 930l-60 -428h209q24 0 21 -25l-23 -160q-3 -20 -23 -20h-213l-38 -277q-3 -20 -23 -20h-168q-23 0 -20 25l36 272h-342l-38 -277q-3 -20 -23 -20h-166q-23 0 -20 25l37 272h-205q-24 0 -21 25l23 159q3 21 22 21h209l60 428h-205q-26 0 -23 24l19 160q3 21 22 21 h215l39 276q3 21 23 21h168q23 0 20 -25l-37 -272h340l39 276q3 21 23 21h168q23 0 20 -25l-37 -272h205q26 0 23 -25l-19 -160q-3 -20 -22 -20h-215zM963 930h-340l-62 -428h342z" />
<glyph unicode="$" horiz-adv-x="1241" d="M612 862l213 -84q154 -62 226.5 -136t72.5 -191q0 -78 -24 -150t-75 -138.5t-143.5 -114t-215.5 -62.5l-31 -189q-3 -20 -25 -20h-188q-24 0 -21 24l31 183q-138 18 -272 69l-103 35q-21 9 -12 31l78 151q10 20 31 11l94 -35q157 -56 313 -56q147 0 237.5 61.5 t90.5 158.5q0 114 -166 178l-223 88q-152 61 -217.5 132.5t-65.5 184.5q0 77 23.5 148t73 136t139.5 110.5t211 58.5l30 186q3 21 25 21h184q24 0 21 -25l-31 -186q68 -8 190 -47l113 -37q22 -10 10 -31l-80 -151q-9 -19 -30 -13l-101 37q-125 41 -245 41q-135 0 -216 -59 t-81 -158q0 -49 35.5 -88t123.5 -74z" />
<glyph unicode="%" horiz-adv-x="1591" d="M569 1436q144 0 214.5 -83t45.5 -229q-25 -145 -123 -228t-241 -83q-142 0 -212 83t-44 228q23 146 120 229t240 83zM1520 1386l-1170 -1374q-9 -12 -26 -12h-168q-15 0 -19.5 8t4.5 19l1172 1374q9 12 26 12h168q15 0 19 -8.5t-6 -18.5zM543 1274q-65 0 -106.5 -39 t-53.5 -111q-11 -67 18.5 -108t92.5 -41q61 0 104.5 41.5t54.5 107.5q12 72 -17.5 111t-92.5 39zM1200 598q143 0 212 -82t44 -227q-25 -146 -122 -229t-240 -83q-142 0 -212.5 83.5t-45.5 228.5t122.5 227t241.5 82zM1171 434q-63 0 -105 -38t-54 -107q-11 -67 18.5 -107.5 t91.5 -40.5q64 0 106.5 40.5t53.5 107.5q12 69 -17 107t-94 38z" />
<glyph unicode="&#x26;" horiz-adv-x="1464" d="M1378 899l-39 -233q-19 -110 -73.5 -178.5t-180.5 -155.5l-28 -19l213 -286q9 -11 4 -19t-19 -8h-227q-19 0 -27 14l-131 172l-112 -75q-107 -72 -196 -103t-185 -31q-149 0 -232.5 77t-83.5 210q0 127 62 217.5t207 184.5l116 82q-86 134 -86 260q0 198 139.5 321 t360.5 123q75 0 130 -10t128 -35l96 -35q23 -10 13 -29l-80 -153q-9 -18 -31 -12l-94 34q-104 33 -195 33q-109 0 -177 -57t-68 -154q0 -87 77 -190l283 -377l45 31q72 59 99.5 90t35.5 78l11 59h-125q-24 0 -21 25l25 153q3 21 24 21h322q23 0 20 -25zM752 342l-191 252 l-151 -105q-70 -48 -97.5 -89.5t-27.5 -100.5q0 -54 33 -83.5t94 -29.5q63 0 120.5 22t131.5 75z" />
<glyph unicode="'" horiz-adv-x="434" d="M477 1444l-22 -137q-7 -37 -38 -133.5t-38 -124.5q-3 -19 -25 -19h-90q-25 0 -22 23q1 26 2.5 80.5t3.5 99.5t6 74l22 141q3 20 25 20h156q23 0 20 -24z" />
<glyph unicode="(" horiz-adv-x="739" d="M459 -205h-158q-19 0 -25 19q-88 259 -88 530q0 292 92 600.5t277 583.5q11 14 27 14h182q13 0 17.5 -8t-3.5 -18q-194 -303 -289.5 -584.5t-95.5 -581.5q0 -231 84 -530q3 -11 -2.5 -18t-17.5 -7z" />
<glyph unicode=")" horiz-adv-x="739" d="M338 1542h158q18 0 24 -18q88 -259 88 -531q0 -292 -91.5 -600t-276.5 -583q-12 -15 -27 -15h-182q-13 0 -18 8.5t3 18.5q194 303 289.5 584t95.5 581q0 232 -84 531q-3 10 3 17t18 7z" />
<glyph unicode="*" horiz-adv-x="837" d="M729 1077h-106q-15 0 -32 2.5t-37.5 7t-25.5 5.5q-6 2 -8 -2.5t2 -10.5q42 -37 62 -69l80 -146q6 -10 1 -18t-18 -8h-117q-18 0 -26 16l-45 78q-25 47 -33 90q-1 7 -4 9.5t-6 0t-4 -9.5q-7 -39 -33 -90l-45 -78q-8 -16 -27 -16h-117q-13 0 -17.5 8t1.5 18l80 142 q17 33 59 75q6 4 3 9.5t-9 3.5q-53 -17 -96 -17h-102q-23 0 -23 23v106q0 23 23 23h102q42 0 96 -12q6 -2 8 2t-2 8q-44 44 -59 69l-82 146q-6 10 -1.5 18t17.5 8h121q19 0 27 -16l45 -78q22 -45 31 -90q1 -6 4 -7.5t6 1t4 8.5q11 49 29 84l47 82q8 16 26 16h121q14 0 18 -8 t-3 -18l-82 -146q-19 -34 -58 -69q-4 -4 -4 -6q0 -6 23 0q46 8 80 8h106q23 0 23 -23v-106q0 -23 -23 -23z" />
<glyph unicode="+" horiz-adv-x="1292" d="M1161 612l-28 -159q-3 -21 -25 -21h-367l-67 -401q-3 -21 -25 -21h-168q-23 0 -20 25l67 397h-364q-24 0 -21 25l29 159q3 21 25 21h366l68 399q3 21 24 21h168q24 0 21 -25l-68 -395h365q23 0 20 -25z" />
<glyph unicode="," horiz-adv-x="507" d="M-6 -262l125 180q45 59 -6 74q-30 11 -48 41t-18 69q0 31 8 59t25.5 54t51 41.5t79.5 15.5q57 0 91 -34.5t34 -92.5q0 -118 -111 -278l-96 -141q-12 -15 -27 -15h-94q-13 0 -17.5 8.5t3.5 18.5z" />
<glyph unicode="-" horiz-adv-x="894" d="M197 637h546q24 0 21 -25l-27 -157q-3 -21 -24 -21h-547q-24 0 -21 25l27 157q3 21 25 21z" />
<glyph unicode="." horiz-adv-x="522" d="M209 272q73 0 108 -43.5t23 -117.5q-12 -64 -52 -99t-102 -35q-72 0 -106.5 44t-22.5 118q12 63 51.5 98t100.5 35z" />
<glyph unicode="/" horiz-adv-x="1085" d="M981 1544h184q13 0 18 -8t-1 -18l-973 -1706q-9 -17 -27 -17h-184q-13 0 -17.5 8.5t1.5 18.5l972 1706q8 16 27 16z" />
<glyph unicode="0" horiz-adv-x="1316" d="M807 1452q218 0 336.5 -142.5t118.5 -396.5q0 -96 -16 -198t-48.5 -208.5t-88 -200.5t-127.5 -168t-174 -117.5t-222 -43.5q-218 0 -336.5 142.5t-118.5 396.5q0 82 11.5 168.5t37 178.5t62.5 176.5t92.5 160t123 131.5t157.5 88.5t192 32.5zM799 1247q-77 0 -143 -36 t-112.5 -97.5t-82.5 -137t-57 -159.5t-31.5 -160.5t-10.5 -144.5q0 -158 59 -243t171 -85q77 0 143 36t112.5 97t82.5 136.5t57.5 159t32 160.5t10.5 145q0 158 -59.5 243.5t-171.5 85.5z" />
<glyph unicode="1" horiz-adv-x="735" d="M713 1440l8 -8q13 -13 10 -29l-235 -1383q-3 -20 -25 -20h-184q-24 0 -21 25l160 946q19 95 33 133q8 20 0 25.5t-33 -3.5l-158 -65q-22 -9 -28 12l-41 160q-6 20 14 29l469 184q19 6 31 -6z" />
<glyph unicode="2" horiz-adv-x="1193" d="M293 1360l125 41q155 51 327 51q200 0 311 -87t111 -241q0 -126 -64.5 -225.5t-232.5 -198.5l-364 -219q-169 -101 -197 -278h664q23 0 20 -25l-26 -158q-3 -20 -25 -20h-874q-24 0 -21 25l19 104q33 195 111 323.5t226 215.5l373 223q160 98 160 203q0 72 -54 112.5 t-147 40.5q-131 0 -274 -47l-127 -39q-23 -10 -27 15l-31 157q-3 21 17 27z" />
<glyph unicode="3" horiz-adv-x="1196" d="M317 1376l107 33q137 43 295 43q201 0 312.5 -88t111.5 -244q0 -73 -17.5 -130.5t-70.5 -117.5t-142 -106q-12 -6 -16.5 -11t-0.5 -11t17 -13q81 -37 120.5 -112t39.5 -175q0 -66 -18 -129t-61.5 -125.5t-108 -109t-165 -75t-224.5 -28.5q-159 0 -318 60l-121 43 q-22 9 -12 29l76 145q9 18 31 12l108 -39q111 -43 246 -43q151 0 243.5 74t92.5 197q0 92 -63 143t-167 51h-104q-24 0 -21 25l27 157q3 21 25 21h94q123 0 199.5 64.5t76.5 162.5q0 80 -52 124t-146 44q-110 0 -246 -39l-115 -34q-23 -7 -26 18l-23 158q-3 21 16 26z" />
<glyph unicode="4" horiz-adv-x="1282" d="M1196 543l-29 -158q-3 -20 -24 -20h-127l-58 -345q-3 -20 -24 -20h-184q-24 0 -21 25l57 340h-698q-23 0 -20 24l30 174q2 12 15 25q102 98 176 184l461 488q77 84 135 157q9 15 26 15h260q24 0 21 -25l-141 -840h125q23 0 20 -24zM821 567l60 357q9 74 45 200 q5 19 -5.5 22.5t-23.5 -13.5l-403 -422q-50 -56 -113 -111q-13 -12 -10.5 -22.5t16.5 -10.5h434z" />
<glyph unicode="5" horiz-adv-x="1234" d="M1182 1405l-72 -160q-10 -16 -27 -16h-534l-39 -232q-11 -58 -18 -84q-5 -12 -2.5 -21.5t20.5 -6.5l57 8q83 12 144 12q195 0 302 -98t107 -279q0 -80 -19 -155.5t-64.5 -148.5t-112.5 -127t-172.5 -87t-235.5 -33q-162 0 -323 60l-127 45q-23 10 -11 31l76 145 q10 19 31 10l108 -39q125 -45 256 -45q94 0 167 30t114 79t61.5 104t20.5 113q0 91 -57.5 139.5t-169.5 48.5q-79 0 -191 -16l-190 -25q-15 -3 -29 11l-10 12q-14 14 -11 29l117 702q3 21 25 21h792q12 0 17.5 -7.5t-0.5 -19.5z" />
<glyph unicode="6" horiz-adv-x="1269" d="M1012 1403l-342 -383q-68 -74 -133 -127q-14 -12 -9.5 -21t25.5 0q105 48 223 48q176 0 281.5 -101t105.5 -280q0 -84 -20.5 -163t-67.5 -152t-115 -127.5t-171 -87t-228 -32.5q-222 0 -341.5 101.5t-119.5 288.5q0 91 16 169t57 169t115 194t187 229l260 291 q10 13 27 13h237q15 0 18.5 -8.5t-5.5 -20.5zM686 721q-91 0 -162 -29.5t-111 -77.5t-60.5 -103t-20.5 -112q0 -215 243 -215q74 0 134.5 19.5t100.5 51.5t68 75.5t40.5 89.5t13.5 94q2 100 -61 153.5t-185 53.5z" />
<glyph unicode="7" horiz-adv-x="1216" d="M1286 1415l4 -12q5 -16 -4 -31q-103 -134 -186 -276l-641 -1082q-8 -14 -27 -14h-203q-12 0 -16.5 8t2.5 19l596 1007q51 88 117 162q14 19 9 26t-28 7h-665q-24 0 -21 24l27 158q3 21 24 21h986q16 0 26 -17z" />
<glyph unicode="8" horiz-adv-x="1282" d="M799 1452q200 0 312 -85t112 -234q0 -120 -67 -215.5t-198 -143.5q-17 -7 -19.5 -17t11.5 -16q94 -38 148.5 -113.5t54.5 -178.5q0 -97 -39.5 -182t-112.5 -150t-187.5 -102.5t-254.5 -37.5q-221 0 -344 93t-123 256q0 143 84.5 252.5t231.5 162.5q19 6 21 16t-13 17 q-162 67 -162 244q0 88 36 166t103 138t172 95t234 35zM778 1247q-147 0 -221 -68t-74 -169q0 -75 57 -115.5t160 -40.5q143 0 216 63.5t73 157.5q0 84 -54.5 128t-156.5 44zM666 649q-160 0 -251 -80.5t-91 -189.5q0 -94 65.5 -144.5t183.5 -50.5q171 0 260 77t89 194 q0 91 -69.5 142.5t-186.5 51.5z" />
<glyph unicode="9" horiz-adv-x="1269" d="M330 29l342 383q68 74 133 127q14 13 9 20.5t-26 -0.5q-103 -47 -223 -47q-176 0 -281.5 101t-105.5 280q0 84 20.5 163t67.5 152t115 127t171 86.5t228 32.5q222 0 341.5 -101.5t119.5 -287.5q0 -91 -16 -169t-57 -169.5t-115 -194.5t-187 -229l-260 -291 q-9 -12 -26 -12h-238q-15 0 -18 8.5t6 20.5zM655 711q91 0 162 29.5t111.5 77.5t61 102.5t20.5 111.5q0 215 -244 215q-91 0 -161.5 -29t-111.5 -77.5t-61.5 -105t-21.5 -117.5q-2 -100 60.5 -153.5t184.5 -53.5z" />
<glyph unicode=":" horiz-adv-x="503" d="M334 1016q73 0 108 -44t23 -118q-12 -64 -51.5 -98.5t-102.5 -34.5q-72 0 -106.5 44t-22.5 118q12 63 51.5 98t100.5 35zM209 272q73 0 108 -43.5t23 -117.5q-12 -64 -52 -99t-102 -35q-72 0 -106.5 44t-22.5 118q12 63 51.5 98t100.5 35z" />
<glyph unicode=";" horiz-adv-x="514" d="M340 1016q73 0 108 -44t23 -118q-12 -64 -51.5 -98.5t-102.5 -34.5q-72 0 -106.5 44t-22.5 118q12 63 51.5 98t100.5 35zM0 -256l125 180q45 59 -6 74q-29 11 -47.5 41.5t-18.5 69.5q0 31 8 59t25.5 54t51 41.5t79.5 15.5q57 0 91 -34.5t34 -92.5q0 -119 -111 -279 l-96 -141q-12 -15 -26 -15h-95q-13 0 -17.5 8.5t3.5 18.5z" />
<glyph unicode="&#x3c;" horiz-adv-x="1294" d="M150 467l18 119q3 17 18 22l1022 447q14 5 21 -1.5t4 -19.5l-33 -188q-4 -18 -18 -23l-719 -307l612 -305q18 -9 15 -27l-31 -174q-3 -27 -29 -14l-868 444q-18 10 -12 27z" />
<glyph unicode="=" horiz-adv-x="1234" d="M236 866h886q24 0 21 -24l-27 -158q-3 -20 -24 -20h-887q-24 0 -21 24l27 158q3 20 25 20zM158 408h886q24 0 21 -25l-27 -158q-3 -20 -24 -20h-887q-24 0 -21 24l27 158q3 21 25 21z" />
<glyph unicode="&#x3e;" horiz-adv-x="1294" d="M274 1055l869 -445q17 -10 12 -26l-18 -117q-3 -20 -19 -25l-1022 -446q-14 -5 -20.5 1t-3.5 19l32 189q3 17 19 22l719 308l-613 305q-17 8 -14 26l31 174q3 27 28 15z" />
<glyph unicode="?" horiz-adv-x="1163" d="M254 1358l131 41q181 53 342 53q202 0 310 -83.5t108 -231.5q0 -122 -61 -213t-207 -183l-123 -79q-97 -64 -109 -154l-18 -107q-3 -20 -25 -20h-182q-24 0 -21 25l17 102q19 107 73 184.5t160 143.5l131 79q68 42 98.5 83.5t30.5 95.5q0 61 -60.5 100t-160.5 39 q-129 0 -270 -41l-123 -39q-24 -7 -27 16l-30 162q-3 22 16 27zM481 270q73 0 108 -43.5t23 -117.5q-12 -64 -51.5 -99t-101.5 -35q-72 0 -106.5 44t-22.5 118q12 64 51 98.5t100 34.5z" />
<glyph unicode="@" horiz-adv-x="1775" d="M1315 -115l-199 -51q-192 -51 -362 -51q-294 0 -462.5 163.5t-168.5 432.5q0 79 15.5 161.5t49 169t82.5 165.5t122 149t161 121.5t204.5 81.5t248.5 30q153 0 279.5 -44.5t210.5 -123t130.5 -185t46.5 -230.5q0 -80 -18.5 -150.5t-56.5 -131t-104.5 -95.5t-154.5 -35 q-106 0 -163.5 60t-96.5 206q-19 77 -54 115.5t-103 38.5q-85 0 -141 -52.5t-56 -142.5q0 -59 41 -93t113 -34q62 0 114 17l8 2q20 7 27 -14q28 -81 80 -123q23 -20 -4 -29l-94 -25q-80 -22 -164 -22q-155 0 -239.5 73t-84.5 207q0 59 14 116.5t46 114.5t79 99.5t119.5 69 t161.5 26.5q112 0 183.5 -42t113.5 -136q22 -44 40.5 -95t27 -78t24 -45.5t39.5 -18.5q28 0 48.5 20.5t30.5 52.5t14.5 62t4.5 59q0 181 -136 296.5t-359 115.5q-131 0 -241.5 -43.5t-183.5 -112t-124 -156.5t-73.5 -175t-22.5 -168q0 -196 122 -312t334 -116q145 0 314 45 l188 49q24 7 27 -19l20 -143q3 -21 -18 -27z" />
<glyph unicode="A" horiz-adv-x="1478" d="M1036 274h-645l-145 -258q-8 -16 -27 -16h-205q-13 0 -17.5 8t1.5 19l512 899q173 322 242 489q10 17 26 17h252q22 0 25 -23q14 -184 71 -483l195 -901q3 -10 -2 -17.5t-16 -7.5h-189q-21 0 -24 20zM508 481h483l-61 269q-46 235 -49 378q-1 11 -7.5 15.5t-14 0 t-11.5 -15.5q-62 -161 -186 -378z" />
<glyph unicode="B" horiz-adv-x="1341" d="M336 1432h555q192 0 295.5 -82t103.5 -228q0 -140 -71 -232.5t-170 -129.5q-15 -5 -22 -11.5t-3 -13t18 -10.5q79 -26 133 -96t54 -180q0 -207 -147.5 -328t-399.5 -121h-584q-23 0 -20 25l233 1386q3 21 25 21zM514 1225l-63 -387h280q152 0 237 64t85 171 q0 71 -49.5 111.5t-137.5 40.5h-352zM414 633l-72 -426h375q127 0 200.5 63.5t73.5 175.5q0 89 -69.5 138t-198.5 49h-309z" />
<glyph unicode="C" horiz-adv-x="1267" d="M1057 53l-103 -33q-139 -43 -301 -43q-249 0 -387.5 151t-138.5 415q0 95 18 195t54.5 203.5t98.5 194t143.5 162t197 113t250.5 41.5q143 0 295 -55l80 -29q22 -9 12 -29l-78 -151q-9 -18 -31 -12l-84 30q-92 35 -213 35q-107 0 -195 -47t-144 -120t-95 -167t-55 -183.5 t-16 -172.5q0 -179 79 -270t234 -91q118 0 242 39l94 29q23 10 26 -14l33 -164q3 -22 -16 -27z" />
<glyph unicode="D" horiz-adv-x="1390" d="M336 1432h477q250 0 387 -145.5t137 -403.5q0 -80 -12.5 -163t-41 -170t-69.5 -166.5t-103 -150t-137 -122t-174.5 -81.5t-213.5 -30h-488q-23 0 -20 25l233 1386q3 21 25 21zM514 1225l-172 -1018h264q89 0 164.5 31.5t128.5 86t93 122t63.5 144t35 148t11.5 138.5 q0 168 -79.5 258t-229.5 90h-279z" />
<glyph unicode="E" horiz-adv-x="1245" d="M451 838h567q23 0 20 -25l-28 -160q-3 -20 -25 -20h-571l-70 -426h727q24 0 21 -25l-29 -162q-3 -20 -25 -20h-940q-23 0 -20 25l233 1386q3 21 25 21h942q12 0 17 -7.5t-1 -19.5l-71 -164q-10 -16 -27 -16h-682z" />
<glyph unicode="F" horiz-adv-x="1224" d="M440 780h578q23 0 20 -24l-26 -162q-3 -21 -25 -21h-584l-92 -553q-3 -20 -24 -20h-189q-23 0 -20 25l233 1386q3 21 25 21h934q12 0 17 -7.5t-1 -19.5l-74 -164q-10 -16 -26 -16h-672z" />
<glyph unicode="G" horiz-adv-x="1374" d="M760 578l74 163q10 17 26 17h400q23 0 20 -25l-106 -618q-3 -19 -19 -25l-70 -22l-127 -45q-139 -46 -301 -46q-252 0 -391 149.5t-139 412.5q0 116 24 235.5t82 243t142 218.5t215.5 155.5t292.5 60.5q89 0 153.5 -11.5t143.5 -41.5l84 -29q21 -9 12 -31l-78 -151 q-10 -19 -31 -10l-77 28q-96 35 -220 35q-108 0 -196.5 -47t-144.5 -121t-94 -168t-54 -184t-16 -174q0 -172 78 -264.5t227 -92.5q130 0 239 35l64 21l51 305h-248q-12 0 -17 7.5t1 19.5z" />
<glyph unicode="H" horiz-adv-x="1439" d="M1438 1407l-236 -1387q-3 -20 -24 -20h-189q-23 0 -20 25l102 608h-657l-103 -613q-3 -20 -24 -20h-189q-23 0 -20 25l233 1386q3 21 25 21h188q24 0 21 -25l-94 -569h657l94 573q3 21 25 21h190q24 0 21 -25z" />
<glyph unicode="I" horiz-adv-x="548" d="M545 1407l-234 -1387q-3 -20 -24 -20h-189q-23 0 -20 25l233 1386q3 21 25 21h188q24 0 21 -25z" />
<glyph unicode="J" horiz-adv-x="921" d="M922 1407l-164 -975q-37 -214 -163.5 -334.5t-320.5 -120.5q-106 0 -200 39l-49 21q-10 3 -14 11.5t1 17.5l76 149q10 19 31 10l53 -18q47 -17 115 -17q87 0 150.5 60t84.5 174l164 987q3 21 25 21h190q24 0 21 -25z" />
<glyph unicode="K" horiz-adv-x="1368" d="M1411 1405l-319 -412q-70 -88 -156.5 -150t-167.5 -93q-11 -5 -12.5 -12.5t8.5 -12.5q164 -74 256 -279l182 -419q6 -12 1 -19.5t-17 -7.5h-197q-16 0 -26 16l-146 328q-56 132 -145.5 207.5t-212.5 75.5h-45l-103 -607q-3 -20 -24 -20h-189q-23 0 -20 25l233 1386 q3 21 25 21h190q24 0 21 -25l-96 -567h43q198 0 409 268l246 311q10 13 27 13h221q13 0 17.5 -8t-3.5 -19z" />
<glyph unicode="L" horiz-adv-x="1165" d="M344 211h645q24 0 21 -25l-29 -166q-3 -20 -25 -20h-858q-23 0 -20 25l233 1386q3 21 25 21h188q24 0 21 -25z" />
<glyph unicode="M" horiz-adv-x="1687" d="M1686 1407l-236 -1387q-3 -20 -25 -20h-188q-23 0 -20 25l110 661q31 210 86 393q6 21 -6 23q-11 0 -21 -17q-48 -87 -92 -161l-272 -459q-29 -50 -109 -207q-8 -16 -26 -16h-172q-19 0 -25 20q-11 78 -37 199l-118 463q-27 107 -39 161q-3 13 -9.5 16.5t-12.5 -3 t-7 -19.5q-7 -138 -45 -393l-111 -666q-3 -20 -24 -20h-189q-23 0 -20 25l233 1386q3 21 25 21h280q20 0 23 -21q13 -74 29 -151l118 -459q32 -176 43 -271q1 -11 6.5 -15.5t12.5 0t12 15.5q77 172 129 271l273 459q28 49 77 153q6 19 25 19h301q24 0 21 -25z" />
<glyph unicode="N" horiz-adv-x="1470" d="M1468 1407l-235 -1387q-3 -20 -25 -20h-233q-21 0 -27 18q-31 105 -74 209l-321 713q-22 54 -51 147q-6 17 -19.5 13.5t-13.5 -21.5q-3 -121 -29 -284l-129 -775q-3 -20 -24 -20h-189q-23 0 -20 25l233 1386q3 21 25 21h233q21 0 27 -19q24 -82 74 -209l319 -704 q35 -90 55 -156q6 -20 18.5 -15.5t10.5 23.5q2 108 31 281l129 778q3 21 24 21h191q23 0 20 -25z" />
<glyph unicode="O" horiz-adv-x="1456" d="M877 1452q251 0 388.5 -148.5t137.5 -412.5q0 -80 -12.5 -164.5t-40 -174.5t-68.5 -172.5t-102.5 -156.5t-136.5 -128t-175.5 -86t-214.5 -32q-250 0 -388 149.5t-138 412.5q0 115 24 235.5t81.5 243.5t141 218t214 155.5t289.5 60.5zM866 1241q-107 0 -195 -47.5 t-143 -121.5t-93.5 -168.5t-54 -184.5t-15.5 -174q0 -170 77 -262.5t222 -92.5q107 0 195 48t143 122.5t93.5 169.5t54 184.5t15.5 172.5q0 171 -76.5 262.5t-222.5 91.5z" />
<glyph unicode="P" horiz-adv-x="1300" d="M336 1432h518q213 0 325.5 -112t100.5 -312q-12 -240 -190.5 -372t-487.5 -132h-211l-80 -484q-3 -20 -24 -20h-189q-23 0 -20 25l233 1386q3 21 25 21zM514 1225l-86 -516h197q189 0 299 74.5t120 213.5q9 107 -47.5 167.5t-165.5 60.5h-317z" />
<glyph unicode="Q" horiz-adv-x="1456" d="M1305 -246l-152 -96q-19 -12 -31 6l-71 119q-59 100 -150 147t-246 47q-248 0 -387 149.5t-139 414.5q0 106 19.5 211.5t58.5 208.5t101.5 191t143 155.5t190 106t235.5 38.5q249 0 387.5 -148.5t138.5 -414.5q0 -268 -107 -482t-264 -290q-20 -11 -21.5 -17t17.5 -12 q72 -29 122.5 -73t90.5 -113l70 -117q12 -19 -6 -31zM365 549q0 -180 79 -269.5t220 -89.5q99 0 183 42t142 111t99 159t60 186t19 191q0 179 -77.5 270.5t-221.5 91.5q-84 0 -157.5 -30t-127 -82.5t-96.5 -120.5t-69 -146t-39.5 -157t-13.5 -156z" />
<glyph unicode="R" horiz-adv-x="1374" d="M336 1432h559q194 0 298.5 -98t104.5 -265q0 -303 -331 -420q-24 -7 -26.5 -17.5t13.5 -19.5q105 -62 156 -237l88 -350q3 -11 -2.5 -18t-17.5 -7h-189q-21 0 -24 18l-68 263q-24 94 -62.5 152.5t-109.5 91t-178 32.5h-146l-90 -537q-3 -20 -24 -20h-189q-23 0 -20 25 l233 1386q3 21 25 21zM438 764h232q186 0 288.5 77t102.5 197q0 89 -53.5 138t-149.5 49h-344z" />
<glyph unicode="S" horiz-adv-x="1241" d="M723 588l-223 88q-152 61 -217.5 132.5t-65.5 184.5q0 67 16.5 129t57.5 123t102 106t157 73t216 28q151 0 317 -57l113 -37q22 -10 10 -31l-80 -151q-9 -19 -30 -13l-101 37q-125 41 -245 41q-135 0 -216 -59t-81 -158q0 -49 35.5 -88t123.5 -74l213 -84 q154 -62 226.5 -136t72.5 -191q0 -69 -17.5 -133t-60.5 -127t-107.5 -110t-166.5 -75.5t-229 -28.5q-174 0 -383 76l-103 35q-21 9 -12 31l78 151q10 20 31 11l94 -35q157 -56 313 -56q147 0 237.5 61.5t90.5 158.5q0 114 -166 178z" />
<glyph unicode="T" horiz-adv-x="1308" d="M1384 1407l-28 -162q-3 -20 -25 -20h-434l-203 -1205q-3 -20 -24 -20h-191q-23 0 -20 25l203 1200h-435q-23 0 -20 24l29 162q3 21 24 21h1104q23 0 20 -25z" />
<glyph unicode="U" horiz-adv-x="1376" d="M1395 1407l-144 -838q-47 -283 -217 -437.5t-428 -154.5q-264 0 -384 160t-70 445l139 829q3 21 24 21h189q23 0 20 -25l-143 -838q-29 -184 34 -281.5t210 -97.5q157 0 261.5 103.5t133.5 288.5l141 829q3 21 25 21h188q24 0 21 -25z" />
<glyph unicode="V" horiz-adv-x="1441" d="M1528 1405l-504 -897q-145 -269 -238 -492q-10 -16 -26 -16h-240q-21 0 -24 20q-22 253 -70 488l-203 899q-3 10 2.5 17.5t16.5 7.5h188q22 0 25 -21l170 -731q37 -190 41 -365q0 -11 6.5 -15.5t14 0t11.5 15.5q61 171 168 365l414 735q8 17 27 17h204q13 0 18 -8t-1 -19 z" />
<glyph unicode="W" horiz-adv-x="2039" d="M2107 1405l-454 -1020q-88 -201 -148 -367q-6 -18 -24 -18h-250q-23 0 -23 23q-3 182 -20 323l-66 477q-7 79 -4 168q0 13 -6 18t-13.5 0t-11.5 -18q-37 -97 -65 -168l-225 -485q-68 -154 -129 -320q-6 -18 -25 -18h-248q-22 0 -22 23q-3 161 -23 362l-110 1022 q-3 25 22 25h187q19 0 22 -21l84 -735q14 -159 2 -348q-1 -10 5 -14t14 -0.5t12 14.5q57 184 131 348l348 739q10 17 27 17h153q20 0 23 -21l102 -735q16 -147 12 -348q-1 -16 11 -16q13 2 18 16q40 153 123 348l330 739q10 17 26 17h199q12 0 17 -7.5t-1 -19.5z" />
<glyph unicode="X" horiz-adv-x="1413" d="M1442 1405l-398 -526q-74 -100 -157 -144q-9 -6 -9.5 -14t5.5 -12q65 -47 106 -148l225 -534q4 -12 -1 -19.5t-17 -7.5h-195q-16 0 -26 16l-227 537q-5 13 -14.5 13.5t-20.5 -13.5l-412 -539q-8 -14 -27 -14h-219q-13 0 -17.5 8t3.5 19l405 534q75 102 160 148 q9 4 10.5 12t-4.5 14q-67 47 -106 144l-221 526q-4 12 1 19.5t17 7.5h195q16 0 26 -17l219 -524q14 -38 41 0l400 526q12 15 26 15h217q13 0 18 -8t-3 -19z" />
<glyph unicode="Y" horiz-adv-x="1384" d="M1466 1405l-387 -512q-66 -91 -85.5 -118t-64.5 -93t-59 -95t-38.5 -82t-36 -100t-21.5 -106l-45 -279q-3 -20 -24 -20h-189q-23 0 -20 25l45 274q10 59 14.5 106.5t-0.5 98t-10.5 84.5t-25 93t-32.5 95t-45 117l-217 512q-4 12 1.5 19.5t17.5 7.5h198q17 0 27 -17 l158 -364q65 -151 88 -277q3 -15 14 -15t19 15q91 166 174 277l282 366q9 15 27 15h221q13 0 17.5 -8t-3.5 -19z" />
<glyph unicode="Z" horiz-adv-x="1288" d="M1325 1413l4 -8q9 -15 -4 -31q-118 -139 -219 -274l-524 -690q-107 -140 -133 -172q-12 -15 -9.5 -24.5t19.5 -8.5q28 0 80.5 1t76.5 1h471q12 0 17.5 -7.5t-0.5 -19.5l-74 -164q-10 -16 -26 -16h-936q-19 0 -25 18l-4 9q-6 15 6 30q91 107 219 283l518 678 q77 111 138 174q9 10 11 18t-3.5 12.5t-16.5 4.5q-59 -2 -159 -2h-463q-24 0 -21 24l27 162q3 21 24 21h981q19 0 25 -19z" />
<glyph unicode="[" horiz-adv-x="741" d="M328 0h161q24 0 21 -25l-27 -159q-3 -21 -24 -21h-355q-23 0 -20 25l289 1702q3 20 24 20h355q23 0 20 -24l-27 -158q-3 -21 -24 -21h-168z" />
<glyph unicode="\" horiz-adv-x="1064" d="M463 1524l391 -1704q3 -10 -2 -17.5t-16 -7.5h-168q-22 0 -25 21l-393 1704q-3 10 2 17t16 7h170q22 0 25 -20z" />
<glyph unicode="]" horiz-adv-x="741" d="M471 1337h-162q-23 0 -20 25l26 160q3 20 25 20h354q24 0 21 -24l-289 -1702q-3 -21 -25 -21h-354q-23 0 -20 25l26 157q3 21 25 21h168z" />
<glyph unicode="^" horiz-adv-x="1040" d="M948 711h-190q-22 0 -25 20l-98 408l-238 -412q-8 -16 -26 -16h-201q-13 0 -17.5 7.5t1.5 18.5l417 664q11 14 29 14h150q20 0 26 -18l191 -662q4 -10 -1.5 -17t-17.5 -7z" />
<glyph unicode="_" horiz-adv-x="1046" d="M-129 -236h1057q23 0 20 -24l-28 -158q-3 -20 -25 -20h-1055q-23 0 -20 24l26 158q3 20 25 20z" />
<glyph unicode="`" horiz-adv-x="604" d="M518 1450l94 -262q7 -27 -18 -27h-145q-19 0 -27 17l-148 264q-6 10 -1 18t18 8h203q18 0 24 -18z" />
<glyph unicode="a" horiz-adv-x="1148" d="M793 23l8 127q-3 30 -13 31t-38 -29q-67 -83 -142.5 -129t-175.5 -46q-166 0 -259 100.5t-93 278.5q0 86 19.5 174t65 176t111.5 155.5t168 110t226 42.5q106 0 217 -31l188 -49q21 -6 17 -27l-148 -887q-3 -20 -24 -20h-107q-23 0 -20 23zM842 772l-56 16 q-61 21 -127 21q-90 0 -161.5 -45t-111.5 -113.5t-60.5 -140t-20.5 -135.5q0 -89 45 -140t123 -51q123 0 218 136t134 352z" />
<glyph unicode="b" horiz-adv-x="1161" d="M526 1444l-51 -305q-22 -134 -72 -221q-8 -19 0 -26t25 3q126 119 281 119q180 0 276 -105t96 -293q0 -60 -9 -121t-29.5 -124.5t-51 -120.5t-76.5 -107t-102.5 -87t-132 -58t-162.5 -21q-147 0 -276 58l-152 67q-17 8 -14 29l221 1317q3 20 25 20h184q23 0 20 -24z M322 238l49 -21q74 -33 153 -33q87 0 154 42t104 107.5t55.5 135t18.5 135.5q0 99 -46.5 152t-135.5 53q-124 0 -207.5 -97.5t-110.5 -260.5z" />
<glyph unicode="c" horiz-adv-x="970" d="M778 29l-86 -23q-98 -29 -190 -29q-204 0 -313 108t-109 300q0 85 17.5 168.5t60.5 168t106.5 148.5t164 104t224.5 40q83 0 178 -29l89 -27q23 -6 14 -28l-72 -148q-9 -18 -28 -12l-64 18q-64 21 -123 21q-77 0 -138 -29t-98.5 -73t-62 -101t-34 -109t-9.5 -102 q0 -102 51.5 -156.5t153.5 -54.5q64 0 162 25l78 20q23 7 26 -18l21 -156q3 -20 -19 -26z" />
<glyph unicode="d" horiz-adv-x="1159" d="M1184 1444l-240 -1424q-3 -20 -24 -20h-101q-21 0 -24 23l-4 75q-4 14 -9.5 18.5t-14.5 1t-26 -17.5q-135 -123 -292 -123q-176 0 -272.5 106.5t-96.5 293.5q0 69 12.5 139.5t38.5 143t70.5 135.5t102.5 112.5t141 78t180 28.5q117 0 192 -37l53 -27l84 498q3 20 25 20 h184q24 0 21 -24zM840 754l-52 22q-71 33 -157 33q-70 0 -127.5 -28.5t-93.5 -72t-60.5 -100t-34.5 -109.5t-10 -102q0 -102 48.5 -157.5t140.5 -55.5q118 0 197.5 83.5t103.5 221.5z" />
<glyph unicode="e" horiz-adv-x="1038" d="M799 31l-101 -25q-113 -29 -204 -29q-199 0 -306.5 108.5t-107.5 299.5q0 83 18 167t60 168t103.5 148.5t158 105t213.5 40.5q165 0 258.5 -74t93.5 -203t-79.5 -214.5t-270.5 -114.5l-330 -48q2 -82 51.5 -129t143.5 -47q82 0 182 23l94 24q24 6 27 -18l14 -158 q3 -21 -18 -24zM317 537l297 43q78 11 114 45.5t36 81.5q0 48 -37.5 75t-105.5 27q-109 0 -188 -67.5t-116 -204.5z" />
<glyph unicode="f" horiz-adv-x="765" d="M293 993l22 142q29 170 136 263t270 93q57 0 137 -27l37 -12q21 -9 12 -31l-71 -147q-10 -19 -31 -10l-25 8q-40 12 -67 12q-64 0 -111 -46t-59 -120l-21 -125h228q23 0 20 -24l-27 -158q-3 -20 -24 -20h-232l-129 -771q-3 -20 -24 -20h-184q-24 0 -21 25l129 766h-98 q-24 0 -21 24l27 158q3 20 24 20h103z" />
<glyph unicode="g" horiz-adv-x="1150" d="M141 -211l72 -22q82 -23 166 -23q266 0 354 217q6 23 14.5 53t13.5 48.5t7 29.5q1 10 0 14.5t-6.5 4t-12.5 -4.5t-20 -12q-137 -117 -276 -117q-189 0 -287 121t-84 328q6 90 29.5 173.5t69.5 160t109 132.5t154 89t199 33q133 0 250 -51l176 -70q17 -8 14 -29l-143 -864 q-38 -226 -182.5 -343.5t-376.5 -117.5q-125 0 -225 29l-103 31q-21 6 -12 28l72 150q9 17 28 12zM838 752l-54 26q-71 31 -151 31q-74 0 -135 -32.5t-100 -86.5t-62 -118.5t-29 -133.5q-12 -117 33.5 -185.5t144.5 -68.5q123 0 203.5 82.5t106.5 233.5z" />
<glyph unicode="h" horiz-adv-x="1140" d="M526 1444l-51 -305q-21 -130 -74 -230q-6 -14 3 -21.5t24 5.5q127 121 283 121q180 0 267 -107t56 -289l-102 -598q-3 -20 -25 -20h-184q-24 0 -21 25l99 585q17 97 -17 148t-112 51q-125 0 -202.5 -87.5t-102.5 -229.5l-80 -472q-3 -20 -25 -20h-184q-24 0 -21 25 l240 1423q3 20 25 20h184q23 0 20 -24z" />
<glyph unicode="i" horiz-adv-x="573" d="M453 1485q61 0 94 -31t33 -88q0 -76 -39 -117t-107 -41q-61 0 -94 32t-33 89q0 74 39 115t107 41zM518 969l-160 -949q-3 -20 -24 -20h-184q-24 0 -21 25l129 766h-98q-24 0 -21 24l27 158q3 20 24 20h308q23 0 20 -24z" />
<glyph unicode="j" horiz-adv-x="573" d="M453 1487q61 0 94 -32t33 -89q0 -76 -39 -118t-107 -42q-60 0 -93.5 32t-33.5 89q0 76 39.5 118t106.5 42zM518 969l-172 -1020q-23 -129 -90.5 -221.5t-196.5 -153.5l-63 -33q-9 -5 -17.5 -1t-11.5 14l-63 151q-9 21 10 31l51 28q132 61 154 201l139 826h-98 q-24 0 -21 24l27 158q3 20 24 20h308q23 0 20 -24z" />
<glyph unicode="k" horiz-adv-x="1116" d="M1081 967l-229 -291q-95 -118 -211 -158q-25 -9 -4 -20q99 -42 160 -164l135 -307q6 -12 0.5 -19.5t-17.5 -7.5h-190q-17 0 -27 16l-106 226q-36 75 -84 117t-127 42h-31l-61 -381q-3 -20 -25 -20h-184q-24 0 -21 25l154 931l84 492q3 20 25 20h184q23 0 20 -24l-75 -451 l-64 -389h29q61 0 118 45.5t121 122.5l170 209q9 12 27 12h217q14 0 17.5 -7.5t-5.5 -18.5z" />
<glyph unicode="l" horiz-adv-x="587" d="M526 1444l-202 -1206q-10 -54 28 -54q15 0 19 2q23 0 26 -18l35 -143q3 -23 -14 -29q-49 -19 -99 -19q-127 0 -187 70t-38 193l203 1208q3 20 25 20h184q23 0 20 -24z" />
<glyph unicode="m" horiz-adv-x="1728" d="M365 971l4 -74q12 -24 20.5 -23.5t34.5 21.5q125 119 285 119q152 0 231 -131q24 -26 41 -26.5t47 24.5q133 133 297 133q167 0 247.5 -107t49.5 -289l-102 -598q-3 -20 -25 -20h-184q-24 0 -21 25l101 585q31 199 -115 199q-118 0 -193.5 -85.5t-99.5 -231.5l-80 -472 q-3 -20 -24 -20h-185q-23 0 -20 25l98 587q17 95 -12.5 146t-102.5 51q-119 0 -192.5 -85t-99.5 -232l-78 -472q-3 -20 -25 -20h-184q-24 0 -21 25l158 948q3 20 25 20h102q23 0 23 -22z" />
<glyph unicode="n" horiz-adv-x="1138" d="M367 971l6 -76q4 -13 10.5 -17.5t15.5 -0.5t23 16q129 121 299 121q179 0 261 -106.5t50 -289.5l-100 -598q-3 -20 -25 -20h-184q-24 0 -21 25l99 585q17 96 -17.5 147.5t-113.5 51.5q-118 0 -198.5 -84t-106.5 -233l-78 -472q-3 -20 -25 -20h-184q-24 0 -21 25l158 948 q3 20 25 20h102q22 0 25 -22z" />
<glyph unicode="o" horiz-adv-x="1124" d="M635 1014q194 0 301.5 -108t107.5 -298q0 -81 -18 -165t-60.5 -168.5t-104.5 -150t-158.5 -106.5t-213.5 -41q-194 0 -301.5 109t-107.5 299q0 82 18 166t61 168.5t105 149t158 105t213 40.5zM629 809q-69 0 -126 -28t-93 -71.5t-60.5 -99.5t-34.5 -109t-10 -102 q0 -103 49.5 -159t141.5 -56q69 0 125.5 28t92 71.5t60.5 99.5t35 109t10 102q0 103 -49 159t-141 56z" />
<glyph unicode="p" horiz-adv-x="1159" d="M365 971l4 -72q5 -16 10.5 -21.5t14.5 -2t26 17.5q130 121 289 121q177 0 273.5 -105.5t96.5 -292.5q0 -83 -17.5 -167.5t-58.5 -170.5t-101.5 -151.5t-155.5 -107t-211 -42.5q-115 0 -193 41l-53 25l-78 -463q-3 -20 -25 -20h-184q-23 0 -20 24l233 1389q3 20 25 20h100 q22 0 25 -22zM319 240l52 -25q74 -31 155 -31q71 0 128.5 28t93.5 72t61 100t35 109t10 103q0 102 -48 157.5t-140 55.5q-119 0 -199 -84.5t-102 -222.5z" />
<glyph unicode="q" horiz-adv-x="1150" d="M639 -416l45 273q21 124 72 219q9 20 0.5 26t-27.5 -6q-126 -119 -278 -119q-178 0 -274.5 106t-96.5 294q0 86 17.5 171t60 170.5t105 150t160.5 105t218 40.5q153 0 277 -56l153 -67q17 -8 14 -29l-217 -1282q-3 -20 -24 -20h-185q-23 0 -20 24zM838 754l-52 22 q-82 33 -153 33q-69 0 -126.5 -28t-94 -72.5t-61.5 -101t-35.5 -111.5t-10.5 -107q0 -99 45.5 -152t134.5 -53q124 0 208.5 97t109.5 260z" />
<glyph unicode="r" horiz-adv-x="806" d="M791 989l-27 -160q-3 -20 -25 -20q-169 -6 -266.5 -133.5t-146.5 -409.5l-39 -246q-3 -20 -25 -20h-184q-24 0 -21 25l158 948q3 20 25 20h104q20 0 23 -20l16 -117q10 -35 37 -4q76 80 158.5 119t191.5 43q24 0 21 -25z" />
<glyph unicode="s" horiz-adv-x="991" d="M559 387l-199 55q-110 29 -163.5 85.5t-53.5 144.5q0 70 25 130.5t74.5 108.5t131 75.5t187.5 27.5q124 0 258 -35l90 -25q24 -6 15 -28l-72 -152q-9 -18 -29 -12l-80 22q-92 25 -188 25q-86 0 -136 -31t-50 -82q0 -50 75 -71l197 -56q113 -31 168 -89t55 -150 q0 -50 -12.5 -97.5t-44 -95t-79 -82t-123.5 -56.5t-171 -22q-159 0 -311 46l-82 24q-22 6 -12 29l71 149q9 19 29 13l64 -19q106 -35 249 -35q96 0 146.5 36.5t50.5 88.5q0 56 -80 78z" />
<glyph unicode="t" horiz-adv-x="780" d="M522 993h228q23 0 20 -24l-27 -158q-3 -20 -24 -20h-232l-84 -498q-9 -52 7.5 -80.5t54.5 -28.5q28 0 55 9q23 7 29 -15l41 -137q7 -20 -12 -29q-72 -35 -146 -35q-146 0 -214.5 83.5t-43.5 232.5l84 498h-98q-24 0 -21 24l27 158q3 20 24 20h103l39 236q3 18 20 24 l197 62q12 3 19 -3t5 -18z" />
<glyph unicode="u" horiz-adv-x="1138" d="M772 23l-6 75q-4 13 -10.5 17.5t-15.5 0.5t-23 -16q-128 -120 -299 -120q-179 0 -261.5 106t-50.5 289l101 598q3 20 24 20h185q23 0 20 -24l-98 -586q-17 -96 17.5 -147.5t113.5 -51.5q118 0 198.5 84.5t106.5 233.5l78 471q3 20 25 20h184q23 0 20 -24l-157 -949 q-3 -20 -25 -20h-102q-22 0 -25 23z" />
<glyph unicode="v" horiz-adv-x="1132" d="M1143 967l-283 -484q-158 -281 -239 -467q-10 -16 -27 -16h-221q-20 0 -23 20q-28 225 -80 463l-123 486q-3 10 3 17t18 7h188q22 0 25 -18l90 -342q39 -189 39 -338q1 -11 7.5 -15.5t14 0t11.5 15.5q50 149 155 338l205 346q8 14 27 14h198q14 0 18 -7.5t-3 -18.5z" />
<glyph unicode="w" horiz-adv-x="1638" d="M1638 967l-264 -566q-104 -222 -172 -383q-6 -18 -24 -18h-232q-19 0 -22 20q-3 23 -7.5 66t-9 79l-8.5 68l-39 218q-9 85 -12 149q0 20 -10.5 19.5t-16.5 -19.5q-30 -76 -63 -149l-109 -218q-61 -132 -96 -217q-10 -16 -27 -16h-229q-22 0 -25 23q-3 42 -36 378l-74 568 q-3 24 20 24h185q19 0 22 -20l47 -357q14 -187 17 -327q1 -11 7 -15.5t13 0t12 15.5q29 71 162 362l160 326q8 16 27 16h120q22 0 25 -20l57 -322q30 -285 35 -362q1 -11 7.5 -15.5t14 0t11.5 15.5q39 115 129 327l164 361q10 16 26 16h199q12 0 17 -7t-1 -19z" />
<glyph unicode="x" horiz-adv-x="1097" d="M1079 967l-280 -353q-62 -78 -117 -100q-5 -3 -8 -8q0 -3 -1 -4.5t2 -4t3.5 -3.5t4.5 -3.5t5 -3.5q43 -34 70 -100l166 -360q6 -12 0.5 -19.5t-17.5 -7.5h-194q-17 0 -27 16l-139 308q-11 23 -31 0l-246 -312q-9 -12 -26 -12h-215q-14 0 -18 8t5 19l287 360 q59 77 117 109q13 7 2 18q-47 28 -76 100l-164 353q-6 12 -0.5 19t17.5 7h190q17 0 27 -16l139 -303q5 -12 13.5 -12t17.5 12l239 305q8 14 27 14h215q14 0 17.5 -7.5t-5.5 -18.5z" />
<glyph unicode="y" horiz-adv-x="1138" d="M1149 967l-801 -1391q-8 -16 -26 -16h-193q-13 0 -17.5 8t3.5 18l149 260q56 105 61.5 233t-36.5 320l-142 570q-3 10 3 17t18 7h188q22 0 25 -18l98 -385q33 -152 33 -293q0 -15 6 -21t14 -0.5t15 21.5q49 132 135 293l227 387q8 16 27 16h199q13 0 17.5 -7.5 t-3.5 -18.5z" />
<glyph unicode="z" horiz-adv-x="1003" d="M991 977q6 -16 -6 -31q-50 -55 -121 -151l-354 -461q-58 -75 -98 -111q-9 -9 -7.5 -15.5t13.5 -6.5q22 0 60 1t54 1h299q14 0 18.5 -7.5t-1.5 -19.5l-88 -160q-8 -16 -27 -16h-684q-18 0 -24 18q-6 14 6 29q38 42 131 162l346 448q42 66 96 113q23 23 -4 23 q-39 -2 -113 -2h-292q-24 0 -21 24l27 158q3 20 24 20h740q18 0 26 -16z" />
<glyph unicode="{" horiz-adv-x="776" d="M823 1534l-28 -158q-3 -20 -25 -20q-70 -6 -121 -52t-61 -114l-51 -309q-12 -70 -41 -116.5t-82 -78.5q-16 -10 -21 -13.5t-9.5 -9.5t0.5 -10.5t17 -11.5q41 -23 57 -76.5t5 -122.5l-51 -303q-21 -141 125 -153q23 0 20 -25l-27 -158q-3 -20 -24 -20q-169 6 -250.5 105 t-52.5 266l49 303q18 112 -80 112h-20q-24 0 -21 25l29 158q3 20 24 20h9q51 0 88.5 34.5t46.5 90.5l51 307q26 164 136.5 256.5t287.5 98.5q23 0 20 -25z" />
<glyph unicode="|" horiz-adv-x="608" d="M586 1524l-330 -1946q-3 -20 -25 -20h-168q-23 0 -20 24l330 1946q3 20 24 20h168q24 0 21 -24z" />
<glyph unicode="}" horiz-adv-x="776" d="M12 -193l29 158q3 21 25 21q70 6 121 52t61 114l51 309q12 70 41 116t82 78q15 9 21 13t9.5 10t-1.5 10.5t-17 11.5q-40 23 -56 76.5t-5 122.5l51 303q22 142 -125 154q-23 0 -20 24l26 158q3 21 25 21q169 -6 250.5 -105t52.5 -266l-49 -303q-18 -113 80 -113h20 q24 0 21 -24l-29 -158q-3 -21 -25 -21h-8q-51 0 -88.5 -34.5t-46.5 -90.5l-51 -307q-26 -164 -136.5 -256t-287.5 -98q-24 0 -21 24z" />
<glyph unicode="~" horiz-adv-x="1144" d="M121 569l129 170q103 138 246 138q69 0 125 -50l69 -69q32 -21 53 -21q36 0 66 41l61 80q8 14 27 14h184q15 0 19.5 -8t-4.5 -18l-129 -174q-98 -133 -242 -133q-70 0 -125 49l-78 69q-24 19 -47 19q-36 0 -67 -39l-62 -80q-8 -14 -27 -14h-184q-13 0 -17.5 7.5t3.5 18.5 z" />
<glyph unicode="&#xa2;" horiz-adv-x="970" d="M899 1208l-63 19q-61 20 -123 20q-77 0 -138 -28.5t-98.5 -72.5t-62 -101t-34 -109t-9.5 -102q0 -103 51 -157t153 -54q67 0 162 24l78 21q24 7 27 -19l20 -155q3 -21 -18 -27l-86 -23q-63 -20 -140 -26l-30 -178q-3 -21 -25 -21h-166q-23 0 -20 25l35 192 q-131 36 -199 136t-68 251q0 75 14 150t47.5 151.5t83 139t126.5 110t172 66.5l30 186q3 21 25 21h168q23 0 20 -25l-30 -176q34 -4 96 -23l88 -26q24 -6 14 -29l-71 -147q-9 -19 -29 -13z" />
<glyph unicode="&#xa3;" horiz-adv-x="1206" d="M1049 1188l-50 18q-73 27 -141 27q-113 0 -192.5 -66t-98.5 -176l-35 -203h308q23 0 20 -24l-29 -160q-3 -20 -24 -20h-309l-25 -146q-11 -66 -29 -111.5t-57 -101.5q-8 -12 -5.5 -18.5t15.5 -5.5q70 10 195 10h444q24 0 21 -25l-29 -166q-3 -20 -24 -20h-910 q-16 0 -26 16l-5 11q-7 14 3 30l51 70q100 138 125 293l28 164h-164q-23 0 -20 24l29 160q3 20 24 20h166l37 218q35 211 176 328.5t350 117.5q117 0 224 -43l59 -20q21 -9 12 -31l-84 -160q-9 -19 -30 -10z" />
<glyph unicode="&#xa5;" horiz-adv-x="1404" d="M1090 893l-99 -135h176q24 0 21 -25l-23 -123q-3 -20 -24 -20h-258q-42 -82 -54 -117h289q24 0 21 -24l-23 -123q-3 -21 -24 -21h-306l-2 -6l-45 -279q-3 -20 -24 -20h-189q-23 0 -20 25l45 274l2 6h-324q-23 0 -20 25l20 123q3 20 25 20h313q-3 57 -12 117h-276 q-24 0 -21 24l23 123q3 21 24 21h199q-21 62 -51 135l-217 512q-4 12 1 19.5t17 7.5h199q16 0 26 -17l158 -364q65 -151 88 -277q3 -15 14 -15t19 15q91 166 174 277l282 366q9 15 27 15h221q13 0 18 -8t-3 -19z" />
<glyph unicode="&#xa7;" horiz-adv-x="1249" d="M590 936l295 -123q245 -100 245 -313q0 -112 -45.5 -194.5t-148.5 -137.5q-37 -18 -10 -37q96 -73 96 -192q0 -58 -16.5 -112t-57.5 -107.5t-102.5 -93.5t-159 -64.5t-219.5 -24.5q-102 0 -187.5 17t-191.5 53l-104 37q-23 10 -11 30l78 148q9 18 31 12l98 -37 q145 -53 293 -53q152 0 235 55t83 135q0 76 -109 121l-309 127q-238 100 -238 303q0 218 203 338q17 10 19.5 16t-9.5 21q-32 28 -50 49.5t-34 61.5t-16 90q0 55 16.5 108t56 105t98 91t149.5 63t204 24q160 0 311 -53l111 -39q22 -10 10 -31l-80 -147q-9 -19 -30 -13 l-93 35q-119 43 -233 43q-131 0 -210 -51t-79 -137q0 -76 111 -123zM760 639l-162 66q-19 8 -49 8q-84 0 -138.5 -67t-54.5 -132q0 -54 39 -91t127 -75l148 -59q23 -10 55 -10q83 0 134.5 63t51.5 129q0 58 -39 98t-112 70z" />
<glyph unicode="&#xa8;" horiz-adv-x="784" d="M358 1501q54 0 84.5 -30.5t30.5 -84.5q0 -62 -33.5 -104.5t-101.5 -42.5q-56 0 -86.5 29.5t-30.5 83.5q0 71 35.5 110t101.5 39zM721 1501q54 0 84.5 -30.5t30.5 -84.5q0 -62 -33.5 -104.5t-102.5 -42.5q-55 0 -85.5 29.5t-30.5 83.5q0 71 35.5 110t101.5 39z" />
<glyph unicode="&#xa9;" horiz-adv-x="1615" d="M807 1452q160 0 294 -53.5t227.5 -149t145.5 -233t52 -301.5q0 -219 -89 -386.5t-252.5 -259.5t-377.5 -92q-213 0 -376.5 92t-253 259.5t-89.5 386.5q0 331 198 534t521 203zM807 1321q-264 0 -426 -167t-162 -439t162 -439t426 -167q265 0 427.5 167t162.5 439 t-162.5 439t-427.5 167zM1020 354l-43 -12q-79 -27 -168 -27q-162 0 -257 108.5t-95 293.5q0 184 94.5 291.5t257.5 107.5q91 0 170 -26l41 -15q23 -7 14 -28l-26 -82q-11 -21 -29 -15l-41 15q-60 18 -129 18q-99 0 -155 -69.5t-56 -196.5t56 -197.5t155 -70.5q79 0 127 18 l43 12q20 7 27 -14l28 -82q10 -22 -14 -29z" />
<glyph unicode="&#xaa;" horiz-adv-x="819" d="M299 1399l63 16q83 25 179 25q164 0 244 -83t55 -229l-80 -466q-3 -21 -25 -21h-84q-22 0 -22 23v34q-3 27 -29 4q-96 -77 -242 -77q-129 0 -189.5 64.5t-41.5 178.5q19 113 106 178.5t224 65.5h205l2 12q12 75 -28 116.5t-128 41.5q-59 0 -133 -18l-53 -17 q-27 -7 -27 19l-14 106q-3 21 18 27zM637 973h-205q-115 0 -131 -90q-8 -47 20 -75t87 -28q199 0 227 181zM45 319l18 113q3 21 25 21h608q24 0 21 -25l-19 -113q-3 -20 -24 -20h-608q-24 0 -21 24z" />
<glyph unicode="&#xab;" horiz-adv-x="1245" d="M373 496l202 -361q6 -11 1.5 -18.5t-17.5 -7.5h-190q-19 0 -27 16l-192 342q-9 12 -9 27v8q0 17 11 28l311 344q10 13 26 13h201q14 0 17.5 -8.5t-5.5 -20.5zM817 496l203 -361q6 -11 1.5 -18.5t-17.5 -7.5h-191q-19 0 -27 16l-192 342q-8 11 -8 27v8q0 18 10 28l311 344 q10 13 27 13h201q14 0 17.5 -8.5t-5.5 -20.5z" />
<glyph unicode="&#xad;" horiz-adv-x="894" d="M197 637h546q24 0 21 -25l-27 -157q-3 -21 -24 -21h-547q-24 0 -21 25l27 157q3 21 25 21z" />
<glyph unicode="&#xae;" horiz-adv-x="1615" d="M807 1452q160 0 294 -53.5t227.5 -149t145.5 -233t52 -301.5q0 -219 -89 -386.5t-252.5 -259.5t-377.5 -92q-213 0 -376.5 92t-253 259.5t-89.5 386.5q0 331 198 534t521 203zM807 1321q-264 0 -426 -167t-162 -439t162 -439t426 -167q265 0 427.5 167t162.5 439 t-162.5 439t-427.5 167zM563 1087h285q119 0 184.5 -58.5t65.5 -162.5q0 -71 -39.5 -119.5t-102.5 -68.5q-21 -8 -2 -19q73 -46 103 -124l71 -164q6 -12 1 -19.5t-17 -7.5h-96q-18 0 -27 18l-49 121q-33 74 -75 106t-124 32h-65v-254q0 -23 -23 -23h-90q-22 0 -22 23v698 q0 22 22 22zM676 958v-217h127q78 0 122 29.5t44 85.5q0 52 -33 77t-88 25h-172z" />
<glyph unicode="&#xb0;" horiz-adv-x="663" d="M489 1466q115 0 178.5 -56t63.5 -157q0 -45 -10 -89t-34 -88.5t-60 -78t-92 -54.5t-125 -21q-114 0 -178 57t-64 160q0 62 19 118.5t56 104t100.5 76t145.5 28.5zM475 1309q-61 0 -97 -45t-36 -103q0 -38 21 -59t59 -21q63 0 100 43.5t37 104.5q0 80 -84 80z" />
<glyph unicode="&#xb4;" horiz-adv-x="614" d="M438 1468h209q14 0 17.5 -8t-5.5 -20l-239 -266q-10 -13 -27 -13h-151q-13 0 -18 8.5t3 18.5l185 266q11 14 26 14z" />
<glyph unicode="&#xb6;" horiz-adv-x="1388" d="M1303 1407l-236 -1387q-3 -20 -25 -20h-118q-24 0 -21 25l211 1247h-166l-211 -1252q-3 -20 -24 -20h-121q-24 0 -21 25l109 624q-76 0 -146 21t-126.5 60.5t-90.5 104t-34 144.5q0 60 14.5 119.5t49 120.5t86 107.5t132 76t180.5 29.5h537q24 0 21 -25z" />
<glyph unicode="&#xb7;" horiz-adv-x="501" d="M276 668q73 0 108.5 -44t23.5 -118q-12 -64 -52 -98.5t-102 -34.5q-72 0 -106.5 44t-22.5 118q12 64 51 98.5t100 34.5z" />
<glyph unicode="&#xb8;" horiz-adv-x="641" d="M233 -84h13q62 0 98.5 -37.5t36.5 -103.5q0 -33 -8 -65t-27 -63.5t-47 -55.5t-71.5 -39t-96.5 -15q-46 0 -102 17l-31 12q-10 3 -13.5 11t1.5 17l55 107q9 18 31 12l26 -10q27 -8 58 -8q38 0 59 19.5t21 52.5q0 49 -64 49h-70q-17 0 -28 14q-6 13 2 27l86 166q8 16 26 16 h84q13 0 18 -8.5t-1 -18.5z" />
<glyph unicode="&#xba;" horiz-adv-x="952" d="M598 1440q171 0 252 -110t49 -298q-31 -188 -149.5 -298.5t-290.5 -110.5q-169 0 -250 111t-49 298t150.5 297.5t287.5 110.5zM569 1282q-92 0 -154.5 -66.5t-82.5 -183.5t21 -183.5t132 -66.5q95 0 159.5 66.5t84.5 183.5t-22.5 183.5t-137.5 66.5zM125 453h608 q24 0 21 -25l-19 -113q-3 -20 -24 -20h-609q-23 0 -20 24l18 113q3 21 25 21z" />
<glyph unicode="&#xbb;" horiz-adv-x="1333" d="M516 500l-203 360q-6 10 -1 18.5t18 8.5h190q18 0 27 -17l192 -342q9 -12 9 -26v-8q0 -18 -11 -29l-311 -344q-9 -12 -27 -12h-200q-14 0 -18 8t5 20zM961 500l-203 360q-6 10 -1.5 18.5t17.5 8.5h191q17 0 26 -17l193 -342q8 -11 8 -26v-8q0 -19 -10 -29l-312 -344 q-9 -12 -26 -12h-201q-14 0 -17.5 8t5.5 20z" />
<glyph unicode="&#xc1;" horiz-adv-x="1478" d="M1036 1845h244q15 0 18.5 -8.5t-8.5 -19.5l-252 -218q-10 -10 -28 -10h-172q-15 0 -19 8.5t6 18.5l185 217q9 12 26 12zM391 274l-145 -258q-8 -16 -27 -16h-205q-13 0 -17.5 8t1.5 19l512 899q173 322 242 489q10 17 26 17h252q22 0 25 -23q14 -184 71 -483l195 -901 q3 -10 -2 -17.5t-16 -7.5h-189q-21 0 -24 20l-54 254h-645zM991 481l-61 269q-46 235 -49 378q-1 11 -7.5 15.5t-14 0t-11.5 -15.5q-62 -161 -186 -378l-154 -269h483z" />
<glyph unicode="&#xc4;" horiz-adv-x="1478" d="M797 1843q57 0 86.5 -25.5t29.5 -72.5q0 -61 -37 -107.5t-118 -46.5q-119 0 -119 99q0 64 37 108.5t121 44.5zM1184 1843q57 0 86.5 -25.5t29.5 -72.5q0 -61 -37 -107.5t-118 -46.5q-119 0 -119 99q0 64 37 108.5t121 44.5zM391 274l-145 -258q-8 -16 -27 -16h-205 q-13 0 -17.5 8t1.5 19l512 899q173 322 242 489q10 17 26 17h252q22 0 25 -23q14 -184 71 -483l195 -901q3 -10 -2 -17.5t-16 -7.5h-189q-21 0 -24 20l-54 254h-645zM991 481l-61 269q-46 235 -49 378q-1 11 -7.5 15.5t-14 0t-11.5 -15.5q-62 -161 -186 -378l-154 -269h483z " />
<glyph unicode="&#xc9;" horiz-adv-x="1245" d="M936 1845h244q15 0 18.5 -8.5t-8.5 -19.5l-252 -218q-10 -10 -29 -10h-172q-15 0 -18.5 8.5t6.5 18.5l184 217q9 12 27 12zM451 838h567q23 0 20 -25l-28 -160q-3 -20 -25 -20h-571l-70 -426h727q24 0 21 -25l-29 -162q-3 -20 -25 -20h-940q-23 0 -20 25l233 1386 q3 21 25 21h942q12 0 17 -7.5t-1 -19.5l-71 -164q-10 -16 -27 -16h-682z" />
<glyph unicode="&#xcd;" horiz-adv-x="548" d="M553 1845h244q15 0 18.5 -8.5t-8.5 -19.5l-252 -218q-10 -10 -29 -10h-172q-15 0 -18.5 8.5t6.5 18.5l184 217q9 12 27 12zM287 0h-189q-23 0 -20 25l233 1386q3 21 25 21h188q24 0 21 -25l-234 -1387q-3 -20 -24 -20z" />
<glyph unicode="&#xd3;" horiz-adv-x="1456" d="M1024 1845h244q15 0 18.5 -8.5t-8.5 -19.5l-252 -218q-10 -10 -29 -10h-172q-15 0 -18.5 8.5t6.5 18.5l184 217q9 12 27 12zM877 1452q251 0 388.5 -148.5t137.5 -412.5q0 -80 -12.5 -164.5t-40 -174.5t-68.5 -172.5t-102.5 -156.5t-136.5 -128t-175.5 -86t-214.5 -32 q-250 0 -388 149.5t-138 412.5q0 115 24 235.5t81.5 243.5t141 218t214 155.5t289.5 60.5zM866 1241q-107 0 -195 -47.5t-143 -121.5t-93.5 -168.5t-54 -184.5t-15.5 -174q0 -170 77 -262.5t222 -92.5q107 0 195 48t143 122.5t93.5 169.5t54 184.5t15.5 172.5 q0 171 -76.5 262.5t-222.5 91.5z" />
<glyph unicode="&#xd6;" horiz-adv-x="1456" d="M784 1843q57 0 87 -25.5t30 -72.5q0 -61 -37.5 -107.5t-118.5 -46.5q-118 0 -118 99q0 64 36.5 108.5t120.5 44.5zM1171 1843q57 0 87 -25.5t30 -72.5q0 -61 -37 -107.5t-118 -46.5q-119 0 -119 99q0 64 36.5 108.5t120.5 44.5zM877 1452q251 0 388.5 -148.5 t137.5 -412.5q0 -80 -12.5 -164.5t-40 -174.5t-68.5 -172.5t-102.5 -156.5t-136.5 -128t-175.5 -86t-214.5 -32q-250 0 -388 149.5t-138 412.5q0 115 24 235.5t81.5 243.5t141 218t214 155.5t289.5 60.5zM866 1241q-107 0 -195 -47.5t-143 -121.5t-93.5 -168.5t-54 -184.5 t-15.5 -174q0 -170 77 -262.5t222 -92.5q107 0 195 48t143 122.5t93.5 169.5t54 184.5t15.5 172.5q0 171 -76.5 262.5t-222.5 91.5z" />
<glyph unicode="&#xda;" horiz-adv-x="1376" d="M963 1845h243q15 0 19 -8.5t-8 -19.5l-252 -218q-10 -10 -29 -10h-172q-15 0 -18.5 8.5t6.5 18.5l184 217q9 12 27 12zM1395 1407l-144 -838q-47 -283 -217 -437.5t-428 -154.5q-264 0 -384 160t-70 445l139 829q3 21 24 21h189q23 0 20 -25l-143 -838 q-29 -184 34 -281.5t210 -97.5q157 0 261.5 103.5t133.5 288.5l141 829q3 21 25 21h188q24 0 21 -25z" />
<glyph unicode="&#xdc;" horiz-adv-x="1376" d="M723 1843q57 0 87 -25.5t30 -72.5q0 -61 -37.5 -107.5t-118.5 -46.5q-119 0 -119 99q0 64 37 108.5t121 44.5zM1110 1843q57 0 87 -25.5t30 -72.5q0 -61 -37.5 -107.5t-118.5 -46.5q-119 0 -119 99q0 64 37 108.5t121 44.5zM1395 1407l-144 -838q-47 -283 -217 -437.5 t-428 -154.5q-264 0 -384 160t-70 445l139 829q3 21 24 21h189q23 0 20 -25l-143 -838q-29 -184 34 -281.5t210 -97.5q157 0 261.5 103.5t133.5 288.5l141 829q3 21 25 21h188q24 0 21 -25z" />
<glyph unicode="&#xdd;" horiz-adv-x="1384" d="M958 1845h244q15 0 18.5 -8.5t-8.5 -19.5l-251 -218q-10 -10 -29 -10h-172q-15 0 -18.5 8.5t6.5 18.5l184 217q9 12 26 12zM1466 1405l-387 -512q-66 -91 -85.5 -118t-64.5 -93t-59 -95t-38.5 -82t-36 -100t-21.5 -106l-45 -279q-3 -20 -24 -20h-189q-23 0 -20 25l45 274 q10 59 14.5 106.5t-0.5 98t-10.5 84.5t-25 93t-32.5 95t-45 117l-217 512q-4 12 1.5 19.5t17.5 7.5h198q17 0 27 -17l158 -364q65 -151 88 -277q3 -15 14 -15t19 15q91 166 174 277l282 366q9 15 27 15h221q13 0 17.5 -8t-3.5 -19z" />
<glyph unicode="&#xdf;" horiz-adv-x="1251" d="M57 25l164 976q41 234 183.5 362t359.5 128q179 0 275 -74t96 -207q0 -162 -129 -280l-119 -107q-66 -58 -66 -102q0 -40 58 -80l108 -70q85 -53 124.5 -110t39.5 -129q0 -68 -24 -130t-72 -113t-130 -81.5t-188 -30.5q-113 0 -243 48l-70 22q-21 9 -12 31l71 149 q6 19 29 13l55 -21q96 -35 176 -35q88 0 135.5 35t47.5 88q0 51 -62 90l-127 84q-141 93 -141 219q0 75 27 135t98 126l104 94q84 73 84 135q0 94 -151 94q-121 0 -203.5 -80.5t-105.5 -218.5l-162 -965q-3 -20 -25 -20h-184q-24 0 -21 25z" />
<glyph unicode="&#xe1;" horiz-adv-x="1148" d="M809 1468h209q14 0 17.5 -8t-5.5 -20l-239 -266q-10 -13 -27 -13h-152q-13 0 -17.5 8.5t3.5 18.5l184 266q11 14 27 14zM793 23l8 127q-3 30 -13 31t-38 -29q-67 -83 -142.5 -129t-175.5 -46q-166 0 -259 100.5t-93 278.5q0 86 19.5 174t65 176t111.5 155.5t168 110 t226 42.5q106 0 217 -31l188 -49q21 -6 17 -27l-148 -887q-3 -20 -24 -20h-107q-23 0 -20 23zM842 772l-56 16q-61 21 -127 21q-90 0 -161.5 -45t-111.5 -113.5t-60.5 -140t-20.5 -135.5q0 -89 45 -140t123 -51q123 0 218 136t134 352z" />
<glyph unicode="&#xe4;" horiz-adv-x="1148" d="M573 1501q54 0 84.5 -30.5t30.5 -84.5q0 -62 -33.5 -104.5t-101.5 -42.5q-56 0 -86.5 29.5t-30.5 83.5q0 71 35.5 110t101.5 39zM936 1501q54 0 84.5 -30.5t30.5 -84.5q0 -62 -33.5 -104.5t-102.5 -42.5q-55 0 -85.5 29.5t-30.5 83.5q0 71 35.5 110t101.5 39zM793 23 l8 127q-3 30 -13 31t-38 -29q-67 -83 -142.5 -129t-175.5 -46q-166 0 -259 100.5t-93 278.5q0 86 19.5 174t65 176t111.5 155.5t168 110t226 42.5q106 0 217 -31l188 -49q21 -6 17 -27l-148 -887q-3 -20 -24 -20h-107q-23 0 -20 23zM842 772l-56 16q-61 21 -127 21 q-90 0 -161.5 -45t-111.5 -113.5t-60.5 -140t-20.5 -135.5q0 -89 45 -140t123 -51q123 0 218 136t134 352z" />
<glyph unicode="&#xe9;" horiz-adv-x="1038" d="M748 1468h208q14 0 18 -8t-5 -20l-240 -266q-10 -13 -27 -13h-151q-13 0 -17.5 8.5t3.5 18.5l184 266q11 14 27 14zM799 31l-101 -25q-113 -29 -204 -29q-199 0 -306.5 108.5t-107.5 299.5q0 83 18 167t60 168t103.5 148.5t158 105t213.5 40.5q165 0 258.5 -74t93.5 -203 t-79.5 -214.5t-270.5 -114.5l-330 -48q2 -82 51.5 -129t143.5 -47q82 0 182 23l94 24q24 6 27 -18l14 -158q3 -21 -18 -24zM317 537l297 43q78 11 114 45.5t36 81.5q0 48 -37.5 75t-105.5 27q-109 0 -188 -67.5t-116 -204.5z" />
<glyph unicode="&#xed;" horiz-adv-x="573" d="M682 1442l-180 -266q-12 -15 -29 -15h-137q-12 0 -16.5 7.5t-0.5 19.5l130 264q10 16 26 16h193q13 0 17.5 -8t-3.5 -18zM334 0h-184q-24 0 -21 25l129 766h-98q-24 0 -21 24l27 158q3 20 24 20h308q23 0 20 -24l-160 -949q-3 -20 -24 -20z" />
<glyph unicode="&#xf3;" horiz-adv-x="1124" d="M780 1468h209q14 0 17.5 -8t-5.5 -20l-239 -266q-10 -13 -27 -13h-151q-13 0 -18 8.5t3 18.5l185 266q11 14 26 14zM635 1014q194 0 301.5 -108t107.5 -298q0 -81 -18 -165t-60.5 -168.5t-104.5 -150t-158.5 -106.5t-213.5 -41q-194 0 -301.5 109t-107.5 299q0 82 18 166 t61 168.5t105 149t158 105t213 40.5zM629 809q-69 0 -126 -28t-93 -71.5t-60.5 -99.5t-34.5 -109t-10 -102q0 -103 49.5 -159t141.5 -56q69 0 125.5 28t92 71.5t60.5 99.5t35 109t10 102q0 103 -49 159t-141 56z" />
<glyph unicode="&#xf6;" horiz-adv-x="1124" d="M545 1501q54 0 84 -30.5t30 -84.5q0 -62 -33.5 -104.5t-101.5 -42.5q-55 0 -85.5 29.5t-30.5 83.5q0 71 35.5 110t101.5 39zM907 1501q54 0 84.5 -30.5t30.5 -84.5q0 -62 -33.5 -104.5t-101.5 -42.5q-56 0 -86.5 29.5t-30.5 83.5q0 71 35.5 110t101.5 39zM635 1014 q194 0 301.5 -108t107.5 -298q0 -81 -18 -165t-60.5 -168.5t-104.5 -150t-158.5 -106.5t-213.5 -41q-194 0 -301.5 109t-107.5 299q0 82 18 166t61 168.5t105 149t158 105t213 40.5zM629 809q-69 0 -126 -28t-93 -71.5t-60.5 -99.5t-34.5 -109t-10 -102q0 -103 49.5 -159 t141.5 -56q69 0 125.5 28t92 71.5t60.5 99.5t35 109t10 102q0 103 -49 159t-141 56z" />
<glyph unicode="&#xfa;" horiz-adv-x="1138" d="M780 1468h209q14 0 17.5 -8t-5.5 -20l-239 -266q-10 -13 -27 -13h-151q-13 0 -18 8.5t3 18.5l185 266q11 14 26 14zM772 23l-6 75q-4 13 -10.5 17.5t-15.5 0.5t-23 -16q-128 -120 -299 -120q-179 0 -261.5 106t-50.5 289l101 598q3 20 24 20h185q23 0 20 -24l-98 -586 q-17 -96 17.5 -147.5t113.5 -51.5q118 0 198.5 84.5t106.5 233.5l78 471q3 20 25 20h184q23 0 20 -24l-157 -949q-3 -20 -25 -20h-102q-22 0 -25 23z" />
<glyph unicode="&#xfc;" horiz-adv-x="1138" d="M545 1501q54 0 84 -30.5t30 -84.5q0 -62 -33.5 -104.5t-101.5 -42.5q-55 0 -85.5 29.5t-30.5 83.5q0 71 35.5 110t101.5 39zM907 1501q54 0 84.5 -30.5t30.5 -84.5q0 -62 -33.5 -104.5t-101.5 -42.5q-56 0 -86.5 29.5t-30.5 83.5q0 71 35.5 110t101.5 39zM772 23l-6 75 q-4 13 -10.5 17.5t-15.5 0.5t-23 -16q-128 -120 -299 -120q-179 0 -261.5 106t-50.5 289l101 598q3 20 24 20h185q23 0 20 -24l-98 -586q-17 -96 17.5 -147.5t113.5 -51.5q118 0 198.5 84.5t106.5 233.5l78 471q3 20 25 20h184q23 0 20 -24l-157 -949q-3 -20 -25 -20h-102 q-22 0 -25 23z" />
<glyph unicode="&#xfd;" horiz-adv-x="1138" d="M774 1468h209q14 0 17.5 -8t-5.5 -20l-239 -266q-10 -13 -27 -13h-151q-13 0 -18 8.5t3 18.5l185 266q11 14 26 14zM322 -440h-193q-13 0 -17.5 8t3.5 18l149 260q56 105 61.5 233t-36.5 320l-142 570q-3 10 3 17t18 7h188q22 0 25 -18l98 -385q33 -152 33 -293 q0 -15 6 -21t14 -0.5t15 21.5q49 132 135 293l227 387q8 16 27 16h199q13 0 17.5 -7.5t-3.5 -18.5l-801 -1391q-8 -16 -26 -16z" />
<glyph unicode="&#x10c;" horiz-adv-x="1267" d="M991 1585h-225q-16 0 -27 14l-157 216q-9 11 -5 18.5t19 7.5h164q16 0 28 -12l109 -109l154 113q11 8 28 8h156q15 0 19 -9.5t-7 -19.5l-227 -217q-13 -10 -29 -10zM1184 1397l80 -29q22 -9 12 -29l-78 -151q-9 -18 -31 -12l-84 30q-92 35 -213 35q-107 0 -195 -47 t-144 -120t-95 -167t-55 -183.5t-16 -172.5q0 -179 79 -270t234 -91q118 0 242 39l94 29q23 10 26 -14l33 -164q3 -22 -16 -27l-103 -33q-139 -43 -301 -43q-249 0 -387.5 151t-138.5 415q0 95 18 195t54.5 203.5t98.5 194t143.5 162t197 113t250.5 41.5q143 0 295 -55z" />
<glyph unicode="&#x10d;" horiz-adv-x="970" d="M725 1161h-166q-19 0 -27 17l-147 264q-6 10 -1.5 18t17.5 8h140q15 0 26 -14l99 -139l149 143q13 10 29 10h133q15 0 18 -8t-6 -20l-237 -266q-10 -13 -27 -13zM778 29l-86 -23q-98 -29 -190 -29q-204 0 -313 108t-109 300q0 85 17.5 168.5t60.5 168t106.5 148.5 t164 104t224.5 40q83 0 178 -29l89 -27q23 -6 14 -28l-72 -148q-9 -18 -28 -12l-64 18q-64 21 -123 21q-77 0 -138 -29t-98.5 -73t-62 -101t-34 -109t-9.5 -102q0 -102 51.5 -156.5t153.5 -54.5q64 0 162 25l78 20q23 7 26 -18l21 -156q3 -20 -19 -26z" />
<glyph unicode="&#x10e;" horiz-adv-x="1390" d="M969 1589h-226q-14 0 -26 15l-158 215q-9 11 -5 18.5t19 7.5h164q17 0 29 -12l108 -109l154 113q11 8 29 8h155q15 0 19 -8.5t-6 -19.5l-228 -218q-13 -10 -28 -10zM336 1432h477q250 0 387 -145.5t137 -403.5q0 -80 -12.5 -163t-41 -170t-69.5 -166.5t-103 -150 t-137 -122t-174.5 -81.5t-213.5 -30h-488q-23 0 -20 25l233 1386q3 21 25 21zM342 207h264q89 0 164.5 31.5t128.5 86t93 122t63.5 144t35 148t11.5 138.5q0 168 -79.5 258t-229.5 90h-279z" />
<glyph unicode="&#x10f;" horiz-adv-x="1173" d="M1184 1444l-240 -1424q-3 -20 -24 -20h-101q-21 0 -24 23l-4 75q-4 14 -9.5 18.5t-14.5 1t-26 -17.5q-135 -123 -292 -123q-176 0 -272.5 106.5t-96.5 293.5q0 69 12.5 139.5t38.5 143t70.5 135.5t102.5 112.5t141 78t180 28.5q117 0 192 -37l53 -27l84 498q3 20 25 20 h184q24 0 21 -24zM1337 1468h131q24 0 21 -24l-12 -64q-10 -78 -74 -176l-17 -28q-12 -15 -28 -15h-103q-12 0 -17 7.5t1 19.5l16 39q28 56 45 145l13 76q3 20 24 20zM840 754l-52 22q-71 33 -157 33q-70 0 -127.5 -28.5t-93.5 -72t-60.5 -100t-34.5 -109.5t-10 -102 q0 -102 48.5 -157.5t140.5 -55.5q118 0 197.5 83.5t103.5 221.5z" />
<glyph unicode="&#x11a;" horiz-adv-x="1245" d="M958 1589h-225q-14 0 -26 15l-158 215q-9 11 -5 18.5t19 7.5h164q17 0 29 -12l108 -109l154 113q11 8 29 8h155q15 0 18.5 -8.5t-6.5 -19.5l-227 -218q-13 -10 -29 -10zM514 1225l-63 -387h567q23 0 20 -25l-28 -160q-3 -20 -25 -20h-571l-70 -426h727q24 0 21 -25 l-29 -162q-3 -20 -25 -20h-940q-23 0 -20 25l233 1386q3 21 25 21h942q12 0 17 -7.5t-1 -19.5l-71 -164q-10 -16 -27 -16h-682z" />
<glyph unicode="&#x11b;" horiz-adv-x="1038" d="M727 1161h-166q-17 0 -26 17l-148 264q-6 10 -1.5 18t17.5 8h140q15 0 26 -14l99 -139l149 143q13 10 29 10h133q15 0 18 -8t-6 -20l-237 -266q-10 -13 -27 -13zM799 31l-101 -25q-113 -29 -204 -29q-199 0 -306.5 108.5t-107.5 299.5q0 83 18 167t60 168t103.5 148.5 t158 105t213.5 40.5q165 0 258.5 -74t93.5 -203t-79.5 -214.5t-270.5 -114.5l-330 -48q2 -82 51.5 -129t143.5 -47q82 0 182 23l94 24q24 6 27 -18l14 -158q3 -21 -18 -24zM317 537l297 43q78 11 114 45.5t36 81.5q0 48 -37.5 75t-105.5 27q-109 0 -188 -67.5t-116 -204.5z " />
<glyph unicode="&#x13f;" horiz-adv-x="1165" d="M344 211h645q24 0 21 -25l-29 -166q-3 -20 -25 -20h-858q-23 0 -20 25l233 1386q3 21 25 21h188q24 0 21 -25zM999 940q73 0 108 -44t23 -118q-12 -64 -51.5 -98.5t-101.5 -34.5q-72 0 -106.5 44t-22.5 118q12 64 51 98.5t100 34.5z" />
<glyph unicode="&#x140;" horiz-adv-x="737" d="M526 1444l-202 -1206q-10 -54 28 -54q15 0 19 2q23 0 26 -18l35 -143q3 -23 -14 -29q-49 -19 -99 -19q-127 0 -187 70t-38 193l203 1208q3 20 25 20h184q23 0 20 -24zM750 940q73 0 108 -44t23 -118q-12 -64 -51.5 -98.5t-102.5 -34.5q-72 0 -106.5 44t-22.5 118 q12 63 51.5 98t100.5 35z" />
<glyph unicode="&#x147;" horiz-adv-x="1470" d="M1026 1589h-225q-15 0 -27 15l-158 215q-9 11 -4.5 18.5t19.5 7.5h164q16 0 28 -12l109 -109l153 113q11 8 29 8h156q15 0 18.5 -8.5t-6.5 -19.5l-227 -218q-13 -10 -29 -10zM1257 1432h191q23 0 20 -25l-235 -1387q-3 -20 -25 -20h-233q-21 0 -27 18q-31 105 -74 209 l-321 713q-22 54 -51 147q-6 17 -19.5 13.5t-13.5 -21.5q-3 -121 -29 -284l-129 -775q-3 -20 -24 -20h-189q-23 0 -20 25l233 1386q3 21 25 21h233q21 0 27 -19q24 -82 74 -209l319 -704q35 -90 55 -156q6 -20 18.5 -15.5t10.5 23.5q2 108 31 281l129 778q3 21 24 21z" />
<glyph unicode="&#x148;" horiz-adv-x="1138" d="M784 1161h-166q-18 0 -26 17l-148 264q-6 10 -1 18t18 8h139q16 0 27 -14l98 -139l149 143q13 10 29 10h133q15 0 18.5 -8t-5.5 -20l-238 -266q-10 -13 -27 -13zM367 971l6 -76q4 -13 10.5 -17.5t15.5 -0.5t23 16q129 121 299 121q179 0 261 -106.5t50 -289.5l-100 -598 q-3 -20 -25 -20h-184q-24 0 -21 25l99 585q17 96 -17.5 147.5t-113.5 51.5q-118 0 -198.5 -84t-106.5 -233l-78 -472q-3 -20 -25 -20h-184q-24 0 -21 25l158 948q3 20 25 20h102q22 0 25 -22z" />
<glyph unicode="&#x158;" horiz-adv-x="1374" d="M958 1589h-225q-14 0 -26 15l-158 215q-9 11 -5 18.5t19 7.5h164q17 0 29 -12l108 -109l154 113q11 8 29 8h155q15 0 18.5 -8.5t-6.5 -19.5l-227 -218q-13 -10 -29 -10zM336 1432h559q194 0 298.5 -98t104.5 -265q0 -303 -331 -420q-24 -7 -26.5 -17.5t13.5 -19.5 q105 -62 156 -237l88 -350q3 -11 -2.5 -18t-17.5 -7h-189q-21 0 -24 18l-68 263q-24 94 -62.5 152.5t-109.5 91t-178 32.5h-146l-90 -537q-3 -20 -24 -20h-189q-23 0 -20 25l233 1386q3 21 25 21zM438 764h232q186 0 288.5 77t102.5 197q0 89 -53.5 138t-149.5 49h-344z" />
<glyph unicode="&#x159;" horiz-adv-x="806" d="M625 1161h-166q-19 0 -27 17l-147 264q-6 10 -1.5 18t17.5 8h139q16 0 27 -14l98 -139l150 143q13 10 28 10h134q15 0 18 -8t-6 -20l-238 -266q-10 -13 -26 -13zM367 973l16 -117q10 -35 37 -4q76 80 158.5 119t191.5 43q24 0 21 -25l-27 -160q-3 -20 -25 -20 q-169 -6 -266.5 -133.5t-146.5 -409.5l-39 -246q-3 -20 -25 -20h-184q-24 0 -21 25l158 948q3 20 25 20h104q20 0 23 -20z" />
<glyph unicode="&#x160;" horiz-adv-x="1241" d="M905 1585h-225q-16 0 -27 14l-157 216q-9 11 -5 18.5t19 7.5h164q16 0 28 -12l109 -109l154 113q11 8 28 8h156q15 0 19 -9.5t-7 -19.5l-227 -217q-13 -10 -29 -10zM612 862l213 -84q154 -62 226.5 -136t72.5 -191q0 -69 -17.5 -133t-60.5 -127t-107.5 -110t-166.5 -75.5 t-229 -28.5q-174 0 -383 76l-103 35q-21 9 -12 31l78 151q10 20 31 11l94 -35q157 -56 313 -56q147 0 237.5 61.5t90.5 158.5q0 114 -166 178l-223 88q-152 61 -217.5 132.5t-65.5 184.5q0 67 16.5 129t57.5 123t102 106t157 73t216 28q151 0 317 -57l113 -37q22 -10 10 -31 l-80 -151q-9 -19 -30 -13l-101 37q-125 41 -245 41q-135 0 -216 -59t-81 -158q0 -49 35.5 -88t123.5 -74z" />
<glyph unicode="&#x161;" horiz-adv-x="991" d="M680 1161h-166q-18 0 -27 17l-147 264q-6 10 -1.5 18t17.5 8h140q15 0 26 -14l99 -139l149 143q13 10 29 10h133q15 0 18 -8t-6 -20l-237 -266q-10 -13 -27 -13zM823 762l-80 22q-92 25 -188 25q-86 0 -136 -31t-50 -82q0 -50 75 -71l197 -56q113 -31 168 -89t55 -150 q0 -50 -12.5 -97.5t-44 -95t-79 -82t-123.5 -56.5t-171 -22q-159 0 -311 46l-82 24q-22 6 -12 29l71 149q9 19 29 13l64 -19q106 -35 249 -35q96 0 146.5 36.5t50.5 88.5q0 56 -80 78l-199 55q-110 29 -163.5 85.5t-53.5 144.5q0 70 25 130.5t74.5 108.5t131 75.5 t187.5 27.5q124 0 258 -35l90 -25q24 -6 15 -28l-72 -152q-9 -18 -29 -12z" />
<glyph unicode="&#x164;" horiz-adv-x="1308" d="M956 1589h-225q-14 0 -26 15l-158 215q-9 11 -5 18.5t19 7.5h164q17 0 29 -12l108 -109l154 113q11 8 28 8h156q15 0 18.5 -8.5t-6.5 -19.5l-227 -218q-13 -10 -29 -10zM260 1432h1104q23 0 20 -25l-28 -162q-3 -20 -25 -20h-434l-203 -1205q-3 -20 -24 -20h-191 q-23 0 -20 25l203 1200h-435q-23 0 -20 24l29 162q3 21 24 21z" />
<glyph unicode="&#x165;" horiz-adv-x="780" d="M752 1468h131q23 0 20 -24l-12 -64q-10 -78 -74 -176l-16 -28q-12 -15 -29 -15h-102q-12 0 -17.5 7.5t0.5 19.5l17 39q28 56 45 145l12 76q3 20 25 20zM522 993h228q23 0 20 -24l-27 -158q-3 -20 -24 -20h-232l-84 -498q-9 -52 7.5 -80.5t54.5 -28.5q28 0 55 9 q23 7 29 -15l41 -137q7 -20 -12 -29q-72 -35 -146 -35q-146 0 -214.5 83.5t-43.5 232.5l84 498h-98q-24 0 -21 24l27 158q3 20 24 20h103l39 236q3 18 20 24l197 62q12 3 19 -3t5 -18z" />
<glyph unicode="&#x16e;" horiz-adv-x="1376" d="M918 1878q79 0 123 -36t44 -101q0 -88 -61 -139.5t-164 -51.5q-79 0 -122.5 36.5t-43.5 101.5q0 88 60.5 139t163.5 51zM899 1782q-39 0 -62.5 -22.5t-23.5 -59.5q0 -25 17 -40t49 -15q40 0 64 21.5t24 57.5q0 28 -18 43t-50 15zM1395 1407l-144 -838 q-47 -283 -217 -437.5t-428 -154.5q-264 0 -384 160t-70 445l139 829q3 21 24 21h189q23 0 20 -25l-143 -838q-29 -184 34 -281.5t210 -97.5q157 0 261.5 103.5t133.5 288.5l141 829q3 21 25 21h188q24 0 21 -25z" />
<glyph unicode="&#x16f;" horiz-adv-x="1138" d="M729 1487q78 0 121 -36.5t43 -102.5q0 -33 -11.5 -66t-35 -65t-67.5 -52t-101 -20q-79 0 -121.5 35t-42.5 100q0 83 53 145t162 62zM717 1386q-36 0 -59.5 -23t-26.5 -60q-3 -60 59 -60q38 0 62 25.5t24 66.5q0 51 -59 51zM772 23l-6 75q-4 13 -10.5 17.5t-15.5 0.5 t-23 -16q-128 -120 -299 -120q-179 0 -261.5 106t-50.5 289l101 598q3 20 24 20h185q23 0 20 -24l-98 -586q-17 -96 17.5 -147.5t113.5 -51.5q118 0 198.5 84.5t106.5 233.5l78 471q3 20 25 20h184q23 0 20 -24l-157 -949q-3 -20 -25 -20h-102q-22 0 -25 23z" />
<glyph unicode="&#x17d;" horiz-adv-x="1288" d="M944 1589h-225q-15 0 -27 15l-157 215q-9 11 -5 18.5t19 7.5h164q16 0 28 -12l109 -109l154 113q11 8 28 8h156q15 0 18.5 -8.5t-6.5 -19.5l-227 -218q-13 -10 -29 -10zM1106 1100l-524 -690q-107 -140 -133 -172q-12 -15 -9.5 -24.5t19.5 -8.5q28 0 80.5 1t76.5 1h471 q12 0 17.5 -7.5t-0.5 -19.5l-74 -164q-10 -16 -26 -16h-936q-19 0 -25 18l-4 9q-6 15 6 30q91 107 219 283l518 678q77 111 138 174q9 10 11 18t-3.5 12.5t-16.5 4.5q-59 -2 -159 -2h-463q-24 0 -21 24l27 162q3 21 24 21h981q17 0 27 -17l4 -10q6 -16 -6 -31 q-118 -139 -219 -274z" />
<glyph unicode="&#x17e;" horiz-adv-x="1003" d="M707 1161h-166q-19 0 -27 17l-147 264q-6 10 -1.5 18t17.5 8h139q16 0 27 -14l98 -139l150 143q13 10 28 10h133q15 0 18.5 -8t-5.5 -20l-238 -266q-10 -13 -26 -13zM864 795l-354 -461q-58 -75 -98 -111q-9 -9 -7.5 -15.5t13.5 -6.5q22 0 60 1t54 1h299q14 0 18.5 -7.5 t-1.5 -19.5l-88 -160q-8 -16 -27 -16h-684q-18 0 -24 18q-6 14 6 29q38 42 131 162l346 448q42 66 96 113q23 23 -4 23q-39 -2 -113 -2h-292q-24 0 -21 24l27 158q3 20 24 20h740q16 0 26 -16q6 -17 -6 -31q-50 -55 -121 -151z" />
<glyph unicode="&#x2c6;" horiz-adv-x="839" d="M821 1161h-139q-15 0 -27 15l-98 139l-149 -144q-13 -10 -29 -10h-133q-15 0 -18.5 8.5t5.5 20.5l238 266q9 12 27 12h166q18 0 26 -16l148 -264q6 -10 1 -18.5t-18 -8.5z" />
<glyph unicode="&#x2da;" horiz-adv-x="548" d="M438 1487q78 0 121 -36.5t43 -102.5q0 -33 -11.5 -66t-35 -65t-67.5 -52t-101 -20q-79 0 -121.5 35t-42.5 100q0 83 53 145t162 62zM426 1386q-36 0 -59.5 -23t-26.5 -60q-3 -60 59 -60q38 0 62 25.5t24 66.5q0 51 -59 51z" />
<glyph unicode="&#x2dc;" horiz-adv-x="866" d="M221 1229l62 92q67 109 192 109q49 0 100 -33l70 -45q24 -17 43 -17q23 0 49 37l29 37q9 12 27 12h114q14 0 18 -7.5t-3 -18.5l-60 -92q-72 -109 -192 -109q-45 0 -99 33l-67 41q-32 20 -47 20q-24 0 -49 -35l-29 -36q-9 -15 -27 -15h-116q-13 0 -18 8t3 19z" />
<glyph unicode="&#x401;" horiz-adv-x="1245" d="M694 1843q57 0 87 -25.5t30 -72.5q0 -61 -37.5 -107.5t-118.5 -46.5q-118 0 -118 99q0 64 36.5 108.5t120.5 44.5zM1081 1843q57 0 87 -25.5t30 -72.5q0 -61 -37.5 -107.5t-118.5 -46.5q-118 0 -118 99q0 64 36.5 108.5t120.5 44.5zM451 838h567q23 0 20 -25l-28 -160 q-3 -20 -25 -20h-571l-70 -426h727q24 0 21 -25l-29 -162q-3 -20 -25 -20h-940q-23 0 -20 25l233 1386q3 21 25 21h942q12 0 17 -7.5t-1 -19.5l-71 -164q-10 -16 -27 -16h-682z" />
<glyph unicode="&#x409;" horiz-adv-x="2131" d="M1311 856h229q236 0 363 -100t127 -293q0 -69 -17 -133t-58 -125t-102.5 -106t-157.5 -72t-216 -27h-525q-23 0 -20 25l201 1192h-494l-129 -766q-30 -181 -120 -286t-257 -163l-90 -29q-10 -4 -17.5 0.5t-9.5 16.5l-28 162q-3 21 16 26l80 29q160 51 195 260l157 944 q3 21 25 21h917q24 0 21 -25zM1272 649l-72 -442h303q140 0 214.5 68t74.5 171q0 100 -70.5 151.5t-205.5 51.5h-244z" />
<glyph unicode="&#x40a;" horiz-adv-x="2078" d="M1257 854h230q233 0 361 -98t128 -283q0 -70 -16.5 -134.5t-57.5 -127t-101.5 -109t-156 -74.5t-214.5 -28h-527q-23 0 -20 25l104 624h-571l-105 -629q-3 -20 -24 -20h-189q-23 0 -20 25l233 1386q3 21 25 21h188q24 0 21 -25l-92 -553h571l92 557q3 21 25 21h190 q24 0 21 -25zM1223 649l-74 -442h303q137 0 212 72.5t75 175.5q0 94 -71.5 144t-205.5 50h-239z" />
<glyph unicode="&#x411;" horiz-adv-x="1343" d="M1296 1405l-71 -164q-10 -16 -27 -16h-684l-59 -363h315q223 0 345 -96.5t122 -278.5q0 -69 -16.5 -135t-57 -131t-101.5 -113t-157 -78t-215 -30h-592q-23 0 -20 25l233 1386q3 21 25 21h944q12 0 17 -7.5t-1 -19.5zM418 657l-74 -450h369q137 0 211.5 76.5t74.5 185.5 q0 188 -254 188h-327z" />
<glyph unicode="&#x412;" horiz-adv-x="1341" d="M336 1432h555q192 0 295.5 -82t103.5 -228q0 -140 -71 -232.5t-170 -129.5q-15 -5 -22 -11.5t-3 -13t18 -10.5q79 -26 133 -96t54 -180q0 -207 -147.5 -328t-399.5 -121h-584q-23 0 -20 25l233 1386q3 21 25 21zM451 838h280q152 0 237 64t85 171q0 71 -49.5 111.5 t-137.5 40.5h-352zM342 207h375q127 0 200.5 63.5t73.5 175.5q0 89 -69.5 138t-198.5 49h-309z" />
<glyph unicode="&#x413;" horiz-adv-x="1185" d="M1245 1405l-74 -164q-10 -16 -26 -16h-631l-203 -1205q-3 -20 -24 -20h-189q-23 0 -20 25l233 1386q3 21 25 21h893q12 0 17 -7.5t-1 -19.5z" />
<glyph unicode="&#x414;" horiz-adv-x="1587" d="M1290 207h131q24 0 21 -25l-92 -547q-3 -20 -25 -20h-176q-24 0 -21 25l62 360h-981l-62 -365q-3 -20 -24 -20h-174q-24 0 -21 25l92 546q3 21 25 21h107l133 196q75 115 110 316l117 692q3 21 25 21h933q24 0 21 -25zM713 1225l-84 -506q-45 -247 -156 -410l-67 -102 h651l170 1018h-514z" />
<glyph unicode="&#x415;" horiz-adv-x="1245" d="M451 838h567q23 0 20 -25l-28 -160q-3 -20 -25 -20h-571l-70 -426h727q24 0 21 -25l-29 -162q-3 -20 -25 -20h-940q-23 0 -20 25l233 1386q3 21 25 21h942q12 0 17 -7.5t-1 -19.5l-71 -164q-10 -16 -27 -16h-682z" />
<glyph unicode="&#x416;" horiz-adv-x="1955" d="M1993 1405l-301 -432q-121 -166 -265 -225q-10 -4 -11.5 -12.5t7.5 -12.5q122 -61 193 -246l162 -450q4 -12 -0.5 -19.5t-16.5 -7.5h-192q-19 0 -25 18l-121 324q-23 61 -44 103.5t-53.5 90t-75 72.5t-93.5 25h-39l-102 -613q-3 -20 -25 -20h-188q-24 0 -21 25l103 608 h-45q-47 0 -90 -21t-89.5 -71t-70.5 -80.5t-73 -100.5q-3 -4 -4.5 -6.5t-4 -5.5t-4.5 -6l-232 -328q-11 -14 -26 -14h-213q-13 0 -18 8t3 19l316 450q139 190 278 248q9 4 10.5 12.5t-6.5 12.5q-124 57 -186 223l-156 432q-4 12 0.5 19.5t16.5 7.5h192q19 0 25 -19l117 -305 q108 -270 254 -270h43l94 573q3 21 24 21h189q23 0 20 -25l-94 -569h41q44 0 90.5 24t90 68.5t76 84.5t69.5 93l217 309q12 15 26 15h213q13 0 18 -8t-3 -19z" />
<glyph unicode="&#x417;" horiz-adv-x="1284" d="M295 1368l117 35q179 49 354 49q213 0 333 -90t120 -246q0 -48 -12.5 -96t-40 -98t-78.5 -94.5t-121 -73.5q-21 -9 -23 -19t12 -16q197 -69 197 -277q0 -63 -21 -126.5t-69 -125t-117 -108.5t-174 -76t-231 -29q-172 0 -342 56l-131 41q-22 9 -13 30l78 152q9 18 31 12 l117 -39q115 -41 262 -41q180 0 282.5 81t102.5 194q0 85 -74 127.5t-207 42.5h-188q-24 0 -21 24l29 160q3 21 25 21h178q132 0 222.5 67.5t90.5 167.5q0 77 -59.5 122.5t-175.5 45.5q-144 0 -291 -41l-119 -35q-10 -3 -17.5 1.5t-9.5 15.5l-32 159q-4 21 16 27z" />
<glyph unicode="&#x418;" horiz-adv-x="1472" d="M1210 0h-188q-24 0 -21 25l129 772q28 171 66 282q3 11 0 17.5t-11 4.5t-16 -14q-29 -52 -90 -135l-549 -727q-11 -16 -43 -62t-56 -81.5t-42 -65.5q-8 -16 -27 -16h-264q-23 0 -20 25l233 1386q3 21 25 21h190q24 0 21 -25l-129 -770q-27 -165 -68 -285q-5 -18 7 -22.5 t22 14.5q16 26 76 113l561 747q88 124 143 213q9 15 27 15h264q23 0 20 -25l-235 -1387q-3 -20 -25 -20z" />
<glyph unicode="&#x41b;" horiz-adv-x="1456" d="M1454 1407l-235 -1387q-3 -20 -25 -20h-186q-24 0 -21 25l203 1200h-514l-88 -516q-46 -272 -155.5 -441.5t-299.5 -263.5l-82 -41q-22 -9 -28 14l-46 156q-6 20 13 29l76 37q114 58 184.5 185.5t107.5 338.5l115 688q3 21 25 21h936q23 0 20 -25z" />
<glyph unicode="&#x41d;" horiz-adv-x="1439" d="M1178 0h-189q-23 0 -20 25l102 608h-657l-103 -613q-3 -20 -24 -20h-189q-23 0 -20 25l233 1386q3 21 25 21h188q24 0 21 -25l-94 -569h657l94 573q3 21 25 21h190q24 0 21 -25l-236 -1387q-3 -20 -24 -20z" />
<glyph unicode="&#x41f;" horiz-adv-x="1404" d="M1403 1407l-234 -1387q-3 -20 -24 -20h-191q-23 0 -20 25l203 1200h-625l-201 -1205q-3 -20 -24 -20h-189q-23 0 -20 25l233 1386q3 21 25 21h1046q24 0 21 -25z" />
<glyph unicode="&#x420;" horiz-adv-x="1300" d="M336 1432h518q213 0 325.5 -112t100.5 -312q-12 -240 -190.5 -372t-487.5 -132h-211l-80 -484q-3 -20 -24 -20h-189q-23 0 -20 25l233 1386q3 21 25 21zM428 709h197q189 0 299 74.5t120 213.5q9 107 -47.5 167.5t-165.5 60.5h-317z" />
<glyph unicode="&#x421;" horiz-adv-x="1267" d="M1057 53l-103 -33q-139 -43 -301 -43q-249 0 -387.5 151t-138.5 415q0 95 18 195t54.5 203.5t98.5 194t143.5 162t197 113t250.5 41.5q143 0 295 -55l80 -29q22 -9 12 -29l-78 -151q-9 -18 -31 -12l-84 30q-92 35 -213 35q-107 0 -195 -47t-144 -120t-95 -167t-55 -183.5 t-16 -172.5q0 -179 79 -270t234 -91q118 0 242 39l94 29q23 10 26 -14l33 -164q3 -22 -16 -27z" />
<glyph unicode="&#x423;" horiz-adv-x="1398" d="M1491 1405l-676 -1040q-115 -178 -244 -271.5t-301 -93.5h-80q-23 0 -20 25l27 161q3 21 24 21h84q85 0 146 54.5t75 135.5q9 36 1 96.5t-40 153.5l-270 758q-7 27 19 27h196q19 0 25 -19l184 -522q55 -157 66 -266q1 -10 6.5 -14t13 -0.5t14.5 14.5q79 155 152 268 l340 524q12 15 29 15h215q13 0 17.5 -8t-3.5 -19z" />
<glyph unicode="&#x424;" horiz-adv-x="1775" d="M1135 1262h129q221 0 343 -112.5t122 -313.5q0 -89 -20 -176t-67.5 -173.5t-118 -152t-181 -106t-246.5 -40.5h-144l-26 -168q-3 -20 -25 -20h-190q-24 0 -21 25l29 163h-129q-221 0 -343 112.5t-122 313.5q0 88 19.5 174.5t67 173.5t118 152.5t181 106.5t247.5 41h143 l25 149q3 21 24 21h189q23 0 20 -25zM864 1055h-129q-78 0 -142.5 -28t-106.5 -72.5t-71.5 -101t-42 -113t-12.5 -109.5q0 -114 64.5 -176t185.5 -62h144zM1100 1055l-113 -662h129q78 0 143 28t107.5 72.5t72 101.5t42 113t12.5 109q0 116 -64.5 177t-187.5 61h-141z" />
<glyph unicode="&#x426;" horiz-adv-x="1490" d="M1200 207h127q24 0 21 -25l-97 -547q-3 -20 -24 -20h-174q-24 0 -21 25l62 360h-996q-23 0 -20 25l233 1386q3 21 25 21h190q24 0 21 -25l-203 -1200h625l200 1204q3 21 25 21h188q24 0 21 -25z" />
<glyph unicode="&#x427;" horiz-adv-x="1345" d="M1343 1407l-243 -1387q-3 -20 -25 -20h-188q-24 0 -21 25l97 544l-105 -32q-133 -43 -266 -43q-224 0 -328.5 128t-64.5 351l77 438q3 21 25 21h188q24 0 21 -25l-74 -422q-52 -278 185 -278q112 0 217 30l161 54l111 620q3 21 25 21h188q23 0 20 -25z" />
<glyph unicode="&#x428;" horiz-adv-x="1937" d="M1935 1407l-235 -1387q-3 -20 -25 -20h-1577q-23 0 -20 25l233 1386q3 21 25 21h188q24 0 21 -25l-201 -1200h459l203 1204q3 21 24 21h191q23 0 20 -25l-203 -1200h461l201 1204q3 21 24 21h191q23 0 20 -25z" />
<glyph unicode="&#x429;" horiz-adv-x="2021" d="M1731 207h127q23 0 20 -25l-96 -547q-3 -20 -25 -20h-174q-23 0 -20 25l61 360h-1526q-23 0 -20 25l233 1386q3 21 25 21h188q24 0 21 -25l-201 -1200h459l203 1204q3 21 24 21h191q23 0 20 -25l-203 -1200h461l201 1204q3 21 24 21h191q23 0 20 -25z" />
<glyph unicode="&#x42b;" horiz-adv-x="1775" d="M78 25l233 1386q3 21 25 21h188q24 0 21 -25l-80 -477h199q257 0 395.5 -106t138.5 -310q0 -73 -17 -142.5t-59 -138t-105 -119.5t-163.5 -82.5t-226.5 -31.5h-529q-23 0 -20 25zM1516 0h-189q-23 0 -20 25l233 1386q3 21 25 21h188q24 0 21 -25l-234 -1387 q-3 -20 -24 -20zM344 207h307q67 0 121.5 19t89 49t58.5 69t33.5 77t9.5 75q0 227 -324 227h-209z" />
<glyph unicode="&#x42c;" horiz-adv-x="1296" d="M627 0h-529q-23 0 -20 25l233 1386q3 21 25 21h188q24 0 21 -25l-80 -477h199q257 0 395.5 -106t138.5 -310q0 -73 -17 -142.5t-59 -138t-105 -119.5t-163.5 -82.5t-226.5 -31.5zM344 207h307q67 0 121.5 19t89 49t58.5 69t33.5 77t9.5 75q0 227 -324 227h-209z" />
<glyph unicode="&#x42d;" horiz-adv-x="1267" d="M285 1378l102 33q139 43 301 43q249 0 387.5 -150.5t138.5 -414.5q0 -81 -12.5 -166t-40.5 -174.5t-69.5 -171.5t-103.5 -155t-138.5 -126.5t-178 -84.5t-218.5 -31q-143 0 -295 55l-80 28q-22 9 -12 29l77 152q9 18 31 12l84 -31q92 -35 213 -35q96 0 177 37.5 t137.5 102t95 140t61.5 163.5h-577q-24 0 -21 24l31 160q3 21 24 21h576l2 43q0 179 -79 269.5t-234 90.5q-118 0 -242 -39l-94 -28q-11 -4 -18 -0.5t-9 14.5l-33 164q-3 20 17 26z" />
<glyph unicode="&#x42e;" horiz-adv-x="1994" d="M449 838h260q25 96 64 182t100.5 166.5t138 138.5t181 92.5t224.5 34.5q251 0 389 -148.5t138 -412.5q0 -80 -12.5 -164.5t-40 -174.5t-68.5 -172.5t-102.5 -156.5t-136.5 -128t-175.5 -86t-214.5 -32q-250 0 -388 149.5t-138 412.5q0 28 4 94h-258l-103 -613 q-3 -20 -24 -20h-189q-23 0 -20 25l233 1386q3 21 25 21h188q24 0 21 -25zM1204 190q107 0 195 48t143.5 122.5t93.5 169.5t54 184.5t16 172.5q0 171 -76.5 262.5t-222.5 91.5q-107 0 -195 -47.5t-143.5 -121.5t-93.5 -168.5t-54 -184.5t-16 -174q0 -170 77 -262.5 t222 -92.5z" />
<glyph unicode="&#x42f;" horiz-adv-x="1374" d="M1372 1407l-235 -1387q-3 -20 -25 -20h-186q-24 0 -21 25l86 520h-139q-155 0 -252 -65.5t-180 -205.5l-154 -258q-8 -16 -26 -16h-209q-13 0 -18 8t3 19l207 356q91 156 223 227q50 28 5 45q-97 35 -152 110.5t-55 190.5q0 64 17 127.5t57.5 127.5t101.5 112t156.5 78.5 t214.5 30.5h561q23 0 20 -25zM1106 1217h-340q-73 0 -131 -26t-91 -66.5t-50 -84.5t-17 -86q0 -91 74 -143.5t213 -52.5h266z" />
<glyph unicode="&#x431;" horiz-adv-x="1155" d="M1044 1466l21 -159q3 -21 -18 -27l-357 -106q-115 -36 -187.5 -106.5t-107.5 -186.5q-2 -7 -2.5 -12.5t2 -8.5t6.5 -4t11.5 2t17.5 10q126 90 264 90q175 0 275 -101.5t100 -281.5q0 -81 -19 -162t-62 -159.5t-105.5 -139t-157 -97.5t-207.5 -37q-88 0 -158.5 20.5 t-115.5 56t-77.5 83.5t-44.5 103t-15.5 114.5t8.5 117.5l55 332q40 229 157 368.5t326 200.5l365 109q23 7 26 -19zM649 754q-137 0 -218.5 -97t-96.5 -235q-6 -66 9.5 -117.5t62 -86t120.5 -34.5q68 0 123.5 24.5t91 63.5t59.5 89t34 98.5t10 95.5q0 95 -50.5 147 t-144.5 52z" />
<glyph unicode="&#x432;" horiz-adv-x="1038" d="M57 131l86 514q29 176 152.5 273.5t316.5 97.5q164 0 252 -67t88 -187q0 -86 -47.5 -150t-120.5 -92q-17 -6 -18 -15t12 -13q56 -15 95.5 -62t39.5 -123q0 -47 -13.5 -91t-46 -88.5t-81.5 -77t-127.5 -53t-175.5 -20.5q-117 0 -248 58l-149 67q-18 9 -15 29zM365 598h192 q180 0 180 115q0 45 -35 71.5t-100 26.5q-95 0 -154.5 -44.5t-76.5 -131.5zM330 408l-27 -168l57 -25q76 -31 129 -31q97 0 151 33t54 98q0 44 -40 68.5t-115 24.5h-209z" />
<glyph unicode="&#x433;" horiz-adv-x="989" d="M231 958l93 23q128 33 249 33q162 0 252 -67t90 -187q0 -52 -11 -94.5t-40.5 -88t-90 -81t-150.5 -56.5l-217 -55q-127 -33 -127 -117t135 -84q141 0 276 37l80 21q24 7 27 -19l20 -151q3 -21 -18 -27l-80 -20q-164 -48 -311 -48q-167 0 -259 70t-92 195q0 54 12.5 99 t43.5 90.5t93 81.5t152 58l215 56q119 34 119 106q0 35 -33 55.5t-94 20.5q-107 0 -209 -25l-100 -24q-22 -6 -25 18l-18 154q-3 20 18 26z" />
<glyph unicode="&#x434;" horiz-adv-x="1124" d="M455 1485l100 -31q250 -75 368.5 -261.5t118.5 -504.5q0 -106 -16 -202.5t-55.5 -190.5t-101 -162.5t-159.5 -110.5t-223 -42q-192 0 -300.5 105t-108.5 288q0 78 17.5 156.5t57 156.5t97 138t145 97t193.5 37q119 0 196 -53q18 -12 28 -5t1 32q-44 131 -125.5 211.5 t-208.5 118.5l-110 32q-23 6 -13 29l70 150q9 18 29 12zM618 754q-66 0 -121 -25t-90 -64.5t-59.5 -89.5t-34.5 -98.5t-10 -93.5q0 -95 50 -147t141 -52q67 0 122 25t90.5 65t60 90.5t34.5 99t10 93.5q0 95 -49.5 146t-143.5 51z" />
<glyph unicode="&#x435;" horiz-adv-x="1038" d="M799 31l-101 -25q-113 -29 -204 -29q-199 0 -306.5 108.5t-107.5 299.5q0 83 18 167t60 168t103.5 148.5t158 105t213.5 40.5q165 0 258.5 -74t93.5 -203t-79.5 -214.5t-270.5 -114.5l-330 -48q2 -82 51.5 -129t143.5 -47q82 0 182 23l94 24q24 6 27 -18l14 -158 q3 -21 -18 -24zM317 537l297 43q78 11 114 45.5t36 81.5q0 48 -37.5 75t-105.5 27q-109 0 -188 -67.5t-116 -204.5z" />
<glyph unicode="&#x436;" horiz-adv-x="1566" d="M1536 967l-205 -289q-87 -120 -178 -166q-12 -7 -16.5 -12.5t-1 -11t13.5 -11.5q75 -36 131 -166l106 -284q10 -27 -18 -27h-190q-19 0 -25 18l-96 263q-54 120 -144 120h-28l-64 -381q-3 -20 -24 -20h-185q-23 0 -20 25l63 376h-22q-43 0 -93 -38.5t-94 -96.5l-182 -252 q-11 -14 -26 -14h-203q-14 0 -17.5 8t5.5 19l210 299q51 70 91.5 108t93.5 64q10 6 14 10t1 10t-15 14q-53 29 -113 160l-102 275q-10 26 18 26h191q18 0 24 -18l76 -205q68 -166 156 -166h22l62 369q3 20 24 20h185q23 0 20 -24l-61 -365h16q46 0 105.5 55t109.5 125 l141 195q11 14 27 14h203q13 0 17.5 -7.5t-3.5 -18.5z" />
<glyph unicode="&#x437;" horiz-adv-x="985" d="M205 967l94 22q114 27 244 27q168 0 262 -67t94 -185q0 -48 -14 -90t-52.5 -83t-99.5 -63q-48 -16 -21 -29q4 -2 9 -3q65 -20 103 -70.5t38 -118.5q0 -60 -25.5 -115.5t-77.5 -105t-145 -79.5t-215 -30q-111 0 -258 35l-100 27q-24 6 -14 29l69 149q9 18 29 12l90 -22 q97 -23 191 -23q105 0 172 34.5t67 94.5q0 44 -48.5 71.5t-123.5 27.5h-133q-24 0 -21 24l25 146q3 20 25 20h123q79 0 133.5 32.5t54.5 86.5q0 39 -38.5 64.5t-104.5 25.5q-121 0 -209 -23l-99 -22q-21 -6 -24 18l-19 156q-3 21 19 27z" />
<glyph unicode="&#x438;" horiz-adv-x="1138" d="M772 23l-6 75q-4 13 -10.5 17.5t-15.5 0.5t-23 -16q-128 -120 -299 -120q-179 0 -261.5 106t-50.5 289l101 598q3 20 24 20h185q23 0 20 -24l-98 -586q-17 -96 17.5 -147.5t113.5 -51.5q118 0 198.5 84.5t106.5 233.5l78 471q3 20 25 20h184q23 0 20 -24l-157 -949 q-3 -20 -25 -20h-102q-22 0 -25 23z" />
<glyph unicode="&#x43a;" horiz-adv-x="1116" d="M385 604h29q61 0 118 45.5t121 122.5l170 209q9 12 27 12h217q14 0 17.5 -7.5t-5.5 -18.5l-229 -291q-95 -118 -211 -158q-25 -9 -4 -20q99 -42 160 -164l135 -307q6 -12 0.5 -19.5t-17.5 -7.5h-190q-17 0 -27 16l-106 226q-36 75 -84 117t-127 42h-31l-61 -381 q-3 -20 -25 -20h-184q-24 0 -21 25l158 948q3 20 25 20h184q23 0 20 -24z" />
<glyph unicode="&#x43b;" horiz-adv-x="1173" d="M1116 969l-160 -949q-3 -20 -24 -20h-184q-24 0 -21 25l129 766h-324l-51 -306q-31 -179 -116 -294t-240 -185l-66 -31q-22 -9 -28 13l-47 151q-6 20 12 29l61 31q159 75 195 301l80 473q3 20 24 20h740q23 0 20 -24z" />
<glyph unicode="&#x43d;" horiz-adv-x="1130" d="M1073 969l-160 -949q-3 -20 -24 -20h-184q-24 0 -21 25l64 376h-398l-63 -381q-3 -20 -25 -20h-184q-24 0 -21 25l160 948q3 20 25 20h184q23 0 20 -24l-61 -365h397l62 369q3 20 24 20h185q23 0 20 -24z" />
<glyph unicode="&#x43f;" horiz-adv-x="1138" d="M367 971l6 -76q4 -13 10.5 -17.5t15.5 -0.5t23 16q129 121 299 121q179 0 261 -106.5t50 -289.5l-100 -598q-3 -20 -25 -20h-184q-24 0 -21 25l99 585q17 96 -17.5 147.5t-113.5 51.5q-118 0 -198.5 -84t-106.5 -233l-78 -472q-3 -20 -25 -20h-184q-24 0 -21 25l158 948 q3 20 25 20h102q22 0 25 -22z" />
<glyph unicode="&#x440;" horiz-adv-x="1159" d="M365 971l4 -72q5 -16 10.5 -21.5t14.5 -2t26 17.5q130 121 289 121q177 0 273.5 -105.5t96.5 -292.5q0 -83 -17.5 -167.5t-58.5 -170.5t-101.5 -151.5t-155.5 -107t-211 -42.5q-115 0 -193 41l-53 25l-78 -463q-3 -20 -25 -20h-184q-23 0 -20 24l233 1389q3 20 25 20h100 q22 0 25 -22zM319 240l52 -25q74 -31 155 -31q71 0 128.5 28t93.5 72t61 100t35 109t10 103q0 102 -48 157.5t-140 55.5q-119 0 -199 -84.5t-102 -222.5z" />
<glyph unicode="&#x441;" horiz-adv-x="970" d="M778 29l-86 -23q-98 -29 -190 -29q-204 0 -313 108t-109 300q0 85 17.5 168.5t60.5 168t106.5 148.5t164 104t224.5 40q83 0 178 -29l89 -27q23 -6 14 -28l-72 -148q-9 -18 -28 -12l-64 18q-64 21 -123 21q-77 0 -138 -29t-98.5 -73t-62 -101t-34 -109t-9.5 -102 q0 -102 51.5 -156.5t153.5 -54.5q64 0 162 25l78 20q23 7 26 -18l21 -156q3 -20 -19 -26z" />
<glyph unicode="&#x442;" horiz-adv-x="1728" d="M365 971l4 -74q12 -24 20.5 -23.5t34.5 21.5q125 119 285 119q152 0 231 -131q24 -26 41 -26.5t47 24.5q133 133 297 133q167 0 247.5 -107t49.5 -289l-102 -598q-3 -20 -25 -20h-184q-24 0 -21 25l101 585q31 199 -115 199q-118 0 -193.5 -85.5t-99.5 -231.5l-80 -472 q-3 -20 -24 -20h-185q-23 0 -20 25l98 587q17 95 -12.5 146t-102.5 51q-119 0 -192.5 -85t-99.5 -232l-78 -472q-3 -20 -25 -20h-184q-24 0 -21 25l158 948q3 20 25 20h102q23 0 23 -22z" />
<glyph unicode="&#x443;" horiz-adv-x="1150" d="M1163 967l-620 -1082q-96 -170 -211 -247.5t-266 -77.5h-80q-24 0 -21 24l27 158q3 20 24 20h64q126 0 201 129l43 70q37 69 37 155t-35 218l-176 635q-3 11 2.5 17.5t17.5 6.5h184q21 0 27 -18l117 -422q31 -127 34 -244q1 -20 7.5 -27t15.5 1t16 28q39 112 115 254 l236 412q8 16 26 16h201q13 0 17.5 -7.5t-3.5 -18.5z" />
<glyph unicode="&#x444;" horiz-adv-x="1654" d="M1020 952l49 23q85 39 170 39q166 0 251 -101.5t85 -287.5q0 -81 -16.5 -166.5t-55.5 -173t-95 -155t-143 -110.5t-192 -43q-85 0 -158 39l-49 27l-78 -463q-3 -20 -24 -20h-184q-24 0 -21 24l78 455l-47 -23q-86 -39 -166 -39q-166 0 -255 104t-89 288q0 82 16.5 167 t55 172t94.5 154t143.5 109.5t194.5 42.5q88 0 153 -35l54 -27l83 496q3 20 25 20h184q24 0 21 -24zM758 752l-47 26q-51 31 -119 31q-59 0 -109 -29.5t-82 -76t-54.5 -104.5t-32 -112.5t-9.5 -103.5q0 -95 40 -147t114 -52q82 0 149 31l64 33zM899 242l49 -29 q53 -29 117 -29q74 0 132 45.5t89.5 114.5t47.5 138.5t16 129.5q0 94 -39.5 145.5t-112.5 51.5q-88 0 -156 -35l-59 -31z" />
<glyph unicode="&#x446;" horiz-adv-x="1214" d="M965 203h98q23 0 20 -25l-82 -477q-3 -20 -24 -20h-166q-23 0 -20 24l51 295h-35q-24 0 -21 25q0 -1 -2.5 16t-5 37.5t-2.5 27.5q0 -1 -1 1q-3 6 -11 10q-11 6 -37 -17q-128 -120 -299 -120q-179 0 -261 106t-50 289l100 598q3 20 25 20h184q23 0 20 -24l-98 -586 q-17 -96 17.5 -147.5t113.5 -51.5q118 0 198.5 84.5t106.5 233.5l78 471q3 20 25 20h184q24 0 21 -24z" />
<glyph unicode="&#x447;" horiz-adv-x="1073" d="M1018 969l-160 -949q-3 -20 -24 -20h-185q-23 0 -20 25l57 342l-65 -19q-91 -24 -177 -24q-175 0 -260 93t-57 253l51 303q3 20 25 20h184q24 0 21 -24l-50 -291q-13 -73 19.5 -111.5t105.5 -38.5q75 0 133 17l105 28l67 400q3 20 25 20h184q24 0 21 -24z" />
<glyph unicode="&#x448;" horiz-adv-x="1728" d="M1364 23l-4 73q-12 24 -20.5 23.5t-34.5 -21.5q-124 -118 -285 -118q-153 0 -232 131q-24 26 -41 26.5t-47 -24.5q-133 -133 -297 -133q-167 0 -247.5 106.5t-49.5 288.5l103 598q3 20 24 20h185q23 0 20 -24l-100 -586q-31 -199 115 -199q118 0 193 86t99 232l80 471 q3 20 25 20h184q24 0 21 -24l-99 -588q-17 -95 12.5 -146t102.5 -51q119 0 193 85.5t100 232.5l78 471q3 20 24 20h185q23 0 20 -24l-158 -949q-3 -20 -24 -20h-103q-22 0 -22 23z" />
<glyph unicode="&#x449;" horiz-adv-x="1802" d="M1552 203h99q23 0 20 -25l-80 -477q-3 -20 -24 -20h-166q-24 0 -21 24l50 295h-35q-23 0 -23 23l-4 73q-12 24 -20.5 23.5t-34.5 -21.5q-124 -118 -285 -118q-152 0 -231 131q-24 26 -41 26.5t-47 -24.5q-133 -133 -297 -133q-167 0 -247.5 106.5t-49.5 288.5l102 598 q3 20 25 20h184q23 0 20 -24l-100 -586q-31 -199 115 -199q118 0 193.5 86t99.5 232l80 471q3 20 24 20h184q24 0 21 -24l-98 -588q-17 -96 12 -146.5t102 -50.5q119 0 193 85.5t100 232.5l78 471q3 20 25 20h184q23 0 20 -24z" />
<glyph unicode="&#x44b;" horiz-adv-x="1480" d="M395 680h140q183 0 284 -78.5t101 -220.5q0 -56 -12.5 -110t-43.5 -108t-78 -94.5t-123 -66t-171 -25.5q-139 0 -250 54l-154 71q-17 8 -14 29l141 842q3 20 25 20h184q23 0 20 -24zM1415 967l-149 -947q-3 -20 -25 -20h-184q-24 0 -21 25l150 946q3 20 24 20h185 q23 0 20 -24zM319 238l64 -27q63 -27 125 -27q91 0 138.5 48.5t47.5 111.5q0 65 -47.5 99t-134.5 34h-154z" />
<glyph unicode="&#x44c;" horiz-adv-x="1026" d="M395 680h140q183 0 284 -78.5t101 -220.5q0 -56 -12.5 -110t-43.5 -108t-78 -94.5t-123 -66t-171 -25.5q-139 0 -250 54l-154 71q-17 8 -14 29l141 842q3 20 25 20h184q23 0 20 -24zM319 238l64 -27q63 -27 125 -27q91 0 138.5 48.5t47.5 111.5q0 65 -47.5 99t-134.5 34 h-154z" />
<glyph unicode="&#x44d;" horiz-adv-x="983" d="M201 965l88 22q91 27 190 27q204 0 313 -107t109 -299q0 -85 -17.5 -169t-60.5 -168.5t-106.5 -149t-164 -104.5t-224.5 -40q-76 0 -178 31l-89 27q-23 6 -14 28l72 148q9 17 28 12l64 -18q64 -21 125 -21q118 0 193.5 62.5t111.5 161.5h-365q-23 0 -20 24l29 146 q3 20 24 20h367q0 211 -205 211q-64 0 -162 -25l-78 -20q-23 -7 -26 18l-23 156q-3 21 19 27z" />
<glyph unicode="&#x44e;" horiz-adv-x="1597" d="M385 604h201q25 83 67 153.5t104.5 130t152.5 93t198 33.5q194 0 302 -108t108 -298q0 -81 -18 -165t-60.5 -168.5t-104.5 -150t-158.5 -106.5t-213.5 -41q-194 0 -302 109t-108 299v16h-203l-63 -381q-3 -20 -25 -20h-184q-24 0 -21 25l160 948q3 20 25 20h184 q23 0 20 -24zM969 184q69 0 125.5 28t92 71.5t60.5 99.5t35 109t10 102q0 103 -49 159t-141 56q-69 0 -126 -28t-93 -71.5t-60.5 -99.5t-34.5 -109t-10 -102q0 -103 49.5 -159t141.5 -56z" />
<glyph unicode="&#x44f;" horiz-adv-x="1087" d="M1032 969l-160 -949q-3 -20 -24 -20h-186q-24 0 -21 25l57 331h-88q-87 0 -152.5 -49.5t-127.5 -148.5l-88 -144q-11 -14 -29 -14h-195q-13 0 -17.5 8t1.5 19l145 231q68 107 160 148q21 9 27 15t2.5 11t-19.5 14q-66 26 -107.5 81t-41.5 126q0 45 12.5 89.5t43.5 90.5 t77.5 81t121 57t167.5 22h422q23 0 20 -24zM772 791h-211q-84 0 -129 -42t-45 -98q0 -100 160 -100h184z" />
<glyph unicode="&#x451;" horiz-adv-x="1038" d="M512 1501q54 0 84.5 -30.5t30.5 -84.5q0 -62 -33.5 -104.5t-101.5 -42.5q-56 0 -86.5 29.5t-30.5 83.5q0 71 35.5 110t101.5 39zM874 1501q54 0 84.5 -30.5t30.5 -84.5q0 -62 -33.5 -104.5t-101.5 -42.5q-56 0 -86.5 29.5t-30.5 83.5q0 71 35.5 110t101.5 39zM799 31 l-101 -25q-113 -29 -204 -29q-199 0 -306.5 108.5t-107.5 299.5q0 83 18 167t60 168t103.5 148.5t158 105t213.5 40.5q165 0 258.5 -74t93.5 -203t-79.5 -214.5t-270.5 -114.5l-330 -48q2 -82 51.5 -129t143.5 -47q82 0 182 23l94 24q24 6 27 -18l14 -158q3 -21 -18 -24z M317 537l297 43q78 11 114 45.5t36 81.5q0 48 -37.5 75t-105.5 27q-109 0 -188 -67.5t-116 -204.5z" />
<glyph unicode="&#x459;" horiz-adv-x="1673" d="M1051 680h131q186 0 285.5 -78.5t99.5 -224.5q0 -54 -12 -106.5t-43 -106.5t-78.5 -94.5t-124.5 -66.5t-174 -26q-122 0 -240 54l-152 71q-17 8 -14 29l109 660h-306l-51 -306q-31 -179 -116 -294t-240 -185l-66 -31q-22 -9 -28 13l-47 151q-6 20 12 29l61 31 q161 76 197 301l78 473q3 20 24 20h723q24 0 21 -24zM1012 477l-39 -239l78 -33q55 -21 106 -21q88 0 136 48t48 114q0 62 -45.5 96.5t-134.5 34.5h-149z" />
<glyph unicode="&#x45a;" horiz-adv-x="1615" d="M981 637h164q172 0 265 -74.5t93 -214.5q0 -69 -22 -132t-69 -118t-131.5 -88t-197.5 -33q-132 0 -268 62l-135 63q-17 8 -14 29l51 303h-363l-67 -414q-3 -20 -25 -20h-184q-24 0 -21 25l160 948q3 20 25 20h184q23 0 20 -24l-57 -332h363l55 336q3 20 24 20h185 q23 0 20 -24zM944 434l-33 -196l66 -27q62 -27 127 -27q75 0 124.5 41t49.5 105q0 104 -156 104h-178z" />
<glyph unicode="&#x1e9e;" horiz-adv-x="1503" d="M1419 1415l8 -20q5 -16 -4 -31q-102 -132 -149 -203l-227 -323q-12 -20 -11 -27.5t15 -13.5l129 -56q221 -90 221 -295q0 -100 -33 -183t-100 -148t-180 -101.5t-261 -36.5q-107 0 -276 52l-90 26q-21 9 -12 31l75 154q9 18 31 12l80 -27q110 -35 201 -35q156 0 242.5 59 t86.5 169q0 50 -32.5 84t-100.5 63l-272 115q-15 6 -21 20l-6 15q-6 18 4 30l236 336q59 84 88 111q33 33 -10 33h-357q-83 0 -146 -66.5t-83 -181.5l-160 -957q-3 -20 -24 -20h-191q-23 0 -20 25l163 968q37 211 163 325t321 114h676q16 0 26 -17z" />
<glyph unicode="&#x2000;" horiz-adv-x="939" />
<glyph unicode="&#x2001;" horiz-adv-x="1878" />
<glyph unicode="&#x2002;" horiz-adv-x="939" />
<glyph unicode="&#x2003;" horiz-adv-x="1878" />
<glyph unicode="&#x2004;" horiz-adv-x="626" />
<glyph unicode="&#x2005;" horiz-adv-x="469" />
<glyph unicode="&#x2006;" horiz-adv-x="313" />
<glyph unicode="&#x2007;" horiz-adv-x="313" />
<glyph unicode="&#x2008;" horiz-adv-x="234" />
<glyph unicode="&#x2009;" horiz-adv-x="159" />
<glyph unicode="&#x200a;" horiz-adv-x="104" />
<glyph unicode="&#x2010;" horiz-adv-x="894" d="M197 637h546q24 0 21 -25l-27 -157q-3 -21 -24 -21h-547q-24 0 -21 25l27 157q3 21 25 21z" />
<glyph unicode="&#x2011;" horiz-adv-x="894" d="M197 637h546q24 0 21 -25l-27 -157q-3 -21 -24 -21h-547q-24 0 -21 25l27 157q3 21 25 21z" />
<glyph unicode="&#x2012;" horiz-adv-x="894" d="M197 637h546q24 0 21 -25l-27 -157q-3 -21 -24 -21h-547q-24 0 -21 25l27 157q3 21 25 21z" />
<glyph unicode="&#x2013;" horiz-adv-x="1402" d="M197 637h1056q24 0 21 -25l-29 -157q-3 -21 -24 -21h-1055q-24 0 -21 25l27 157q3 21 25 21z" />
<glyph unicode="&#x2014;" horiz-adv-x="1673" d="M197 637h1325q23 0 20 -25l-29 -157q-3 -21 -24 -21h-1323q-24 0 -21 25l27 157q3 21 25 21z" />
<glyph unicode="&#x2018;" horiz-adv-x="473" d="M412 1468l-80 -86q-106 -112 -121 -200q-13 -73 18 -114.5t97 -41.5t109.5 36.5t53.5 100.5q16 86 -51 123q-24 11 -24 25.5t26 40.5l109 116h-137z" />
<glyph unicode="&#x2019;" horiz-adv-x="473" d="M317 1040l80 86q106 112 121 201q13 73 -18 114.5t-97 41.5t-109.5 -36.5t-53.5 -100.5q-16 -86 51 -123q24 -11 24 -25.5t-26 -40.5l-109 -117h137z" />
<glyph unicode="&#x201a;" horiz-adv-x="473" d="M113 -170l80 86q105 111 120 201q13 73 -17.5 114t-96.5 41t-110 -36.5t-54 -100.5q-16 -86 51 -123q24 -11 24 -25t-26 -40l-109 -117h138z" />
<glyph unicode="&#x201c;" horiz-adv-x="856" d="M412 1468l-80 -86q-106 -112 -121 -200q-13 -73 18 -114.5t97 -41.5t109.5 36.5t53.5 100.5q16 86 -51 123q-24 11 -24 25.5t26 40.5l109 116h-137zM797 1468l-80 -86q-106 -112 -121 -200q-13 -73 18 -114.5t97 -41.5t109.5 36.5t53.5 100.5q16 86 -51 123 q-24 11 -24 25.5t26 40.5l109 116h-137z" />
<glyph unicode="&#x201d;" horiz-adv-x="858" d="M317 1040l80 86q106 112 121 201q13 73 -18 114.5t-97 41.5t-109.5 -36.5t-53.5 -100.5q-16 -86 51 -123q24 -11 24 -25.5t-26 -40.5l-109 -117h137zM702 1040l80 86q106 112 121 201q13 73 -18 114.5t-97 41.5t-109.5 -36.5t-53.5 -100.5q-16 -86 51 -123 q24 -11 24 -25.5t-26 -40.5l-109 -117h137z" />
<glyph unicode="&#x201e;" horiz-adv-x="858" d="M113 -170l80 86q105 111 120 201q13 73 -17.5 114t-96.5 41t-110 -36.5t-54 -100.5q-16 -86 51 -123q24 -11 24 -25t-26 -40l-109 -117h138zM498 -170l80 86q105 111 120 201q13 73 -17.5 114t-96.5 41t-110 -36.5t-54 -100.5q-16 -86 51 -123q24 -11 24 -25t-26 -40 l-109 -117h138z" />
<glyph unicode="&#x2020;" horiz-adv-x="923" d="M920 1124l-19 -110q-3 -21 -24 -21h-248l-113 -676q-3 -20 -24 -20h-125q-24 0 -21 25l115 671h-240q-23 0 -20 25l18 110q3 21 25 21h243l50 299q3 20 24 20h123q24 0 21 -24l-50 -295h244q24 0 21 -25z" />
<glyph unicode="&#x2021;" horiz-adv-x="925" d="M629 993l-35 -209h235q24 0 21 -24l-19 -111q-3 -20 -24 -20h-240l-51 -312q-3 -20 -24 -20h-125q-24 0 -21 25l53 307h-237q-24 0 -21 24l19 111q3 20 24 20h242l35 209h-240q-23 0 -20 25l18 110q3 21 25 21h243l50 299q3 20 24 20h123q24 0 21 -24l-50 -295h244 q24 0 21 -25l-19 -110q-3 -21 -24 -21h-248z" />
<glyph unicode="&#x2022;" horiz-adv-x="813" d="M471 956q99 0 152 -49.5t53 -142.5q0 -53 -14 -101.5t-42.5 -92t-81 -69.5t-122.5 -26q-98 0 -151.5 49.5t-53.5 139.5q0 52 13.5 100.5t42 93t81.5 71.5t123 27z" />
<glyph unicode="&#x2026;" horiz-adv-x="1298" d="M209 272q73 0 108 -43.5t23 -117.5q-12 -64 -52 -99t-102 -35q-72 0 -106.5 44t-22.5 118q12 63 51.5 98t100.5 35zM606 272q73 0 108 -43.5t23 -117.5q-12 -64 -51.5 -99t-101.5 -35q-72 0 -106.5 44t-22.5 118q12 64 51 98.5t100 34.5zM1004 272q73 0 108 -43.5 t23 -117.5q-12 -64 -52 -99t-102 -35q-72 0 -106.5 44t-22.5 118q12 63 51.5 98t100.5 35z" />
<glyph unicode="&#x202f;" horiz-adv-x="375" />
<glyph unicode="&#x2039;" horiz-adv-x="800" d="M373 496l202 -361q6 -11 1.5 -18.5t-17.5 -7.5h-190q-19 0 -27 16l-192 342q-9 12 -9 27v8q0 17 11 28l311 344q10 13 26 13h201q14 0 17.5 -8.5t-5.5 -20.5z" />
<glyph unicode="&#x203a;" horiz-adv-x="800" d="M428 500l-203 360q-6 10 -1 18.5t18 8.5h190q18 0 27 -17l192 -342q8 -11 8 -26v-8q0 -19 -10 -29l-311 -344q-9 -12 -27 -12h-200q-14 0 -18 8t5 20z" />
<glyph unicode="&#x2044;" horiz-adv-x="571" d="M874 1432h136q14 0 17.5 -8t-5.5 -19l-1149 -1393q-9 -12 -27 -12h-135q-14 0 -17.5 8t5.5 19l1149 1392q10 13 26 13z" />
<glyph unicode="&#x205f;" horiz-adv-x="469" />
<glyph unicode="&#x20ac;" horiz-adv-x="1382" d="M1298 1397l80 -29q23 -10 13 -29l-78 -151q-9 -18 -31 -12l-84 30q-92 35 -213 35q-146 0 -250 -80t-168 -213h457q13 0 17.5 -8t-1.5 -18l-65 -115q-8 -16 -27 -16h-436q-17 -61 -27 -129h387q14 0 18.5 -7.5t-1.5 -19.5l-64 -115q-8 -16 -26 -16h-318q9 -155 88 -234.5 t224 -79.5q117 0 241 39l94 29q11 4 18 0.5t9 -14.5l33 -164q3 -21 -17 -27l-102 -33q-139 -43 -301 -43q-240 0 -377.5 139.5t-148.5 387.5h-166q-24 0 -21 24l21 113q3 21 24 21h148q5 57 22 129h-143q-24 0 -21 24l19 113q3 20 25 20h167q40 105 99.5 192t142 159 t197 112.5t248.5 40.5q142 0 294 -55z" />
<glyph unicode="&#x2116;" horiz-adv-x="2408" d="M2054 1440q171 0 252 -110t49 -298q-31 -188 -149.5 -298.5t-290.5 -110.5q-169 0 -250 111t-49 298t150.5 297.5t287.5 110.5zM1208 0h-233q-21 0 -27 18q-31 105 -74 209l-321 713q-22 54 -51 147q-6 17 -19.5 13.5t-13.5 -21.5q-3 -121 -29 -284l-129 -775 q-3 -20 -24 -20h-189q-23 0 -20 25l233 1386q3 21 25 21h233q21 0 27 -19q24 -82 74 -209l319 -704q35 -90 55 -156q6 -20 18.5 -15.5t10.5 23.5q2 108 31 281l129 778q3 21 24 21h191q23 0 20 -25l-235 -1387q-3 -20 -25 -20zM2025 1282q-92 0 -154.5 -66.5t-82.5 -183.5 t21.5 -183.5t132.5 -66.5q95 0 159 66t84 184q20 117 -22.5 183.5t-137.5 66.5zM2210 428l-19 -113q-3 -20 -24 -20h-608q-24 0 -21 24l18 113q3 21 25 21h608q24 0 21 -25z" />
<glyph unicode="&#x2122;" horiz-adv-x="1892" d="M766 1409v-113q0 -22 -23 -22h-254v-621q0 -22 -22 -22h-123q-22 0 -22 22v621h-250q-23 0 -23 22v113q0 23 23 23h671q23 0 23 -23zM1774 1409v-756q0 -22 -23 -22h-123q-22 0 -22 22v275q0 175 16 264q3 12 -5.5 15t-12.5 -9q-6 -16 -21.5 -49t-19.5 -43l-105 -223 q-6 -14 -19.5 -44.5t-19.5 -43.5q-6 -19 -24 -19h-113q-19 0 -25 19q-16 42 -36 88l-105 223q-8 21 -43 92q-6 12 -13 9t-5 -15q18 -100 18 -264v-275q0 -22 -22 -22h-123q-23 0 -23 22v756q0 23 23 23h194q19 0 25 -19q5 -13 17 -39t16 -35l88 -184q5 -14 30.5 -79.5 t32.5 -92.5q7 -20 17 0q12 48 65 172l88 184q8 26 27 74q6 19 24 19h199q23 0 23 -23z" />
<glyph unicode="&#x2190;" horiz-adv-x="1368" d="M1305 811v-182q0 -23 -23 -23h-819l252 -313q9 -11 5 -19t-18 -8h-213q-17 0 -26 15l-332 424q-13 16 0 32l332 424q9 15 26 15h213q14 0 18 -8t-5 -19l-254 -315h821q23 0 23 -23z" />
<glyph unicode="&#x2191;" horiz-adv-x="1368" d="M1194 946v-211q0 -14 -8 -17.5t-19 5.5l-315 252v-819q0 -23 -23 -23h-182q-22 0 -22 23v817l-316 -250q-11 -9 -18.5 -5.5t-7.5 17.5v211q0 19 14 27l426 334q17 13 33 0l424 -334q14 -8 14 -27z" />
<glyph unicode="&#x2192;" horiz-adv-x="1368" d="M139 629v182q0 23 23 23h821l-254 315q-9 11 -5.5 19t17.5 8h213q18 0 27 -15l332 -424q13 -16 0 -32l-332 -424q-9 -15 -27 -15h-213q-14 0 -17.5 8t5.5 19l252 313h-819q-23 0 -23 23z" />
<glyph unicode="&#x2193;" horiz-adv-x="1368" d="M817 477l316 252q11 9 18.5 5.5t7.5 -17.5v-211q0 -19 -14 -27l-424 -334q-17 -13 -33 0l-426 334q-14 8 -14 27v211q0 14 8 17.5t18 -5.5l316 -250v817q0 23 22 23h183q22 0 22 -23v-819z" />
<glyph unicode="&#x2194;" horiz-adv-x="1994" d="M1608 1161l331 -422q13 -16 0 -32l-331 -426q-9 -15 -27 -15h-213q-14 0 -17.5 8t5.5 19l250 315h-1141l252 -315q9 -11 5.5 -19t-17.5 -8h-213q-18 0 -27 15l-332 426q-13 16 0 32l332 422q9 15 27 15h213q14 0 17.5 -8t-5.5 -19l-252 -313h1143l-252 313q-9 11 -5.5 19 t17.5 8h213q18 0 27 -15z" />
<glyph unicode="&#x2195;" horiz-adv-x="1368" d="M831 131l316 252q11 9 19 5.5t8 -17.5v-211q0 -18 -15 -27l-424 -332q-17 -13 -33 0l-423 332q-15 9 -15 27v211q0 14 8 17.5t19 -5.5l313 -250v1143l-313 -254q-11 -9 -19 -5.5t-8 17.5v215q0 18 15 27l423 332q16 13 33 0l424 -332q15 -9 15 -27v-215q0 -14 -8 -17.5 t-19 5.5l-316 254v-1145z" />
<glyph unicode="&#x2196;" horiz-adv-x="1456" d="M633 944l577 -577q16 -17 0 -33l-129 -129q-16 -16 -32 0l-578 577l-43 -399q-1 -13 -10.5 -16t-18.5 6l-151 149q-13 13 -10 29l69 536q3 20 23 23l534 66q15 3 29 -11l149 -149q9 -9 6 -18.5t-16 -10.5z" />
<glyph unicode="&#x2197;" horiz-adv-x="1368" d="M776 944l-399 43q-13 1 -16 10.5t6 18.5l149 149q14 14 29 11l534 -66q20 -3 23 -23l69 -536q3 -16 -10 -29l-151 -149q-9 -10 -18 -7t-11 17l-43 399l-578 -577q-16 -16 -32 0l-129 129q-17 16 0 33z" />
<glyph unicode="&#x2198;" horiz-adv-x="1456" d="M897 465l-578 577q-17 16 0 33l130 129q16 16 32 0l578 -577l43 399q1 13 10 16t18 -6l152 -149q13 -13 10 -29l-69 -536q-3 -20 -23 -23l-534 -66q-15 -3 -29 11l-150 149q-9 9 -5.5 18.5t16.5 10.5z" />
<glyph unicode="&#x2199;" horiz-adv-x="1368" d="M664 465l399 -43q13 -1 16 -10.5t-6 -18.5l-149 -149q-14 -14 -29 -11l-535 66q-19 3 -22 23l-70 536q-3 15 11 29l151 149q9 10 18 7t11 -17l43 -399l577 577q17 16 33 0l129 -129q17 -17 0 -33z" />
<glyph unicode="&#x25fc;" horiz-adv-x="993" d="M0 993h993v-993h-993v993z" />
<glyph horiz-adv-x="1384" d="M553 1845h244q15 0 18.5 -8.5t-8.5 -19.5l-252 -218q-10 -10 -29 -10h-172q-15 0 -18.5 8.5t6.5 18.5l184 217q9 12 27 12zM1391 1845h243q15 0 19 -8.5t-8 -19.5l-252 -218q-10 -10 -29 -10h-172q-15 0 -18.5 8.5t6.5 18.5l184 217q9 12 27 12zM78 25l233 1386 q3 21 25 21h188q24 0 21 -25l-234 -1387q-3 -20 -24 -20h-189q-23 0 -20 25zM1384 1407l-167 -991q-34 -208 -151 -323.5t-302 -115.5q-78 0 -168 37l-23 9q-22 10 -10 28l78 152q10 19 31 10l24 -10q32 -13 80 -13q76 0 131.5 56.5t73.5 163.5l168 1001q3 21 25 21h190 q23 0 20 -25z" />
<glyph horiz-adv-x="1456" d="M1012 1845h239q14 0 18 -8t-5 -20l-197 -215q-10 -13 -27 -13h-172q-12 0 -16.5 8.5t2.5 18.5l131 215q8 14 27 14zM877 1452q251 0 388.5 -148.5t137.5 -412.5q0 -80 -12.5 -164.5t-40 -174.5t-68.5 -172.5t-102.5 -156.5t-136.5 -128t-175.5 -86t-214.5 -32 q-250 0 -388 149.5t-138 412.5q0 115 24 235.5t81.5 243.5t141 218t214 155.5t289.5 60.5zM866 1241q-107 0 -195 -47.5t-143 -121.5t-93.5 -168.5t-54 -184.5t-15.5 -174q0 -170 77 -262.5t222 -92.5q107 0 195 48t143 122.5t93.5 169.5t54 184.5t15.5 172.5 q0 171 -76.5 262.5t-222.5 91.5z" />
<glyph horiz-adv-x="573" d="M455 1489q58 0 90.5 -32t32.5 -89q0 -67 -35.5 -112.5t-108.5 -45.5q-60 0 -92.5 32t-32.5 89q0 75 38.5 116.5t107.5 41.5zM334 0h-184q-24 0 -21 25l129 766h-98q-24 0 -21 24l27 158q3 20 24 20h308q23 0 20 -24l-160 -949q-3 -20 -24 -20z" />
<glyph horiz-adv-x="1150" d="M682 1442l-180 -266q-12 -15 -29 -15h-137q-12 0 -16.5 7.5t-0.5 19.5l130 264q10 16 26 16h193q13 0 17.5 -8t-3.5 -18zM1260 1442l-181 -266q-12 -15 -28 -15h-138q-26 0 -16 27l129 264q10 16 27 16h192q14 0 18 -8t-3 -18zM190 993h308q23 0 20 -24l-160 -949 q-3 -20 -24 -20h-184q-24 0 -21 25l129 766h-98q-24 0 -21 24l27 158q3 20 24 20zM768 993h307q24 0 21 -24l-121 -717l-51 -303q-23 -129 -90.5 -221t-198.5 -154l-62 -33q-21 -11 -28 13l-64 151q-9 21 11 31l51 28q131 66 153 201l17 92l123 734h-99q-23 0 -20 24l26 158 q3 20 25 20z" />
<glyph horiz-adv-x="1124" d="M719 1468h201q13 0 17.5 -8t-3.5 -18l-172 -266q-12 -15 -29 -15h-143q-12 0 -17.5 7.5t0.5 19.5l119 264q10 16 27 16zM635 1014q194 0 301.5 -108t107.5 -298q0 -81 -18 -165t-60.5 -168.5t-104.5 -150t-158.5 -106.5t-213.5 -41q-194 0 -301.5 109t-107.5 299 q0 82 18 166t61 168.5t105 149t158 105t213 40.5zM629 809q-69 0 -126 -28t-93 -71.5t-60.5 -99.5t-34.5 -109t-10 -102q0 -103 49.5 -159t141.5 -56q69 0 125.5 28t92 71.5t60.5 99.5t35 109t10 102q0 103 -49 159t-141 56z" />
<glyph horiz-adv-x="763" d="M293 993l24 150q28 166 131.5 257t262.5 91q56 0 123 -21l20 -8q21 -9 12 -28l-69 -148q-9 -21 -31 -12l-4 2q-24 8 -60 8q-61 0 -104.5 -43.5t-54.5 -114.5l-23 -133h228q23 0 20 -24l-27 -158q-3 -20 -24 -20h-232l-129 -771q-3 -20 -24 -20h-182q-24 0 -21 25l129 766 h-98q-24 0 -21 24l27 158q3 20 24 20h103z" />
<glyph horiz-adv-x="1503" d="M1419 1415l8 -20q5 -16 -4 -31q-102 -132 -149 -203l-227 -323q-12 -20 -11 -27.5t15 -13.5l129 -56q221 -90 221 -295q0 -100 -33 -183t-100 -148t-180 -101.5t-261 -36.5q-107 0 -276 52l-90 26q-21 9 -12 31l75 154q9 18 31 12l80 -27q110 -35 201 -35q156 0 242.5 59 t86.5 169q0 50 -32.5 84t-100.5 63l-272 115q-15 6 -21 20l-6 15q-6 18 4 30l236 336q59 84 88 111q33 33 -10 33h-357q-83 0 -146 -66.5t-83 -181.5l-160 -957q-3 -20 -24 -20h-191q-23 0 -20 25l163 968q37 211 163 325t321 114h676q16 0 26 -17z" />
<glyph horiz-adv-x="780" d="M522 993h228q23 0 20 -24l-27 -158q-3 -20 -24 -20h-232l-84 -498q-9 -52 7.5 -80.5t54.5 -28.5q28 0 55 9q23 7 29 -15l41 -137q7 -20 -12 -29q-72 -35 -146 -35q-146 0 -214.5 83.5t-43.5 232.5l84 498h-98q-24 0 -21 24l27 158q3 20 24 20h103l39 236q3 18 20 24 l197 62q12 3 19 -3t5 -18z" />
<glyph horiz-adv-x="780" d="M752 1468h131q23 0 20 -24l-12 -64q-10 -78 -74 -176l-16 -28q-12 -15 -29 -15h-102q-12 0 -17.5 7.5t0.5 19.5l17 39q28 56 45 145l12 76q3 20 25 20zM522 993h228q23 0 20 -24l-27 -158q-3 -20 -24 -20h-232l-84 -498q-9 -52 7.5 -80.5t54.5 -28.5q28 0 55 9 q23 7 29 -15l41 -137q7 -20 -12 -29q-72 -35 -146 -35q-146 0 -214.5 83.5t-43.5 232.5l84 498h-98q-24 0 -21 24l27 158q3 20 24 20h103l39 236q3 18 20 24l197 62q12 3 19 -3t5 -18z" />
<glyph horiz-adv-x="1060" d="M262 963l78 20q108 31 219 31q85 0 153 -17t111.5 -46t75 -68t43 -83t16 -91.5t-5.5 -92.5l-98 -596q-3 -20 -25 -20h-104q-23 0 -23 23l-4 65q-3 14 -9 17.5t-15 -1.5t-25 -18q-122 -109 -291 -109q-152 0 -234.5 70t-82.5 193q0 72 24 135.5t72.5 115t132 81.5 t193.5 30h262l4 21q13 84 -29.5 134t-156.5 50q-99 0 -172 -21l-82 -22q-24 -6 -27 18l-18 154q-3 21 18 27zM696 424h-250q-89 0 -133.5 -45t-44.5 -107q0 -45 31 -69.5t90 -24.5q127 0 206.5 62.5t98.5 175.5z" />
<glyph horiz-adv-x="1060" d="M743 1468h209q14 0 18 -8t-5 -20l-240 -266q-10 -13 -27 -13h-151q-13 0 -18 8.5t3 18.5l185 266q11 14 26 14zM262 963l78 20q108 31 219 31q85 0 153 -17t111.5 -46t75 -68t43 -83t16 -91.5t-5.5 -92.5l-98 -596q-3 -20 -25 -20h-104q-23 0 -23 23l-4 65q-3 14 -9 17.5 t-15 -1.5t-25 -18q-122 -109 -291 -109q-152 0 -234.5 70t-82.5 193q0 72 24 135.5t72.5 115t132 81.5t193.5 30h262l4 21q13 84 -29.5 134t-156.5 50q-99 0 -172 -21l-82 -22q-24 -6 -27 18l-18 154q-3 21 18 27zM696 424h-250q-89 0 -133.5 -45t-44.5 -107q0 -45 31 -69.5 t90 -24.5q127 0 206.5 62.5t98.5 175.5z" />
<glyph horiz-adv-x="1060" d="M506 1501q54 0 84.5 -30.5t30.5 -84.5q0 -62 -33.5 -104.5t-102.5 -42.5q-55 0 -85.5 29.5t-30.5 83.5q0 71 35.5 110t101.5 39zM868 1501q54 0 84.5 -30.5t30.5 -84.5q0 -62 -33.5 -104.5t-101.5 -42.5q-56 0 -86.5 29.5t-30.5 83.5q0 71 35.5 110t101.5 39zM262 963 l78 20q108 31 219 31q85 0 153 -17t111.5 -46t75 -68t43 -83t16 -91.5t-5.5 -92.5l-98 -596q-3 -20 -25 -20h-104q-23 0 -23 23l-4 65q-3 14 -9 17.5t-15 -1.5t-25 -18q-122 -109 -291 -109q-152 0 -234.5 70t-82.5 193q0 72 24 135.5t72.5 115t132 81.5t193.5 30h262l4 21 q13 84 -29.5 134t-156.5 50q-99 0 -172 -21l-82 -22q-24 -6 -27 18l-18 154q-3 21 18 27zM696 424h-250q-89 0 -133.5 -45t-44.5 -107q0 -45 31 -69.5t90 -24.5q127 0 206.5 62.5t98.5 175.5z" />
<glyph horiz-adv-x="765" d="M293 993l22 142q29 170 136 263t270 93q57 0 137 -27l37 -12q21 -9 12 -31l-71 -147q-10 -19 -31 -10l-25 8q-40 12 -67 12q-64 0 -111 -46t-59 -120l-21 -125h228q23 0 20 -24l-27 -158q-3 -20 -24 -20h-232l-174 -1035q-3 -20 -24 -20h-185q-23 0 -20 24l174 1031h-98 q-24 0 -21 24l27 158q3 20 24 20h103z" />
<glyph horiz-adv-x="1595" d="M1700 1464l37 -12q21 -9 12 -31l-72 -147q-9 -19 -30 -10l-25 8q-40 12 -68 12q-64 0 -111 -46t-59 -120l-20 -125h227q24 0 21 -24l-27 -158q-3 -20 -24 -20h-232l-129 -771q-3 -20 -24 -20h-185q-23 0 -20 25l129 766h-465q-73 0 -131.5 -26t-94.5 -67t-60.5 -95 t-34 -105.5t-9.5 -102.5q0 -211 205 -211q64 0 162 25l78 20q23 7 26 -18l21 -154q3 -20 -19 -26l-92 -27q-94 -27 -186 -27q-203 0 -311.5 107.5t-108.5 298.5q0 83 17 163.5t59.5 163t105.5 144t164.5 100.5t228.5 39h480l22 142q29 170 136 263t270 93q58 0 137 -27z" />
<glyph horiz-adv-x="1613" d="M1329 791l-84 -498q-9 -52 7.5 -80.5t54.5 -28.5q28 0 55 9q23 7 29 -15l41 -137q6 -19 -13 -29q-72 -35 -145 -35q-146 0 -214.5 83.5t-43.5 232.5l84 498h-461q-74 0 -133.5 -26t-96 -67t-61 -95t-34 -105.5t-9.5 -102.5q0 -211 209 -211q64 0 162 25l74 18 q23 7 26 -18l21 -152q3 -20 -19 -26l-88 -25q-102 -29 -186 -29q-206 0 -315 107t-109 299q0 83 17 163.5t59.5 163t106.5 144t166 100.5t230 39h476l39 236q3 18 20 24l197 62q12 3 19 -3t5 -18l-51 -301h227q24 0 21 -24l-27 -158q-3 -20 -24 -20h-232z" />
<glyph horiz-adv-x="1613" d="M1669 1468h131q24 0 21 -24l-13 -64q-10 -80 -73 -176l-17 -28q-12 -15 -28 -15h-103q-12 0 -17 7.5t1 19.5l16 39q28 56 45 145l13 76q3 20 24 20zM1329 791l-84 -498q-9 -52 7.5 -80.5t54.5 -28.5q28 0 55 9q23 7 29 -15l41 -137q6 -19 -13 -29q-72 -35 -145 -35 q-146 0 -214.5 83.5t-43.5 232.5l84 498h-461q-74 0 -133.5 -26t-96 -67t-61 -95t-34 -105.5t-9.5 -102.5q0 -211 209 -211q64 0 162 25l74 18q23 7 26 -18l21 -152q3 -20 -19 -26l-88 -25q-102 -29 -186 -29q-206 0 -315 107t-109 299q0 83 17 163.5t59.5 163t106.5 144 t166 100.5t230 39h476l39 236q3 18 20 24l197 62q12 3 19 -3t5 -18l-51 -301h227q24 0 21 -24l-27 -158q-3 -20 -24 -20h-232z" />
<glyph horiz-adv-x="1595" d="M1700 1464l37 -12q21 -9 12 -31l-72 -147q-9 -19 -30 -10l-25 8q-40 12 -68 12q-64 0 -111 -46t-59 -120l-20 -125h227q24 0 21 -24l-27 -158q-3 -20 -24 -20h-232l-129 -771q-3 -20 -24 -20h-185q-23 0 -20 25l129 766h-465q-73 0 -131.5 -26t-94.5 -67t-60.5 -95 t-34 -105.5t-9.5 -102.5q0 -211 205 -211q64 0 162 25l78 20q23 7 26 -18l21 -154q3 -20 -19 -26l-92 -27q-94 -27 -186 -27q-203 0 -311.5 107.5t-108.5 298.5q0 83 17 163.5t59.5 163t105.5 144t164.5 100.5t228.5 39h480l22 142q29 170 136 263t270 93q58 0 137 -27z M723 1161h-166q-19 0 -27 17l-147 264q-6 10 -1.5 18t17.5 8h140q15 0 26 -14l99 -139l149 143q13 10 29 10h133q15 0 18 -8t-6 -20l-237 -266q-10 -13 -27 -13z" />
<glyph horiz-adv-x="1613" d="M723 1161h-166q-19 0 -27 17l-147 264q-6 10 -1.5 18t17.5 8h140q15 0 26 -14l99 -139l149 143q13 10 29 10h133q15 0 18 -8t-6 -20l-237 -266q-10 -13 -27 -13zM1669 1468h131q24 0 21 -24l-13 -64q-10 -80 -73 -176l-17 -28q-12 -15 -28 -15h-103q-12 0 -17 7.5t1 19.5 l16 39q28 56 45 145l13 76q3 20 24 20zM1364 993h227q24 0 21 -24l-27 -158q-3 -20 -24 -20h-232l-84 -498q-9 -52 7.5 -80.5t54.5 -28.5q28 0 55 9q23 7 29 -15l41 -137q6 -19 -13 -29q-72 -35 -145 -35q-146 0 -214.5 83.5t-43.5 232.5l84 498h-461q-74 0 -133.5 -26 t-96 -67t-61 -95t-34 -105.5t-9.5 -102.5q0 -211 209 -211q64 0 162 25l74 18q23 7 26 -18l21 -152q3 -20 -19 -26l-88 -25q-102 -29 -186 -29q-206 0 -315 107t-109 299q0 83 17 163.5t59.5 163t106.5 144t166 100.5t230 39h476l39 236q3 18 20 24l197 62q12 3 19 -3t5 -18 z" />
<glyph horiz-adv-x="1859" d="M1659 993h196q14 0 18 -7.5t-3 -18.5l-799 -1391q-8 -16 -27 -16h-192q-13 0 -17.5 8t3.5 18l147 260q57 107 65.5 216t-22.5 247l-96 363q-27 119 -123 119h-322l-129 -771q-3 -20 -24 -20h-184q-24 0 -21 25l129 766h-98q-24 0 -21 24l27 158q3 20 24 20h103l22 142 q29 170 136 263t270 93q57 0 137 -27l37 -12q21 -9 12 -31l-71 -147q-10 -19 -31 -10l-25 8q-40 12 -67 12q-64 0 -111 -46t-59 -120l-21 -125h322q261 0 295 -198l73 -303q17 -90 21 -199q0 -11 6 -15.5t14 0t13 15.5q49 129 139 297l227 387q8 16 27 16z" />
<glyph horiz-adv-x="1859" d="M1870 967l-799 -1391q-8 -16 -27 -16h-192q-13 0 -17.5 8t3.5 18l147 260q57 107 65.5 216t-22.5 247l-96 363q-27 119 -123 119h-322l-129 -771q-3 -20 -24 -20h-184q-24 0 -21 25l129 766h-98q-24 0 -21 24l27 158q3 20 24 20h103l22 142q29 170 136 263t270 93 q57 0 137 -27l37 -12q21 -9 12 -31l-71 -147q-10 -19 -31 -10l-25 8q-40 12 -67 12q-64 0 -111 -46t-59 -120l-21 -125h322q261 0 295 -198l73 -303q17 -90 21 -199q0 -11 6 -15.5t14 0t13 15.5q49 129 139 297l227 387q8 16 27 16h196q14 0 18 -7.5t-3 -18.5zM1497 1468 h209q14 0 17.5 -8t-5.5 -20l-239 -266q-10 -13 -27 -13h-152q-13 0 -17.5 8.5t3.5 18.5l184 266q11 14 27 14z" />
<glyph horiz-adv-x="1847" d="M1358 1014q194 0 301.5 -108t107.5 -298q0 -81 -18 -165t-60.5 -168.5t-104.5 -150t-158.5 -106.5t-213.5 -41q-235 0 -342 158q-148 -158 -381 -158q-194 0 -301.5 109t-107.5 299q0 82 18 166t61 168.5t105 149t158 105t213 40.5q236 0 342 -156q149 156 381 156z M496 184q69 0 125.5 28t92 71.5t60.5 99.5t35 109t10 102q0 103 -49 159t-141 56q-69 0 -126 -28t-93 -71.5t-60.5 -99.5t-34.5 -109t-10 -102q0 -103 49.5 -159t141.5 -56zM1219 184q69 0 125.5 28t92 71.5t60.5 99.5t35 109t10 102q0 103 -49 159t-141 56q-69 0 -126 -28 t-93 -71.5t-60.5 -99.5t-34.5 -109t-10 -102q0 -103 49.5 -159t141.5 -56z" />
<glyph horiz-adv-x="1523" d="M1237 791l-84 -498q-9 -52 7 -80.5t54 -28.5q29 0 56 9q22 6 28 -15l41 -137q7 -20 -12 -29q-72 -35 -145 -35q-146 0 -214.5 83.5t-43.5 232.5l84 498h-250q-181 0 -281.5 -118.5t-150.5 -406.5l-39 -246q-3 -20 -25 -20h-184q-24 0 -21 25l160 948q3 20 25 20h116 q23 0 23 -22v-117q0 -12 5.5 -17t14.5 -2t19 13q75 83 160 114t213 31h249l39 236q3 18 21 24l196 62q12 3 19 -3t6 -18l-51 -301h227q24 0 21 -24l-27 -158q-3 -20 -25 -20h-231z" />
<glyph horiz-adv-x="1523" d="M1497 1468h131q24 0 21 -24l-13 -64q-10 -80 -73 -176l-17 -28q-12 -15 -28 -15h-103q-12 0 -17 7.5t1 19.5l16 39q28 56 45 145l13 76q3 20 24 20zM1237 791l-84 -498q-9 -52 7 -80.5t54 -28.5q29 0 56 9q22 6 28 -15l41 -137q7 -20 -12 -29q-72 -35 -145 -35 q-146 0 -214.5 83.5t-43.5 232.5l84 498h-250q-181 0 -281.5 -118.5t-150.5 -406.5l-39 -246q-3 -20 -25 -20h-184q-24 0 -21 25l160 948q3 20 25 20h116q23 0 23 -22v-117q0 -12 5.5 -17t14.5 -2t19 13q75 83 160 114t213 31h249l39 236q3 18 21 24l196 62q12 3 19 -3 t6 -18l-51 -301h227q24 0 21 -24l-27 -158q-3 -20 -25 -20h-231z" />
<glyph horiz-adv-x="1523" d="M616 1161h-165q-19 0 -27 17l-148 264q-6 10 -1 18t18 8h139q16 0 27 -14l98 -139l150 143q13 10 28 10h133q15 0 18.5 -8t-5.5 -20l-238 -266q-10 -13 -27 -13zM1237 791l-84 -498q-9 -52 7 -80.5t54 -28.5q29 0 56 9q22 6 28 -15l41 -137q7 -20 -12 -29 q-72 -35 -145 -35q-146 0 -214.5 83.5t-43.5 232.5l84 498h-250q-181 0 -281.5 -118.5t-150.5 -406.5l-39 -246q-3 -20 -25 -20h-184q-24 0 -21 25l160 948q3 20 25 20h116q23 0 23 -22v-117q0 -12 5.5 -17t14.5 -2t19 13q75 83 160 114t213 31h249l39 236q3 18 21 24 l196 62q12 3 19 -3t6 -18l-51 -301h227q24 0 21 -24l-27 -158q-3 -20 -25 -20h-231z" />
<glyph horiz-adv-x="1740" d="M1833 1464l37 -12q21 -9 12 -31l-72 -147q-9 -19 -30 -10l-25 8q-41 12 -67 12q-64 0 -111 -46t-59 -120l-21 -125h227q24 0 21 -24l-27 -158q-3 -20 -24 -20h-232l-129 -771q-3 -20 -24 -20h-185q-23 0 -20 25l129 766h-705q-77 0 -120 -26t-43 -71q0 -26 19.5 -42.5 t64.5 -28.5l198 -56q217 -58 217 -235q0 -162 -115.5 -258.5t-332.5 -96.5q-137 0 -299 48l-74 22q-24 6 -14 29l73 149q9 19 29 13l68 -21q125 -33 256 -33q92 0 138 36.5t46 88.5q0 29 -18.5 47.5t-61.5 30.5l-201 55q-110 29 -163.5 84t-53.5 140q0 62 21 117t66.5 103.5 t129 77.5t195.5 29h715l22 142q29 170 136 263t270 93q58 0 137 -27z" />
<glyph horiz-adv-x="1746" d="M1720 1468h131q24 0 21 -24l-12 -64q-10 -78 -74 -176l-17 -28q-12 -15 -28 -15h-103q-12 0 -17 7.5t1 19.5l16 39q28 56 45 145l13 76q3 20 24 20zM1460 791l-84 -498q-9 -52 7.5 -80.5t54.5 -28.5q28 0 55 9q23 7 29 -15l41 -137q6 -19 -13 -29q-72 -35 -145 -35 q-146 0 -214.5 83.5t-43.5 232.5l84 498h-703q-77 0 -120 -26t-43 -71q0 -26 19.5 -42.5t64.5 -28.5l198 -56q217 -58 217 -235q0 -162 -115.5 -258.5t-332.5 -96.5q-137 0 -299 48l-74 22q-24 6 -14 29l73 149q9 19 29 13l68 -21q125 -33 256 -33q92 0 138 36.5t46 88.5 q0 29 -18.5 47.5t-61.5 30.5l-201 55q-110 29 -163.5 84t-53.5 140q0 62 21 117t66.5 103.5t129 77.5t195.5 29h713l39 236q3 18 20 24l197 62q12 3 19 -3t5 -18l-51 -301h227q24 0 21 -24l-27 -158q-3 -20 -24 -20h-232z" />
<glyph horiz-adv-x="1746" d="M680 1161h-166q-18 0 -27 17l-147 264q-6 10 -1.5 18t17.5 8h140q15 0 26 -14l99 -139l149 143q13 10 29 10h133q15 0 18 -8t-6 -20l-237 -266q-10 -13 -27 -13zM1460 791l-84 -498q-9 -52 7.5 -80.5t54.5 -28.5q28 0 55 9q23 7 29 -15l41 -137q6 -19 -13 -29 q-72 -35 -145 -35q-146 0 -214.5 83.5t-43.5 232.5l84 498h-703q-77 0 -120 -26t-43 -71q0 -26 19.5 -42.5t64.5 -28.5l198 -56q217 -58 217 -235q0 -162 -115.5 -258.5t-332.5 -96.5q-137 0 -299 48l-74 22q-24 6 -14 29l73 149q9 19 29 13l68 -21q125 -33 256 -33 q92 0 138 36.5t46 88.5q0 29 -18.5 47.5t-61.5 30.5l-201 55q-110 29 -163.5 84t-53.5 140q0 62 21 117t66.5 103.5t129 77.5t195.5 29h713l39 236q3 18 20 24l197 62q12 3 19 -3t5 -18l-51 -301h227q24 0 21 -24l-27 -158q-3 -20 -24 -20h-232z" />
<glyph horiz-adv-x="1746" d="M487 1178l-147 264q-6 10 -1.5 18t17.5 8h140q15 0 26 -14l99 -139l149 143q13 10 29 10h133q15 0 18 -8t-6 -20l-237 -266q-10 -13 -27 -13h-166q-18 0 -27 17zM1720 1468h131q24 0 21 -24l-12 -64q-10 -78 -74 -176l-17 -28q-12 -15 -28 -15h-103q-12 0 -17 7.5t1 19.5 l16 39q28 56 45 145l13 76q3 20 24 20zM1460 791l-84 -498q-9 -52 7.5 -80.5t54.5 -28.5q28 0 55 9q23 7 29 -15l41 -137q6 -19 -13 -29q-72 -35 -145 -35q-146 0 -214.5 83.5t-43.5 232.5l84 498h-703q-77 0 -120 -26t-43 -71q0 -26 19.5 -42.5t64.5 -28.5l198 -56 q217 -58 217 -235q0 -162 -115.5 -258.5t-332.5 -96.5q-137 0 -299 48l-74 22q-24 6 -14 29l73 149q9 19 29 13l68 -21q125 -33 256 -33q92 0 138 36.5t46 88.5q0 29 -18.5 47.5t-61.5 30.5l-201 55q-110 29 -163.5 84t-53.5 140q0 62 21 117t66.5 103.5t129 77.5t195.5 29 h713l39 236q3 18 20 24l197 62q12 3 19 -3t5 -18l-51 -301h227q24 0 21 -24l-27 -158q-3 -20 -24 -20h-232z" />
<glyph horiz-adv-x="1869" d="M1669 993h197q13 0 17.5 -7.5t-3.5 -18.5l-799 -1391q-8 -16 -26 -16h-193q-13 0 -17.5 8t1.5 18l149 262q57 105 65.5 214.5t-22.5 248.5l-96 361q-27 122 -123 119h-80h-252l-84 -498q-9 -52 7.5 -80.5t54.5 -28.5q28 0 55 9q23 7 29 -15l41 -137q7 -20 -12 -29 q-72 -35 -146 -35q-146 0 -214.5 83.5t-43.5 232.5l84 498h-98q-24 0 -21 24l27 158q3 20 24 20h103l39 236q3 18 20 24l197 62q12 3 19 -3t5 -18l-51 -301h332q132 0 205 -48t90 -150l74 -303q15 -81 20 -199q0 -11 6 -15.5t14 0t13 15.5q47 128 139 299l227 385 q8 16 27 16z" />
<glyph horiz-adv-x="1869" d="M1507 1468h209q14 0 18 -8t-5 -20l-240 -266q-10 -13 -27 -13h-151q-13 0 -18 8.5t3 18.5l185 266q11 14 26 14zM1880 967l-799 -1391q-8 -16 -26 -16h-193q-13 0 -17.5 8t1.5 18l149 262q57 105 65.5 214.5t-22.5 248.5l-96 361q-27 122 -123 119h-332l-84 -498 q-9 -52 7.5 -80.5t54.5 -28.5q28 0 55 9q23 7 29 -15l41 -137q7 -20 -12 -29q-72 -35 -146 -35q-146 0 -214.5 83.5t-43.5 232.5l84 498h-98q-24 0 -21 24l27 158q3 20 24 20h103l39 236q3 18 20 24l197 62q12 3 19 -3t5 -18l-51 -301h332q132 0 205 -48t90 -150l74 -303 q15 -81 20 -199q0 -11 6 -15.5t14 0t13 15.5q47 128 139 299l227 385q8 16 27 16h197q13 0 17.5 -7.5t-3.5 -18.5z" />
<glyph horiz-adv-x="1261" d="M827 162h-485l-88 -148q-11 -14 -29 -14h-200q-12 0 -17 8t2 19l330 546q165 282 252 484q10 16 26 16h218q19 0 22 -20q29 -250 86 -480l150 -548q3 -11 -3 -18t-18 -7h-180q-21 0 -27 18zM770 365l-16 57q-49 191 -49 348q-1 11 -7.5 15.5t-14 0t-11.5 -15.5 q-79 -197 -170 -348l-35 -57h303z" />
<glyph horiz-adv-x="1261" d="M866 1548h209q14 0 17.5 -8t-5.5 -20l-239 -267q-9 -12 -27 -12h-151q-13 0 -18 8.5t3 18.5l185 266q11 14 26 14zM342 162l-90 -148q-8 -14 -27 -14h-200q-12 0 -17 8t2 19l330 546q165 282 252 484q10 16 26 16h218q19 0 22 -20q29 -250 86 -480l150 -548q3 -11 -3 -18 t-18 -7h-180q-21 0 -27 18l-39 144h-485zM770 365l-16 57q-49 191 -49 348q-1 11 -7.5 15.5t-14 0t-11.5 -15.5q-79 -197 -170 -348l-35 -57h303z" />
<glyph horiz-adv-x="1261" d="M629 1581q54 0 84 -30.5t30 -84.5q0 -62 -33.5 -104.5t-101.5 -42.5q-55 0 -85.5 29.5t-30.5 83.5q0 71 35.5 110t101.5 39zM991 1581q54 0 84.5 -30.5t30.5 -84.5q0 -62 -33.5 -104.5t-101.5 -42.5q-56 0 -86.5 29.5t-30.5 83.5q0 71 35.5 110t101.5 39zM342 162 l-90 -148q-8 -14 -27 -14h-200q-12 0 -17 8t2 19l330 546q165 282 252 484q10 16 26 16h218q19 0 22 -20q29 -250 86 -480l150 -548q3 -11 -3 -18t-18 -7h-180q-21 0 -27 18l-39 144h-485zM770 365l-16 57q-49 191 -49 348q-1 11 -7.5 15.5t-14 0t-11.5 -15.5 q-79 -197 -170 -348l-35 -57h303z" />
<glyph horiz-adv-x="1148" d="M254 1073h496q153 0 238 -63.5t85 -178.5q0 -94 -50.5 -162t-133.5 -104q-25 -13 -25.5 -21.5t19.5 -13.5q64 -23 104.5 -73.5t40.5 -130.5q0 -142 -118 -234t-335 -92h-497q-24 0 -21 25l172 1028q3 20 25 20zM428 872l-39 -229h229q119 0 173.5 40t54.5 103 q0 41 -33 63.5t-94 22.5h-291zM356 440l-41 -237h295q99 0 149 39.5t50 93.5q0 104 -197 104h-256z" />
<glyph horiz-adv-x="1060" d="M870 35l-82 -23q-136 -35 -227 -35q-230 0 -352.5 117.5t-122.5 325.5q0 89 18.5 177.5t65.5 180t117 160t183.5 112.5t254.5 44q97 0 205 -31l96 -29q24 -6 12 -28l-75 -148q-9 -18 -31 -12l-64 20q-90 23 -149 23q-93 0 -166.5 -31t-117.5 -78.5t-73 -110.5t-40 -121 t-11 -116q0 -121 64.5 -184.5t193.5 -63.5q87 0 189 27l88 22q21 6 24 -18l19 -154q3 -20 -19 -26z" />
<glyph horiz-adv-x="1060" d="M803 1241h-166q-19 0 -27 16l-147 265q-6 10 -1.5 18t17.5 8h139q16 0 27 -14l98 -139l150 143q13 10 29 10h133q15 0 18 -8t-6 -20l-238 -267q-9 -12 -26 -12zM870 35l-82 -23q-136 -35 -227 -35q-230 0 -352.5 117.5t-122.5 325.5q0 89 18.5 177.5t65.5 180t117 160 t183.5 112.5t254.5 44q97 0 205 -31l96 -29q24 -6 12 -28l-75 -148q-9 -18 -31 -12l-64 20q-90 23 -149 23q-93 0 -166.5 -31t-117.5 -78.5t-73 -110.5t-40 -121t-11 -116q0 -121 64.5 -184.5t193.5 -63.5q87 0 189 27l88 22q21 6 24 -18l19 -154q3 -20 -19 -26z" />
<glyph horiz-adv-x="1204" d="M254 1073h416q220 0 340 -113.5t120 -312.5q0 -85 -19.5 -170.5t-67 -172.5t-117 -153.5t-179.5 -108.5t-245 -42h-424q-24 0 -21 25l172 1028q3 20 25 20zM428 870l-111 -667h205q80 0 146.5 28.5t109 74t72.5 103t42.5 113t12.5 107.5q0 115 -66.5 178t-191.5 63h-219z " />
<glyph horiz-adv-x="1204" d="M770 1241h-166q-18 0 -26 16l-148 265q-6 10 -1.5 18t17.5 8h140q15 0 26 -14l99 -139l149 143q13 10 29 10h133q15 0 18 -8t-6 -20l-237 -267q-9 -12 -27 -12zM254 1073h416q220 0 340 -113.5t120 -312.5q0 -85 -19.5 -170.5t-67 -172.5t-117 -153.5t-179.5 -108.5 t-245 -42h-424q-24 0 -21 25l172 1028q3 20 25 20zM317 203h205q80 0 146.5 28.5t109 74t72.5 103t42.5 113t12.5 107.5q0 115 -66.5 178t-191.5 63h-219z" />
<glyph horiz-adv-x="1083" d="M391 647h469q24 0 21 -24l-27 -158q-3 -21 -25 -21h-473l-39 -241h603q23 0 20 -25l-27 -158q-3 -20 -24 -20h-811q-24 0 -21 25l172 1028q3 20 25 20h817q12 0 17 -7t-1 -19l-73 -160q-10 -17 -27 -17h-559z" />
<glyph horiz-adv-x="1083" d="M795 1548h209q14 0 17.5 -8t-5.5 -20l-240 -267q-9 -12 -26 -12h-152q-13 0 -17.5 8.5t3.5 18.5l184 266q11 14 27 14zM391 647h469q24 0 21 -24l-27 -158q-3 -21 -25 -21h-473l-39 -241h603q23 0 20 -25l-27 -158q-3 -20 -24 -20h-811q-24 0 -21 25l172 1028q3 20 25 20 h817q12 0 17 -7t-1 -19l-73 -160q-10 -17 -27 -17h-559z" />
<glyph horiz-adv-x="1083" d="M774 1241h-166q-18 0 -26 16l-148 265q-6 10 -1 18t18 8h139q15 0 26 -14l99 -139l149 143q13 10 29 10h133q15 0 18 -8t-6 -20l-237 -267q-9 -12 -27 -12zM428 870l-37 -223h469q24 0 21 -24l-27 -158q-3 -21 -25 -21h-473l-39 -241h603q23 0 20 -25l-27 -158 q-3 -20 -24 -20h-811q-24 0 -21 25l172 1028q3 20 25 20h817q12 0 17 -7t-1 -19l-73 -160q-10 -17 -27 -17h-559z" />
<glyph horiz-adv-x="1050" d="M383 596h479q24 0 21 -25l-29 -157q-3 -21 -25 -21h-481l-61 -373q-3 -20 -25 -20h-184q-24 0 -21 25l172 1028q3 20 25 20h811q12 0 17 -7t-1 -19l-73 -160q-10 -17 -27 -17h-553z" />
<glyph horiz-adv-x="1142" d="M612 432l72 160q10 16 27 16h311q23 0 20 -24l-86 -510q-7 -20 -22 -23l-41 -12l-92 -25l-17 -4q-129 -33 -235 -33q-217 0 -340 119t-123 326q0 61 10 124t32.5 129.5t56 127t84 114t111.5 92.5t143.5 62t176.5 23q131 0 230 -29l94 -29q24 -6 12 -28l-73 -148 q-9 -18 -31 -12l-66 18q-76 23 -172 23q-83 0 -150.5 -31.5t-110 -80.5t-71.5 -111.5t-41 -120.5t-12 -111q0 -120 64 -185t184 -65q119 0 207 23l10 2l33 197h-178q-12 0 -17.5 7t0.5 19z" />
<glyph horiz-adv-x="1222" d="M1180 1049l-174 -1029q-3 -20 -25 -20h-184q-24 0 -21 25l72 419h-492l-69 -424q-3 -20 -25 -20h-184q-24 0 -21 25l172 1028q3 20 25 20h184q24 0 21 -24l-68 -402h492l67 406q3 20 25 20h184q24 0 21 -24z" />
<glyph horiz-adv-x="501" d="M647 1520l-180 -267q-11 -14 -29 -14h-137q-26 0 -16 27l129 264q10 16 26 16h193q13 0 17.5 -8t-3.5 -18zM459 1049l-172 -1029q-3 -20 -25 -20h-184q-24 0 -21 25l172 1028q3 20 25 20h184q24 0 21 -24z" />
<glyph horiz-adv-x="837" d="M807 1049l-117 -697q-29 -178 -145.5 -274t-300.5 -96q-102 0 -185 24l-57 19q-22 9 -10 30l78 150q9 18 30 12l41 -14q58 -17 111 -17q84 0 140.5 49.5t70.5 131.5l115 686q3 20 24 20h184q24 0 21 -24z" />
<glyph horiz-adv-x="1202" d="M391 643h37q77 0 146 50t145 136l203 232q9 12 26 12h211q15 0 18.5 -7.5t-6.5 -18.5l-264 -312q-129 -139 -241 -178q-9 -3 -10.5 -9t6.5 -9q122 -47 196 -183l164 -329q6 -12 1.5 -19.5t-17.5 -7.5h-197q-19 0 -27 16l-129 248q-45 83 -106 129.5t-152 46.5h-39 l-69 -420q-3 -20 -25 -20h-184q-24 0 -21 25l172 1028q3 20 25 20h184q24 0 21 -24z" />
<glyph horiz-adv-x="985" d="M317 203h529q23 0 20 -25l-26 -158q-3 -20 -25 -20h-737q-24 0 -21 25l172 1028q3 20 25 20h184q24 0 21 -24z" />
<glyph horiz-adv-x="1419" d="M1376 1049l-172 -1029q-3 -20 -24 -20h-185q-23 0 -20 25l59 370q39 224 76 355q4 15 -4 17.5t-16 -11.5q-28 -51 -62 -103l-207 -319q-44 -75 -67 -127q-10 -17 -27 -17h-135q-19 0 -25 21q-8 54 -26 123l-101 315q-18 62 -28 107q-2 10 -7.5 12t-11 -3t-6.5 -15 q-3 -133 -41 -355l-59 -375q-3 -20 -25 -20h-184q-24 0 -21 25l172 1028q3 20 25 20h258q22 0 25 -20q8 -51 24 -109l94 -307q24 -121 29 -170q2 -9 6.5 -12t9 0t7.5 12q28 64 88 170l198 307q48 89 58 113q10 16 26 16h279q23 0 20 -24z" />
<glyph horiz-adv-x="1259" d="M1217 1049l-173 -1029q-3 -20 -24 -20h-213q-19 0 -25 18q-31 85 -69 156l-256 477q-14 29 -43 99q-6 16 -16.5 11.5t-8.5 -18.5q-3 -128 -27 -262l-75 -461q-3 -20 -25 -20h-184q-24 0 -21 25l174 1028q3 20 25 20h209q18 0 24 -18q25 -74 68 -158l252 -465l49 -108 q6 -16 15.5 -12.5t9.5 16.5q2 96 28 264l76 461q3 20 25 20h184q24 0 21 -24z" />
<glyph horiz-adv-x="1259" d="M838 1239h-166q-19 0 -27 16l-147 265q-6 10 -1.5 18t17.5 8h139q16 0 27 -14l98 -139l150 143q13 10 28 10h134q15 0 18 -8t-6 -20l-238 -267q-9 -12 -26 -12zM1012 1073h184q24 0 21 -24l-173 -1029q-3 -20 -24 -20h-213q-19 0 -25 18q-31 85 -69 156l-256 477 q-14 29 -43 99q-6 16 -16.5 11.5t-8.5 -18.5q-3 -128 -27 -262l-75 -461q-3 -20 -25 -20h-184q-24 0 -21 25l174 1028q3 20 25 20h209q18 0 24 -18q25 -74 68 -158l252 -465l49 -108q6 -16 15.5 -12.5t9.5 16.5q2 96 28 264l76 461q3 20 25 20z" />
<glyph horiz-adv-x="1214" d="M694 1094q213 0 331 -117t118 -324q0 -60 -10.5 -123.5t-33.5 -130t-56.5 -127.5t-84 -115t-111 -94t-142 -63t-173.5 -23q-212 0 -330 118.5t-118 324.5q0 88 20 177.5t67.5 180t115.5 160t173.5 113t233.5 43.5zM686 889q-81 0 -147 -31t-107.5 -79.5t-70 -110.5 t-40.5 -121.5t-12 -114.5q0 -119 60 -183.5t172 -64.5q81 0 147 31t107.5 79.5t70 110.5t40.5 121.5t12 114.5q0 118 -61 183t-171 65z" />
<glyph horiz-adv-x="1214" d="M836 1548h208q14 0 18 -8t-5 -20l-240 -267q-9 -12 -26 -12h-152q-13 0 -17.5 8.5t3.5 18.5l184 266q11 14 27 14zM694 1094q213 0 331 -117t118 -324q0 -60 -10.5 -123.5t-33.5 -130t-56.5 -127.5t-84 -115t-111 -94t-142 -63t-173.5 -23q-212 0 -330 118.5t-118 324.5 q0 88 20 177.5t67.5 180t115.5 160t173.5 113t233.5 43.5zM686 889q-81 0 -147 -31t-107.5 -79.5t-70 -110.5t-40.5 -121.5t-12 -114.5q0 -119 60 -183.5t172 -64.5q81 0 147 31t107.5 79.5t70 110.5t40.5 121.5t12 114.5q0 118 -61 183t-171 65z" />
<glyph horiz-adv-x="1214" d="M600 1581q54 0 84.5 -30.5t30.5 -84.5q0 -62 -33.5 -104.5t-101.5 -42.5q-56 0 -86.5 29.5t-30.5 83.5q0 71 35.5 110t101.5 39zM963 1581q54 0 84 -30.5t30 -84.5q0 -62 -33.5 -104.5t-101.5 -42.5q-56 0 -86.5 29.5t-30.5 83.5q0 71 36 110t102 39zM694 1094 q213 0 331 -117t118 -324q0 -60 -10.5 -123.5t-33.5 -130t-56.5 -127.5t-84 -115t-111 -94t-142 -63t-173.5 -23q-212 0 -330 118.5t-118 324.5q0 88 20 177.5t67.5 180t115.5 160t173.5 113t233.5 43.5zM686 889q-81 0 -147 -31t-107.5 -79.5t-70 -110.5t-40.5 -121.5 t-12 -114.5q0 -119 60 -183.5t172 -64.5q81 0 147 31t107.5 79.5t70 110.5t40.5 121.5t12 114.5q0 118 -61 183t-171 65z" />
<glyph horiz-adv-x="1112" d="M254 1073h451q187 0 284 -84.5t88 -236.5q-5 -83 -40 -154t-100.5 -128.5t-173 -90.5t-245.5 -33h-178l-53 -326q-3 -20 -25 -20h-184q-24 0 -21 25l172 1028q3 20 25 20zM428 870l-53 -321h164q133 0 219.5 47.5t93.5 130.5q8 66 -35 104.5t-133 38.5h-256z" />
<glyph horiz-adv-x="1212" d="M903 -264l-57 90q-58 77 -137 114t-193 37q-203 4 -317.5 122.5t-114.5 320.5q0 72 15 147t44.5 151.5t80 143.5t115.5 119t156.5 82.5t198.5 30.5q212 0 330.5 -118t118.5 -323q0 -153 -72.5 -309t-202.5 -233q-9 -5 -11.5 -10t0.5 -9.5t11 -7.5q103 -27 170 -125 l64 -96q12 -19 -6 -31l-162 -102q-19 -12 -31 6zM686 889q-81 0 -147 -31t-107.5 -79.5t-70 -110.5t-40.5 -121.5t-12 -114.5q0 -119 60.5 -183.5t171.5 -64.5q81 0 147 31t107.5 79.5t70 110.5t40.5 121.5t12 114.5q0 119 -60 183.5t-172 64.5z" />
<glyph horiz-adv-x="1177" d="M254 1073h461q173 0 269.5 -72.5t96.5 -203.5q0 -115 -66.5 -205t-187.5 -131q-36 -14 -12 -31q91 -53 125 -168l76 -237q3 -11 -2 -18t-17 -7h-186q-21 0 -27 18l-55 175q-63 192 -260 192h-123l-59 -365q-3 -20 -25 -20h-184q-24 0 -21 25l172 1028q3 20 25 20z M428 870l-45 -282h207q130 0 199 44.5t69 127.5q0 52 -41 81t-115 29h-274z" />
<glyph horiz-adv-x="1177" d="M764 1239h-166q-19 0 -27 16l-147 265q-6 10 -1.5 18t17.5 8h140q15 0 26 -14l99 -139l149 143q13 10 29 10h133q15 0 18 -8t-6 -20l-237 -267q-9 -12 -27 -12zM254 1073h461q173 0 269.5 -72.5t96.5 -203.5q0 -115 -66.5 -205t-187.5 -131q-36 -14 -12 -31 q91 -53 125 -168l76 -237q3 -11 -2 -18t-17 -7h-186q-21 0 -27 18l-55 175q-63 192 -260 192h-123l-59 -365q-3 -20 -25 -20h-184q-24 0 -21 25l172 1028q3 20 25 20zM383 588h207q130 0 199 44.5t69 127.5q0 52 -41 81t-115 29h-274z" />
<glyph horiz-adv-x="1081" d="M631 422l-234 59q-121 31 -178 91.5t-57 158.5q0 73 27 137t80.5 115.5t144 81t207.5 29.5q161 0 284 -35l101 -29q24 -6 14 -29l-72 -153q-9 -18 -28 -12l-91 24q-104 29 -213 29q-108 0 -168.5 -34.5t-60.5 -96.5q0 -65 96 -88l232 -62q125 -31 184 -92.5t59 -161.5 q0 -76 -27 -141.5t-82.5 -119.5t-149.5 -85t-218 -31q-192 0 -350 48l-90 26q-21 9 -12 31l73 149q10 19 31 13l68 -21q124 -39 288 -39q115 0 179.5 39.5t64.5 108.5q0 64 -102 90z" />
<glyph horiz-adv-x="1081" d="M743 1241h-165q-19 0 -27 16l-148 265q-6 10 -1 18t18 8h139q16 0 27 -14l98 -139l150 143q13 10 28 10h133q15 0 18.5 -8t-5.5 -20l-238 -267q-9 -12 -27 -12zM920 836l-91 24q-104 29 -213 29q-108 0 -168.5 -34.5t-60.5 -96.5q0 -65 96 -88l232 -62q125 -31 184 -92.5 t59 -161.5q0 -76 -27 -141.5t-82.5 -119.5t-149.5 -85t-218 -31q-192 0 -350 48l-90 26q-21 9 -12 31l73 149q10 19 31 13l68 -21q124 -39 288 -39q115 0 179.5 39.5t64.5 108.5q0 64 -102 90l-234 59q-121 31 -178 91.5t-57 158.5q0 73 27 137t80.5 115.5t144 81 t207.5 29.5q161 0 284 -35l101 -29q24 -6 14 -29l-72 -153q-9 -18 -28 -12z" />
<glyph horiz-adv-x="2142" d="M631 422l-234 59q-121 31 -178 91.5t-57 158.5q0 73 27 137t80.5 115.5t144 81t207.5 29.5q161 0 284 -35l101 -29q24 -6 14 -29l-72 -153q-9 -18 -28 -12l-91 24q-104 29 -213 29q-108 0 -168.5 -34.5t-60.5 -96.5q0 -65 96 -88l232 -62q125 -31 184 -92.5t59 -161.5 q0 -76 -27 -141.5t-82.5 -119.5t-149.5 -85t-218 -31q-192 0 -350 48l-90 26q-21 9 -12 31l73 149q10 19 31 13l68 -21q124 -39 288 -39q115 0 179.5 39.5t64.5 108.5q0 64 -102 90zM1692 422l-234 59q-121 31 -178 91.5t-57 158.5q0 74 26.5 137.5t80 115t144 81 t207.5 29.5q162 0 285 -35l100 -29q25 -6 15 -29l-72 -153q-9 -18 -29 -12l-90 24q-104 29 -213 29q-108 0 -168.5 -34.5t-60.5 -96.5q0 -65 96 -88l232 -62q125 -31 184 -92.5t59 -161.5q0 -76 -27 -141.5t-82.5 -119.5t-149.5 -85t-218 -31q-192 0 -350 48l-90 26 q-21 9 -12 31l73 149q10 19 31 13l68 -21q124 -39 288 -39q115 0 179.5 39.5t64.5 108.5q0 64 -102 90z" />
<glyph horiz-adv-x="1116" d="M1137 1049l-29 -158q-3 -21 -25 -21h-348l-141 -850q-3 -20 -25 -20h-184q-23 0 -20 25l141 845h-346q-24 0 -21 25l27 158q3 20 24 20h926q24 0 21 -24z" />
<glyph horiz-adv-x="1116" d="M768 1239h-166q-19 0 -27 16l-147 265q-6 10 -1.5 18t17.5 8h140q15 0 26 -14l99 -139l149 143q13 10 29 10h133q15 0 18 -8t-6 -20l-237 -267q-9 -12 -27 -12zM190 1073h926q24 0 21 -24l-29 -158q-3 -21 -25 -21h-348l-141 -850q-3 -20 -25 -20h-184q-23 0 -20 25 l141 845h-346q-24 0 -21 25l27 158q3 20 24 20z" />
<glyph horiz-adv-x="1202" d="M1167 1051l-104 -623q-37 -215 -177 -330.5t-360 -115.5q-228 0 -336 122t-71 338l102 613q3 20 25 20h184q24 0 21 -24l-105 -623q-20 -118 29 -180t160 -62q122 0 201.5 68.5t99.5 187.5l102 613q3 20 25 20h184q23 0 20 -24z" />
<glyph horiz-adv-x="1202" d="M831 1550h209q14 0 18 -8t-5 -20l-240 -267q-9 -12 -27 -12h-151q-13 0 -17.5 8.5t3.5 18.5l184 266q11 14 26 14zM1167 1051l-104 -623q-37 -215 -177 -330.5t-360 -115.5q-228 0 -336 122t-71 338l102 613q3 20 25 20h184q24 0 21 -24l-105 -623q-20 -118 29 -180 t160 -62q122 0 201.5 68.5t99.5 187.5l102 613q3 20 25 20h184q23 0 20 -24z" />
<glyph horiz-adv-x="1202" d="M594 1583q54 0 84.5 -30.5t30.5 -84.5q0 -62 -33.5 -104.5t-102.5 -42.5q-55 0 -85.5 29.5t-30.5 83.5q0 71 35.5 110t101.5 39zM956 1583q54 0 84.5 -30.5t30.5 -84.5q0 -62 -33.5 -104.5t-101.5 -42.5q-56 0 -86.5 29.5t-30.5 83.5q0 71 35.5 110t101.5 39zM1167 1051 l-104 -623q-37 -215 -177 -330.5t-360 -115.5q-228 0 -336 122t-71 338l102 613q3 20 25 20h184q24 0 21 -24l-105 -623q-20 -118 29 -180t160 -62q122 0 201.5 68.5t99.5 187.5l102 613q3 20 25 20h184q23 0 20 -24z" />
<glyph horiz-adv-x="1202" d="M778 1569q78 0 121 -36.5t43 -102.5q0 -33 -11.5 -66t-35 -65t-67.5 -52t-101 -20q-79 0 -121.5 35t-42.5 100q0 83 53 145t162 62zM766 1468q-36 0 -59.5 -23.5t-26.5 -60.5q-3 -59 59 -59q38 0 62 25.5t24 66.5q0 51 -59 51zM1167 1051l-104 -623q-37 -215 -177 -330.5 t-360 -115.5q-228 0 -336 122t-71 338l102 613q3 20 25 20h184q24 0 21 -24l-105 -623q-20 -118 29 -180t160 -62q122 0 201.5 68.5t99.5 187.5l102 613q3 20 25 20h184q23 0 20 -24z" />
<glyph horiz-adv-x="1220" d="M1245 1047l-332 -547q-153 -263 -251 -484q-10 -16 -27 -16h-215q-20 0 -23 20q-34 257 -88 480l-149 549q-3 11 2.5 17.5t17.5 6.5h182q21 0 27 -18l113 -406q43 -171 47 -346q0 -11 6.5 -16t15 -1t13.5 15q59 165 168 348l247 410q11 14 29 14h203q12 0 16.5 -7.5 t-2.5 -18.5z" />
<glyph horiz-adv-x="1722" d="M1735 1047l-293 -625q-91 -199 -178 -406q-10 -16 -27 -16h-223q-20 0 -23 20q-9 89 -28 240l-43 258q-12 101 -15 158q0 14 -5 19.5t-11.5 0t-11.5 -19.5q-9 -24 -66 -154l-131 -262q-51 -107 -109 -244q-10 -16 -26 -16h-223q-22 0 -25 23q-6 76 -41 399l-82 627 q-3 24 21 24h182q19 0 22 -20l56 -420q14 -133 18 -336q0 -11 6.5 -15.5t14.5 0t12 15.5q62 154 168 371l192 389q8 16 27 16h119q21 0 24 -20l64 -385q31 -231 39 -371q1 -11 8 -15.5t15 0t12 15.5q58 163 135 336l192 424q10 16 27 16h190q12 0 17.5 -7t-0.5 -19z" />
<glyph horiz-adv-x="1189" d="M1180 1047l-328 -392q-63 -80 -115 -102q-12 -6 -4 -18q26 -19 43.5 -42.5t36.5 -64.5l201 -401q6 -12 1.5 -19.5t-18.5 -7.5h-196q-19 0 -27 16l-178 349q-9 25 -31 0l-299 -353q-9 -12 -26 -12h-209q-15 0 -19.5 8t4.5 19l344 407q57 76 109 101q16 10 2 20 q-46 27 -78 100l-198 392q-13 26 16 26h197q18 0 26 -16l174 -342q5 -12 13.5 -12.5t19.5 12.5l291 346q9 12 26 12h207q15 0 19.5 -7.5t-4.5 -18.5z" />
<glyph horiz-adv-x="1181" d="M1219 1047l-301 -359q-137 -173 -188.5 -266.5t-76.5 -235.5l-26 -166q-3 -20 -25 -20h-182q-24 0 -21 25l27 161q13 75 14 131t-12 115.5t-34 113.5t-62 142l-180 359q-13 26 16 26h201q18 0 26 -16l117 -219q51 -107 78 -222q1 -8 6.5 -11t12.5 -0.5t12 11.5 q91 146 153 222l195 223q9 12 26 12h209q15 0 19.5 -7.5t-4.5 -18.5z" />
<glyph horiz-adv-x="1181" d="M807 1548h209q14 0 17.5 -8t-5.5 -20l-240 -267q-9 -12 -26 -12h-152q-13 0 -17.5 8.5t3.5 18.5l184 266q11 14 27 14zM1219 1047l-301 -359q-137 -173 -188.5 -266.5t-76.5 -235.5l-26 -166q-3 -20 -25 -20h-182q-24 0 -21 25l27 161q13 75 14 131t-12 115.5t-34 113.5 t-62 142l-180 359q-13 26 16 26h201q18 0 26 -16l117 -219q51 -107 78 -222q1 -8 6.5 -11t12.5 -0.5t12 11.5q91 146 153 222l195 223q9 12 26 12h209q15 0 19.5 -7.5t-4.5 -18.5z" />
<glyph horiz-adv-x="1097" d="M1098 1057v-2q6 -16 -6 -31q-48 -52 -131 -160l-433 -524q-62 -79 -102 -115q-11 -9 -9 -16.5t15 -7.5q25 0 66.5 1t58.5 1h367q13 0 17.5 -7.5t-1.5 -19.5l-88 -160q-8 -16 -27 -16h-774q-17 0 -26 18q-6 17 6 31q68 73 143 170l420 514q71 86 104 115q12 10 10.5 17 t-16.5 7q-43 -2 -125 -2h-358q-24 0 -21 25l29 158q3 20 25 20h829q17 0 27 -16z" />
<glyph horiz-adv-x="1097" d="M739 1241h-166q-18 0 -26 16l-148 265q-6 10 -1 18t18 8h139q16 0 27 -14l98 -139l149 143q13 10 29 10h133q15 0 18.5 -8t-5.5 -20l-238 -267q-9 -12 -27 -12zM961 864l-433 -524q-62 -79 -102 -115q-11 -9 -9 -16.5t15 -7.5q25 0 66.5 1t58.5 1h367q13 0 17.5 -7.5 t-1.5 -19.5l-88 -160q-8 -16 -27 -16h-774q-17 0 -26 18q-6 17 6 31q68 73 143 170l420 514q71 86 104 115q12 10 10.5 17t-16.5 7q-43 -2 -125 -2h-358q-24 0 -21 25l29 158q3 20 25 20h829q18 0 27 -18q6 -17 -6 -31q-63 -72 -131 -160z" />
<glyph horiz-adv-x="501" d="M459 1049l-172 -1029q-3 -20 -25 -20h-184q-24 0 -21 25l172 1028q3 20 25 20h184q24 0 21 -24z" />
<glyph d="M354 457q128 0 199.5 -81t71.5 -224q0 -65 -12.5 -132.5t-41.5 -136.5t-71.5 -122t-109 -87t-146.5 -34q-130 0 -201.5 82.5t-71.5 228.5q0 65 12.5 132t42 135t72 120.5t109 85.5t147.5 33zM354 299q-46 0 -84 -25.5t-62 -64.5t-40 -88t-22.5 -93t-6.5 -83 q0 -146 103 -146q46 0 83.5 25.5t61.5 64.5t40.5 88t23 93.5t6.5 83.5q0 145 -103 145z" />
<glyph horiz-adv-x="749" d="M369 -197h131q23 0 20 -24l-18 -111q-3 -20 -25 -20h-440q-24 0 -21 24l19 111q3 20 24 20h140l53 324q10 61 22 92q5 9 1.5 11.5t-13.5 -1.5l-84 -30q-22 -9 -28 16l-23 104q-3 22 16 27l293 105q15 6 31 -7q9 -9 6 -24z" />
<glyph d="M98 401l72 23q92 31 197 31q125 0 186.5 -58t48.5 -164q-15 -136 -174 -219l-195 -102q-68 -39 -77 -109h340q23 0 20 -24l-20 -109q-3 -20 -25 -20h-494q-23 0 -20 24l12 72q20 111 70.5 185.5t138.5 121.5l191 99q58 36 63 77q2 31 -23 49.5t-69 18.5q-56 0 -143 -25 l-72 -22q-24 -7 -27 18l-16 107q-3 21 16 26z" />
<glyph d="M113 408l61 20q72 27 172 27q126 0 189 -55.5t51 -155.5q-10 -116 -107 -170q-23 -11 -24 -13q-3 -6 6 -12q104 -51 92 -168q-12 -116 -103 -179.5t-239 -63.5q-79 0 -180 32l-64 21q-22 9 -10 30l55 109q9 18 31 12l61 -20q70 -25 129 -25q66 0 107.5 26.5t44.5 70.5 q2 38 -26 59.5t-80 21.5h-56q-23 0 -20 25l18 111q3 20 25 20h55q49 0 78.5 24.5t32.5 67.5q3 34 -21 55t-69 21q-62 0 -123 -20l-62 -19q-23 -10 -26 16l-17 105q-3 21 19 27z" />
<glyph horiz-adv-x="747" d="M492 -160l-27 -170q-3 -20 -25 -20h-123q-23 0 -20 24l27 166h-355q-23 0 -20 25l18 108q2 14 15 27q55 55 86 88l237 264q50 57 66 80q11 14 26 14h174q24 0 21 -24l-76 -442h64q23 0 20 -25l-16 -94q-3 -21 -25 -21h-67zM346 -20l23 129q9 57 32 131q5 12 -4 13 q-6 0 -14 -9l-172 -189q-17 -20 -59 -57q-10 -8 -7.5 -13t13.5 -5h188z" />
<glyph d="M250 289l-10 -72q-14 -56 -15 -59q-2 -6 -1 -9t5 -2q5 0 14.5 1.5t14.5 1.5h27q40 4 57 4q118 0 177.5 -60.5t47.5 -167.5q-15 -135 -108.5 -211.5t-241.5 -76.5q-90 0 -190 34l-62 21q-22 10 -10 31l57 108q10 19 31 10l57 -20q77 -25 140 -25q72 0 112 37.5t43 89.5 q3 43 -24.5 66.5t-81.5 23.5q-18 0 -88 -4l-117 -14q-20 -3 -29 12q-11 11 -8 27l66 391q3 20 24 20h451q29 0 16 -26l-59 -115q-8 -16 -27 -16h-268z" />
<glyph d="M496 418l-158 -172q-43 -46 -78 -72q-11 -9 -8 -15.5t16 -2.5q44 16 105 16q105 0 163.5 -64t45.5 -174q-16 -132 -108 -214t-247 -82q-141 0 -209 68.5t-53 193.5q10 104 57.5 191.5t147.5 197.5l133 145q9 12 27 12h153q14 0 18 -8t-5 -20zM250 -203q70 0 112.5 35.5 t47.5 97.5q3 48 -26.5 74.5t-90.5 26.5q-75 0 -114 -38.5t-44 -92.5q-3 -50 27 -76.5t88 -26.5z" />
<glyph d="M674 434q5 -14 -6 -28q-66 -85 -119 -181l-330 -559q-8 -16 -26 -16h-130q-12 0 -16.5 8t2.5 18l281 480q43 70 76 112q5 6 6 11t-2 7.5t-9 2.5h-329q-24 0 -21 24l19 113q3 20 24 20h553q18 0 27 -12z" />
<glyph d="M367 455q126 0 190 -52.5t53 -146.5q-13 -126 -135 -176q-19 -9 -6 -19q119 -54 102 -184q-11 -105 -100.5 -172t-241.5 -67q-139 0 -208.5 58t-57.5 161q14 143 164 204q22 9 6 19q-94 46 -82 151q12 104 96.5 164t219.5 60zM342 311q-58 0 -93 -26t-38 -70 q-3 -36 23.5 -56t78.5 -20q57 0 92.5 26.5t38.5 72.5q3 34 -24 53.5t-78 19.5zM289 -6q-73 0 -114 -34.5t-46 -82.5q-3 -41 29.5 -64.5t93.5 -23.5q70 0 113.5 29.5t46.5 81.5q4 45 -29 69.5t-94 24.5z" />
<glyph d="M96 -324l158 172q43 46 78 72q11 9 8 16t-16 3q-47 -17 -105 -17q-105 0 -163.5 64t-45.5 174q16 132 108 214.5t247 82.5q141 0 209 -68.5t53 -193.5q-10 -104 -57.5 -192.5t-147.5 -197.5l-133 -145q-9 -12 -27 -12h-153q-14 0 -18 8t5 20zM342 297q-70 0 -112.5 -35.5 t-47.5 -97.5q-3 -48 26.5 -74.5t90.5 -26.5q75 0 114 39t44 93q3 49 -26.5 75.5t-88.5 26.5z" />
<glyph d="M565 1704q128 0 199.5 -81t71.5 -224q0 -65 -12.5 -132.5t-41.5 -136.5t-71.5 -122t-109 -87t-146.5 -34q-130 0 -201.5 82.5t-71.5 228.5q0 65 12.5 132t42 135t72 120.5t109 85.5t147.5 33zM565 1546q-46 0 -84 -25.5t-62 -64.5t-40 -88t-22.5 -93t-6.5 -83 q0 -145 103 -145q46 0 83.5 25.5t61.5 64t40.5 87.5t23 93.5t6.5 83.5q0 145 -103 145z" />
<glyph d="M580 1053h129q23 0 20 -25l-18 -110q-3 -21 -25 -21h-440q-24 0 -21 25l19 110q3 21 24 21h142l53 321q10 61 22 92q5 9 1.5 12t-13.5 -1l-84 -31q-23 -10 -29 16l-22 105q-3 21 16 26l293 105q16 6 31 -6q9 -9 6 -25z" />
<glyph d="M311 1651l72 22q92 31 197 31q125 0 186.5 -58t48.5 -163q-15 -136 -174 -219l-195 -103q-68 -39 -77 -108h340q23 0 20 -25l-20 -108q-3 -21 -25 -21h-494q-23 0 -20 25l12 71q21 112 71 186.5t138 121.5l191 98q58 36 63 78q2 31 -23 49t-69 18q-59 0 -143 -24l-72 -23 q-24 -7 -27 19l-16 106q-3 22 16 27z" />
<glyph d="M326 1657l61 20q72 27 172 27q126 0 189 -55.5t51 -155.5q-10 -116 -107 -170l-10 -3q-10 -4 -14 -9q-3 -7 6 -13q104 -51 92 -168q-12 -116 -103 -179.5t-239 -63.5q-76 0 -180 33l-64 20q-22 10 -10 31l55 108q10 19 31 13l61 -21q68 -24 129 -24q66 0 107.5 26 t44.5 70q2 39 -26 60.5t-80 21.5h-56q-23 0 -20 24l18 111q3 20 25 20h55q49 0 78.5 25t32.5 68q3 34 -21 54.5t-69 20.5q-62 0 -123 -20l-62 -19q-23 -10 -26 17l-17 104q-3 21 19 27z" />
<glyph d="M702 1090l-26 -170q-3 -21 -25 -21h-123q-23 0 -20 25l27 166h-355q-23 0 -20 24l18 109q2 13 15 26q55 55 86 88l237 265q54 61 66 79q12 15 26 15h174q24 0 21 -25l-76 -442h64q23 0 20 -25l-16 -94q-3 -20 -25 -20h-68zM557 1229l23 129q9 57 32 131q5 12 -4 13 q-6 0 -14 -9l-172 -188q-18 -21 -60 -58q-10 -7 -7 -12.5t14 -5.5h188z" />
<glyph d="M463 1538l-10 -72q-14 -56 -15 -59q-2 -6 -1 -8.5t5 -1.5q5 0 14.5 1t14.5 1h27q40 4 57 4q118 0 177.5 -60t47.5 -167q-15 -135 -108.5 -212t-241.5 -77q-87 0 -190 35l-62 20q-22 10 -10 31l57 108q10 20 31 11l57 -21q73 -24 140 -24q72 0 112 37.5t43 89.5 q3 43 -24.5 66.5t-81.5 23.5q-18 0 -88 -4l-117 -15q-20 -3 -29 12q-11 11 -8 27l66 391q3 21 24 21h451q29 0 16 -27l-59 -115q-8 -16 -27 -16h-268z" />
<glyph d="M709 1667l-158 -172q-43 -46 -78 -72q-11 -9 -8 -15.5t16 -2.5q44 16 105 16q105 0 163.5 -63.5t45.5 -173.5q-16 -132 -108 -214.5t-247 -82.5q-141 0 -209 68.5t-53 193.5q10 104 57.5 191.5t147.5 197.5l133 145q10 13 27 13h153q14 0 18 -8.5t-5 -20.5zM463 1047 q70 0 112.5 35.5t47.5 97.5q3 48 -26.5 74t-90.5 26q-75 0 -114 -38.5t-44 -92.5q-3 -49 26.5 -75.5t88.5 -26.5z" />
<glyph d="M887 1683q5 -14 -6 -28q-68 -88 -119 -180l-330 -560q-8 -16 -26 -16h-130q-12 0 -16.5 8.5t2.5 18.5l281 479q49 80 75 113q5 6 6 10.5t-1.5 7t-8.5 2.5h-329q-24 0 -21 25l19 112q3 21 24 21h553q17 0 27 -13z" />
<glyph d="M578 1704q126 0 190 -52.5t53 -146.5q-13 -126 -135 -176q-18 -9 -6 -18q54 -25 82.5 -71.5t19.5 -113.5q-11 -105 -100.5 -172t-241.5 -67q-139 0 -208.5 58t-57.5 161q14 144 164 205q21 9 6 18q-94 46 -82 152q12 104 96.5 163.5t219.5 59.5zM553 1561q-58 0 -93 -26 t-38 -71q-3 -36 23.5 -55.5t78.5 -19.5q57 0 92.5 26t38.5 72q3 34 -24 54t-78 20zM500 1243q-73 0 -114 -34.5t-46 -82.5q-3 -41 29.5 -64.5t93.5 -23.5q70 0 113.5 29.5t46.5 81.5q4 45 -29 69.5t-94 24.5z" />
<glyph d="M307 924l158 172q40 43 78 71q11 9 8 16t-16 3q-47 -17 -105 -17q-105 0 -163.5 64t-45.5 174q16 132 107.5 214.5t246.5 82.5q141 0 209.5 -68.5t53.5 -193.5q-10 -104 -57.5 -191.5t-147.5 -197.5l-133 -146q-9 -12 -27 -12h-154q-14 0 -17.5 8.5t5.5 20.5zM553 1544 q-70 0 -112.5 -35.5t-47.5 -97.5q-3 -48 26.5 -74t90.5 -26q75 0 114 38.5t44 92.5q3 49 -26.5 75.5t-88.5 26.5z" />
<glyph horiz-adv-x="1161" d="M668 1094q195 0 303 -115t108 -317q0 -88 -19 -179t-63 -183t-108 -163t-163.5 -115.5t-219.5 -44.5q-195 0 -303.5 116t-108.5 317q0 87 19 177.5t63 182.5t108 163t163.5 116t220.5 45zM659 889q-72 0 -131 -32t-97 -82.5t-64 -114t-37 -124.5t-11 -118 q0 -112 49.5 -173t145.5 -61q71 0 129.5 31.5t96.5 81t64.5 113t38 125.5t11.5 120q0 112 -49.5 173t-145.5 61z" />
<glyph horiz-adv-x="696" d="M457 0h-185q-23 0 -20 25l100 593q5 37 33 144q6 22 -12 22q-2 0 -7 -1.5t-11 -3.5l-9 -3l-149 -63q-23 -10 -29 14l-37 152q-6 20 14 28l461 180q16 6 31 -6l8 -6q13 -13 10 -28l-174 -1027q-3 -20 -24 -20z" />
<glyph horiz-adv-x="1058" d="M248 1022l102 29q142 43 275 43q173 0 270.5 -70t97.5 -195q0 -95 -58.5 -172.5t-199.5 -144.5l-282 -141q-123 -65 -138 -168h533q23 0 20 -25l-26 -158q-3 -20 -25 -20h-741q-24 0 -21 25l17 92q26 160 99 263t208 167l285 143q54 29 79 55.5t25 59.5q0 38 -40.5 61 t-109.5 23q-128 0 -223 -29l-119 -35q-23 -7 -26 19l-21 151q-3 21 19 27z" />
<glyph horiz-adv-x="1036" d="M229 1038l78 21q123 35 240 35q184 0 285.5 -81t101.5 -227q0 -107 -51.5 -207.5t-167.5 -168.5q-44 -23 -4 -39q72 -34 109.5 -106.5t37.5 -164.5q0 -67 -17 -130t-56.5 -122.5t-99.5 -103.5t-153 -71t-208 -27q-128 0 -250 32l-103 29q-24 6 -14 29l72 153q9 18 28 13 l88 -27q105 -25 179 -25q69 0 125 17.5t91 46t58.5 65.5t33 73t9.5 73q0 80 -54.5 127t-150.5 47h-139q-24 0 -21 25l27 157q3 21 25 21h129q124 0 186 68.5t62 166.5q0 75 -43 113.5t-125 38.5q-83 0 -199 -29l-84 -22q-24 -6 -27 18l-16 156q-3 20 18 26z" />
<glyph horiz-adv-x="1181" d="M907 203h121q24 0 21 -25l-27 -158q-3 -20 -25 -20h-125l-51 -311q-3 -21 -24 -21h-185q-23 0 -20 25l51 305h-600q-23 0 -20 25l28 174q3 15 12 24q73 77 130 146l473 571q43 52 92 121q11 14 28 14h244q24 0 21 -24zM678 203l63 383q14 85 43 172q5 20 -8 18 q-8 0 -20 -12l-357 -440q-11 -12 -41 -48t-41 -47q-23 -26 5 -26h356z" />
<glyph horiz-adv-x="1044" d="M958 1047l-73 -160q-10 -17 -27 -17h-420l-35 -208q-15 -82 -20 -99q-4 -15 1 -19t22 1l38 6q46 10 109 10q166 0 258 -96t92 -258q0 -77 -18 -152.5t-60.5 -150t-105 -131.5t-159 -92t-214.5 -35q-148 0 -276 49l-97 33q-21 9 -12 30l76 154q10 19 31 10l94 -35 q93 -34 205 -34q66 0 120 22t88.5 56t58.5 78t34 86t10 81q0 87 -50 133.5t-145 46.5q-55 0 -143 -16l-174 -27q-15 -3 -29 11l-6 6q-10 14 -8 28l119 695q3 20 24 20h676q12 0 17 -7t-1 -19z" />
<glyph horiz-adv-x="1130" d="M944 1405l-319 -387q-53 -63 -127 -125q-14 -12 -8 -22t24 -1q92 50 199 50q157 0 246.5 -93.5t89.5 -261.5q0 -80 -17 -158.5t-58 -157t-101.5 -138t-157 -97t-215.5 -37.5q-198 0 -306 102t-108 286q0 170 68.5 330.5t222.5 346.5l311 377q10 13 27 13h217 q14 0 17.5 -8t-5.5 -19zM623 719q-68 0 -123 -22.5t-89.5 -57.5t-57.5 -81.5t-32.5 -91.5t-9.5 -89q0 -93 49.5 -143t145.5 -50q68 0 124 23.5t91 60.5t58.5 84.5t33.5 92t10 87.5q0 91 -51 139t-149 48z" />
<glyph horiz-adv-x="1067" d="M1077 1057q8 -15 -2 -31q-93 -129 -182 -303l-539 -1038q-8 -17 -26 -17h-189q-29 0 -16 27l520 1001q53 97 88 146q13 20 10.5 24t-24.5 4h-535q-23 0 -20 25l28 158q3 20 25 20h836q18 0 26 -16z" />
<glyph horiz-adv-x="1177" d="M741 1452q181 0 282 -82t101 -227q0 -114 -56.5 -216t-174.5 -157q-15 -7 -20.5 -14t-1.5 -13t16 -10q73 -32 118.5 -103.5t45.5 -168.5q0 -63 -16.5 -127t-57.5 -129t-101 -115t-155.5 -81.5t-212.5 -31.5q-197 0 -307.5 90.5t-110.5 249.5q0 134 71.5 251t211.5 177 q44 19 6 39q-63 28 -96 87t-33 141q0 59 16 118t53.5 118t92.5 103.5t140 72.5t189 28zM723 1247q-67 0 -118 -25t-79 -64t-41.5 -80t-13.5 -81q0 -68 44.5 -105.5t127.5 -37.5q121 0 184.5 73t63.5 175q0 70 -43 107.5t-125 37.5zM623 651q-77 0 -137.5 -29.5t-94 -75.5 t-50.5 -95t-17 -95q0 -83 53 -127.5t151 -44.5q64 0 116 18t85 47t56 67t32.5 77t9.5 78q0 85 -54.5 132.5t-149.5 47.5z" />
<glyph horiz-adv-x="1150" d="M248 -305l289 354q21 26 127 131q14 14 8 22t-27 -1q-92 -54 -196 -54q-159 0 -247.5 94.5t-88.5 264.5q0 81 17.5 160t59 157.5t102.5 137.5t156.5 96t213.5 37q199 0 308 -101.5t109 -285.5q0 -170 -71.5 -333t-225.5 -351l-280 -342q-10 -13 -27 -13h-215 q-14 0 -17.5 8t5.5 19zM655 889q-67 0 -122 -23.5t-90.5 -60.5t-59.5 -85t-34.5 -94t-10.5 -89q0 -91 51.5 -140t147.5 -49q77 0 138.5 29.5t99.5 79t57.5 110.5t19.5 129q0 91 -51 142t-146 51z" />
<glyph horiz-adv-x="1271" d="M784 1452q213 0 329 -141t116 -393q0 -95 -16 -197.5t-48.5 -209.5t-87 -201.5t-125.5 -169.5t-171.5 -119t-217.5 -44q-213 0 -328.5 140.5t-115.5 392.5q0 82 11.5 169.5t36.5 180t62 178t91.5 161.5t121 132t154.5 88.5t188 32.5zM774 1237q-89 0 -163.5 -51 t-122 -129.5t-81 -177t-47.5 -189.5t-14 -170q0 -158 58.5 -241.5t168.5 -83.5q90 0 164.5 51t122 129.5t80 177.5t46 189t13.5 169q0 157 -57.5 241.5t-167.5 84.5z" />
<glyph horiz-adv-x="1271" d="M758 203h305q23 0 20 -25l-28 -158q-3 -20 -25 -20h-850q-23 0 -20 25l28 157q3 21 25 21h315l131 780q14 89 33 141q7 19 2 25.5t-32 -0.5l-250 -86q-24 -10 -27 16l-31 156q-3 21 17 27l536 184q16 5 31 -4l12 -10q16 -13 13 -31z" />
<glyph horiz-adv-x="1271" d="M328 1360l125 41q155 51 327 51q200 0 311 -87t111 -241q0 -126 -64.5 -225.5t-232.5 -198.5l-364 -219q-169 -101 -197 -278h664q23 0 20 -25l-27 -158q-3 -20 -24 -20h-875q-23 0 -20 25l18 104q33 195 111.5 323.5t226.5 215.5l373 223q160 98 160 203q0 72 -54 112.5 t-147 40.5q-131 0 -274 -47l-127 -39q-23 -10 -27 15l-31 157q-3 21 17 27z" />
<glyph horiz-adv-x="1271" d="M338 1376l106 33q137 43 295 43q201 0 312.5 -88t111.5 -244q0 -54 -10 -99t-34.5 -91t-70.5 -87.5t-114 -76.5q-12 -6 -16.5 -11t-0.5 -11t17 -13q81 -37 120.5 -112t39.5 -175q0 -66 -18.5 -129t-62 -125.5t-108 -109t-165 -75t-224.5 -28.5q-158 0 -317 60l-121 43 q-22 9 -12 29l75 145q9 18 31 12l109 -39q111 -43 245 -43q151 0 243.5 74t92.5 197q0 92 -62.5 143t-166.5 51h-105q-23 0 -20 25l27 157q3 21 24 21h94q123 0 200 64.5t77 162.5q0 79 -52.5 123.5t-146.5 44.5q-110 0 -246 -39l-114 -34q-24 -7 -27 18l-22 158 q-3 21 16 26z" />
<glyph horiz-adv-x="1271" d="M1202 543l-28 -158q-3 -20 -25 -20h-127l-57 -345q-3 -20 -25 -20h-184q-24 0 -21 25l58 340h-699q-23 0 -20 24l30 174q2 12 15 25q102 98 176 184l461 488q77 84 135 157q9 15 27 15h260q23 0 20 -25l-141 -840h125q23 0 20 -24zM827 567l60 357q9 74 45 200 q5 19 -5.5 22.5t-23.5 -13.5l-403 -422q-50 -56 -113 -111q-13 -12 -10.5 -22.5t16.5 -10.5h434z" />
<glyph horiz-adv-x="1271" d="M1214 1405l-71 -160q-10 -16 -27 -16h-534l-39 -232q-8 -43 -19 -84q-5 -12 -2 -21.5t21 -6.5l57 8q82 12 143 12q196 0 303 -98t107 -279q0 -80 -19 -155.5t-64.5 -148.5t-112.5 -127t-172.5 -87t-235.5 -33q-163 0 -324 60l-127 45q-22 10 -10 31l76 145q10 19 31 10 l108 -39q125 -45 256 -45q94 0 167 30t114 79t61.5 104t20.5 113q0 90 -57.5 139t-170.5 49q-78 0 -190 -16l-191 -25q-15 -2 -28 11l-11 12q-13 13 -10 29l117 702q3 21 25 21h792q12 0 17 -7.5t-1 -19.5z" />
<glyph horiz-adv-x="1271" d="M1030 1403l-342 -383q-68 -74 -133 -127q-14 -12 -9.5 -21t25.5 0q105 48 224 48q176 0 281.5 -101t105.5 -280q0 -84 -20.5 -163t-67.5 -152t-115 -127.5t-171 -87t-228 -32.5q-222 0 -341.5 101.5t-119.5 288.5q0 91 16 169t57 169t115 194t187 229l260 291 q10 13 26 13h238q15 0 18 -8.5t-6 -20.5zM705 721q-91 0 -162 -29.5t-111.5 -77.5t-61 -103t-20.5 -112q0 -215 244 -215q91 0 161.5 29t111.5 78t61.5 105.5t21.5 117.5q2 100 -60.5 153.5t-184.5 53.5z" />
<glyph horiz-adv-x="1271" d="M1343 1415l5 -12q5 -15 -5 -31q-103 -134 -186 -276l-641 -1082q-8 -14 -27 -14h-202q-12 0 -17 8t2 19l596 1007q51 88 117 162q14 19 9.5 26t-27.5 7h-666q-23 0 -20 24l26 158q3 21 25 21h985q16 0 26 -17z" />
<glyph horiz-adv-x="1271" d="M797 1452q200 0 312 -85t112 -234q0 -120 -67 -215.5t-198 -143.5q-17 -7 -19.5 -17t11.5 -16q94 -38 148.5 -113.5t54.5 -178.5q0 -97 -39.5 -182t-112.5 -150t-187.5 -102.5t-254.5 -37.5q-221 0 -344 93t-123 256q0 143 84.5 252.5t231.5 162.5q19 6 21 16t-13 17 q-162 67 -162 244q0 88 36 166t103 138t172 95t234 35zM776 1247q-147 0 -221 -68t-74 -169q0 -75 57 -115.5t160 -40.5q143 0 216 63.5t73 157.5q0 84 -54.5 128t-156.5 44zM664 649q-160 0 -251 -80.5t-91 -189.5q0 -94 65.5 -144.5t183.5 -50.5q171 0 260 77t89 194 q0 91 -69.5 142.5t-186.5 51.5z" />
<glyph horiz-adv-x="1271" d="M334 29l342 383q68 74 133 127q14 13 9.5 20.5t-25.5 -0.5q-103 -47 -224 -47q-176 0 -281.5 101t-105.5 280q0 84 20.5 163t67.5 152t115 127t171 86.5t228 32.5q222 0 341.5 -101.5t119.5 -287.5q0 -91 -16 -169t-57 -169.5t-115 -194.5t-187 -229l-260 -291 q-9 -12 -26 -12h-238q-15 0 -18 8.5t6 20.5zM659 711q91 0 162 29.5t111.5 77.5t61 102.5t20.5 111.5q0 215 -244 215q-91 0 -161.5 -29t-111.5 -77.5t-61.5 -105t-21.5 -117.5q-2 -100 60.5 -153.5t184.5 -53.5z" />
<glyph horiz-adv-x="782" d="M539 797q128 0 199 -81t71 -224q0 -65 -12.5 -132.5t-41.5 -136.5t-71.5 -122t-109 -87t-146.5 -34q-130 0 -201 82.5t-71 228.5q0 65 12.5 132t42 135t72 120.5t109 85.5t147.5 33zM539 639q-46 0 -84 -25.5t-62 -64.5t-40 -88t-22.5 -93t-6.5 -83q0 -146 102 -146 q46 0 83.5 25.5t61.5 64.5t40.5 88t23 93.5t6.5 83.5q0 145 -102 145z" />
<glyph horiz-adv-x="471" d="M522 797q11 -11 8 -27l-127 -750q-3 -20 -24 -20h-125q-24 0 -21 25l76 452q10 56 23 92q5 9 1 12t-14 -1l-83 -31q-23 -10 -29 16l-23 105q-3 20 17 26l293 105q15 6 28 -4z" />
<glyph horiz-adv-x="704" d="M244 754l71 22q92 31 197 31q125 0 187 -58t49 -163q-15 -135 -175 -219l-194 -103q-69 -40 -78 -108h340q24 0 21 -25l-21 -108q-3 -21 -25 -21h-493q-24 0 -21 25l13 71q21 112 71 186.5t138 121.5l190 98q59 36 64 78q2 31 -23.5 49t-69.5 18q-59 0 -143 -24l-72 -23 q-23 -7 -26 19l-17 106q-3 21 17 27z" />
<glyph horiz-adv-x="731" d="M256 760l61 20q72 27 172 27q126 0 189 -55.5t51 -155.5q-10 -116 -106 -170q-1 0 -11 -3.5t-14 -8.5q-3 -7 6 -13q104 -51 92 -168q-12 -116 -103 -179.5t-239 -63.5q-76 0 -180 33l-63 20q-23 10 -11 31l56 108q9 19 30 13l62 -21q68 -24 129 -24q66 0 107 26t44 70 q2 39 -26 60.5t-80 21.5h-55q-24 0 -21 24l19 111q3 20 24 20h55q49 0 78.5 24.5t32.5 67.5q3 34 -21 55t-69 21q-62 0 -123 -20l-61 -19q-10 -4 -17.5 0.5t-9.5 16.5l-16 104q-3 21 18 27z" />
<glyph horiz-adv-x="757" d="M764 307l-16 -94q-3 -20 -25 -20h-66l-28 -170q-3 -21 -25 -21h-123q-23 0 -20 25l26 166h-354q-23 0 -20 24l18 109q2 14 14 26q55 55 86 88l238 265q54 61 66 79q12 15 26 15h174q24 0 21 -25l-76 -442h63q24 0 21 -25zM512 332l20 129q8 51 33 131q5 12 -4 13 q-6 0 -14 -9l-172 -188q-18 -21 -60 -58q-10 -8 -7 -13t14 -5h190z" />
<glyph horiz-adv-x="708" d="M754 772l-60 -115q-8 -16 -26 -16h-269l-10 -72q-1 -3 -5.5 -25.5t-8.5 -33.5q-2 -6 -1 -8.5t5 -1.5q5 0 14.5 1t14.5 1h26q40 4 58 4q118 0 177.5 -60t47.5 -167q-15 -135 -108.5 -212t-241.5 -77q-88 0 -191 35l-61 20q-23 10 -11 31l58 108q10 20 31 11l57 -21 q74 -24 139 -24q72 0 112.5 37t43.5 89q3 43 -25 67t-82 24l-88 -5l-117 -14q-19 -3 -28 12q-11 11 -8 27l65 391q3 21 25 21h450q14 0 18.5 -7.5t-1.5 -19.5z" />
<glyph horiz-adv-x="729" d="M662 770l-158 -172q-43 -46 -78 -72q-11 -9 -8 -15.5t16 -2.5q44 16 105 16q105 0 163.5 -63.5t45.5 -173.5q-16 -132 -108 -214.5t-247 -82.5q-141 0 -209 68.5t-53 193.5q10 104 57.5 191.5t147.5 197.5l133 145q10 13 27 13h153q14 0 18 -8.5t-5 -20.5zM416 150 q70 0 112 35.5t47 97.5q3 48 -26 74t-90 26q-75 0 -114 -38.5t-44 -92.5q-3 -49 26.5 -75.5t88.5 -26.5z" />
<glyph horiz-adv-x="696" d="M817 786q5 -14 -6 -28q-68 -88 -119 -180l-330 -560q-8 -16 -26 -16h-129q-12 0 -16.5 8t2.5 19l280 479q46 75 76 113q5 6 6 10.5t-1.5 7t-8.5 2.5h-330q-23 0 -20 25l18 112q3 21 25 21h553q16 0 26 -13z" />
<glyph horiz-adv-x="741" d="M530 807q126 0 190.5 -52.5t53.5 -146.5q-13 -126 -135 -176q-18 -9 -6 -18q54 -25 82.5 -71.5t19.5 -113.5q-11 -105 -100.5 -172t-241.5 -67q-139 0 -208.5 58t-57.5 161q14 144 164 205q21 9 6 18q-94 46 -82 152q12 104 96 163.5t219 59.5zM506 664q-58 0 -93 -26 t-38 -71q-3 -36 23.5 -55.5t78.5 -19.5q57 0 92.5 26t38.5 72q3 34 -24 54t-78 20zM453 346q-73 0 -114 -34.5t-46 -82.5q-3 -41 29.5 -64.5t93.5 -23.5q70 0 113 29.5t46 81.5q4 45 -28.5 69.5t-93.5 24.5z" />
<glyph horiz-adv-x="729" d="M82 29l158 172q43 45 77 71q11 9 8 16t-16 3q-47 -17 -104 -17q-105 0 -163.5 64t-45.5 174q16 132 107.5 214.5t246.5 82.5q141 0 209 -68.5t53 -193.5q-10 -104 -57 -192t-147 -197l-134 -146q-9 -12 -26 -12h-154q-14 0 -17.5 8.5t5.5 20.5zM328 649 q-70 0 -112.5 -35.5t-47.5 -97.5q-3 -48 26.5 -74t90.5 -26q75 0 113.5 38.5t43.5 92.5q3 50 -26.5 76t-87.5 26z" />
<glyph horiz-adv-x="782" d="M539 1440q128 0 199 -81t71 -224q0 -65 -12.5 -132.5t-41.5 -136.5t-71.5 -122t-109 -87t-146.5 -34q-130 0 -201 82.5t-71 228.5q0 65 12.5 132t42 135t72 120.5t109 85.5t147.5 33zM539 1282q-46 0 -84 -25.5t-62 -64.5t-40 -88t-22.5 -93t-6.5 -83q0 -146 102 -146 q46 0 83.5 25.5t61.5 64.5t40.5 88t23 93.5t6.5 83.5q0 145 -102 145z" />
<glyph horiz-adv-x="471" d="M522 1430q11 -11 8 -27l-127 -750q-3 -20 -24 -20h-125q-24 0 -21 24l76 453q10 56 23 92q5 9 1 11.5t-14 -1.5l-83 -30q-23 -10 -29 16l-23 105q-3 20 17 26l293 105q15 6 28 -4z" />
<glyph horiz-adv-x="704" d="M244 1386l71 23q92 31 197 31q125 0 187 -58t49 -163q-15 -136 -175 -220l-194 -102q-69 -40 -78 -109h340q24 0 21 -24l-21 -109q-3 -20 -25 -20h-493q-24 0 -21 24l13 72q20 111 70.5 185.5t138.5 121.5l190 99q59 37 64 77q2 31 -23.5 49.5t-69.5 18.5q-55 0 -143 -25 l-72 -22q-23 -7 -26 18l-17 107q-3 20 17 26z" />
<glyph horiz-adv-x="731" d="M256 1393l61 20q72 27 172 27q126 0 189 -55.5t51 -155.5q-10 -116 -106 -170q-1 0 -11 -3.5t-14 -8.5q-3 -7 6 -13q104 -51 92 -168q-12 -116 -103 -179.5t-239 -63.5q-79 0 -180 32l-63 21q-23 10 -11 31l56 108q9 18 30 12l62 -20q70 -25 129 -25q66 0 107 26.5 t44 70.5q2 39 -26 60.5t-80 21.5h-55q-24 0 -21 24l19 111q3 20 24 20h55q49 0 78.5 24.5t32.5 67.5q3 34 -21 55t-69 21q-62 0 -123 -20l-61 -19q-10 -4 -17.5 0.5t-9.5 16.5l-16 104q-3 21 18 27z" />
<glyph horiz-adv-x="757" d="M764 940l-16 -94q-3 -21 -25 -21h-66l-28 -170q-3 -20 -25 -20h-123q-23 0 -20 24l26 166h-354q-23 0 -20 25l18 108q3 16 14 27q55 55 86 88l238 264q50 57 66 80q12 15 26 15h174q24 0 21 -25l-76 -442h63q24 0 21 -25zM512 965l20 129q8 51 33 131q5 12 -4 13 q-6 0 -14 -9l-172 -189q-14 -16 -60 -57q-10 -7 -7 -12.5t14 -5.5h190z" />
<glyph horiz-adv-x="708" d="M754 1405l-60 -115q-8 -16 -26 -16h-269l-10 -72q-1 -3 -5.5 -25.5t-8.5 -33.5q-2 -6 -1 -8.5t5 -1.5q5 0 14.5 1t14.5 1h26q40 4 58 4q118 0 177.5 -60.5t47.5 -167.5q-15 -135 -108.5 -211.5t-241.5 -76.5q-91 0 -191 34l-61 21q-23 10 -11 31l58 108q10 19 31 10 l57 -20q77 -25 139 -25q72 0 112.5 37.5t43.5 89.5q3 43 -25 66.5t-82 23.5q-18 0 -88 -4l-117 -14q-19 -3 -28 12q-11 11 -8 27l65 391q3 21 25 21h450q14 0 18.5 -7.5t-1.5 -19.5z" />
<glyph horiz-adv-x="729" d="M662 1403l-158 -172q-43 -46 -78 -72q-11 -9 -8 -15.5t16 -2.5q44 16 105 16q105 0 163.5 -63.5t45.5 -173.5q-16 -132 -108 -214.5t-247 -82.5q-141 0 -209 68.5t-53 193.5q10 104 57.5 191.5t147.5 197.5l133 145q10 13 27 13h153q14 0 18 -8.5t-5 -20.5zM416 782 q70 0 112 35.5t47 97.5q3 48 -26.5 74.5t-89.5 26.5q-75 0 -114 -38.5t-44 -92.5q-3 -50 27 -76.5t88 -26.5z" />
<glyph horiz-adv-x="696" d="M817 1419q5 -14 -6 -28q-66 -85 -119 -181l-330 -559q-8 -16 -26 -16h-129q-12 0 -16.5 8.5t2.5 18.5l280 479q43 70 76 112q5 6 6 11t-1.5 7.5t-8.5 2.5h-330q-23 0 -20 24l18 113q3 21 25 21h553q16 0 26 -13z" />
<glyph horiz-adv-x="741" d="M530 1440q126 0 190.5 -52.5t53.5 -146.5q-13 -126 -135 -176q-18 -9 -6 -18q54 -25 82.5 -71.5t19.5 -113.5q-11 -105 -100.5 -172t-241.5 -67q-139 0 -208.5 58t-57.5 161q14 144 164 205q21 9 6 18q-94 46 -82 152q12 104 96 163.5t219 59.5zM506 1296q-58 0 -93 -26 t-38 -70q-3 -36 23.5 -56t78.5 -20q57 0 92.5 26.5t38.5 72.5q3 34 -24 53.5t-78 19.5zM453 979q-73 0 -114 -34.5t-46 -82.5q-3 -41 29.5 -64.5t93.5 -23.5q70 0 113 29.5t46 81.5q4 45 -28.5 69.5t-93.5 24.5z" />
<glyph horiz-adv-x="729" d="M252 662l158 172q43 45 77 71q11 9 8 16t-16 3q-47 -17 -104 -17q-105 0 -163.5 64t-45.5 174q16 132 107.5 214.5t246.5 82.5q141 0 209 -68.5t53 -193.5q-10 -104 -57 -192t-147 -197l-134 -146q-9 -12 -26 -12h-154q-14 0 -17.5 8.5t5.5 20.5zM498 1282 q-70 0 -112.5 -35.5t-47.5 -97.5q-3 -48 26.5 -74t90.5 -26q75 0 113.5 38.5t43.5 92.5q3 50 -26.5 76t-87.5 26z" />
<glyph horiz-adv-x="1161" d="M668 1094q195 0 303 -115t108 -317q0 -88 -19 -179t-63 -183t-108 -163t-163.5 -115.5t-219.5 -44.5q-195 0 -303.5 116t-108.5 317q0 87 19 177.5t63 182.5t108 163t163.5 116t220.5 45zM659 889q-72 0 -131 -32t-97 -82.5t-64 -114t-37 -124.5t-11 -118 q0 -112 49.5 -173t145.5 -61q71 0 129.5 31.5t96.5 81t64.5 113t38 125.5t11.5 120q0 112 -49.5 173t-145.5 61z" />
<glyph horiz-adv-x="696" d="M457 0h-185q-23 0 -20 25l100 593q5 37 33 144q6 22 -12 22q-2 0 -7 -1.5t-11 -3.5l-9 -3l-149 -63q-23 -10 -29 14l-37 152q-6 20 14 28l461 180q16 6 31 -6l8 -6q13 -13 10 -28l-174 -1027q-3 -20 -24 -20z" />
<glyph horiz-adv-x="1058" d="M248 1022l102 29q142 43 275 43q173 0 270.5 -70t97.5 -195q0 -95 -58.5 -172.5t-199.5 -144.5l-282 -141q-123 -65 -138 -168h533q23 0 20 -25l-26 -158q-3 -20 -25 -20h-741q-24 0 -21 25l17 92q26 160 99 263t208 167l285 143q54 29 79 55.5t25 59.5q0 38 -40.5 61 t-109.5 23q-128 0 -223 -29l-119 -35q-23 -7 -26 19l-21 151q-3 21 19 27z" />
<glyph horiz-adv-x="1030" d="M242 1026l98 31q117 37 256 37q175 0 268.5 -68t93.5 -199q0 -170 -188 -247q-32 -14 -4 -27q72 -30 109.5 -88.5t37.5 -130.5q0 -71 -30 -134t-89 -113.5t-157.5 -80t-224.5 -29.5q-146 0 -273 43l-98 35q-22 10 -10 31l80 147q9 19 30 13l95 -35q88 -27 208 -27 q111 0 178.5 44.5t67.5 117.5q0 54 -48.5 83.5t-137.5 29.5h-88q-24 0 -21 24l29 156q3 20 25 20h88q92 0 140 40t48 92q0 98 -160 98q-104 0 -198 -27l-97 -28q-23 -7 -26 18l-21 147q-3 21 19 27z" />
<glyph horiz-adv-x="1122" d="M1010 426l-27 -156q-3 -20 -25 -20h-108l-39 -230q-3 -20 -25 -20h-184q-23 0 -20 25l36 223h-546q-24 0 -21 24l31 168q3 16 14 27q39 37 119 117l387 377q51 51 90 100q9 12 27 12h246q23 0 20 -24l-102 -598h106q24 0 21 -25zM653 451l29 176q17 89 43 178q7 18 -7 18 q-10 -1 -20 -10l-286 -268q-48 -48 -76 -70q-11 -11 -9 -17.5t15 -6.5h311z" />
<glyph horiz-adv-x="1077" d="M987 1047l-72 -160q-10 -17 -26 -17h-422l-21 -122q-8 -44 -14 -62q-4 -11 -2 -16t16 -4l43 6q52 6 99 6q168 0 261 -73t93 -204q0 -61 -15.5 -118.5t-53 -114t-93 -98t-143 -67.5t-195.5 -26q-152 0 -280 39l-105 33q-25 6 -12 29l76 151q10 19 31 13l90 -27 q114 -31 209 -31q123 0 194.5 54.5t71.5 126.5q0 120 -172 120q-60 0 -148 -10l-176 -22q-15 -3 -28 10l-7 6q-13 13 -10 29l92 555q3 20 25 20h678q12 0 17 -7t-1 -19z" />
<glyph horiz-adv-x="1118" d="M858 1044l-256 -241q-24 -23 -70.5 -62t-50.5 -43q-13 -11 -9.5 -19.5t20.5 -2.5q76 33 167 33q164 0 254.5 -77.5t90.5 -215.5q0 -63 -16.5 -123t-55.5 -118t-97.5 -101.5t-149.5 -70t-204 -26.5q-192 0 -295.5 86.5t-103.5 235.5q0 137 62 264t198 254l260 246 q13 10 29 10h215q15 0 19 -9.5t-7 -19.5zM508 184q124 0 197 60t73 137q0 129 -203 129q-129 0 -198.5 -59.5t-69.5 -137.5q0 -129 201 -129z" />
<glyph horiz-adv-x="1062" d="M1079 1059v-2q9 -15 -4 -31q-105 -147 -170 -248l-491 -764q-11 -14 -29 -14h-197q-13 0 -17.5 8t3.5 19l434 669q49 76 111 146q14 17 10 22.5t-27 5.5h-518q-23 0 -20 25l26 158q3 20 25 20h836q17 0 28 -14z" />
<glyph horiz-adv-x="1099" d="M649 1094q176 0 276.5 -70.5t100.5 -187.5q0 -181 -215 -256q-15 -4 -17 -12.5t9 -12.5q80 -32 128 -92.5t48 -138.5q0 -66 -28 -125t-86 -110t-161.5 -81.5t-240.5 -30.5q-193 0 -302.5 74.5t-109.5 200.5q0 210 262 303q17 6 18 13.5t-12 11.5q-69 27 -104 79t-35 119 q0 60 26.5 114t80.5 100.5t147 74t215 27.5zM621 891q-107 0 -163.5 -40t-56.5 -99q0 -43 45 -68t123 -25q102 0 164 38t62 102q0 44 -46 68t-128 24zM555 469q-119 0 -195.5 -48t-76.5 -126q0 -51 54 -81t150 -30q124 0 197.5 45.5t73.5 122.5q0 55 -55.5 86t-147.5 31z " />
<glyph horiz-adv-x="1116" d="M281 29l256 241q18 17 40 36t45.5 39.5t34.5 29.5q13 11 10 19.5t-20 2.5q-74 -32 -168 -32q-164 0 -254 77t-90 215q0 63 16.5 123t55.5 118t97 101.5t149 70t204 26.5q192 0 296 -86.5t104 -235.5q0 -137 -62 -264t-198 -254l-260 -246q-13 -10 -29 -10h-215 q-15 0 -19 9t7 20zM631 889q-124 0 -197.5 -60t-73.5 -137q0 -129 203 -129q129 0 198.5 59.5t69.5 137.5q0 129 -200 129z" />
<glyph horiz-adv-x="503" d="M369 1227q73 0 108 -44t23 -118q-12 -64 -52 -98.5t-102 -34.5q-72 0 -106.5 44t-22.5 118q12 63 51.5 98t100.5 35zM244 483q73 0 108 -43.5t23 -117.5q-12 -64 -52 -99t-102 -35q-72 0 -106.5 44t-22.5 118q12 63 51.5 98t100.5 35z" />
<glyph horiz-adv-x="514" d="M377 1227q73 0 108 -44t23 -118q-12 -64 -52 -98.5t-102 -34.5q-72 0 -106.5 44t-22.5 118q12 63 51.5 98t100.5 35zM37 -45l125 180q45 59 -6 74q-30 11 -48 41t-18 69q0 31 8 59t25.5 54t51 41.5t79.5 15.5q57 0 91 -34.5t34 -92.5q0 -118 -111 -278l-96 -141 q-12 -15 -27 -15h-94q-13 0 -17.5 8t3.5 19z" />
<glyph horiz-adv-x="776" d="M831 1579l-28 -158q-3 -20 -25 -20q-70 -6 -121 -52t-61 -114l-51 -309q-12 -70 -41 -116.5t-82 -78.5q-15 -9 -21 -13t-9.5 -10t1.5 -10.5t17 -11.5q40 -23 56 -76.5t5 -122.5l-51 -303q-21 -141 125 -153q23 0 20 -25l-26 -158q-3 -20 -25 -20q-169 6 -250.5 105 t-52.5 266l49 303q18 112 -80 112h-20q-24 0 -21 25l29 158q3 20 25 20h8q51 0 88.5 34.5t46.5 90.5l51 307q26 164 136.5 256.5t287.5 98.5q23 0 20 -25z" />
<glyph horiz-adv-x="776" d="M12 -147l29 157q3 21 25 21q70 6 121 52t61 114l51 309q12 70 41 116t82 78q15 9 21 13t9.5 10t-1.5 10.5t-17 11.5q-40 23 -56 76.5t-5 122.5l51 303q22 142 -125 154q-23 0 -20 24l26 158q3 21 25 21q169 -6 250.5 -105t52.5 -266l-49 -303q-18 -113 80 -113h20 q24 0 21 -24l-29 -158q-3 -21 -25 -21h-8q-51 0 -88.5 -34.5t-46.5 -90.5l-51 -307q-26 -164 -136.5 -256t-287.5 -98q-24 0 -21 25z" />
<glyph horiz-adv-x="741" d="M336 47h162q23 0 20 -24l-26 -160q-3 -21 -25 -21h-354q-24 0 -21 25l289 1702q3 20 25 20h354q23 0 20 -24l-26 -158q-3 -21 -25 -21h-168z" />
<glyph horiz-adv-x="741" d="M297 1409l27 160q3 20 24 20h354q24 0 21 -24l-289 -1702q-3 -21 -24 -21h-355q-23 0 -20 25l26 158q3 20 25 20h168l225 1339h-162q-23 0 -20 25z" />
<glyph horiz-adv-x="714" d="M463 -158h-158q-18 0 -24 19q-88 259 -88 530q0 292 91.5 600.5t276.5 583.5q11 14 27 14h182q13 0 17.5 -7.5t-3.5 -18.5q-194 -303 -289.5 -584.5t-95.5 -581.5q0 -231 84 -530q3 -11 -2.5 -18t-17.5 -7z" />
<glyph horiz-adv-x="737" d="M346 1589h158q18 0 24 -18q88 -259 88 -531q0 -292 -91.5 -600t-276.5 -583q-12 -15 -27 -15h-182q-13 0 -17.5 8t3.5 19q194 303 289.5 584t95.5 581q0 232 -84 531q-3 11 2.5 17.5t17.5 6.5z" />
<glyph horiz-adv-x="436" d="M190 -444h-124q-19 0 -25 18q-75 210 -31 477q43 259 195 479q12 15 26 15h121q13 0 18 -8.5t-1 -18.5q-75 -118 -122.5 -226.5t-68.5 -240.5q-13 -71 -15.5 -136t4.5 -124.5t16.5 -105.5t25.5 -105q4 -10 -1.5 -17t-17.5 -7z" />
<glyph horiz-adv-x="436" d="M94 545h125q19 0 25 -19q74 -208 30 -477q-44 -261 -194 -479q-11 -14 -27 -14h-121q-13 0 -17.5 8t1.5 18q74 117 121.5 226t68.5 241q13 71 15.5 136t-4 124.5t-16 106t-25.5 104.5q-4 10 1 17.5t17 7.5z" />
<glyph horiz-adv-x="436" d="M401 805h-125q-18 0 -24 18q-75 210 -31 477q43 261 195 480q11 14 26 14h121q13 0 18 -8t-1 -19q-75 -118 -122.5 -226.5t-68.5 -240.5q-13 -71 -15.5 -136t4.5 -124.5t16.5 -105.5t25.5 -105q4 -10 -1.5 -17t-17.5 -7z" />
<glyph horiz-adv-x="436" d="M307 1794h125q19 0 25 -18q74 -208 30 -478q-44 -261 -194 -479q-11 -14 -27 -14h-121q-13 0 -17.5 7.5t1.5 18.5q74 117 121.5 226t68.5 241q13 71 15.5 136t-4 124.5t-16 106t-25.5 104.5q-4 10 1 17.5t17 7.5z" />
<glyph horiz-adv-x="1273" d="M1087 1579l-28 -158q-3 -20 -25 -20q-70 -6 -121 -52t-61 -114l-51 -309q-12 -70 -41 -116.5t-82 -78.5q-15 -9 -21 -13t-9.5 -10t1.5 -10.5t17 -11.5q40 -23 56 -76.5t5 -122.5l-51 -303q-21 -141 125 -153q23 0 20 -25l-26 -158q-3 -20 -25 -20q-169 6 -250.5 105 t-52.5 266l49 303q18 112 -80 112h-20q-24 0 -21 25l29 158q3 20 25 20h8q51 0 88.5 34.5t46.5 90.5l51 307q26 164 136.5 256.5t287.5 98.5q23 0 20 -25z" />
<glyph horiz-adv-x="1273" d="M252 -147l29 157q3 21 24 21q70 6 121 52t61 114l52 309q12 70 41 116t82 78q15 9 21 13t9.5 10t-1.5 10.5t-17 11.5q-41 23 -57 76.5t-5 122.5l52 303q22 142 -125 154q-24 0 -21 24l27 158q3 21 24 21q169 -6 250.5 -105t52.5 -266l-49 -303q-18 -113 80 -113h21 q23 0 20 -24l-29 -158q-3 -21 -24 -21h-8q-51 0 -88.5 -34.5t-46.5 -90.5l-52 -307q-26 -164 -136.5 -256t-287.5 -98q-23 0 -20 25z" />
<glyph horiz-adv-x="1273" d="M567 47h162q24 0 21 -24l-27 -160q-3 -21 -25 -21h-354q-23 0 -20 25l288 1702q3 20 25 20h354q24 0 21 -24l-27 -158q-3 -21 -24 -21h-168z" />
<glyph horiz-adv-x="1273" d="M598 1409l27 160q3 20 24 20h355q23 0 20 -24l-289 -1702q-3 -21 -24 -21h-355q-23 0 -20 25l26 158q3 20 25 20h168l225 1339h-162q-23 0 -20 25z" />
<glyph horiz-adv-x="1273" d="M700 -158h-157q-19 0 -25 19q-88 259 -88 530q0 292 92 600.5t277 583.5q11 14 26 14h183q13 0 17.5 -7.5t-3.5 -18.5q-194 -303 -289.5 -584.5t-95.5 -581.5q0 -231 84 -530q3 -11 -3 -18t-18 -7z" />
<glyph horiz-adv-x="1273" d="M618 1589h158q19 0 25 -18q88 -259 88 -531q0 -291 -92 -599.5t-277 -583.5q-12 -15 -26 -15h-183q-13 0 -17.5 8t3.5 19q194 303 289.5 584t95.5 581q0 232 -84 531q-3 11 2.5 17.5t17.5 6.5z" />
<glyph horiz-adv-x="1673" d="M1575 811l-29 -158q-3 -20 -24 -20h-1323q-24 0 -21 24l27 158q3 21 24 21h1325q24 0 21 -25z" />
<glyph horiz-adv-x="1402" d="M1307 811l-29 -158q-3 -20 -25 -20h-1054q-24 0 -21 24l27 158q3 21 24 21h1057q24 0 21 -25z" />
<glyph horiz-adv-x="894" d="M797 811l-27 -158q-3 -20 -25 -20h-546q-24 0 -21 24l27 158q3 21 24 21h547q24 0 21 -25z" />
<glyph horiz-adv-x="647" d="M45 127h430q24 0 21 -25l-19 -110q-3 -21 -24 -21h-430q-24 0 -21 25l18 110q3 21 25 21z" />
<glyph horiz-adv-x="647" d="M256 1376h430q24 0 21 -24l-19 -111q-3 -20 -24 -20h-431q-23 0 -20 24l18 111q3 20 25 20z" />
<glyph horiz-adv-x="1273" d="M256 827h887q23 0 20 -24l-26 -158q-3 -20 -25 -20h-887q-23 0 -20 24l26 158q3 20 25 20z" />
<glyph horiz-adv-x="1239" d="M414 733l202 -360q6 -11 1.5 -19t-17.5 -8h-190q-19 0 -27 16l-193 343q-8 11 -8 26v8q0 18 11 29l311 344q9 12 26 12h201q14 0 17.5 -8t-5.5 -20zM858 733l203 -360q6 -11 1 -19t-18 -8h-190q-19 0 -27 16l-192 343q-8 11 -8 26v8q0 19 10 29l311 344q9 12 27 12h201 q14 0 17.5 -8t-5.5 -20z" />
<glyph horiz-adv-x="1239" d="M276 1124h191q19 0 27 -16l192 -342q8 -11 8 -27v-8q0 -19 -10 -29l-311 -344q-9 -12 -27 -12h-201q-14 0 -17.5 8.5t5.5 20.5l330 362l-203 361q-6 10 -1.5 18t17.5 8zM721 1124h190q19 0 27 -16l192 -342q9 -12 9 -27v-8q0 -18 -11 -29l-311 -344q-9 -12 -26 -12h-201 q-14 0 -17.5 8.5t5.5 20.5l329 362l-202 361q-6 10 -1.5 18t17.5 8z" />
<glyph horiz-adv-x="794" d="M414 733l202 -360q6 -11 1.5 -19t-17.5 -8h-190q-19 0 -27 16l-193 343q-8 11 -8 26v8q0 18 11 29l311 344q9 12 26 12h201q14 0 17.5 -8t-5.5 -20z" />
<glyph horiz-adv-x="794" d="M276 1124h191q19 0 27 -16l192 -342q8 -11 8 -27v-8q0 -19 -10 -29l-311 -344q-9 -12 -27 -12h-201q-14 0 -17.5 8.5t5.5 20.5l330 362l-203 361q-6 10 -1.5 18t17.5 8z" />
<glyph horiz-adv-x="1064" d="M430 1260l434 -1440q4 -10 -1 -17.5t-17 -7.5h-170q-21 0 -27 19l-434 1439q-4 10 1 17.5t17 7.5h170q21 0 27 -18z" />
<glyph horiz-adv-x="786" d="M784 1270l-26 -158q-3 -20 -25 -20q-74 -6 -121.5 -45t-56.5 -97l-37 -221q-22 -136 -121 -180q-48 -18 -12 -35q43 -18 60 -68t6 -118l-35 -211q-21 -120 127 -133q23 0 20 -25l-24 -156q-3 -20 -25 -20q-174 6 -256.5 98t-54.5 250l33 213q15 92 -84 92h-21 q-23 0 -20 25l28 157q3 21 25 21h10q49 0 86 30t45 76l37 220q25 151 137 237t285 92q23 0 20 -24z" />
<glyph horiz-adv-x="786" d="M18 -193l27 158q3 21 25 21q74 6 121.5 44.5t56.5 96.5l37 221q22 136 121 180q48 18 12 35q-43 18 -60 68.5t-6 118.5l35 211q21 120 -127 133q-23 0 -20 24l24 156q3 20 25 20q174 -6 256.5 -98t54.5 -250l-33 -213q-15 -92 84 -92h21q23 0 20 -25l-28 -157 q-3 -21 -25 -21h-10q-49 0 -86 -30t-45 -76l-37 -219q-25 -151 -137 -237.5t-285 -92.5q-24 0 -21 24z" />
<glyph horiz-adv-x="677" d="M268 -4h164q24 0 21 -25l-27 -157q-3 -21 -25 -21h-358q-23 0 -20 25l243 1442q3 20 25 20h356q24 0 21 -25l-27 -157q-3 -21 -25 -21h-167z" />
<glyph horiz-adv-x="677" d="M424 1077h-164q-23 0 -20 25l26 158q3 20 25 20h358q24 0 21 -25l-244 -1441q-3 -21 -25 -21h-356q-23 0 -20 25l26 157q3 21 25 21h168z" />
<glyph horiz-adv-x="501" d="M346 1096q73 0 108 -44t23 -118q-12 -64 -51.5 -98.5t-101.5 -34.5q-72 0 -106.5 44t-22.5 118q12 64 51 98.5t100 34.5zM209 272q73 0 108 -43.5t23 -117.5q-12 -64 -52 -99t-102 -35q-72 0 -106.5 44t-22.5 118q12 63 51.5 98t100.5 35z" />
<glyph horiz-adv-x="544" d="M487 1049l-32 -191q-14 -79 -56 -241t-55 -226q-3 -20 -25 -20h-133q-22 0 -22 24q6 48 20.5 214.5t28.5 248.5l31 195q3 20 24 20h199q23 0 20 -24zM233 272q58 0 89.5 -28.5t31.5 -81.5q0 -76 -44 -130.5t-126 -54.5q-58 0 -89.5 29.5t-31.5 83.5q0 72 44 127t126 55z " />
<glyph horiz-adv-x="1320" d="M997 633l-28 -197h200q24 0 21 -24l-23 -148q-3 -20 -22 -20h-205l-35 -238q-3 -20 -22 -20h-156q-23 0 -20 24l32 234h-235l-35 -238q-3 -20 -23 -20h-155q-24 0 -21 24l33 234h-199q-23 0 -20 24l20 148q3 20 23 20h203l28 197h-198q-24 0 -21 24l21 148q3 20 22 20 h205l33 228q3 20 22 20h156q23 0 20 -24l-30 -224h235l33 228q3 20 23 20h157q24 0 21 -24l-33 -224h201q22 0 22 -24l-20 -148q-3 -20 -23 -20h-207zM795 633h-236l-29 -197h236z" />
<glyph horiz-adv-x="702" d="M440 -207h-180q-17 0 -27 17q-143 343 -77 743q35 201 113 374.5t206 338.5q8 14 27 14h188q14 0 17.5 -8t-5.5 -19q-133 -193 -214.5 -370.5t-112.5 -358.5q-21 -116 -15.5 -236t29 -231t68.5 -237q4 -12 -0.5 -19.5t-16.5 -7.5z" />
<glyph horiz-adv-x="702" d="M274 1280h181q16 0 26 -16q143 -345 78 -744q-35 -201 -113 -374.5t-206 -338.5q-8 -14 -27 -14h-188q-14 0 -18 8.5t5 18.5q271 393 328 729q21 116 15.5 236t-29 231t-68.5 237q-10 27 16 27z" />
<glyph horiz-adv-x="1009" d="M193 1022l114 33q133 39 287 39q170 0 265 -59t95 -163q0 -73 -35.5 -137.5t-103.5 -111.5l-145 -99q-41 -28 -61.5 -52t-26.5 -56l-4 -25q-3 -20 -23 -20h-184q-24 0 -21 24l6 41q18 106 111 170l164 113q74 45 74 98q0 34 -40 53t-112 19q-107 0 -213 -29l-119 -35 q-23 -7 -26 19l-21 151q-3 21 19 27zM442 272q58 0 89.5 -29t31.5 -83q0 -75 -43 -129t-125 -54q-58 0 -90.5 30.5t-32.5 84.5q0 71 44 125.5t126 54.5z" />
<glyph horiz-adv-x="755" d="M403 1049l-22 -138q-7 -37 -38 -133.5t-38 -124.5q-3 -18 -24 -18h-91q-25 0 -22 22q1 26 2.5 80.5t3.5 99.5t6 74l23 142q3 20 24 20h156q23 0 20 -24zM731 1049l-22 -138q-7 -37 -38 -133.5t-38 -124.5q-3 -18 -25 -18h-90q-25 0 -22 22q1 26 2.5 80.5t3.5 99.5t6 74 l22 142q3 20 25 20h156q23 0 20 -24z" />
<glyph horiz-adv-x="899" d="M356 1071l-80 -86q-105 -111 -120 -201q-13 -73 17.5 -114t96.5 -41t110 36.5t54 100.5q16 86 -51 123q-24 11 -24 25t26 40l109 117h-138zM741 1071l-79 -86q-106 -112 -121 -201q-13 -73 17.5 -114t96.5 -41t110 36.5t54 100.5q16 86 -51 123q-24 11 -24 25t26 40 l109 117h-138z" />
<glyph horiz-adv-x="899" d="M272 655l80 86q106 112 121 201q13 73 -18 114.5t-97 41.5t-109.5 -36.5t-53.5 -100.5q-16 -86 51 -123q24 -11 24 -25.5t-26 -40.5l-109 -117h137zM657 655l80 86q106 112 121 201q13 73 -18 114.5t-97 41.5t-109.5 -36.5t-53.5 -100.5q-16 -86 51 -123q24 -11 24 -25.5 t-26 -40.5l-109 -117h137z" />
<glyph horiz-adv-x="514" d="M422 1071l-80 -86q-106 -112 -121 -201q-13 -73 18 -114t97 -41t110 36.5t54 100.5q16 86 -51 123q-24 11 -24 25t26 40l108 117h-137z" />
<glyph horiz-adv-x="514" d="M272 655l80 86q106 112 121 201q13 73 -18 114.5t-97 41.5t-109.5 -36.5t-53.5 -100.5q-16 -86 51 -123q24 -11 24 -25.5t-26 -40.5l-109 -117h137z" />
<glyph horiz-adv-x="425" d="M403 1049l-22 -138q-7 -37 -38 -133.5t-38 -124.5q-3 -18 -24 -18h-91q-25 0 -22 22q1 26 2.5 80.5t3.5 99.5t6 74l23 142q3 20 24 20h156q23 0 20 -24z" />
<glyph horiz-adv-x="514" d="M354 1096q73 0 108 -44t23 -118q-12 -64 -51.5 -98.5t-101.5 -34.5q-72 0 -106.5 44t-22.5 118q12 64 51 98.5t100 34.5zM0 -262l125 180q45 59 -6 74q-30 11 -48 41t-18 69q0 31 8 59t25.5 54t51 41.5t79.5 15.5q57 0 91 -34.5t34 -92.5q0 -118 -111 -278l-96 -141 q-12 -15 -26 -15h-95q-13 0 -17.5 8.5t3.5 18.5z" />
<glyph horiz-adv-x="1073" d="M924 1278h176q13 0 17.5 -8t-3.5 -19l-924 -1441q-12 -15 -28 -15h-174q-13 0 -18 8.5t3 18.5l922 1442q11 14 29 14z" />
<glyph horiz-adv-x="1234" d="M268 1061h887q24 0 21 -25l-27 -157q-3 -21 -25 -21h-886q-24 0 -21 25l27 157q3 21 24 21zM190 602h887q24 0 21 -24l-27 -158q-3 -21 -24 -21h-887q-24 0 -21 25l27 158q3 20 24 20z" />
<glyph horiz-adv-x="1294" d="M311 1264l869 -445q17 -10 12 -26l-18 -117q-3 -20 -19 -25l-1022 -446q-14 -5 -20.5 1t-3.5 19l32 189q3 17 19 22l719 307l-613 306q-17 8 -14 26l31 174q3 27 28 15z" />
<glyph horiz-adv-x="1294" d="M180 676l19 119q3 17 18 22l1022 447q14 5 21 -1.5t4 -19.5l-33 -188q-4 -18 -19 -23l-718 -307l612 -305q17 -9 14 -27l-30 -174q-3 -27 -29 -14l-868 444q-18 11 -13 27z" />
<glyph horiz-adv-x="1292" d="M1194 807l-29 -160q-3 -20 -24 -20h-367l-67 -402q-3 -20 -25 -20h-168q-23 0 -20 24l67 398h-364q-24 0 -21 24l29 160q3 20 24 20h367l68 400q3 20 24 20h168q24 0 21 -24l-68 -396h365q23 0 20 -24z" />
<glyph horiz-adv-x="669" d="M82 270h430q23 0 20 -24l-18 -111q-3 -20 -25 -20h-430q-23 0 -20 24l18 111q3 20 25 20zM31 -16h430q23 0 20 -25l-18 -111q-3 -20 -25 -20h-430q-23 0 -20 25l18 110q3 21 25 21z" />
<glyph horiz-adv-x="647" d="M496 102l-19 -110q-3 -21 -24 -21h-140l-24 -149q-3 -21 -25 -21h-112q-24 0 -21 25l25 145h-133q-24 0 -21 25l18 110q3 21 25 21h139l25 149q3 21 24 21h111q24 0 21 -25l-25 -145h135q24 0 21 -25z" />
<glyph horiz-adv-x="669" d="M293 1520h430q23 0 20 -25l-18 -111q-3 -20 -25 -20h-430q-23 0 -20 25l18 110q3 21 25 21zM242 1233h430q23 0 20 -25l-18 -110q-3 -21 -25 -21h-430q-23 0 -20 25l18 110q3 21 25 21z" />
<glyph horiz-adv-x="647" d="M707 1352l-19 -111q-3 -20 -24 -20h-140l-24 -150q-3 -20 -25 -20h-113q-23 0 -20 24l25 146h-134q-23 0 -20 24l18 111q3 20 25 20h139l25 150q3 20 24 20h111q23 0 20 -24l-24 -146h135q24 0 21 -24z" />
<glyph horiz-adv-x="1273" d="M184 569l129 170q103 138 246 138q69 0 125 -50l70 -69q31 -21 53 -21q35 0 65 41l62 80q8 14 27 14h184q15 0 19 -8t-5 -18l-129 -174q-98 -133 -242 -133q-69 0 -124 49l-78 69q-24 19 -47 19q-37 0 -68 -39l-61 -80q-8 -14 -27 -14h-184q-14 0 -18 7.5t3 18.5z" />
<glyph horiz-adv-x="1273" d="M1194 1036l-27 -157q-3 -21 -24 -21h-887q-23 0 -20 25l26 157q3 21 25 21h887q23 0 20 -25zM1116 578l-26 -158q-3 -21 -25 -21h-887q-23 0 -20 25l26 158q3 20 25 20h887q23 0 20 -24z" />
<glyph horiz-adv-x="1273" d="M297 1245l868 -444q18 -11 13 -27l-19 -117q-3 -19 -18 -24l-1022 -447q-14 -5 -21 1.5t-4 19.5l33 188q4 18 18 23l719 307l-612 305q-17 9 -14 27l30 174q3 27 29 14z" />
<glyph horiz-adv-x="1273" d="M172 676l18 119q3 17 19 22l1022 447q13 4 20 -1.5t4 -19.5l-32 -188q-4 -18 -19 -23l-719 -307l613 -305q17 -9 14 -27l-31 -174q-3 -26 -28 -14l-869 444q-18 11 -12 27z" />
<glyph horiz-adv-x="1273" d="M1186 803l-29 -160q-3 -20 -24 -20h-367l-68 -402q-3 -20 -24 -20h-168q-24 0 -21 24l68 398h-365q-23 0 -20 24l29 160q3 20 24 20h367l67 400q3 20 25 20h168q23 0 20 -24l-67 -396h364q24 0 21 -24z" />
<glyph horiz-adv-x="1783" d="M1348 82l-199 -51q-192 -51 -363 -51q-294 0 -462 163t-168 432q0 79 15 161.5t49 169t83 165.5t121.5 149.5t160.5 122t204.5 81.5t248.5 30q153 0 279.5 -45t211 -123.5t131 -185t46.5 -230.5q0 -80 -18.5 -150.5t-56.5 -130.5t-104.5 -95t-154.5 -35q-106 0 -163.5 60 t-96.5 206q-19 77 -54.5 115.5t-103.5 38.5q-84 0 -140 -52.5t-56 -142.5q0 -59 40.5 -93t112.5 -34q66 0 115 16l8 2q20 7 27 -14q28 -81 80 -123q22 -19 -4 -28l-95 -25q-84 -23 -163 -23q-155 0 -239.5 73.5t-84.5 207.5q0 59 14 116.5t46 114.5t79 99.5t119.5 69 t161.5 26.5q112 0 183.5 -42t113.5 -136q26 -52 48 -119.5t37 -93t46 -25.5q28 0 48.5 20.5t30.5 53t14.5 62.5t4.5 59q0 181 -136 296.5t-359 115.5q-131 0 -242 -43.5t-183.5 -112.5t-124 -157t-74 -175t-22.5 -168q0 -196 122.5 -312t334.5 -116q144 0 313 45l189 49 q24 7 27 -18l20 -143q3 -21 -18 -27z" />
<glyph horiz-adv-x="1202" d="M1124 690l-30 -190q-14 -85 -59 -145.5t-130 -106.5l-49 -29l148 -192q8 -11 3 -19t-18 -8h-194q-19 0 -27 14l-82 105l-88 -51q-152 -86 -299 -86q-130 0 -203 61t-73 170q0 100 44.5 173.5t141.5 133.5l108 72q-57 88 -57 164q0 148 106 243t308 95q109 0 200 -29 l52 -16q22 -6 12 -29l-61 -139q-9 -21 -29 -15l-49 17q-65 18 -146 18q-88 0 -133 -42t-45 -103q0 -47 35 -88l229 -299l84 49q60 38 68 90l6 39h-96q-24 0 -21 24l23 123q3 21 24 21h277q23 0 20 -25zM567 268l-135 172l-110 -71q-82 -54 -82 -119q0 -35 22 -54.5t62 -19.5 q91 0 192 64z" />
<glyph horiz-adv-x="1060" d="M932 846l-64 20q-90 23 -149 23q-93 0 -166.5 -31t-117.5 -78.5t-73 -110.5t-40 -121t-11 -116q0 -121 64.5 -184.5t193.5 -63.5q87 0 189 27l88 22q21 6 24 -18l19 -154q3 -20 -19 -26l-82 -23q-84 -22 -151 -30l-27 -162q-3 -21 -24 -21h-185q-23 0 -20 25l29 170 q-158 35 -241 145.5t-83 280.5q0 79 15 158t51.5 162t91 150t141.5 119t195 72l28 170q3 21 25 21h184q24 0 21 -25l-27 -160q57 -6 119 -24l96 -29q24 -6 12 -28l-75 -148q-9 -18 -31 -12z" />
<glyph horiz-adv-x="1071" d="M485 670l232 -62q125 -31 184.5 -92.5t59.5 -161.5q0 -140 -92 -242.5t-279 -127.5l-27 -164q-3 -21 -24 -21h-185q-23 0 -20 25l26 158q-115 11 -227 43l-90 26q-21 9 -12 31l73 149q10 19 31 13l68 -21q124 -39 289 -39q115 0 179 39.5t64 108.5q0 64 -102 90l-234 59 q-121 31 -178 91.5t-57 158.5q0 139 93 238.5t278 120.5l26 161q3 21 25 21h184q24 0 21 -25l-27 -162q61 -5 143 -26l101 -29q24 -6 14 -29l-72 -153q-9 -18 -28 -12l-91 24q-104 29 -213 29q-108 0 -168.5 -34.5t-60.5 -96.5q0 -65 96 -88z" />
<glyph horiz-adv-x="1153" d="M1024 846l-63 20q-90 23 -150 23q-208 0 -315 -148h356q12 0 17 -7t-1 -19l-49 -111q-10 -16 -26 -16h-369q-8 -30 -16 -86h331q12 0 17.5 -7.5t-0.5 -19.5l-47 -108q-10 -17 -27 -17h-270q41 -166 250 -166q86 0 188 27l88 22q22 6 25 -18l18 -154q3 -20 -18 -26 l-82 -23q-137 -35 -228 -35q-211 0 -330.5 97.5t-140.5 275.5h-131q-23 0 -20 25l16 106q3 21 25 21h110q1 17 6.5 47.5t6.5 38.5h-105q-23 0 -20 24l20 109q3 20 25 20h129q33 75 81.5 136t117.5 111t164.5 78t209.5 28q97 0 205 -31l96 -29q24 -6 12 -28l-75 -148 q-9 -18 -31 -12z" />
<glyph horiz-adv-x="1355" d="M453 1094q108 0 167.5 -49.5t59.5 -139.5q0 -123 -78 -206t-229 -83q-107 0 -166.5 50.5t-59.5 140.5q0 55 18 105t54 91.5t96 66t138 24.5zM1253 1044l-942 -1032q-9 -12 -26 -12h-154q-14 0 -17.5 8.5t5.5 20.5l942 1032q9 12 26 12h154q14 0 17.5 -8.5t-5.5 -20.5z M428 954q-58 0 -91.5 -31t-33.5 -87q0 -37 25 -57.5t69 -20.5q58 0 91.5 30.5t33.5 85.5q0 37 -25 58.5t-69 21.5zM997 455q107 0 166.5 -49.5t59.5 -137.5q0 -124 -78 -207.5t-230 -83.5q-107 0 -166 50.5t-59 138.5q0 120 77.5 204.5t229.5 84.5zM973 315q-59 0 -93 -31 t-34 -87q0 -37 25 -57.5t69 -20.5q58 0 91.5 31.5t33.5 87.5q0 37 -24 57t-68 20z" />
<glyph horiz-adv-x="1101" d="M469 440l-16 -98q-15 -77 -50 -129q-6 -12 -2.5 -17t17.5 -3q83 10 184 10h324q23 0 20 -25l-26 -155q-3 -21 -25 -21h-774q-17 0 -27 16q-6 18 4 31l31 43q66 89 86 205l25 143h-136q-23 0 -20 25l18 108q3 21 25 21h137l25 149q29 165 151 258t312 93q85 0 204 -39 l43 -15q23 -10 11 -30l-78 -144q-9 -18 -31 -12l-45 16q-59 19 -121 19q-89 0 -149 -46.5t-72 -123.5l-20 -125h245q24 0 21 -25l-19 -108q-3 -21 -24 -21h-248z" />
<glyph horiz-adv-x="1243" d="M948 688l-78 -100h164q24 0 21 -25l-21 -123q-3 -20 -24 -20h-250q-29 -56 -41 -96h270q24 0 21 -25l-21 -123q-3 -20 -24 -20h-285l-23 -136q-3 -20 -24 -20h-182q-24 0 -21 25l23 131h-281q-23 0 -20 24l20 123q3 21 25 21h272q3 42 -8 96h-244q-23 0 -20 24l22 123 q3 21 25 21h164q-7 17 -23 50.5t-23 49.5l-180 359q-6 12 -1.5 19t18.5 7h200q19 0 27 -16l117 -219q51 -107 78 -222q1 -8 6.5 -11t12 -0.5t11.5 11.5q88 140 154 222l194 223q9 12 27 12h209q15 0 19 -7.5t-5 -18.5z" />
<glyph horiz-adv-x="536" d="M432 1468h201q13 0 17.5 -8t-3.5 -18l-172 -266q-12 -15 -29 -15h-143q-12 0 -17 7.5t1 19.5l119 264q10 16 26 16z" />
</font>
</defs>
</svg>
