<?xml version="1.0" encoding="UTF-8" standalone="no"?><!DOCTYPE svg PUBLIC "-//W3C//DTD SVG 1.1//EN" "http://www.w3.org/Graphics/SVG/1.1/DTD/svg11.dtd"><svg width="100%" height="100%" viewBox="0 0 377 78" version="1.1" xmlns="http://www.w3.org/2000/svg" xmlns:xlink="http://www.w3.org/1999/xlink" xml:space="preserve" xmlns:serif="http://www.serif.com/" style="fill-rule:evenodd;clip-rule:evenodd;stroke-linejoin:round;stroke-miterlimit:1.41421;"><g><g><path d="M111.18,15.839c0,-0.211 -0.126,-0.338 -0.337,-0.338l-1.136,0c-0.21,0 -0.337,0.127 -0.337,0.338l0,21.229c0,3.798 -1.815,5.908 -4.853,5.908c-1.224,0 -1.815,-0.084 -2.659,-0.337l-1.055,-0.338c-0.211,-0.042 -0.38,0.042 -0.422,0.211l-0.338,0.969c-0.042,0.21 0.042,0.379 0.253,0.421l1.14,0.379c0.971,0.336 1.815,0.462 3.081,0.462c4.094,0 6.663,-2.949 6.663,-7.675l0,-21.229Z" style="fill-rule:nonzero;"/><path d="M120.425,14.531c-0.842,0 -1.348,0.505 -1.348,1.348c0,0.926 0.506,1.39 1.348,1.39c0.842,0 1.306,-0.464 1.306,-1.39c0,-0.843 -0.464,-1.348 -1.306,-1.348Zm1.306,10.043c0,-0.21 -0.126,-0.336 -0.337,-0.336l-3.33,0c-0.211,0 -0.337,0.126 -0.337,0.336l0,1.01c0,0.21 0.126,0.336 0.337,0.336l1.899,0l0,18.064c0,0.211 0.127,0.337 0.337,0.337l1.094,0c0.211,0 0.337,-0.126 0.337,-0.337l0,-19.41Z" style="fill-rule:nonzero;"/><path d="M130.425,24.575c0,-0.211 -0.126,-0.337 -0.337,-0.337l-1.009,0c-0.211,0 -0.337,0.126 -0.337,0.337l0,19.409c0,0.211 0.126,0.337 0.337,0.337l1.094,0c0.21,0 0.336,-0.126 0.336,-0.337l0,-8.945c0,-6.038 2.787,-9.498 7.516,-9.498c3.504,0 5.615,2.49 5.615,6.626l0,11.817c0,0.211 0.126,0.337 0.337,0.337l1.051,0c0.211,0 0.337,-0.126 0.337,-0.337l0,-11.902c0,-5.064 -2.738,-8.267 -7.256,-8.267c-3.378,0 -5.658,1.389 -7.22,3.794c-0.211,0.337 -0.464,0.337 -0.464,-0.043l0,-2.991Z" style="fill-rule:nonzero;"/><path d="M168.324,15.079c0,-0.211 -0.126,-0.337 -0.337,-0.337l-1.094,0c-0.21,0 -0.336,0.126 -0.336,0.337l0,10.504l-1.309,-0.631c-1.815,-0.842 -3.335,-1.137 -5.362,-1.137c-5.615,0.043 -8.902,3.921 -8.902,10.464c0,6.46 3.16,10.464 8.48,10.464c2.913,0 5.193,-1.472 6.713,-3.751c0.253,-0.427 0.464,-0.342 0.506,0.037l0,2.955c0,0.211 0.126,0.337 0.337,0.337l0.967,0c0.211,0 0.337,-0.126 0.337,-0.337l0,-28.905Zm-1.767,12.361l0,6.077c0,5.364 -2.322,9.501 -7.051,9.501c-4.18,0 -6.713,-3.335 -6.755,-8.739c-0.042,-5.488 2.702,-8.696 7.177,-8.738c1.9,0 3.293,0.295 4.729,0.971l1.9,0.928Z" style="fill-rule:nonzero;"/><path d="M180.479,19.759c0.169,0 0.295,-0.043 0.422,-0.211l3.756,-4.385c0.169,-0.211 0.085,-0.421 -0.211,-0.421l-1.013,0c-0.169,0 -0.295,0.042 -0.422,0.168l-3.039,3.25l-3.08,-3.25c-0.126,-0.126 -0.252,-0.168 -0.421,-0.168l-0.967,0c-0.295,0 -0.38,0.211 -0.211,0.422l3.751,4.384c0.127,0.168 0.253,0.211 0.422,0.211l1.013,0Zm-3.461,4.816c0,-0.211 -0.126,-0.337 -0.336,-0.337l-1.01,0c-0.21,0 -0.337,0.126 -0.337,0.337l0,19.409c0,0.211 0.127,0.337 0.337,0.337l1.094,0c0.21,0 0.337,-0.126 0.337,-0.337l0,-7.384c0,-6.797 2.869,-10.848 7.385,-11.059c0.211,0 0.338,-0.127 0.338,-0.337l0,-1.052c0,-0.21 -0.127,-0.337 -0.338,-0.337c-3.292,0.127 -5.486,1.726 -7.006,4.427c-0.168,0.253 -0.422,0.211 -0.464,-0.085l0,-3.582Z" style="fill-rule:nonzero;"/><path d="M192.256,14.531c-0.842,0 -1.347,0.505 -1.347,1.348c0,0.926 0.505,1.39 1.347,1.39c0.843,0 1.306,-0.464 1.306,-1.39c0,-0.843 -0.463,-1.348 -1.306,-1.348Zm1.306,10.043c0,-0.21 -0.126,-0.336 -0.336,-0.336l-3.33,0c-0.211,0 -0.338,0.126 -0.338,0.336l0,1.01c0,0.21 0.127,0.336 0.338,0.336l1.899,0l0,18.064c0,0.211 0.126,0.337 0.336,0.337l1.095,0c0.21,0 0.336,-0.126 0.336,-0.337l0,-19.41Z" style="fill-rule:nonzero;"/><path d="M214.031,43.649c0.211,-0.042 0.296,-0.21 0.211,-0.42l-0.295,-0.928c-0.085,-0.169 -0.253,-0.254 -0.422,-0.211l-1.098,0.337c-1.35,0.422 -2.658,0.591 -3.84,0.591c-4.896,0 -7.47,-3.293 -7.47,-8.739c0,-5.446 2.49,-8.738 7.596,-8.738c0.971,0 2.153,0.126 3.461,0.506l1.013,0.338c0.211,0.042 0.38,-0.042 0.464,-0.253l0.296,-0.928c0.084,-0.21 0,-0.379 -0.211,-0.421l-1.055,-0.294c-1.393,-0.421 -2.659,-0.674 -4.01,-0.674c-6.119,0 -9.322,4.005 -9.322,10.464c0,6.417 3.245,10.464 9.28,10.464c1.519,0 2.912,-0.336 4.305,-0.757l1.097,-0.337Z" style="fill-rule:nonzero;"/><path d="M221.923,15.079c0,-0.211 -0.126,-0.337 -0.336,-0.337l-1.094,0c-0.211,0 -0.337,0.126 -0.337,0.337l0,28.905c0,0.211 0.126,0.337 0.337,0.337l1.094,0c0.21,0 0.336,-0.126 0.336,-0.337l0,-8.947c0,-4.896 1.9,-9.496 7.516,-9.496c3.504,0 5.615,2.447 5.615,6.626l0,11.817c0,0.211 0.126,0.337 0.337,0.337l1.052,0c0.21,0 0.336,-0.126 0.336,-0.337l0,-11.902c0,-5.064 -2.738,-8.267 -7.256,-8.267c-3.546,0 -5.869,1.515 -7.304,3.92c-0.253,0.38 -0.506,0.253 -0.464,-0.126c0.126,-1.182 0.168,-2.405 0.168,-3.962l0,-8.568Z" style="fill-rule:nonzero;"/><path d="M253.623,15.501c-0.211,0 -0.337,0.126 -0.337,0.337l0,28.146c0,0.211 0.126,0.337 0.337,0.337l1.136,0c0.21,0 0.337,-0.126 0.337,-0.337l0,-11.269l5.868,0c8.022,0 11.942,-2.991 11.942,-8.776c0,-5.319 -3.414,-8.438 -9.324,-8.438l-9.959,0Zm1.473,1.641l8.486,0c4.686,0 7.514,2.533 7.514,6.797c0,4.645 -3.293,7.093 -10.132,7.093l-5.868,0l0,-13.89Z" style="fill-rule:nonzero;"/><path d="M291.438,43.776c0.211,-0.042 0.295,-0.211 0.211,-0.421l-0.295,-0.97c-0.084,-0.211 -0.253,-0.295 -0.464,-0.253l-1.013,0.338c-1.309,0.422 -2.618,0.548 -4.18,0.548c-3.885,0 -6.418,-2.364 -7.009,-6.543l9.035,-1.52c3.589,-0.633 5.356,-2.322 5.356,-5.108c0,-3.8 -2.738,-6.032 -7.382,-6.032c-5.531,0 -8.945,4.005 -8.945,10.464c0,6.46 3.371,10.464 8.945,10.464c1.689,0 3.166,-0.21 4.686,-0.673l1.055,-0.294Zm-12.919,-8.948c0.042,-6.163 2.66,-9.287 7.178,-9.287c3.546,0 5.615,1.562 5.615,4.306c0,1.815 -1.351,2.997 -3.926,3.461l-8.867,1.52Z" style="fill-rule:nonzero;"/><path d="M308.357,24.153c0,-0.211 -0.126,-0.338 -0.337,-0.338c-3.292,0.127 -5.487,1.73 -7.006,4.431c-0.169,0.253 -0.422,0.211 -0.464,-0.085l0,-3.586c0,-0.211 -0.126,-0.337 -0.337,-0.337l-1.01,0c-0.21,0 -0.336,0.126 -0.336,0.337l0,19.409c0,0.211 0.126,0.337 0.336,0.337l1.094,0c0.211,0 0.337,-0.126 0.337,-0.337l0,-7.384c0,-6.797 2.87,-10.848 7.386,-11.059c0.211,0 0.337,-0.127 0.337,-0.337l0,-1.051Z" style="fill-rule:nonzero;"/><path d="M314.562,50.741c-0.212,-0.042 -0.38,0.042 -0.423,0.253l-0.337,0.971c-0.084,0.211 0,0.379 0.211,0.421l1.731,0.505c1.097,0.337 3.208,0.673 4.939,0.673c5.869,0 8.861,-3.077 8.861,-8.229l0,-18.697c0,-0.211 -0.084,-0.338 -0.253,-0.422l-2.739,-1.222c-1.478,-0.674 -3.335,-1.179 -5.277,-1.179c-5.785,0 -9.114,3.921 -9.114,10.464c0,6.46 3.245,10.464 8.396,10.464c3.335,0 5.573,-1.767 6.924,-3.962c0.211,-0.38 0.506,-0.253 0.464,0.127c-0.084,1.688 -0.084,0.506 -0.126,4.511c-0.127,4.182 -2.449,6.42 -7.178,6.42c-1.604,0 -3.588,-0.338 -4.433,-0.591l-1.646,-0.507Zm13.172,-23.301l0,6.037c0,5.404 -2.322,9.541 -7.051,9.541c-4.348,0 -6.755,-3.588 -6.755,-8.781c0,-5.53 2.702,-8.654 7.262,-8.696c1.773,0 3.462,0.379 4.644,0.971l1.9,0.928Z" style="fill-rule:nonzero;"/><path d="M338.111,15.079c0,-0.211 -0.126,-0.337 -0.336,-0.337l-1.094,0c-0.211,0 -0.337,0.126 -0.337,0.337l0,26.293c0,2.109 1.136,3.371 2.991,3.371c0.38,0 0.76,-0.084 1.097,-0.168c0.211,-0.084 0.254,-0.252 0.169,-0.421l-0.422,-1.009c-0.084,-0.169 -0.211,-0.211 -0.422,-0.169c-0.126,0.042 -0.253,0.042 -0.422,0.042c-0.76,0 -1.224,-0.633 -1.224,-1.646l0,-26.293Z" style="fill-rule:nonzero;"/><path d="M359.429,43.776c0.211,-0.042 0.295,-0.211 0.211,-0.421l-0.295,-0.97c-0.084,-0.211 -0.253,-0.295 -0.464,-0.253l-1.014,0.338c-1.308,0.422 -2.617,0.548 -4.18,0.548c-3.884,0 -6.417,-2.364 -7.008,-6.543l9.035,-1.52c3.589,-0.633 5.356,-2.322 5.356,-5.108c0,-3.8 -2.738,-6.032 -7.383,-6.032c-5.531,0 -8.944,4.005 -8.944,10.464c0,6.46 3.371,10.464 8.944,10.464c1.689,0 3.167,-0.21 4.687,-0.673l1.055,-0.294Zm-12.919,-8.948c0.042,-6.163 2.66,-9.287 7.177,-9.287c3.547,0 5.616,1.562 5.616,4.306c0,1.815 -1.351,2.997 -3.927,3.461l-8.866,1.52Z" style="fill-rule:nonzero;"/><path d="M376.348,24.153c0,-0.211 -0.126,-0.338 -0.338,-0.338c-3.291,0.127 -5.486,1.73 -7.005,4.431c-0.169,0.253 -0.422,0.211 -0.464,-0.085l0,-3.586c0,-0.211 -0.127,-0.337 -0.337,-0.337l-1.01,0c-0.21,0 -0.337,0.126 -0.337,0.337l0,19.409c0,0.211 0.127,0.337 0.337,0.337l1.094,0c0.211,0 0.337,-0.126 0.337,-0.337l0,-7.384c0,-6.797 2.87,-10.848 7.385,-11.059c0.212,0 0.338,-0.127 0.338,-0.337l0,-1.051Z" style="fill-rule:nonzero;"/></g><g><path d="M100.316,54.028c-0.181,0 -0.283,0.102 -0.283,0.282l0,17.43c0,0.18 0.102,0.283 0.283,0.283l2.34,0c0.18,0 0.283,-0.103 0.283,-0.283l0,-6.051l2.782,0c4.766,0 7.363,-2.135 7.363,-5.947c0,-3.58 -2.289,-5.714 -6.203,-5.714l-6.565,0Zm2.623,2.597l3.942,0c2.035,0 3.245,1.159 3.245,3.117c0,2.164 -1.52,3.375 -4.405,3.375l-2.782,0l0,-6.492Z" style="fill:#f26621;fill-rule:nonzero;"/><path d="M118.93,53.847c0,-0.18 -0.103,-0.283 -0.283,-0.283l-2.289,0c-0.181,0 -0.283,0.103 -0.283,0.283l0,17.893c0,0.18 0.102,0.283 0.283,0.283l2.289,0c0.18,0 0.283,-0.103 0.283,-0.283l0,-6c0.025,-2.24 0.927,-3.888 3.014,-3.888c1.391,0 2.242,0.953 2.242,2.601l0,7.287c0,0.18 0.103,0.283 0.283,0.283l2.289,0c0.18,0 0.283,-0.103 0.283,-0.283l0,-7.596c0,-3.038 -1.775,-4.863 -4.71,-4.863c-1.469,0 -2.577,0.54 -3.453,1.491c-0.309,0.232 -0.463,0.052 -0.36,-0.231c0.283,-0.875 0.412,-1.698 0.412,-2.934l0,-3.76Z" style="fill:#f26621;fill-rule:nonzero;"/><path d="M135.694,59.281c-3.683,0 -5.946,2.52 -5.946,6.487c0,4.018 2.263,6.539 5.946,6.539c3.658,0 5.921,-2.521 5.921,-6.539c0,-3.967 -2.263,-6.487 -5.921,-6.487Zm0,2.571c1.907,0 3.092,1.469 3.092,3.916c0,2.473 -1.185,3.941 -3.092,3.941c-1.958,0 -3.117,-1.468 -3.117,-3.941c0,-2.447 1.159,-3.916 3.117,-3.916Z" style="fill:#f26621;fill-rule:nonzero;"/><path d="M148.027,59.538l0,-3.811c0,-0.206 -0.129,-0.283 -0.335,-0.232l-2.289,0.773c-0.154,0.051 -0.231,0.154 -0.231,0.309l0,2.961l-1.262,0c-0.18,0 -0.283,0.103 -0.283,0.283l0,1.98c0,0.18 0.103,0.283 0.283,0.283l1.262,0l0,6.26c0,2.497 1.414,3.963 3.859,3.963c0.618,0 1.287,-0.18 1.751,-0.438c0.154,-0.103 0.206,-0.231 0.129,-0.385l-0.824,-1.749c-0.078,-0.18 -0.206,-0.206 -0.387,-0.129c-0.206,0.077 -0.437,0.103 -0.669,0.103c-0.618,0 -1.004,-0.489 -1.004,-1.365l0,-6.26l2.884,0c0.18,0 0.283,-0.103 0.283,-0.283l0,-1.98c0,-0.18 -0.103,-0.283 -0.283,-0.283l-2.884,0Z" style="fill:#f26621;fill-rule:nonzero;"/><path d="M159.1,59.281c-3.683,0 -5.946,2.52 -5.946,6.487c0,4.018 2.263,6.539 5.946,6.539c3.658,0 5.921,-2.521 5.921,-6.539c0,-3.967 -2.263,-6.487 -5.921,-6.487Zm0,2.571c1.907,0 3.092,1.469 3.092,3.916c0,2.473 -1.185,3.941 -3.092,3.941c-1.958,0 -3.117,-1.468 -3.117,-3.941c0,-2.447 1.159,-3.916 3.117,-3.916Z" style="fill:#f26621;fill-rule:nonzero;"/><path d="M169.399,74.678c-0.154,-0.051 -0.282,0.026 -0.334,0.181l-0.591,1.904c-0.052,0.18 0.025,0.308 0.205,0.36l1.261,0.36c0.721,0.205 1.854,0.334 2.808,0.334c3.94,0 6.178,-2.083 6.178,-5.896l0,-10.789c0,-0.154 -0.077,-0.257 -0.231,-0.308l-2.29,-0.952c-1.004,-0.411 -2.112,-0.591 -3.168,-0.591c-3.76,0 -5.998,2.417 -5.998,6.564c0,3.941 2.058,6.462 5.457,6.462c1.469,0 2.705,-0.566 3.555,-1.492c0.232,-0.232 0.36,-0.103 0.36,0.077c-0.026,0.54 -0.051,0.463 -0.128,1.595c-0.464,2.062 -2.087,2.758 -3.864,2.758c-0.747,0 -1.675,-0.129 -2.216,-0.283l-1.004,-0.284Zm6.672,-12.027l0,3.168c0,2.473 -1.082,3.89 -3.04,3.89c-1.907,0 -2.963,-1.597 -2.963,-3.941c0,-2.473 1.16,-3.916 3.143,-3.916c0.747,0 1.52,0.155 2.087,0.438l0.773,0.361Z" style="fill:#f26621;fill-rule:nonzero;"/><path d="M189.406,59.564c0,-0.18 -0.103,-0.283 -0.283,-0.283c-1.88,0.051 -3.039,0.695 -4.069,2.033c-0.231,0.258 -0.36,0.206 -0.514,-0.077l-0.412,-1.467c-0.051,-0.155 -0.154,-0.232 -0.334,-0.232l-1.286,0c-0.18,0 -0.283,0.103 -0.283,0.283l0,11.919c0,0.18 0.103,0.283 0.283,0.283l2.289,0c0.18,0 0.283,-0.103 0.283,-0.283l0,-3.063c0,-4.737 1.236,-6.693 4.043,-6.822c0.18,0 0.283,-0.103 0.283,-0.283l0,-2.008Z" style="fill:#f26621;fill-rule:nonzero;"/><path d="M192.369,59.949c-0.18,0.052 -0.257,0.18 -0.206,0.36l0.566,1.904c0.052,0.181 0.18,0.258 0.36,0.206l0.926,-0.283c0.619,-0.181 1.263,-0.258 2.01,-0.258c1.907,0 2.912,0.851 2.912,2.423l0,0.155l-3.221,0c-3.038,0 -4.684,1.543 -4.684,3.964c0,2.421 1.594,3.887 4.452,3.887c1.572,0 2.731,-0.489 3.53,-1.363c0.334,-0.311 0.488,-0.311 0.643,0.049l0.206,0.799c0.051,0.154 0.154,0.231 0.334,0.231l1.286,0c0.18,0 0.283,-0.103 0.283,-0.283l0,-7.542c0,-3.117 -2.135,-4.917 -5.612,-4.917c-1.056,0 -1.933,0.128 -2.808,0.385l-0.977,0.283Zm6.568,6.744l0,0.18c0,1.908 -1.108,2.913 -3.144,2.913c-1.237,0 -1.932,-0.618 -1.932,-1.624c0,-0.876 0.592,-1.469 1.855,-1.469l3.221,0Z" style="fill:#f26621;fill-rule:nonzero;"/><path d="M206.917,59.77c-0.026,-0.155 -0.129,-0.232 -0.309,-0.232l-1.286,0c-0.18,0 -0.283,0.103 -0.283,0.283l0,17.455c0,0.18 0.103,0.283 0.283,0.283l2.289,0c0.18,0 0.283,-0.103 0.283,-0.283l0,-5.767l0.696,0.309c0.747,0.334 1.417,0.489 2.344,0.489c3.606,0 5.767,-2.495 5.767,-6.538c0,-3.994 -2.032,-6.488 -5.406,-6.488c-1.391,0 -2.602,0.462 -3.607,1.594c-0.18,0.234 -0.385,0.259 -0.488,-0.024l-0.283,-1.081Zm0.952,9.141l0,-3.219c0,-2.243 1.03,-3.84 2.962,-3.84c1.907,0 3.04,1.469 3.04,3.916c0,2.473 -1.133,3.941 -3.117,3.941c-0.773,0 -1.494,-0.129 -2.113,-0.438l-0.772,-0.36Z" style="fill:#f26621;fill-rule:nonzero;"/><path d="M222.391,53.847c0,-0.18 -0.103,-0.283 -0.283,-0.283l-2.289,0c-0.18,0 -0.283,0.103 -0.283,0.283l0,17.893c0,0.18 0.103,0.283 0.283,0.283l2.289,0c0.18,0 0.283,-0.103 0.283,-0.283l0,-6c0.026,-2.24 0.928,-3.888 3.015,-3.888c1.391,0 2.241,0.953 2.241,2.601l0,7.287c0,0.18 0.103,0.283 0.283,0.283l2.289,0c0.18,0 0.283,-0.103 0.283,-0.283l0,-7.596c0,-3.038 -1.774,-4.863 -4.71,-4.863c-1.468,0 -2.576,0.54 -3.452,1.491c-0.309,0.232 -0.463,0.052 -0.36,-0.231c0.283,-0.875 0.411,-1.698 0.411,-2.934l0,-3.76Z" style="fill:#f26621;fill-rule:nonzero;"/><path d="M244.971,59.873c0.077,-0.206 -0.026,-0.335 -0.232,-0.335l-2.394,0c-0.155,0 -0.258,0.077 -0.335,0.206l-2.008,4.866c-0.438,1.107 -0.927,2.78 -1.108,3.733c-0.077,0.283 -0.36,0.283 -0.412,0.026c-0.154,-0.979 -0.618,-2.601 -1.056,-3.759l-2.034,-4.866c-0.077,-0.129 -0.18,-0.206 -0.335,-0.206l-2.395,0c-0.206,0 -0.309,0.129 -0.231,0.335l3.424,8.315c0.927,2.42 1.185,3.965 0.49,5.793l-1.365,3.244c-0.077,0.206 0.026,0.334 0.232,0.334l2.369,0c0.154,0 0.257,-0.077 0.309,-0.231l7.081,-17.455Z" style="fill:#f26621;fill-rule:nonzero;"/></g><path d="M0.465,66.934c-0.358,-0.621 -0.389,-1.377 -0.083,-2.024c0.307,-0.648 0.911,-1.103 1.618,-1.22c2.476,-0.4 4.895,-1.248 7.134,-2.545c6.449,-3.736 10.419,-10.624 10.419,-18.076c0,0 0,0 0,0c0,0 0,-29.67 0,-36.348c0,-0.819 0.438,-1.575 1.148,-1.983c0.99,-0.567 2.468,-1.415 3.826,-2.194c0.692,-0.396 1.542,-0.394 2.232,0.005c0.69,0.4 1.114,1.136 1.114,1.934c0,7.204 0,23.486 0,40.124c0,9.932 -5.291,19.112 -13.885,24.09c-2.813,1.63 -5.841,2.729 -8.944,3.296c-0.902,0.156 -1.805,-0.267 -2.263,-1.059c-0.622,-1.066 -1.523,-2.626 -2.316,-4Zm44.094,-0.056c0,0.792 -0.424,1.524 -1.112,1.918c-0.98,0.563 -2.462,1.413 -3.828,2.196c-0.698,0.4 -1.557,0.399 -2.254,-0.005c-0.697,-0.404 -1.126,-1.148 -1.126,-1.954c0,-7.557 0,-24.995 0,-42.383c0,-9.457 5.037,-18.198 13.22,-22.938c8.183,-4.74 18.271,-4.762 26.475,-0.057c0.161,0.092 0.323,0.185 0.484,0.278c8.233,4.721 13.311,13.487 13.311,22.977c0,9.491 -5.078,18.256 -13.311,22.978c-4.8,2.753 -8.95,5.133 -11.649,6.681c-0.68,0.39 -1.517,0.388 -2.195,-0.005c-0.679,-0.393 -1.097,-1.118 -1.097,-1.902c0,-1.291 0,-2.652 0,-3.623c0,-0.833 0.446,-1.602 1.169,-2.016c1.81,-1.038 5.554,-3.186 10.027,-5.751c5.862,-3.362 9.478,-9.604 9.478,-16.362c0,-6.758 -3.616,-12.999 -9.478,-16.361c0,-0.001 -0.001,-0.001 -0.001,-0.001c-5.81,-3.332 -12.955,-3.316 -18.75,0.041c-5.795,3.357 -9.363,9.547 -9.363,16.245c0,16.929 0,35.132 0,40.044Z" style="fill:#f60;"/></g></svg>