<?xml version="1.0" encoding="utf-8"?>
<!-- Generator: Adobe Illustrator 16.0.0, SVG Export Plug-In . SVG Version: 6.00 Build 0)  -->
<!DOCTYPE svg PUBLIC "-//W3C//DTD SVG 1.1//EN" "http://www.w3.org/Graphics/SVG/1.1/DTD/svg11.dtd">
<svg version="1.1" id="Layer_1" xmlns="http://www.w3.org/2000/svg" xmlns:xlink="http://www.w3.org/1999/xlink" x="0px" y="0px"
	 width="101.545px" height="101.545px" viewBox="142.867 266.172 101.545 101.545"
	 enable-background="new 142.867 266.172 101.545 101.545" xml:space="preserve">
<path fill="#211F1D" d="M236.992,266.172h-86.704c-4.296,0-7.42,3.125-7.42,7.42v86.704c0,3.906,3.515,7.421,7.42,7.421h86.704
	c4.296,0,7.42-3.125,7.42-7.421v-86.704C244.412,269.297,240.897,266.172,236.992,266.172z M174.112,352.095H158.49v-46.867h15.623
	V352.095z M166.301,298.979c-5.078,0-9.374-4.296-9.374-9.373s4.296-9.374,9.374-9.374c5.077,0,9.373,4.296,9.373,9.374
	S171.378,298.979,166.301,298.979z M228.79,352.095h-15.623v-23.434c0-6.249-1.562-12.498-7.811-12.498s-7.812,6.249-7.812,12.498
	v23.434h-15.622v-46.867h15.622v5.468h0.782c1.953-3.905,7.03-7.03,12.888-7.03c14.451,0,17.575,9.374,17.575,21.09V352.095z"/>
</svg>
