<?xml version="1.0" encoding="utf-8"?>
<!-- Generator: Adobe Illustrator 16.0.0, SVG Export Plug-In . SVG Version: 6.00 Build 0)  -->
<!DOCTYPE svg PUBLIC "-//W3C//DTD SVG 1.1//EN" "http://www.w3.org/Graphics/SVG/1.1/DTD/svg11.dtd">
<svg version="1.1" id="Layer_1" xmlns="http://www.w3.org/2000/svg" xmlns:xlink="http://www.w3.org/1999/xlink" x="0px" y="0px"
	 width="101.141px" height="101.14px" viewBox="247.07 370.375 101.141 101.14"
	 enable-background="new 247.07 370.375 101.141 101.14" xml:space="preserve">
<g>
	<path d="M336.072,390.547l-14.021-14.03c-3.064-3.054-9.092-5.554-13.412-5.554h-47.134c-4.32,0-7.855,3.535-7.855,7.855v84.842
		c0,4.318,3.535,7.854,7.855,7.854h72.271c4.32,0,7.857-3.536,7.857-7.854v-59.704C341.632,399.637,339.136,393.606,336.072,390.547
		z M316.493,380.05c0.432,0.298,0.807,0.604,1.119,0.912l14.021,14.02c0.314,0.314,0.609,0.688,0.904,1.12h-16.045V380.05z
		 M335.345,463.661c0,0.843-0.725,1.569-1.57,1.569h-72.271c-0.852,0-1.571-0.727-1.571-1.569v-84.842
		c0-0.852,0.719-1.571,1.571-1.571h47.134c0.471,0,1,0.059,1.57,0.167v24.981h24.961c0.117,0.569,0.176,1.099,0.176,1.57V463.661z"
		/>
	<g>
		<path d="M289.768,448.066c-2.663,0.889-4.685,1.184-7.397,1.184c-9.913,0-15.979-6.953-15.979-18.049
			c0-11.047,6.066-18.001,15.979-18.001c2.811,0,4.882,0.247,7.348,1.036l2.269,0.74c0.395,0.148,0.542,0.395,0.395,0.789
			l-1.775,5.573c-0.148,0.395-0.395,0.542-0.789,0.395l-2.318-0.74c-1.43-0.444-2.86-0.641-5.129-0.641
			c-4.932,0-7.94,3.995-7.94,10.85c0,6.953,3.008,10.947,7.94,10.947c1.825,0,3.304-0.147,5.08-0.739l2.318-0.69
			c0.395-0.148,0.69,0,0.789,0.395l1.973,5.375c0.148,0.395,0.049,0.642-0.395,0.789L289.768,448.066z"/>
		<path d="M322.905,433.371c-1.825,5.029-3.354,9.863-4.637,14.795c-0.098,0.345-0.345,0.542-0.739,0.542h-8.729
			c-0.395,0-0.641-0.197-0.739-0.542c-1.282-4.932-2.812-9.766-4.636-14.795l-6.953-18.889c-0.148-0.444,0.049-0.74,0.542-0.74
			h6.954c0.345,0,0.592,0.148,0.739,0.493l4.734,13.069c1.431,3.896,2.663,8.187,3.255,11.393c0.099,0.641,0.838,0.641,0.938,0
			c0.592-3.206,1.824-7.496,3.254-11.393l4.734-13.069c0.148-0.345,0.395-0.493,0.74-0.493h6.953c0.494,0,0.691,0.296,0.543,0.74
			L322.905,433.371z"/>
	</g>
</g>
</svg>
