<?xml version="1.0" encoding="utf-8"?>
<!-- Generator: Adobe Illustrator 16.0.0, SVG Export Plug-In . SVG Version: 6.00 Build 0)  -->
<!DOCTYPE svg PUBLIC "-//W3C//DTD SVG 1.1//EN" "http://www.w3.org/Graphics/SVG/1.1/DTD/svg11.dtd">
<svg version="1.1" id="Layer_1" xmlns="http://www.w3.org/2000/svg" xmlns:xlink="http://www.w3.org/1999/xlink" x="0px" y="0px"
	 width="101.131px" height="101.137px" viewBox="206.414 206.408 101.131 101.137"
	 enable-background="new 206.414 206.408 101.131 101.137" xml:space="preserve">
<path fill="#211F1D" d="M300.179,206.408h-8.284H222.07h-8.264c-4.279,0-7.392,3.113-7.392,7.393v8.259v69.821v8.292
	c0,3.89,3.502,7.392,7.392,7.392h86.373c4.278,0,7.392-3.113,7.392-7.392v-86.372C307.571,209.521,304.069,206.408,300.179,206.408z
	 M284.588,208.78l11.296,7.725l-18.735,27.37l-8.444,12.335l-7.805,11.4l-0.136,0.199l0.13,0.178l15.553,21.283l1.994,2.729
	l3.686,5.043l-11.002,8.122l-10.241-13.88l-15.563-21.092l-1.442-1.954l1.442-2.096l1.313-1.909l12.95-18.921L284.588,208.78z
	 M248.98,248.578l-3.66,5.298l-7.782,11.265l-8.196,11.864l-7.365-5.085l-3.895-2.688l3.895-5.725l9.92-14.578l-2.829-3.614
	l-10.954-13.997l2.319-1.815l8.451-6.612l8.954,11.446l8.588,10.978L248.98,248.578z"/>
</svg>
